%TF.GenerationSoftware,KiCad,Pcbnew,9.0.3*%
%TF.CreationDate,2025-07-13T20:53:50+12:00*%
%TF.ProjectId,RemiRAT,52656d69-5241-4542-9e6b-696361645f70,rev?*%
%TF.SameCoordinates,Original*%
%TF.FileFunction,Copper,L4,Bot*%
%TF.FilePolarity,Positive*%
%FSLAX46Y46*%
G04 Gerber Fmt 4.6, Leading zero omitted, Abs format (unit mm)*
G04 Created by KiCad (PCBNEW 9.0.3) date 2025-07-13 20:53:50*
%MOMM*%
%LPD*%
G01*
G04 APERTURE LIST*
G04 Aperture macros list*
%AMRoundRect*
0 Rectangle with rounded corners*
0 $1 Rounding radius*
0 $2 $3 $4 $5 $6 $7 $8 $9 X,Y pos of 4 corners*
0 Add a 4 corners polygon primitive as box body*
4,1,4,$2,$3,$4,$5,$6,$7,$8,$9,$2,$3,0*
0 Add four circle primitives for the rounded corners*
1,1,$1+$1,$2,$3*
1,1,$1+$1,$4,$5*
1,1,$1+$1,$6,$7*
1,1,$1+$1,$8,$9*
0 Add four rect primitives between the rounded corners*
20,1,$1+$1,$2,$3,$4,$5,0*
20,1,$1+$1,$4,$5,$6,$7,0*
20,1,$1+$1,$6,$7,$8,$9,0*
20,1,$1+$1,$8,$9,$2,$3,0*%
G04 Aperture macros list end*
%TA.AperFunction,ComponentPad*%
%ADD10R,4.400000X1.800000*%
%TD*%
%TA.AperFunction,ComponentPad*%
%ADD11O,4.000000X1.800000*%
%TD*%
%TA.AperFunction,ComponentPad*%
%ADD12O,1.800000X4.000000*%
%TD*%
%TA.AperFunction,ComponentPad*%
%ADD13R,1.700000X1.700000*%
%TD*%
%TA.AperFunction,ComponentPad*%
%ADD14C,1.700000*%
%TD*%
%TA.AperFunction,ComponentPad*%
%ADD15C,2.100000*%
%TD*%
%TA.AperFunction,ComponentPad*%
%ADD16RoundRect,0.250001X0.799999X-0.799999X0.799999X0.799999X-0.799999X0.799999X-0.799999X-0.799999X0*%
%TD*%
%TA.AperFunction,ComponentPad*%
%ADD17RoundRect,0.250000X0.750000X-0.750000X0.750000X0.750000X-0.750000X0.750000X-0.750000X-0.750000X0*%
%TD*%
%TA.AperFunction,ComponentPad*%
%ADD18C,2.000000*%
%TD*%
%TA.AperFunction,HeatsinkPad*%
%ADD19O,1.000000X2.100000*%
%TD*%
%TA.AperFunction,HeatsinkPad*%
%ADD20O,1.000000X1.800000*%
%TD*%
%TA.AperFunction,ComponentPad*%
%ADD21R,1.448000X1.448000*%
%TD*%
%TA.AperFunction,ComponentPad*%
%ADD22C,1.448000*%
%TD*%
%TA.AperFunction,ViaPad*%
%ADD23C,0.600000*%
%TD*%
%TA.AperFunction,Conductor*%
%ADD24C,0.300000*%
%TD*%
%TA.AperFunction,Conductor*%
%ADD25C,0.200000*%
%TD*%
%TA.AperFunction,Conductor*%
%ADD26C,0.439000*%
%TD*%
%TA.AperFunction,Conductor*%
%ADD27C,0.500000*%
%TD*%
%TA.AperFunction,Conductor*%
%ADD28C,0.400000*%
%TD*%
G04 APERTURE END LIST*
D10*
%TO.P,J15,1*%
%TO.N,VIN*%
X175700000Y-106000000D03*
D11*
%TO.P,J15,2*%
%TO.N,GND*%
X175700000Y-111800000D03*
D12*
%TO.P,J15,3*%
X180500000Y-109000000D03*
%TD*%
D13*
%TO.P,J14,1*%
%TO.N,VBUS*%
X154775000Y-115500000D03*
D14*
%TO.P,J14,2*%
%TO.N,GND*%
X152235000Y-115500000D03*
%TD*%
D15*
%TO.P,J10,2*%
%TO.N,GND*%
X185800000Y-109230000D03*
D16*
%TO.P,J10,1*%
%TO.N,VIN*%
X185800000Y-111770000D03*
%TD*%
D17*
%TO.P,C11,1*%
%TO.N,VIN*%
X169500000Y-100867677D03*
D18*
%TO.P,C11,2*%
%TO.N,GND*%
X169500000Y-95867677D03*
%TD*%
D13*
%TO.P,J11,1*%
%TO.N,VBUS*%
X136000000Y-117000000D03*
D14*
%TO.P,J11,2*%
X136000000Y-114460000D03*
%TO.P,J11,3*%
X136000000Y-111920000D03*
%TD*%
D13*
%TO.P,J3,1*%
%TO.N,GND*%
X188000000Y-59460000D03*
D14*
%TO.P,J3,2*%
%TO.N,ESP32TXD0*%
X188000000Y-62000000D03*
%TO.P,J3,3*%
%TO.N,ESP32RXD0*%
X188000000Y-64540000D03*
%TO.P,J3,4*%
%TO.N,3.3V*%
X188000000Y-67080000D03*
%TO.P,J3,5*%
%TO.N,EN*%
X188000000Y-69620000D03*
%TO.P,J3,6*%
%TO.N,IO0*%
X188000000Y-72160000D03*
%TD*%
D13*
%TO.P,J9,1*%
%TO.N,IO17*%
X183725000Y-77690000D03*
D14*
%TO.P,J9,2*%
%TO.N,IO5*%
X186265000Y-77690000D03*
%TO.P,J9,3*%
%TO.N,IO16*%
X183725000Y-80230000D03*
%TO.P,J9,4*%
%TO.N,IO18*%
X186265000Y-80230000D03*
%TO.P,J9,5*%
%TO.N,IO4*%
X183725000Y-82770000D03*
%TO.P,J9,6*%
%TO.N,IO19*%
X186265000Y-82770000D03*
%TO.P,J9,7*%
%TO.N,IO23*%
X183725000Y-85310000D03*
%TO.P,J9,8*%
%TO.N,IO21*%
X186265000Y-85310000D03*
%TD*%
D13*
%TO.P,J7,1*%
%TO.N,SAM-SPI-NPCS1*%
X140000000Y-56690000D03*
D14*
%TO.P,J7,2*%
%TO.N,SAM-SPI-MISO*%
X140000000Y-59230000D03*
%TO.P,J7,3*%
%TO.N,SAM-SPI-SCK*%
X140000000Y-61770000D03*
%TO.P,J7,4*%
%TO.N,SAM-SPI-MOSI*%
X140000000Y-64310000D03*
%TD*%
D13*
%TO.P,J12,1*%
%TO.N,CAN_OUT_L*%
X165500000Y-90775000D03*
D14*
%TO.P,J12,2*%
%TO.N,CAN_OUT_H*%
X165500000Y-88235000D03*
%TD*%
D19*
%TO.P,J1,S1*%
%TO.N,GND*%
X123980000Y-114212500D03*
D20*
X123980000Y-118392500D03*
D19*
X132620000Y-114212500D03*
D20*
X132620000Y-118392500D03*
%TD*%
D13*
%TO.P,J12,1*%
%TO.N,GND*%
X187000000Y-98440000D03*
D14*
%TO.P,J12,2*%
%TO.N,MODBUS_A*%
X187000000Y-95900000D03*
%TO.P,J12,3*%
%TO.N,MODBUS_B*%
X187000000Y-93360000D03*
%TD*%
D21*
%TO.P,VR2,1*%
%TO.N,VIN*%
X166700000Y-110500000D03*
D22*
%TO.P,VR2,2*%
%TO.N,GND*%
X166700000Y-113040000D03*
%TO.P,VR2,3*%
%TO.N,VBUS*%
X166700000Y-115580000D03*
%TD*%
D13*
%TO.P,J8,1*%
%TO.N,GND*%
X124040000Y-72540000D03*
D14*
%TO.P,J8,2*%
%TO.N,A1/PWML5/PC22*%
X121500000Y-72540000D03*
%TO.P,J8,3*%
%TO.N,3.3VOUT*%
X124040000Y-70000000D03*
%TO.P,J8,4*%
%TO.N,A2/PWML6/PC23*%
X121500000Y-70000000D03*
%TO.P,J8,5*%
%TO.N,D14/PC16*%
X124040000Y-67460000D03*
%TO.P,J8,6*%
%TO.N,SAM_PWML7_PC24_PIN135*%
X121500000Y-67460000D03*
%TO.P,J8,7*%
%TO.N,D15/PC17*%
X124040000Y-64920000D03*
%TO.P,J8,8*%
%TO.N,SAM_DAC0_PB15_PIN76*%
X121500000Y-64920000D03*
%TO.P,J8,9*%
%TO.N,SAM_AD6_PB0_PIN113*%
X124040000Y-62380000D03*
%TO.P,J8,10*%
%TO.N,TWCK0/PA18*%
X121500000Y-62380000D03*
%TO.P,J8,11*%
%TO.N,SAM_AD5_PA19_PIN71*%
X124040000Y-59840000D03*
%TO.P,J8,12*%
%TO.N,TWD0/PA17*%
X121500000Y-59840000D03*
%TD*%
D13*
%TO.P,J6,1*%
%TO.N,GND*%
X135000000Y-56420000D03*
D14*
%TO.P,J6,2*%
%TO.N,UTXD/PA9*%
X135000000Y-58960000D03*
%TO.P,J6,3*%
%TO.N,URXD/PA8*%
X135000000Y-61500000D03*
%TO.P,J6,4*%
%TO.N,3.3V*%
X135000000Y-64040000D03*
%TO.P,J6,5*%
%TO.N,NRSTB*%
X135000000Y-66580000D03*
%TO.P,J6,6*%
%TO.N,ERASE/PC0*%
X135000000Y-69120000D03*
%TD*%
D23*
%TO.N,GND*%
X159500000Y-87595000D03*
%TO.N,3.3V*%
X152000000Y-90135000D03*
%TO.N,GND*%
X178000000Y-109500000D03*
X188300000Y-109230000D03*
X185800000Y-106730000D03*
X164500000Y-113040000D03*
X172500000Y-113040000D03*
%TO.N,USBDP*%
X129550000Y-115637500D03*
X127550000Y-116637500D03*
%TO.N,USBDM*%
X129050000Y-116637500D03*
X127050000Y-115637500D03*
%TO.N,GND*%
X167889300Y-69500000D03*
X147500000Y-79750000D03*
X153255000Y-70000000D03*
X140000000Y-97000000D03*
X150500000Y-95750000D03*
X124750000Y-100000000D03*
X123500000Y-82500000D03*
X138020000Y-74020000D03*
X138000000Y-97000000D03*
X120000000Y-111500000D03*
X184500000Y-98440000D03*
X138500000Y-78500000D03*
X121000000Y-93500000D03*
X186000000Y-58500000D03*
X130000000Y-109613500D03*
X144000000Y-68000000D03*
X142500000Y-104500000D03*
X129250000Y-94750000D03*
X144500000Y-101000000D03*
X134481000Y-100980000D03*
X158050000Y-77000000D03*
X127000000Y-73500000D03*
X166500000Y-54000000D03*
X174500000Y-78000000D03*
X123500000Y-104015000D03*
X140000000Y-100980000D03*
X129000000Y-84250000D03*
X146500000Y-66500000D03*
X146000000Y-70000000D03*
X161550000Y-77000000D03*
X184000000Y-93000000D03*
X151000000Y-99000000D03*
X152135000Y-88865000D03*
X181967500Y-97532500D03*
%TO.N,VBUS*%
X130500000Y-99500000D03*
X125900000Y-112500000D03*
X128000000Y-109613500D03*
X123500000Y-109500000D03*
X131000000Y-112000000D03*
%TO.N,3.3V*%
X131500000Y-57500000D03*
X183000000Y-91500000D03*
X146000000Y-102000000D03*
X170500000Y-79900000D03*
X124000000Y-81500000D03*
X145000000Y-118000000D03*
X146000000Y-118000000D03*
X166000000Y-80500000D03*
X151000000Y-98000000D03*
X144000000Y-116500000D03*
X151055000Y-66500000D03*
X144000000Y-117500000D03*
X184240000Y-96260000D03*
X119550000Y-83050000D03*
X156050000Y-80500000D03*
X159000000Y-55500000D03*
%TO.N,VDDCORE*%
X138000000Y-95500000D03*
X151500000Y-80500000D03*
X144500000Y-100000000D03*
X126270000Y-83250000D03*
X140000000Y-95500000D03*
X138000000Y-75000000D03*
X133500000Y-101000000D03*
X136000000Y-83250000D03*
%TO.N,EN*%
X178500000Y-74000000D03*
X166460000Y-56540000D03*
%TO.N,IO22*%
X163591000Y-75000000D03*
X180500000Y-58000000D03*
X125000000Y-77500000D03*
%TO.N,IO0*%
X153500000Y-106230000D03*
X182660000Y-72160000D03*
%TO.N,IO26*%
X126000000Y-78000000D03*
X160050000Y-74862500D03*
%TO.N,TDI/IO12*%
X176690000Y-74000000D03*
X168690000Y-73425000D03*
%TO.N,UTXD/PA9*%
X142000000Y-74013360D03*
X136000000Y-81000000D03*
%TO.N,URXD/PA8*%
X141000000Y-74013360D03*
X134500000Y-82500000D03*
%TO.N,VDDPLL*%
X123500000Y-94000000D03*
X138500000Y-94000000D03*
%TO.N,NRSTB*%
X133500000Y-81500000D03*
X124500000Y-91500000D03*
X140000000Y-74013360D03*
X135000000Y-91500000D03*
X152000000Y-100000000D03*
%TO.N,CANTX0/PA0*%
X129000000Y-89500000D03*
X152095000Y-87595000D03*
%TO.N,CANRX0/PA1*%
X152095000Y-91405000D03*
X129000000Y-90500000D03*
%TO.N,TWCK0/PA18*%
X129000000Y-80500000D03*
%TO.N,TWD0/PA17*%
X129000000Y-81300003D03*
%TO.N,A2/PWML6/PC23*%
X128000000Y-72500000D03*
%TO.N,D15/PC17*%
X144500000Y-79000000D03*
X144500000Y-72000000D03*
X144500000Y-74013360D03*
%TO.N,D14/PC16*%
X143500000Y-79000000D03*
X143500000Y-72400000D03*
X143500000Y-74013360D03*
%TO.N,VBG*%
X126500000Y-103515000D03*
X130500000Y-100500000D03*
%TO.N,VDDUTMI*%
X133520000Y-102980000D03*
X131500000Y-97000000D03*
%TO.N,SAM_USART3_RXD_PD4_PIN17*%
X129000000Y-86500000D03*
X174000000Y-92730000D03*
%TO.N,SAM_USART3_TXD_PD5_PIN18*%
X174000000Y-96540000D03*
X129000000Y-87500000D03*
%TO.N,SAM_A10_PD0_PIN13*%
X174000000Y-95270000D03*
X129000000Y-85193000D03*
X174000000Y-94000000D03*
%TD*%
D24*
%TO.N,CANRX0/PA1*%
X149500000Y-90500000D02*
X150000000Y-91000000D01*
X152095000Y-91405000D02*
X150405000Y-91405000D01*
X150405000Y-91405000D02*
X150000000Y-91000000D01*
X129000000Y-90500000D02*
X149500000Y-90500000D01*
%TO.N,CANTX0/PA0*%
X129000000Y-89500000D02*
X149500000Y-89500000D01*
X149500000Y-89500000D02*
X151405000Y-87595000D01*
X151405000Y-87595000D02*
X152095000Y-87595000D01*
D25*
%TO.N,IO0*%
X182660000Y-72160000D02*
X181000000Y-73820000D01*
X181000000Y-73820000D02*
X181000000Y-93000000D01*
X181000000Y-93000000D02*
X176000000Y-98000000D01*
X168000000Y-98000000D02*
X159770000Y-106230000D01*
X176000000Y-98000000D02*
X168000000Y-98000000D01*
X159770000Y-106230000D02*
X153500000Y-106230000D01*
D26*
%TO.N,USBDP*%
X129550000Y-114637500D02*
X129550000Y-115637500D01*
X128550000Y-114137500D02*
X129050000Y-114137500D01*
X129050000Y-114137500D02*
X129550000Y-114637500D01*
X128050000Y-114637500D02*
X128550000Y-114137500D01*
X128050000Y-116137500D02*
X128050000Y-114637500D01*
X127550000Y-116637500D02*
X128050000Y-116137500D01*
%TO.N,USBDM*%
X128050000Y-117637500D02*
X129050000Y-116637500D01*
X127050000Y-115637500D02*
X126550000Y-116137500D01*
X126550000Y-117137500D02*
X127050000Y-117637500D01*
X126550000Y-116137500D02*
X126550000Y-117137500D01*
X127050000Y-117637500D02*
X128050000Y-117637500D01*
D27*
%TO.N,GND*%
X188000000Y-59460000D02*
X182540000Y-54000000D01*
X182540000Y-54000000D02*
X166500000Y-54000000D01*
X124040000Y-72540000D02*
X126040000Y-72540000D01*
X126040000Y-72540000D02*
X127000000Y-73500000D01*
%TO.N,VBUS*%
X127886500Y-109500000D02*
X128000000Y-109613500D01*
X131000000Y-112000000D02*
X130500000Y-112500000D01*
X128113500Y-109500000D02*
X128000000Y-109613500D01*
X128000000Y-109613500D02*
X129113500Y-108500000D01*
X131000000Y-108500000D02*
X132000000Y-108500000D01*
X123500000Y-109500000D02*
X127886500Y-109500000D01*
X132580000Y-108500000D02*
X136000000Y-111920000D01*
X131000000Y-108500000D02*
X132580000Y-108500000D01*
X129113500Y-108500000D02*
X131000000Y-108500000D01*
D28*
X132580000Y-108500000D02*
X135540000Y-111460000D01*
X132000000Y-108500000D02*
X132580000Y-108500000D01*
D27*
X130500000Y-112500000D02*
X125900000Y-112500000D01*
X136000000Y-111920000D02*
X135540000Y-111460000D01*
D28*
X132000000Y-101000000D02*
X132000000Y-108500000D01*
X130500000Y-99500000D02*
X132000000Y-101000000D01*
D27*
%TO.N,VDDCORE*%
X133500000Y-101000000D02*
X133500000Y-98000000D01*
X136000000Y-83250000D02*
X129500000Y-83250000D01*
X126270000Y-83250000D02*
X129500000Y-83250000D01*
D24*
X151500000Y-80500000D02*
X151250000Y-80750000D01*
D27*
X144000000Y-99500000D02*
X140000000Y-95500000D01*
X144000000Y-99500000D02*
X144000000Y-100000000D01*
X141750000Y-80750000D02*
X139250000Y-83250000D01*
X151250000Y-80750000D02*
X141750000Y-80750000D01*
X136000000Y-95500000D02*
X133500000Y-98000000D01*
X138000000Y-95500000D02*
X136000000Y-95500000D01*
X129750000Y-83250000D02*
X138000000Y-75000000D01*
D24*
X129500000Y-83250000D02*
X129750000Y-83250000D01*
D27*
X139250000Y-83250000D02*
X136000000Y-83250000D01*
D25*
%TO.N,EN*%
X182000000Y-56540000D02*
X166460000Y-56540000D01*
X185500000Y-60040000D02*
X182000000Y-56540000D01*
X185500000Y-67120000D02*
X185500000Y-60040000D01*
X188000000Y-69620000D02*
X185500000Y-67120000D01*
X182880000Y-69620000D02*
X188000000Y-69620000D01*
X178500000Y-74000000D02*
X182880000Y-69620000D01*
%TO.N,IO22*%
X163591000Y-74909000D02*
X163591000Y-75000000D01*
X125000000Y-77500000D02*
X129500000Y-73000000D01*
X161591000Y-73000000D02*
X163591000Y-75000000D01*
X129500000Y-73000000D02*
X161591000Y-73000000D01*
X180500000Y-58000000D02*
X163591000Y-74909000D01*
%TO.N,IO0*%
X188000000Y-72160000D02*
X182660000Y-72160000D01*
%TO.N,IO26*%
X130586640Y-73413360D02*
X158600860Y-73413360D01*
X158600860Y-73413360D02*
X160050000Y-74862500D01*
X126000000Y-78000000D02*
X130586640Y-73413360D01*
%TO.N,TDI/IO12*%
X168690000Y-73425000D02*
X176115000Y-73425000D01*
X176115000Y-73425000D02*
X176690000Y-74000000D01*
%TO.N,UTXD/PA9*%
X142000000Y-75849943D02*
X136849943Y-81000000D01*
X142000000Y-74013360D02*
X142000000Y-75849943D01*
X136849943Y-81000000D02*
X136000000Y-81000000D01*
%TO.N,URXD/PA8*%
X141000000Y-75000000D02*
X134500000Y-81500000D01*
X134500000Y-81500000D02*
X134500000Y-82500000D01*
X141000000Y-74013360D02*
X141000000Y-75000000D01*
D27*
%TO.N,VDDPLL*%
X138500000Y-94000000D02*
X123500000Y-94000000D01*
D25*
%TO.N,NRSTB*%
X149000000Y-100000000D02*
X140500000Y-91500000D01*
X140000000Y-75000000D02*
X133500000Y-81500000D01*
X140000000Y-74013360D02*
X140000000Y-75000000D01*
X140500000Y-91500000D02*
X124500000Y-91500000D01*
X152000000Y-100000000D02*
X149000000Y-100000000D01*
%TO.N,TWCK0/PA18*%
X118002000Y-63000000D02*
X118622000Y-62380000D01*
X129000000Y-80500000D02*
X128998000Y-80498000D01*
X118002000Y-78333900D02*
X118002000Y-63000000D01*
X128998000Y-80498000D02*
X120166100Y-80498000D01*
X120166100Y-80498000D02*
X118002000Y-78333900D01*
X118622000Y-62380000D02*
X121500000Y-62380000D01*
%TO.N,TWD0/PA17*%
X126382960Y-81300003D02*
X125981957Y-80899000D01*
X118261000Y-59840000D02*
X121500000Y-59840000D01*
X117601000Y-60500000D02*
X118261000Y-59840000D01*
X117601000Y-78500000D02*
X117601000Y-60500000D01*
X129000000Y-81300003D02*
X126382960Y-81300003D01*
X125981957Y-80899000D02*
X120000000Y-80899000D01*
X120000000Y-80899000D02*
X117601000Y-78500000D01*
%TO.N,A2/PWML6/PC23*%
X122651000Y-71151000D02*
X126651000Y-71151000D01*
X121500000Y-70000000D02*
X122651000Y-71151000D01*
X126651000Y-71151000D02*
X128000000Y-72500000D01*
%TO.N,D15/PC17*%
X130919000Y-71799000D02*
X144299000Y-71799000D01*
X124040000Y-64920000D02*
X130919000Y-71799000D01*
X144500000Y-74013360D02*
X144500000Y-79000000D01*
X144500000Y-72000000D02*
X144299000Y-71799000D01*
%TO.N,D14/PC16*%
X143500000Y-74013360D02*
X143500000Y-79000000D01*
X124040000Y-67460000D02*
X128980000Y-72400000D01*
X128980000Y-72400000D02*
X143500000Y-72400000D01*
D27*
%TO.N,VBG*%
X130500000Y-100500000D02*
X127485000Y-103515000D01*
X127485000Y-103515000D02*
X126500000Y-103515000D01*
%TO.N,VDDUTMI*%
X132749000Y-98249000D02*
X131500000Y-97000000D01*
X132749000Y-98249000D02*
X132749000Y-102209000D01*
X133520000Y-102980000D02*
X132749000Y-102209000D01*
D28*
%TO.N,SAM_USART3_RXD_PD4_PIN17*%
X172748942Y-86198000D02*
X174000000Y-87449058D01*
X174000000Y-87449058D02*
X174000000Y-92730000D01*
X132500000Y-86198000D02*
X129302000Y-86198000D01*
X129302000Y-86198000D02*
X129000000Y-86500000D01*
X132500000Y-86198000D02*
X172748942Y-86198000D01*
%TO.N,SAM_USART3_TXD_PD5_PIN18*%
X129701000Y-86799000D02*
X172500000Y-86799000D01*
X172500000Y-95040000D02*
X174000000Y-96540000D01*
X129000000Y-87500000D02*
X129701000Y-86799000D01*
X172500000Y-86799000D02*
X172500000Y-95040000D01*
%TO.N,SAM_A10_PD0_PIN13*%
X174701000Y-93299000D02*
X174000000Y-94000000D01*
X174701000Y-93299000D02*
X174701000Y-94569000D01*
X174701000Y-94569000D02*
X174000000Y-95270000D01*
X174701000Y-87300116D02*
X174701000Y-93299000D01*
X129000000Y-85193000D02*
X172593884Y-85193000D01*
X172593884Y-85193000D02*
X174701000Y-87300116D01*
%TD*%
%TA.AperFunction,Conductor*%
%TO.N,GND*%
G36*
X181766942Y-57160185D02*
G01*
X181787584Y-57176819D01*
X184863181Y-60252416D01*
X184896666Y-60313739D01*
X184899500Y-60340097D01*
X184899500Y-67033330D01*
X184899499Y-67033348D01*
X184899499Y-67199054D01*
X184899498Y-67199054D01*
X184940423Y-67351787D01*
X184940424Y-67351788D01*
X184951997Y-67371832D01*
X184951999Y-67371835D01*
X185019477Y-67488712D01*
X185019481Y-67488717D01*
X185138349Y-67607585D01*
X185138355Y-67607590D01*
X186338584Y-68807819D01*
X186372069Y-68869142D01*
X186367085Y-68938834D01*
X186325213Y-68994767D01*
X186259749Y-69019184D01*
X186250903Y-69019500D01*
X182800940Y-69019500D01*
X182760019Y-69030464D01*
X182760019Y-69030465D01*
X182722751Y-69040451D01*
X182648214Y-69060423D01*
X182648209Y-69060426D01*
X182511290Y-69139475D01*
X182511282Y-69139481D01*
X178485339Y-73165425D01*
X178424016Y-73198910D01*
X178421850Y-73199361D01*
X178266508Y-73230261D01*
X178266498Y-73230264D01*
X178120827Y-73290602D01*
X178120814Y-73290609D01*
X177989711Y-73378210D01*
X177989707Y-73378213D01*
X177878213Y-73489707D01*
X177878210Y-73489711D01*
X177790609Y-73620814D01*
X177790602Y-73620827D01*
X177730264Y-73766498D01*
X177730261Y-73766508D01*
X177716617Y-73835103D01*
X177684232Y-73897014D01*
X177623516Y-73931588D01*
X177553747Y-73927848D01*
X177497075Y-73886981D01*
X177473383Y-73835103D01*
X177459738Y-73766508D01*
X177459737Y-73766507D01*
X177459737Y-73766503D01*
X177424390Y-73681166D01*
X177399397Y-73620827D01*
X177399390Y-73620814D01*
X177311789Y-73489711D01*
X177311786Y-73489707D01*
X177200292Y-73378213D01*
X177200288Y-73378210D01*
X177069185Y-73290609D01*
X177069172Y-73290602D01*
X176923501Y-73230264D01*
X176923491Y-73230261D01*
X176768151Y-73199362D01*
X176706241Y-73166977D01*
X176704662Y-73165426D01*
X176483717Y-72944481D01*
X176483716Y-72944480D01*
X176372934Y-72880520D01*
X176372934Y-72880519D01*
X176372929Y-72880518D01*
X176363806Y-72875250D01*
X176346786Y-72865423D01*
X176308603Y-72855192D01*
X176194057Y-72824499D01*
X176035943Y-72824499D01*
X176028347Y-72824499D01*
X176028331Y-72824500D01*
X169269766Y-72824500D01*
X169202727Y-72804815D01*
X169200875Y-72803602D01*
X169069185Y-72715609D01*
X169069172Y-72715602D01*
X168923501Y-72655264D01*
X168923489Y-72655261D01*
X168768845Y-72624500D01*
X168768842Y-72624500D01*
X168611158Y-72624500D01*
X168611155Y-72624500D01*
X168456510Y-72655261D01*
X168456498Y-72655264D01*
X168310827Y-72715602D01*
X168310814Y-72715609D01*
X168179711Y-72803210D01*
X168179707Y-72803213D01*
X168068213Y-72914707D01*
X168068210Y-72914711D01*
X167980609Y-73045814D01*
X167980602Y-73045827D01*
X167920264Y-73191498D01*
X167920261Y-73191510D01*
X167889500Y-73346153D01*
X167889500Y-73503846D01*
X167920261Y-73658489D01*
X167920264Y-73658501D01*
X167980602Y-73804172D01*
X167980609Y-73804185D01*
X168068210Y-73935288D01*
X168068213Y-73935292D01*
X168179707Y-74046786D01*
X168179711Y-74046789D01*
X168310814Y-74134390D01*
X168310827Y-74134397D01*
X168384462Y-74164897D01*
X168456503Y-74194737D01*
X168611153Y-74225499D01*
X168611156Y-74225500D01*
X168611158Y-74225500D01*
X168768844Y-74225500D01*
X168768845Y-74225499D01*
X168923497Y-74194737D01*
X169036166Y-74148067D01*
X169069172Y-74134397D01*
X169069172Y-74134396D01*
X169069179Y-74134394D01*
X169100198Y-74113668D01*
X169200875Y-74046398D01*
X169267553Y-74025520D01*
X169269766Y-74025500D01*
X175777125Y-74025500D01*
X175844164Y-74045185D01*
X175889919Y-74097989D01*
X175898742Y-74125308D01*
X175920261Y-74233491D01*
X175920264Y-74233501D01*
X175980602Y-74379172D01*
X175980609Y-74379185D01*
X176068210Y-74510288D01*
X176068213Y-74510292D01*
X176179707Y-74621786D01*
X176179711Y-74621789D01*
X176310814Y-74709390D01*
X176310827Y-74709397D01*
X176411907Y-74751265D01*
X176456503Y-74769737D01*
X176611153Y-74800499D01*
X176611156Y-74800500D01*
X176611158Y-74800500D01*
X176768844Y-74800500D01*
X176768845Y-74800499D01*
X176923497Y-74769737D01*
X177069179Y-74709394D01*
X177200289Y-74621789D01*
X177311789Y-74510289D01*
X177399394Y-74379179D01*
X177459737Y-74233497D01*
X177467447Y-74194735D01*
X177473383Y-74164897D01*
X177505768Y-74102986D01*
X177566484Y-74068412D01*
X177636253Y-74072151D01*
X177692925Y-74113018D01*
X177716617Y-74164897D01*
X177730261Y-74233489D01*
X177730264Y-74233501D01*
X177790602Y-74379172D01*
X177790609Y-74379185D01*
X177878210Y-74510288D01*
X177878213Y-74510292D01*
X177989707Y-74621786D01*
X177989711Y-74621789D01*
X178120814Y-74709390D01*
X178120827Y-74709397D01*
X178221907Y-74751265D01*
X178266503Y-74769737D01*
X178421153Y-74800499D01*
X178421156Y-74800500D01*
X178421158Y-74800500D01*
X178578844Y-74800500D01*
X178578845Y-74800499D01*
X178733497Y-74769737D01*
X178879179Y-74709394D01*
X179010289Y-74621789D01*
X179121789Y-74510289D01*
X179209394Y-74379179D01*
X179269737Y-74233497D01*
X179295244Y-74105265D01*
X179300638Y-74078150D01*
X179333023Y-74016239D01*
X179334518Y-74014716D01*
X181829974Y-71519260D01*
X181891295Y-71485777D01*
X181960987Y-71490761D01*
X182016920Y-71532633D01*
X182041337Y-71598097D01*
X182026485Y-71666370D01*
X182020755Y-71675833D01*
X181950612Y-71780809D01*
X181950602Y-71780827D01*
X181890264Y-71926498D01*
X181890261Y-71926508D01*
X181859362Y-72081848D01*
X181826977Y-72143759D01*
X181825426Y-72145337D01*
X180634731Y-73336032D01*
X180634725Y-73336038D01*
X180631286Y-73339478D01*
X180631284Y-73339480D01*
X180519480Y-73451284D01*
X180490170Y-73502051D01*
X180484469Y-73511924D01*
X180484469Y-73511925D01*
X180450876Y-73570110D01*
X180440423Y-73588215D01*
X180399499Y-73740943D01*
X180399499Y-73740945D01*
X180399499Y-73909046D01*
X180399500Y-73909059D01*
X180399500Y-92699903D01*
X180379815Y-92766942D01*
X180363181Y-92787584D01*
X175787584Y-97363181D01*
X175726261Y-97396666D01*
X175699903Y-97399500D01*
X174563303Y-97399500D01*
X174496264Y-97379815D01*
X174450509Y-97327011D01*
X174440565Y-97257853D01*
X174469590Y-97194297D01*
X174494412Y-97172398D01*
X174499507Y-97168993D01*
X174510289Y-97161789D01*
X174621789Y-97050289D01*
X174709394Y-96919179D01*
X174769737Y-96773497D01*
X174800500Y-96618842D01*
X174800500Y-96461158D01*
X174800500Y-96461155D01*
X174800499Y-96461153D01*
X174784001Y-96378213D01*
X174769737Y-96306503D01*
X174769735Y-96306498D01*
X174709397Y-96160827D01*
X174709390Y-96160814D01*
X174621789Y-96029711D01*
X174621786Y-96029707D01*
X174584760Y-95992681D01*
X174551275Y-95931358D01*
X174556259Y-95861666D01*
X174584760Y-95817319D01*
X174621786Y-95780292D01*
X174621789Y-95780289D01*
X174709394Y-95649179D01*
X174709395Y-95649176D01*
X174709397Y-95649173D01*
X174764380Y-95516429D01*
X174769192Y-95504810D01*
X174796067Y-95464588D01*
X175245114Y-95015543D01*
X175321775Y-94900811D01*
X175331136Y-94878213D01*
X175348177Y-94837069D01*
X175374580Y-94773328D01*
X175387297Y-94709397D01*
X175401500Y-94637996D01*
X175401500Y-87231120D01*
X175378848Y-87117247D01*
X175374580Y-87095788D01*
X175361896Y-87065167D01*
X175321775Y-86968306D01*
X175321775Y-86968305D01*
X175245114Y-86853573D01*
X175245112Y-86853570D01*
X173040429Y-84648887D01*
X172925691Y-84572222D01*
X172798216Y-84519421D01*
X172798206Y-84519418D01*
X172662880Y-84492500D01*
X172662878Y-84492500D01*
X172662877Y-84492500D01*
X129425316Y-84492500D01*
X129377864Y-84483061D01*
X129233501Y-84423264D01*
X129233489Y-84423261D01*
X129078845Y-84392500D01*
X129078842Y-84392500D01*
X128921158Y-84392500D01*
X128921155Y-84392500D01*
X128766510Y-84423261D01*
X128766498Y-84423264D01*
X128620827Y-84483602D01*
X128620814Y-84483609D01*
X128489711Y-84571210D01*
X128489707Y-84571213D01*
X128378213Y-84682707D01*
X128378210Y-84682711D01*
X128290609Y-84813814D01*
X128290602Y-84813827D01*
X128230264Y-84959498D01*
X128230261Y-84959510D01*
X128199500Y-85114153D01*
X128199500Y-85271846D01*
X128230261Y-85426489D01*
X128230264Y-85426501D01*
X128290602Y-85572172D01*
X128290609Y-85572185D01*
X128378210Y-85703288D01*
X128378213Y-85703292D01*
X128433740Y-85758819D01*
X128467225Y-85820142D01*
X128462241Y-85889834D01*
X128433740Y-85934181D01*
X128378213Y-85989707D01*
X128378210Y-85989711D01*
X128290609Y-86120814D01*
X128290602Y-86120827D01*
X128230264Y-86266498D01*
X128230261Y-86266510D01*
X128199500Y-86421153D01*
X128199500Y-86578846D01*
X128230261Y-86733489D01*
X128230264Y-86733501D01*
X128290602Y-86879172D01*
X128290609Y-86879185D01*
X128325304Y-86931109D01*
X128346182Y-86997786D01*
X128327698Y-87065167D01*
X128325304Y-87068891D01*
X128290609Y-87120814D01*
X128290602Y-87120827D01*
X128230264Y-87266498D01*
X128230261Y-87266510D01*
X128199500Y-87421153D01*
X128199500Y-87578846D01*
X128230261Y-87733489D01*
X128230264Y-87733501D01*
X128290602Y-87879172D01*
X128290609Y-87879185D01*
X128378210Y-88010288D01*
X128378213Y-88010292D01*
X128489707Y-88121786D01*
X128489711Y-88121789D01*
X128620814Y-88209390D01*
X128620827Y-88209397D01*
X128753210Y-88264231D01*
X128766503Y-88269737D01*
X128919283Y-88300127D01*
X128921153Y-88300499D01*
X128921156Y-88300500D01*
X128921158Y-88300500D01*
X129078844Y-88300500D01*
X129078845Y-88300499D01*
X129233497Y-88269737D01*
X129379179Y-88209394D01*
X129510289Y-88121789D01*
X129621789Y-88010289D01*
X129709394Y-87879179D01*
X129709395Y-87879176D01*
X129709397Y-87879173D01*
X129746566Y-87789435D01*
X129769192Y-87734810D01*
X129773823Y-87727879D01*
X129774921Y-87722836D01*
X129796065Y-87694590D01*
X129954839Y-87535816D01*
X130016162Y-87502334D01*
X130042519Y-87499500D01*
X150281192Y-87499500D01*
X150348231Y-87519185D01*
X150393986Y-87571989D01*
X150403930Y-87641147D01*
X150374905Y-87704703D01*
X150368873Y-87711181D01*
X149266873Y-88813181D01*
X149205550Y-88846666D01*
X149179192Y-88849500D01*
X129504935Y-88849500D01*
X129437896Y-88829815D01*
X129436090Y-88828633D01*
X129379179Y-88790606D01*
X129379172Y-88790602D01*
X129233501Y-88730264D01*
X129233489Y-88730261D01*
X129078845Y-88699500D01*
X129078842Y-88699500D01*
X128921158Y-88699500D01*
X128921155Y-88699500D01*
X128766510Y-88730261D01*
X128766498Y-88730264D01*
X128620827Y-88790602D01*
X128620814Y-88790609D01*
X128489711Y-88878210D01*
X128489707Y-88878213D01*
X128378213Y-88989707D01*
X128378210Y-88989711D01*
X128290609Y-89120814D01*
X128290602Y-89120827D01*
X128230264Y-89266498D01*
X128230261Y-89266510D01*
X128199500Y-89421153D01*
X128199500Y-89578846D01*
X128230261Y-89733489D01*
X128230264Y-89733501D01*
X128290602Y-89879172D01*
X128290609Y-89879185D01*
X128325304Y-89931109D01*
X128346182Y-89997786D01*
X128327698Y-90065167D01*
X128325304Y-90068891D01*
X128290609Y-90120814D01*
X128290602Y-90120827D01*
X128230264Y-90266498D01*
X128230261Y-90266510D01*
X128199500Y-90421153D01*
X128199500Y-90578846D01*
X128230261Y-90733489D01*
X128232031Y-90739324D01*
X128229279Y-90740158D01*
X128235503Y-90797359D01*
X128204309Y-90859878D01*
X128144266Y-90895608D01*
X128113445Y-90899500D01*
X125079766Y-90899500D01*
X125012727Y-90879815D01*
X125010875Y-90878602D01*
X124879185Y-90790609D01*
X124879172Y-90790602D01*
X124733501Y-90730264D01*
X124733489Y-90730261D01*
X124578845Y-90699500D01*
X124578842Y-90699500D01*
X124421158Y-90699500D01*
X124421155Y-90699500D01*
X124266510Y-90730261D01*
X124266498Y-90730264D01*
X124120827Y-90790602D01*
X124120814Y-90790609D01*
X123989711Y-90878210D01*
X123989707Y-90878213D01*
X123878213Y-90989707D01*
X123878210Y-90989711D01*
X123790609Y-91120814D01*
X123790602Y-91120827D01*
X123730264Y-91266498D01*
X123730261Y-91266510D01*
X123699500Y-91421153D01*
X123699500Y-91578846D01*
X123730261Y-91733489D01*
X123730264Y-91733501D01*
X123790602Y-91879172D01*
X123790609Y-91879185D01*
X123878210Y-92010288D01*
X123878213Y-92010292D01*
X123989707Y-92121786D01*
X123989711Y-92121789D01*
X124120814Y-92209390D01*
X124120827Y-92209397D01*
X124266498Y-92269735D01*
X124266503Y-92269737D01*
X124421153Y-92300499D01*
X124421156Y-92300500D01*
X124421158Y-92300500D01*
X124578844Y-92300500D01*
X124578845Y-92300499D01*
X124733497Y-92269737D01*
X124879179Y-92209394D01*
X124885831Y-92204949D01*
X125010875Y-92121398D01*
X125077553Y-92100520D01*
X125079766Y-92100500D01*
X134420234Y-92100500D01*
X134487273Y-92120185D01*
X134489125Y-92121398D01*
X134620814Y-92209390D01*
X134620827Y-92209397D01*
X134766498Y-92269735D01*
X134766503Y-92269737D01*
X134921153Y-92300499D01*
X134921156Y-92300500D01*
X134921158Y-92300500D01*
X135078844Y-92300500D01*
X135078845Y-92300499D01*
X135233497Y-92269737D01*
X135379179Y-92209394D01*
X135385831Y-92204949D01*
X135510875Y-92121398D01*
X135577553Y-92100520D01*
X135579766Y-92100500D01*
X140199903Y-92100500D01*
X140266942Y-92120185D01*
X140287584Y-92136819D01*
X148515139Y-100364374D01*
X148515149Y-100364385D01*
X148519479Y-100368715D01*
X148519480Y-100368716D01*
X148631284Y-100480520D01*
X148682845Y-100510288D01*
X148718095Y-100530639D01*
X148718097Y-100530641D01*
X148768213Y-100559576D01*
X148768215Y-100559577D01*
X148920942Y-100600500D01*
X148920943Y-100600500D01*
X151420234Y-100600500D01*
X151487273Y-100620185D01*
X151489125Y-100621398D01*
X151620814Y-100709390D01*
X151620827Y-100709397D01*
X151766498Y-100769735D01*
X151766503Y-100769737D01*
X151921153Y-100800499D01*
X151921156Y-100800500D01*
X151921158Y-100800500D01*
X152078844Y-100800500D01*
X152078845Y-100800499D01*
X152233497Y-100769737D01*
X152379179Y-100709394D01*
X152510289Y-100621789D01*
X152621789Y-100510289D01*
X152709394Y-100379179D01*
X152769737Y-100233497D01*
X152800500Y-100078842D01*
X152800500Y-99921158D01*
X152800500Y-99921155D01*
X152800499Y-99921153D01*
X152780632Y-99821275D01*
X152769737Y-99766503D01*
X152756062Y-99733489D01*
X152709397Y-99620827D01*
X152709390Y-99620814D01*
X152621789Y-99489711D01*
X152621786Y-99489707D01*
X152510292Y-99378213D01*
X152510288Y-99378210D01*
X152379185Y-99290609D01*
X152379172Y-99290602D01*
X152233501Y-99230264D01*
X152233489Y-99230261D01*
X152078845Y-99199500D01*
X152078842Y-99199500D01*
X151921158Y-99199500D01*
X151921155Y-99199500D01*
X151766510Y-99230261D01*
X151766498Y-99230264D01*
X151620827Y-99290602D01*
X151620814Y-99290609D01*
X151489125Y-99378602D01*
X151422447Y-99399480D01*
X151420234Y-99399500D01*
X149300097Y-99399500D01*
X149233058Y-99379815D01*
X149212416Y-99363181D01*
X147770388Y-97921153D01*
X150199500Y-97921153D01*
X150199500Y-98078846D01*
X150230261Y-98233489D01*
X150230264Y-98233501D01*
X150290602Y-98379172D01*
X150290609Y-98379185D01*
X150378210Y-98510288D01*
X150378213Y-98510292D01*
X150489707Y-98621786D01*
X150489711Y-98621789D01*
X150620814Y-98709390D01*
X150620827Y-98709397D01*
X150766498Y-98769735D01*
X150766503Y-98769737D01*
X150921153Y-98800499D01*
X150921156Y-98800500D01*
X150921158Y-98800500D01*
X151078844Y-98800500D01*
X151078845Y-98800499D01*
X151233497Y-98769737D01*
X151379179Y-98709394D01*
X151510289Y-98621789D01*
X151621789Y-98510289D01*
X151709394Y-98379179D01*
X151716415Y-98362230D01*
X151769735Y-98233501D01*
X151769737Y-98233497D01*
X151800500Y-98078842D01*
X151800500Y-97921158D01*
X151800500Y-97921155D01*
X151800499Y-97921153D01*
X151769738Y-97766510D01*
X151769737Y-97766503D01*
X151754050Y-97728630D01*
X151709397Y-97620827D01*
X151709390Y-97620814D01*
X151621789Y-97489711D01*
X151621786Y-97489707D01*
X151510292Y-97378213D01*
X151510288Y-97378210D01*
X151379185Y-97290609D01*
X151379172Y-97290602D01*
X151233501Y-97230264D01*
X151233489Y-97230261D01*
X151078845Y-97199500D01*
X151078842Y-97199500D01*
X150921158Y-97199500D01*
X150921155Y-97199500D01*
X150766510Y-97230261D01*
X150766498Y-97230264D01*
X150620827Y-97290602D01*
X150620814Y-97290609D01*
X150489711Y-97378210D01*
X150489707Y-97378213D01*
X150378213Y-97489707D01*
X150378210Y-97489711D01*
X150290609Y-97620814D01*
X150290602Y-97620827D01*
X150230264Y-97766498D01*
X150230261Y-97766510D01*
X150199500Y-97921153D01*
X147770388Y-97921153D01*
X141211416Y-91362181D01*
X141177931Y-91300858D01*
X141182915Y-91231166D01*
X141224787Y-91175233D01*
X141290251Y-91150816D01*
X141299097Y-91150500D01*
X149179192Y-91150500D01*
X149246231Y-91170185D01*
X149266873Y-91186819D01*
X149494723Y-91414669D01*
X149990324Y-91910271D01*
X149990327Y-91910274D01*
X150065143Y-91960264D01*
X150096867Y-91981461D01*
X150096875Y-91981466D01*
X150099485Y-91982547D01*
X150215256Y-92030501D01*
X150215260Y-92030501D01*
X150215261Y-92030502D01*
X150340928Y-92055500D01*
X150340931Y-92055500D01*
X151590065Y-92055500D01*
X151657104Y-92075185D01*
X151658909Y-92076366D01*
X151715821Y-92114394D01*
X151715823Y-92114395D01*
X151715827Y-92114397D01*
X151861498Y-92174735D01*
X151861503Y-92174737D01*
X152013388Y-92204949D01*
X152016153Y-92205499D01*
X152016156Y-92205500D01*
X152016158Y-92205500D01*
X152173844Y-92205500D01*
X152173845Y-92205499D01*
X152328497Y-92174737D01*
X152460198Y-92120185D01*
X152474172Y-92114397D01*
X152474172Y-92114396D01*
X152474179Y-92114394D01*
X152605289Y-92026789D01*
X152716789Y-91915289D01*
X152804394Y-91784179D01*
X152864737Y-91638497D01*
X152895500Y-91483842D01*
X152895500Y-91326158D01*
X152895500Y-91326155D01*
X152895499Y-91326153D01*
X152876605Y-91231166D01*
X152864737Y-91171503D01*
X152856037Y-91150500D01*
X152804397Y-91025827D01*
X152804390Y-91025814D01*
X152716789Y-90894711D01*
X152716786Y-90894707D01*
X152631652Y-90809573D01*
X152598167Y-90748250D01*
X152603151Y-90678558D01*
X152619113Y-90650827D01*
X152618405Y-90650354D01*
X152709390Y-90514185D01*
X152709390Y-90514184D01*
X152709394Y-90514179D01*
X152769737Y-90368497D01*
X152800500Y-90213842D01*
X152800500Y-90056158D01*
X152800500Y-90056155D01*
X152800499Y-90056153D01*
X152769738Y-89901510D01*
X152769737Y-89901503D01*
X152734949Y-89817516D01*
X152709397Y-89755827D01*
X152709390Y-89755814D01*
X152621789Y-89624711D01*
X152621786Y-89624707D01*
X152510292Y-89513213D01*
X152510288Y-89513210D01*
X152379185Y-89425609D01*
X152379172Y-89425602D01*
X152233501Y-89365264D01*
X152233489Y-89365261D01*
X152078845Y-89334500D01*
X152078842Y-89334500D01*
X151921158Y-89334500D01*
X151921155Y-89334500D01*
X151766510Y-89365261D01*
X151766498Y-89365264D01*
X151620827Y-89425602D01*
X151620814Y-89425609D01*
X151489711Y-89513210D01*
X151489707Y-89513213D01*
X151378213Y-89624707D01*
X151378210Y-89624711D01*
X151290609Y-89755814D01*
X151290602Y-89755827D01*
X151230264Y-89901498D01*
X151230261Y-89901510D01*
X151199500Y-90056153D01*
X151199500Y-90213846D01*
X151230261Y-90368489D01*
X151230264Y-90368501D01*
X151290602Y-90514172D01*
X151290609Y-90514185D01*
X151322297Y-90561609D01*
X151343175Y-90628287D01*
X151324690Y-90695667D01*
X151272711Y-90742357D01*
X151219195Y-90754500D01*
X150725808Y-90754500D01*
X150658769Y-90734815D01*
X150638127Y-90718181D01*
X150007626Y-90087680D01*
X149974141Y-90026357D01*
X149979125Y-89956665D01*
X150007622Y-89912323D01*
X151586334Y-88333610D01*
X151647655Y-88300127D01*
X151717347Y-88305111D01*
X151721465Y-88306732D01*
X151861503Y-88364737D01*
X152016153Y-88395499D01*
X152016156Y-88395500D01*
X152016158Y-88395500D01*
X152173844Y-88395500D01*
X152173845Y-88395499D01*
X152328497Y-88364737D01*
X152474179Y-88304394D01*
X152605289Y-88216789D01*
X152716789Y-88105289D01*
X152804394Y-87974179D01*
X152864737Y-87828497D01*
X152895500Y-87673842D01*
X152895500Y-87623500D01*
X152915185Y-87556461D01*
X152967989Y-87510706D01*
X153019500Y-87499500D01*
X164156705Y-87499500D01*
X164223744Y-87519185D01*
X164269499Y-87571989D01*
X164279443Y-87641147D01*
X164267190Y-87679795D01*
X164248444Y-87716585D01*
X164182753Y-87918760D01*
X164150597Y-88121786D01*
X164149500Y-88128713D01*
X164149500Y-88341287D01*
X164182754Y-88551243D01*
X164240921Y-88730263D01*
X164248444Y-88753414D01*
X164344951Y-88942820D01*
X164469890Y-89114786D01*
X164583430Y-89228326D01*
X164616915Y-89289649D01*
X164611931Y-89359341D01*
X164570059Y-89415274D01*
X164539083Y-89432189D01*
X164407669Y-89481203D01*
X164407664Y-89481206D01*
X164292455Y-89567452D01*
X164292452Y-89567455D01*
X164206206Y-89682664D01*
X164206202Y-89682671D01*
X164155908Y-89817517D01*
X164149501Y-89877116D01*
X164149501Y-89877123D01*
X164149500Y-89877135D01*
X164149500Y-91672870D01*
X164149501Y-91672876D01*
X164155908Y-91732483D01*
X164206202Y-91867328D01*
X164206206Y-91867335D01*
X164292452Y-91982544D01*
X164292455Y-91982547D01*
X164407664Y-92068793D01*
X164407671Y-92068797D01*
X164542517Y-92119091D01*
X164542516Y-92119091D01*
X164549444Y-92119835D01*
X164602127Y-92125500D01*
X166397872Y-92125499D01*
X166457483Y-92119091D01*
X166592331Y-92068796D01*
X166707546Y-91982546D01*
X166793796Y-91867331D01*
X166844091Y-91732483D01*
X166850500Y-91672873D01*
X166850499Y-89877128D01*
X166844091Y-89817517D01*
X166821077Y-89755814D01*
X166793797Y-89682671D01*
X166793793Y-89682664D01*
X166707547Y-89567455D01*
X166707544Y-89567452D01*
X166592335Y-89481206D01*
X166592328Y-89481202D01*
X166460917Y-89432189D01*
X166404983Y-89390318D01*
X166380566Y-89324853D01*
X166395418Y-89256580D01*
X166416563Y-89228332D01*
X166530104Y-89114792D01*
X166655051Y-88942816D01*
X166751557Y-88753412D01*
X166817246Y-88551243D01*
X166850500Y-88341287D01*
X166850500Y-88128713D01*
X166817246Y-87918757D01*
X166751557Y-87716588D01*
X166732809Y-87679794D01*
X166719914Y-87611126D01*
X166746190Y-87546386D01*
X166803296Y-87506128D01*
X166843295Y-87499500D01*
X171675500Y-87499500D01*
X171742539Y-87519185D01*
X171788294Y-87571989D01*
X171799500Y-87623500D01*
X171799500Y-94971006D01*
X171799500Y-95108994D01*
X171799500Y-95108996D01*
X171799499Y-95108996D01*
X171826418Y-95244322D01*
X171826421Y-95244332D01*
X171879222Y-95371807D01*
X171955887Y-95486545D01*
X171955888Y-95486546D01*
X173203927Y-96734584D01*
X173230807Y-96774812D01*
X173290604Y-96919176D01*
X173290609Y-96919185D01*
X173378210Y-97050288D01*
X173378213Y-97050292D01*
X173489707Y-97161786D01*
X173489711Y-97161789D01*
X173505588Y-97172398D01*
X173550393Y-97226010D01*
X173559100Y-97295335D01*
X173528946Y-97358362D01*
X173469503Y-97395082D01*
X173436697Y-97399500D01*
X170314159Y-97399500D01*
X170247120Y-97379815D01*
X170201365Y-97327011D01*
X170191421Y-97257853D01*
X170220446Y-97194297D01*
X170257864Y-97165015D01*
X170286163Y-97150595D01*
X170286169Y-97150591D01*
X170369104Y-97090335D01*
X170369105Y-97090335D01*
X169629408Y-96350639D01*
X169692993Y-96333602D01*
X169807007Y-96267776D01*
X169900099Y-96174684D01*
X169965925Y-96060670D01*
X169982962Y-95997085D01*
X170722658Y-96736782D01*
X170722658Y-96736781D01*
X170782914Y-96653846D01*
X170782918Y-96653840D01*
X170890102Y-96443479D01*
X170963065Y-96218924D01*
X171000000Y-95985729D01*
X171000000Y-95749624D01*
X170963065Y-95516429D01*
X170890102Y-95291874D01*
X170782914Y-95081505D01*
X170722658Y-94998571D01*
X170722658Y-94998570D01*
X169982962Y-95738267D01*
X169965925Y-95674684D01*
X169900099Y-95560670D01*
X169807007Y-95467578D01*
X169692993Y-95401752D01*
X169629409Y-95384714D01*
X170369105Y-94645017D01*
X170369104Y-94645015D01*
X170286174Y-94584764D01*
X170075802Y-94477574D01*
X169851247Y-94404611D01*
X169851248Y-94404611D01*
X169618052Y-94367677D01*
X169381948Y-94367677D01*
X169148752Y-94404611D01*
X168924197Y-94477574D01*
X168713830Y-94584761D01*
X168630894Y-94645017D01*
X169370591Y-95384714D01*
X169307007Y-95401752D01*
X169192993Y-95467578D01*
X169099901Y-95560670D01*
X169034075Y-95674684D01*
X169017037Y-95738268D01*
X168277340Y-94998571D01*
X168217084Y-95081507D01*
X168109897Y-95291874D01*
X168036934Y-95516429D01*
X168000000Y-95749624D01*
X168000000Y-95985729D01*
X168036934Y-96218924D01*
X168109897Y-96443479D01*
X168217087Y-96653851D01*
X168277338Y-96736781D01*
X168277340Y-96736782D01*
X169017037Y-95997085D01*
X169034075Y-96060670D01*
X169099901Y-96174684D01*
X169192993Y-96267776D01*
X169307007Y-96333602D01*
X169370590Y-96350639D01*
X168630893Y-97090335D01*
X168713828Y-97150591D01*
X168742136Y-97165015D01*
X168792932Y-97212990D01*
X168809727Y-97280811D01*
X168787190Y-97346945D01*
X168732475Y-97390397D01*
X168685841Y-97399500D01*
X168086670Y-97399500D01*
X168086654Y-97399499D01*
X168079058Y-97399499D01*
X167920943Y-97399499D01*
X167844579Y-97419961D01*
X167768214Y-97440423D01*
X167768209Y-97440426D01*
X167631290Y-97519475D01*
X167631282Y-97519481D01*
X159557584Y-105593181D01*
X159496261Y-105626666D01*
X159469903Y-105629500D01*
X154079766Y-105629500D01*
X154012727Y-105609815D01*
X154010875Y-105608602D01*
X153879185Y-105520609D01*
X153879172Y-105520602D01*
X153733501Y-105460264D01*
X153733489Y-105460261D01*
X153578845Y-105429500D01*
X153578842Y-105429500D01*
X153421158Y-105429500D01*
X153421155Y-105429500D01*
X153266510Y-105460261D01*
X153266498Y-105460264D01*
X153120827Y-105520602D01*
X153120814Y-105520609D01*
X152989711Y-105608210D01*
X152989707Y-105608213D01*
X152878213Y-105719707D01*
X152878210Y-105719711D01*
X152790609Y-105850814D01*
X152790602Y-105850827D01*
X152730264Y-105996498D01*
X152730261Y-105996510D01*
X152699500Y-106151153D01*
X152699500Y-106308846D01*
X152730261Y-106463489D01*
X152730264Y-106463501D01*
X152790602Y-106609172D01*
X152790609Y-106609185D01*
X152878210Y-106740288D01*
X152878213Y-106740292D01*
X152989707Y-106851786D01*
X152989711Y-106851789D01*
X153120814Y-106939390D01*
X153120827Y-106939397D01*
X153266498Y-106999735D01*
X153266503Y-106999737D01*
X153421153Y-107030499D01*
X153421156Y-107030500D01*
X153421158Y-107030500D01*
X153578844Y-107030500D01*
X153578845Y-107030499D01*
X153733497Y-106999737D01*
X153858685Y-106947883D01*
X153879172Y-106939397D01*
X153879172Y-106939396D01*
X153879179Y-106939394D01*
X153879185Y-106939390D01*
X154010875Y-106851398D01*
X154077553Y-106830520D01*
X154079766Y-106830500D01*
X159683331Y-106830500D01*
X159683347Y-106830501D01*
X159690943Y-106830501D01*
X159849054Y-106830501D01*
X159849057Y-106830501D01*
X160001785Y-106789577D01*
X160051904Y-106760639D01*
X160138716Y-106710520D01*
X160250520Y-106598716D01*
X160250520Y-106598714D01*
X160260728Y-106588507D01*
X160260729Y-106588504D01*
X161797098Y-105052135D01*
X172999500Y-105052135D01*
X172999500Y-106947870D01*
X172999501Y-106947876D01*
X173005908Y-107007483D01*
X173056202Y-107142328D01*
X173056206Y-107142335D01*
X173142452Y-107257544D01*
X173142455Y-107257547D01*
X173257664Y-107343793D01*
X173257671Y-107343797D01*
X173392517Y-107394091D01*
X173392516Y-107394091D01*
X173399444Y-107394835D01*
X173452127Y-107400500D01*
X177947872Y-107400499D01*
X178007483Y-107394091D01*
X178142331Y-107343796D01*
X178257546Y-107257546D01*
X178343796Y-107142331D01*
X178394091Y-107007483D01*
X178400500Y-106947873D01*
X178400499Y-105052128D01*
X178394091Y-104992517D01*
X178343796Y-104857669D01*
X178343795Y-104857668D01*
X178343793Y-104857664D01*
X178257547Y-104742455D01*
X178257544Y-104742452D01*
X178142335Y-104656206D01*
X178142328Y-104656202D01*
X178007482Y-104605908D01*
X178007483Y-104605908D01*
X177947883Y-104599501D01*
X177947881Y-104599500D01*
X177947873Y-104599500D01*
X177947864Y-104599500D01*
X173452129Y-104599500D01*
X173452123Y-104599501D01*
X173392516Y-104605908D01*
X173257671Y-104656202D01*
X173257664Y-104656206D01*
X173142455Y-104742452D01*
X173142452Y-104742455D01*
X173056206Y-104857664D01*
X173056202Y-104857671D01*
X173005908Y-104992517D01*
X172999501Y-105052116D01*
X172999501Y-105052123D01*
X172999500Y-105052135D01*
X161797098Y-105052135D01*
X166781575Y-100067660D01*
X167999500Y-100067660D01*
X167999500Y-101667678D01*
X167999501Y-101667695D01*
X168010000Y-101770473D01*
X168010001Y-101770476D01*
X168040623Y-101862886D01*
X168065186Y-101937011D01*
X168157288Y-102086333D01*
X168281344Y-102210389D01*
X168430666Y-102302491D01*
X168597203Y-102357676D01*
X168699991Y-102368177D01*
X170300008Y-102368176D01*
X170402797Y-102357676D01*
X170569334Y-102302491D01*
X170718656Y-102210389D01*
X170842712Y-102086333D01*
X170934814Y-101937011D01*
X170989999Y-101770474D01*
X171000500Y-101667686D01*
X171000499Y-100067669D01*
X170989999Y-99964880D01*
X170934814Y-99798343D01*
X170842712Y-99649021D01*
X170718656Y-99524965D01*
X170569334Y-99432863D01*
X170402797Y-99377678D01*
X170402795Y-99377677D01*
X170300010Y-99367177D01*
X168699998Y-99367177D01*
X168699981Y-99367178D01*
X168597203Y-99377677D01*
X168597200Y-99377678D01*
X168430668Y-99432862D01*
X168430663Y-99432864D01*
X168281342Y-99524966D01*
X168157289Y-99649019D01*
X168065187Y-99798340D01*
X168065186Y-99798343D01*
X168010001Y-99964880D01*
X168010001Y-99964881D01*
X168010000Y-99964881D01*
X167999500Y-100067660D01*
X166781575Y-100067660D01*
X168212417Y-98636819D01*
X168273740Y-98603334D01*
X168300098Y-98600500D01*
X175913331Y-98600500D01*
X175913347Y-98600501D01*
X175920943Y-98600501D01*
X176079054Y-98600501D01*
X176079057Y-98600501D01*
X176231785Y-98559577D01*
X176281904Y-98530639D01*
X176368716Y-98480520D01*
X176480520Y-98368716D01*
X176480520Y-98368714D01*
X176490728Y-98358507D01*
X176490730Y-98358504D01*
X178668081Y-96181153D01*
X183439500Y-96181153D01*
X183439500Y-96338846D01*
X183470261Y-96493489D01*
X183470264Y-96493501D01*
X183530602Y-96639172D01*
X183530609Y-96639185D01*
X183618210Y-96770288D01*
X183618213Y-96770292D01*
X183729707Y-96881786D01*
X183729711Y-96881789D01*
X183860814Y-96969390D01*
X183860827Y-96969397D01*
X184006498Y-97029735D01*
X184006503Y-97029737D01*
X184137052Y-97055705D01*
X184161153Y-97060499D01*
X184161156Y-97060500D01*
X184161158Y-97060500D01*
X184318844Y-97060500D01*
X184318845Y-97060499D01*
X184473497Y-97029737D01*
X184619179Y-96969394D01*
X184750289Y-96881789D01*
X184861789Y-96770289D01*
X184949394Y-96639179D01*
X185009737Y-96493497D01*
X185040500Y-96338842D01*
X185040500Y-96181158D01*
X185040500Y-96181155D01*
X185040499Y-96181153D01*
X185009738Y-96026510D01*
X185009737Y-96026503D01*
X184992848Y-95985729D01*
X184949397Y-95880827D01*
X184949390Y-95880814D01*
X184861789Y-95749711D01*
X184861786Y-95749707D01*
X184750292Y-95638213D01*
X184750288Y-95638210D01*
X184619185Y-95550609D01*
X184619172Y-95550602D01*
X184473501Y-95490264D01*
X184473489Y-95490261D01*
X184318845Y-95459500D01*
X184318842Y-95459500D01*
X184161158Y-95459500D01*
X184161155Y-95459500D01*
X184006510Y-95490261D01*
X184006498Y-95490264D01*
X183860827Y-95550602D01*
X183860814Y-95550609D01*
X183729711Y-95638210D01*
X183729707Y-95638213D01*
X183618213Y-95749707D01*
X183618210Y-95749711D01*
X183530609Y-95880814D01*
X183530602Y-95880827D01*
X183470264Y-96026498D01*
X183470261Y-96026510D01*
X183439500Y-96181153D01*
X178668081Y-96181153D01*
X181358506Y-93490728D01*
X181358511Y-93490724D01*
X181368714Y-93480520D01*
X181368716Y-93480520D01*
X181480520Y-93368716D01*
X181535138Y-93274114D01*
X181546917Y-93253713D01*
X185649500Y-93253713D01*
X185649500Y-93466287D01*
X185682754Y-93676243D01*
X185712081Y-93766503D01*
X185748444Y-93878414D01*
X185844951Y-94067820D01*
X185969890Y-94239786D01*
X186120213Y-94390109D01*
X186292182Y-94515050D01*
X186300946Y-94519516D01*
X186351742Y-94567491D01*
X186368536Y-94635312D01*
X186345998Y-94701447D01*
X186300946Y-94740484D01*
X186292182Y-94744949D01*
X186120213Y-94869890D01*
X185969890Y-95020213D01*
X185844951Y-95192179D01*
X185748444Y-95381585D01*
X185748443Y-95381587D01*
X185748443Y-95381588D01*
X185735587Y-95421155D01*
X185682753Y-95583760D01*
X185659037Y-95733497D01*
X185649500Y-95793713D01*
X185649500Y-96006287D01*
X185659534Y-96069644D01*
X185681669Y-96209397D01*
X185682754Y-96216243D01*
X185735381Y-96378213D01*
X185748444Y-96418414D01*
X185844951Y-96607820D01*
X185969890Y-96779786D01*
X186083818Y-96893714D01*
X186117303Y-96955037D01*
X186112319Y-97024729D01*
X186070447Y-97080662D01*
X186039471Y-97097577D01*
X185907912Y-97146646D01*
X185907906Y-97146649D01*
X185792812Y-97232809D01*
X185792809Y-97232812D01*
X185706649Y-97347906D01*
X185706645Y-97347913D01*
X185656403Y-97482620D01*
X185656401Y-97482627D01*
X185650000Y-97542155D01*
X185650000Y-98190000D01*
X186566988Y-98190000D01*
X186534075Y-98247007D01*
X186500000Y-98374174D01*
X186500000Y-98505826D01*
X186534075Y-98632993D01*
X186566988Y-98690000D01*
X185650000Y-98690000D01*
X185650000Y-99337844D01*
X185656401Y-99397372D01*
X185656403Y-99397379D01*
X185706645Y-99532086D01*
X185706649Y-99532093D01*
X185792809Y-99647187D01*
X185792812Y-99647190D01*
X185907906Y-99733350D01*
X185907913Y-99733354D01*
X186042620Y-99783596D01*
X186042627Y-99783598D01*
X186102155Y-99789999D01*
X186102172Y-99790000D01*
X186750000Y-99790000D01*
X186750000Y-98873012D01*
X186807007Y-98905925D01*
X186934174Y-98940000D01*
X187065826Y-98940000D01*
X187192993Y-98905925D01*
X187250000Y-98873012D01*
X187250000Y-99790000D01*
X187897828Y-99790000D01*
X187897844Y-99789999D01*
X187957372Y-99783598D01*
X187957379Y-99783596D01*
X188092086Y-99733354D01*
X188092093Y-99733350D01*
X188207187Y-99647190D01*
X188207190Y-99647187D01*
X188293350Y-99532093D01*
X188293354Y-99532086D01*
X188343596Y-99397379D01*
X188343598Y-99397372D01*
X188349999Y-99337844D01*
X188350000Y-99337827D01*
X188350000Y-98690000D01*
X187433012Y-98690000D01*
X187465925Y-98632993D01*
X187500000Y-98505826D01*
X187500000Y-98374174D01*
X187465925Y-98247007D01*
X187433012Y-98190000D01*
X188350000Y-98190000D01*
X188350000Y-97542172D01*
X188349999Y-97542155D01*
X188343598Y-97482627D01*
X188343596Y-97482620D01*
X188293354Y-97347913D01*
X188293350Y-97347906D01*
X188207190Y-97232812D01*
X188207187Y-97232809D01*
X188092093Y-97146649D01*
X188092088Y-97146646D01*
X187960528Y-97097577D01*
X187904595Y-97055705D01*
X187880178Y-96990241D01*
X187895030Y-96921968D01*
X187916175Y-96893720D01*
X188030104Y-96779792D01*
X188034684Y-96773489D01*
X188155048Y-96607820D01*
X188155047Y-96607820D01*
X188155051Y-96607816D01*
X188251557Y-96418412D01*
X188317246Y-96216243D01*
X188350500Y-96006287D01*
X188350500Y-95793713D01*
X188317246Y-95583757D01*
X188251557Y-95381588D01*
X188155051Y-95192184D01*
X188155049Y-95192181D01*
X188155048Y-95192179D01*
X188030109Y-95020213D01*
X187879786Y-94869890D01*
X187707820Y-94744951D01*
X187707115Y-94744591D01*
X187699054Y-94740485D01*
X187648259Y-94692512D01*
X187631463Y-94624692D01*
X187653999Y-94558556D01*
X187699054Y-94519515D01*
X187707816Y-94515051D01*
X187859825Y-94404611D01*
X187879786Y-94390109D01*
X187879788Y-94390106D01*
X187879792Y-94390104D01*
X188030104Y-94239792D01*
X188030106Y-94239788D01*
X188030109Y-94239786D01*
X188155048Y-94067820D01*
X188155047Y-94067820D01*
X188155051Y-94067816D01*
X188251557Y-93878412D01*
X188317246Y-93676243D01*
X188350500Y-93466287D01*
X188350500Y-93253713D01*
X188317246Y-93043757D01*
X188251557Y-92841588D01*
X188155051Y-92652184D01*
X188155049Y-92652181D01*
X188155048Y-92652179D01*
X188030109Y-92480213D01*
X187879786Y-92329890D01*
X187707820Y-92204951D01*
X187518414Y-92108444D01*
X187518413Y-92108443D01*
X187518412Y-92108443D01*
X187316243Y-92042754D01*
X187316241Y-92042753D01*
X187316240Y-92042753D01*
X187111287Y-92010292D01*
X187106287Y-92009500D01*
X186893713Y-92009500D01*
X186888713Y-92010292D01*
X186683760Y-92042753D01*
X186481585Y-92108444D01*
X186292179Y-92204951D01*
X186120213Y-92329890D01*
X185969890Y-92480213D01*
X185844951Y-92652179D01*
X185748444Y-92841585D01*
X185682753Y-93043760D01*
X185657029Y-93206176D01*
X185649500Y-93253713D01*
X181546917Y-93253713D01*
X181559577Y-93231785D01*
X181600501Y-93079057D01*
X181600501Y-92920943D01*
X181600501Y-92913348D01*
X181600500Y-92913330D01*
X181600500Y-91421153D01*
X182199500Y-91421153D01*
X182199500Y-91578846D01*
X182230261Y-91733489D01*
X182230264Y-91733501D01*
X182290602Y-91879172D01*
X182290609Y-91879185D01*
X182378210Y-92010288D01*
X182378213Y-92010292D01*
X182489707Y-92121786D01*
X182489711Y-92121789D01*
X182620814Y-92209390D01*
X182620827Y-92209397D01*
X182766498Y-92269735D01*
X182766503Y-92269737D01*
X182921153Y-92300499D01*
X182921156Y-92300500D01*
X182921158Y-92300500D01*
X183078844Y-92300500D01*
X183078845Y-92300499D01*
X183233497Y-92269737D01*
X183379179Y-92209394D01*
X183510289Y-92121789D01*
X183621789Y-92010289D01*
X183709394Y-91879179D01*
X183769737Y-91733497D01*
X183800500Y-91578842D01*
X183800500Y-91421158D01*
X183800500Y-91421155D01*
X183800499Y-91421153D01*
X183781603Y-91326158D01*
X183769737Y-91266503D01*
X183729841Y-91170185D01*
X183709397Y-91120827D01*
X183709390Y-91120814D01*
X183621789Y-90989711D01*
X183621786Y-90989707D01*
X183510292Y-90878213D01*
X183510288Y-90878210D01*
X183379185Y-90790609D01*
X183379172Y-90790602D01*
X183233501Y-90730264D01*
X183233489Y-90730261D01*
X183078845Y-90699500D01*
X183078842Y-90699500D01*
X182921158Y-90699500D01*
X182921155Y-90699500D01*
X182766510Y-90730261D01*
X182766498Y-90730264D01*
X182620827Y-90790602D01*
X182620814Y-90790609D01*
X182489711Y-90878210D01*
X182489707Y-90878213D01*
X182378213Y-90989707D01*
X182378210Y-90989711D01*
X182290609Y-91120814D01*
X182290602Y-91120827D01*
X182230264Y-91266498D01*
X182230261Y-91266510D01*
X182199500Y-91421153D01*
X181600500Y-91421153D01*
X181600500Y-76792135D01*
X182374500Y-76792135D01*
X182374500Y-78587870D01*
X182374501Y-78587876D01*
X182380908Y-78647483D01*
X182431202Y-78782328D01*
X182431206Y-78782335D01*
X182517452Y-78897544D01*
X182517455Y-78897547D01*
X182632664Y-78983793D01*
X182632671Y-78983797D01*
X182764082Y-79032810D01*
X182820016Y-79074681D01*
X182844433Y-79140145D01*
X182829582Y-79208418D01*
X182808431Y-79236673D01*
X182694889Y-79350215D01*
X182569951Y-79522179D01*
X182473444Y-79711585D01*
X182407753Y-79913760D01*
X182374500Y-80123713D01*
X182374500Y-80336286D01*
X182387941Y-80421153D01*
X182407754Y-80546243D01*
X182468594Y-80733489D01*
X182473444Y-80748414D01*
X182569951Y-80937820D01*
X182694890Y-81109786D01*
X182845213Y-81260109D01*
X183017182Y-81385050D01*
X183025946Y-81389516D01*
X183076742Y-81437491D01*
X183093536Y-81505312D01*
X183070998Y-81571447D01*
X183025946Y-81610484D01*
X183017182Y-81614949D01*
X182845213Y-81739890D01*
X182694890Y-81890213D01*
X182569951Y-82062179D01*
X182473444Y-82251585D01*
X182407753Y-82453760D01*
X182394140Y-82539711D01*
X182374500Y-82663713D01*
X182374500Y-82876287D01*
X182407754Y-83086243D01*
X182471847Y-83283501D01*
X182473444Y-83288414D01*
X182569951Y-83477820D01*
X182694890Y-83649786D01*
X182845213Y-83800109D01*
X183017182Y-83925050D01*
X183025946Y-83929516D01*
X183076742Y-83977491D01*
X183093536Y-84045312D01*
X183070998Y-84111447D01*
X183025946Y-84150484D01*
X183017182Y-84154949D01*
X182845213Y-84279890D01*
X182694890Y-84430213D01*
X182569951Y-84602179D01*
X182473444Y-84791585D01*
X182407753Y-84993760D01*
X182374500Y-85203713D01*
X182374500Y-85416286D01*
X182407753Y-85626239D01*
X182473444Y-85828414D01*
X182569951Y-86017820D01*
X182694890Y-86189786D01*
X182845213Y-86340109D01*
X183017179Y-86465048D01*
X183017181Y-86465049D01*
X183017184Y-86465051D01*
X183206588Y-86561557D01*
X183408757Y-86627246D01*
X183618713Y-86660500D01*
X183618714Y-86660500D01*
X183831286Y-86660500D01*
X183831287Y-86660500D01*
X184041243Y-86627246D01*
X184243412Y-86561557D01*
X184432816Y-86465051D01*
X184493237Y-86421153D01*
X184604786Y-86340109D01*
X184604788Y-86340106D01*
X184604792Y-86340104D01*
X184755104Y-86189792D01*
X184755106Y-86189788D01*
X184755109Y-86189786D01*
X184880048Y-86017820D01*
X184880047Y-86017820D01*
X184880051Y-86017816D01*
X184884514Y-86009054D01*
X184932488Y-85958259D01*
X185000308Y-85941463D01*
X185066444Y-85963999D01*
X185105486Y-86009056D01*
X185109951Y-86017820D01*
X185234890Y-86189786D01*
X185385213Y-86340109D01*
X185557179Y-86465048D01*
X185557181Y-86465049D01*
X185557184Y-86465051D01*
X185746588Y-86561557D01*
X185948757Y-86627246D01*
X186158713Y-86660500D01*
X186158714Y-86660500D01*
X186371286Y-86660500D01*
X186371287Y-86660500D01*
X186581243Y-86627246D01*
X186783412Y-86561557D01*
X186972816Y-86465051D01*
X187033237Y-86421153D01*
X187144786Y-86340109D01*
X187144788Y-86340106D01*
X187144792Y-86340104D01*
X187295104Y-86189792D01*
X187295106Y-86189788D01*
X187295109Y-86189786D01*
X187420048Y-86017820D01*
X187420047Y-86017820D01*
X187420051Y-86017816D01*
X187516557Y-85828412D01*
X187582246Y-85626243D01*
X187615500Y-85416287D01*
X187615500Y-85203713D01*
X187582246Y-84993757D01*
X187516557Y-84791588D01*
X187420051Y-84602184D01*
X187420049Y-84602181D01*
X187420048Y-84602179D01*
X187295109Y-84430213D01*
X187144786Y-84279890D01*
X186972820Y-84154951D01*
X186972115Y-84154591D01*
X186964054Y-84150485D01*
X186913259Y-84102512D01*
X186896463Y-84034692D01*
X186918999Y-83968556D01*
X186964054Y-83929515D01*
X186972816Y-83925051D01*
X186994789Y-83909086D01*
X187144786Y-83800109D01*
X187144788Y-83800106D01*
X187144792Y-83800104D01*
X187295104Y-83649792D01*
X187295106Y-83649788D01*
X187295109Y-83649786D01*
X187415921Y-83483501D01*
X187420051Y-83477816D01*
X187516557Y-83288412D01*
X187582246Y-83086243D01*
X187615500Y-82876287D01*
X187615500Y-82663713D01*
X187582246Y-82453757D01*
X187516557Y-82251588D01*
X187420051Y-82062184D01*
X187420049Y-82062181D01*
X187420048Y-82062179D01*
X187295109Y-81890213D01*
X187144786Y-81739890D01*
X186972820Y-81614951D01*
X186972115Y-81614591D01*
X186964054Y-81610485D01*
X186913259Y-81562512D01*
X186896463Y-81494692D01*
X186918999Y-81428556D01*
X186964054Y-81389515D01*
X186972816Y-81385051D01*
X187009359Y-81358501D01*
X187144786Y-81260109D01*
X187144788Y-81260106D01*
X187144792Y-81260104D01*
X187295104Y-81109792D01*
X187295106Y-81109788D01*
X187295109Y-81109786D01*
X187420048Y-80937820D01*
X187420047Y-80937820D01*
X187420051Y-80937816D01*
X187516557Y-80748412D01*
X187582246Y-80546243D01*
X187615500Y-80336287D01*
X187615500Y-80123713D01*
X187582246Y-79913757D01*
X187516557Y-79711588D01*
X187420051Y-79522184D01*
X187420049Y-79522181D01*
X187420048Y-79522179D01*
X187295109Y-79350213D01*
X187144786Y-79199890D01*
X186972820Y-79074951D01*
X186972115Y-79074591D01*
X186964054Y-79070485D01*
X186913259Y-79022512D01*
X186896463Y-78954692D01*
X186918999Y-78888556D01*
X186964054Y-78849515D01*
X186972816Y-78845051D01*
X187059138Y-78782335D01*
X187144786Y-78720109D01*
X187144788Y-78720106D01*
X187144792Y-78720104D01*
X187295104Y-78569792D01*
X187295106Y-78569788D01*
X187295109Y-78569786D01*
X187420048Y-78397820D01*
X187420047Y-78397820D01*
X187420051Y-78397816D01*
X187516557Y-78208412D01*
X187582246Y-78006243D01*
X187615500Y-77796287D01*
X187615500Y-77583713D01*
X187582246Y-77373757D01*
X187516557Y-77171588D01*
X187420051Y-76982184D01*
X187420049Y-76982181D01*
X187420048Y-76982179D01*
X187295109Y-76810213D01*
X187144786Y-76659890D01*
X186972820Y-76534951D01*
X186783414Y-76438444D01*
X186783413Y-76438443D01*
X186783412Y-76438443D01*
X186581243Y-76372754D01*
X186581241Y-76372753D01*
X186581240Y-76372753D01*
X186419957Y-76347208D01*
X186371287Y-76339500D01*
X186158713Y-76339500D01*
X186110042Y-76347208D01*
X185948760Y-76372753D01*
X185746585Y-76438444D01*
X185557179Y-76534951D01*
X185385215Y-76659889D01*
X185271673Y-76773431D01*
X185210350Y-76806915D01*
X185140658Y-76801931D01*
X185084725Y-76760059D01*
X185067810Y-76729082D01*
X185018797Y-76597671D01*
X185018793Y-76597664D01*
X184932547Y-76482455D01*
X184932544Y-76482452D01*
X184817335Y-76396206D01*
X184817328Y-76396202D01*
X184682482Y-76345908D01*
X184682483Y-76345908D01*
X184622883Y-76339501D01*
X184622881Y-76339500D01*
X184622873Y-76339500D01*
X184622864Y-76339500D01*
X182827129Y-76339500D01*
X182827123Y-76339501D01*
X182767516Y-76345908D01*
X182632671Y-76396202D01*
X182632664Y-76396206D01*
X182517455Y-76482452D01*
X182517452Y-76482455D01*
X182431206Y-76597664D01*
X182431202Y-76597671D01*
X182380908Y-76732517D01*
X182374501Y-76792116D01*
X182374500Y-76792135D01*
X181600500Y-76792135D01*
X181600500Y-74120097D01*
X181620185Y-74053058D01*
X181636819Y-74032416D01*
X182099131Y-73570104D01*
X182674664Y-72994571D01*
X182735985Y-72961088D01*
X182738152Y-72960637D01*
X182738841Y-72960500D01*
X182738842Y-72960500D01*
X182893497Y-72929737D01*
X183039179Y-72869394D01*
X183058867Y-72856239D01*
X183170875Y-72781398D01*
X183237553Y-72760520D01*
X183239766Y-72760500D01*
X186714281Y-72760500D01*
X186781320Y-72780185D01*
X186824765Y-72828205D01*
X186844947Y-72867814D01*
X186844948Y-72867815D01*
X186969890Y-73039786D01*
X187120213Y-73190109D01*
X187292179Y-73315048D01*
X187292181Y-73315049D01*
X187292184Y-73315051D01*
X187481588Y-73411557D01*
X187683757Y-73477246D01*
X187893713Y-73510500D01*
X187893714Y-73510500D01*
X188106286Y-73510500D01*
X188106287Y-73510500D01*
X188316243Y-73477246D01*
X188518412Y-73411557D01*
X188707816Y-73315051D01*
X188741467Y-73290602D01*
X188879786Y-73190109D01*
X188879788Y-73190106D01*
X188879792Y-73190104D01*
X189030104Y-73039792D01*
X189030106Y-73039788D01*
X189030109Y-73039786D01*
X189145822Y-72880519D01*
X189155051Y-72867816D01*
X189251557Y-72678412D01*
X189257569Y-72659907D01*
X189297006Y-72602232D01*
X189361365Y-72575034D01*
X189430211Y-72586949D01*
X189481687Y-72634193D01*
X189499500Y-72698226D01*
X189499500Y-117996249D01*
X189499274Y-118003736D01*
X189481728Y-118293794D01*
X189479923Y-118308659D01*
X189428219Y-118590798D01*
X189424635Y-118605336D01*
X189339306Y-118879167D01*
X189333997Y-118893168D01*
X189216275Y-119154736D01*
X189209316Y-119167995D01*
X189060928Y-119413459D01*
X189052422Y-119425782D01*
X188875526Y-119651573D01*
X188865596Y-119662781D01*
X188662781Y-119865596D01*
X188651573Y-119875526D01*
X188425782Y-120052422D01*
X188413459Y-120060928D01*
X188167995Y-120209316D01*
X188154736Y-120216275D01*
X187893168Y-120333997D01*
X187879167Y-120339306D01*
X187605336Y-120424635D01*
X187590798Y-120428219D01*
X187308659Y-120479923D01*
X187293794Y-120481728D01*
X187003736Y-120499274D01*
X186996249Y-120499500D01*
X120003751Y-120499500D01*
X119996264Y-120499274D01*
X119706205Y-120481728D01*
X119691340Y-120479923D01*
X119409201Y-120428219D01*
X119394663Y-120424635D01*
X119120832Y-120339306D01*
X119106831Y-120333997D01*
X118845263Y-120216275D01*
X118832004Y-120209316D01*
X118586540Y-120060928D01*
X118574217Y-120052422D01*
X118507943Y-120000500D01*
X118348426Y-119875526D01*
X118337218Y-119865596D01*
X118134403Y-119662781D01*
X118124473Y-119651573D01*
X118059978Y-119569251D01*
X117947573Y-119425776D01*
X117939075Y-119413465D01*
X117790680Y-119167989D01*
X117783727Y-119154743D01*
X117666000Y-118893163D01*
X117660693Y-118879167D01*
X117636179Y-118800500D01*
X117575363Y-118605335D01*
X117571780Y-118590798D01*
X117535187Y-118391116D01*
X117520075Y-118308657D01*
X117518271Y-118293794D01*
X117518262Y-118293653D01*
X117500726Y-118003736D01*
X117500500Y-117996249D01*
X117500500Y-117868872D01*
X117999500Y-117868872D01*
X117999500Y-118131127D01*
X118020436Y-118290140D01*
X118033730Y-118391116D01*
X118097380Y-118628663D01*
X118101602Y-118644418D01*
X118101605Y-118644428D01*
X118201953Y-118886690D01*
X118201958Y-118886700D01*
X118333075Y-119113803D01*
X118492718Y-119321851D01*
X118492726Y-119321860D01*
X118678140Y-119507274D01*
X118678148Y-119507281D01*
X118886196Y-119666924D01*
X119113299Y-119798041D01*
X119113309Y-119798046D01*
X119289202Y-119870903D01*
X119355581Y-119898398D01*
X119608884Y-119966270D01*
X119868880Y-120000500D01*
X119868887Y-120000500D01*
X120131113Y-120000500D01*
X120131120Y-120000500D01*
X120391116Y-119966270D01*
X120644419Y-119898398D01*
X120886697Y-119798043D01*
X121113803Y-119666924D01*
X121321851Y-119507282D01*
X121321855Y-119507277D01*
X121321860Y-119507274D01*
X121507274Y-119321860D01*
X121507277Y-119321855D01*
X121507282Y-119321851D01*
X121666924Y-119113803D01*
X121798043Y-118886697D01*
X121898398Y-118644419D01*
X121966270Y-118391116D01*
X122000500Y-118131120D01*
X122000500Y-117894004D01*
X122980000Y-117894004D01*
X122980000Y-118142500D01*
X123680000Y-118142500D01*
X123680000Y-118642500D01*
X122980000Y-118642500D01*
X122980000Y-118890995D01*
X123018427Y-119084181D01*
X123018430Y-119084193D01*
X123093807Y-119266171D01*
X123093814Y-119266184D01*
X123203248Y-119429962D01*
X123203251Y-119429966D01*
X123342533Y-119569248D01*
X123342537Y-119569251D01*
X123506315Y-119678685D01*
X123506328Y-119678692D01*
X123688308Y-119754069D01*
X123730000Y-119762362D01*
X123730000Y-118959488D01*
X123739940Y-118976705D01*
X123795795Y-119032560D01*
X123864204Y-119072056D01*
X123940504Y-119092500D01*
X124019496Y-119092500D01*
X124095796Y-119072056D01*
X124164205Y-119032560D01*
X124220060Y-118976705D01*
X124230000Y-118959488D01*
X124230000Y-119762362D01*
X124271690Y-119754069D01*
X124271692Y-119754069D01*
X124453671Y-119678692D01*
X124453684Y-119678685D01*
X124617462Y-119569251D01*
X124617466Y-119569248D01*
X124756748Y-119429966D01*
X124756751Y-119429962D01*
X124866185Y-119266184D01*
X124866192Y-119266171D01*
X124941569Y-119084193D01*
X124941572Y-119084181D01*
X124979999Y-118890995D01*
X124980000Y-118890992D01*
X124980000Y-118642500D01*
X124280000Y-118642500D01*
X124280000Y-118142500D01*
X124980000Y-118142500D01*
X124980000Y-117894008D01*
X124979999Y-117894004D01*
X124941572Y-117700818D01*
X124941569Y-117700806D01*
X124866192Y-117518828D01*
X124866185Y-117518815D01*
X124756751Y-117355037D01*
X124756748Y-117355033D01*
X124617466Y-117215751D01*
X124617462Y-117215748D01*
X124453684Y-117106314D01*
X124453671Y-117106307D01*
X124271691Y-117030929D01*
X124271683Y-117030927D01*
X124230000Y-117022635D01*
X124230000Y-117825511D01*
X124220060Y-117808295D01*
X124164205Y-117752440D01*
X124095796Y-117712944D01*
X124019496Y-117692500D01*
X123940504Y-117692500D01*
X123864204Y-117712944D01*
X123795795Y-117752440D01*
X123739940Y-117808295D01*
X123730000Y-117825511D01*
X123730000Y-117022636D01*
X123729999Y-117022635D01*
X123688316Y-117030927D01*
X123688308Y-117030929D01*
X123506328Y-117106307D01*
X123506315Y-117106314D01*
X123342537Y-117215748D01*
X123342533Y-117215751D01*
X123203251Y-117355033D01*
X123203248Y-117355037D01*
X123093814Y-117518815D01*
X123093807Y-117518828D01*
X123018430Y-117700806D01*
X123018427Y-117700818D01*
X122980000Y-117894004D01*
X122000500Y-117894004D01*
X122000500Y-117868880D01*
X121966270Y-117608884D01*
X121898398Y-117355581D01*
X121895059Y-117347520D01*
X121798046Y-117113309D01*
X121798041Y-117113299D01*
X121666924Y-116886196D01*
X121507281Y-116678148D01*
X121507274Y-116678140D01*
X121321860Y-116492726D01*
X121321851Y-116492718D01*
X121113803Y-116333075D01*
X120886700Y-116201958D01*
X120886690Y-116201953D01*
X120644428Y-116101605D01*
X120644421Y-116101603D01*
X120644419Y-116101602D01*
X120391116Y-116033730D01*
X120333339Y-116026123D01*
X120131127Y-115999500D01*
X120131120Y-115999500D01*
X119868880Y-115999500D01*
X119868872Y-115999500D01*
X119637772Y-116029926D01*
X119608884Y-116033730D01*
X119355581Y-116101602D01*
X119355571Y-116101605D01*
X119113309Y-116201953D01*
X119113299Y-116201958D01*
X118886196Y-116333075D01*
X118678148Y-116492718D01*
X118492718Y-116678148D01*
X118333075Y-116886196D01*
X118201958Y-117113299D01*
X118201953Y-117113309D01*
X118101605Y-117355571D01*
X118101602Y-117355581D01*
X118033730Y-117608884D01*
X118032158Y-117620827D01*
X117999500Y-117868872D01*
X117500500Y-117868872D01*
X117500500Y-113564004D01*
X122980000Y-113564004D01*
X122980000Y-113962500D01*
X123680000Y-113962500D01*
X123680000Y-114462500D01*
X122980000Y-114462500D01*
X122980000Y-114860995D01*
X123018427Y-115054181D01*
X123018430Y-115054193D01*
X123093807Y-115236171D01*
X123093814Y-115236184D01*
X123203248Y-115399962D01*
X123203251Y-115399966D01*
X123342533Y-115539248D01*
X123342537Y-115539251D01*
X123506315Y-115648685D01*
X123506328Y-115648692D01*
X123688308Y-115724069D01*
X123730000Y-115732362D01*
X123730000Y-114929488D01*
X123739940Y-114946705D01*
X123795795Y-115002560D01*
X123864204Y-115042056D01*
X123940504Y-115062500D01*
X124019496Y-115062500D01*
X124095796Y-115042056D01*
X124164205Y-115002560D01*
X124220060Y-114946705D01*
X124230000Y-114929488D01*
X124230000Y-115732362D01*
X124271690Y-115724069D01*
X124271692Y-115724069D01*
X124453671Y-115648692D01*
X124453684Y-115648685D01*
X124617462Y-115539251D01*
X124617466Y-115539248D01*
X124756748Y-115399966D01*
X124756751Y-115399962D01*
X124866185Y-115236184D01*
X124866192Y-115236171D01*
X124892647Y-115172303D01*
X124936487Y-115117899D01*
X125002781Y-115095834D01*
X125070481Y-115113113D01*
X125084187Y-115123761D01*
X125084574Y-115123258D01*
X125091016Y-115128201D01*
X125091019Y-115128204D01*
X125091022Y-115128205D01*
X125091025Y-115128208D01*
X125167401Y-115172303D01*
X125209480Y-115196597D01*
X125341606Y-115232000D01*
X125341608Y-115232000D01*
X125478392Y-115232000D01*
X125478394Y-115232000D01*
X125610520Y-115196597D01*
X125728981Y-115128204D01*
X125825704Y-115031481D01*
X125894097Y-114913020D01*
X125929500Y-114780894D01*
X125929500Y-114644106D01*
X125894097Y-114511980D01*
X125854165Y-114442815D01*
X125825708Y-114393525D01*
X125825702Y-114393517D01*
X125728982Y-114296797D01*
X125728974Y-114296791D01*
X125610526Y-114228406D01*
X125610522Y-114228404D01*
X125610520Y-114228403D01*
X125478394Y-114193000D01*
X125341606Y-114193000D01*
X125209480Y-114228403D01*
X125209473Y-114228406D01*
X125091025Y-114296791D01*
X125091017Y-114296797D01*
X124994295Y-114393519D01*
X124990265Y-114400501D01*
X124939697Y-114448716D01*
X124882878Y-114462500D01*
X124280000Y-114462500D01*
X124280000Y-113962500D01*
X124980000Y-113962500D01*
X124980000Y-113564008D01*
X124979999Y-113564004D01*
X124941572Y-113370818D01*
X124941569Y-113370806D01*
X124866192Y-113188828D01*
X124866185Y-113188815D01*
X124756751Y-113025037D01*
X124756748Y-113025033D01*
X124617466Y-112885751D01*
X124617462Y-112885748D01*
X124453684Y-112776314D01*
X124453671Y-112776307D01*
X124271691Y-112700929D01*
X124271683Y-112700927D01*
X124230000Y-112692635D01*
X124230000Y-113495511D01*
X124220060Y-113478295D01*
X124164205Y-113422440D01*
X124095796Y-113382944D01*
X124019496Y-113362500D01*
X123940504Y-113362500D01*
X123864204Y-113382944D01*
X123795795Y-113422440D01*
X123739940Y-113478295D01*
X123730000Y-113495511D01*
X123730000Y-112692636D01*
X123729999Y-112692635D01*
X123688316Y-112700927D01*
X123688308Y-112700929D01*
X123506328Y-112776307D01*
X123506315Y-112776314D01*
X123342537Y-112885748D01*
X123342533Y-112885751D01*
X123203251Y-113025033D01*
X123203248Y-113025037D01*
X123093814Y-113188815D01*
X123093807Y-113188828D01*
X123018430Y-113370806D01*
X123018427Y-113370818D01*
X122980000Y-113564004D01*
X117500500Y-113564004D01*
X117500500Y-112421153D01*
X125099500Y-112421153D01*
X125099500Y-112578846D01*
X125130261Y-112733489D01*
X125130264Y-112733501D01*
X125190602Y-112879172D01*
X125190609Y-112879185D01*
X125278210Y-113010288D01*
X125278213Y-113010292D01*
X125389707Y-113121786D01*
X125389711Y-113121789D01*
X125520814Y-113209390D01*
X125520827Y-113209397D01*
X125630473Y-113254813D01*
X125666503Y-113269737D01*
X125821078Y-113300484D01*
X125821153Y-113300499D01*
X125821156Y-113300500D01*
X125821158Y-113300500D01*
X125978844Y-113300500D01*
X125978845Y-113300499D01*
X126055152Y-113285320D01*
X126133488Y-113269739D01*
X126133489Y-113269738D01*
X126133497Y-113269737D01*
X126157155Y-113259937D01*
X126204604Y-113250500D01*
X128186566Y-113250500D01*
X128253605Y-113270185D01*
X128299360Y-113322989D01*
X128309304Y-113392147D01*
X128280279Y-113455703D01*
X128234018Y-113489061D01*
X128208957Y-113499440D01*
X128208945Y-113499447D01*
X128091027Y-113578238D01*
X128091023Y-113578241D01*
X127706766Y-113962500D01*
X127591027Y-114078239D01*
X127540882Y-114128384D01*
X127490737Y-114178528D01*
X127411947Y-114296445D01*
X127411940Y-114296458D01*
X127357670Y-114427479D01*
X127357667Y-114427491D01*
X127330000Y-114566581D01*
X127330000Y-114725918D01*
X127310315Y-114792957D01*
X127257511Y-114838712D01*
X127188353Y-114848656D01*
X127181809Y-114847535D01*
X127128846Y-114837000D01*
X127128842Y-114837000D01*
X126971158Y-114837000D01*
X126971155Y-114837000D01*
X126816510Y-114867761D01*
X126816498Y-114867764D01*
X126670827Y-114928102D01*
X126670814Y-114928109D01*
X126539711Y-115015710D01*
X126539707Y-115015713D01*
X126428213Y-115127207D01*
X126428210Y-115127211D01*
X126340609Y-115258314D01*
X126340606Y-115258320D01*
X126300307Y-115355610D01*
X126273427Y-115395837D01*
X126091027Y-115578239D01*
X126063020Y-115606246D01*
X125990737Y-115678528D01*
X125911947Y-115796445D01*
X125911940Y-115796458D01*
X125857670Y-115927479D01*
X125857667Y-115927491D01*
X125830000Y-116066581D01*
X125830000Y-117208418D01*
X125857667Y-117347508D01*
X125857670Y-117347520D01*
X125911940Y-117478541D01*
X125911947Y-117478554D01*
X125990738Y-117596472D01*
X125990741Y-117596476D01*
X126490739Y-118096473D01*
X126566235Y-118171969D01*
X126591028Y-118196762D01*
X126708945Y-118275552D01*
X126708958Y-118275559D01*
X126839979Y-118329829D01*
X126839984Y-118329831D01*
X126979081Y-118357499D01*
X126979085Y-118357500D01*
X126979086Y-118357500D01*
X128120915Y-118357500D01*
X128120916Y-118357499D01*
X128260016Y-118329831D01*
X128391048Y-118275556D01*
X128508973Y-118196761D01*
X128811729Y-117894004D01*
X131620000Y-117894004D01*
X131620000Y-118142500D01*
X132320000Y-118142500D01*
X132320000Y-118642500D01*
X131620000Y-118642500D01*
X131620000Y-118890995D01*
X131658427Y-119084181D01*
X131658430Y-119084193D01*
X131733807Y-119266171D01*
X131733814Y-119266184D01*
X131843248Y-119429962D01*
X131843251Y-119429966D01*
X131982533Y-119569248D01*
X131982537Y-119569251D01*
X132146315Y-119678685D01*
X132146328Y-119678692D01*
X132328308Y-119754069D01*
X132370000Y-119762362D01*
X132370000Y-118959488D01*
X132379940Y-118976705D01*
X132435795Y-119032560D01*
X132504204Y-119072056D01*
X132580504Y-119092500D01*
X132659496Y-119092500D01*
X132735796Y-119072056D01*
X132804205Y-119032560D01*
X132860060Y-118976705D01*
X132870000Y-118959488D01*
X132870000Y-119762362D01*
X132911690Y-119754069D01*
X132911692Y-119754069D01*
X133093671Y-119678692D01*
X133093684Y-119678685D01*
X133257462Y-119569251D01*
X133257466Y-119569248D01*
X133396748Y-119429966D01*
X133396751Y-119429962D01*
X133506185Y-119266184D01*
X133506192Y-119266171D01*
X133581569Y-119084193D01*
X133581572Y-119084181D01*
X133619999Y-118890995D01*
X133620000Y-118890992D01*
X133620000Y-118642500D01*
X132920000Y-118642500D01*
X132920000Y-118142500D01*
X133620000Y-118142500D01*
X133620000Y-117894008D01*
X133619999Y-117894004D01*
X133581572Y-117700818D01*
X133581569Y-117700806D01*
X133506192Y-117518828D01*
X133506185Y-117518815D01*
X133396751Y-117355037D01*
X133396748Y-117355033D01*
X133257466Y-117215751D01*
X133257462Y-117215748D01*
X133093684Y-117106314D01*
X133093671Y-117106307D01*
X132911691Y-117030929D01*
X132911683Y-117030927D01*
X132870000Y-117022635D01*
X132870000Y-117825511D01*
X132860060Y-117808295D01*
X132804205Y-117752440D01*
X132735796Y-117712944D01*
X132659496Y-117692500D01*
X132580504Y-117692500D01*
X132504204Y-117712944D01*
X132435795Y-117752440D01*
X132379940Y-117808295D01*
X132370000Y-117825511D01*
X132370000Y-117022636D01*
X132369999Y-117022635D01*
X132328316Y-117030927D01*
X132328308Y-117030929D01*
X132146328Y-117106307D01*
X132146315Y-117106314D01*
X131982537Y-117215748D01*
X131982533Y-117215751D01*
X131843251Y-117355033D01*
X131843248Y-117355037D01*
X131733814Y-117518815D01*
X131733807Y-117518828D01*
X131658430Y-117700806D01*
X131658427Y-117700818D01*
X131620000Y-117894004D01*
X128811729Y-117894004D01*
X129291664Y-117414068D01*
X129331886Y-117387192D01*
X129429179Y-117346894D01*
X129560289Y-117259289D01*
X129671789Y-117147789D01*
X129759394Y-117016679D01*
X129819737Y-116870997D01*
X129850500Y-116716342D01*
X129850500Y-116558658D01*
X129850500Y-116558655D01*
X129837426Y-116492931D01*
X129843653Y-116423340D01*
X129886515Y-116368162D01*
X129911589Y-116354179D01*
X129929179Y-116346894D01*
X130060289Y-116259289D01*
X130171789Y-116147789D01*
X130259394Y-116016679D01*
X130319737Y-115870997D01*
X130350500Y-115716342D01*
X130350500Y-115558658D01*
X130350500Y-115558655D01*
X130350499Y-115558653D01*
X130319739Y-115404011D01*
X130319736Y-115404001D01*
X130316354Y-115395837D01*
X130279439Y-115306714D01*
X130270000Y-115259262D01*
X130270000Y-114644106D01*
X130670500Y-114644106D01*
X130670500Y-114780894D01*
X130693777Y-114867763D01*
X130705903Y-114913019D01*
X130705906Y-114913026D01*
X130774291Y-115031474D01*
X130774295Y-115031479D01*
X130774296Y-115031481D01*
X130871019Y-115128204D01*
X130871021Y-115128205D01*
X130871025Y-115128208D01*
X130947401Y-115172303D01*
X130989480Y-115196597D01*
X131121606Y-115232000D01*
X131121608Y-115232000D01*
X131258392Y-115232000D01*
X131258394Y-115232000D01*
X131390520Y-115196597D01*
X131508981Y-115128204D01*
X131508986Y-115128198D01*
X131515426Y-115123258D01*
X131517150Y-115125505D01*
X131566401Y-115098596D01*
X131636094Y-115103562D01*
X131692038Y-115145418D01*
X131707352Y-115172302D01*
X131733809Y-115236174D01*
X131733814Y-115236184D01*
X131843248Y-115399962D01*
X131843251Y-115399966D01*
X131982533Y-115539248D01*
X131982537Y-115539251D01*
X132146315Y-115648685D01*
X132146328Y-115648692D01*
X132328308Y-115724069D01*
X132370000Y-115732362D01*
X132370000Y-114929488D01*
X132379940Y-114946705D01*
X132435795Y-115002560D01*
X132504204Y-115042056D01*
X132580504Y-115062500D01*
X132659496Y-115062500D01*
X132735796Y-115042056D01*
X132804205Y-115002560D01*
X132860060Y-114946705D01*
X132870000Y-114929488D01*
X132870000Y-115732362D01*
X132911690Y-115724069D01*
X132911692Y-115724069D01*
X133093671Y-115648692D01*
X133093684Y-115648685D01*
X133257462Y-115539251D01*
X133257466Y-115539248D01*
X133396748Y-115399966D01*
X133396751Y-115399962D01*
X133506185Y-115236184D01*
X133506192Y-115236171D01*
X133581569Y-115054193D01*
X133581572Y-115054181D01*
X133619999Y-114860995D01*
X133620000Y-114860992D01*
X133620000Y-114462500D01*
X132920000Y-114462500D01*
X132920000Y-113962500D01*
X133620000Y-113962500D01*
X133620000Y-113564008D01*
X133619999Y-113564004D01*
X133581572Y-113370818D01*
X133581569Y-113370806D01*
X133506192Y-113188828D01*
X133506185Y-113188815D01*
X133396751Y-113025037D01*
X133396748Y-113025033D01*
X133257466Y-112885751D01*
X133257462Y-112885748D01*
X133093684Y-112776314D01*
X133093671Y-112776307D01*
X132911691Y-112700929D01*
X132911683Y-112700927D01*
X132870000Y-112692635D01*
X132870000Y-113495511D01*
X132860060Y-113478295D01*
X132804205Y-113422440D01*
X132735796Y-113382944D01*
X132659496Y-113362500D01*
X132580504Y-113362500D01*
X132504204Y-113382944D01*
X132435795Y-113422440D01*
X132379940Y-113478295D01*
X132370000Y-113495511D01*
X132370000Y-112692636D01*
X132369999Y-112692635D01*
X132328316Y-112700927D01*
X132328308Y-112700929D01*
X132146328Y-112776307D01*
X132146315Y-112776314D01*
X131982537Y-112885748D01*
X131982533Y-112885751D01*
X131843251Y-113025033D01*
X131843248Y-113025037D01*
X131733814Y-113188815D01*
X131733807Y-113188828D01*
X131658430Y-113370806D01*
X131658427Y-113370818D01*
X131620000Y-113564004D01*
X131620000Y-113962500D01*
X132320000Y-113962500D01*
X132320000Y-114462500D01*
X131717122Y-114462500D01*
X131650083Y-114442815D01*
X131609735Y-114400501D01*
X131605704Y-114393519D01*
X131508982Y-114296797D01*
X131508974Y-114296791D01*
X131390526Y-114228406D01*
X131390522Y-114228404D01*
X131390520Y-114228403D01*
X131258394Y-114193000D01*
X131121606Y-114193000D01*
X130989480Y-114228403D01*
X130989473Y-114228406D01*
X130871025Y-114296791D01*
X130871017Y-114296797D01*
X130774297Y-114393517D01*
X130774291Y-114393525D01*
X130705906Y-114511973D01*
X130705904Y-114511977D01*
X130705903Y-114511980D01*
X130670500Y-114644106D01*
X130270000Y-114644106D01*
X130270000Y-114566585D01*
X130269999Y-114566581D01*
X130245857Y-114445211D01*
X130242331Y-114427484D01*
X130234124Y-114407671D01*
X130188059Y-114296458D01*
X130188052Y-114296445D01*
X130109262Y-114178528D01*
X130074491Y-114143757D01*
X130008973Y-114078239D01*
X129872319Y-113941585D01*
X129576333Y-113645598D01*
X129508976Y-113578241D01*
X129508972Y-113578238D01*
X129391054Y-113499447D01*
X129391042Y-113499440D01*
X129365982Y-113489061D01*
X129311578Y-113445221D01*
X129289513Y-113378927D01*
X129306792Y-113311227D01*
X129357929Y-113263617D01*
X129413434Y-113250500D01*
X130573920Y-113250500D01*
X130671462Y-113231096D01*
X130718913Y-113221658D01*
X130855495Y-113165084D01*
X130938683Y-113109500D01*
X130978416Y-113082952D01*
X131315299Y-112746067D01*
X131355524Y-112719191D01*
X131379179Y-112709394D01*
X131510289Y-112621789D01*
X131621789Y-112510289D01*
X131709394Y-112379179D01*
X131769737Y-112233497D01*
X131800500Y-112078842D01*
X131800500Y-111921158D01*
X131800500Y-111921155D01*
X131800499Y-111921153D01*
X131798481Y-111911009D01*
X131769737Y-111766503D01*
X131762694Y-111749500D01*
X131709397Y-111620827D01*
X131709390Y-111620814D01*
X131621789Y-111489711D01*
X131621786Y-111489707D01*
X131510292Y-111378213D01*
X131510288Y-111378210D01*
X131379185Y-111290609D01*
X131379172Y-111290602D01*
X131233501Y-111230264D01*
X131233489Y-111230261D01*
X131078845Y-111199500D01*
X131078842Y-111199500D01*
X130921158Y-111199500D01*
X130921155Y-111199500D01*
X130766510Y-111230261D01*
X130766498Y-111230264D01*
X130620827Y-111290602D01*
X130620814Y-111290609D01*
X130489711Y-111378210D01*
X130489707Y-111378213D01*
X130378213Y-111489707D01*
X130378207Y-111489715D01*
X130290607Y-111620818D01*
X130290604Y-111620823D01*
X130280806Y-111644477D01*
X130276176Y-111651405D01*
X130275081Y-111656443D01*
X130253931Y-111684698D01*
X130225453Y-111713178D01*
X130164131Y-111746665D01*
X130137769Y-111749500D01*
X126204604Y-111749500D01*
X126157155Y-111740062D01*
X126133497Y-111730263D01*
X126133493Y-111730262D01*
X126133488Y-111730260D01*
X125978845Y-111699500D01*
X125978842Y-111699500D01*
X125821158Y-111699500D01*
X125821155Y-111699500D01*
X125666510Y-111730261D01*
X125666498Y-111730264D01*
X125520827Y-111790602D01*
X125520814Y-111790609D01*
X125389711Y-111878210D01*
X125389707Y-111878213D01*
X125278213Y-111989707D01*
X125278210Y-111989711D01*
X125190609Y-112120814D01*
X125190602Y-112120827D01*
X125130264Y-112266498D01*
X125130261Y-112266510D01*
X125099500Y-112421153D01*
X117500500Y-112421153D01*
X117500500Y-93921153D01*
X122699500Y-93921153D01*
X122699500Y-94078846D01*
X122730261Y-94233489D01*
X122730264Y-94233501D01*
X122790602Y-94379172D01*
X122790609Y-94379185D01*
X122878210Y-94510288D01*
X122878213Y-94510292D01*
X122989707Y-94621786D01*
X122989711Y-94621789D01*
X123120814Y-94709390D01*
X123120827Y-94709397D01*
X123218474Y-94749843D01*
X123266503Y-94769737D01*
X123382468Y-94792804D01*
X123421153Y-94800499D01*
X123421156Y-94800500D01*
X123421158Y-94800500D01*
X123578844Y-94800500D01*
X123578845Y-94800499D01*
X123655152Y-94785320D01*
X123733488Y-94769739D01*
X123733489Y-94769738D01*
X123733497Y-94769737D01*
X123757155Y-94759937D01*
X123804604Y-94750500D01*
X135388769Y-94750500D01*
X135455808Y-94770185D01*
X135501563Y-94822989D01*
X135511507Y-94892147D01*
X135482482Y-94955703D01*
X135476450Y-94962181D01*
X133087680Y-97350950D01*
X133026357Y-97384435D01*
X132956665Y-97379451D01*
X132912318Y-97350950D01*
X132246071Y-96684703D01*
X132219191Y-96644475D01*
X132209394Y-96620821D01*
X132200704Y-96607816D01*
X132121789Y-96489710D01*
X132010292Y-96378213D01*
X132010288Y-96378210D01*
X131879185Y-96290609D01*
X131879172Y-96290602D01*
X131733501Y-96230264D01*
X131733489Y-96230261D01*
X131578845Y-96199500D01*
X131578842Y-96199500D01*
X131421158Y-96199500D01*
X131421155Y-96199500D01*
X131266510Y-96230261D01*
X131266498Y-96230264D01*
X131120827Y-96290602D01*
X131120814Y-96290609D01*
X130989711Y-96378210D01*
X130989707Y-96378213D01*
X130878213Y-96489707D01*
X130878210Y-96489711D01*
X130790609Y-96620814D01*
X130790602Y-96620827D01*
X130730264Y-96766498D01*
X130730261Y-96766510D01*
X130699500Y-96921153D01*
X130699500Y-97078846D01*
X130730261Y-97233489D01*
X130730264Y-97233501D01*
X130790602Y-97379172D01*
X130790609Y-97379185D01*
X130878210Y-97510288D01*
X130878213Y-97510292D01*
X130989710Y-97621789D01*
X131120815Y-97709390D01*
X131120821Y-97709394D01*
X131144475Y-97719191D01*
X131184703Y-97746071D01*
X131962181Y-98523549D01*
X131995666Y-98584872D01*
X131998500Y-98611230D01*
X131998500Y-99708481D01*
X131978815Y-99775520D01*
X131926011Y-99821275D01*
X131856853Y-99831219D01*
X131793297Y-99802194D01*
X131786819Y-99796162D01*
X131296072Y-99305416D01*
X131269192Y-99265187D01*
X131209397Y-99120827D01*
X131209390Y-99120814D01*
X131121789Y-98989711D01*
X131121786Y-98989707D01*
X131010292Y-98878213D01*
X131010288Y-98878210D01*
X130879185Y-98790609D01*
X130879172Y-98790602D01*
X130733501Y-98730264D01*
X130733489Y-98730261D01*
X130578845Y-98699500D01*
X130578842Y-98699500D01*
X130421158Y-98699500D01*
X130421155Y-98699500D01*
X130266510Y-98730261D01*
X130266498Y-98730264D01*
X130120827Y-98790602D01*
X130120814Y-98790609D01*
X129989711Y-98878210D01*
X129989707Y-98878213D01*
X129878213Y-98989707D01*
X129878210Y-98989711D01*
X129790609Y-99120814D01*
X129790602Y-99120827D01*
X129730264Y-99266498D01*
X129730261Y-99266510D01*
X129699500Y-99421153D01*
X129699500Y-99578846D01*
X129730261Y-99733489D01*
X129730264Y-99733501D01*
X129790602Y-99879172D01*
X129790609Y-99879185D01*
X129825304Y-99931109D01*
X129830082Y-99946369D01*
X129839363Y-99959390D01*
X129840307Y-99979024D01*
X129846182Y-99997786D01*
X129841990Y-100014021D01*
X129842720Y-100029178D01*
X129831434Y-100054911D01*
X129829618Y-100061950D01*
X129827572Y-100065496D01*
X129790606Y-100120821D01*
X129777711Y-100151951D01*
X129773662Y-100158972D01*
X129766647Y-100165666D01*
X129753927Y-100184703D01*
X127210451Y-102728181D01*
X127149128Y-102761666D01*
X127122770Y-102764500D01*
X126804604Y-102764500D01*
X126757155Y-102755062D01*
X126733497Y-102745263D01*
X126733493Y-102745262D01*
X126733488Y-102745260D01*
X126578845Y-102714500D01*
X126578842Y-102714500D01*
X126421158Y-102714500D01*
X126421155Y-102714500D01*
X126266510Y-102745261D01*
X126266498Y-102745264D01*
X126120827Y-102805602D01*
X126120814Y-102805609D01*
X125989711Y-102893210D01*
X125989707Y-102893213D01*
X125878213Y-103004707D01*
X125878210Y-103004711D01*
X125790609Y-103135814D01*
X125790602Y-103135827D01*
X125730264Y-103281498D01*
X125730261Y-103281510D01*
X125699500Y-103436153D01*
X125699500Y-103593846D01*
X125730261Y-103748489D01*
X125730264Y-103748501D01*
X125790602Y-103894172D01*
X125790609Y-103894185D01*
X125878210Y-104025288D01*
X125878213Y-104025292D01*
X125989707Y-104136786D01*
X125989711Y-104136789D01*
X126120814Y-104224390D01*
X126120827Y-104224397D01*
X126220060Y-104265500D01*
X126266503Y-104284737D01*
X126421153Y-104315499D01*
X126421156Y-104315500D01*
X126421158Y-104315500D01*
X126578844Y-104315500D01*
X126578845Y-104315499D01*
X126655152Y-104300320D01*
X126733488Y-104284739D01*
X126733489Y-104284738D01*
X126733497Y-104284737D01*
X126757155Y-104274937D01*
X126804604Y-104265500D01*
X127558920Y-104265500D01*
X127656462Y-104246096D01*
X127703913Y-104236658D01*
X127840495Y-104180084D01*
X127905291Y-104136789D01*
X127905294Y-104136786D01*
X127905296Y-104136786D01*
X127934547Y-104117240D01*
X127963416Y-104097952D01*
X130815298Y-101246068D01*
X130838087Y-101228086D01*
X130846451Y-101222949D01*
X130879179Y-101209394D01*
X131000097Y-101128598D01*
X131002118Y-101127358D01*
X131033630Y-101118802D01*
X131064792Y-101109045D01*
X131067168Y-101109696D01*
X131069547Y-101109051D01*
X131100682Y-101118890D01*
X131132173Y-101127529D01*
X131134936Y-101129715D01*
X131136169Y-101130105D01*
X131137591Y-101131816D01*
X131154683Y-101145340D01*
X131263182Y-101253838D01*
X131296666Y-101315159D01*
X131299500Y-101341518D01*
X131299500Y-107625500D01*
X131279815Y-107692539D01*
X131227011Y-107738294D01*
X131175500Y-107749500D01*
X129039580Y-107749500D01*
X128894592Y-107778340D01*
X128894586Y-107778342D01*
X128758008Y-107834914D01*
X128757996Y-107834921D01*
X128708769Y-107867813D01*
X128635088Y-107917044D01*
X128635080Y-107917050D01*
X127838951Y-108713181D01*
X127777628Y-108746666D01*
X127751270Y-108749500D01*
X123804604Y-108749500D01*
X123757155Y-108740062D01*
X123733497Y-108730263D01*
X123733493Y-108730262D01*
X123733488Y-108730260D01*
X123578845Y-108699500D01*
X123578842Y-108699500D01*
X123421158Y-108699500D01*
X123421155Y-108699500D01*
X123266510Y-108730261D01*
X123266498Y-108730264D01*
X123120827Y-108790602D01*
X123120814Y-108790609D01*
X122989711Y-108878210D01*
X122989707Y-108878213D01*
X122878213Y-108989707D01*
X122878210Y-108989711D01*
X122790609Y-109120814D01*
X122790602Y-109120827D01*
X122730264Y-109266498D01*
X122730261Y-109266510D01*
X122699500Y-109421153D01*
X122699500Y-109578846D01*
X122730261Y-109733489D01*
X122730264Y-109733501D01*
X122790602Y-109879172D01*
X122790609Y-109879185D01*
X122878210Y-110010288D01*
X122878213Y-110010292D01*
X122989707Y-110121786D01*
X122989711Y-110121789D01*
X123120814Y-110209390D01*
X123120827Y-110209397D01*
X123212197Y-110247243D01*
X123266503Y-110269737D01*
X123421153Y-110300499D01*
X123421156Y-110300500D01*
X123421158Y-110300500D01*
X123578844Y-110300500D01*
X123578845Y-110300499D01*
X123655830Y-110285186D01*
X123733488Y-110269739D01*
X123733489Y-110269738D01*
X123733497Y-110269737D01*
X123757155Y-110259937D01*
X123804604Y-110250500D01*
X127474861Y-110250500D01*
X127541900Y-110270185D01*
X127543751Y-110271397D01*
X127620821Y-110322894D01*
X127620823Y-110322895D01*
X127620827Y-110322897D01*
X127752143Y-110377289D01*
X127766503Y-110383237D01*
X127921153Y-110413999D01*
X127921156Y-110414000D01*
X127921158Y-110414000D01*
X128078844Y-110414000D01*
X128078845Y-110413999D01*
X128233497Y-110383237D01*
X128379179Y-110322894D01*
X128510289Y-110235289D01*
X128621789Y-110123789D01*
X128709394Y-109992679D01*
X128719191Y-109969024D01*
X128746069Y-109928797D01*
X129388049Y-109286819D01*
X129449372Y-109253334D01*
X129475730Y-109250500D01*
X130926082Y-109250500D01*
X132217770Y-109250500D01*
X132284809Y-109270185D01*
X132305451Y-109286819D01*
X134629824Y-111611191D01*
X134663309Y-111672514D01*
X134664616Y-111718270D01*
X134649500Y-111813707D01*
X134649500Y-112026286D01*
X134682319Y-112233501D01*
X134682754Y-112236243D01*
X134742835Y-112421153D01*
X134748444Y-112438414D01*
X134844951Y-112627820D01*
X134969890Y-112799786D01*
X135120213Y-112950109D01*
X135292182Y-113075050D01*
X135300946Y-113079516D01*
X135351742Y-113127491D01*
X135368536Y-113195312D01*
X135345998Y-113261447D01*
X135300946Y-113300484D01*
X135292182Y-113304949D01*
X135120213Y-113429890D01*
X134969890Y-113580213D01*
X134844951Y-113752179D01*
X134748444Y-113941585D01*
X134682753Y-114143760D01*
X134658515Y-114296796D01*
X134649500Y-114353713D01*
X134649500Y-114566287D01*
X134655175Y-114602116D01*
X134676741Y-114738282D01*
X134682754Y-114776243D01*
X134735384Y-114938222D01*
X134748444Y-114978414D01*
X134844951Y-115167820D01*
X134969890Y-115339786D01*
X135083430Y-115453326D01*
X135116915Y-115514649D01*
X135111931Y-115584341D01*
X135070059Y-115640274D01*
X135039083Y-115657189D01*
X134907669Y-115706203D01*
X134907664Y-115706206D01*
X134792455Y-115792452D01*
X134792452Y-115792455D01*
X134706206Y-115907664D01*
X134706202Y-115907671D01*
X134655908Y-116042517D01*
X134653321Y-116066586D01*
X134649501Y-116102123D01*
X134649500Y-116102135D01*
X134649500Y-117897870D01*
X134649501Y-117897876D01*
X134655908Y-117957483D01*
X134706202Y-118092328D01*
X134706206Y-118092335D01*
X134792452Y-118207544D01*
X134792455Y-118207547D01*
X134907664Y-118293793D01*
X134907671Y-118293797D01*
X135042517Y-118344091D01*
X135042516Y-118344091D01*
X135049444Y-118344835D01*
X135102127Y-118350500D01*
X136897872Y-118350499D01*
X136957483Y-118344091D01*
X137092331Y-118293796D01*
X137207546Y-118207546D01*
X137293796Y-118092331D01*
X137344091Y-117957483D01*
X137350500Y-117897873D01*
X137350499Y-116421153D01*
X143199500Y-116421153D01*
X143199500Y-116578846D01*
X143230261Y-116733489D01*
X143230264Y-116733501D01*
X143290602Y-116879172D01*
X143290609Y-116879185D01*
X143325304Y-116931109D01*
X143346182Y-116997786D01*
X143327698Y-117065167D01*
X143325304Y-117068891D01*
X143290609Y-117120814D01*
X143290602Y-117120827D01*
X143230264Y-117266498D01*
X143230261Y-117266510D01*
X143199500Y-117421153D01*
X143199500Y-117578846D01*
X143230261Y-117733489D01*
X143230264Y-117733501D01*
X143290602Y-117879172D01*
X143290609Y-117879185D01*
X143378210Y-118010288D01*
X143378213Y-118010292D01*
X143489707Y-118121786D01*
X143489711Y-118121789D01*
X143620814Y-118209390D01*
X143620827Y-118209397D01*
X143756450Y-118265573D01*
X143766503Y-118269737D01*
X143886736Y-118293653D01*
X143921153Y-118300499D01*
X143921156Y-118300500D01*
X143921158Y-118300500D01*
X144078843Y-118300500D01*
X144095304Y-118297225D01*
X144144568Y-118287426D01*
X144214158Y-118293653D01*
X144269336Y-118336515D01*
X144283320Y-118361589D01*
X144290606Y-118379179D01*
X144290609Y-118379185D01*
X144378210Y-118510288D01*
X144378213Y-118510292D01*
X144489707Y-118621786D01*
X144489711Y-118621789D01*
X144620814Y-118709390D01*
X144620827Y-118709397D01*
X144766498Y-118769735D01*
X144766503Y-118769737D01*
X144921153Y-118800499D01*
X144921156Y-118800500D01*
X144921158Y-118800500D01*
X145078844Y-118800500D01*
X145078845Y-118800499D01*
X145233497Y-118769737D01*
X145379179Y-118709394D01*
X145431110Y-118674694D01*
X145497785Y-118653816D01*
X145565165Y-118672300D01*
X145568863Y-118674676D01*
X145620821Y-118709394D01*
X145620823Y-118709395D01*
X145620825Y-118709396D01*
X145766498Y-118769735D01*
X145766503Y-118769737D01*
X145921153Y-118800499D01*
X145921156Y-118800500D01*
X145921158Y-118800500D01*
X146078844Y-118800500D01*
X146078845Y-118800499D01*
X146233497Y-118769737D01*
X146379179Y-118709394D01*
X146510289Y-118621789D01*
X146621789Y-118510289D01*
X146709394Y-118379179D01*
X146769737Y-118233497D01*
X146800500Y-118078842D01*
X146800500Y-117921158D01*
X146792148Y-117879172D01*
X146790099Y-117868872D01*
X184999500Y-117868872D01*
X184999500Y-118131127D01*
X185020436Y-118290140D01*
X185033730Y-118391116D01*
X185097380Y-118628663D01*
X185101602Y-118644418D01*
X185101605Y-118644428D01*
X185201953Y-118886690D01*
X185201958Y-118886700D01*
X185333075Y-119113803D01*
X185492718Y-119321851D01*
X185492726Y-119321860D01*
X185678140Y-119507274D01*
X185678148Y-119507281D01*
X185886196Y-119666924D01*
X186113299Y-119798041D01*
X186113309Y-119798046D01*
X186289202Y-119870903D01*
X186355581Y-119898398D01*
X186608884Y-119966270D01*
X186868880Y-120000500D01*
X186868887Y-120000500D01*
X187131113Y-120000500D01*
X187131120Y-120000500D01*
X187391116Y-119966270D01*
X187644419Y-119898398D01*
X187886697Y-119798043D01*
X188113803Y-119666924D01*
X188321851Y-119507282D01*
X188321855Y-119507277D01*
X188321860Y-119507274D01*
X188507274Y-119321860D01*
X188507277Y-119321855D01*
X188507282Y-119321851D01*
X188666924Y-119113803D01*
X188798043Y-118886697D01*
X188898398Y-118644419D01*
X188966270Y-118391116D01*
X189000500Y-118131120D01*
X189000500Y-117868880D01*
X188966270Y-117608884D01*
X188898398Y-117355581D01*
X188895059Y-117347520D01*
X188798046Y-117113309D01*
X188798041Y-117113299D01*
X188666924Y-116886196D01*
X188507281Y-116678148D01*
X188507274Y-116678140D01*
X188321860Y-116492726D01*
X188321851Y-116492718D01*
X188113803Y-116333075D01*
X187886700Y-116201958D01*
X187886690Y-116201953D01*
X187644428Y-116101605D01*
X187644421Y-116101603D01*
X187644419Y-116101602D01*
X187391116Y-116033730D01*
X187333339Y-116026123D01*
X187131127Y-115999500D01*
X187131120Y-115999500D01*
X186868880Y-115999500D01*
X186868872Y-115999500D01*
X186637772Y-116029926D01*
X186608884Y-116033730D01*
X186355581Y-116101602D01*
X186355571Y-116101605D01*
X186113309Y-116201953D01*
X186113299Y-116201958D01*
X185886196Y-116333075D01*
X185678148Y-116492718D01*
X185492718Y-116678148D01*
X185333075Y-116886196D01*
X185201958Y-117113299D01*
X185201953Y-117113309D01*
X185101605Y-117355571D01*
X185101602Y-117355581D01*
X185033730Y-117608884D01*
X185032158Y-117620827D01*
X184999500Y-117868872D01*
X146790099Y-117868872D01*
X146769738Y-117766510D01*
X146769737Y-117766503D01*
X146756062Y-117733489D01*
X146709397Y-117620827D01*
X146709390Y-117620814D01*
X146621789Y-117489711D01*
X146621786Y-117489707D01*
X146510292Y-117378213D01*
X146510288Y-117378210D01*
X146379185Y-117290609D01*
X146379172Y-117290602D01*
X146233501Y-117230264D01*
X146233489Y-117230261D01*
X146078845Y-117199500D01*
X146078842Y-117199500D01*
X145921158Y-117199500D01*
X145921155Y-117199500D01*
X145766510Y-117230261D01*
X145766498Y-117230264D01*
X145620827Y-117290602D01*
X145620814Y-117290609D01*
X145568891Y-117325304D01*
X145502214Y-117346182D01*
X145434833Y-117327698D01*
X145431109Y-117325304D01*
X145379185Y-117290609D01*
X145379172Y-117290602D01*
X145233501Y-117230264D01*
X145233489Y-117230261D01*
X145078845Y-117199500D01*
X145078842Y-117199500D01*
X144921158Y-117199500D01*
X144921153Y-117199500D01*
X144855431Y-117212573D01*
X144832053Y-117210481D01*
X144808704Y-117212891D01*
X144797899Y-117207425D01*
X144785839Y-117206346D01*
X144767302Y-117191945D01*
X144746358Y-117181350D01*
X144737888Y-117169095D01*
X144730662Y-117163482D01*
X144724330Y-117153775D01*
X144719970Y-117146356D01*
X144709394Y-117120821D01*
X144672695Y-117065897D01*
X144670886Y-117062819D01*
X144663226Y-117032268D01*
X144653816Y-117002215D01*
X144654796Y-116998641D01*
X144653895Y-116995046D01*
X144663969Y-116965201D01*
X144672300Y-116934835D01*
X144674676Y-116931136D01*
X144709394Y-116879179D01*
X144769737Y-116733497D01*
X144800500Y-116578842D01*
X144800500Y-116421158D01*
X144800500Y-116421155D01*
X144800499Y-116421153D01*
X144795867Y-116397865D01*
X144769737Y-116266503D01*
X144766749Y-116259289D01*
X144709397Y-116120827D01*
X144709390Y-116120814D01*
X144621789Y-115989711D01*
X144621786Y-115989707D01*
X144510292Y-115878213D01*
X144510288Y-115878210D01*
X144379185Y-115790609D01*
X144379172Y-115790602D01*
X144233501Y-115730264D01*
X144233489Y-115730261D01*
X144078845Y-115699500D01*
X144078842Y-115699500D01*
X143921158Y-115699500D01*
X143921155Y-115699500D01*
X143766510Y-115730261D01*
X143766498Y-115730264D01*
X143620827Y-115790602D01*
X143620814Y-115790609D01*
X143489711Y-115878210D01*
X143489707Y-115878213D01*
X143378213Y-115989707D01*
X143378210Y-115989711D01*
X143290609Y-116120814D01*
X143290602Y-116120827D01*
X143230264Y-116266498D01*
X143230261Y-116266510D01*
X143199500Y-116421153D01*
X137350499Y-116421153D01*
X137350499Y-116102128D01*
X137344091Y-116042517D01*
X137334456Y-116016685D01*
X137293797Y-115907671D01*
X137293793Y-115907664D01*
X137207547Y-115792455D01*
X137207544Y-115792452D01*
X137092335Y-115706206D01*
X137092328Y-115706202D01*
X136960917Y-115657189D01*
X136934335Y-115637290D01*
X136907203Y-115618194D01*
X136906492Y-115616448D01*
X136904983Y-115615318D01*
X136893383Y-115584217D01*
X136880878Y-115553473D01*
X136881224Y-115551619D01*
X136880566Y-115549853D01*
X136887618Y-115517434D01*
X136893723Y-115484794D01*
X136895144Y-115482835D01*
X136895418Y-115481580D01*
X136914037Y-115455932D01*
X136915245Y-115454650D01*
X136976143Y-115393753D01*
X150885000Y-115393753D01*
X150885000Y-115606246D01*
X150918242Y-115816127D01*
X150918242Y-115816130D01*
X150983904Y-116018217D01*
X151080375Y-116207550D01*
X151119728Y-116261716D01*
X151752037Y-115629408D01*
X151769075Y-115692993D01*
X151834901Y-115807007D01*
X151927993Y-115900099D01*
X152042007Y-115965925D01*
X152105590Y-115982962D01*
X151473282Y-116615269D01*
X151473282Y-116615270D01*
X151527449Y-116654624D01*
X151716782Y-116751095D01*
X151918870Y-116816757D01*
X152128754Y-116850000D01*
X152341246Y-116850000D01*
X152551127Y-116816757D01*
X152551130Y-116816757D01*
X152753217Y-116751095D01*
X152942554Y-116654622D01*
X152996716Y-116615270D01*
X152996717Y-116615270D01*
X152364408Y-115982962D01*
X152427993Y-115965925D01*
X152542007Y-115900099D01*
X152635099Y-115807007D01*
X152700925Y-115692993D01*
X152717962Y-115629408D01*
X153388181Y-116299628D01*
X153421666Y-116360951D01*
X153424500Y-116387300D01*
X153424500Y-116397865D01*
X153424501Y-116397876D01*
X153430908Y-116457483D01*
X153481202Y-116592328D01*
X153481206Y-116592335D01*
X153567452Y-116707544D01*
X153567455Y-116707547D01*
X153682664Y-116793793D01*
X153682671Y-116793797D01*
X153817517Y-116844091D01*
X153817516Y-116844091D01*
X153824444Y-116844835D01*
X153877127Y-116850500D01*
X155672872Y-116850499D01*
X155732483Y-116844091D01*
X155867331Y-116793796D01*
X155982546Y-116707546D01*
X156068796Y-116592331D01*
X156119091Y-116457483D01*
X156125500Y-116397873D01*
X156125499Y-114602128D01*
X156119091Y-114542517D01*
X156107701Y-114511980D01*
X156068797Y-114407671D01*
X156068793Y-114407664D01*
X155982547Y-114292455D01*
X155982544Y-114292452D01*
X155867335Y-114206206D01*
X155867328Y-114206202D01*
X155732482Y-114155908D01*
X155732483Y-114155908D01*
X155672883Y-114149501D01*
X155672881Y-114149500D01*
X155672873Y-114149500D01*
X155672864Y-114149500D01*
X153877129Y-114149500D01*
X153877123Y-114149501D01*
X153817516Y-114155908D01*
X153682671Y-114206202D01*
X153682664Y-114206206D01*
X153567455Y-114292452D01*
X153567452Y-114292455D01*
X153481206Y-114407664D01*
X153481202Y-114407671D01*
X153430908Y-114542517D01*
X153428321Y-114566585D01*
X153424501Y-114602123D01*
X153424500Y-114602135D01*
X153424500Y-114612690D01*
X153404815Y-114679729D01*
X153388181Y-114700371D01*
X152717962Y-115370590D01*
X152700925Y-115307007D01*
X152635099Y-115192993D01*
X152542007Y-115099901D01*
X152427993Y-115034075D01*
X152364409Y-115017037D01*
X152996716Y-114384728D01*
X152942550Y-114345375D01*
X152753217Y-114248904D01*
X152551129Y-114183242D01*
X152341246Y-114150000D01*
X152128754Y-114150000D01*
X151918872Y-114183242D01*
X151918869Y-114183242D01*
X151716782Y-114248904D01*
X151527439Y-114345380D01*
X151473282Y-114384727D01*
X151473282Y-114384728D01*
X152105591Y-115017037D01*
X152042007Y-115034075D01*
X151927993Y-115099901D01*
X151834901Y-115192993D01*
X151769075Y-115307007D01*
X151752037Y-115370591D01*
X151119728Y-114738282D01*
X151119727Y-114738282D01*
X151080380Y-114792439D01*
X150983904Y-114981782D01*
X150918242Y-115183869D01*
X150918242Y-115183872D01*
X150885000Y-115393753D01*
X136976143Y-115393753D01*
X137030104Y-115339792D01*
X137155051Y-115167816D01*
X137251557Y-114978412D01*
X137317246Y-114776243D01*
X137350500Y-114566287D01*
X137350500Y-114353713D01*
X137317246Y-114143757D01*
X137251557Y-113941588D01*
X137155051Y-113752184D01*
X137155049Y-113752181D01*
X137155048Y-113752179D01*
X137030109Y-113580213D01*
X136879786Y-113429890D01*
X136707820Y-113304951D01*
X136707115Y-113304591D01*
X136699054Y-113300485D01*
X136648259Y-113252512D01*
X136631463Y-113184692D01*
X136653999Y-113118556D01*
X136699054Y-113079515D01*
X136707816Y-113075051D01*
X136776655Y-113025037D01*
X136879786Y-112950109D01*
X136879788Y-112950106D01*
X136879792Y-112950104D01*
X137030104Y-112799792D01*
X137030106Y-112799788D01*
X137030109Y-112799786D01*
X137155048Y-112627820D01*
X137155047Y-112627820D01*
X137155051Y-112627816D01*
X137251557Y-112438412D01*
X137317246Y-112236243D01*
X137350500Y-112026287D01*
X137350500Y-111813713D01*
X137317246Y-111603757D01*
X137251557Y-111401588D01*
X137155051Y-111212184D01*
X137155049Y-111212181D01*
X137155048Y-111212179D01*
X137030109Y-111040213D01*
X136879786Y-110889890D01*
X136707820Y-110764951D01*
X136518414Y-110668444D01*
X136518413Y-110668443D01*
X136518412Y-110668443D01*
X136316243Y-110602754D01*
X136316241Y-110602753D01*
X136316240Y-110602753D01*
X136145192Y-110575662D01*
X136106287Y-110569500D01*
X135893713Y-110569500D01*
X135893708Y-110569500D01*
X135798270Y-110584616D01*
X135728977Y-110575662D01*
X135691191Y-110549824D01*
X134953855Y-109812487D01*
X134869503Y-109728135D01*
X165475500Y-109728135D01*
X165475500Y-111271870D01*
X165475501Y-111271876D01*
X165481908Y-111331483D01*
X165532202Y-111466328D01*
X165532206Y-111466335D01*
X165618452Y-111581544D01*
X165618455Y-111581547D01*
X165733664Y-111667793D01*
X165733671Y-111667797D01*
X165868517Y-111718091D01*
X165868516Y-111718091D01*
X165875444Y-111718835D01*
X165928127Y-111724500D01*
X166069227Y-111724499D01*
X166136264Y-111744183D01*
X166182019Y-111796987D01*
X166191963Y-111866145D01*
X166162939Y-111929701D01*
X166125521Y-111958983D01*
X166058484Y-111993141D01*
X166028487Y-112014933D01*
X166028487Y-112014934D01*
X166595085Y-112581531D01*
X166518587Y-112602029D01*
X166411413Y-112663906D01*
X166323906Y-112751413D01*
X166262029Y-112858587D01*
X166241531Y-112935084D01*
X165674933Y-112368487D01*
X165653142Y-112398481D01*
X165565676Y-112570144D01*
X165506138Y-112753381D01*
X165476000Y-112943669D01*
X165476000Y-113136330D01*
X165506138Y-113326618D01*
X165565676Y-113509855D01*
X165653140Y-113681514D01*
X165674934Y-113711511D01*
X166241531Y-113144914D01*
X166262029Y-113221413D01*
X166323906Y-113328587D01*
X166411413Y-113416094D01*
X166518587Y-113477971D01*
X166595084Y-113498468D01*
X166028486Y-114065064D01*
X166028487Y-114065065D01*
X166058473Y-114086851D01*
X166058482Y-114086857D01*
X166230145Y-114174324D01*
X166283947Y-114191805D01*
X166341623Y-114231241D01*
X166368822Y-114295600D01*
X166356908Y-114364446D01*
X166309664Y-114415923D01*
X166283950Y-114427666D01*
X166229960Y-114445209D01*
X166058221Y-114532714D01*
X166011601Y-114566586D01*
X165902292Y-114646004D01*
X165902290Y-114646006D01*
X165902289Y-114646006D01*
X165766006Y-114782289D01*
X165766006Y-114782290D01*
X165766004Y-114782292D01*
X165726256Y-114837000D01*
X165652714Y-114938221D01*
X165565210Y-115109957D01*
X165505652Y-115293257D01*
X165505652Y-115293260D01*
X165505652Y-115293262D01*
X165475500Y-115483630D01*
X165475500Y-115676370D01*
X165490576Y-115771554D01*
X165505652Y-115866739D01*
X165505652Y-115866742D01*
X165565210Y-116050042D01*
X165591750Y-116102129D01*
X165652714Y-116221778D01*
X165766004Y-116377708D01*
X165902292Y-116513996D01*
X166058222Y-116627286D01*
X166158029Y-116678140D01*
X166229957Y-116714789D01*
X166400933Y-116770342D01*
X166413262Y-116774348D01*
X166603630Y-116804500D01*
X166603631Y-116804500D01*
X166796369Y-116804500D01*
X166796370Y-116804500D01*
X166986738Y-116774348D01*
X166986741Y-116774347D01*
X166986742Y-116774347D01*
X167170042Y-116714789D01*
X167170042Y-116714788D01*
X167170045Y-116714788D01*
X167341778Y-116627286D01*
X167497708Y-116513996D01*
X167633996Y-116377708D01*
X167747286Y-116221778D01*
X167834788Y-116050045D01*
X167874608Y-115927491D01*
X167894347Y-115866742D01*
X167894347Y-115866741D01*
X167894348Y-115866738D01*
X167924500Y-115676370D01*
X167924500Y-115483630D01*
X167894348Y-115293262D01*
X167894347Y-115293258D01*
X167894347Y-115293257D01*
X167834789Y-115109957D01*
X167827593Y-115095834D01*
X167747286Y-114938222D01*
X167633996Y-114782292D01*
X167497708Y-114646004D01*
X167341778Y-114532714D01*
X167170045Y-114445212D01*
X167170044Y-114445211D01*
X167170043Y-114445211D01*
X167116050Y-114427667D01*
X167058375Y-114388229D01*
X167031177Y-114323870D01*
X167043092Y-114255024D01*
X167090337Y-114203548D01*
X167116053Y-114191804D01*
X167169857Y-114174322D01*
X167341516Y-114086858D01*
X167371511Y-114065065D01*
X167371511Y-114065064D01*
X166804915Y-113498467D01*
X166881413Y-113477971D01*
X166988587Y-113416094D01*
X167076094Y-113328587D01*
X167137971Y-113221413D01*
X167158468Y-113144915D01*
X167725064Y-113711511D01*
X167725065Y-113711511D01*
X167746858Y-113681516D01*
X167834323Y-113509855D01*
X167893861Y-113326618D01*
X167924000Y-113136330D01*
X167924000Y-112943669D01*
X167893861Y-112753381D01*
X167834323Y-112570144D01*
X167746857Y-112398482D01*
X167746851Y-112398473D01*
X167725065Y-112368487D01*
X167725064Y-112368486D01*
X167158467Y-112935083D01*
X167137971Y-112858587D01*
X167076094Y-112751413D01*
X166988587Y-112663906D01*
X166881413Y-112602029D01*
X166804914Y-112581531D01*
X167346844Y-112039601D01*
X167243232Y-111936320D01*
X167235451Y-111922124D01*
X167223682Y-111911009D01*
X167219003Y-111892118D01*
X167209649Y-111875051D01*
X167210778Y-111858900D01*
X167206887Y-111843188D01*
X167213164Y-111824766D01*
X167214522Y-111805351D01*
X167224202Y-111792376D01*
X167229424Y-111777053D01*
X167244666Y-111764948D01*
X167256304Y-111749351D01*
X167271462Y-111743669D01*
X167284140Y-111733602D01*
X167313736Y-111727824D01*
X167321729Y-111724829D01*
X167325220Y-111725582D01*
X167330772Y-111724499D01*
X167471872Y-111724499D01*
X167531483Y-111718091D01*
X167666331Y-111667796D01*
X167781546Y-111581546D01*
X167805161Y-111550000D01*
X173222145Y-111550000D01*
X174284314Y-111550000D01*
X174279920Y-111554394D01*
X174227259Y-111645606D01*
X174200000Y-111747339D01*
X174200000Y-111852661D01*
X174227259Y-111954394D01*
X174279920Y-112045606D01*
X174284314Y-112050000D01*
X173222145Y-112050000D01*
X173234473Y-112127835D01*
X173234473Y-112127838D01*
X173302567Y-112337410D01*
X173402613Y-112533760D01*
X173532142Y-112712041D01*
X173687958Y-112867857D01*
X173866239Y-112997386D01*
X174062589Y-113097432D01*
X174272164Y-113165526D01*
X174489819Y-113200000D01*
X175450000Y-113200000D01*
X175450000Y-112200000D01*
X175950000Y-112200000D01*
X175950000Y-113200000D01*
X176910181Y-113200000D01*
X177127835Y-113165526D01*
X177337410Y-113097432D01*
X177533760Y-112997386D01*
X177712041Y-112867857D01*
X177867857Y-112712041D01*
X177997386Y-112533760D01*
X178097432Y-112337410D01*
X178165526Y-112127838D01*
X178165526Y-112127835D01*
X178177855Y-112050000D01*
X177115686Y-112050000D01*
X177120080Y-112045606D01*
X177172741Y-111954394D01*
X177200000Y-111852661D01*
X177200000Y-111747339D01*
X177172741Y-111645606D01*
X177120080Y-111554394D01*
X177115686Y-111550000D01*
X178177855Y-111550000D01*
X178165526Y-111472164D01*
X178165526Y-111472161D01*
X178097432Y-111262589D01*
X177997386Y-111066239D01*
X177867857Y-110887958D01*
X177712041Y-110732142D01*
X177533760Y-110602613D01*
X177337410Y-110502567D01*
X177127835Y-110434473D01*
X176910181Y-110400000D01*
X175950000Y-110400000D01*
X175950000Y-111400000D01*
X175450000Y-111400000D01*
X175450000Y-110400000D01*
X174489819Y-110400000D01*
X174272164Y-110434473D01*
X174062589Y-110502567D01*
X173866239Y-110602613D01*
X173687958Y-110732142D01*
X173532142Y-110887958D01*
X173402613Y-111066239D01*
X173302567Y-111262589D01*
X173234473Y-111472161D01*
X173234473Y-111472164D01*
X173222145Y-111550000D01*
X167805161Y-111550000D01*
X167867796Y-111466331D01*
X167918091Y-111331483D01*
X167924500Y-111271873D01*
X167924499Y-109728128D01*
X167918091Y-109668517D01*
X167884644Y-109578842D01*
X167867797Y-109533671D01*
X167867793Y-109533664D01*
X167781547Y-109418455D01*
X167781544Y-109418452D01*
X167666335Y-109332206D01*
X167666328Y-109332202D01*
X167619723Y-109314820D01*
X167531482Y-109281908D01*
X167531483Y-109281908D01*
X167471883Y-109275501D01*
X167471881Y-109275500D01*
X167471873Y-109275500D01*
X167471864Y-109275500D01*
X165928129Y-109275500D01*
X165928123Y-109275501D01*
X165868516Y-109281908D01*
X165733671Y-109332202D01*
X165733664Y-109332206D01*
X165618455Y-109418452D01*
X165618452Y-109418455D01*
X165532206Y-109533664D01*
X165532202Y-109533671D01*
X165481908Y-109668517D01*
X165475501Y-109728116D01*
X165475501Y-109728123D01*
X165475500Y-109728135D01*
X134869503Y-109728135D01*
X133058421Y-107917052D01*
X133058418Y-107917049D01*
X133015015Y-107888049D01*
X132984729Y-107867813D01*
X132984728Y-107867812D01*
X132935491Y-107834913D01*
X132826621Y-107789818D01*
X179100000Y-107789818D01*
X179100000Y-108750000D01*
X180100000Y-108750000D01*
X180100000Y-109250000D01*
X179100000Y-109250000D01*
X179100000Y-110210181D01*
X179134473Y-110427835D01*
X179202567Y-110637410D01*
X179302613Y-110833760D01*
X179432142Y-111012041D01*
X179587958Y-111167857D01*
X179766239Y-111297386D01*
X179962589Y-111397432D01*
X180172163Y-111465526D01*
X180249999Y-111477854D01*
X180250000Y-111477854D01*
X180250000Y-110415686D01*
X180254394Y-110420080D01*
X180345606Y-110472741D01*
X180447339Y-110500000D01*
X180552661Y-110500000D01*
X180654394Y-110472741D01*
X180745606Y-110420080D01*
X180750000Y-110415686D01*
X180750000Y-111477854D01*
X180827834Y-111465526D01*
X180827837Y-111465526D01*
X181037410Y-111397432D01*
X181233760Y-111297386D01*
X181412041Y-111167857D01*
X181567857Y-111012041D01*
X181567862Y-111012035D01*
X181634742Y-110919984D01*
X184249500Y-110919984D01*
X184249500Y-112620015D01*
X184260000Y-112722795D01*
X184260001Y-112722797D01*
X184277735Y-112776314D01*
X184315186Y-112889335D01*
X184315187Y-112889337D01*
X184407286Y-113038651D01*
X184407289Y-113038655D01*
X184531344Y-113162710D01*
X184531348Y-113162713D01*
X184680662Y-113254812D01*
X184680664Y-113254813D01*
X184680666Y-113254814D01*
X184847203Y-113309999D01*
X184949992Y-113320500D01*
X184949997Y-113320500D01*
X186650003Y-113320500D01*
X186650008Y-113320500D01*
X186752797Y-113309999D01*
X186919334Y-113254814D01*
X187068655Y-113162711D01*
X187192711Y-113038655D01*
X187284814Y-112889334D01*
X187339999Y-112722797D01*
X187350500Y-112620008D01*
X187350500Y-110919992D01*
X187339999Y-110817203D01*
X187284814Y-110650666D01*
X187255261Y-110602754D01*
X187192713Y-110501348D01*
X187192710Y-110501344D01*
X187068654Y-110377288D01*
X187053843Y-110368153D01*
X187007118Y-110316206D01*
X186995895Y-110247243D01*
X187018621Y-110189728D01*
X187125678Y-110042377D01*
X187236439Y-109824998D01*
X187311834Y-109592959D01*
X187350000Y-109351993D01*
X187350000Y-109108006D01*
X187311834Y-108867040D01*
X187236439Y-108635001D01*
X187125676Y-108417619D01*
X187058456Y-108325097D01*
X187058454Y-108325096D01*
X186323787Y-109059764D01*
X186312518Y-109017708D01*
X186240110Y-108892292D01*
X186137708Y-108789890D01*
X186012292Y-108717482D01*
X185970233Y-108706212D01*
X186704902Y-107971544D01*
X186704901Y-107971543D01*
X186612380Y-107904323D01*
X186394998Y-107793560D01*
X186162959Y-107718165D01*
X185921993Y-107680000D01*
X185678007Y-107680000D01*
X185437040Y-107718165D01*
X185205001Y-107793560D01*
X184987626Y-107904319D01*
X184895097Y-107971544D01*
X185629766Y-108706212D01*
X185587708Y-108717482D01*
X185462292Y-108789890D01*
X185359890Y-108892292D01*
X185287482Y-109017708D01*
X185276212Y-109059765D01*
X184541544Y-108325097D01*
X184474319Y-108417626D01*
X184363560Y-108635001D01*
X184288165Y-108867040D01*
X184250000Y-109108006D01*
X184250000Y-109351993D01*
X184288165Y-109592959D01*
X184363560Y-109824998D01*
X184474321Y-110042377D01*
X184581378Y-110189727D01*
X184604858Y-110255533D01*
X184589033Y-110323587D01*
X184546162Y-110368149D01*
X184531344Y-110377289D01*
X184407286Y-110501348D01*
X184315187Y-110650662D01*
X184315186Y-110650664D01*
X184260001Y-110817203D01*
X184260000Y-110817204D01*
X184249500Y-110919984D01*
X181634742Y-110919984D01*
X181689984Y-110843950D01*
X181689984Y-110843949D01*
X181697384Y-110833764D01*
X181797432Y-110637410D01*
X181865526Y-110427835D01*
X181900000Y-110210181D01*
X181900000Y-109250000D01*
X180900000Y-109250000D01*
X180900000Y-108750000D01*
X181900000Y-108750000D01*
X181900000Y-107789818D01*
X181865526Y-107572164D01*
X181797432Y-107362589D01*
X181697386Y-107166239D01*
X181567857Y-106987958D01*
X181412041Y-106832142D01*
X181233760Y-106702613D01*
X181037410Y-106602567D01*
X180827836Y-106534473D01*
X180750000Y-106522144D01*
X180750000Y-107584314D01*
X180745606Y-107579920D01*
X180654394Y-107527259D01*
X180552661Y-107500000D01*
X180447339Y-107500000D01*
X180345606Y-107527259D01*
X180254394Y-107579920D01*
X180250000Y-107584314D01*
X180250000Y-106522144D01*
X180172164Y-106534473D01*
X180172161Y-106534473D01*
X179962589Y-106602567D01*
X179766239Y-106702613D01*
X179587958Y-106832142D01*
X179432142Y-106987958D01*
X179302613Y-107166239D01*
X179202567Y-107362589D01*
X179134473Y-107572164D01*
X179100000Y-107789818D01*
X132826621Y-107789818D01*
X132798915Y-107778342D01*
X132793079Y-107776572D01*
X132793531Y-107775079D01*
X132738379Y-107746216D01*
X132703818Y-107685493D01*
X132700500Y-107657001D01*
X132700500Y-103591941D01*
X132720185Y-103524902D01*
X132772989Y-103479147D01*
X132842147Y-103469203D01*
X132905703Y-103498228D01*
X132912181Y-103504260D01*
X133009707Y-103601786D01*
X133009711Y-103601789D01*
X133140814Y-103689390D01*
X133140827Y-103689397D01*
X133283490Y-103748489D01*
X133286503Y-103749737D01*
X133441153Y-103780499D01*
X133441156Y-103780500D01*
X133441158Y-103780500D01*
X133598844Y-103780500D01*
X133598845Y-103780499D01*
X133753497Y-103749737D01*
X133899179Y-103689394D01*
X134030289Y-103601789D01*
X134141789Y-103490289D01*
X134229394Y-103359179D01*
X134289737Y-103213497D01*
X134320500Y-103058842D01*
X134320500Y-102901158D01*
X134320500Y-102901155D01*
X134320499Y-102901153D01*
X134301493Y-102805606D01*
X134289737Y-102746503D01*
X134274366Y-102709394D01*
X134229397Y-102600827D01*
X134229390Y-102600814D01*
X134141789Y-102469711D01*
X134141786Y-102469707D01*
X134030292Y-102358213D01*
X134030284Y-102358207D01*
X133899181Y-102270607D01*
X133899179Y-102270606D01*
X133875521Y-102260806D01*
X133835295Y-102233927D01*
X133595269Y-101993901D01*
X133561784Y-101932578D01*
X133562601Y-101921153D01*
X145199500Y-101921153D01*
X145199500Y-102078846D01*
X145230261Y-102233489D01*
X145230264Y-102233501D01*
X145290602Y-102379172D01*
X145290609Y-102379185D01*
X145378210Y-102510288D01*
X145378213Y-102510292D01*
X145489707Y-102621786D01*
X145489711Y-102621789D01*
X145620814Y-102709390D01*
X145620827Y-102709397D01*
X145766498Y-102769735D01*
X145766503Y-102769737D01*
X145921153Y-102800499D01*
X145921156Y-102800500D01*
X145921158Y-102800500D01*
X146078844Y-102800500D01*
X146078845Y-102800499D01*
X146233497Y-102769737D01*
X146379179Y-102709394D01*
X146510289Y-102621789D01*
X146621789Y-102510289D01*
X146709394Y-102379179D01*
X146769737Y-102233497D01*
X146800500Y-102078842D01*
X146800500Y-101921158D01*
X146800500Y-101921155D01*
X146800499Y-101921153D01*
X146770527Y-101770474D01*
X146769737Y-101766503D01*
X146709794Y-101621786D01*
X146709397Y-101620827D01*
X146709390Y-101620814D01*
X146621789Y-101489711D01*
X146621786Y-101489707D01*
X146510292Y-101378213D01*
X146510288Y-101378210D01*
X146379185Y-101290609D01*
X146379172Y-101290602D01*
X146233501Y-101230264D01*
X146233489Y-101230261D01*
X146078845Y-101199500D01*
X146078842Y-101199500D01*
X145921158Y-101199500D01*
X145921155Y-101199500D01*
X145766510Y-101230261D01*
X145766498Y-101230264D01*
X145620827Y-101290602D01*
X145620814Y-101290609D01*
X145489711Y-101378210D01*
X145489707Y-101378213D01*
X145378213Y-101489707D01*
X145378210Y-101489711D01*
X145290609Y-101620814D01*
X145290602Y-101620827D01*
X145230264Y-101766498D01*
X145230261Y-101766510D01*
X145199500Y-101921153D01*
X133562601Y-101921153D01*
X133566768Y-101862886D01*
X133608640Y-101806953D01*
X133658755Y-101784604D01*
X133733497Y-101769737D01*
X133879179Y-101709394D01*
X134010289Y-101621789D01*
X134121789Y-101510289D01*
X134209394Y-101379179D01*
X134269737Y-101233497D01*
X134300500Y-101078842D01*
X134300500Y-100921158D01*
X134300500Y-100921155D01*
X134300499Y-100921153D01*
X134269739Y-100766511D01*
X134269738Y-100766508D01*
X134269737Y-100766503D01*
X134259937Y-100742844D01*
X134250500Y-100695396D01*
X134250500Y-98362230D01*
X134270185Y-98295191D01*
X134286819Y-98274549D01*
X136274549Y-96286819D01*
X136335872Y-96253334D01*
X136362230Y-96250500D01*
X137695396Y-96250500D01*
X137742844Y-96259937D01*
X137766503Y-96269737D01*
X137766508Y-96269738D01*
X137766511Y-96269739D01*
X137921153Y-96300499D01*
X137921156Y-96300500D01*
X137921158Y-96300500D01*
X138078844Y-96300500D01*
X138078845Y-96300499D01*
X138233497Y-96269737D01*
X138379179Y-96209394D01*
X138510289Y-96121789D01*
X138621789Y-96010289D01*
X138709394Y-95879179D01*
X138769737Y-95733497D01*
X138800500Y-95578842D01*
X138800500Y-95421158D01*
X138800500Y-95421155D01*
X138800499Y-95421153D01*
X139199500Y-95421153D01*
X139199500Y-95578846D01*
X139230261Y-95733489D01*
X139230264Y-95733501D01*
X139290602Y-95879172D01*
X139290609Y-95879185D01*
X139378210Y-96010288D01*
X139378213Y-96010292D01*
X139489710Y-96121789D01*
X139620815Y-96209390D01*
X139620821Y-96209394D01*
X139644475Y-96219191D01*
X139684703Y-96246071D01*
X143213181Y-99774548D01*
X143246666Y-99835871D01*
X143249500Y-99862229D01*
X143249500Y-100073918D01*
X143249500Y-100073920D01*
X143249499Y-100073920D01*
X143278340Y-100218907D01*
X143278343Y-100218917D01*
X143334912Y-100355488D01*
X143334919Y-100355501D01*
X143417048Y-100478415D01*
X143417051Y-100478419D01*
X143521580Y-100582948D01*
X143521584Y-100582951D01*
X143644498Y-100665080D01*
X143644511Y-100665087D01*
X143751469Y-100709390D01*
X143781087Y-100721658D01*
X143781091Y-100721658D01*
X143781092Y-100721659D01*
X143926079Y-100750500D01*
X143926082Y-100750500D01*
X144073918Y-100750500D01*
X144135756Y-100738199D01*
X144205345Y-100744425D01*
X144207302Y-100745215D01*
X144266503Y-100769737D01*
X144266507Y-100769737D01*
X144266511Y-100769739D01*
X144421153Y-100800499D01*
X144421156Y-100800500D01*
X144421158Y-100800500D01*
X144578844Y-100800500D01*
X144578845Y-100800499D01*
X144733497Y-100769737D01*
X144879179Y-100709394D01*
X145010289Y-100621789D01*
X145121789Y-100510289D01*
X145209394Y-100379179D01*
X145269737Y-100233497D01*
X145300500Y-100078842D01*
X145300500Y-99921158D01*
X145300500Y-99921155D01*
X145300499Y-99921153D01*
X145280632Y-99821275D01*
X145269737Y-99766503D01*
X145256062Y-99733489D01*
X145209397Y-99620827D01*
X145209390Y-99620814D01*
X145121789Y-99489711D01*
X145121786Y-99489707D01*
X145010292Y-99378213D01*
X145010288Y-99378210D01*
X144879185Y-99290609D01*
X144879172Y-99290602D01*
X144741247Y-99233473D01*
X144686843Y-99189633D01*
X144674139Y-99166368D01*
X144665084Y-99144505D01*
X144649254Y-99120814D01*
X144582954Y-99021588D01*
X144582953Y-99021587D01*
X144582951Y-99021584D01*
X144478416Y-98917049D01*
X142616418Y-97055051D01*
X140746071Y-95184703D01*
X140719191Y-95144475D01*
X140709394Y-95120821D01*
X140701493Y-95108996D01*
X140621789Y-94989710D01*
X140510292Y-94878213D01*
X140510288Y-94878210D01*
X140379185Y-94790609D01*
X140379172Y-94790602D01*
X140233501Y-94730264D01*
X140233489Y-94730261D01*
X140078845Y-94699500D01*
X140078842Y-94699500D01*
X139921158Y-94699500D01*
X139921155Y-94699500D01*
X139766510Y-94730261D01*
X139766498Y-94730264D01*
X139620827Y-94790602D01*
X139620814Y-94790609D01*
X139489711Y-94878210D01*
X139489707Y-94878213D01*
X139378213Y-94989707D01*
X139378210Y-94989711D01*
X139290609Y-95120814D01*
X139290602Y-95120827D01*
X139230264Y-95266498D01*
X139230261Y-95266510D01*
X139199500Y-95421153D01*
X138800499Y-95421153D01*
X138789862Y-95367677D01*
X138769737Y-95266503D01*
X138760552Y-95244328D01*
X138709397Y-95120827D01*
X138709390Y-95120814D01*
X138621789Y-94989711D01*
X138621786Y-94989707D01*
X138620885Y-94988806D01*
X138620563Y-94988217D01*
X138617924Y-94985001D01*
X138618533Y-94984500D01*
X138587400Y-94927483D01*
X138592384Y-94857791D01*
X138634256Y-94801858D01*
X138684372Y-94779508D01*
X138733497Y-94769737D01*
X138879179Y-94709394D01*
X139010289Y-94621789D01*
X139121789Y-94510289D01*
X139209394Y-94379179D01*
X139269737Y-94233497D01*
X139300500Y-94078842D01*
X139300500Y-93921158D01*
X139300500Y-93921155D01*
X139300499Y-93921153D01*
X139269738Y-93766510D01*
X139269737Y-93766503D01*
X139269735Y-93766498D01*
X139209397Y-93620827D01*
X139209390Y-93620814D01*
X139121789Y-93489711D01*
X139121786Y-93489707D01*
X139010292Y-93378213D01*
X139010288Y-93378210D01*
X138879185Y-93290609D01*
X138879172Y-93290602D01*
X138733501Y-93230264D01*
X138733489Y-93230261D01*
X138578845Y-93199500D01*
X138578842Y-93199500D01*
X138421158Y-93199500D01*
X138421155Y-93199500D01*
X138266511Y-93230260D01*
X138266506Y-93230262D01*
X138266504Y-93230262D01*
X138266503Y-93230263D01*
X138242844Y-93240062D01*
X138195396Y-93249500D01*
X123804604Y-93249500D01*
X123757155Y-93240062D01*
X123733497Y-93230263D01*
X123733493Y-93230262D01*
X123733488Y-93230260D01*
X123578845Y-93199500D01*
X123578842Y-93199500D01*
X123421158Y-93199500D01*
X123421155Y-93199500D01*
X123266510Y-93230261D01*
X123266498Y-93230264D01*
X123120827Y-93290602D01*
X123120814Y-93290609D01*
X122989711Y-93378210D01*
X122989707Y-93378213D01*
X122878213Y-93489707D01*
X122878210Y-93489711D01*
X122790609Y-93620814D01*
X122790602Y-93620827D01*
X122730264Y-93766498D01*
X122730261Y-93766510D01*
X122699500Y-93921153D01*
X117500500Y-93921153D01*
X117500500Y-82971153D01*
X118749500Y-82971153D01*
X118749500Y-83128846D01*
X118780261Y-83283489D01*
X118780264Y-83283501D01*
X118840602Y-83429172D01*
X118840609Y-83429185D01*
X118928210Y-83560288D01*
X118928213Y-83560292D01*
X119039707Y-83671786D01*
X119039711Y-83671789D01*
X119170814Y-83759390D01*
X119170827Y-83759397D01*
X119269104Y-83800104D01*
X119316503Y-83819737D01*
X119471153Y-83850499D01*
X119471156Y-83850500D01*
X119471158Y-83850500D01*
X119628844Y-83850500D01*
X119628845Y-83850499D01*
X119783497Y-83819737D01*
X119929179Y-83759394D01*
X120060289Y-83671789D01*
X120171789Y-83560289D01*
X120259394Y-83429179D01*
X120319737Y-83283497D01*
X120350500Y-83128842D01*
X120350500Y-82971158D01*
X120350500Y-82971155D01*
X120350499Y-82971153D01*
X120331629Y-82876287D01*
X120319737Y-82816503D01*
X120287929Y-82739711D01*
X120259397Y-82670827D01*
X120259390Y-82670814D01*
X120171789Y-82539711D01*
X120171786Y-82539707D01*
X120060292Y-82428213D01*
X120060288Y-82428210D01*
X119929185Y-82340609D01*
X119929172Y-82340602D01*
X119783501Y-82280264D01*
X119783489Y-82280261D01*
X119628845Y-82249500D01*
X119628842Y-82249500D01*
X119471158Y-82249500D01*
X119471155Y-82249500D01*
X119316510Y-82280261D01*
X119316498Y-82280264D01*
X119170827Y-82340602D01*
X119170814Y-82340609D01*
X119039711Y-82428210D01*
X119039707Y-82428213D01*
X118928213Y-82539707D01*
X118928210Y-82539711D01*
X118840609Y-82670814D01*
X118840602Y-82670827D01*
X118780264Y-82816498D01*
X118780261Y-82816510D01*
X118749500Y-82971153D01*
X117500500Y-82971153D01*
X117500500Y-79548097D01*
X117520185Y-79481058D01*
X117572989Y-79435303D01*
X117642147Y-79425359D01*
X117705703Y-79454384D01*
X117712181Y-79460416D01*
X119515139Y-81263374D01*
X119515149Y-81263385D01*
X119519479Y-81267715D01*
X119519480Y-81267716D01*
X119631284Y-81379520D01*
X119631286Y-81379521D01*
X119631290Y-81379524D01*
X119768209Y-81458573D01*
X119768216Y-81458577D01*
X119850109Y-81480520D01*
X119920942Y-81499500D01*
X119920943Y-81499500D01*
X123081954Y-81499500D01*
X123148993Y-81519185D01*
X123194748Y-81571989D01*
X123203571Y-81599309D01*
X123230261Y-81733489D01*
X123230264Y-81733501D01*
X123290602Y-81879172D01*
X123290609Y-81879185D01*
X123378210Y-82010288D01*
X123378213Y-82010292D01*
X123489707Y-82121786D01*
X123489711Y-82121789D01*
X123620814Y-82209390D01*
X123620827Y-82209397D01*
X123758683Y-82266498D01*
X123766503Y-82269737D01*
X123889974Y-82294297D01*
X123921153Y-82300499D01*
X123921156Y-82300500D01*
X123921158Y-82300500D01*
X124078844Y-82300500D01*
X124078845Y-82300499D01*
X124233497Y-82269737D01*
X124379179Y-82209394D01*
X124510289Y-82121789D01*
X124621789Y-82010289D01*
X124709394Y-81879179D01*
X124769737Y-81733497D01*
X124793159Y-81615747D01*
X124796429Y-81599309D01*
X124828814Y-81537398D01*
X124889529Y-81502824D01*
X124918046Y-81499500D01*
X125681860Y-81499500D01*
X125711300Y-81508144D01*
X125741287Y-81514668D01*
X125746302Y-81518422D01*
X125748899Y-81519185D01*
X125769541Y-81535819D01*
X125898099Y-81664377D01*
X125898109Y-81664388D01*
X125902439Y-81668718D01*
X125902440Y-81668719D01*
X126014244Y-81780523D01*
X126065805Y-81810291D01*
X126101055Y-81830642D01*
X126101057Y-81830644D01*
X126139111Y-81852614D01*
X126151175Y-81859580D01*
X126303903Y-81900504D01*
X126303906Y-81900504D01*
X126469613Y-81900504D01*
X126469629Y-81900503D01*
X128420234Y-81900503D01*
X128487273Y-81920188D01*
X128489125Y-81921401D01*
X128620814Y-82009393D01*
X128620827Y-82009400D01*
X128748249Y-82062179D01*
X128766503Y-82069740D01*
X128921153Y-82100502D01*
X128921156Y-82100503D01*
X128921158Y-82100503D01*
X129078844Y-82100503D01*
X129078845Y-82100502D01*
X129233497Y-82069740D01*
X129379179Y-82009397D01*
X129510289Y-81921792D01*
X129621789Y-81810292D01*
X129709394Y-81679182D01*
X129769737Y-81533500D01*
X129800500Y-81378845D01*
X129800500Y-81221161D01*
X129800500Y-81221158D01*
X129800499Y-81221156D01*
X129798159Y-81209390D01*
X129769737Y-81066506D01*
X129720423Y-80947452D01*
X129712955Y-80877984D01*
X129720421Y-80852554D01*
X129769737Y-80733497D01*
X129800500Y-80578842D01*
X129800500Y-80421158D01*
X129800500Y-80421155D01*
X129800499Y-80421153D01*
X129783618Y-80336286D01*
X129769737Y-80266503D01*
X129728540Y-80167044D01*
X129709397Y-80120827D01*
X129709390Y-80120814D01*
X129621789Y-79989711D01*
X129621786Y-79989707D01*
X129510292Y-79878213D01*
X129510288Y-79878210D01*
X129379185Y-79790609D01*
X129379172Y-79790602D01*
X129233501Y-79730264D01*
X129233489Y-79730261D01*
X129078845Y-79699500D01*
X129078842Y-79699500D01*
X128921158Y-79699500D01*
X128921155Y-79699500D01*
X128766510Y-79730261D01*
X128766498Y-79730264D01*
X128620827Y-79790602D01*
X128620814Y-79790609D01*
X128492119Y-79876602D01*
X128425442Y-79897480D01*
X128423228Y-79897500D01*
X120466198Y-79897500D01*
X120399159Y-79877815D01*
X120378517Y-79861181D01*
X118638819Y-78121483D01*
X118605334Y-78060160D01*
X118602500Y-78033802D01*
X118602500Y-63300097D01*
X118622185Y-63233058D01*
X118638819Y-63212416D01*
X118834416Y-63016819D01*
X118895739Y-62983334D01*
X118922097Y-62980500D01*
X120214281Y-62980500D01*
X120281320Y-63000185D01*
X120324765Y-63048205D01*
X120344947Y-63087814D01*
X120344948Y-63087815D01*
X120469890Y-63259786D01*
X120620213Y-63410109D01*
X120792182Y-63535050D01*
X120800946Y-63539516D01*
X120851742Y-63587491D01*
X120868536Y-63655312D01*
X120845998Y-63721447D01*
X120800946Y-63760484D01*
X120792182Y-63764949D01*
X120620213Y-63889890D01*
X120469890Y-64040213D01*
X120344951Y-64212179D01*
X120248444Y-64401585D01*
X120182753Y-64603760D01*
X120149500Y-64813713D01*
X120149500Y-65026287D01*
X120156440Y-65070104D01*
X120182753Y-65236239D01*
X120182753Y-65236241D01*
X120182754Y-65236243D01*
X120244069Y-65424951D01*
X120248444Y-65438414D01*
X120344951Y-65627820D01*
X120469890Y-65799786D01*
X120620213Y-65950109D01*
X120792182Y-66075050D01*
X120800946Y-66079516D01*
X120851742Y-66127491D01*
X120868536Y-66195312D01*
X120845998Y-66261447D01*
X120800946Y-66300484D01*
X120792182Y-66304949D01*
X120620213Y-66429890D01*
X120469890Y-66580213D01*
X120344951Y-66752179D01*
X120248444Y-66941585D01*
X120182753Y-67143760D01*
X120149805Y-67351785D01*
X120149500Y-67353713D01*
X120149500Y-67566287D01*
X120154922Y-67600520D01*
X120182753Y-67776239D01*
X120182753Y-67776241D01*
X120182754Y-67776243D01*
X120244069Y-67964951D01*
X120248444Y-67978414D01*
X120344951Y-68167820D01*
X120469890Y-68339786D01*
X120620213Y-68490109D01*
X120792182Y-68615050D01*
X120800946Y-68619516D01*
X120851742Y-68667491D01*
X120868536Y-68735312D01*
X120845998Y-68801447D01*
X120800946Y-68840484D01*
X120792182Y-68844949D01*
X120620213Y-68969890D01*
X120469890Y-69120213D01*
X120344951Y-69292179D01*
X120248444Y-69481585D01*
X120182753Y-69683760D01*
X120149762Y-69892058D01*
X120149500Y-69893713D01*
X120149500Y-70106287D01*
X120156440Y-70150104D01*
X120170707Y-70240185D01*
X120182754Y-70316243D01*
X120232875Y-70470500D01*
X120248444Y-70518414D01*
X120344951Y-70707820D01*
X120469890Y-70879786D01*
X120620213Y-71030109D01*
X120792182Y-71155050D01*
X120800946Y-71159516D01*
X120851742Y-71207491D01*
X120868536Y-71275312D01*
X120845998Y-71341447D01*
X120800946Y-71380484D01*
X120792182Y-71384949D01*
X120620213Y-71509890D01*
X120469890Y-71660213D01*
X120344951Y-71832179D01*
X120248444Y-72021585D01*
X120182753Y-72223760D01*
X120172262Y-72290000D01*
X120149500Y-72433713D01*
X120149500Y-72646287D01*
X120157726Y-72698226D01*
X120174608Y-72804815D01*
X120182754Y-72856243D01*
X120232806Y-73010288D01*
X120248444Y-73058414D01*
X120344951Y-73247820D01*
X120469890Y-73419786D01*
X120620213Y-73570109D01*
X120792179Y-73695048D01*
X120792181Y-73695049D01*
X120792184Y-73695051D01*
X120981588Y-73791557D01*
X121183757Y-73857246D01*
X121393713Y-73890500D01*
X121393714Y-73890500D01*
X121606286Y-73890500D01*
X121606287Y-73890500D01*
X121816243Y-73857246D01*
X122018412Y-73791557D01*
X122207816Y-73695051D01*
X122294478Y-73632088D01*
X122379784Y-73570110D01*
X122379784Y-73570109D01*
X122379792Y-73570104D01*
X122493717Y-73456178D01*
X122555036Y-73422696D01*
X122624728Y-73427680D01*
X122680662Y-73469551D01*
X122697577Y-73500528D01*
X122746646Y-73632088D01*
X122746649Y-73632093D01*
X122832809Y-73747187D01*
X122832812Y-73747190D01*
X122947906Y-73833350D01*
X122947913Y-73833354D01*
X123082620Y-73883596D01*
X123082627Y-73883598D01*
X123142155Y-73889999D01*
X123142172Y-73890000D01*
X123790000Y-73890000D01*
X123790000Y-72973012D01*
X123847007Y-73005925D01*
X123974174Y-73040000D01*
X124105826Y-73040000D01*
X124232993Y-73005925D01*
X124290000Y-72973012D01*
X124290000Y-73890000D01*
X124937828Y-73890000D01*
X124937844Y-73889999D01*
X124997372Y-73883598D01*
X124997379Y-73883596D01*
X125132086Y-73833354D01*
X125132093Y-73833350D01*
X125247187Y-73747190D01*
X125247190Y-73747187D01*
X125333350Y-73632093D01*
X125333354Y-73632086D01*
X125383596Y-73497379D01*
X125383598Y-73497372D01*
X125389999Y-73437844D01*
X125390000Y-73437827D01*
X125390000Y-72790000D01*
X124473012Y-72790000D01*
X124505925Y-72732993D01*
X124540000Y-72605826D01*
X124540000Y-72474174D01*
X124505925Y-72347007D01*
X124473012Y-72290000D01*
X125390000Y-72290000D01*
X125390000Y-71875500D01*
X125409685Y-71808461D01*
X125462489Y-71762706D01*
X125514000Y-71751500D01*
X126350903Y-71751500D01*
X126417942Y-71771185D01*
X126438584Y-71787819D01*
X127165425Y-72514660D01*
X127198910Y-72575983D01*
X127199361Y-72578149D01*
X127230261Y-72733491D01*
X127230264Y-72733501D01*
X127290602Y-72879172D01*
X127290609Y-72879185D01*
X127378210Y-73010288D01*
X127378213Y-73010292D01*
X127489707Y-73121786D01*
X127489711Y-73121789D01*
X127620814Y-73209390D01*
X127620827Y-73209397D01*
X127713590Y-73247820D01*
X127766503Y-73269737D01*
X127921153Y-73300499D01*
X127921156Y-73300500D01*
X128050902Y-73300500D01*
X128117941Y-73320185D01*
X128163696Y-73372989D01*
X128173640Y-73442147D01*
X128144615Y-73505703D01*
X128138583Y-73512181D01*
X124985339Y-76665425D01*
X124924016Y-76698910D01*
X124921850Y-76699361D01*
X124766508Y-76730261D01*
X124766498Y-76730264D01*
X124620827Y-76790602D01*
X124620814Y-76790609D01*
X124489711Y-76878210D01*
X124489707Y-76878213D01*
X124378213Y-76989707D01*
X124378210Y-76989711D01*
X124290609Y-77120814D01*
X124290602Y-77120827D01*
X124230264Y-77266498D01*
X124230261Y-77266510D01*
X124199500Y-77421153D01*
X124199500Y-77578846D01*
X124230261Y-77733489D01*
X124230264Y-77733501D01*
X124290602Y-77879172D01*
X124290609Y-77879185D01*
X124378210Y-78010288D01*
X124378213Y-78010292D01*
X124489707Y-78121786D01*
X124489711Y-78121789D01*
X124620814Y-78209390D01*
X124620827Y-78209397D01*
X124756450Y-78265573D01*
X124766503Y-78269737D01*
X124886736Y-78293653D01*
X124921153Y-78300499D01*
X124921156Y-78300500D01*
X124921158Y-78300500D01*
X125078843Y-78300500D01*
X125095304Y-78297225D01*
X125144568Y-78287426D01*
X125214158Y-78293653D01*
X125269336Y-78336515D01*
X125283320Y-78361589D01*
X125290606Y-78379179D01*
X125290609Y-78379185D01*
X125378210Y-78510288D01*
X125378213Y-78510292D01*
X125489707Y-78621786D01*
X125489711Y-78621789D01*
X125620814Y-78709390D01*
X125620827Y-78709397D01*
X125758683Y-78766498D01*
X125766503Y-78769737D01*
X125921153Y-78800499D01*
X125921156Y-78800500D01*
X125921158Y-78800500D01*
X126078844Y-78800500D01*
X126078845Y-78800499D01*
X126233497Y-78769737D01*
X126379179Y-78709394D01*
X126510289Y-78621789D01*
X126621789Y-78510289D01*
X126709394Y-78379179D01*
X126769737Y-78233497D01*
X126792018Y-78121483D01*
X126800638Y-78078150D01*
X126833023Y-78016239D01*
X126834518Y-78014716D01*
X130799056Y-74050179D01*
X130860379Y-74016694D01*
X130886737Y-74013860D01*
X137665556Y-74013860D01*
X137732595Y-74033545D01*
X137778350Y-74086349D01*
X137788294Y-74155507D01*
X137759269Y-74219063D01*
X137713008Y-74252421D01*
X137620827Y-74290602D01*
X137620814Y-74290609D01*
X137489711Y-74378210D01*
X137489707Y-74378213D01*
X137378213Y-74489707D01*
X137378207Y-74489715D01*
X137290607Y-74620818D01*
X137290606Y-74620819D01*
X137280805Y-74644480D01*
X137253927Y-74684703D01*
X129475451Y-82463181D01*
X129414128Y-82496666D01*
X129387770Y-82499500D01*
X126574604Y-82499500D01*
X126527155Y-82490062D01*
X126503497Y-82480263D01*
X126503493Y-82480262D01*
X126503488Y-82480260D01*
X126348845Y-82449500D01*
X126348842Y-82449500D01*
X126191158Y-82449500D01*
X126191155Y-82449500D01*
X126036510Y-82480261D01*
X126036498Y-82480264D01*
X125890827Y-82540602D01*
X125890814Y-82540609D01*
X125759711Y-82628210D01*
X125759707Y-82628213D01*
X125648213Y-82739707D01*
X125648210Y-82739711D01*
X125560609Y-82870814D01*
X125560602Y-82870827D01*
X125500264Y-83016498D01*
X125500261Y-83016510D01*
X125469500Y-83171153D01*
X125469500Y-83328846D01*
X125500261Y-83483489D01*
X125500264Y-83483501D01*
X125560602Y-83629172D01*
X125560609Y-83629185D01*
X125648210Y-83760288D01*
X125648213Y-83760292D01*
X125759707Y-83871786D01*
X125759711Y-83871789D01*
X125890814Y-83959390D01*
X125890827Y-83959397D01*
X125990060Y-84000500D01*
X126036503Y-84019737D01*
X126191153Y-84050499D01*
X126191156Y-84050500D01*
X126191158Y-84050500D01*
X126348844Y-84050500D01*
X126348845Y-84050499D01*
X126428314Y-84034692D01*
X126503488Y-84019739D01*
X126503489Y-84019738D01*
X126503497Y-84019737D01*
X126527155Y-84009937D01*
X126574604Y-84000500D01*
X129426082Y-84000500D01*
X129676083Y-84000500D01*
X129823917Y-84000500D01*
X135695396Y-84000500D01*
X135742844Y-84009937D01*
X135766503Y-84019737D01*
X135766508Y-84019738D01*
X135766511Y-84019739D01*
X135921153Y-84050499D01*
X135921156Y-84050500D01*
X135921158Y-84050500D01*
X136078844Y-84050500D01*
X136078845Y-84050499D01*
X136158314Y-84034692D01*
X136233488Y-84019739D01*
X136233489Y-84019738D01*
X136233497Y-84019737D01*
X136257155Y-84009937D01*
X136304604Y-84000500D01*
X139323920Y-84000500D01*
X139439589Y-83977491D01*
X139468913Y-83971658D01*
X139605495Y-83915084D01*
X139670291Y-83871789D01*
X139670294Y-83871786D01*
X139670296Y-83871786D01*
X139702154Y-83850499D01*
X139728416Y-83832952D01*
X142024549Y-81536819D01*
X142085872Y-81503334D01*
X142112230Y-81500500D01*
X151323920Y-81500500D01*
X151424367Y-81480519D01*
X151468913Y-81471658D01*
X151605495Y-81415084D01*
X151728416Y-81332951D01*
X151815296Y-81246069D01*
X151855523Y-81219192D01*
X151879179Y-81209394D01*
X152010289Y-81121789D01*
X152121789Y-81010289D01*
X152209394Y-80879179D01*
X152269737Y-80733497D01*
X152300500Y-80578842D01*
X152300500Y-80421158D01*
X152300500Y-80421155D01*
X152300499Y-80421153D01*
X155249500Y-80421153D01*
X155249500Y-80578846D01*
X155280261Y-80733489D01*
X155280264Y-80733501D01*
X155340602Y-80879172D01*
X155340609Y-80879185D01*
X155428210Y-81010288D01*
X155428213Y-81010292D01*
X155539707Y-81121786D01*
X155539711Y-81121789D01*
X155670814Y-81209390D01*
X155670827Y-81209397D01*
X155811624Y-81267716D01*
X155816503Y-81269737D01*
X155971153Y-81300499D01*
X155971156Y-81300500D01*
X155971158Y-81300500D01*
X156128844Y-81300500D01*
X156128845Y-81300499D01*
X156283497Y-81269737D01*
X156429179Y-81209394D01*
X156560289Y-81121789D01*
X156671789Y-81010289D01*
X156759394Y-80879179D01*
X156819737Y-80733497D01*
X156850500Y-80578842D01*
X156850500Y-80421158D01*
X156850500Y-80421155D01*
X156850499Y-80421153D01*
X165199500Y-80421153D01*
X165199500Y-80578846D01*
X165230261Y-80733489D01*
X165230264Y-80733501D01*
X165290602Y-80879172D01*
X165290609Y-80879185D01*
X165378210Y-81010288D01*
X165378213Y-81010292D01*
X165489707Y-81121786D01*
X165489711Y-81121789D01*
X165620814Y-81209390D01*
X165620827Y-81209397D01*
X165761624Y-81267716D01*
X165766503Y-81269737D01*
X165921153Y-81300499D01*
X165921156Y-81300500D01*
X165921158Y-81300500D01*
X166078844Y-81300500D01*
X166078845Y-81300499D01*
X166233497Y-81269737D01*
X166379179Y-81209394D01*
X166510289Y-81121789D01*
X166621789Y-81010289D01*
X166709394Y-80879179D01*
X166769737Y-80733497D01*
X166800500Y-80578842D01*
X166800500Y-80421158D01*
X166800500Y-80421155D01*
X166800499Y-80421153D01*
X166783618Y-80336286D01*
X166769737Y-80266503D01*
X166728540Y-80167044D01*
X166709397Y-80120827D01*
X166709390Y-80120814D01*
X166621789Y-79989711D01*
X166621786Y-79989707D01*
X166510292Y-79878213D01*
X166510288Y-79878210D01*
X166424897Y-79821153D01*
X169699500Y-79821153D01*
X169699500Y-79978846D01*
X169730261Y-80133489D01*
X169730264Y-80133501D01*
X169790602Y-80279172D01*
X169790609Y-80279185D01*
X169878210Y-80410288D01*
X169878213Y-80410292D01*
X169989707Y-80521786D01*
X169989711Y-80521789D01*
X170120814Y-80609390D01*
X170120827Y-80609397D01*
X170266498Y-80669735D01*
X170266503Y-80669737D01*
X170416131Y-80699500D01*
X170421153Y-80700499D01*
X170421156Y-80700500D01*
X170421158Y-80700500D01*
X170578844Y-80700500D01*
X170578845Y-80700499D01*
X170733497Y-80669737D01*
X170879179Y-80609394D01*
X171010289Y-80521789D01*
X171121789Y-80410289D01*
X171209394Y-80279179D01*
X171269737Y-80133497D01*
X171300500Y-79978842D01*
X171300500Y-79821158D01*
X171300500Y-79821155D01*
X171300499Y-79821153D01*
X171290272Y-79769737D01*
X171269737Y-79666503D01*
X171251215Y-79621786D01*
X171209397Y-79520827D01*
X171209390Y-79520814D01*
X171121789Y-79389711D01*
X171121786Y-79389707D01*
X171010292Y-79278213D01*
X171010288Y-79278210D01*
X170879185Y-79190609D01*
X170879172Y-79190602D01*
X170733501Y-79130264D01*
X170733489Y-79130261D01*
X170578845Y-79099500D01*
X170578842Y-79099500D01*
X170421158Y-79099500D01*
X170421155Y-79099500D01*
X170266510Y-79130261D01*
X170266498Y-79130264D01*
X170120827Y-79190602D01*
X170120814Y-79190609D01*
X169989711Y-79278210D01*
X169989707Y-79278213D01*
X169878213Y-79389707D01*
X169878210Y-79389711D01*
X169790609Y-79520814D01*
X169790602Y-79520827D01*
X169730264Y-79666498D01*
X169730261Y-79666510D01*
X169699500Y-79821153D01*
X166424897Y-79821153D01*
X166379185Y-79790609D01*
X166379172Y-79790602D01*
X166233501Y-79730264D01*
X166233489Y-79730261D01*
X166078845Y-79699500D01*
X166078842Y-79699500D01*
X165921158Y-79699500D01*
X165921155Y-79699500D01*
X165766510Y-79730261D01*
X165766498Y-79730264D01*
X165620827Y-79790602D01*
X165620814Y-79790609D01*
X165489711Y-79878210D01*
X165489707Y-79878213D01*
X165378213Y-79989707D01*
X165378210Y-79989711D01*
X165290609Y-80120814D01*
X165290602Y-80120827D01*
X165230264Y-80266498D01*
X165230261Y-80266510D01*
X165199500Y-80421153D01*
X156850499Y-80421153D01*
X156833618Y-80336286D01*
X156819737Y-80266503D01*
X156778540Y-80167044D01*
X156759397Y-80120827D01*
X156759390Y-80120814D01*
X156671789Y-79989711D01*
X156671786Y-79989707D01*
X156560292Y-79878213D01*
X156560288Y-79878210D01*
X156429185Y-79790609D01*
X156429172Y-79790602D01*
X156283501Y-79730264D01*
X156283489Y-79730261D01*
X156128845Y-79699500D01*
X156128842Y-79699500D01*
X155971158Y-79699500D01*
X155971155Y-79699500D01*
X155816510Y-79730261D01*
X155816498Y-79730264D01*
X155670827Y-79790602D01*
X155670814Y-79790609D01*
X155539711Y-79878210D01*
X155539707Y-79878213D01*
X155428213Y-79989707D01*
X155428210Y-79989711D01*
X155340609Y-80120814D01*
X155340602Y-80120827D01*
X155280264Y-80266498D01*
X155280261Y-80266510D01*
X155249500Y-80421153D01*
X152300499Y-80421153D01*
X152283618Y-80336286D01*
X152269737Y-80266503D01*
X152228540Y-80167044D01*
X152209397Y-80120827D01*
X152209390Y-80120814D01*
X152121789Y-79989711D01*
X152121786Y-79989707D01*
X152010292Y-79878213D01*
X152010288Y-79878210D01*
X151879185Y-79790609D01*
X151879172Y-79790602D01*
X151733501Y-79730264D01*
X151733489Y-79730261D01*
X151578845Y-79699500D01*
X151578842Y-79699500D01*
X151421158Y-79699500D01*
X151421155Y-79699500D01*
X151266510Y-79730261D01*
X151266498Y-79730264D01*
X151120827Y-79790602D01*
X151120814Y-79790609D01*
X150989712Y-79878209D01*
X150959189Y-79908733D01*
X150904739Y-79963182D01*
X150843419Y-79996666D01*
X150817060Y-79999500D01*
X144802190Y-79999500D01*
X144735151Y-79979815D01*
X144689396Y-79927011D01*
X144679452Y-79857853D01*
X144708477Y-79794297D01*
X144754738Y-79760939D01*
X144879172Y-79709397D01*
X144879172Y-79709396D01*
X144879179Y-79709394D01*
X145010289Y-79621789D01*
X145121789Y-79510289D01*
X145209394Y-79379179D01*
X145269737Y-79233497D01*
X145300500Y-79078842D01*
X145300500Y-78921158D01*
X145300500Y-78921155D01*
X145300499Y-78921153D01*
X145285361Y-78845050D01*
X145269737Y-78766503D01*
X145209794Y-78621786D01*
X145209397Y-78620827D01*
X145209390Y-78620814D01*
X145121398Y-78489125D01*
X145100520Y-78422447D01*
X145100500Y-78420234D01*
X145100500Y-74593125D01*
X145120185Y-74526086D01*
X145121398Y-74524234D01*
X145130717Y-74510288D01*
X145209394Y-74392539D01*
X145269737Y-74246857D01*
X145280104Y-74194738D01*
X145296231Y-74113668D01*
X145328616Y-74051757D01*
X145389332Y-74017183D01*
X145417848Y-74013860D01*
X158300763Y-74013860D01*
X158367802Y-74033545D01*
X158388444Y-74050179D01*
X159215425Y-74877160D01*
X159248910Y-74938483D01*
X159249361Y-74940649D01*
X159280261Y-75095991D01*
X159280264Y-75096001D01*
X159340602Y-75241672D01*
X159340609Y-75241685D01*
X159428210Y-75372788D01*
X159428213Y-75372792D01*
X159539707Y-75484286D01*
X159539711Y-75484289D01*
X159670814Y-75571890D01*
X159670827Y-75571897D01*
X159791272Y-75621786D01*
X159816503Y-75632237D01*
X159971153Y-75662999D01*
X159971156Y-75663000D01*
X159971158Y-75663000D01*
X160128844Y-75663000D01*
X160128845Y-75662999D01*
X160283497Y-75632237D01*
X160429179Y-75571894D01*
X160560289Y-75484289D01*
X160671789Y-75372789D01*
X160759394Y-75241679D01*
X160819737Y-75095997D01*
X160850500Y-74941342D01*
X160850500Y-74783658D01*
X160850500Y-74783655D01*
X160850499Y-74783653D01*
X160847731Y-74769737D01*
X160819737Y-74629003D01*
X160816748Y-74621786D01*
X160759397Y-74483327D01*
X160759390Y-74483314D01*
X160671789Y-74352211D01*
X160671786Y-74352207D01*
X160560292Y-74240713D01*
X160560288Y-74240710D01*
X160429185Y-74153109D01*
X160429172Y-74153102D01*
X160283501Y-74092764D01*
X160283491Y-74092761D01*
X160128149Y-74061861D01*
X160066238Y-74029476D01*
X160064660Y-74027925D01*
X159848916Y-73812181D01*
X159815431Y-73750858D01*
X159820415Y-73681166D01*
X159862287Y-73625233D01*
X159927751Y-73600816D01*
X159936597Y-73600500D01*
X161290903Y-73600500D01*
X161357942Y-73620185D01*
X161378584Y-73636819D01*
X162756425Y-75014660D01*
X162789910Y-75075983D01*
X162790361Y-75078149D01*
X162821261Y-75233491D01*
X162821264Y-75233501D01*
X162881602Y-75379172D01*
X162881609Y-75379185D01*
X162969210Y-75510288D01*
X162969213Y-75510292D01*
X163080707Y-75621786D01*
X163080711Y-75621789D01*
X163211814Y-75709390D01*
X163211827Y-75709397D01*
X163357498Y-75769735D01*
X163357503Y-75769737D01*
X163512153Y-75800499D01*
X163512156Y-75800500D01*
X163512158Y-75800500D01*
X163669844Y-75800500D01*
X163669845Y-75800499D01*
X163824497Y-75769737D01*
X163970179Y-75709394D01*
X164101289Y-75621789D01*
X164212789Y-75510289D01*
X164300394Y-75379179D01*
X164360737Y-75233497D01*
X164391500Y-75078842D01*
X164391500Y-75009097D01*
X164411185Y-74942058D01*
X164427819Y-74921416D01*
X172470063Y-66879172D01*
X180514662Y-58834572D01*
X180575983Y-58801089D01*
X180578150Y-58800638D01*
X180636085Y-58789113D01*
X180733497Y-58769737D01*
X180873882Y-58711588D01*
X180879172Y-58709397D01*
X180879172Y-58709396D01*
X180879179Y-58709394D01*
X181010289Y-58621789D01*
X181121789Y-58510289D01*
X181209394Y-58379179D01*
X181214061Y-58367913D01*
X181241984Y-58300499D01*
X181269737Y-58233497D01*
X181300500Y-58078842D01*
X181300500Y-57921158D01*
X181300500Y-57921155D01*
X181300499Y-57921153D01*
X181290276Y-57869758D01*
X181269737Y-57766503D01*
X181247722Y-57713354D01*
X181209397Y-57620827D01*
X181209390Y-57620814D01*
X181121789Y-57489711D01*
X181121786Y-57489707D01*
X181010292Y-57378213D01*
X181010288Y-57378210D01*
X180994412Y-57367602D01*
X180949607Y-57313990D01*
X180940900Y-57244665D01*
X180971054Y-57181638D01*
X181030497Y-57144918D01*
X181063303Y-57140500D01*
X181699903Y-57140500D01*
X181766942Y-57160185D01*
G37*
%TD.AperFunction*%
%TA.AperFunction,Conductor*%
G36*
X139149191Y-74033545D02*
G01*
X139194946Y-74086349D01*
X139203769Y-74113668D01*
X139230261Y-74246851D01*
X139230264Y-74246861D01*
X139290602Y-74392532D01*
X139290609Y-74392545D01*
X139378602Y-74524234D01*
X139384252Y-74542280D01*
X139394477Y-74558190D01*
X139398928Y-74589149D01*
X139399480Y-74590911D01*
X139399500Y-74593125D01*
X139399500Y-74699903D01*
X139379815Y-74766942D01*
X139363181Y-74787584D01*
X139012181Y-75138584D01*
X138950858Y-75172069D01*
X138881166Y-75167085D01*
X138825233Y-75125213D01*
X138800816Y-75059749D01*
X138800500Y-75050903D01*
X138800500Y-74921155D01*
X138800499Y-74921153D01*
X138773149Y-74783658D01*
X138769737Y-74766503D01*
X138735855Y-74684703D01*
X138709397Y-74620827D01*
X138709390Y-74620814D01*
X138621789Y-74489711D01*
X138621786Y-74489707D01*
X138510292Y-74378213D01*
X138510288Y-74378210D01*
X138379185Y-74290609D01*
X138379172Y-74290602D01*
X138286992Y-74252421D01*
X138232588Y-74208581D01*
X138210523Y-74142287D01*
X138227802Y-74074587D01*
X138278939Y-74026976D01*
X138334444Y-74013860D01*
X139082152Y-74013860D01*
X139149191Y-74033545D01*
G37*
%TD.AperFunction*%
%TA.AperFunction,Conductor*%
G36*
X187003736Y-52000726D02*
G01*
X187293796Y-52018271D01*
X187308659Y-52020076D01*
X187590798Y-52071780D01*
X187605335Y-52075363D01*
X187879172Y-52160695D01*
X187893163Y-52166000D01*
X188154743Y-52283727D01*
X188167989Y-52290680D01*
X188413465Y-52439075D01*
X188425776Y-52447573D01*
X188535748Y-52533730D01*
X188651573Y-52624473D01*
X188662781Y-52634403D01*
X188865596Y-52837218D01*
X188875526Y-52848426D01*
X188995481Y-53001538D01*
X189052422Y-53074217D01*
X189060926Y-53086537D01*
X189201633Y-53319295D01*
X189209316Y-53332004D01*
X189216275Y-53345263D01*
X189333997Y-53606831D01*
X189339306Y-53620832D01*
X189424635Y-53894663D01*
X189428219Y-53909201D01*
X189479923Y-54191340D01*
X189481728Y-54206205D01*
X189499274Y-54496263D01*
X189499500Y-54503750D01*
X189499500Y-58270730D01*
X189479815Y-58337769D01*
X189427011Y-58383524D01*
X189357853Y-58393468D01*
X189294297Y-58364443D01*
X189276234Y-58345042D01*
X189207187Y-58252809D01*
X189092093Y-58166649D01*
X189092086Y-58166645D01*
X188957379Y-58116403D01*
X188957372Y-58116401D01*
X188897844Y-58110000D01*
X188250000Y-58110000D01*
X188250000Y-59026988D01*
X188192993Y-58994075D01*
X188065826Y-58960000D01*
X187934174Y-58960000D01*
X187807007Y-58994075D01*
X187750000Y-59026988D01*
X187750000Y-58110000D01*
X187102155Y-58110000D01*
X187042627Y-58116401D01*
X187042620Y-58116403D01*
X186907913Y-58166645D01*
X186907906Y-58166649D01*
X186792812Y-58252809D01*
X186792809Y-58252812D01*
X186706649Y-58367906D01*
X186706645Y-58367913D01*
X186656403Y-58502620D01*
X186656401Y-58502627D01*
X186650000Y-58562155D01*
X186650000Y-59210000D01*
X187566988Y-59210000D01*
X187534075Y-59267007D01*
X187500000Y-59394174D01*
X187500000Y-59525826D01*
X187534075Y-59652993D01*
X187566988Y-59710000D01*
X186650000Y-59710000D01*
X186650000Y-60357844D01*
X186656401Y-60417372D01*
X186656403Y-60417379D01*
X186706645Y-60552086D01*
X186706649Y-60552093D01*
X186792809Y-60667187D01*
X186792812Y-60667190D01*
X186907906Y-60753350D01*
X186907913Y-60753354D01*
X187039470Y-60802422D01*
X187095404Y-60844293D01*
X187119821Y-60909758D01*
X187104969Y-60978031D01*
X187083819Y-61006285D01*
X186969889Y-61120215D01*
X186844951Y-61292179D01*
X186748444Y-61481585D01*
X186682753Y-61683760D01*
X186660859Y-61821995D01*
X186649500Y-61893713D01*
X186649500Y-62106287D01*
X186682754Y-62316243D01*
X186735252Y-62477816D01*
X186748444Y-62518414D01*
X186844951Y-62707820D01*
X186969890Y-62879786D01*
X187120213Y-63030109D01*
X187292182Y-63155050D01*
X187300946Y-63159516D01*
X187351742Y-63207491D01*
X187368536Y-63275312D01*
X187345998Y-63341447D01*
X187300946Y-63380484D01*
X187292182Y-63384949D01*
X187120213Y-63509890D01*
X186969890Y-63660213D01*
X186844951Y-63832179D01*
X186748444Y-64021585D01*
X186682753Y-64223760D01*
X186672494Y-64288536D01*
X186649500Y-64433713D01*
X186649500Y-64646287D01*
X186682754Y-64856243D01*
X186735252Y-65017816D01*
X186748444Y-65058414D01*
X186844951Y-65247820D01*
X186969890Y-65419786D01*
X187120213Y-65570109D01*
X187292182Y-65695050D01*
X187300946Y-65699516D01*
X187351742Y-65747491D01*
X187368536Y-65815312D01*
X187345998Y-65881447D01*
X187300946Y-65920484D01*
X187292182Y-65924949D01*
X187120213Y-66049890D01*
X186969890Y-66200213D01*
X186844951Y-66372179D01*
X186748444Y-66561585D01*
X186682753Y-66763760D01*
X186649500Y-66973713D01*
X186649500Y-67120903D01*
X186629815Y-67187942D01*
X186577011Y-67233697D01*
X186507853Y-67243641D01*
X186444297Y-67214616D01*
X186437819Y-67208584D01*
X186136819Y-66907584D01*
X186103334Y-66846261D01*
X186100500Y-66819903D01*
X186100500Y-59960944D01*
X186100500Y-59960943D01*
X186100381Y-59960500D01*
X186084036Y-59899500D01*
X186059577Y-59808216D01*
X186059575Y-59808212D01*
X186059574Y-59808209D01*
X185980524Y-59671290D01*
X185980521Y-59671286D01*
X185980520Y-59671284D01*
X185868716Y-59559480D01*
X185868715Y-59559479D01*
X185864385Y-59555149D01*
X185864374Y-59555139D01*
X182487590Y-56178355D01*
X182487588Y-56178352D01*
X182368717Y-56059481D01*
X182368716Y-56059480D01*
X182274831Y-56005276D01*
X182231785Y-55980423D01*
X182079057Y-55939499D01*
X181920943Y-55939499D01*
X181913347Y-55939499D01*
X181913331Y-55939500D01*
X167039766Y-55939500D01*
X166972727Y-55919815D01*
X166970875Y-55918602D01*
X166839185Y-55830609D01*
X166839172Y-55830602D01*
X166693501Y-55770264D01*
X166693489Y-55770261D01*
X166538845Y-55739500D01*
X166538842Y-55739500D01*
X166381158Y-55739500D01*
X166381155Y-55739500D01*
X166226510Y-55770261D01*
X166226498Y-55770264D01*
X166080827Y-55830602D01*
X166080814Y-55830609D01*
X165949711Y-55918210D01*
X165949707Y-55918213D01*
X165838213Y-56029707D01*
X165838210Y-56029711D01*
X165750609Y-56160814D01*
X165750602Y-56160827D01*
X165690264Y-56306498D01*
X165690261Y-56306510D01*
X165659500Y-56461153D01*
X165659500Y-56618846D01*
X165690261Y-56773489D01*
X165690264Y-56773501D01*
X165750602Y-56919172D01*
X165750609Y-56919185D01*
X165838210Y-57050288D01*
X165838213Y-57050292D01*
X165949707Y-57161786D01*
X165949711Y-57161789D01*
X166080814Y-57249390D01*
X166080827Y-57249397D01*
X166159894Y-57282147D01*
X166226503Y-57309737D01*
X166381153Y-57340499D01*
X166381156Y-57340500D01*
X166381158Y-57340500D01*
X166538844Y-57340500D01*
X166538845Y-57340499D01*
X166693497Y-57309737D01*
X166839179Y-57249394D01*
X166913851Y-57199500D01*
X166970875Y-57161398D01*
X167037553Y-57140520D01*
X167039766Y-57140500D01*
X179936697Y-57140500D01*
X180003736Y-57160185D01*
X180049491Y-57212989D01*
X180059435Y-57282147D01*
X180030410Y-57345703D01*
X180005588Y-57367602D01*
X179989711Y-57378210D01*
X179989707Y-57378213D01*
X179878213Y-57489707D01*
X179878210Y-57489711D01*
X179790609Y-57620814D01*
X179790602Y-57620827D01*
X179730264Y-57766498D01*
X179730261Y-57766508D01*
X179699361Y-57921850D01*
X179666976Y-57983761D01*
X179665425Y-57985339D01*
X163633181Y-74017584D01*
X163571858Y-74051069D01*
X163502166Y-74046085D01*
X163457819Y-74017584D01*
X162078590Y-72638355D01*
X162078588Y-72638352D01*
X161959717Y-72519481D01*
X161959716Y-72519480D01*
X161870769Y-72468127D01*
X161822785Y-72440423D01*
X161670057Y-72399499D01*
X161511943Y-72399499D01*
X161504347Y-72399499D01*
X161504331Y-72399500D01*
X145386555Y-72399500D01*
X145319516Y-72379815D01*
X145273761Y-72327011D01*
X145263817Y-72257853D01*
X145268840Y-72239588D01*
X145267969Y-72239324D01*
X145269731Y-72233509D01*
X145269737Y-72233497D01*
X145300500Y-72078842D01*
X145300500Y-71921158D01*
X145300500Y-71921155D01*
X145300499Y-71921153D01*
X145278083Y-71808461D01*
X145269737Y-71766503D01*
X145217996Y-71641588D01*
X145209397Y-71620827D01*
X145209390Y-71620814D01*
X145121789Y-71489711D01*
X145121786Y-71489707D01*
X145010292Y-71378213D01*
X145010288Y-71378210D01*
X144879185Y-71290609D01*
X144879172Y-71290602D01*
X144733501Y-71230264D01*
X144733489Y-71230261D01*
X144578845Y-71199500D01*
X144578842Y-71199500D01*
X144421158Y-71199500D01*
X144421156Y-71199500D01*
X144415094Y-71200097D01*
X144415031Y-71199459D01*
X144401274Y-71200727D01*
X144385688Y-71200543D01*
X144378057Y-71198499D01*
X144219943Y-71198499D01*
X144219939Y-71198500D01*
X131219097Y-71198500D01*
X131152058Y-71178815D01*
X131131416Y-71162181D01*
X125373757Y-65404522D01*
X125340272Y-65343199D01*
X125343507Y-65278523D01*
X125357246Y-65236243D01*
X125390500Y-65026287D01*
X125390500Y-64813713D01*
X125357246Y-64603757D01*
X125291557Y-64401588D01*
X125195051Y-64212184D01*
X125195049Y-64212181D01*
X125195048Y-64212179D01*
X125070109Y-64040213D01*
X124919786Y-63889890D01*
X124747820Y-63764951D01*
X124747115Y-63764591D01*
X124739054Y-63760485D01*
X124688259Y-63712512D01*
X124671463Y-63644692D01*
X124693999Y-63578556D01*
X124739054Y-63539515D01*
X124747816Y-63535051D01*
X124782447Y-63509890D01*
X124919786Y-63410109D01*
X124919788Y-63410106D01*
X124919792Y-63410104D01*
X125070104Y-63259792D01*
X125070106Y-63259788D01*
X125070109Y-63259786D01*
X125195048Y-63087820D01*
X125195047Y-63087820D01*
X125195051Y-63087816D01*
X125291557Y-62898412D01*
X125357246Y-62696243D01*
X125390500Y-62486287D01*
X125390500Y-62273713D01*
X125357246Y-62063757D01*
X125291557Y-61861588D01*
X125195051Y-61672184D01*
X125195049Y-61672181D01*
X125195048Y-61672179D01*
X125070109Y-61500213D01*
X124919786Y-61349890D01*
X124747820Y-61224951D01*
X124747115Y-61224591D01*
X124739054Y-61220485D01*
X124688259Y-61172512D01*
X124671463Y-61104692D01*
X124693999Y-61038556D01*
X124739054Y-60999515D01*
X124747816Y-60995051D01*
X124865213Y-60909758D01*
X124919786Y-60870109D01*
X124919788Y-60870106D01*
X124919792Y-60870104D01*
X125070104Y-60719792D01*
X125070106Y-60719788D01*
X125070109Y-60719786D01*
X125195048Y-60547820D01*
X125195047Y-60547820D01*
X125195051Y-60547816D01*
X125291557Y-60358412D01*
X125357246Y-60156243D01*
X125390500Y-59946287D01*
X125390500Y-59733713D01*
X125357246Y-59523757D01*
X125291557Y-59321588D01*
X125195051Y-59132184D01*
X125195049Y-59132181D01*
X125195048Y-59132179D01*
X125070109Y-58960213D01*
X124963609Y-58853713D01*
X133649500Y-58853713D01*
X133649500Y-59066287D01*
X133682754Y-59276243D01*
X133739829Y-59451902D01*
X133748444Y-59478414D01*
X133844951Y-59667820D01*
X133969890Y-59839786D01*
X134120213Y-59990109D01*
X134292182Y-60115050D01*
X134300946Y-60119516D01*
X134351742Y-60167491D01*
X134368536Y-60235312D01*
X134345998Y-60301447D01*
X134300946Y-60340484D01*
X134292182Y-60344949D01*
X134120213Y-60469890D01*
X133969890Y-60620213D01*
X133844951Y-60792179D01*
X133748444Y-60981585D01*
X133682753Y-61183760D01*
X133649500Y-61393713D01*
X133649500Y-61606286D01*
X133673953Y-61760680D01*
X133682754Y-61816243D01*
X133726625Y-61951264D01*
X133748444Y-62018414D01*
X133844951Y-62207820D01*
X133969890Y-62379786D01*
X134120213Y-62530109D01*
X134292182Y-62655050D01*
X134300946Y-62659516D01*
X134351742Y-62707491D01*
X134368536Y-62775312D01*
X134345998Y-62841447D01*
X134300946Y-62880484D01*
X134292182Y-62884949D01*
X134120213Y-63009890D01*
X133969890Y-63160213D01*
X133844951Y-63332179D01*
X133748444Y-63521585D01*
X133682753Y-63723760D01*
X133656441Y-63889890D01*
X133649500Y-63933713D01*
X133649500Y-64146287D01*
X133682754Y-64356243D01*
X133715930Y-64458349D01*
X133748444Y-64558414D01*
X133844951Y-64747820D01*
X133969890Y-64919786D01*
X134120213Y-65070109D01*
X134292182Y-65195050D01*
X134300946Y-65199516D01*
X134351742Y-65247491D01*
X134368536Y-65315312D01*
X134345998Y-65381447D01*
X134300946Y-65420484D01*
X134292182Y-65424949D01*
X134120213Y-65549890D01*
X133969890Y-65700213D01*
X133844951Y-65872179D01*
X133748444Y-66061585D01*
X133682753Y-66263760D01*
X133649500Y-66473713D01*
X133649500Y-66686286D01*
X133674837Y-66846261D01*
X133682754Y-66896243D01*
X133727302Y-67033348D01*
X133748444Y-67098414D01*
X133844951Y-67287820D01*
X133969890Y-67459786D01*
X134120213Y-67610109D01*
X134292182Y-67735050D01*
X134300946Y-67739516D01*
X134351742Y-67787491D01*
X134368536Y-67855312D01*
X134345998Y-67921447D01*
X134300946Y-67960484D01*
X134292182Y-67964949D01*
X134120213Y-68089890D01*
X133969890Y-68240213D01*
X133844951Y-68412179D01*
X133748444Y-68601585D01*
X133682753Y-68803760D01*
X133661360Y-68938834D01*
X133649500Y-69013713D01*
X133649500Y-69226287D01*
X133682754Y-69436243D01*
X133715930Y-69538349D01*
X133748444Y-69638414D01*
X133844951Y-69827820D01*
X133969890Y-69999786D01*
X134120213Y-70150109D01*
X134292179Y-70275048D01*
X134292181Y-70275049D01*
X134292184Y-70275051D01*
X134481588Y-70371557D01*
X134683757Y-70437246D01*
X134893713Y-70470500D01*
X134893714Y-70470500D01*
X135106286Y-70470500D01*
X135106287Y-70470500D01*
X135316243Y-70437246D01*
X135518412Y-70371557D01*
X135707816Y-70275051D01*
X135782900Y-70220500D01*
X135879786Y-70150109D01*
X135879788Y-70150106D01*
X135879792Y-70150104D01*
X136030104Y-69999792D01*
X136030106Y-69999788D01*
X136030109Y-69999786D01*
X136139086Y-69849789D01*
X136155051Y-69827816D01*
X136251557Y-69638412D01*
X136317246Y-69436243D01*
X136350500Y-69226287D01*
X136350500Y-69013713D01*
X136317246Y-68803757D01*
X136251557Y-68601588D01*
X136155051Y-68412184D01*
X136155049Y-68412181D01*
X136155048Y-68412179D01*
X136030109Y-68240213D01*
X135879786Y-68089890D01*
X135707820Y-67964951D01*
X135707115Y-67964591D01*
X135699054Y-67960485D01*
X135648259Y-67912512D01*
X135631463Y-67844692D01*
X135653999Y-67778556D01*
X135699054Y-67739515D01*
X135707816Y-67735051D01*
X135729789Y-67719086D01*
X135879786Y-67610109D01*
X135879788Y-67610106D01*
X135879792Y-67610104D01*
X136030104Y-67459792D01*
X136030106Y-67459788D01*
X136030109Y-67459786D01*
X136139086Y-67309789D01*
X136155051Y-67287816D01*
X136251557Y-67098412D01*
X136317246Y-66896243D01*
X136350500Y-66686287D01*
X136350500Y-66473713D01*
X136342175Y-66421153D01*
X150254500Y-66421153D01*
X150254500Y-66578846D01*
X150285261Y-66733489D01*
X150285264Y-66733501D01*
X150345602Y-66879172D01*
X150345609Y-66879185D01*
X150433210Y-67010288D01*
X150433213Y-67010292D01*
X150544707Y-67121786D01*
X150544711Y-67121789D01*
X150675814Y-67209390D01*
X150675827Y-67209397D01*
X150758501Y-67243641D01*
X150821503Y-67269737D01*
X150955340Y-67296359D01*
X150976153Y-67300499D01*
X150976156Y-67300500D01*
X150976158Y-67300500D01*
X151133844Y-67300500D01*
X151133845Y-67300499D01*
X151288497Y-67269737D01*
X151434179Y-67209394D01*
X151565289Y-67121789D01*
X151676789Y-67010289D01*
X151764394Y-66879179D01*
X151824737Y-66733497D01*
X151855500Y-66578842D01*
X151855500Y-66421158D01*
X151855500Y-66421155D01*
X151855499Y-66421153D01*
X151832384Y-66304949D01*
X151824737Y-66266503D01*
X151790850Y-66184692D01*
X151764397Y-66120827D01*
X151764390Y-66120814D01*
X151676789Y-65989711D01*
X151676786Y-65989707D01*
X151565292Y-65878213D01*
X151565288Y-65878210D01*
X151434185Y-65790609D01*
X151434172Y-65790602D01*
X151288501Y-65730264D01*
X151288489Y-65730261D01*
X151133845Y-65699500D01*
X151133842Y-65699500D01*
X150976158Y-65699500D01*
X150976155Y-65699500D01*
X150821510Y-65730261D01*
X150821498Y-65730264D01*
X150675827Y-65790602D01*
X150675814Y-65790609D01*
X150544711Y-65878210D01*
X150544707Y-65878213D01*
X150433213Y-65989707D01*
X150433210Y-65989711D01*
X150345609Y-66120814D01*
X150345602Y-66120827D01*
X150285264Y-66266498D01*
X150285261Y-66266510D01*
X150254500Y-66421153D01*
X136342175Y-66421153D01*
X136317246Y-66263757D01*
X136251557Y-66061588D01*
X136155051Y-65872184D01*
X136155049Y-65872181D01*
X136155048Y-65872179D01*
X136030109Y-65700213D01*
X135879786Y-65549890D01*
X135707820Y-65424951D01*
X135707115Y-65424591D01*
X135699054Y-65420485D01*
X135648259Y-65372512D01*
X135631463Y-65304692D01*
X135653999Y-65238556D01*
X135699054Y-65199515D01*
X135707816Y-65195051D01*
X135729789Y-65179086D01*
X135879786Y-65070109D01*
X135879788Y-65070106D01*
X135879792Y-65070104D01*
X136030104Y-64919792D01*
X136030106Y-64919788D01*
X136030109Y-64919786D01*
X136155048Y-64747820D01*
X136155047Y-64747820D01*
X136155051Y-64747816D01*
X136251557Y-64558412D01*
X136317246Y-64356243D01*
X136350500Y-64146287D01*
X136350500Y-63933713D01*
X136317246Y-63723757D01*
X136251557Y-63521588D01*
X136155051Y-63332184D01*
X136155049Y-63332181D01*
X136155048Y-63332179D01*
X136030109Y-63160213D01*
X135879786Y-63009890D01*
X135707820Y-62884951D01*
X135707115Y-62884591D01*
X135699054Y-62880485D01*
X135648259Y-62832512D01*
X135631463Y-62764692D01*
X135653999Y-62698556D01*
X135699054Y-62659515D01*
X135707816Y-62655051D01*
X135729789Y-62639086D01*
X135879786Y-62530109D01*
X135879788Y-62530106D01*
X135879792Y-62530104D01*
X136030104Y-62379792D01*
X136030106Y-62379788D01*
X136030109Y-62379786D01*
X136155048Y-62207820D01*
X136155047Y-62207820D01*
X136155051Y-62207816D01*
X136251557Y-62018412D01*
X136317246Y-61816243D01*
X136350500Y-61606287D01*
X136350500Y-61393713D01*
X136317246Y-61183757D01*
X136251557Y-60981588D01*
X136155051Y-60792184D01*
X136155049Y-60792181D01*
X136155048Y-60792179D01*
X136030109Y-60620213D01*
X135879786Y-60469890D01*
X135707820Y-60344951D01*
X135707115Y-60344591D01*
X135699054Y-60340485D01*
X135648259Y-60292512D01*
X135631463Y-60224692D01*
X135653999Y-60158556D01*
X135699054Y-60119515D01*
X135707816Y-60115051D01*
X135729789Y-60099086D01*
X135879786Y-59990109D01*
X135879788Y-59990106D01*
X135879792Y-59990104D01*
X136030104Y-59839792D01*
X136030106Y-59839788D01*
X136030109Y-59839786D01*
X136155048Y-59667820D01*
X136155047Y-59667820D01*
X136155051Y-59667816D01*
X136251557Y-59478412D01*
X136317246Y-59276243D01*
X136350500Y-59066287D01*
X136350500Y-58853713D01*
X136317246Y-58643757D01*
X136251557Y-58441588D01*
X136155051Y-58252184D01*
X136155049Y-58252181D01*
X136155048Y-58252179D01*
X136030109Y-58080213D01*
X135916181Y-57966285D01*
X135882696Y-57904962D01*
X135887680Y-57835270D01*
X135929552Y-57779337D01*
X135960529Y-57762422D01*
X136092086Y-57713354D01*
X136092093Y-57713350D01*
X136207187Y-57627190D01*
X136207190Y-57627187D01*
X136293350Y-57512093D01*
X136293354Y-57512086D01*
X136343596Y-57377379D01*
X136343598Y-57377372D01*
X136349999Y-57317844D01*
X136350000Y-57317827D01*
X136350000Y-56670000D01*
X135433012Y-56670000D01*
X135465925Y-56612993D01*
X135500000Y-56485826D01*
X135500000Y-56354174D01*
X135465925Y-56227007D01*
X135433012Y-56170000D01*
X136350000Y-56170000D01*
X136350000Y-55792135D01*
X138649500Y-55792135D01*
X138649500Y-57587870D01*
X138649501Y-57587876D01*
X138655908Y-57647483D01*
X138706202Y-57782328D01*
X138706206Y-57782335D01*
X138792452Y-57897544D01*
X138792455Y-57897547D01*
X138907664Y-57983793D01*
X138907671Y-57983797D01*
X139039082Y-58032810D01*
X139095016Y-58074681D01*
X139119433Y-58140145D01*
X139104582Y-58208418D01*
X139083431Y-58236673D01*
X138969889Y-58350215D01*
X138844951Y-58522179D01*
X138748444Y-58711585D01*
X138682753Y-58913760D01*
X138658595Y-59066287D01*
X138649500Y-59123713D01*
X138649500Y-59336287D01*
X138653174Y-59359481D01*
X138679192Y-59523757D01*
X138682754Y-59546243D01*
X138723384Y-59671290D01*
X138748444Y-59748414D01*
X138844951Y-59937820D01*
X138969890Y-60109786D01*
X139120213Y-60260109D01*
X139292182Y-60385050D01*
X139300946Y-60389516D01*
X139351742Y-60437491D01*
X139368536Y-60505312D01*
X139345998Y-60571447D01*
X139300946Y-60610484D01*
X139292182Y-60614949D01*
X139120213Y-60739890D01*
X138969890Y-60890213D01*
X138844951Y-61062179D01*
X138748444Y-61251585D01*
X138748443Y-61251587D01*
X138748443Y-61251588D01*
X138716503Y-61349890D01*
X138682753Y-61453760D01*
X138658595Y-61606287D01*
X138649500Y-61663713D01*
X138649500Y-61876287D01*
X138656162Y-61918349D01*
X138679192Y-62063757D01*
X138682754Y-62086243D01*
X138689266Y-62106286D01*
X138748444Y-62288414D01*
X138844951Y-62477820D01*
X138969890Y-62649786D01*
X139120213Y-62800109D01*
X139292182Y-62925050D01*
X139300946Y-62929516D01*
X139351742Y-62977491D01*
X139368536Y-63045312D01*
X139345998Y-63111447D01*
X139300946Y-63150484D01*
X139292182Y-63154949D01*
X139120213Y-63279890D01*
X138969890Y-63430213D01*
X138844951Y-63602179D01*
X138748444Y-63791585D01*
X138748443Y-63791587D01*
X138748443Y-63791588D01*
X138716503Y-63889890D01*
X138682753Y-63993760D01*
X138649500Y-64203713D01*
X138649500Y-64416286D01*
X138679192Y-64603757D01*
X138682754Y-64626243D01*
X138689266Y-64646286D01*
X138748444Y-64828414D01*
X138844951Y-65017820D01*
X138969890Y-65189786D01*
X139120213Y-65340109D01*
X139292179Y-65465048D01*
X139292181Y-65465049D01*
X139292184Y-65465051D01*
X139481588Y-65561557D01*
X139683757Y-65627246D01*
X139893713Y-65660500D01*
X139893714Y-65660500D01*
X140106286Y-65660500D01*
X140106287Y-65660500D01*
X140316243Y-65627246D01*
X140518412Y-65561557D01*
X140707816Y-65465051D01*
X140770110Y-65419792D01*
X140879786Y-65340109D01*
X140879788Y-65340106D01*
X140879792Y-65340104D01*
X141030104Y-65189792D01*
X141030106Y-65189788D01*
X141030109Y-65189786D01*
X141139086Y-65039789D01*
X141155051Y-65017816D01*
X141251557Y-64828412D01*
X141317246Y-64626243D01*
X141350500Y-64416287D01*
X141350500Y-64203713D01*
X141317246Y-63993757D01*
X141251557Y-63791588D01*
X141155051Y-63602184D01*
X141155049Y-63602181D01*
X141155048Y-63602179D01*
X141030109Y-63430213D01*
X140879786Y-63279890D01*
X140707820Y-63154951D01*
X140707115Y-63154591D01*
X140699054Y-63150485D01*
X140648259Y-63102512D01*
X140631463Y-63034692D01*
X140653999Y-62968556D01*
X140699054Y-62929515D01*
X140707816Y-62925051D01*
X140770110Y-62879792D01*
X140879786Y-62800109D01*
X140879788Y-62800106D01*
X140879792Y-62800104D01*
X141030104Y-62649792D01*
X141030106Y-62649788D01*
X141030109Y-62649786D01*
X141139086Y-62499789D01*
X141155051Y-62477816D01*
X141251557Y-62288412D01*
X141317246Y-62086243D01*
X141350500Y-61876287D01*
X141350500Y-61663713D01*
X141317246Y-61453757D01*
X141251557Y-61251588D01*
X141155051Y-61062184D01*
X141155049Y-61062181D01*
X141155048Y-61062179D01*
X141030109Y-60890213D01*
X140879786Y-60739890D01*
X140707820Y-60614951D01*
X140707115Y-60614591D01*
X140699054Y-60610485D01*
X140648259Y-60562512D01*
X140631463Y-60494692D01*
X140653999Y-60428556D01*
X140699054Y-60389515D01*
X140707816Y-60385051D01*
X140744482Y-60358412D01*
X140879786Y-60260109D01*
X140879788Y-60260106D01*
X140879792Y-60260104D01*
X141030104Y-60109792D01*
X141030106Y-60109788D01*
X141030109Y-60109786D01*
X141139086Y-59959789D01*
X141155051Y-59937816D01*
X141251557Y-59748412D01*
X141317246Y-59546243D01*
X141350500Y-59336287D01*
X141350500Y-59123713D01*
X141317246Y-58913757D01*
X141251557Y-58711588D01*
X141155051Y-58522184D01*
X141155049Y-58522181D01*
X141155048Y-58522179D01*
X141030109Y-58350213D01*
X140916569Y-58236673D01*
X140883084Y-58175350D01*
X140888068Y-58105658D01*
X140929940Y-58049725D01*
X140960915Y-58032810D01*
X141092331Y-57983796D01*
X141207546Y-57897546D01*
X141293796Y-57782331D01*
X141344091Y-57647483D01*
X141350500Y-57587873D01*
X141350499Y-55792128D01*
X141344196Y-55733497D01*
X141344091Y-55732516D01*
X141293797Y-55597671D01*
X141293793Y-55597664D01*
X141212731Y-55489380D01*
X141212729Y-55489378D01*
X141207546Y-55482454D01*
X141207544Y-55482453D01*
X141207544Y-55482452D01*
X141125660Y-55421153D01*
X158199500Y-55421153D01*
X158199500Y-55578846D01*
X158230261Y-55733489D01*
X158230264Y-55733501D01*
X158290602Y-55879172D01*
X158290609Y-55879185D01*
X158378210Y-56010288D01*
X158378213Y-56010292D01*
X158489707Y-56121786D01*
X158489711Y-56121789D01*
X158620814Y-56209390D01*
X158620827Y-56209397D01*
X158766498Y-56269735D01*
X158766503Y-56269737D01*
X158908796Y-56298041D01*
X158921153Y-56300499D01*
X158921156Y-56300500D01*
X158921158Y-56300500D01*
X159078844Y-56300500D01*
X159078845Y-56300499D01*
X159233497Y-56269737D01*
X159379179Y-56209394D01*
X159510289Y-56121789D01*
X159621789Y-56010289D01*
X159709394Y-55879179D01*
X159769737Y-55733497D01*
X159800500Y-55578842D01*
X159800500Y-55421158D01*
X159800500Y-55421155D01*
X159800499Y-55421153D01*
X159793644Y-55386690D01*
X159769737Y-55266503D01*
X159747498Y-55212812D01*
X159709397Y-55120827D01*
X159709390Y-55120814D01*
X159621789Y-54989711D01*
X159621786Y-54989707D01*
X159510292Y-54878213D01*
X159510288Y-54878210D01*
X159379185Y-54790609D01*
X159379172Y-54790602D01*
X159233501Y-54730264D01*
X159233489Y-54730261D01*
X159078845Y-54699500D01*
X159078842Y-54699500D01*
X158921158Y-54699500D01*
X158921155Y-54699500D01*
X158766510Y-54730261D01*
X158766498Y-54730264D01*
X158620827Y-54790602D01*
X158620814Y-54790609D01*
X158489711Y-54878210D01*
X158489707Y-54878213D01*
X158378213Y-54989707D01*
X158378210Y-54989711D01*
X158290609Y-55120814D01*
X158290602Y-55120827D01*
X158230264Y-55266498D01*
X158230261Y-55266510D01*
X158199500Y-55421153D01*
X141125660Y-55421153D01*
X141092335Y-55396206D01*
X141092328Y-55396202D01*
X140957482Y-55345908D01*
X140957483Y-55345908D01*
X140897883Y-55339501D01*
X140897881Y-55339500D01*
X140897873Y-55339500D01*
X140897864Y-55339500D01*
X139102129Y-55339500D01*
X139102123Y-55339501D01*
X139042516Y-55345908D01*
X138907671Y-55396202D01*
X138907664Y-55396206D01*
X138792455Y-55482452D01*
X138792452Y-55482455D01*
X138706206Y-55597664D01*
X138706202Y-55597671D01*
X138655908Y-55732517D01*
X138649501Y-55792116D01*
X138649501Y-55792123D01*
X138649500Y-55792135D01*
X136350000Y-55792135D01*
X136350000Y-55522172D01*
X136349999Y-55522155D01*
X136343598Y-55462627D01*
X136343596Y-55462620D01*
X136293354Y-55327913D01*
X136293350Y-55327906D01*
X136207190Y-55212812D01*
X136207187Y-55212809D01*
X136092093Y-55126649D01*
X136092086Y-55126645D01*
X135957379Y-55076403D01*
X135957372Y-55076401D01*
X135897844Y-55070000D01*
X135250000Y-55070000D01*
X135250000Y-55986988D01*
X135192993Y-55954075D01*
X135065826Y-55920000D01*
X134934174Y-55920000D01*
X134807007Y-55954075D01*
X134750000Y-55986988D01*
X134750000Y-55070000D01*
X134102155Y-55070000D01*
X134042627Y-55076401D01*
X134042620Y-55076403D01*
X133907913Y-55126645D01*
X133907906Y-55126649D01*
X133792812Y-55212809D01*
X133792809Y-55212812D01*
X133706649Y-55327906D01*
X133706645Y-55327913D01*
X133656403Y-55462620D01*
X133656401Y-55462627D01*
X133650000Y-55522155D01*
X133650000Y-56170000D01*
X134566988Y-56170000D01*
X134534075Y-56227007D01*
X134500000Y-56354174D01*
X134500000Y-56485826D01*
X134534075Y-56612993D01*
X134566988Y-56670000D01*
X133650000Y-56670000D01*
X133650000Y-57317844D01*
X133656401Y-57377372D01*
X133656403Y-57377379D01*
X133706645Y-57512086D01*
X133706649Y-57512093D01*
X133792809Y-57627187D01*
X133792812Y-57627190D01*
X133907906Y-57713350D01*
X133907913Y-57713354D01*
X134039470Y-57762422D01*
X134095404Y-57804293D01*
X134119821Y-57869758D01*
X134104969Y-57938031D01*
X134083819Y-57966285D01*
X133969889Y-58080215D01*
X133844951Y-58252179D01*
X133748444Y-58441585D01*
X133682753Y-58643760D01*
X133662800Y-58769738D01*
X133649500Y-58853713D01*
X124963609Y-58853713D01*
X124919786Y-58809890D01*
X124747820Y-58684951D01*
X124558414Y-58588444D01*
X124558413Y-58588443D01*
X124558412Y-58588443D01*
X124356243Y-58522754D01*
X124356241Y-58522753D01*
X124356240Y-58522753D01*
X124194957Y-58497208D01*
X124146287Y-58489500D01*
X123933713Y-58489500D01*
X123885042Y-58497208D01*
X123723760Y-58522753D01*
X123521585Y-58588444D01*
X123332179Y-58684951D01*
X123160213Y-58809890D01*
X123009890Y-58960213D01*
X122884949Y-59132182D01*
X122880484Y-59140946D01*
X122832509Y-59191742D01*
X122764688Y-59208536D01*
X122698553Y-59185998D01*
X122659516Y-59140946D01*
X122655050Y-59132182D01*
X122530109Y-58960213D01*
X122379786Y-58809890D01*
X122207820Y-58684951D01*
X122018414Y-58588444D01*
X122018413Y-58588443D01*
X122018412Y-58588443D01*
X121816243Y-58522754D01*
X121816241Y-58522753D01*
X121816240Y-58522753D01*
X121654957Y-58497208D01*
X121606287Y-58489500D01*
X121393713Y-58489500D01*
X121345042Y-58497208D01*
X121183760Y-58522753D01*
X120981585Y-58588444D01*
X120792179Y-58684951D01*
X120620213Y-58809890D01*
X120469890Y-58960213D01*
X120344948Y-59132184D01*
X120344947Y-59132185D01*
X120324765Y-59171795D01*
X120276791Y-59222591D01*
X120214281Y-59239500D01*
X118347669Y-59239500D01*
X118347653Y-59239499D01*
X118340057Y-59239499D01*
X118181943Y-59239499D01*
X118074587Y-59268265D01*
X118029210Y-59280424D01*
X118029209Y-59280425D01*
X117979096Y-59309359D01*
X117979095Y-59309360D01*
X117935689Y-59334420D01*
X117892285Y-59359479D01*
X117892282Y-59359481D01*
X117712181Y-59539583D01*
X117650858Y-59573068D01*
X117581166Y-59568084D01*
X117525233Y-59526212D01*
X117500816Y-59460748D01*
X117500500Y-59451902D01*
X117500500Y-57421153D01*
X130699500Y-57421153D01*
X130699500Y-57578846D01*
X130730261Y-57733489D01*
X130730264Y-57733501D01*
X130790602Y-57879172D01*
X130790609Y-57879185D01*
X130878210Y-58010288D01*
X130878213Y-58010292D01*
X130989707Y-58121786D01*
X130989711Y-58121789D01*
X131120814Y-58209390D01*
X131120827Y-58209397D01*
X131225642Y-58252812D01*
X131266503Y-58269737D01*
X131421153Y-58300499D01*
X131421156Y-58300500D01*
X131421158Y-58300500D01*
X131578844Y-58300500D01*
X131578845Y-58300499D01*
X131733497Y-58269737D01*
X131879179Y-58209394D01*
X132010289Y-58121789D01*
X132121789Y-58010289D01*
X132209394Y-57879179D01*
X132269737Y-57733497D01*
X132300500Y-57578842D01*
X132300500Y-57421158D01*
X132300500Y-57421155D01*
X132300499Y-57421153D01*
X132274531Y-57290606D01*
X132269737Y-57266503D01*
X132262649Y-57249390D01*
X132209397Y-57120827D01*
X132209390Y-57120814D01*
X132121789Y-56989711D01*
X132121786Y-56989707D01*
X132010292Y-56878213D01*
X132010288Y-56878210D01*
X131879185Y-56790609D01*
X131879172Y-56790602D01*
X131733501Y-56730264D01*
X131733489Y-56730261D01*
X131578845Y-56699500D01*
X131578842Y-56699500D01*
X131421158Y-56699500D01*
X131421155Y-56699500D01*
X131266510Y-56730261D01*
X131266498Y-56730264D01*
X131120827Y-56790602D01*
X131120814Y-56790609D01*
X130989711Y-56878210D01*
X130989707Y-56878213D01*
X130878213Y-56989707D01*
X130878210Y-56989711D01*
X130790609Y-57120814D01*
X130790602Y-57120827D01*
X130730264Y-57266498D01*
X130730261Y-57266510D01*
X130699500Y-57421153D01*
X117500500Y-57421153D01*
X117500500Y-54503750D01*
X117500726Y-54496263D01*
X117508432Y-54368872D01*
X117999500Y-54368872D01*
X117999500Y-54631127D01*
X118026123Y-54833339D01*
X118033730Y-54891116D01*
X118096841Y-55126649D01*
X118101602Y-55144418D01*
X118101605Y-55144428D01*
X118201953Y-55386690D01*
X118201958Y-55386700D01*
X118333075Y-55613803D01*
X118492718Y-55821851D01*
X118492726Y-55821860D01*
X118678140Y-56007274D01*
X118678148Y-56007281D01*
X118678149Y-56007282D01*
X118682068Y-56010289D01*
X118886196Y-56166924D01*
X119113299Y-56298041D01*
X119113309Y-56298046D01*
X119355571Y-56398394D01*
X119355581Y-56398398D01*
X119608884Y-56466270D01*
X119868880Y-56500500D01*
X119868887Y-56500500D01*
X120131113Y-56500500D01*
X120131120Y-56500500D01*
X120391116Y-56466270D01*
X120644419Y-56398398D01*
X120866285Y-56306498D01*
X120886690Y-56298046D01*
X120886691Y-56298045D01*
X120886697Y-56298043D01*
X121113803Y-56166924D01*
X121321851Y-56007282D01*
X121321855Y-56007277D01*
X121321860Y-56007274D01*
X121507274Y-55821860D01*
X121507277Y-55821855D01*
X121507282Y-55821851D01*
X121666924Y-55613803D01*
X121687106Y-55578846D01*
X121757540Y-55456851D01*
X121798041Y-55386700D01*
X121798046Y-55386690D01*
X121847831Y-55266498D01*
X121898398Y-55144419D01*
X121966270Y-54891116D01*
X122000500Y-54631120D01*
X122000500Y-54368880D01*
X122000499Y-54368872D01*
X184999500Y-54368872D01*
X184999500Y-54631127D01*
X185026123Y-54833339D01*
X185033730Y-54891116D01*
X185096841Y-55126649D01*
X185101602Y-55144418D01*
X185101605Y-55144428D01*
X185201953Y-55386690D01*
X185201958Y-55386700D01*
X185333075Y-55613803D01*
X185492718Y-55821851D01*
X185492726Y-55821860D01*
X185678140Y-56007274D01*
X185678148Y-56007281D01*
X185678149Y-56007282D01*
X185682068Y-56010289D01*
X185886196Y-56166924D01*
X186113299Y-56298041D01*
X186113309Y-56298046D01*
X186355571Y-56398394D01*
X186355581Y-56398398D01*
X186608884Y-56466270D01*
X186868880Y-56500500D01*
X186868887Y-56500500D01*
X187131113Y-56500500D01*
X187131120Y-56500500D01*
X187391116Y-56466270D01*
X187644419Y-56398398D01*
X187866285Y-56306498D01*
X187886690Y-56298046D01*
X187886691Y-56298045D01*
X187886697Y-56298043D01*
X188113803Y-56166924D01*
X188321851Y-56007282D01*
X188321855Y-56007277D01*
X188321860Y-56007274D01*
X188507274Y-55821860D01*
X188507277Y-55821855D01*
X188507282Y-55821851D01*
X188666924Y-55613803D01*
X188798043Y-55386697D01*
X188898398Y-55144419D01*
X188966270Y-54891116D01*
X189000500Y-54631120D01*
X189000500Y-54368880D01*
X188966270Y-54108884D01*
X188898398Y-53855581D01*
X188798193Y-53613665D01*
X188798046Y-53613309D01*
X188798041Y-53613299D01*
X188666924Y-53386196D01*
X188507281Y-53178148D01*
X188507274Y-53178140D01*
X188321860Y-52992726D01*
X188321851Y-52992718D01*
X188113803Y-52833075D01*
X187886700Y-52701958D01*
X187886690Y-52701953D01*
X187644428Y-52601605D01*
X187644421Y-52601603D01*
X187644419Y-52601602D01*
X187391116Y-52533730D01*
X187333339Y-52526123D01*
X187131127Y-52499500D01*
X187131120Y-52499500D01*
X186868880Y-52499500D01*
X186868872Y-52499500D01*
X186637772Y-52529926D01*
X186608884Y-52533730D01*
X186355581Y-52601602D01*
X186355571Y-52601605D01*
X186113309Y-52701953D01*
X186113299Y-52701958D01*
X185886196Y-52833075D01*
X185678148Y-52992718D01*
X185492718Y-53178148D01*
X185333075Y-53386196D01*
X185201958Y-53613299D01*
X185201953Y-53613309D01*
X185101605Y-53855571D01*
X185101602Y-53855581D01*
X185066724Y-53985750D01*
X185033730Y-54108885D01*
X184999500Y-54368872D01*
X122000499Y-54368872D01*
X121966270Y-54108884D01*
X121898398Y-53855581D01*
X121798193Y-53613665D01*
X121798046Y-53613309D01*
X121798041Y-53613299D01*
X121666924Y-53386196D01*
X121507281Y-53178148D01*
X121507274Y-53178140D01*
X121321860Y-52992726D01*
X121321851Y-52992718D01*
X121113803Y-52833075D01*
X120886700Y-52701958D01*
X120886690Y-52701953D01*
X120644428Y-52601605D01*
X120644421Y-52601603D01*
X120644419Y-52601602D01*
X120391116Y-52533730D01*
X120333339Y-52526123D01*
X120131127Y-52499500D01*
X120131120Y-52499500D01*
X119868880Y-52499500D01*
X119868872Y-52499500D01*
X119637772Y-52529926D01*
X119608884Y-52533730D01*
X119355581Y-52601602D01*
X119355571Y-52601605D01*
X119113309Y-52701953D01*
X119113299Y-52701958D01*
X118886196Y-52833075D01*
X118678148Y-52992718D01*
X118492718Y-53178148D01*
X118333075Y-53386196D01*
X118201958Y-53613299D01*
X118201953Y-53613309D01*
X118101605Y-53855571D01*
X118101602Y-53855581D01*
X118066724Y-53985750D01*
X118033730Y-54108885D01*
X117999500Y-54368872D01*
X117508432Y-54368872D01*
X117509130Y-54357334D01*
X117509130Y-54357333D01*
X117518271Y-54206206D01*
X117520076Y-54191340D01*
X117535187Y-54108885D01*
X117571780Y-53909197D01*
X117575364Y-53894663D01*
X117660696Y-53620822D01*
X117665998Y-53606841D01*
X117783731Y-53345249D01*
X117790676Y-53332016D01*
X117939080Y-53086526D01*
X117947567Y-53074230D01*
X118124480Y-52848417D01*
X118134395Y-52837226D01*
X118337226Y-52634395D01*
X118348417Y-52624480D01*
X118574230Y-52447567D01*
X118586526Y-52439080D01*
X118832016Y-52290676D01*
X118845249Y-52283731D01*
X119106841Y-52165998D01*
X119120822Y-52160696D01*
X119394668Y-52075362D01*
X119409197Y-52071780D01*
X119691344Y-52020075D01*
X119706201Y-52018271D01*
X119996264Y-52000726D01*
X120003751Y-52000500D01*
X120065892Y-52000500D01*
X186934108Y-52000500D01*
X186996249Y-52000500D01*
X187003736Y-52000726D01*
G37*
%TD.AperFunction*%
%TD*%
M02*
