M48
; DRILL file {KiCad 9.0.3} date 2025-07-13T20:53:46+1200
; FORMAT={-:-/ absolute / metric / decimal}
; #@! TF.CreationDate,2025-07-13T20:53:46+12:00
; #@! TF.GenerationSoftware,Kicad,Pcbnew,9.0.3
; #@! TF.FileFunction,MixedPlating,1,4
FMAT,2
METRIC
; #@! TA.AperFunction,Plated,PTH,ViaDrill
T1C0.300
; #@! TA.AperFunction,Plated,PTH,ComponentDrill
T2C0.600
; #@! TA.AperFunction,Plated,PTH,ComponentDrill
T3C0.800
; #@! TA.AperFunction,Plated,PTH,ComponentDrill
T4C0.940
; #@! TA.AperFunction,Plated,PTH,ComponentDrill
T5C1.000
; #@! TA.AperFunction,Plated,PTH,ComponentDrill
T6C1.100
; #@! TA.AperFunction,NonPlated,NPTH,ComponentDrill
T7C0.650
%
G90
G05
T1
X119.55Y-83.05
X120.0Y-111.5
X121.0Y-93.5
X123.5Y-82.5
X123.5Y-94.0
X123.5Y-104.015
X123.5Y-109.5
X124.0Y-81.5
X124.5Y-91.5
X124.75Y-100.0
X125.0Y-77.5
X125.9Y-112.5
X126.0Y-78.0
X126.27Y-83.25
X126.5Y-103.515
X127.0Y-73.5
X127.05Y-115.637
X127.55Y-116.637
X128.0Y-72.5
X128.0Y-109.614
X129.0Y-80.5
X129.0Y-81.3
X129.0Y-84.25
X129.0Y-85.193
X129.0Y-86.5
X129.0Y-87.5
X129.0Y-89.5
X129.0Y-90.5
X129.05Y-116.637
X129.25Y-94.75
X129.55Y-115.637
X130.0Y-109.614
X130.5Y-99.5
X130.5Y-100.5
X131.0Y-112.0
X131.5Y-57.5
X131.5Y-97.0
X133.5Y-81.5
X133.5Y-101.0
X133.52Y-102.98
X134.481Y-100.98
X134.5Y-82.5
X135.0Y-91.5
X136.0Y-81.0
X136.0Y-83.25
X138.0Y-75.0
X138.0Y-95.5
X138.0Y-97.0
X138.02Y-74.02
X138.5Y-78.5
X138.5Y-94.0
X140.0Y-74.013
X140.0Y-95.5
X140.0Y-97.0
X140.0Y-100.98
X141.0Y-74.013
X142.0Y-74.013
X142.5Y-104.5
X143.5Y-72.4
X143.5Y-74.013
X143.5Y-79.0
X144.0Y-68.0
X144.0Y-116.5
X144.0Y-117.5
X144.5Y-72.0
X144.5Y-74.013
X144.5Y-79.0
X144.5Y-100.0
X144.5Y-101.0
X145.0Y-118.0
X146.0Y-70.0
X146.0Y-102.0
X146.0Y-118.0
X146.5Y-66.5
X147.5Y-79.75
X150.5Y-95.75
X151.0Y-98.0
X151.0Y-99.0
X151.055Y-66.5
X151.5Y-80.5
X152.0Y-90.135
X152.0Y-100.0
X152.095Y-87.595
X152.095Y-91.405
X152.135Y-88.865
X153.255Y-70.0
X153.5Y-106.23
X156.05Y-80.5
X158.05Y-77.0
X159.0Y-55.5
X159.5Y-87.595
X160.05Y-74.862
X161.55Y-77.0
X163.591Y-75.0
X164.5Y-113.04
X166.0Y-80.5
X166.46Y-56.54
X166.5Y-54.0
X167.889Y-69.5
X168.69Y-73.425
X170.5Y-79.9
X172.5Y-113.04
X174.0Y-92.73
X174.0Y-94.0
X174.0Y-95.27
X174.0Y-96.54
X174.5Y-78.0
X176.69Y-74.0
X178.0Y-109.5
X178.5Y-74.0
X180.5Y-58.0
X181.968Y-97.532
X182.66Y-72.16
X183.0Y-91.5
X184.0Y-93.0
X184.24Y-96.26
X184.5Y-98.44
X185.8Y-106.73
X186.0Y-58.5
X188.3Y-109.23
T4
X166.7Y-110.5
X166.7Y-113.04
X166.7Y-115.58
T5
X121.5Y-59.84
X121.5Y-62.38
X121.5Y-64.92
X121.5Y-67.46
X121.5Y-70.0
X121.5Y-72.54
X124.04Y-59.84
X124.04Y-62.38
X124.04Y-64.92
X124.04Y-67.46
X124.04Y-70.0
X124.04Y-72.54
X135.0Y-56.42
X135.0Y-58.96
X135.0Y-61.5
X135.0Y-64.04
X135.0Y-66.58
X135.0Y-69.12
X136.0Y-111.92
X136.0Y-114.46
X136.0Y-117.0
X140.0Y-56.69
X140.0Y-59.23
X140.0Y-61.77
X140.0Y-64.31
X152.235Y-115.5
X154.775Y-115.5
X165.5Y-88.235
X165.5Y-90.775
X169.5Y-95.868
X169.5Y-100.868
X183.725Y-77.69
X183.725Y-80.23
X183.725Y-82.77
X183.725Y-85.31
X186.265Y-77.69
X186.265Y-80.23
X186.265Y-82.77
X186.265Y-85.31
X187.0Y-93.36
X187.0Y-95.9
X187.0Y-98.44
X188.0Y-59.46
X188.0Y-62.0
X188.0Y-64.54
X188.0Y-67.08
X188.0Y-69.62
X188.0Y-72.16
T6
X185.8Y-109.23
X185.8Y-111.77
T7
X125.41Y-114.712
X131.19Y-114.712
T2
G00X123.98Y-113.662
M15
G01X123.98Y-114.762
M16
G05
G00X123.98Y-117.992
M15
G01X123.98Y-118.792
M16
G05
G00X132.62Y-113.662
M15
G01X132.62Y-114.762
M16
G05
G00X132.62Y-117.992
M15
G01X132.62Y-118.792
M16
G05
T3
G00X174.4Y-106.0
M15
G01X177.0Y-106.0
M16
G05
G00X174.6Y-111.8
M15
G01X176.8Y-111.8
M16
G05
G00X180.5Y-110.1
M15
G01X180.5Y-107.9
M16
G05
M30
