%TF.GenerationSoftware,KiCad,Pcbnew,9.0.3*%
%TF.CreationDate,2025-07-12T13:39:52+12:00*%
%TF.ProjectId,RemiRAT,52656d69-5241-4542-9e6b-696361645f70,rev?*%
%TF.SameCoordinates,Original*%
%TF.FileFunction,Legend,Top*%
%TF.FilePolarity,Positive*%
%FSLAX46Y46*%
G04 Gerber Fmt 4.6, Leading zero omitted, Abs format (unit mm)*
G04 Created by KiCad (PCBNEW 9.0.3) date 2025-07-12 13:39:52*
%MOMM*%
%LPD*%
G01*
G04 APERTURE LIST*
%ADD10C,0.100000*%
%ADD11C,0.150000*%
%ADD12C,0.187500*%
%ADD13C,0.300000*%
%ADD14C,0.120000*%
%ADD15C,0.127000*%
%ADD16C,0.200000*%
%ADD17C,0.152400*%
G04 APERTURE END LIST*
D10*
X189500000Y-67000000D02*
G75*
G02*
X184500000Y-67000000I-2500000J0D01*
G01*
X184500000Y-67000000D02*
G75*
G02*
X189500000Y-67000000I2500000J0D01*
G01*
X122500000Y-118000000D02*
G75*
G02*
X117500000Y-118000000I-2500000J0D01*
G01*
X117500000Y-118000000D02*
G75*
G02*
X122500000Y-118000000I2500000J0D01*
G01*
X187500000Y-118000000D02*
G75*
G02*
X182500000Y-118000000I-2500000J0D01*
G01*
X182500000Y-118000000D02*
G75*
G02*
X187500000Y-118000000I2500000J0D01*
G01*
X122500000Y-67000000D02*
G75*
G02*
X117500000Y-67000000I-2500000J0D01*
G01*
X117500000Y-67000000D02*
G75*
G02*
X122500000Y-67000000I2500000J0D01*
G01*
X170303884Y-98348609D02*
X170637217Y-98348609D01*
X170780074Y-98872419D02*
X170303884Y-98872419D01*
X170303884Y-98872419D02*
X170303884Y-97872419D01*
X170303884Y-97872419D02*
X170780074Y-97872419D01*
X171161027Y-98824800D02*
X171303884Y-98872419D01*
X171303884Y-98872419D02*
X171541979Y-98872419D01*
X171541979Y-98872419D02*
X171637217Y-98824800D01*
X171637217Y-98824800D02*
X171684836Y-98777180D01*
X171684836Y-98777180D02*
X171732455Y-98681942D01*
X171732455Y-98681942D02*
X171732455Y-98586704D01*
X171732455Y-98586704D02*
X171684836Y-98491466D01*
X171684836Y-98491466D02*
X171637217Y-98443847D01*
X171637217Y-98443847D02*
X171541979Y-98396228D01*
X171541979Y-98396228D02*
X171351503Y-98348609D01*
X171351503Y-98348609D02*
X171256265Y-98300990D01*
X171256265Y-98300990D02*
X171208646Y-98253371D01*
X171208646Y-98253371D02*
X171161027Y-98158133D01*
X171161027Y-98158133D02*
X171161027Y-98062895D01*
X171161027Y-98062895D02*
X171208646Y-97967657D01*
X171208646Y-97967657D02*
X171256265Y-97920038D01*
X171256265Y-97920038D02*
X171351503Y-97872419D01*
X171351503Y-97872419D02*
X171589598Y-97872419D01*
X171589598Y-97872419D02*
X171732455Y-97920038D01*
X172161027Y-98872419D02*
X172161027Y-97872419D01*
X172161027Y-97872419D02*
X172541979Y-97872419D01*
X172541979Y-97872419D02*
X172637217Y-97920038D01*
X172637217Y-97920038D02*
X172684836Y-97967657D01*
X172684836Y-97967657D02*
X172732455Y-98062895D01*
X172732455Y-98062895D02*
X172732455Y-98205752D01*
X172732455Y-98205752D02*
X172684836Y-98300990D01*
X172684836Y-98300990D02*
X172637217Y-98348609D01*
X172637217Y-98348609D02*
X172541979Y-98396228D01*
X172541979Y-98396228D02*
X172161027Y-98396228D01*
X174208646Y-97872419D02*
X174208646Y-98586704D01*
X174208646Y-98586704D02*
X174161027Y-98729561D01*
X174161027Y-98729561D02*
X174065789Y-98824800D01*
X174065789Y-98824800D02*
X173922932Y-98872419D01*
X173922932Y-98872419D02*
X173827694Y-98872419D01*
X174541980Y-97872419D02*
X175113408Y-97872419D01*
X174827694Y-98872419D02*
X174827694Y-97872419D01*
X175399123Y-98586704D02*
X175875313Y-98586704D01*
X175303885Y-98872419D02*
X175637218Y-97872419D01*
X175637218Y-97872419D02*
X175970551Y-98872419D01*
X176827694Y-97920038D02*
X176732456Y-97872419D01*
X176732456Y-97872419D02*
X176589599Y-97872419D01*
X176589599Y-97872419D02*
X176446742Y-97920038D01*
X176446742Y-97920038D02*
X176351504Y-98015276D01*
X176351504Y-98015276D02*
X176303885Y-98110514D01*
X176303885Y-98110514D02*
X176256266Y-98300990D01*
X176256266Y-98300990D02*
X176256266Y-98443847D01*
X176256266Y-98443847D02*
X176303885Y-98634323D01*
X176303885Y-98634323D02*
X176351504Y-98729561D01*
X176351504Y-98729561D02*
X176446742Y-98824800D01*
X176446742Y-98824800D02*
X176589599Y-98872419D01*
X176589599Y-98872419D02*
X176684837Y-98872419D01*
X176684837Y-98872419D02*
X176827694Y-98824800D01*
X176827694Y-98824800D02*
X176875313Y-98777180D01*
X176875313Y-98777180D02*
X176875313Y-98443847D01*
X176875313Y-98443847D02*
X176684837Y-98443847D01*
D11*
X150289160Y-65822200D02*
X150432017Y-65869819D01*
X150432017Y-65869819D02*
X150670112Y-65869819D01*
X150670112Y-65869819D02*
X150765350Y-65822200D01*
X150765350Y-65822200D02*
X150812969Y-65774580D01*
X150812969Y-65774580D02*
X150860588Y-65679342D01*
X150860588Y-65679342D02*
X150860588Y-65584104D01*
X150860588Y-65584104D02*
X150812969Y-65488866D01*
X150812969Y-65488866D02*
X150765350Y-65441247D01*
X150765350Y-65441247D02*
X150670112Y-65393628D01*
X150670112Y-65393628D02*
X150479636Y-65346009D01*
X150479636Y-65346009D02*
X150384398Y-65298390D01*
X150384398Y-65298390D02*
X150336779Y-65250771D01*
X150336779Y-65250771D02*
X150289160Y-65155533D01*
X150289160Y-65155533D02*
X150289160Y-65060295D01*
X150289160Y-65060295D02*
X150336779Y-64965057D01*
X150336779Y-64965057D02*
X150384398Y-64917438D01*
X150384398Y-64917438D02*
X150479636Y-64869819D01*
X150479636Y-64869819D02*
X150717731Y-64869819D01*
X150717731Y-64869819D02*
X150860588Y-64917438D01*
X151241541Y-65584104D02*
X151717731Y-65584104D01*
X151146303Y-65869819D02*
X151479636Y-64869819D01*
X151479636Y-64869819D02*
X151812969Y-65869819D01*
X152146303Y-65869819D02*
X152146303Y-64869819D01*
X152146303Y-64869819D02*
X152479636Y-65584104D01*
X152479636Y-65584104D02*
X152812969Y-64869819D01*
X152812969Y-64869819D02*
X152812969Y-65869819D01*
X154051065Y-65346009D02*
X154384398Y-65346009D01*
X154527255Y-65869819D02*
X154051065Y-65869819D01*
X154051065Y-65869819D02*
X154051065Y-64869819D01*
X154051065Y-64869819D02*
X154527255Y-64869819D01*
X155527255Y-65869819D02*
X155193922Y-65393628D01*
X154955827Y-65869819D02*
X154955827Y-64869819D01*
X154955827Y-64869819D02*
X155336779Y-64869819D01*
X155336779Y-64869819D02*
X155432017Y-64917438D01*
X155432017Y-64917438D02*
X155479636Y-64965057D01*
X155479636Y-64965057D02*
X155527255Y-65060295D01*
X155527255Y-65060295D02*
X155527255Y-65203152D01*
X155527255Y-65203152D02*
X155479636Y-65298390D01*
X155479636Y-65298390D02*
X155432017Y-65346009D01*
X155432017Y-65346009D02*
X155336779Y-65393628D01*
X155336779Y-65393628D02*
X154955827Y-65393628D01*
X155908208Y-65584104D02*
X156384398Y-65584104D01*
X155812970Y-65869819D02*
X156146303Y-64869819D01*
X156146303Y-64869819D02*
X156479636Y-65869819D01*
X156765351Y-65822200D02*
X156908208Y-65869819D01*
X156908208Y-65869819D02*
X157146303Y-65869819D01*
X157146303Y-65869819D02*
X157241541Y-65822200D01*
X157241541Y-65822200D02*
X157289160Y-65774580D01*
X157289160Y-65774580D02*
X157336779Y-65679342D01*
X157336779Y-65679342D02*
X157336779Y-65584104D01*
X157336779Y-65584104D02*
X157289160Y-65488866D01*
X157289160Y-65488866D02*
X157241541Y-65441247D01*
X157241541Y-65441247D02*
X157146303Y-65393628D01*
X157146303Y-65393628D02*
X156955827Y-65346009D01*
X156955827Y-65346009D02*
X156860589Y-65298390D01*
X156860589Y-65298390D02*
X156812970Y-65250771D01*
X156812970Y-65250771D02*
X156765351Y-65155533D01*
X156765351Y-65155533D02*
X156765351Y-65060295D01*
X156765351Y-65060295D02*
X156812970Y-64965057D01*
X156812970Y-64965057D02*
X156860589Y-64917438D01*
X156860589Y-64917438D02*
X156955827Y-64869819D01*
X156955827Y-64869819D02*
X157193922Y-64869819D01*
X157193922Y-64869819D02*
X157336779Y-64917438D01*
X157765351Y-65346009D02*
X158098684Y-65346009D01*
X158241541Y-65869819D02*
X157765351Y-65869819D01*
X157765351Y-65869819D02*
X157765351Y-64869819D01*
X157765351Y-64869819D02*
X158241541Y-64869819D01*
D12*
X142909069Y-120235250D02*
X143123355Y-120306678D01*
X143123355Y-120306678D02*
X143480497Y-120306678D01*
X143480497Y-120306678D02*
X143623355Y-120235250D01*
X143623355Y-120235250D02*
X143694783Y-120163821D01*
X143694783Y-120163821D02*
X143766212Y-120020964D01*
X143766212Y-120020964D02*
X143766212Y-119878107D01*
X143766212Y-119878107D02*
X143694783Y-119735250D01*
X143694783Y-119735250D02*
X143623355Y-119663821D01*
X143623355Y-119663821D02*
X143480497Y-119592392D01*
X143480497Y-119592392D02*
X143194783Y-119520964D01*
X143194783Y-119520964D02*
X143051926Y-119449535D01*
X143051926Y-119449535D02*
X142980497Y-119378107D01*
X142980497Y-119378107D02*
X142909069Y-119235250D01*
X142909069Y-119235250D02*
X142909069Y-119092392D01*
X142909069Y-119092392D02*
X142980497Y-118949535D01*
X142980497Y-118949535D02*
X143051926Y-118878107D01*
X143051926Y-118878107D02*
X143194783Y-118806678D01*
X143194783Y-118806678D02*
X143551926Y-118806678D01*
X143551926Y-118806678D02*
X143766212Y-118878107D01*
X144337640Y-119878107D02*
X145051926Y-119878107D01*
X144194783Y-120306678D02*
X144694783Y-118806678D01*
X144694783Y-118806678D02*
X145194783Y-120306678D01*
X145694782Y-120306678D02*
X145694782Y-118806678D01*
X145694782Y-118806678D02*
X146194782Y-119878107D01*
X146194782Y-119878107D02*
X146694782Y-118806678D01*
X146694782Y-118806678D02*
X146694782Y-120306678D01*
X149409068Y-120306678D02*
X148909068Y-119592392D01*
X148551925Y-120306678D02*
X148551925Y-118806678D01*
X148551925Y-118806678D02*
X149123354Y-118806678D01*
X149123354Y-118806678D02*
X149266211Y-118878107D01*
X149266211Y-118878107D02*
X149337640Y-118949535D01*
X149337640Y-118949535D02*
X149409068Y-119092392D01*
X149409068Y-119092392D02*
X149409068Y-119306678D01*
X149409068Y-119306678D02*
X149337640Y-119449535D01*
X149337640Y-119449535D02*
X149266211Y-119520964D01*
X149266211Y-119520964D02*
X149123354Y-119592392D01*
X149123354Y-119592392D02*
X148551925Y-119592392D01*
X149980497Y-120235250D02*
X150194783Y-120306678D01*
X150194783Y-120306678D02*
X150551925Y-120306678D01*
X150551925Y-120306678D02*
X150694783Y-120235250D01*
X150694783Y-120235250D02*
X150766211Y-120163821D01*
X150766211Y-120163821D02*
X150837640Y-120020964D01*
X150837640Y-120020964D02*
X150837640Y-119878107D01*
X150837640Y-119878107D02*
X150766211Y-119735250D01*
X150766211Y-119735250D02*
X150694783Y-119663821D01*
X150694783Y-119663821D02*
X150551925Y-119592392D01*
X150551925Y-119592392D02*
X150266211Y-119520964D01*
X150266211Y-119520964D02*
X150123354Y-119449535D01*
X150123354Y-119449535D02*
X150051925Y-119378107D01*
X150051925Y-119378107D02*
X149980497Y-119235250D01*
X149980497Y-119235250D02*
X149980497Y-119092392D01*
X149980497Y-119092392D02*
X150051925Y-118949535D01*
X150051925Y-118949535D02*
X150123354Y-118878107D01*
X150123354Y-118878107D02*
X150266211Y-118806678D01*
X150266211Y-118806678D02*
X150623354Y-118806678D01*
X150623354Y-118806678D02*
X150837640Y-118878107D01*
X151266211Y-118806678D02*
X152123354Y-118806678D01*
X151694782Y-120306678D02*
X151694782Y-118806678D01*
D10*
X141327693Y-101042587D02*
X140756265Y-101042587D01*
X141041979Y-101042587D02*
X141041979Y-100042587D01*
X141041979Y-100042587D02*
X140946741Y-100185444D01*
X140946741Y-100185444D02*
X140851503Y-100280682D01*
X140851503Y-100280682D02*
X140756265Y-100328301D01*
X142518170Y-100518777D02*
X143280075Y-100518777D01*
X143280075Y-100804491D02*
X142518170Y-100804491D01*
X144470551Y-100994968D02*
X144613408Y-101042587D01*
X144613408Y-101042587D02*
X144851503Y-101042587D01*
X144851503Y-101042587D02*
X144946741Y-100994968D01*
X144946741Y-100994968D02*
X144994360Y-100947348D01*
X144994360Y-100947348D02*
X145041979Y-100852110D01*
X145041979Y-100852110D02*
X145041979Y-100756872D01*
X145041979Y-100756872D02*
X144994360Y-100661634D01*
X144994360Y-100661634D02*
X144946741Y-100614015D01*
X144946741Y-100614015D02*
X144851503Y-100566396D01*
X144851503Y-100566396D02*
X144661027Y-100518777D01*
X144661027Y-100518777D02*
X144565789Y-100471158D01*
X144565789Y-100471158D02*
X144518170Y-100423539D01*
X144518170Y-100423539D02*
X144470551Y-100328301D01*
X144470551Y-100328301D02*
X144470551Y-100233063D01*
X144470551Y-100233063D02*
X144518170Y-100137825D01*
X144518170Y-100137825D02*
X144565789Y-100090206D01*
X144565789Y-100090206D02*
X144661027Y-100042587D01*
X144661027Y-100042587D02*
X144899122Y-100042587D01*
X144899122Y-100042587D02*
X145041979Y-100090206D01*
X145422932Y-100756872D02*
X145899122Y-100756872D01*
X145327694Y-101042587D02*
X145661027Y-100042587D01*
X145661027Y-100042587D02*
X145994360Y-101042587D01*
X146327694Y-101042587D02*
X146327694Y-100042587D01*
X146327694Y-100042587D02*
X146661027Y-100756872D01*
X146661027Y-100756872D02*
X146994360Y-100042587D01*
X146994360Y-100042587D02*
X146994360Y-101042587D01*
X147470551Y-100661634D02*
X148232456Y-100661634D01*
X149280074Y-101042587D02*
X148946741Y-100566396D01*
X148708646Y-101042587D02*
X148708646Y-100042587D01*
X148708646Y-100042587D02*
X149089598Y-100042587D01*
X149089598Y-100042587D02*
X149184836Y-100090206D01*
X149184836Y-100090206D02*
X149232455Y-100137825D01*
X149232455Y-100137825D02*
X149280074Y-100233063D01*
X149280074Y-100233063D02*
X149280074Y-100375920D01*
X149280074Y-100375920D02*
X149232455Y-100471158D01*
X149232455Y-100471158D02*
X149184836Y-100518777D01*
X149184836Y-100518777D02*
X149089598Y-100566396D01*
X149089598Y-100566396D02*
X148708646Y-100566396D01*
X149661027Y-100994968D02*
X149803884Y-101042587D01*
X149803884Y-101042587D02*
X150041979Y-101042587D01*
X150041979Y-101042587D02*
X150137217Y-100994968D01*
X150137217Y-100994968D02*
X150184836Y-100947348D01*
X150184836Y-100947348D02*
X150232455Y-100852110D01*
X150232455Y-100852110D02*
X150232455Y-100756872D01*
X150232455Y-100756872D02*
X150184836Y-100661634D01*
X150184836Y-100661634D02*
X150137217Y-100614015D01*
X150137217Y-100614015D02*
X150041979Y-100566396D01*
X150041979Y-100566396D02*
X149851503Y-100518777D01*
X149851503Y-100518777D02*
X149756265Y-100471158D01*
X149756265Y-100471158D02*
X149708646Y-100423539D01*
X149708646Y-100423539D02*
X149661027Y-100328301D01*
X149661027Y-100328301D02*
X149661027Y-100233063D01*
X149661027Y-100233063D02*
X149708646Y-100137825D01*
X149708646Y-100137825D02*
X149756265Y-100090206D01*
X149756265Y-100090206D02*
X149851503Y-100042587D01*
X149851503Y-100042587D02*
X150089598Y-100042587D01*
X150089598Y-100042587D02*
X150232455Y-100090206D01*
X150518170Y-100042587D02*
X151089598Y-100042587D01*
X150803884Y-101042587D02*
X150803884Y-100042587D01*
X140756265Y-101747769D02*
X140803884Y-101700150D01*
X140803884Y-101700150D02*
X140899122Y-101652531D01*
X140899122Y-101652531D02*
X141137217Y-101652531D01*
X141137217Y-101652531D02*
X141232455Y-101700150D01*
X141232455Y-101700150D02*
X141280074Y-101747769D01*
X141280074Y-101747769D02*
X141327693Y-101843007D01*
X141327693Y-101843007D02*
X141327693Y-101938245D01*
X141327693Y-101938245D02*
X141280074Y-102081102D01*
X141280074Y-102081102D02*
X140708646Y-102652531D01*
X140708646Y-102652531D02*
X141327693Y-102652531D01*
X142518170Y-102128721D02*
X143280075Y-102128721D01*
X143280075Y-102414435D02*
X142518170Y-102414435D01*
X144518170Y-102128721D02*
X144851503Y-102128721D01*
X144994360Y-102652531D02*
X144518170Y-102652531D01*
X144518170Y-102652531D02*
X144518170Y-101652531D01*
X144518170Y-101652531D02*
X144994360Y-101652531D01*
X145375313Y-102604912D02*
X145518170Y-102652531D01*
X145518170Y-102652531D02*
X145756265Y-102652531D01*
X145756265Y-102652531D02*
X145851503Y-102604912D01*
X145851503Y-102604912D02*
X145899122Y-102557292D01*
X145899122Y-102557292D02*
X145946741Y-102462054D01*
X145946741Y-102462054D02*
X145946741Y-102366816D01*
X145946741Y-102366816D02*
X145899122Y-102271578D01*
X145899122Y-102271578D02*
X145851503Y-102223959D01*
X145851503Y-102223959D02*
X145756265Y-102176340D01*
X145756265Y-102176340D02*
X145565789Y-102128721D01*
X145565789Y-102128721D02*
X145470551Y-102081102D01*
X145470551Y-102081102D02*
X145422932Y-102033483D01*
X145422932Y-102033483D02*
X145375313Y-101938245D01*
X145375313Y-101938245D02*
X145375313Y-101843007D01*
X145375313Y-101843007D02*
X145422932Y-101747769D01*
X145422932Y-101747769D02*
X145470551Y-101700150D01*
X145470551Y-101700150D02*
X145565789Y-101652531D01*
X145565789Y-101652531D02*
X145803884Y-101652531D01*
X145803884Y-101652531D02*
X145946741Y-101700150D01*
X146375313Y-102652531D02*
X146375313Y-101652531D01*
X146375313Y-101652531D02*
X146756265Y-101652531D01*
X146756265Y-101652531D02*
X146851503Y-101700150D01*
X146851503Y-101700150D02*
X146899122Y-101747769D01*
X146899122Y-101747769D02*
X146946741Y-101843007D01*
X146946741Y-101843007D02*
X146946741Y-101985864D01*
X146946741Y-101985864D02*
X146899122Y-102081102D01*
X146899122Y-102081102D02*
X146851503Y-102128721D01*
X146851503Y-102128721D02*
X146756265Y-102176340D01*
X146756265Y-102176340D02*
X146375313Y-102176340D01*
X147375313Y-102271578D02*
X148137218Y-102271578D01*
X148946741Y-102128721D02*
X148613408Y-102128721D01*
X148613408Y-102652531D02*
X148613408Y-101652531D01*
X148613408Y-101652531D02*
X149089598Y-101652531D01*
X149946741Y-102652531D02*
X149470551Y-102652531D01*
X149470551Y-102652531D02*
X149470551Y-101652531D01*
X150232456Y-102366816D02*
X150708646Y-102366816D01*
X150137218Y-102652531D02*
X150470551Y-101652531D01*
X150470551Y-101652531D02*
X150803884Y-102652531D01*
X151089599Y-102604912D02*
X151232456Y-102652531D01*
X151232456Y-102652531D02*
X151470551Y-102652531D01*
X151470551Y-102652531D02*
X151565789Y-102604912D01*
X151565789Y-102604912D02*
X151613408Y-102557292D01*
X151613408Y-102557292D02*
X151661027Y-102462054D01*
X151661027Y-102462054D02*
X151661027Y-102366816D01*
X151661027Y-102366816D02*
X151613408Y-102271578D01*
X151613408Y-102271578D02*
X151565789Y-102223959D01*
X151565789Y-102223959D02*
X151470551Y-102176340D01*
X151470551Y-102176340D02*
X151280075Y-102128721D01*
X151280075Y-102128721D02*
X151184837Y-102081102D01*
X151184837Y-102081102D02*
X151137218Y-102033483D01*
X151137218Y-102033483D02*
X151089599Y-101938245D01*
X151089599Y-101938245D02*
X151089599Y-101843007D01*
X151089599Y-101843007D02*
X151137218Y-101747769D01*
X151137218Y-101747769D02*
X151184837Y-101700150D01*
X151184837Y-101700150D02*
X151280075Y-101652531D01*
X151280075Y-101652531D02*
X151518170Y-101652531D01*
X151518170Y-101652531D02*
X151661027Y-101700150D01*
X152089599Y-102652531D02*
X152089599Y-101652531D01*
X152089599Y-102128721D02*
X152661027Y-102128721D01*
X152661027Y-102652531D02*
X152661027Y-101652531D01*
X140708646Y-103262475D02*
X141327693Y-103262475D01*
X141327693Y-103262475D02*
X140994360Y-103643427D01*
X140994360Y-103643427D02*
X141137217Y-103643427D01*
X141137217Y-103643427D02*
X141232455Y-103691046D01*
X141232455Y-103691046D02*
X141280074Y-103738665D01*
X141280074Y-103738665D02*
X141327693Y-103833903D01*
X141327693Y-103833903D02*
X141327693Y-104071998D01*
X141327693Y-104071998D02*
X141280074Y-104167236D01*
X141280074Y-104167236D02*
X141232455Y-104214856D01*
X141232455Y-104214856D02*
X141137217Y-104262475D01*
X141137217Y-104262475D02*
X140851503Y-104262475D01*
X140851503Y-104262475D02*
X140756265Y-104214856D01*
X140756265Y-104214856D02*
X140708646Y-104167236D01*
X142518170Y-103738665D02*
X143280075Y-103738665D01*
X143280075Y-104024379D02*
X142518170Y-104024379D01*
X144518170Y-104262475D02*
X144518170Y-103262475D01*
X144518170Y-103262475D02*
X145089598Y-104262475D01*
X145089598Y-104262475D02*
X145089598Y-103262475D01*
X146137217Y-104167236D02*
X146089598Y-104214856D01*
X146089598Y-104214856D02*
X145946741Y-104262475D01*
X145946741Y-104262475D02*
X145851503Y-104262475D01*
X145851503Y-104262475D02*
X145708646Y-104214856D01*
X145708646Y-104214856D02*
X145613408Y-104119617D01*
X145613408Y-104119617D02*
X145565789Y-104024379D01*
X145565789Y-104024379D02*
X145518170Y-103833903D01*
X145518170Y-103833903D02*
X145518170Y-103691046D01*
X145518170Y-103691046D02*
X145565789Y-103500570D01*
X145565789Y-103500570D02*
X145613408Y-103405332D01*
X145613408Y-103405332D02*
X145708646Y-103310094D01*
X145708646Y-103310094D02*
X145851503Y-103262475D01*
X145851503Y-103262475D02*
X145946741Y-103262475D01*
X145946741Y-103262475D02*
X146089598Y-103310094D01*
X146089598Y-103310094D02*
X146137217Y-103357713D01*
X141232455Y-105205752D02*
X141232455Y-105872419D01*
X140994360Y-104824800D02*
X140756265Y-105539085D01*
X140756265Y-105539085D02*
X141375312Y-105539085D01*
X142518170Y-105348609D02*
X143280075Y-105348609D01*
X143280075Y-105634323D02*
X142518170Y-105634323D01*
X144518170Y-105872419D02*
X144518170Y-104872419D01*
X144518170Y-104872419D02*
X145089598Y-105872419D01*
X145089598Y-105872419D02*
X145089598Y-104872419D01*
X146137217Y-105777180D02*
X146089598Y-105824800D01*
X146089598Y-105824800D02*
X145946741Y-105872419D01*
X145946741Y-105872419D02*
X145851503Y-105872419D01*
X145851503Y-105872419D02*
X145708646Y-105824800D01*
X145708646Y-105824800D02*
X145613408Y-105729561D01*
X145613408Y-105729561D02*
X145565789Y-105634323D01*
X145565789Y-105634323D02*
X145518170Y-105443847D01*
X145518170Y-105443847D02*
X145518170Y-105300990D01*
X145518170Y-105300990D02*
X145565789Y-105110514D01*
X145565789Y-105110514D02*
X145613408Y-105015276D01*
X145613408Y-105015276D02*
X145708646Y-104920038D01*
X145708646Y-104920038D02*
X145851503Y-104872419D01*
X145851503Y-104872419D02*
X145946741Y-104872419D01*
X145946741Y-104872419D02*
X146089598Y-104920038D01*
X146089598Y-104920038D02*
X146137217Y-104967657D01*
X139756265Y-74824800D02*
X139899122Y-74872419D01*
X139899122Y-74872419D02*
X140137217Y-74872419D01*
X140137217Y-74872419D02*
X140232455Y-74824800D01*
X140232455Y-74824800D02*
X140280074Y-74777180D01*
X140280074Y-74777180D02*
X140327693Y-74681942D01*
X140327693Y-74681942D02*
X140327693Y-74586704D01*
X140327693Y-74586704D02*
X140280074Y-74491466D01*
X140280074Y-74491466D02*
X140232455Y-74443847D01*
X140232455Y-74443847D02*
X140137217Y-74396228D01*
X140137217Y-74396228D02*
X139946741Y-74348609D01*
X139946741Y-74348609D02*
X139851503Y-74300990D01*
X139851503Y-74300990D02*
X139803884Y-74253371D01*
X139803884Y-74253371D02*
X139756265Y-74158133D01*
X139756265Y-74158133D02*
X139756265Y-74062895D01*
X139756265Y-74062895D02*
X139803884Y-73967657D01*
X139803884Y-73967657D02*
X139851503Y-73920038D01*
X139851503Y-73920038D02*
X139946741Y-73872419D01*
X139946741Y-73872419D02*
X140184836Y-73872419D01*
X140184836Y-73872419D02*
X140327693Y-73920038D01*
X140708646Y-74586704D02*
X141184836Y-74586704D01*
X140613408Y-74872419D02*
X140946741Y-73872419D01*
X140946741Y-73872419D02*
X141280074Y-74872419D01*
X141613408Y-74872419D02*
X141613408Y-73872419D01*
X141613408Y-73872419D02*
X141946741Y-74586704D01*
X141946741Y-74586704D02*
X142280074Y-73872419D01*
X142280074Y-73872419D02*
X142280074Y-74872419D01*
X143518170Y-73872419D02*
X143518170Y-74681942D01*
X143518170Y-74681942D02*
X143565789Y-74777180D01*
X143565789Y-74777180D02*
X143613408Y-74824800D01*
X143613408Y-74824800D02*
X143708646Y-74872419D01*
X143708646Y-74872419D02*
X143899122Y-74872419D01*
X143899122Y-74872419D02*
X143994360Y-74824800D01*
X143994360Y-74824800D02*
X144041979Y-74777180D01*
X144041979Y-74777180D02*
X144089598Y-74681942D01*
X144089598Y-74681942D02*
X144089598Y-73872419D01*
X144518170Y-74586704D02*
X144994360Y-74586704D01*
X144422932Y-74872419D02*
X144756265Y-73872419D01*
X144756265Y-73872419D02*
X145089598Y-74872419D01*
X145994360Y-74872419D02*
X145661027Y-74396228D01*
X145422932Y-74872419D02*
X145422932Y-73872419D01*
X145422932Y-73872419D02*
X145803884Y-73872419D01*
X145803884Y-73872419D02*
X145899122Y-73920038D01*
X145899122Y-73920038D02*
X145946741Y-73967657D01*
X145946741Y-73967657D02*
X145994360Y-74062895D01*
X145994360Y-74062895D02*
X145994360Y-74205752D01*
X145994360Y-74205752D02*
X145946741Y-74300990D01*
X145946741Y-74300990D02*
X145899122Y-74348609D01*
X145899122Y-74348609D02*
X145803884Y-74396228D01*
X145803884Y-74396228D02*
X145422932Y-74396228D01*
X146280075Y-73872419D02*
X146851503Y-73872419D01*
X146565789Y-74872419D02*
X146565789Y-73872419D01*
X147375313Y-73872419D02*
X147470551Y-73872419D01*
X147470551Y-73872419D02*
X147565789Y-73920038D01*
X147565789Y-73920038D02*
X147613408Y-73967657D01*
X147613408Y-73967657D02*
X147661027Y-74062895D01*
X147661027Y-74062895D02*
X147708646Y-74253371D01*
X147708646Y-74253371D02*
X147708646Y-74491466D01*
X147708646Y-74491466D02*
X147661027Y-74681942D01*
X147661027Y-74681942D02*
X147613408Y-74777180D01*
X147613408Y-74777180D02*
X147565789Y-74824800D01*
X147565789Y-74824800D02*
X147470551Y-74872419D01*
X147470551Y-74872419D02*
X147375313Y-74872419D01*
X147375313Y-74872419D02*
X147280075Y-74824800D01*
X147280075Y-74824800D02*
X147232456Y-74777180D01*
X147232456Y-74777180D02*
X147184837Y-74681942D01*
X147184837Y-74681942D02*
X147137218Y-74491466D01*
X147137218Y-74491466D02*
X147137218Y-74253371D01*
X147137218Y-74253371D02*
X147184837Y-74062895D01*
X147184837Y-74062895D02*
X147232456Y-73967657D01*
X147232456Y-73967657D02*
X147280075Y-73920038D01*
X147280075Y-73920038D02*
X147375313Y-73872419D01*
X126324800Y-88743734D02*
X126372419Y-88600877D01*
X126372419Y-88600877D02*
X126372419Y-88362782D01*
X126372419Y-88362782D02*
X126324800Y-88267544D01*
X126324800Y-88267544D02*
X126277180Y-88219925D01*
X126277180Y-88219925D02*
X126181942Y-88172306D01*
X126181942Y-88172306D02*
X126086704Y-88172306D01*
X126086704Y-88172306D02*
X125991466Y-88219925D01*
X125991466Y-88219925D02*
X125943847Y-88267544D01*
X125943847Y-88267544D02*
X125896228Y-88362782D01*
X125896228Y-88362782D02*
X125848609Y-88553258D01*
X125848609Y-88553258D02*
X125800990Y-88648496D01*
X125800990Y-88648496D02*
X125753371Y-88696115D01*
X125753371Y-88696115D02*
X125658133Y-88743734D01*
X125658133Y-88743734D02*
X125562895Y-88743734D01*
X125562895Y-88743734D02*
X125467657Y-88696115D01*
X125467657Y-88696115D02*
X125420038Y-88648496D01*
X125420038Y-88648496D02*
X125372419Y-88553258D01*
X125372419Y-88553258D02*
X125372419Y-88315163D01*
X125372419Y-88315163D02*
X125420038Y-88172306D01*
X126086704Y-87791353D02*
X126086704Y-87315163D01*
X126372419Y-87886591D02*
X125372419Y-87553258D01*
X125372419Y-87553258D02*
X126372419Y-87219925D01*
X126372419Y-86886591D02*
X125372419Y-86886591D01*
X125372419Y-86886591D02*
X126086704Y-86553258D01*
X126086704Y-86553258D02*
X125372419Y-86219925D01*
X125372419Y-86219925D02*
X126372419Y-86219925D01*
X126324800Y-85029448D02*
X126372419Y-84886591D01*
X126372419Y-84886591D02*
X126372419Y-84648496D01*
X126372419Y-84648496D02*
X126324800Y-84553258D01*
X126324800Y-84553258D02*
X126277180Y-84505639D01*
X126277180Y-84505639D02*
X126181942Y-84458020D01*
X126181942Y-84458020D02*
X126086704Y-84458020D01*
X126086704Y-84458020D02*
X125991466Y-84505639D01*
X125991466Y-84505639D02*
X125943847Y-84553258D01*
X125943847Y-84553258D02*
X125896228Y-84648496D01*
X125896228Y-84648496D02*
X125848609Y-84838972D01*
X125848609Y-84838972D02*
X125800990Y-84934210D01*
X125800990Y-84934210D02*
X125753371Y-84981829D01*
X125753371Y-84981829D02*
X125658133Y-85029448D01*
X125658133Y-85029448D02*
X125562895Y-85029448D01*
X125562895Y-85029448D02*
X125467657Y-84981829D01*
X125467657Y-84981829D02*
X125420038Y-84934210D01*
X125420038Y-84934210D02*
X125372419Y-84838972D01*
X125372419Y-84838972D02*
X125372419Y-84600877D01*
X125372419Y-84600877D02*
X125420038Y-84458020D01*
X125372419Y-84124686D02*
X126372419Y-83886591D01*
X126372419Y-83886591D02*
X125658133Y-83696115D01*
X125658133Y-83696115D02*
X126372419Y-83505639D01*
X126372419Y-83505639D02*
X125372419Y-83267544D01*
X126372419Y-82886591D02*
X125372419Y-82886591D01*
X125372419Y-82886591D02*
X125372419Y-82648496D01*
X125372419Y-82648496D02*
X125420038Y-82505639D01*
X125420038Y-82505639D02*
X125515276Y-82410401D01*
X125515276Y-82410401D02*
X125610514Y-82362782D01*
X125610514Y-82362782D02*
X125800990Y-82315163D01*
X125800990Y-82315163D02*
X125943847Y-82315163D01*
X125943847Y-82315163D02*
X126134323Y-82362782D01*
X126134323Y-82362782D02*
X126229561Y-82410401D01*
X126229561Y-82410401D02*
X126324800Y-82505639D01*
X126324800Y-82505639D02*
X126372419Y-82648496D01*
X126372419Y-82648496D02*
X126372419Y-82886591D01*
X184848609Y-81196115D02*
X184848609Y-80862782D01*
X185372419Y-80719925D02*
X185372419Y-81196115D01*
X185372419Y-81196115D02*
X184372419Y-81196115D01*
X184372419Y-81196115D02*
X184372419Y-80719925D01*
X185324800Y-80338972D02*
X185372419Y-80196115D01*
X185372419Y-80196115D02*
X185372419Y-79958020D01*
X185372419Y-79958020D02*
X185324800Y-79862782D01*
X185324800Y-79862782D02*
X185277180Y-79815163D01*
X185277180Y-79815163D02*
X185181942Y-79767544D01*
X185181942Y-79767544D02*
X185086704Y-79767544D01*
X185086704Y-79767544D02*
X184991466Y-79815163D01*
X184991466Y-79815163D02*
X184943847Y-79862782D01*
X184943847Y-79862782D02*
X184896228Y-79958020D01*
X184896228Y-79958020D02*
X184848609Y-80148496D01*
X184848609Y-80148496D02*
X184800990Y-80243734D01*
X184800990Y-80243734D02*
X184753371Y-80291353D01*
X184753371Y-80291353D02*
X184658133Y-80338972D01*
X184658133Y-80338972D02*
X184562895Y-80338972D01*
X184562895Y-80338972D02*
X184467657Y-80291353D01*
X184467657Y-80291353D02*
X184420038Y-80243734D01*
X184420038Y-80243734D02*
X184372419Y-80148496D01*
X184372419Y-80148496D02*
X184372419Y-79910401D01*
X184372419Y-79910401D02*
X184420038Y-79767544D01*
X185372419Y-79338972D02*
X184372419Y-79338972D01*
X184372419Y-79338972D02*
X184372419Y-78958020D01*
X184372419Y-78958020D02*
X184420038Y-78862782D01*
X184420038Y-78862782D02*
X184467657Y-78815163D01*
X184467657Y-78815163D02*
X184562895Y-78767544D01*
X184562895Y-78767544D02*
X184705752Y-78767544D01*
X184705752Y-78767544D02*
X184800990Y-78815163D01*
X184800990Y-78815163D02*
X184848609Y-78862782D01*
X184848609Y-78862782D02*
X184896228Y-78958020D01*
X184896228Y-78958020D02*
X184896228Y-79338972D01*
X184372419Y-77577067D02*
X185181942Y-77577067D01*
X185181942Y-77577067D02*
X185277180Y-77529448D01*
X185277180Y-77529448D02*
X185324800Y-77481829D01*
X185324800Y-77481829D02*
X185372419Y-77386591D01*
X185372419Y-77386591D02*
X185372419Y-77196115D01*
X185372419Y-77196115D02*
X185324800Y-77100877D01*
X185324800Y-77100877D02*
X185277180Y-77053258D01*
X185277180Y-77053258D02*
X185181942Y-77005639D01*
X185181942Y-77005639D02*
X184372419Y-77005639D01*
X185086704Y-76577067D02*
X185086704Y-76100877D01*
X185372419Y-76672305D02*
X184372419Y-76338972D01*
X184372419Y-76338972D02*
X185372419Y-76005639D01*
X185372419Y-75100877D02*
X184896228Y-75434210D01*
X185372419Y-75672305D02*
X184372419Y-75672305D01*
X184372419Y-75672305D02*
X184372419Y-75291353D01*
X184372419Y-75291353D02*
X184420038Y-75196115D01*
X184420038Y-75196115D02*
X184467657Y-75148496D01*
X184467657Y-75148496D02*
X184562895Y-75100877D01*
X184562895Y-75100877D02*
X184705752Y-75100877D01*
X184705752Y-75100877D02*
X184800990Y-75148496D01*
X184800990Y-75148496D02*
X184848609Y-75196115D01*
X184848609Y-75196115D02*
X184896228Y-75291353D01*
X184896228Y-75291353D02*
X184896228Y-75672305D01*
X184372419Y-74815162D02*
X184372419Y-74243734D01*
X185372419Y-74529448D02*
X184372419Y-74529448D01*
D13*
X125911653Y-66800828D02*
X125411653Y-66086542D01*
X125054510Y-66800828D02*
X125054510Y-65300828D01*
X125054510Y-65300828D02*
X125625939Y-65300828D01*
X125625939Y-65300828D02*
X125768796Y-65372257D01*
X125768796Y-65372257D02*
X125840225Y-65443685D01*
X125840225Y-65443685D02*
X125911653Y-65586542D01*
X125911653Y-65586542D02*
X125911653Y-65800828D01*
X125911653Y-65800828D02*
X125840225Y-65943685D01*
X125840225Y-65943685D02*
X125768796Y-66015114D01*
X125768796Y-66015114D02*
X125625939Y-66086542D01*
X125625939Y-66086542D02*
X125054510Y-66086542D01*
X127125939Y-66729400D02*
X126983082Y-66800828D01*
X126983082Y-66800828D02*
X126697368Y-66800828D01*
X126697368Y-66800828D02*
X126554510Y-66729400D01*
X126554510Y-66729400D02*
X126483082Y-66586542D01*
X126483082Y-66586542D02*
X126483082Y-66015114D01*
X126483082Y-66015114D02*
X126554510Y-65872257D01*
X126554510Y-65872257D02*
X126697368Y-65800828D01*
X126697368Y-65800828D02*
X126983082Y-65800828D01*
X126983082Y-65800828D02*
X127125939Y-65872257D01*
X127125939Y-65872257D02*
X127197368Y-66015114D01*
X127197368Y-66015114D02*
X127197368Y-66157971D01*
X127197368Y-66157971D02*
X126483082Y-66300828D01*
X127840224Y-66800828D02*
X127840224Y-65800828D01*
X127840224Y-65943685D02*
X127911653Y-65872257D01*
X127911653Y-65872257D02*
X128054510Y-65800828D01*
X128054510Y-65800828D02*
X128268796Y-65800828D01*
X128268796Y-65800828D02*
X128411653Y-65872257D01*
X128411653Y-65872257D02*
X128483082Y-66015114D01*
X128483082Y-66015114D02*
X128483082Y-66800828D01*
X128483082Y-66015114D02*
X128554510Y-65872257D01*
X128554510Y-65872257D02*
X128697367Y-65800828D01*
X128697367Y-65800828D02*
X128911653Y-65800828D01*
X128911653Y-65800828D02*
X129054510Y-65872257D01*
X129054510Y-65872257D02*
X129125939Y-66015114D01*
X129125939Y-66015114D02*
X129125939Y-66800828D01*
X129840224Y-66800828D02*
X129840224Y-65800828D01*
X129840224Y-65300828D02*
X129768796Y-65372257D01*
X129768796Y-65372257D02*
X129840224Y-65443685D01*
X129840224Y-65443685D02*
X129911653Y-65372257D01*
X129911653Y-65372257D02*
X129840224Y-65300828D01*
X129840224Y-65300828D02*
X129840224Y-65443685D01*
X131411653Y-66800828D02*
X130911653Y-66086542D01*
X130554510Y-66800828D02*
X130554510Y-65300828D01*
X130554510Y-65300828D02*
X131125939Y-65300828D01*
X131125939Y-65300828D02*
X131268796Y-65372257D01*
X131268796Y-65372257D02*
X131340225Y-65443685D01*
X131340225Y-65443685D02*
X131411653Y-65586542D01*
X131411653Y-65586542D02*
X131411653Y-65800828D01*
X131411653Y-65800828D02*
X131340225Y-65943685D01*
X131340225Y-65943685D02*
X131268796Y-66015114D01*
X131268796Y-66015114D02*
X131125939Y-66086542D01*
X131125939Y-66086542D02*
X130554510Y-66086542D01*
X131983082Y-66372257D02*
X132697368Y-66372257D01*
X131840225Y-66800828D02*
X132340225Y-65300828D01*
X132340225Y-65300828D02*
X132840225Y-66800828D01*
X133125939Y-65300828D02*
X133983082Y-65300828D01*
X133554510Y-66800828D02*
X133554510Y-65300828D01*
X135483081Y-65800828D02*
X135840224Y-66800828D01*
X135840224Y-66800828D02*
X136197367Y-65800828D01*
X137054510Y-65300828D02*
X137197367Y-65300828D01*
X137197367Y-65300828D02*
X137340224Y-65372257D01*
X137340224Y-65372257D02*
X137411653Y-65443685D01*
X137411653Y-65443685D02*
X137483081Y-65586542D01*
X137483081Y-65586542D02*
X137554510Y-65872257D01*
X137554510Y-65872257D02*
X137554510Y-66229400D01*
X137554510Y-66229400D02*
X137483081Y-66515114D01*
X137483081Y-66515114D02*
X137411653Y-66657971D01*
X137411653Y-66657971D02*
X137340224Y-66729400D01*
X137340224Y-66729400D02*
X137197367Y-66800828D01*
X137197367Y-66800828D02*
X137054510Y-66800828D01*
X137054510Y-66800828D02*
X136911653Y-66729400D01*
X136911653Y-66729400D02*
X136840224Y-66657971D01*
X136840224Y-66657971D02*
X136768795Y-66515114D01*
X136768795Y-66515114D02*
X136697367Y-66229400D01*
X136697367Y-66229400D02*
X136697367Y-65872257D01*
X136697367Y-65872257D02*
X136768795Y-65586542D01*
X136768795Y-65586542D02*
X136840224Y-65443685D01*
X136840224Y-65443685D02*
X136911653Y-65372257D01*
X136911653Y-65372257D02*
X137054510Y-65300828D01*
X138483081Y-65300828D02*
X138625938Y-65300828D01*
X138625938Y-65300828D02*
X138768795Y-65372257D01*
X138768795Y-65372257D02*
X138840224Y-65443685D01*
X138840224Y-65443685D02*
X138911652Y-65586542D01*
X138911652Y-65586542D02*
X138983081Y-65872257D01*
X138983081Y-65872257D02*
X138983081Y-66229400D01*
X138983081Y-66229400D02*
X138911652Y-66515114D01*
X138911652Y-66515114D02*
X138840224Y-66657971D01*
X138840224Y-66657971D02*
X138768795Y-66729400D01*
X138768795Y-66729400D02*
X138625938Y-66800828D01*
X138625938Y-66800828D02*
X138483081Y-66800828D01*
X138483081Y-66800828D02*
X138340224Y-66729400D01*
X138340224Y-66729400D02*
X138268795Y-66657971D01*
X138268795Y-66657971D02*
X138197366Y-66515114D01*
X138197366Y-66515114D02*
X138125938Y-66229400D01*
X138125938Y-66229400D02*
X138125938Y-65872257D01*
X138125938Y-65872257D02*
X138197366Y-65586542D01*
X138197366Y-65586542D02*
X138268795Y-65443685D01*
X138268795Y-65443685D02*
X138340224Y-65372257D01*
X138340224Y-65372257D02*
X138483081Y-65300828D01*
D10*
X157444800Y-92053734D02*
X157492419Y-91910877D01*
X157492419Y-91910877D02*
X157492419Y-91672782D01*
X157492419Y-91672782D02*
X157444800Y-91577544D01*
X157444800Y-91577544D02*
X157397180Y-91529925D01*
X157397180Y-91529925D02*
X157301942Y-91482306D01*
X157301942Y-91482306D02*
X157206704Y-91482306D01*
X157206704Y-91482306D02*
X157111466Y-91529925D01*
X157111466Y-91529925D02*
X157063847Y-91577544D01*
X157063847Y-91577544D02*
X157016228Y-91672782D01*
X157016228Y-91672782D02*
X156968609Y-91863258D01*
X156968609Y-91863258D02*
X156920990Y-91958496D01*
X156920990Y-91958496D02*
X156873371Y-92006115D01*
X156873371Y-92006115D02*
X156778133Y-92053734D01*
X156778133Y-92053734D02*
X156682895Y-92053734D01*
X156682895Y-92053734D02*
X156587657Y-92006115D01*
X156587657Y-92006115D02*
X156540038Y-91958496D01*
X156540038Y-91958496D02*
X156492419Y-91863258D01*
X156492419Y-91863258D02*
X156492419Y-91625163D01*
X156492419Y-91625163D02*
X156540038Y-91482306D01*
X157206704Y-91101353D02*
X157206704Y-90625163D01*
X157492419Y-91196591D02*
X156492419Y-90863258D01*
X156492419Y-90863258D02*
X157492419Y-90529925D01*
X157492419Y-90196591D02*
X156492419Y-90196591D01*
X156492419Y-90196591D02*
X157206704Y-89863258D01*
X157206704Y-89863258D02*
X156492419Y-89529925D01*
X156492419Y-89529925D02*
X157492419Y-89529925D01*
X157444800Y-89101353D02*
X157492419Y-88958496D01*
X157492419Y-88958496D02*
X157492419Y-88720401D01*
X157492419Y-88720401D02*
X157444800Y-88625163D01*
X157444800Y-88625163D02*
X157397180Y-88577544D01*
X157397180Y-88577544D02*
X157301942Y-88529925D01*
X157301942Y-88529925D02*
X157206704Y-88529925D01*
X157206704Y-88529925D02*
X157111466Y-88577544D01*
X157111466Y-88577544D02*
X157063847Y-88625163D01*
X157063847Y-88625163D02*
X157016228Y-88720401D01*
X157016228Y-88720401D02*
X156968609Y-88910877D01*
X156968609Y-88910877D02*
X156920990Y-89006115D01*
X156920990Y-89006115D02*
X156873371Y-89053734D01*
X156873371Y-89053734D02*
X156778133Y-89101353D01*
X156778133Y-89101353D02*
X156682895Y-89101353D01*
X156682895Y-89101353D02*
X156587657Y-89053734D01*
X156587657Y-89053734D02*
X156540038Y-89006115D01*
X156540038Y-89006115D02*
X156492419Y-88910877D01*
X156492419Y-88910877D02*
X156492419Y-88672782D01*
X156492419Y-88672782D02*
X156540038Y-88529925D01*
X157492419Y-88101353D02*
X156492419Y-88101353D01*
X156492419Y-88101353D02*
X156492419Y-87720401D01*
X156492419Y-87720401D02*
X156540038Y-87625163D01*
X156540038Y-87625163D02*
X156587657Y-87577544D01*
X156587657Y-87577544D02*
X156682895Y-87529925D01*
X156682895Y-87529925D02*
X156825752Y-87529925D01*
X156825752Y-87529925D02*
X156920990Y-87577544D01*
X156920990Y-87577544D02*
X156968609Y-87625163D01*
X156968609Y-87625163D02*
X157016228Y-87720401D01*
X157016228Y-87720401D02*
X157016228Y-88101353D01*
X157492419Y-87101353D02*
X156492419Y-87101353D01*
X157492419Y-86101354D02*
X157492419Y-86672782D01*
X157492419Y-86387068D02*
X156492419Y-86387068D01*
X156492419Y-86387068D02*
X156635276Y-86482306D01*
X156635276Y-86482306D02*
X156730514Y-86577544D01*
X156730514Y-86577544D02*
X156778133Y-86672782D01*
D11*
X133666666Y-115954819D02*
X133666666Y-116669104D01*
X133666666Y-116669104D02*
X133619047Y-116811961D01*
X133619047Y-116811961D02*
X133523809Y-116907200D01*
X133523809Y-116907200D02*
X133380952Y-116954819D01*
X133380952Y-116954819D02*
X133285714Y-116954819D01*
X134666666Y-116954819D02*
X134095238Y-116954819D01*
X134380952Y-116954819D02*
X134380952Y-115954819D01*
X134380952Y-115954819D02*
X134285714Y-116097676D01*
X134285714Y-116097676D02*
X134190476Y-116192914D01*
X134190476Y-116192914D02*
X134095238Y-116240533D01*
X160357142Y-78954819D02*
X160023809Y-78478628D01*
X159785714Y-78954819D02*
X159785714Y-77954819D01*
X159785714Y-77954819D02*
X160166666Y-77954819D01*
X160166666Y-77954819D02*
X160261904Y-78002438D01*
X160261904Y-78002438D02*
X160309523Y-78050057D01*
X160309523Y-78050057D02*
X160357142Y-78145295D01*
X160357142Y-78145295D02*
X160357142Y-78288152D01*
X160357142Y-78288152D02*
X160309523Y-78383390D01*
X160309523Y-78383390D02*
X160261904Y-78431009D01*
X160261904Y-78431009D02*
X160166666Y-78478628D01*
X160166666Y-78478628D02*
X159785714Y-78478628D01*
X161309523Y-78954819D02*
X160738095Y-78954819D01*
X161023809Y-78954819D02*
X161023809Y-77954819D01*
X161023809Y-77954819D02*
X160928571Y-78097676D01*
X160928571Y-78097676D02*
X160833333Y-78192914D01*
X160833333Y-78192914D02*
X160738095Y-78240533D01*
X162261904Y-78954819D02*
X161690476Y-78954819D01*
X161976190Y-78954819D02*
X161976190Y-77954819D01*
X161976190Y-77954819D02*
X161880952Y-78097676D01*
X161880952Y-78097676D02*
X161785714Y-78192914D01*
X161785714Y-78192914D02*
X161690476Y-78240533D01*
X136333333Y-104647080D02*
X136285714Y-104694700D01*
X136285714Y-104694700D02*
X136142857Y-104742319D01*
X136142857Y-104742319D02*
X136047619Y-104742319D01*
X136047619Y-104742319D02*
X135904762Y-104694700D01*
X135904762Y-104694700D02*
X135809524Y-104599461D01*
X135809524Y-104599461D02*
X135761905Y-104504223D01*
X135761905Y-104504223D02*
X135714286Y-104313747D01*
X135714286Y-104313747D02*
X135714286Y-104170890D01*
X135714286Y-104170890D02*
X135761905Y-103980414D01*
X135761905Y-103980414D02*
X135809524Y-103885176D01*
X135809524Y-103885176D02*
X135904762Y-103789938D01*
X135904762Y-103789938D02*
X136047619Y-103742319D01*
X136047619Y-103742319D02*
X136142857Y-103742319D01*
X136142857Y-103742319D02*
X136285714Y-103789938D01*
X136285714Y-103789938D02*
X136333333Y-103837557D01*
X136666667Y-103742319D02*
X137333333Y-103742319D01*
X137333333Y-103742319D02*
X136904762Y-104742319D01*
X153238095Y-67407200D02*
X153380952Y-67454819D01*
X153380952Y-67454819D02*
X153619047Y-67454819D01*
X153619047Y-67454819D02*
X153714285Y-67407200D01*
X153714285Y-67407200D02*
X153761904Y-67359580D01*
X153761904Y-67359580D02*
X153809523Y-67264342D01*
X153809523Y-67264342D02*
X153809523Y-67169104D01*
X153809523Y-67169104D02*
X153761904Y-67073866D01*
X153761904Y-67073866D02*
X153714285Y-67026247D01*
X153714285Y-67026247D02*
X153619047Y-66978628D01*
X153619047Y-66978628D02*
X153428571Y-66931009D01*
X153428571Y-66931009D02*
X153333333Y-66883390D01*
X153333333Y-66883390D02*
X153285714Y-66835771D01*
X153285714Y-66835771D02*
X153238095Y-66740533D01*
X153238095Y-66740533D02*
X153238095Y-66645295D01*
X153238095Y-66645295D02*
X153285714Y-66550057D01*
X153285714Y-66550057D02*
X153333333Y-66502438D01*
X153333333Y-66502438D02*
X153428571Y-66454819D01*
X153428571Y-66454819D02*
X153666666Y-66454819D01*
X153666666Y-66454819D02*
X153809523Y-66502438D01*
X154142857Y-66454819D02*
X154761904Y-66454819D01*
X154761904Y-66454819D02*
X154428571Y-66835771D01*
X154428571Y-66835771D02*
X154571428Y-66835771D01*
X154571428Y-66835771D02*
X154666666Y-66883390D01*
X154666666Y-66883390D02*
X154714285Y-66931009D01*
X154714285Y-66931009D02*
X154761904Y-67026247D01*
X154761904Y-67026247D02*
X154761904Y-67264342D01*
X154761904Y-67264342D02*
X154714285Y-67359580D01*
X154714285Y-67359580D02*
X154666666Y-67407200D01*
X154666666Y-67407200D02*
X154571428Y-67454819D01*
X154571428Y-67454819D02*
X154285714Y-67454819D01*
X154285714Y-67454819D02*
X154190476Y-67407200D01*
X154190476Y-67407200D02*
X154142857Y-67359580D01*
X159404761Y-76550057D02*
X159309523Y-76502438D01*
X159309523Y-76502438D02*
X159214285Y-76407200D01*
X159214285Y-76407200D02*
X159071428Y-76264342D01*
X159071428Y-76264342D02*
X158976190Y-76216723D01*
X158976190Y-76216723D02*
X158880952Y-76216723D01*
X158928571Y-76454819D02*
X158833333Y-76407200D01*
X158833333Y-76407200D02*
X158738095Y-76311961D01*
X158738095Y-76311961D02*
X158690476Y-76121485D01*
X158690476Y-76121485D02*
X158690476Y-75788152D01*
X158690476Y-75788152D02*
X158738095Y-75597676D01*
X158738095Y-75597676D02*
X158833333Y-75502438D01*
X158833333Y-75502438D02*
X158928571Y-75454819D01*
X158928571Y-75454819D02*
X159119047Y-75454819D01*
X159119047Y-75454819D02*
X159214285Y-75502438D01*
X159214285Y-75502438D02*
X159309523Y-75597676D01*
X159309523Y-75597676D02*
X159357142Y-75788152D01*
X159357142Y-75788152D02*
X159357142Y-76121485D01*
X159357142Y-76121485D02*
X159309523Y-76311961D01*
X159309523Y-76311961D02*
X159214285Y-76407200D01*
X159214285Y-76407200D02*
X159119047Y-76454819D01*
X159119047Y-76454819D02*
X158928571Y-76454819D01*
X159738095Y-75550057D02*
X159785714Y-75502438D01*
X159785714Y-75502438D02*
X159880952Y-75454819D01*
X159880952Y-75454819D02*
X160119047Y-75454819D01*
X160119047Y-75454819D02*
X160214285Y-75502438D01*
X160214285Y-75502438D02*
X160261904Y-75550057D01*
X160261904Y-75550057D02*
X160309523Y-75645295D01*
X160309523Y-75645295D02*
X160309523Y-75740533D01*
X160309523Y-75740533D02*
X160261904Y-75883390D01*
X160261904Y-75883390D02*
X159690476Y-76454819D01*
X159690476Y-76454819D02*
X160309523Y-76454819D01*
X154833333Y-98284819D02*
X154500000Y-97808628D01*
X154261905Y-98284819D02*
X154261905Y-97284819D01*
X154261905Y-97284819D02*
X154642857Y-97284819D01*
X154642857Y-97284819D02*
X154738095Y-97332438D01*
X154738095Y-97332438D02*
X154785714Y-97380057D01*
X154785714Y-97380057D02*
X154833333Y-97475295D01*
X154833333Y-97475295D02*
X154833333Y-97618152D01*
X154833333Y-97618152D02*
X154785714Y-97713390D01*
X154785714Y-97713390D02*
X154738095Y-97761009D01*
X154738095Y-97761009D02*
X154642857Y-97808628D01*
X154642857Y-97808628D02*
X154261905Y-97808628D01*
X155738095Y-97284819D02*
X155261905Y-97284819D01*
X155261905Y-97284819D02*
X155214286Y-97761009D01*
X155214286Y-97761009D02*
X155261905Y-97713390D01*
X155261905Y-97713390D02*
X155357143Y-97665771D01*
X155357143Y-97665771D02*
X155595238Y-97665771D01*
X155595238Y-97665771D02*
X155690476Y-97713390D01*
X155690476Y-97713390D02*
X155738095Y-97761009D01*
X155738095Y-97761009D02*
X155785714Y-97856247D01*
X155785714Y-97856247D02*
X155785714Y-98094342D01*
X155785714Y-98094342D02*
X155738095Y-98189580D01*
X155738095Y-98189580D02*
X155690476Y-98237200D01*
X155690476Y-98237200D02*
X155595238Y-98284819D01*
X155595238Y-98284819D02*
X155357143Y-98284819D01*
X155357143Y-98284819D02*
X155261905Y-98237200D01*
X155261905Y-98237200D02*
X155214286Y-98189580D01*
X157833333Y-69834580D02*
X157785714Y-69882200D01*
X157785714Y-69882200D02*
X157642857Y-69929819D01*
X157642857Y-69929819D02*
X157547619Y-69929819D01*
X157547619Y-69929819D02*
X157404762Y-69882200D01*
X157404762Y-69882200D02*
X157309524Y-69786961D01*
X157309524Y-69786961D02*
X157261905Y-69691723D01*
X157261905Y-69691723D02*
X157214286Y-69501247D01*
X157214286Y-69501247D02*
X157214286Y-69358390D01*
X157214286Y-69358390D02*
X157261905Y-69167914D01*
X157261905Y-69167914D02*
X157309524Y-69072676D01*
X157309524Y-69072676D02*
X157404762Y-68977438D01*
X157404762Y-68977438D02*
X157547619Y-68929819D01*
X157547619Y-68929819D02*
X157642857Y-68929819D01*
X157642857Y-68929819D02*
X157785714Y-68977438D01*
X157785714Y-68977438D02*
X157833333Y-69025057D01*
X158404762Y-69358390D02*
X158309524Y-69310771D01*
X158309524Y-69310771D02*
X158261905Y-69263152D01*
X158261905Y-69263152D02*
X158214286Y-69167914D01*
X158214286Y-69167914D02*
X158214286Y-69120295D01*
X158214286Y-69120295D02*
X158261905Y-69025057D01*
X158261905Y-69025057D02*
X158309524Y-68977438D01*
X158309524Y-68977438D02*
X158404762Y-68929819D01*
X158404762Y-68929819D02*
X158595238Y-68929819D01*
X158595238Y-68929819D02*
X158690476Y-68977438D01*
X158690476Y-68977438D02*
X158738095Y-69025057D01*
X158738095Y-69025057D02*
X158785714Y-69120295D01*
X158785714Y-69120295D02*
X158785714Y-69167914D01*
X158785714Y-69167914D02*
X158738095Y-69263152D01*
X158738095Y-69263152D02*
X158690476Y-69310771D01*
X158690476Y-69310771D02*
X158595238Y-69358390D01*
X158595238Y-69358390D02*
X158404762Y-69358390D01*
X158404762Y-69358390D02*
X158309524Y-69406009D01*
X158309524Y-69406009D02*
X158261905Y-69453628D01*
X158261905Y-69453628D02*
X158214286Y-69548866D01*
X158214286Y-69548866D02*
X158214286Y-69739342D01*
X158214286Y-69739342D02*
X158261905Y-69834580D01*
X158261905Y-69834580D02*
X158309524Y-69882200D01*
X158309524Y-69882200D02*
X158404762Y-69929819D01*
X158404762Y-69929819D02*
X158595238Y-69929819D01*
X158595238Y-69929819D02*
X158690476Y-69882200D01*
X158690476Y-69882200D02*
X158738095Y-69834580D01*
X158738095Y-69834580D02*
X158785714Y-69739342D01*
X158785714Y-69739342D02*
X158785714Y-69548866D01*
X158785714Y-69548866D02*
X158738095Y-69453628D01*
X158738095Y-69453628D02*
X158690476Y-69406009D01*
X158690476Y-69406009D02*
X158595238Y-69358390D01*
X125432187Y-76239059D02*
X125432187Y-77373610D01*
X125432187Y-77373610D02*
X125498925Y-77507086D01*
X125498925Y-77507086D02*
X125565664Y-77573825D01*
X125565664Y-77573825D02*
X125699140Y-77640563D01*
X125699140Y-77640563D02*
X125966093Y-77640563D01*
X125966093Y-77640563D02*
X126099570Y-77573825D01*
X126099570Y-77573825D02*
X126166308Y-77507086D01*
X126166308Y-77507086D02*
X126233046Y-77373610D01*
X126233046Y-77373610D02*
X126233046Y-76239059D01*
X127634550Y-77640563D02*
X126833691Y-77640563D01*
X127234120Y-77640563D02*
X127234120Y-76239059D01*
X127234120Y-76239059D02*
X127100644Y-76439274D01*
X127100644Y-76439274D02*
X126967167Y-76572750D01*
X126967167Y-76572750D02*
X126833691Y-76639489D01*
X121303333Y-94359580D02*
X121255714Y-94407200D01*
X121255714Y-94407200D02*
X121112857Y-94454819D01*
X121112857Y-94454819D02*
X121017619Y-94454819D01*
X121017619Y-94454819D02*
X120874762Y-94407200D01*
X120874762Y-94407200D02*
X120779524Y-94311961D01*
X120779524Y-94311961D02*
X120731905Y-94216723D01*
X120731905Y-94216723D02*
X120684286Y-94026247D01*
X120684286Y-94026247D02*
X120684286Y-93883390D01*
X120684286Y-93883390D02*
X120731905Y-93692914D01*
X120731905Y-93692914D02*
X120779524Y-93597676D01*
X120779524Y-93597676D02*
X120874762Y-93502438D01*
X120874762Y-93502438D02*
X121017619Y-93454819D01*
X121017619Y-93454819D02*
X121112857Y-93454819D01*
X121112857Y-93454819D02*
X121255714Y-93502438D01*
X121255714Y-93502438D02*
X121303333Y-93550057D01*
X122208095Y-93454819D02*
X121731905Y-93454819D01*
X121731905Y-93454819D02*
X121684286Y-93931009D01*
X121684286Y-93931009D02*
X121731905Y-93883390D01*
X121731905Y-93883390D02*
X121827143Y-93835771D01*
X121827143Y-93835771D02*
X122065238Y-93835771D01*
X122065238Y-93835771D02*
X122160476Y-93883390D01*
X122160476Y-93883390D02*
X122208095Y-93931009D01*
X122208095Y-93931009D02*
X122255714Y-94026247D01*
X122255714Y-94026247D02*
X122255714Y-94264342D01*
X122255714Y-94264342D02*
X122208095Y-94359580D01*
X122208095Y-94359580D02*
X122160476Y-94407200D01*
X122160476Y-94407200D02*
X122065238Y-94454819D01*
X122065238Y-94454819D02*
X121827143Y-94454819D01*
X121827143Y-94454819D02*
X121731905Y-94407200D01*
X121731905Y-94407200D02*
X121684286Y-94359580D01*
X151333333Y-82954819D02*
X150857143Y-82954819D01*
X150857143Y-82954819D02*
X150857143Y-81954819D01*
X151666667Y-82954819D02*
X151666667Y-81954819D01*
X151666667Y-81954819D02*
X151904762Y-81954819D01*
X151904762Y-81954819D02*
X152047619Y-82002438D01*
X152047619Y-82002438D02*
X152142857Y-82097676D01*
X152142857Y-82097676D02*
X152190476Y-82192914D01*
X152190476Y-82192914D02*
X152238095Y-82383390D01*
X152238095Y-82383390D02*
X152238095Y-82526247D01*
X152238095Y-82526247D02*
X152190476Y-82716723D01*
X152190476Y-82716723D02*
X152142857Y-82811961D01*
X152142857Y-82811961D02*
X152047619Y-82907200D01*
X152047619Y-82907200D02*
X151904762Y-82954819D01*
X151904762Y-82954819D02*
X151666667Y-82954819D01*
X153190476Y-82954819D02*
X152619048Y-82954819D01*
X152904762Y-82954819D02*
X152904762Y-81954819D01*
X152904762Y-81954819D02*
X152809524Y-82097676D01*
X152809524Y-82097676D02*
X152714286Y-82192914D01*
X152714286Y-82192914D02*
X152619048Y-82240533D01*
X177166666Y-101454819D02*
X177166666Y-102169104D01*
X177166666Y-102169104D02*
X177119047Y-102311961D01*
X177119047Y-102311961D02*
X177023809Y-102407200D01*
X177023809Y-102407200D02*
X176880952Y-102454819D01*
X176880952Y-102454819D02*
X176785714Y-102454819D01*
X178071428Y-101788152D02*
X178071428Y-102454819D01*
X177833333Y-101407200D02*
X177595238Y-102121485D01*
X177595238Y-102121485D02*
X178214285Y-102121485D01*
X140954819Y-111809523D02*
X141954819Y-111476190D01*
X141954819Y-111476190D02*
X140954819Y-111142857D01*
X141954819Y-110238095D02*
X141478628Y-110571428D01*
X141954819Y-110809523D02*
X140954819Y-110809523D01*
X140954819Y-110809523D02*
X140954819Y-110428571D01*
X140954819Y-110428571D02*
X141002438Y-110333333D01*
X141002438Y-110333333D02*
X141050057Y-110285714D01*
X141050057Y-110285714D02*
X141145295Y-110238095D01*
X141145295Y-110238095D02*
X141288152Y-110238095D01*
X141288152Y-110238095D02*
X141383390Y-110285714D01*
X141383390Y-110285714D02*
X141431009Y-110333333D01*
X141431009Y-110333333D02*
X141478628Y-110428571D01*
X141478628Y-110428571D02*
X141478628Y-110809523D01*
X141954819Y-109285714D02*
X141954819Y-109857142D01*
X141954819Y-109571428D02*
X140954819Y-109571428D01*
X140954819Y-109571428D02*
X141097676Y-109666666D01*
X141097676Y-109666666D02*
X141192914Y-109761904D01*
X141192914Y-109761904D02*
X141240533Y-109857142D01*
X124357142Y-93359580D02*
X124309523Y-93407200D01*
X124309523Y-93407200D02*
X124166666Y-93454819D01*
X124166666Y-93454819D02*
X124071428Y-93454819D01*
X124071428Y-93454819D02*
X123928571Y-93407200D01*
X123928571Y-93407200D02*
X123833333Y-93311961D01*
X123833333Y-93311961D02*
X123785714Y-93216723D01*
X123785714Y-93216723D02*
X123738095Y-93026247D01*
X123738095Y-93026247D02*
X123738095Y-92883390D01*
X123738095Y-92883390D02*
X123785714Y-92692914D01*
X123785714Y-92692914D02*
X123833333Y-92597676D01*
X123833333Y-92597676D02*
X123928571Y-92502438D01*
X123928571Y-92502438D02*
X124071428Y-92454819D01*
X124071428Y-92454819D02*
X124166666Y-92454819D01*
X124166666Y-92454819D02*
X124309523Y-92502438D01*
X124309523Y-92502438D02*
X124357142Y-92550057D01*
X125309523Y-93454819D02*
X124738095Y-93454819D01*
X125023809Y-93454819D02*
X125023809Y-92454819D01*
X125023809Y-92454819D02*
X124928571Y-92597676D01*
X124928571Y-92597676D02*
X124833333Y-92692914D01*
X124833333Y-92692914D02*
X124738095Y-92740533D01*
X125928571Y-92454819D02*
X126023809Y-92454819D01*
X126023809Y-92454819D02*
X126119047Y-92502438D01*
X126119047Y-92502438D02*
X126166666Y-92550057D01*
X126166666Y-92550057D02*
X126214285Y-92645295D01*
X126214285Y-92645295D02*
X126261904Y-92835771D01*
X126261904Y-92835771D02*
X126261904Y-93073866D01*
X126261904Y-93073866D02*
X126214285Y-93264342D01*
X126214285Y-93264342D02*
X126166666Y-93359580D01*
X126166666Y-93359580D02*
X126119047Y-93407200D01*
X126119047Y-93407200D02*
X126023809Y-93454819D01*
X126023809Y-93454819D02*
X125928571Y-93454819D01*
X125928571Y-93454819D02*
X125833333Y-93407200D01*
X125833333Y-93407200D02*
X125785714Y-93359580D01*
X125785714Y-93359580D02*
X125738095Y-93264342D01*
X125738095Y-93264342D02*
X125690476Y-93073866D01*
X125690476Y-93073866D02*
X125690476Y-92835771D01*
X125690476Y-92835771D02*
X125738095Y-92645295D01*
X125738095Y-92645295D02*
X125785714Y-92550057D01*
X125785714Y-92550057D02*
X125833333Y-92502438D01*
X125833333Y-92502438D02*
X125928571Y-92454819D01*
X152333333Y-98359580D02*
X152285714Y-98407200D01*
X152285714Y-98407200D02*
X152142857Y-98454819D01*
X152142857Y-98454819D02*
X152047619Y-98454819D01*
X152047619Y-98454819D02*
X151904762Y-98407200D01*
X151904762Y-98407200D02*
X151809524Y-98311961D01*
X151809524Y-98311961D02*
X151761905Y-98216723D01*
X151761905Y-98216723D02*
X151714286Y-98026247D01*
X151714286Y-98026247D02*
X151714286Y-97883390D01*
X151714286Y-97883390D02*
X151761905Y-97692914D01*
X151761905Y-97692914D02*
X151809524Y-97597676D01*
X151809524Y-97597676D02*
X151904762Y-97502438D01*
X151904762Y-97502438D02*
X152047619Y-97454819D01*
X152047619Y-97454819D02*
X152142857Y-97454819D01*
X152142857Y-97454819D02*
X152285714Y-97502438D01*
X152285714Y-97502438D02*
X152333333Y-97550057D01*
X152666667Y-97454819D02*
X153285714Y-97454819D01*
X153285714Y-97454819D02*
X152952381Y-97835771D01*
X152952381Y-97835771D02*
X153095238Y-97835771D01*
X153095238Y-97835771D02*
X153190476Y-97883390D01*
X153190476Y-97883390D02*
X153238095Y-97931009D01*
X153238095Y-97931009D02*
X153285714Y-98026247D01*
X153285714Y-98026247D02*
X153285714Y-98264342D01*
X153285714Y-98264342D02*
X153238095Y-98359580D01*
X153238095Y-98359580D02*
X153190476Y-98407200D01*
X153190476Y-98407200D02*
X153095238Y-98454819D01*
X153095238Y-98454819D02*
X152809524Y-98454819D01*
X152809524Y-98454819D02*
X152714286Y-98407200D01*
X152714286Y-98407200D02*
X152666667Y-98359580D01*
X151333333Y-77954819D02*
X150857143Y-77954819D01*
X150857143Y-77954819D02*
X150857143Y-76954819D01*
X151666667Y-77954819D02*
X151666667Y-76954819D01*
X151666667Y-76954819D02*
X151904762Y-76954819D01*
X151904762Y-76954819D02*
X152047619Y-77002438D01*
X152047619Y-77002438D02*
X152142857Y-77097676D01*
X152142857Y-77097676D02*
X152190476Y-77192914D01*
X152190476Y-77192914D02*
X152238095Y-77383390D01*
X152238095Y-77383390D02*
X152238095Y-77526247D01*
X152238095Y-77526247D02*
X152190476Y-77716723D01*
X152190476Y-77716723D02*
X152142857Y-77811961D01*
X152142857Y-77811961D02*
X152047619Y-77907200D01*
X152047619Y-77907200D02*
X151904762Y-77954819D01*
X151904762Y-77954819D02*
X151666667Y-77954819D01*
X152619048Y-77050057D02*
X152666667Y-77002438D01*
X152666667Y-77002438D02*
X152761905Y-76954819D01*
X152761905Y-76954819D02*
X153000000Y-76954819D01*
X153000000Y-76954819D02*
X153095238Y-77002438D01*
X153095238Y-77002438D02*
X153142857Y-77050057D01*
X153142857Y-77050057D02*
X153190476Y-77145295D01*
X153190476Y-77145295D02*
X153190476Y-77240533D01*
X153190476Y-77240533D02*
X153142857Y-77383390D01*
X153142857Y-77383390D02*
X152571429Y-77954819D01*
X152571429Y-77954819D02*
X153190476Y-77954819D01*
X119478628Y-97976190D02*
X119954819Y-97976190D01*
X118954819Y-98309523D02*
X119478628Y-97976190D01*
X119478628Y-97976190D02*
X118954819Y-97642857D01*
X119954819Y-96785714D02*
X119954819Y-97357142D01*
X119954819Y-97071428D02*
X118954819Y-97071428D01*
X118954819Y-97071428D02*
X119097676Y-97166666D01*
X119097676Y-97166666D02*
X119192914Y-97261904D01*
X119192914Y-97261904D02*
X119240533Y-97357142D01*
X186666666Y-69724819D02*
X186666666Y-70439104D01*
X186666666Y-70439104D02*
X186619047Y-70581961D01*
X186619047Y-70581961D02*
X186523809Y-70677200D01*
X186523809Y-70677200D02*
X186380952Y-70724819D01*
X186380952Y-70724819D02*
X186285714Y-70724819D01*
X187047619Y-69724819D02*
X187666666Y-69724819D01*
X187666666Y-69724819D02*
X187333333Y-70105771D01*
X187333333Y-70105771D02*
X187476190Y-70105771D01*
X187476190Y-70105771D02*
X187571428Y-70153390D01*
X187571428Y-70153390D02*
X187619047Y-70201009D01*
X187619047Y-70201009D02*
X187666666Y-70296247D01*
X187666666Y-70296247D02*
X187666666Y-70534342D01*
X187666666Y-70534342D02*
X187619047Y-70629580D01*
X187619047Y-70629580D02*
X187571428Y-70677200D01*
X187571428Y-70677200D02*
X187476190Y-70724819D01*
X187476190Y-70724819D02*
X187190476Y-70724819D01*
X187190476Y-70724819D02*
X187095238Y-70677200D01*
X187095238Y-70677200D02*
X187047619Y-70629580D01*
X184161666Y-96764819D02*
X184161666Y-97479104D01*
X184161666Y-97479104D02*
X184114047Y-97621961D01*
X184114047Y-97621961D02*
X184018809Y-97717200D01*
X184018809Y-97717200D02*
X183875952Y-97764819D01*
X183875952Y-97764819D02*
X183780714Y-97764819D01*
X184685476Y-97764819D02*
X184875952Y-97764819D01*
X184875952Y-97764819D02*
X184971190Y-97717200D01*
X184971190Y-97717200D02*
X185018809Y-97669580D01*
X185018809Y-97669580D02*
X185114047Y-97526723D01*
X185114047Y-97526723D02*
X185161666Y-97336247D01*
X185161666Y-97336247D02*
X185161666Y-96955295D01*
X185161666Y-96955295D02*
X185114047Y-96860057D01*
X185114047Y-96860057D02*
X185066428Y-96812438D01*
X185066428Y-96812438D02*
X184971190Y-96764819D01*
X184971190Y-96764819D02*
X184780714Y-96764819D01*
X184780714Y-96764819D02*
X184685476Y-96812438D01*
X184685476Y-96812438D02*
X184637857Y-96860057D01*
X184637857Y-96860057D02*
X184590238Y-96955295D01*
X184590238Y-96955295D02*
X184590238Y-97193390D01*
X184590238Y-97193390D02*
X184637857Y-97288628D01*
X184637857Y-97288628D02*
X184685476Y-97336247D01*
X184685476Y-97336247D02*
X184780714Y-97383866D01*
X184780714Y-97383866D02*
X184971190Y-97383866D01*
X184971190Y-97383866D02*
X185066428Y-97336247D01*
X185066428Y-97336247D02*
X185114047Y-97288628D01*
X185114047Y-97288628D02*
X185161666Y-97193390D01*
X121783333Y-110817319D02*
X121450000Y-110341128D01*
X121211905Y-110817319D02*
X121211905Y-109817319D01*
X121211905Y-109817319D02*
X121592857Y-109817319D01*
X121592857Y-109817319D02*
X121688095Y-109864938D01*
X121688095Y-109864938D02*
X121735714Y-109912557D01*
X121735714Y-109912557D02*
X121783333Y-110007795D01*
X121783333Y-110007795D02*
X121783333Y-110150652D01*
X121783333Y-110150652D02*
X121735714Y-110245890D01*
X121735714Y-110245890D02*
X121688095Y-110293509D01*
X121688095Y-110293509D02*
X121592857Y-110341128D01*
X121592857Y-110341128D02*
X121211905Y-110341128D01*
X122735714Y-110817319D02*
X122164286Y-110817319D01*
X122450000Y-110817319D02*
X122450000Y-109817319D01*
X122450000Y-109817319D02*
X122354762Y-109960176D01*
X122354762Y-109960176D02*
X122259524Y-110055414D01*
X122259524Y-110055414D02*
X122164286Y-110103033D01*
X158666666Y-95414819D02*
X158666666Y-96129104D01*
X158666666Y-96129104D02*
X158619047Y-96271961D01*
X158619047Y-96271961D02*
X158523809Y-96367200D01*
X158523809Y-96367200D02*
X158380952Y-96414819D01*
X158380952Y-96414819D02*
X158285714Y-96414819D01*
X159047619Y-95414819D02*
X159714285Y-95414819D01*
X159714285Y-95414819D02*
X159285714Y-96414819D01*
X133283333Y-110817319D02*
X132950000Y-110341128D01*
X132711905Y-110817319D02*
X132711905Y-109817319D01*
X132711905Y-109817319D02*
X133092857Y-109817319D01*
X133092857Y-109817319D02*
X133188095Y-109864938D01*
X133188095Y-109864938D02*
X133235714Y-109912557D01*
X133235714Y-109912557D02*
X133283333Y-110007795D01*
X133283333Y-110007795D02*
X133283333Y-110150652D01*
X133283333Y-110150652D02*
X133235714Y-110245890D01*
X133235714Y-110245890D02*
X133188095Y-110293509D01*
X133188095Y-110293509D02*
X133092857Y-110341128D01*
X133092857Y-110341128D02*
X132711905Y-110341128D01*
X133664286Y-109912557D02*
X133711905Y-109864938D01*
X133711905Y-109864938D02*
X133807143Y-109817319D01*
X133807143Y-109817319D02*
X134045238Y-109817319D01*
X134045238Y-109817319D02*
X134140476Y-109864938D01*
X134140476Y-109864938D02*
X134188095Y-109912557D01*
X134188095Y-109912557D02*
X134235714Y-110007795D01*
X134235714Y-110007795D02*
X134235714Y-110103033D01*
X134235714Y-110103033D02*
X134188095Y-110245890D01*
X134188095Y-110245890D02*
X133616667Y-110817319D01*
X133616667Y-110817319D02*
X134235714Y-110817319D01*
X153857142Y-86454819D02*
X153523809Y-85978628D01*
X153285714Y-86454819D02*
X153285714Y-85454819D01*
X153285714Y-85454819D02*
X153666666Y-85454819D01*
X153666666Y-85454819D02*
X153761904Y-85502438D01*
X153761904Y-85502438D02*
X153809523Y-85550057D01*
X153809523Y-85550057D02*
X153857142Y-85645295D01*
X153857142Y-85645295D02*
X153857142Y-85788152D01*
X153857142Y-85788152D02*
X153809523Y-85883390D01*
X153809523Y-85883390D02*
X153761904Y-85931009D01*
X153761904Y-85931009D02*
X153666666Y-85978628D01*
X153666666Y-85978628D02*
X153285714Y-85978628D01*
X154809523Y-86454819D02*
X154238095Y-86454819D01*
X154523809Y-86454819D02*
X154523809Y-85454819D01*
X154523809Y-85454819D02*
X154428571Y-85597676D01*
X154428571Y-85597676D02*
X154333333Y-85692914D01*
X154333333Y-85692914D02*
X154238095Y-85740533D01*
X155428571Y-85454819D02*
X155523809Y-85454819D01*
X155523809Y-85454819D02*
X155619047Y-85502438D01*
X155619047Y-85502438D02*
X155666666Y-85550057D01*
X155666666Y-85550057D02*
X155714285Y-85645295D01*
X155714285Y-85645295D02*
X155761904Y-85835771D01*
X155761904Y-85835771D02*
X155761904Y-86073866D01*
X155761904Y-86073866D02*
X155714285Y-86264342D01*
X155714285Y-86264342D02*
X155666666Y-86359580D01*
X155666666Y-86359580D02*
X155619047Y-86407200D01*
X155619047Y-86407200D02*
X155523809Y-86454819D01*
X155523809Y-86454819D02*
X155428571Y-86454819D01*
X155428571Y-86454819D02*
X155333333Y-86407200D01*
X155333333Y-86407200D02*
X155285714Y-86359580D01*
X155285714Y-86359580D02*
X155238095Y-86264342D01*
X155238095Y-86264342D02*
X155190476Y-86073866D01*
X155190476Y-86073866D02*
X155190476Y-85835771D01*
X155190476Y-85835771D02*
X155238095Y-85645295D01*
X155238095Y-85645295D02*
X155285714Y-85550057D01*
X155285714Y-85550057D02*
X155333333Y-85502438D01*
X155333333Y-85502438D02*
X155428571Y-85454819D01*
X126833333Y-102954819D02*
X126500000Y-102478628D01*
X126261905Y-102954819D02*
X126261905Y-101954819D01*
X126261905Y-101954819D02*
X126642857Y-101954819D01*
X126642857Y-101954819D02*
X126738095Y-102002438D01*
X126738095Y-102002438D02*
X126785714Y-102050057D01*
X126785714Y-102050057D02*
X126833333Y-102145295D01*
X126833333Y-102145295D02*
X126833333Y-102288152D01*
X126833333Y-102288152D02*
X126785714Y-102383390D01*
X126785714Y-102383390D02*
X126738095Y-102431009D01*
X126738095Y-102431009D02*
X126642857Y-102478628D01*
X126642857Y-102478628D02*
X126261905Y-102478628D01*
X127166667Y-101954819D02*
X127785714Y-101954819D01*
X127785714Y-101954819D02*
X127452381Y-102335771D01*
X127452381Y-102335771D02*
X127595238Y-102335771D01*
X127595238Y-102335771D02*
X127690476Y-102383390D01*
X127690476Y-102383390D02*
X127738095Y-102431009D01*
X127738095Y-102431009D02*
X127785714Y-102526247D01*
X127785714Y-102526247D02*
X127785714Y-102764342D01*
X127785714Y-102764342D02*
X127738095Y-102859580D01*
X127738095Y-102859580D02*
X127690476Y-102907200D01*
X127690476Y-102907200D02*
X127595238Y-102954819D01*
X127595238Y-102954819D02*
X127309524Y-102954819D01*
X127309524Y-102954819D02*
X127214286Y-102907200D01*
X127214286Y-102907200D02*
X127166667Y-102859580D01*
X160333333Y-82454819D02*
X160000000Y-81978628D01*
X159761905Y-82454819D02*
X159761905Y-81454819D01*
X159761905Y-81454819D02*
X160142857Y-81454819D01*
X160142857Y-81454819D02*
X160238095Y-81502438D01*
X160238095Y-81502438D02*
X160285714Y-81550057D01*
X160285714Y-81550057D02*
X160333333Y-81645295D01*
X160333333Y-81645295D02*
X160333333Y-81788152D01*
X160333333Y-81788152D02*
X160285714Y-81883390D01*
X160285714Y-81883390D02*
X160238095Y-81931009D01*
X160238095Y-81931009D02*
X160142857Y-81978628D01*
X160142857Y-81978628D02*
X159761905Y-81978628D01*
X160809524Y-82454819D02*
X161000000Y-82454819D01*
X161000000Y-82454819D02*
X161095238Y-82407200D01*
X161095238Y-82407200D02*
X161142857Y-82359580D01*
X161142857Y-82359580D02*
X161238095Y-82216723D01*
X161238095Y-82216723D02*
X161285714Y-82026247D01*
X161285714Y-82026247D02*
X161285714Y-81645295D01*
X161285714Y-81645295D02*
X161238095Y-81550057D01*
X161238095Y-81550057D02*
X161190476Y-81502438D01*
X161190476Y-81502438D02*
X161095238Y-81454819D01*
X161095238Y-81454819D02*
X160904762Y-81454819D01*
X160904762Y-81454819D02*
X160809524Y-81502438D01*
X160809524Y-81502438D02*
X160761905Y-81550057D01*
X160761905Y-81550057D02*
X160714286Y-81645295D01*
X160714286Y-81645295D02*
X160714286Y-81883390D01*
X160714286Y-81883390D02*
X160761905Y-81978628D01*
X160761905Y-81978628D02*
X160809524Y-82026247D01*
X160809524Y-82026247D02*
X160904762Y-82073866D01*
X160904762Y-82073866D02*
X161095238Y-82073866D01*
X161095238Y-82073866D02*
X161190476Y-82026247D01*
X161190476Y-82026247D02*
X161238095Y-81978628D01*
X161238095Y-81978628D02*
X161285714Y-81883390D01*
X140333333Y-113359580D02*
X140285714Y-113407200D01*
X140285714Y-113407200D02*
X140142857Y-113454819D01*
X140142857Y-113454819D02*
X140047619Y-113454819D01*
X140047619Y-113454819D02*
X139904762Y-113407200D01*
X139904762Y-113407200D02*
X139809524Y-113311961D01*
X139809524Y-113311961D02*
X139761905Y-113216723D01*
X139761905Y-113216723D02*
X139714286Y-113026247D01*
X139714286Y-113026247D02*
X139714286Y-112883390D01*
X139714286Y-112883390D02*
X139761905Y-112692914D01*
X139761905Y-112692914D02*
X139809524Y-112597676D01*
X139809524Y-112597676D02*
X139904762Y-112502438D01*
X139904762Y-112502438D02*
X140047619Y-112454819D01*
X140047619Y-112454819D02*
X140142857Y-112454819D01*
X140142857Y-112454819D02*
X140285714Y-112502438D01*
X140285714Y-112502438D02*
X140333333Y-112550057D01*
X140714286Y-112550057D02*
X140761905Y-112502438D01*
X140761905Y-112502438D02*
X140857143Y-112454819D01*
X140857143Y-112454819D02*
X141095238Y-112454819D01*
X141095238Y-112454819D02*
X141190476Y-112502438D01*
X141190476Y-112502438D02*
X141238095Y-112550057D01*
X141238095Y-112550057D02*
X141285714Y-112645295D01*
X141285714Y-112645295D02*
X141285714Y-112740533D01*
X141285714Y-112740533D02*
X141238095Y-112883390D01*
X141238095Y-112883390D02*
X140666667Y-113454819D01*
X140666667Y-113454819D02*
X141285714Y-113454819D01*
X168921666Y-93404819D02*
X168921666Y-94119104D01*
X168921666Y-94119104D02*
X168874047Y-94261961D01*
X168874047Y-94261961D02*
X168778809Y-94357200D01*
X168778809Y-94357200D02*
X168635952Y-94404819D01*
X168635952Y-94404819D02*
X168540714Y-94404819D01*
X169350238Y-93500057D02*
X169397857Y-93452438D01*
X169397857Y-93452438D02*
X169493095Y-93404819D01*
X169493095Y-93404819D02*
X169731190Y-93404819D01*
X169731190Y-93404819D02*
X169826428Y-93452438D01*
X169826428Y-93452438D02*
X169874047Y-93500057D01*
X169874047Y-93500057D02*
X169921666Y-93595295D01*
X169921666Y-93595295D02*
X169921666Y-93690533D01*
X169921666Y-93690533D02*
X169874047Y-93833390D01*
X169874047Y-93833390D02*
X169302619Y-94404819D01*
X169302619Y-94404819D02*
X169921666Y-94404819D01*
X153238095Y-101407200D02*
X153380952Y-101454819D01*
X153380952Y-101454819D02*
X153619047Y-101454819D01*
X153619047Y-101454819D02*
X153714285Y-101407200D01*
X153714285Y-101407200D02*
X153761904Y-101359580D01*
X153761904Y-101359580D02*
X153809523Y-101264342D01*
X153809523Y-101264342D02*
X153809523Y-101169104D01*
X153809523Y-101169104D02*
X153761904Y-101073866D01*
X153761904Y-101073866D02*
X153714285Y-101026247D01*
X153714285Y-101026247D02*
X153619047Y-100978628D01*
X153619047Y-100978628D02*
X153428571Y-100931009D01*
X153428571Y-100931009D02*
X153333333Y-100883390D01*
X153333333Y-100883390D02*
X153285714Y-100835771D01*
X153285714Y-100835771D02*
X153238095Y-100740533D01*
X153238095Y-100740533D02*
X153238095Y-100645295D01*
X153238095Y-100645295D02*
X153285714Y-100550057D01*
X153285714Y-100550057D02*
X153333333Y-100502438D01*
X153333333Y-100502438D02*
X153428571Y-100454819D01*
X153428571Y-100454819D02*
X153666666Y-100454819D01*
X153666666Y-100454819D02*
X153809523Y-100502438D01*
X154190476Y-100550057D02*
X154238095Y-100502438D01*
X154238095Y-100502438D02*
X154333333Y-100454819D01*
X154333333Y-100454819D02*
X154571428Y-100454819D01*
X154571428Y-100454819D02*
X154666666Y-100502438D01*
X154666666Y-100502438D02*
X154714285Y-100550057D01*
X154714285Y-100550057D02*
X154761904Y-100645295D01*
X154761904Y-100645295D02*
X154761904Y-100740533D01*
X154761904Y-100740533D02*
X154714285Y-100883390D01*
X154714285Y-100883390D02*
X154142857Y-101454819D01*
X154142857Y-101454819D02*
X154761904Y-101454819D01*
X179238095Y-66954819D02*
X179238095Y-67764342D01*
X179238095Y-67764342D02*
X179285714Y-67859580D01*
X179285714Y-67859580D02*
X179333333Y-67907200D01*
X179333333Y-67907200D02*
X179428571Y-67954819D01*
X179428571Y-67954819D02*
X179619047Y-67954819D01*
X179619047Y-67954819D02*
X179714285Y-67907200D01*
X179714285Y-67907200D02*
X179761904Y-67859580D01*
X179761904Y-67859580D02*
X179809523Y-67764342D01*
X179809523Y-67764342D02*
X179809523Y-66954819D01*
X180238095Y-67050057D02*
X180285714Y-67002438D01*
X180285714Y-67002438D02*
X180380952Y-66954819D01*
X180380952Y-66954819D02*
X180619047Y-66954819D01*
X180619047Y-66954819D02*
X180714285Y-67002438D01*
X180714285Y-67002438D02*
X180761904Y-67050057D01*
X180761904Y-67050057D02*
X180809523Y-67145295D01*
X180809523Y-67145295D02*
X180809523Y-67240533D01*
X180809523Y-67240533D02*
X180761904Y-67383390D01*
X180761904Y-67383390D02*
X180190476Y-67954819D01*
X180190476Y-67954819D02*
X180809523Y-67954819D01*
X161865700Y-69199819D02*
X161865700Y-69437914D01*
X161627605Y-69342676D02*
X161865700Y-69437914D01*
X161865700Y-69437914D02*
X162103795Y-69342676D01*
X161722843Y-69628390D02*
X161865700Y-69437914D01*
X161865700Y-69437914D02*
X162008557Y-69628390D01*
X124833333Y-99359580D02*
X124785714Y-99407200D01*
X124785714Y-99407200D02*
X124642857Y-99454819D01*
X124642857Y-99454819D02*
X124547619Y-99454819D01*
X124547619Y-99454819D02*
X124404762Y-99407200D01*
X124404762Y-99407200D02*
X124309524Y-99311961D01*
X124309524Y-99311961D02*
X124261905Y-99216723D01*
X124261905Y-99216723D02*
X124214286Y-99026247D01*
X124214286Y-99026247D02*
X124214286Y-98883390D01*
X124214286Y-98883390D02*
X124261905Y-98692914D01*
X124261905Y-98692914D02*
X124309524Y-98597676D01*
X124309524Y-98597676D02*
X124404762Y-98502438D01*
X124404762Y-98502438D02*
X124547619Y-98454819D01*
X124547619Y-98454819D02*
X124642857Y-98454819D01*
X124642857Y-98454819D02*
X124785714Y-98502438D01*
X124785714Y-98502438D02*
X124833333Y-98550057D01*
X125690476Y-98788152D02*
X125690476Y-99454819D01*
X125452381Y-98407200D02*
X125214286Y-99121485D01*
X125214286Y-99121485D02*
X125833333Y-99121485D01*
X133833333Y-104597080D02*
X133785714Y-104644700D01*
X133785714Y-104644700D02*
X133642857Y-104692319D01*
X133642857Y-104692319D02*
X133547619Y-104692319D01*
X133547619Y-104692319D02*
X133404762Y-104644700D01*
X133404762Y-104644700D02*
X133309524Y-104549461D01*
X133309524Y-104549461D02*
X133261905Y-104454223D01*
X133261905Y-104454223D02*
X133214286Y-104263747D01*
X133214286Y-104263747D02*
X133214286Y-104120890D01*
X133214286Y-104120890D02*
X133261905Y-103930414D01*
X133261905Y-103930414D02*
X133309524Y-103835176D01*
X133309524Y-103835176D02*
X133404762Y-103739938D01*
X133404762Y-103739938D02*
X133547619Y-103692319D01*
X133547619Y-103692319D02*
X133642857Y-103692319D01*
X133642857Y-103692319D02*
X133785714Y-103739938D01*
X133785714Y-103739938D02*
X133833333Y-103787557D01*
X134690476Y-103692319D02*
X134500000Y-103692319D01*
X134500000Y-103692319D02*
X134404762Y-103739938D01*
X134404762Y-103739938D02*
X134357143Y-103787557D01*
X134357143Y-103787557D02*
X134261905Y-103930414D01*
X134261905Y-103930414D02*
X134214286Y-104120890D01*
X134214286Y-104120890D02*
X134214286Y-104501842D01*
X134214286Y-104501842D02*
X134261905Y-104597080D01*
X134261905Y-104597080D02*
X134309524Y-104644700D01*
X134309524Y-104644700D02*
X134404762Y-104692319D01*
X134404762Y-104692319D02*
X134595238Y-104692319D01*
X134595238Y-104692319D02*
X134690476Y-104644700D01*
X134690476Y-104644700D02*
X134738095Y-104597080D01*
X134738095Y-104597080D02*
X134785714Y-104501842D01*
X134785714Y-104501842D02*
X134785714Y-104263747D01*
X134785714Y-104263747D02*
X134738095Y-104168509D01*
X134738095Y-104168509D02*
X134690476Y-104120890D01*
X134690476Y-104120890D02*
X134595238Y-104073271D01*
X134595238Y-104073271D02*
X134404762Y-104073271D01*
X134404762Y-104073271D02*
X134309524Y-104120890D01*
X134309524Y-104120890D02*
X134261905Y-104168509D01*
X134261905Y-104168509D02*
X134214286Y-104263747D01*
X131666666Y-68454819D02*
X131666666Y-69169104D01*
X131666666Y-69169104D02*
X131619047Y-69311961D01*
X131619047Y-69311961D02*
X131523809Y-69407200D01*
X131523809Y-69407200D02*
X131380952Y-69454819D01*
X131380952Y-69454819D02*
X131285714Y-69454819D01*
X132285714Y-68883390D02*
X132190476Y-68835771D01*
X132190476Y-68835771D02*
X132142857Y-68788152D01*
X132142857Y-68788152D02*
X132095238Y-68692914D01*
X132095238Y-68692914D02*
X132095238Y-68645295D01*
X132095238Y-68645295D02*
X132142857Y-68550057D01*
X132142857Y-68550057D02*
X132190476Y-68502438D01*
X132190476Y-68502438D02*
X132285714Y-68454819D01*
X132285714Y-68454819D02*
X132476190Y-68454819D01*
X132476190Y-68454819D02*
X132571428Y-68502438D01*
X132571428Y-68502438D02*
X132619047Y-68550057D01*
X132619047Y-68550057D02*
X132666666Y-68645295D01*
X132666666Y-68645295D02*
X132666666Y-68692914D01*
X132666666Y-68692914D02*
X132619047Y-68788152D01*
X132619047Y-68788152D02*
X132571428Y-68835771D01*
X132571428Y-68835771D02*
X132476190Y-68883390D01*
X132476190Y-68883390D02*
X132285714Y-68883390D01*
X132285714Y-68883390D02*
X132190476Y-68931009D01*
X132190476Y-68931009D02*
X132142857Y-68978628D01*
X132142857Y-68978628D02*
X132095238Y-69073866D01*
X132095238Y-69073866D02*
X132095238Y-69264342D01*
X132095238Y-69264342D02*
X132142857Y-69359580D01*
X132142857Y-69359580D02*
X132190476Y-69407200D01*
X132190476Y-69407200D02*
X132285714Y-69454819D01*
X132285714Y-69454819D02*
X132476190Y-69454819D01*
X132476190Y-69454819D02*
X132571428Y-69407200D01*
X132571428Y-69407200D02*
X132619047Y-69359580D01*
X132619047Y-69359580D02*
X132666666Y-69264342D01*
X132666666Y-69264342D02*
X132666666Y-69073866D01*
X132666666Y-69073866D02*
X132619047Y-68978628D01*
X132619047Y-68978628D02*
X132571428Y-68931009D01*
X132571428Y-68931009D02*
X132476190Y-68883390D01*
X137833333Y-113359580D02*
X137785714Y-113407200D01*
X137785714Y-113407200D02*
X137642857Y-113454819D01*
X137642857Y-113454819D02*
X137547619Y-113454819D01*
X137547619Y-113454819D02*
X137404762Y-113407200D01*
X137404762Y-113407200D02*
X137309524Y-113311961D01*
X137309524Y-113311961D02*
X137261905Y-113216723D01*
X137261905Y-113216723D02*
X137214286Y-113026247D01*
X137214286Y-113026247D02*
X137214286Y-112883390D01*
X137214286Y-112883390D02*
X137261905Y-112692914D01*
X137261905Y-112692914D02*
X137309524Y-112597676D01*
X137309524Y-112597676D02*
X137404762Y-112502438D01*
X137404762Y-112502438D02*
X137547619Y-112454819D01*
X137547619Y-112454819D02*
X137642857Y-112454819D01*
X137642857Y-112454819D02*
X137785714Y-112502438D01*
X137785714Y-112502438D02*
X137833333Y-112550057D01*
X138785714Y-113454819D02*
X138214286Y-113454819D01*
X138500000Y-113454819D02*
X138500000Y-112454819D01*
X138500000Y-112454819D02*
X138404762Y-112597676D01*
X138404762Y-112597676D02*
X138309524Y-112692914D01*
X138309524Y-112692914D02*
X138214286Y-112740533D01*
X135166666Y-108931009D02*
X134833333Y-108931009D01*
X134833333Y-109454819D02*
X134833333Y-108454819D01*
X134833333Y-108454819D02*
X135309523Y-108454819D01*
X136214285Y-109454819D02*
X135642857Y-109454819D01*
X135928571Y-109454819D02*
X135928571Y-108454819D01*
X135928571Y-108454819D02*
X135833333Y-108597676D01*
X135833333Y-108597676D02*
X135738095Y-108692914D01*
X135738095Y-108692914D02*
X135642857Y-108740533D01*
X121166666Y-80669819D02*
X121166666Y-81384104D01*
X121166666Y-81384104D02*
X121119047Y-81526961D01*
X121119047Y-81526961D02*
X121023809Y-81622200D01*
X121023809Y-81622200D02*
X120880952Y-81669819D01*
X120880952Y-81669819D02*
X120785714Y-81669819D01*
X122119047Y-80669819D02*
X121642857Y-80669819D01*
X121642857Y-80669819D02*
X121595238Y-81146009D01*
X121595238Y-81146009D02*
X121642857Y-81098390D01*
X121642857Y-81098390D02*
X121738095Y-81050771D01*
X121738095Y-81050771D02*
X121976190Y-81050771D01*
X121976190Y-81050771D02*
X122071428Y-81098390D01*
X122071428Y-81098390D02*
X122119047Y-81146009D01*
X122119047Y-81146009D02*
X122166666Y-81241247D01*
X122166666Y-81241247D02*
X122166666Y-81479342D01*
X122166666Y-81479342D02*
X122119047Y-81574580D01*
X122119047Y-81574580D02*
X122071428Y-81622200D01*
X122071428Y-81622200D02*
X121976190Y-81669819D01*
X121976190Y-81669819D02*
X121738095Y-81669819D01*
X121738095Y-81669819D02*
X121642857Y-81622200D01*
X121642857Y-81622200D02*
X121595238Y-81574580D01*
X151738095Y-117907200D02*
X151880952Y-117954819D01*
X151880952Y-117954819D02*
X152119047Y-117954819D01*
X152119047Y-117954819D02*
X152214285Y-117907200D01*
X152214285Y-117907200D02*
X152261904Y-117859580D01*
X152261904Y-117859580D02*
X152309523Y-117764342D01*
X152309523Y-117764342D02*
X152309523Y-117669104D01*
X152309523Y-117669104D02*
X152261904Y-117573866D01*
X152261904Y-117573866D02*
X152214285Y-117526247D01*
X152214285Y-117526247D02*
X152119047Y-117478628D01*
X152119047Y-117478628D02*
X151928571Y-117431009D01*
X151928571Y-117431009D02*
X151833333Y-117383390D01*
X151833333Y-117383390D02*
X151785714Y-117335771D01*
X151785714Y-117335771D02*
X151738095Y-117240533D01*
X151738095Y-117240533D02*
X151738095Y-117145295D01*
X151738095Y-117145295D02*
X151785714Y-117050057D01*
X151785714Y-117050057D02*
X151833333Y-117002438D01*
X151833333Y-117002438D02*
X151928571Y-116954819D01*
X151928571Y-116954819D02*
X152166666Y-116954819D01*
X152166666Y-116954819D02*
X152309523Y-117002438D01*
X153261904Y-117954819D02*
X152690476Y-117954819D01*
X152976190Y-117954819D02*
X152976190Y-116954819D01*
X152976190Y-116954819D02*
X152880952Y-117097676D01*
X152880952Y-117097676D02*
X152785714Y-117192914D01*
X152785714Y-117192914D02*
X152690476Y-117240533D01*
X126166666Y-68431009D02*
X125833333Y-68431009D01*
X125833333Y-68954819D02*
X125833333Y-67954819D01*
X125833333Y-67954819D02*
X126309523Y-67954819D01*
X126642857Y-68050057D02*
X126690476Y-68002438D01*
X126690476Y-68002438D02*
X126785714Y-67954819D01*
X126785714Y-67954819D02*
X127023809Y-67954819D01*
X127023809Y-67954819D02*
X127119047Y-68002438D01*
X127119047Y-68002438D02*
X127166666Y-68050057D01*
X127166666Y-68050057D02*
X127214285Y-68145295D01*
X127214285Y-68145295D02*
X127214285Y-68240533D01*
X127214285Y-68240533D02*
X127166666Y-68383390D01*
X127166666Y-68383390D02*
X126595238Y-68954819D01*
X126595238Y-68954819D02*
X127214285Y-68954819D01*
X159833333Y-73359580D02*
X159785714Y-73407200D01*
X159785714Y-73407200D02*
X159642857Y-73454819D01*
X159642857Y-73454819D02*
X159547619Y-73454819D01*
X159547619Y-73454819D02*
X159404762Y-73407200D01*
X159404762Y-73407200D02*
X159309524Y-73311961D01*
X159309524Y-73311961D02*
X159261905Y-73216723D01*
X159261905Y-73216723D02*
X159214286Y-73026247D01*
X159214286Y-73026247D02*
X159214286Y-72883390D01*
X159214286Y-72883390D02*
X159261905Y-72692914D01*
X159261905Y-72692914D02*
X159309524Y-72597676D01*
X159309524Y-72597676D02*
X159404762Y-72502438D01*
X159404762Y-72502438D02*
X159547619Y-72454819D01*
X159547619Y-72454819D02*
X159642857Y-72454819D01*
X159642857Y-72454819D02*
X159785714Y-72502438D01*
X159785714Y-72502438D02*
X159833333Y-72550057D01*
X160309524Y-73454819D02*
X160500000Y-73454819D01*
X160500000Y-73454819D02*
X160595238Y-73407200D01*
X160595238Y-73407200D02*
X160642857Y-73359580D01*
X160642857Y-73359580D02*
X160738095Y-73216723D01*
X160738095Y-73216723D02*
X160785714Y-73026247D01*
X160785714Y-73026247D02*
X160785714Y-72645295D01*
X160785714Y-72645295D02*
X160738095Y-72550057D01*
X160738095Y-72550057D02*
X160690476Y-72502438D01*
X160690476Y-72502438D02*
X160595238Y-72454819D01*
X160595238Y-72454819D02*
X160404762Y-72454819D01*
X160404762Y-72454819D02*
X160309524Y-72502438D01*
X160309524Y-72502438D02*
X160261905Y-72550057D01*
X160261905Y-72550057D02*
X160214286Y-72645295D01*
X160214286Y-72645295D02*
X160214286Y-72883390D01*
X160214286Y-72883390D02*
X160261905Y-72978628D01*
X160261905Y-72978628D02*
X160309524Y-73026247D01*
X160309524Y-73026247D02*
X160404762Y-73073866D01*
X160404762Y-73073866D02*
X160595238Y-73073866D01*
X160595238Y-73073866D02*
X160690476Y-73026247D01*
X160690476Y-73026247D02*
X160738095Y-72978628D01*
X160738095Y-72978628D02*
X160785714Y-72883390D01*
X134454819Y-74666666D02*
X133978628Y-74999999D01*
X134454819Y-75238094D02*
X133454819Y-75238094D01*
X133454819Y-75238094D02*
X133454819Y-74857142D01*
X133454819Y-74857142D02*
X133502438Y-74761904D01*
X133502438Y-74761904D02*
X133550057Y-74714285D01*
X133550057Y-74714285D02*
X133645295Y-74666666D01*
X133645295Y-74666666D02*
X133788152Y-74666666D01*
X133788152Y-74666666D02*
X133883390Y-74714285D01*
X133883390Y-74714285D02*
X133931009Y-74761904D01*
X133931009Y-74761904D02*
X133978628Y-74857142D01*
X133978628Y-74857142D02*
X133978628Y-75238094D01*
X133883390Y-74095237D02*
X133835771Y-74190475D01*
X133835771Y-74190475D02*
X133788152Y-74238094D01*
X133788152Y-74238094D02*
X133692914Y-74285713D01*
X133692914Y-74285713D02*
X133645295Y-74285713D01*
X133645295Y-74285713D02*
X133550057Y-74238094D01*
X133550057Y-74238094D02*
X133502438Y-74190475D01*
X133502438Y-74190475D02*
X133454819Y-74095237D01*
X133454819Y-74095237D02*
X133454819Y-73904761D01*
X133454819Y-73904761D02*
X133502438Y-73809523D01*
X133502438Y-73809523D02*
X133550057Y-73761904D01*
X133550057Y-73761904D02*
X133645295Y-73714285D01*
X133645295Y-73714285D02*
X133692914Y-73714285D01*
X133692914Y-73714285D02*
X133788152Y-73761904D01*
X133788152Y-73761904D02*
X133835771Y-73809523D01*
X133835771Y-73809523D02*
X133883390Y-73904761D01*
X133883390Y-73904761D02*
X133883390Y-74095237D01*
X133883390Y-74095237D02*
X133931009Y-74190475D01*
X133931009Y-74190475D02*
X133978628Y-74238094D01*
X133978628Y-74238094D02*
X134073866Y-74285713D01*
X134073866Y-74285713D02*
X134264342Y-74285713D01*
X134264342Y-74285713D02*
X134359580Y-74238094D01*
X134359580Y-74238094D02*
X134407200Y-74190475D01*
X134407200Y-74190475D02*
X134454819Y-74095237D01*
X134454819Y-74095237D02*
X134454819Y-73904761D01*
X134454819Y-73904761D02*
X134407200Y-73809523D01*
X134407200Y-73809523D02*
X134359580Y-73761904D01*
X134359580Y-73761904D02*
X134264342Y-73714285D01*
X134264342Y-73714285D02*
X134073866Y-73714285D01*
X134073866Y-73714285D02*
X133978628Y-73761904D01*
X133978628Y-73761904D02*
X133931009Y-73809523D01*
X133931009Y-73809523D02*
X133883390Y-73904761D01*
X149436666Y-68954819D02*
X149436666Y-69669104D01*
X149436666Y-69669104D02*
X149389047Y-69811961D01*
X149389047Y-69811961D02*
X149293809Y-69907200D01*
X149293809Y-69907200D02*
X149150952Y-69954819D01*
X149150952Y-69954819D02*
X149055714Y-69954819D01*
X150341428Y-68954819D02*
X150150952Y-68954819D01*
X150150952Y-68954819D02*
X150055714Y-69002438D01*
X150055714Y-69002438D02*
X150008095Y-69050057D01*
X150008095Y-69050057D02*
X149912857Y-69192914D01*
X149912857Y-69192914D02*
X149865238Y-69383390D01*
X149865238Y-69383390D02*
X149865238Y-69764342D01*
X149865238Y-69764342D02*
X149912857Y-69859580D01*
X149912857Y-69859580D02*
X149960476Y-69907200D01*
X149960476Y-69907200D02*
X150055714Y-69954819D01*
X150055714Y-69954819D02*
X150246190Y-69954819D01*
X150246190Y-69954819D02*
X150341428Y-69907200D01*
X150341428Y-69907200D02*
X150389047Y-69859580D01*
X150389047Y-69859580D02*
X150436666Y-69764342D01*
X150436666Y-69764342D02*
X150436666Y-69526247D01*
X150436666Y-69526247D02*
X150389047Y-69431009D01*
X150389047Y-69431009D02*
X150341428Y-69383390D01*
X150341428Y-69383390D02*
X150246190Y-69335771D01*
X150246190Y-69335771D02*
X150055714Y-69335771D01*
X150055714Y-69335771D02*
X149960476Y-69383390D01*
X149960476Y-69383390D02*
X149912857Y-69431009D01*
X149912857Y-69431009D02*
X149865238Y-69526247D01*
X151357142Y-75954819D02*
X151023809Y-75478628D01*
X150785714Y-75954819D02*
X150785714Y-74954819D01*
X150785714Y-74954819D02*
X151166666Y-74954819D01*
X151166666Y-74954819D02*
X151261904Y-75002438D01*
X151261904Y-75002438D02*
X151309523Y-75050057D01*
X151309523Y-75050057D02*
X151357142Y-75145295D01*
X151357142Y-75145295D02*
X151357142Y-75288152D01*
X151357142Y-75288152D02*
X151309523Y-75383390D01*
X151309523Y-75383390D02*
X151261904Y-75431009D01*
X151261904Y-75431009D02*
X151166666Y-75478628D01*
X151166666Y-75478628D02*
X150785714Y-75478628D01*
X152309523Y-75954819D02*
X151738095Y-75954819D01*
X152023809Y-75954819D02*
X152023809Y-74954819D01*
X152023809Y-74954819D02*
X151928571Y-75097676D01*
X151928571Y-75097676D02*
X151833333Y-75192914D01*
X151833333Y-75192914D02*
X151738095Y-75240533D01*
X152690476Y-75050057D02*
X152738095Y-75002438D01*
X152738095Y-75002438D02*
X152833333Y-74954819D01*
X152833333Y-74954819D02*
X153071428Y-74954819D01*
X153071428Y-74954819D02*
X153166666Y-75002438D01*
X153166666Y-75002438D02*
X153214285Y-75050057D01*
X153214285Y-75050057D02*
X153261904Y-75145295D01*
X153261904Y-75145295D02*
X153261904Y-75240533D01*
X153261904Y-75240533D02*
X153214285Y-75383390D01*
X153214285Y-75383390D02*
X152642857Y-75954819D01*
X152642857Y-75954819D02*
X153261904Y-75954819D01*
X134773809Y-99716128D02*
X134773809Y-100192319D01*
X134440476Y-99192319D02*
X134773809Y-99716128D01*
X134773809Y-99716128D02*
X135107142Y-99192319D01*
X135392857Y-99287557D02*
X135440476Y-99239938D01*
X135440476Y-99239938D02*
X135535714Y-99192319D01*
X135535714Y-99192319D02*
X135773809Y-99192319D01*
X135773809Y-99192319D02*
X135869047Y-99239938D01*
X135869047Y-99239938D02*
X135916666Y-99287557D01*
X135916666Y-99287557D02*
X135964285Y-99382795D01*
X135964285Y-99382795D02*
X135964285Y-99478033D01*
X135964285Y-99478033D02*
X135916666Y-99620890D01*
X135916666Y-99620890D02*
X135345238Y-100192319D01*
X135345238Y-100192319D02*
X135964285Y-100192319D01*
X155404761Y-80940057D02*
X155309523Y-80892438D01*
X155309523Y-80892438D02*
X155214285Y-80797200D01*
X155214285Y-80797200D02*
X155071428Y-80654342D01*
X155071428Y-80654342D02*
X154976190Y-80606723D01*
X154976190Y-80606723D02*
X154880952Y-80606723D01*
X154928571Y-80844819D02*
X154833333Y-80797200D01*
X154833333Y-80797200D02*
X154738095Y-80701961D01*
X154738095Y-80701961D02*
X154690476Y-80511485D01*
X154690476Y-80511485D02*
X154690476Y-80178152D01*
X154690476Y-80178152D02*
X154738095Y-79987676D01*
X154738095Y-79987676D02*
X154833333Y-79892438D01*
X154833333Y-79892438D02*
X154928571Y-79844819D01*
X154928571Y-79844819D02*
X155119047Y-79844819D01*
X155119047Y-79844819D02*
X155214285Y-79892438D01*
X155214285Y-79892438D02*
X155309523Y-79987676D01*
X155309523Y-79987676D02*
X155357142Y-80178152D01*
X155357142Y-80178152D02*
X155357142Y-80511485D01*
X155357142Y-80511485D02*
X155309523Y-80701961D01*
X155309523Y-80701961D02*
X155214285Y-80797200D01*
X155214285Y-80797200D02*
X155119047Y-80844819D01*
X155119047Y-80844819D02*
X154928571Y-80844819D01*
X156309523Y-80844819D02*
X155738095Y-80844819D01*
X156023809Y-80844819D02*
X156023809Y-79844819D01*
X156023809Y-79844819D02*
X155928571Y-79987676D01*
X155928571Y-79987676D02*
X155833333Y-80082914D01*
X155833333Y-80082914D02*
X155738095Y-80130533D01*
X125604819Y-110399404D02*
X126414342Y-110399404D01*
X126414342Y-110399404D02*
X126509580Y-110351785D01*
X126509580Y-110351785D02*
X126557200Y-110304166D01*
X126557200Y-110304166D02*
X126604819Y-110208928D01*
X126604819Y-110208928D02*
X126604819Y-110018452D01*
X126604819Y-110018452D02*
X126557200Y-109923214D01*
X126557200Y-109923214D02*
X126509580Y-109875595D01*
X126509580Y-109875595D02*
X126414342Y-109827976D01*
X126414342Y-109827976D02*
X125604819Y-109827976D01*
X125604819Y-109447023D02*
X125604819Y-108827976D01*
X125604819Y-108827976D02*
X125985771Y-109161309D01*
X125985771Y-109161309D02*
X125985771Y-109018452D01*
X125985771Y-109018452D02*
X126033390Y-108923214D01*
X126033390Y-108923214D02*
X126081009Y-108875595D01*
X126081009Y-108875595D02*
X126176247Y-108827976D01*
X126176247Y-108827976D02*
X126414342Y-108827976D01*
X126414342Y-108827976D02*
X126509580Y-108875595D01*
X126509580Y-108875595D02*
X126557200Y-108923214D01*
X126557200Y-108923214D02*
X126604819Y-109018452D01*
X126604819Y-109018452D02*
X126604819Y-109304166D01*
X126604819Y-109304166D02*
X126557200Y-109399404D01*
X126557200Y-109399404D02*
X126509580Y-109447023D01*
D14*
%TO.C,J1*%
X123630000Y-117217500D02*
X123630000Y-115517500D01*
X132970000Y-117217500D02*
X132970000Y-115517500D01*
%TO.C,R11*%
X160346359Y-79120000D02*
X160653641Y-79120000D01*
X160346359Y-79880000D02*
X160653641Y-79880000D01*
D15*
%TO.C,S3*%
X151750000Y-69470000D02*
X151750000Y-72530000D01*
X154780000Y-68750000D02*
X153220000Y-68750000D01*
X154780000Y-73250000D02*
X153220000Y-73250000D01*
X156250000Y-69470000D02*
X156250000Y-72530000D01*
D16*
X155700000Y-66750000D02*
G75*
G02*
X155500000Y-66750000I-100000J0D01*
G01*
X155500000Y-66750000D02*
G75*
G02*
X155700000Y-66750000I100000J0D01*
G01*
D14*
%TO.C,Q2*%
X157500000Y-76890000D02*
X156700000Y-76890000D01*
X157500000Y-76890000D02*
X158300000Y-76890000D01*
X157500000Y-80010000D02*
X156700000Y-80010000D01*
X157500000Y-80010000D02*
X158300000Y-80010000D01*
X159040000Y-80290000D02*
X158560000Y-80290000D01*
X158800000Y-79960000D01*
X159040000Y-80290000D01*
G36*
X159040000Y-80290000D02*
G01*
X158560000Y-80290000D01*
X158800000Y-79960000D01*
X159040000Y-80290000D01*
G37*
%TO.C,R5*%
X154846359Y-98620000D02*
X155153641Y-98620000D01*
X154846359Y-99380000D02*
X155153641Y-99380000D01*
%TO.C,C8*%
X157090000Y-71763748D02*
X157090000Y-73186252D01*
X158910000Y-71763748D02*
X158910000Y-73186252D01*
D15*
%TO.C,U1*%
X128250000Y-77500000D02*
X129180000Y-77500000D01*
X128250000Y-78430000D02*
X128250000Y-77500000D01*
X128250000Y-96570000D02*
X128250000Y-97500000D01*
X128250000Y-97500000D02*
X129180000Y-97500000D01*
X147320000Y-77500000D02*
X148250000Y-77500000D01*
X147320000Y-97500000D02*
X148250000Y-97500000D01*
X148250000Y-77500000D02*
X148250000Y-78430000D01*
X148250000Y-97500000D02*
X148250000Y-96570000D01*
D16*
X126350000Y-78750000D02*
G75*
G02*
X126150000Y-78750000I-100000J0D01*
G01*
X126150000Y-78750000D02*
G75*
G02*
X126350000Y-78750000I100000J0D01*
G01*
D14*
%TO.C,LD1*%
X153765000Y-81515000D02*
X153765000Y-83800000D01*
X155235000Y-81515000D02*
X153765000Y-81515000D01*
X155235000Y-83800000D02*
X155235000Y-81515000D01*
%TO.C,J4*%
X164525000Y-103615000D02*
X164525000Y-107225000D01*
X164525000Y-108925000D02*
X164525000Y-113625000D01*
X164525000Y-114925000D02*
X164525000Y-116725000D01*
X164975000Y-103615000D02*
X164525000Y-103615000D01*
X165555000Y-119885000D02*
X165355000Y-119685000D01*
X165555000Y-119885000D02*
X167415000Y-119885000D01*
X167415000Y-119885000D02*
X167625000Y-119685000D01*
X167625000Y-119535000D02*
X167625000Y-119685000D01*
X167625000Y-119535000D02*
X173995000Y-119535000D01*
X174505000Y-119885000D02*
X173995000Y-119535000D01*
X176575000Y-103615000D02*
X178495000Y-103615000D01*
X176815000Y-119885000D02*
X174505000Y-119885000D01*
X176815000Y-119885000D02*
X177015000Y-119685000D01*
X177015000Y-119685000D02*
X177275000Y-119685000D01*
X178495000Y-103615000D02*
X178495000Y-117625000D01*
%TO.C,VR1*%
X142590000Y-109590000D02*
X143850000Y-109590000D01*
X142590000Y-113350000D02*
X142590000Y-109590000D01*
X149410000Y-109590000D02*
X148150000Y-109590000D01*
X149410000Y-113350000D02*
X149410000Y-109590000D01*
X142690000Y-114630000D02*
X142360000Y-114870000D01*
X142360000Y-114390000D01*
X142690000Y-114630000D01*
G36*
X142690000Y-114630000D02*
G01*
X142360000Y-114870000D01*
X142360000Y-114390000D01*
X142690000Y-114630000D01*
G37*
%TO.C,C10*%
X125140000Y-94607836D02*
X125140000Y-94392164D01*
X125860000Y-94607836D02*
X125860000Y-94392164D01*
%TO.C,C3*%
X152607836Y-98640000D02*
X152392164Y-98640000D01*
X152607836Y-99360000D02*
X152392164Y-99360000D01*
%TO.C,LD2*%
X153765000Y-76700000D02*
X153765000Y-78985000D01*
X153765000Y-78985000D02*
X155235000Y-78985000D01*
X155235000Y-78985000D02*
X155235000Y-76700000D01*
D15*
%TO.C,Y1*%
X120400000Y-97720000D02*
X120400000Y-99280000D01*
X121720000Y-96000000D02*
X122280000Y-96000000D01*
X121720000Y-101000000D02*
X122280000Y-101000000D01*
X123600000Y-97720000D02*
X123600000Y-99280000D01*
D16*
X119550000Y-96500000D02*
G75*
G02*
X119350000Y-96500000I-100000J0D01*
G01*
X119350000Y-96500000D02*
G75*
G02*
X119550000Y-96500000I100000J0D01*
G01*
D14*
%TO.C,J3*%
X186120000Y-71540000D02*
X187500000Y-71540000D01*
X186120000Y-72920000D02*
X186120000Y-71540000D01*
X186120000Y-74190000D02*
X186120000Y-87000000D01*
X186120000Y-74190000D02*
X188880000Y-74190000D01*
X186120000Y-87000000D02*
X188880000Y-87000000D01*
X188880000Y-74190000D02*
X188880000Y-87000000D01*
%TO.C,J9*%
X181845000Y-98310000D02*
X183225000Y-98310000D01*
X181845000Y-99690000D02*
X181845000Y-98310000D01*
X181845000Y-100960000D02*
X181845000Y-108690000D01*
X181845000Y-100960000D02*
X184495000Y-100960000D01*
X181845000Y-108690000D02*
X187145000Y-108690000D01*
X184495000Y-98310000D02*
X187145000Y-98310000D01*
X184495000Y-100960000D02*
X184495000Y-98310000D01*
X187145000Y-98310000D02*
X187145000Y-108690000D01*
%TO.C,J7*%
X157620000Y-92310000D02*
X157620000Y-84580000D01*
X160380000Y-84580000D02*
X157620000Y-84580000D01*
X160380000Y-92310000D02*
X157620000Y-92310000D01*
X160380000Y-92310000D02*
X160380000Y-84580000D01*
X160380000Y-93580000D02*
X160380000Y-94960000D01*
X160380000Y-94960000D02*
X159000000Y-94960000D01*
%TO.C,R9*%
X160346359Y-82620000D02*
X160653641Y-82620000D01*
X160346359Y-83380000D02*
X160653641Y-83380000D01*
%TO.C,C2*%
X139765000Y-115238748D02*
X139765000Y-115761252D01*
X141235000Y-115238748D02*
X141235000Y-115761252D01*
%TO.C,J2*%
X170255000Y-92135000D02*
X170320000Y-92135000D01*
X170255000Y-95765000D02*
X170255000Y-92135000D01*
X170255000Y-95765000D02*
X170320000Y-95765000D01*
X170320000Y-97040000D02*
X170320000Y-95765000D01*
X176760000Y-92135000D02*
X176825000Y-92135000D01*
X176760000Y-95765000D02*
X176825000Y-95765000D01*
X176825000Y-95765000D02*
X176825000Y-92135000D01*
D15*
%TO.C,S2*%
X153150000Y-101685000D02*
X159850000Y-101685000D01*
X153150000Y-102810000D02*
X153150000Y-101685000D01*
X153150000Y-105350000D02*
X153150000Y-104570000D01*
X153150000Y-107890000D02*
X153150000Y-107110000D01*
X153150000Y-110430000D02*
X153150000Y-109650000D01*
X153150000Y-113315000D02*
X153150000Y-112190000D01*
X159850000Y-101685000D02*
X159850000Y-102810000D01*
X159850000Y-104570000D02*
X159850000Y-105350000D01*
X159850000Y-107110000D02*
X159850000Y-107890000D01*
X159850000Y-109650000D02*
X159850000Y-110430000D01*
X159850000Y-112190000D02*
X159850000Y-113315000D01*
X159850000Y-113315000D02*
X153150000Y-113315000D01*
D16*
X150350000Y-103690000D02*
G75*
G02*
X150150000Y-103690000I-100000J0D01*
G01*
X150150000Y-103690000D02*
G75*
G02*
X150350000Y-103690000I100000J0D01*
G01*
D17*
%TO.C,U2*%
X162868700Y-68271800D02*
X162868700Y-68967760D01*
X162868700Y-87032240D02*
X162868700Y-87728200D01*
X162868700Y-87728200D02*
X165507760Y-87728200D01*
X178492240Y-87728200D02*
X181131300Y-87728200D01*
X181131300Y-68271800D02*
X162868700Y-68271800D01*
X181131300Y-68967760D02*
X181131300Y-68271800D01*
X181131300Y-87728200D02*
X181131300Y-87032240D01*
D14*
%TO.C,J8*%
X117460000Y-70080000D02*
X117460000Y-75380000D01*
X130270000Y-70080000D02*
X117460000Y-70080000D01*
X130270000Y-70080000D02*
X130270000Y-72730000D01*
X130270000Y-72730000D02*
X132920000Y-72730000D01*
X131540000Y-70080000D02*
X132920000Y-70080000D01*
X132920000Y-70080000D02*
X132920000Y-71460000D01*
X132920000Y-72730000D02*
X132920000Y-75380000D01*
X132920000Y-75380000D02*
X117460000Y-75380000D01*
%TO.C,C1*%
X137640000Y-114892164D02*
X137640000Y-115107836D01*
X138360000Y-114892164D02*
X138360000Y-115107836D01*
%TO.C,F1*%
X135399800Y-110140000D02*
X135600200Y-110140000D01*
X135399800Y-110860000D02*
X135600200Y-110860000D01*
%TO.C,J5*%
X118410000Y-82280000D02*
X119685000Y-82280000D01*
X119685000Y-82215000D02*
X119685000Y-82280000D01*
X119685000Y-82215000D02*
X123315000Y-82215000D01*
X119685000Y-88720000D02*
X119685000Y-88785000D01*
X119685000Y-88785000D02*
X123315000Y-88785000D01*
X123315000Y-82215000D02*
X123315000Y-82280000D01*
X123315000Y-88720000D02*
X123315000Y-88785000D01*
D15*
%TO.C,S1*%
X154250000Y-116720000D02*
X154250000Y-118280000D01*
X154970000Y-115250000D02*
X158030000Y-115250000D01*
X154970000Y-119750000D02*
X158030000Y-119750000D01*
X158750000Y-116720000D02*
X158750000Y-118280000D01*
D16*
X152350000Y-115900000D02*
G75*
G02*
X152150000Y-115900000I-100000J0D01*
G01*
X152150000Y-115900000D02*
G75*
G02*
X152350000Y-115900000I100000J0D01*
G01*
D14*
%TO.C,F2*%
X128600200Y-68140000D02*
X128399800Y-68140000D01*
X128600200Y-68860000D02*
X128399800Y-68860000D01*
%TO.C,C9*%
X159640000Y-71367164D02*
X159640000Y-71582836D01*
X160360000Y-71367164D02*
X160360000Y-71582836D01*
%TO.C,R8*%
X135653641Y-74120000D02*
X135346359Y-74120000D01*
X135653641Y-74880000D02*
X135346359Y-74880000D01*
%TO.C,J6*%
X135000000Y-70620000D02*
X135000000Y-73380000D01*
X147810000Y-70620000D02*
X135000000Y-70620000D01*
X147810000Y-70620000D02*
X147810000Y-73380000D01*
X147810000Y-73380000D02*
X135000000Y-73380000D01*
X149080000Y-70620000D02*
X150460000Y-70620000D01*
X150460000Y-70620000D02*
X150460000Y-72000000D01*
%TO.C,Y2*%
X134575000Y-100862500D02*
X135925000Y-100862500D01*
X134575000Y-102612500D02*
X135925000Y-102612500D01*
%TO.C,Q1*%
X157500000Y-80390000D02*
X156700000Y-80390000D01*
X157500000Y-80390000D02*
X158300000Y-80390000D01*
X157500000Y-83510000D02*
X156700000Y-83510000D01*
X157500000Y-83510000D02*
X158300000Y-83510000D01*
X159040000Y-83790000D02*
X158560000Y-83790000D01*
X158800000Y-83460000D01*
X159040000Y-83790000D01*
G36*
X159040000Y-83790000D02*
G01*
X158560000Y-83790000D01*
X158800000Y-83460000D01*
X159040000Y-83790000D01*
G37*
%TO.C,U3*%
X126990000Y-109637500D02*
X126990000Y-108837500D01*
X126990000Y-109637500D02*
X126990000Y-110437500D01*
X130110000Y-109637500D02*
X130110000Y-108837500D01*
X130110000Y-109637500D02*
X130110000Y-110437500D01*
X127040000Y-110937500D02*
X126710000Y-111177500D01*
X126710000Y-110697500D01*
X127040000Y-110937500D01*
G36*
X127040000Y-110937500D02*
G01*
X126710000Y-111177500D01*
X126710000Y-110697500D01*
X127040000Y-110937500D01*
G37*
%TD*%
M02*
