%TF.GenerationSoftware,KiCad,Pcbnew,9.0.3*%
%TF.CreationDate,2025-07-12T13:39:52+12:00*%
%TF.ProjectId,RemiRAT,52656d69-5241-4542-9e6b-696361645f70,rev?*%
%TF.SameCoordinates,Original*%
%TF.FileFunction,Copper,L2,Inr*%
%TF.FilePolarity,Positive*%
%FSLAX46Y46*%
G04 Gerber Fmt 4.6, Leading zero omitted, Abs format (unit mm)*
G04 Created by KiCad (PCBNEW 9.0.3) date 2025-07-12 13:39:52*
%MOMM*%
%LPD*%
G01*
G04 APERTURE LIST*
%TA.AperFunction,HeatsinkPad*%
%ADD10O,1.000000X2.100000*%
%TD*%
%TA.AperFunction,HeatsinkPad*%
%ADD11O,1.000000X1.800000*%
%TD*%
%TA.AperFunction,ComponentPad*%
%ADD12R,1.700000X1.700000*%
%TD*%
%TA.AperFunction,ComponentPad*%
%ADD13C,1.700000*%
%TD*%
%TA.AperFunction,ViaPad*%
%ADD14C,0.600000*%
%TD*%
G04 APERTURE END LIST*
D10*
%TO.N,GND*%
%TO.C,J1*%
X123980000Y-114212500D03*
D11*
X123980000Y-118392500D03*
D10*
X132620000Y-114212500D03*
D11*
X132620000Y-118392500D03*
%TD*%
D12*
%TO.N,GND*%
%TO.C,J3*%
X187500000Y-72920000D03*
D13*
%TO.N,ESP32TXD0*%
X187500000Y-75460000D03*
%TO.N,ESP32RXD0*%
X187500000Y-78000000D03*
%TO.N,3.3V*%
X187500000Y-80540000D03*
%TO.N,EN*%
X187500000Y-83080000D03*
%TO.N,IO0*%
X187500000Y-85620000D03*
%TD*%
D12*
%TO.N,IO17*%
%TO.C,J9*%
X183225000Y-99690000D03*
D13*
%TO.N,IO5*%
X185765000Y-99690000D03*
%TO.N,IO16*%
X183225000Y-102230000D03*
%TO.N,IO18*%
X185765000Y-102230000D03*
%TO.N,IO4*%
X183225000Y-104770000D03*
%TO.N,IO19*%
X185765000Y-104770000D03*
%TO.N,IO2*%
X183225000Y-107310000D03*
%TO.N,IO21*%
X185765000Y-107310000D03*
%TD*%
D12*
%TO.N,SAM-SPI-NPCS1*%
%TO.C,J7*%
X159000000Y-93580000D03*
D13*
%TO.N,SAM-SPI-MISO*%
X159000000Y-91040000D03*
%TO.N,SAM-SPI-SCK*%
X159000000Y-88500000D03*
%TO.N,SAM-SPI-MOSI*%
X159000000Y-85960000D03*
%TD*%
D12*
%TO.N,GND*%
%TO.C,J8*%
X131540000Y-71460000D03*
D13*
%TO.N,A1/PWML5/PC22*%
X131540000Y-74000000D03*
%TO.N,3.3VOUT*%
X129000000Y-71460000D03*
%TO.N,A2/PWML6/PC23*%
X129000000Y-74000000D03*
%TO.N,D14/PC16*%
X126460000Y-71460000D03*
%TO.N,RXD1/PA12*%
X126460000Y-74000000D03*
%TO.N,D15/PC17*%
X123920000Y-71460000D03*
%TO.N,TDX1/PA13*%
X123920000Y-74000000D03*
%TO.N,CANTX0/PA0*%
X121380000Y-71460000D03*
%TO.N,TWCK0/PA18*%
X121380000Y-74000000D03*
%TO.N,CANRX0/PA1*%
X118840000Y-71460000D03*
%TO.N,TWD0/PA17*%
X118840000Y-74000000D03*
%TD*%
D12*
%TO.N,GND*%
%TO.C,J6*%
X149080000Y-72000000D03*
D13*
%TO.N,UTXD/PA9*%
X146540000Y-72000000D03*
%TO.N,URXD/PA8*%
X144000000Y-72000000D03*
%TO.N,3.3V*%
X141460000Y-72000000D03*
%TO.N,NRSTB*%
X138920000Y-72000000D03*
%TO.N,ERASE/PC0*%
X136380000Y-72000000D03*
%TD*%
D14*
%TO.N,GND*%
X128500000Y-112000000D03*
X160000000Y-77500000D03*
X160000000Y-81000000D03*
%TO.N,USBDP*%
X129550000Y-115637500D03*
X127550000Y-116637500D03*
%TO.N,USBDM*%
X129050000Y-116637500D03*
X127050000Y-115637500D03*
%TO.N,GND*%
X147500000Y-79750000D03*
X150500000Y-95750000D03*
X138000000Y-99500000D03*
X129000000Y-84250000D03*
%TO.N,VBUS*%
X135000000Y-109613500D03*
X128000000Y-109613500D03*
X130500000Y-99500000D03*
X125900000Y-112500000D03*
X142000000Y-114550000D03*
X129096900Y-109613500D03*
X131000000Y-112000000D03*
%TO.N,CC1*%
X125000000Y-110500000D03*
X126500000Y-115000000D03*
%TO.N,3.3V*%
X148300000Y-116500000D03*
X131000000Y-100500000D03*
X169500000Y-95900000D03*
X139500000Y-99500000D03*
X148300000Y-112700000D03*
X170975000Y-105000000D03*
X150000000Y-114650000D03*
X156500000Y-99000000D03*
X156500000Y-85000000D03*
X119550000Y-81050000D03*
X156500000Y-75500000D03*
X156500000Y-70975000D03*
X125000000Y-68500000D03*
%TO.N,VDDCORE*%
X139500000Y-78500000D03*
X139250000Y-90750000D03*
X129250000Y-83250000D03*
X133500000Y-96500000D03*
X139000000Y-96500000D03*
X147250000Y-80750000D03*
%TO.N,EN*%
X166720000Y-72280000D03*
%TO.N,IO22*%
X162000000Y-83041000D03*
X179000000Y-72280000D03*
X125000000Y-77500000D03*
%TO.N,IO21*%
X185000000Y-91000000D03*
%TO.N,IO19*%
X184000000Y-91000000D03*
%TO.N,IO18*%
X184000000Y-90000000D03*
%TO.N,IO5*%
X183000000Y-90000000D03*
%TO.N,IO17*%
X183000000Y-89000000D03*
%TO.N,IO16*%
X182000000Y-89000000D03*
%TO.N,IO4*%
X182000000Y-88000000D03*
%TO.N,IO0*%
X154500000Y-106230000D03*
X181000000Y-87500000D03*
%TO.N,IO2*%
X178000000Y-89000000D03*
%TO.N,IO26*%
X126500000Y-78019540D03*
X164940000Y-82440000D03*
%TO.N,TDI/IO12*%
X175000000Y-90000000D03*
X167000000Y-89425000D03*
%TO.N,SAM-SPI-MISO*%
X167675000Y-102000000D03*
%TO.N,SAM-SPI-MOSI*%
X172075000Y-102000000D03*
%TO.N,SAM-SPI-SCK*%
X169875000Y-102000000D03*
%TO.N,SAM-SPI-NPCS0*%
X159000000Y-84500000D03*
X173175000Y-102000000D03*
%TO.N,SAM-SPI-NPCS1*%
X151000000Y-78500000D03*
X145500000Y-78500000D03*
%TO.N,UTXD/PA9*%
X134999000Y-73000000D03*
X129000000Y-79250000D03*
%TO.N,URXD/PA8*%
X134500000Y-81500000D03*
%TO.N,NRSTB*%
X124500000Y-91500000D03*
X134500000Y-91500000D03*
X152000000Y-100000000D03*
%TO.N,TWCK0/PA18*%
X129000000Y-80500000D03*
%TO.N,TWD0/PA17*%
X126250000Y-82750000D03*
%TO.N,D15/PC17*%
X134000000Y-68798000D03*
X139000000Y-69500000D03*
X150500000Y-83000000D03*
%TO.N,D14/PC16*%
X137500000Y-69501000D03*
X133500000Y-69501000D03*
X150500000Y-84000000D03*
%TD*%
%TA.AperFunction,Conductor*%
%TO.N,GND*%
G36*
X189442539Y-64520185D02*
G01*
X189488294Y-64572989D01*
X189499500Y-64624500D01*
X189499500Y-120375500D01*
X189479815Y-120442539D01*
X189427011Y-120488294D01*
X189375500Y-120499500D01*
X117624500Y-120499500D01*
X117557461Y-120479815D01*
X117511706Y-120427011D01*
X117500500Y-120375500D01*
X117500500Y-117868872D01*
X117999500Y-117868872D01*
X117999500Y-118131127D01*
X118020436Y-118290140D01*
X118033730Y-118391116D01*
X118098831Y-118634076D01*
X118101602Y-118644418D01*
X118101605Y-118644428D01*
X118201953Y-118886690D01*
X118201958Y-118886700D01*
X118333075Y-119113803D01*
X118492718Y-119321851D01*
X118492726Y-119321860D01*
X118678140Y-119507274D01*
X118678148Y-119507281D01*
X118886196Y-119666924D01*
X119113299Y-119798041D01*
X119113309Y-119798046D01*
X119355571Y-119898394D01*
X119355581Y-119898398D01*
X119608884Y-119966270D01*
X119868880Y-120000500D01*
X119868887Y-120000500D01*
X120131113Y-120000500D01*
X120131120Y-120000500D01*
X120391116Y-119966270D01*
X120644419Y-119898398D01*
X120886697Y-119798043D01*
X121113803Y-119666924D01*
X121321851Y-119507282D01*
X121321855Y-119507277D01*
X121321860Y-119507274D01*
X121507274Y-119321860D01*
X121507277Y-119321855D01*
X121507282Y-119321851D01*
X121666924Y-119113803D01*
X121798043Y-118886697D01*
X121898398Y-118644419D01*
X121966270Y-118391116D01*
X122000500Y-118131120D01*
X122000500Y-117894004D01*
X122980000Y-117894004D01*
X122980000Y-118142500D01*
X123680000Y-118142500D01*
X123680000Y-118642500D01*
X122980000Y-118642500D01*
X122980000Y-118890995D01*
X123018427Y-119084181D01*
X123018430Y-119084193D01*
X123093807Y-119266171D01*
X123093814Y-119266184D01*
X123203248Y-119429962D01*
X123203251Y-119429966D01*
X123342533Y-119569248D01*
X123342537Y-119569251D01*
X123506315Y-119678685D01*
X123506328Y-119678692D01*
X123688308Y-119754069D01*
X123730000Y-119762362D01*
X123730000Y-118959488D01*
X123739940Y-118976705D01*
X123795795Y-119032560D01*
X123864204Y-119072056D01*
X123940504Y-119092500D01*
X124019496Y-119092500D01*
X124095796Y-119072056D01*
X124164205Y-119032560D01*
X124220060Y-118976705D01*
X124230000Y-118959488D01*
X124230000Y-119762362D01*
X124271690Y-119754069D01*
X124271692Y-119754069D01*
X124453671Y-119678692D01*
X124453684Y-119678685D01*
X124617462Y-119569251D01*
X124617466Y-119569248D01*
X124756748Y-119429966D01*
X124756751Y-119429962D01*
X124866185Y-119266184D01*
X124866192Y-119266171D01*
X124941569Y-119084193D01*
X124941572Y-119084181D01*
X124979999Y-118890995D01*
X124980000Y-118890992D01*
X124980000Y-118642500D01*
X124280000Y-118642500D01*
X124280000Y-118142500D01*
X124980000Y-118142500D01*
X124980000Y-117894008D01*
X124979999Y-117894004D01*
X131620000Y-117894004D01*
X131620000Y-118142500D01*
X132320000Y-118142500D01*
X132320000Y-118642500D01*
X131620000Y-118642500D01*
X131620000Y-118890995D01*
X131658427Y-119084181D01*
X131658430Y-119084193D01*
X131733807Y-119266171D01*
X131733814Y-119266184D01*
X131843248Y-119429962D01*
X131843251Y-119429966D01*
X131982533Y-119569248D01*
X131982537Y-119569251D01*
X132146315Y-119678685D01*
X132146328Y-119678692D01*
X132328308Y-119754069D01*
X132370000Y-119762362D01*
X132370000Y-118959488D01*
X132379940Y-118976705D01*
X132435795Y-119032560D01*
X132504204Y-119072056D01*
X132580504Y-119092500D01*
X132659496Y-119092500D01*
X132735796Y-119072056D01*
X132804205Y-119032560D01*
X132860060Y-118976705D01*
X132870000Y-118959488D01*
X132870000Y-119762362D01*
X132911690Y-119754069D01*
X132911692Y-119754069D01*
X133093671Y-119678692D01*
X133093684Y-119678685D01*
X133257462Y-119569251D01*
X133257466Y-119569248D01*
X133396748Y-119429966D01*
X133396751Y-119429962D01*
X133506185Y-119266184D01*
X133506192Y-119266171D01*
X133581569Y-119084193D01*
X133581572Y-119084181D01*
X133619999Y-118890995D01*
X133620000Y-118890992D01*
X133620000Y-118642500D01*
X132920000Y-118642500D01*
X132920000Y-118142500D01*
X133620000Y-118142500D01*
X133620000Y-117894008D01*
X133619999Y-117894002D01*
X133619006Y-117889007D01*
X133619006Y-117889006D01*
X133615001Y-117868872D01*
X182999500Y-117868872D01*
X182999500Y-118131127D01*
X183020436Y-118290140D01*
X183033730Y-118391116D01*
X183098831Y-118634076D01*
X183101602Y-118644418D01*
X183101605Y-118644428D01*
X183201953Y-118886690D01*
X183201958Y-118886700D01*
X183333075Y-119113803D01*
X183492718Y-119321851D01*
X183492726Y-119321860D01*
X183678140Y-119507274D01*
X183678148Y-119507281D01*
X183886196Y-119666924D01*
X184113299Y-119798041D01*
X184113309Y-119798046D01*
X184355571Y-119898394D01*
X184355581Y-119898398D01*
X184608884Y-119966270D01*
X184868880Y-120000500D01*
X184868887Y-120000500D01*
X185131113Y-120000500D01*
X185131120Y-120000500D01*
X185391116Y-119966270D01*
X185644419Y-119898398D01*
X185886697Y-119798043D01*
X186113803Y-119666924D01*
X186321851Y-119507282D01*
X186321855Y-119507277D01*
X186321860Y-119507274D01*
X186507274Y-119321860D01*
X186507277Y-119321855D01*
X186507282Y-119321851D01*
X186666924Y-119113803D01*
X186798043Y-118886697D01*
X186898398Y-118644419D01*
X186966270Y-118391116D01*
X187000500Y-118131120D01*
X187000500Y-117868880D01*
X186966270Y-117608884D01*
X186898398Y-117355581D01*
X186862840Y-117269737D01*
X186798046Y-117113309D01*
X186798041Y-117113299D01*
X186666924Y-116886196D01*
X186507281Y-116678148D01*
X186507274Y-116678140D01*
X186321860Y-116492726D01*
X186321851Y-116492718D01*
X186113803Y-116333075D01*
X185886700Y-116201958D01*
X185886690Y-116201953D01*
X185644428Y-116101605D01*
X185644421Y-116101603D01*
X185644419Y-116101602D01*
X185391116Y-116033730D01*
X185333339Y-116026123D01*
X185131127Y-115999500D01*
X185131120Y-115999500D01*
X184868880Y-115999500D01*
X184868872Y-115999500D01*
X184637772Y-116029926D01*
X184608884Y-116033730D01*
X184355581Y-116101602D01*
X184355571Y-116101605D01*
X184113309Y-116201953D01*
X184113299Y-116201958D01*
X183886196Y-116333075D01*
X183678148Y-116492718D01*
X183492718Y-116678148D01*
X183333075Y-116886196D01*
X183201958Y-117113299D01*
X183201953Y-117113309D01*
X183101605Y-117355571D01*
X183101602Y-117355581D01*
X183033730Y-117608885D01*
X182999500Y-117868872D01*
X133615001Y-117868872D01*
X133581572Y-117700818D01*
X133581569Y-117700806D01*
X133506192Y-117518828D01*
X133506185Y-117518815D01*
X133396751Y-117355037D01*
X133396748Y-117355033D01*
X133257466Y-117215751D01*
X133257462Y-117215748D01*
X133093684Y-117106314D01*
X133093671Y-117106307D01*
X132911691Y-117030929D01*
X132911683Y-117030927D01*
X132870000Y-117022635D01*
X132870000Y-117825511D01*
X132860060Y-117808295D01*
X132804205Y-117752440D01*
X132735796Y-117712944D01*
X132659496Y-117692500D01*
X132580504Y-117692500D01*
X132504204Y-117712944D01*
X132435795Y-117752440D01*
X132379940Y-117808295D01*
X132370000Y-117825511D01*
X132370000Y-117022636D01*
X132369999Y-117022635D01*
X132328316Y-117030927D01*
X132328308Y-117030929D01*
X132146328Y-117106307D01*
X132146315Y-117106314D01*
X131982537Y-117215748D01*
X131982533Y-117215751D01*
X131843251Y-117355033D01*
X131843248Y-117355037D01*
X131733814Y-117518815D01*
X131733807Y-117518828D01*
X131658430Y-117700806D01*
X131658427Y-117700818D01*
X131620000Y-117894004D01*
X124979999Y-117894004D01*
X124941572Y-117700818D01*
X124941569Y-117700806D01*
X124866192Y-117518828D01*
X124866185Y-117518815D01*
X124756751Y-117355037D01*
X124756748Y-117355033D01*
X124617466Y-117215751D01*
X124617462Y-117215748D01*
X124453684Y-117106314D01*
X124453671Y-117106307D01*
X124271691Y-117030929D01*
X124271683Y-117030927D01*
X124230000Y-117022635D01*
X124230000Y-117825511D01*
X124220060Y-117808295D01*
X124164205Y-117752440D01*
X124095796Y-117712944D01*
X124019496Y-117692500D01*
X123940504Y-117692500D01*
X123864204Y-117712944D01*
X123795795Y-117752440D01*
X123739940Y-117808295D01*
X123730000Y-117825511D01*
X123730000Y-117022636D01*
X123729999Y-117022635D01*
X123688316Y-117030927D01*
X123688308Y-117030929D01*
X123506328Y-117106307D01*
X123506315Y-117106314D01*
X123342537Y-117215748D01*
X123342533Y-117215751D01*
X123203251Y-117355033D01*
X123203248Y-117355037D01*
X123093814Y-117518815D01*
X123093807Y-117518828D01*
X123018430Y-117700806D01*
X123018427Y-117700818D01*
X122980000Y-117894004D01*
X122000500Y-117894004D01*
X122000500Y-117868880D01*
X121966270Y-117608884D01*
X121898398Y-117355581D01*
X121862840Y-117269737D01*
X121798046Y-117113309D01*
X121798041Y-117113299D01*
X121666924Y-116886196D01*
X121507281Y-116678148D01*
X121507274Y-116678140D01*
X121321860Y-116492726D01*
X121321851Y-116492718D01*
X121113803Y-116333075D01*
X120886700Y-116201958D01*
X120886690Y-116201953D01*
X120644428Y-116101605D01*
X120644421Y-116101603D01*
X120644419Y-116101602D01*
X120391116Y-116033730D01*
X120333339Y-116026123D01*
X120131127Y-115999500D01*
X120131120Y-115999500D01*
X119868880Y-115999500D01*
X119868872Y-115999500D01*
X119637772Y-116029926D01*
X119608884Y-116033730D01*
X119355581Y-116101602D01*
X119355571Y-116101605D01*
X119113309Y-116201953D01*
X119113299Y-116201958D01*
X118886196Y-116333075D01*
X118678148Y-116492718D01*
X118492718Y-116678148D01*
X118333075Y-116886196D01*
X118201958Y-117113299D01*
X118201953Y-117113309D01*
X118101605Y-117355571D01*
X118101602Y-117355581D01*
X118033730Y-117608885D01*
X117999500Y-117868872D01*
X117500500Y-117868872D01*
X117500500Y-113564004D01*
X122980000Y-113564004D01*
X122980000Y-113962500D01*
X123680000Y-113962500D01*
X123680000Y-114462500D01*
X122980000Y-114462500D01*
X122980000Y-114860995D01*
X123018427Y-115054181D01*
X123018430Y-115054193D01*
X123093807Y-115236171D01*
X123093814Y-115236184D01*
X123203248Y-115399962D01*
X123203251Y-115399966D01*
X123342533Y-115539248D01*
X123342537Y-115539251D01*
X123506315Y-115648685D01*
X123506328Y-115648692D01*
X123688308Y-115724069D01*
X123730000Y-115732362D01*
X123730000Y-114929488D01*
X123739940Y-114946705D01*
X123795795Y-115002560D01*
X123864204Y-115042056D01*
X123940504Y-115062500D01*
X124019496Y-115062500D01*
X124095796Y-115042056D01*
X124164205Y-115002560D01*
X124220060Y-114946705D01*
X124230000Y-114929488D01*
X124230000Y-115732362D01*
X124271690Y-115724069D01*
X124271692Y-115724069D01*
X124453671Y-115648692D01*
X124453684Y-115648685D01*
X124617462Y-115539251D01*
X124617466Y-115539248D01*
X124756748Y-115399966D01*
X124756751Y-115399962D01*
X124866185Y-115236184D01*
X124866192Y-115236171D01*
X124892647Y-115172303D01*
X124936487Y-115117899D01*
X125002781Y-115095834D01*
X125070481Y-115113113D01*
X125084187Y-115123761D01*
X125084574Y-115123258D01*
X125091016Y-115128201D01*
X125091019Y-115128204D01*
X125091022Y-115128205D01*
X125091025Y-115128208D01*
X125167401Y-115172303D01*
X125209480Y-115196597D01*
X125341606Y-115232000D01*
X125341608Y-115232000D01*
X125478391Y-115232000D01*
X125478394Y-115232000D01*
X125599506Y-115199548D01*
X125669352Y-115201211D01*
X125727215Y-115240373D01*
X125746157Y-115271870D01*
X125790604Y-115379176D01*
X125790609Y-115379185D01*
X125878210Y-115510288D01*
X125878213Y-115510292D01*
X125989707Y-115621786D01*
X125989711Y-115621789D01*
X126120814Y-115709390D01*
X126120827Y-115709397D01*
X126198312Y-115741492D01*
X126252716Y-115785333D01*
X126272477Y-115831860D01*
X126280261Y-115870992D01*
X126280263Y-115870999D01*
X126340602Y-116016672D01*
X126340609Y-116016685D01*
X126428210Y-116147788D01*
X126428213Y-116147792D01*
X126539707Y-116259286D01*
X126539711Y-116259289D01*
X126670817Y-116346892D01*
X126670819Y-116346893D01*
X126670821Y-116346894D01*
X126688409Y-116354179D01*
X126742812Y-116398020D01*
X126764877Y-116464314D01*
X126762573Y-116492931D01*
X126749500Y-116558653D01*
X126749500Y-116716346D01*
X126780261Y-116870989D01*
X126780264Y-116871001D01*
X126840602Y-117016672D01*
X126840609Y-117016685D01*
X126928210Y-117147788D01*
X126928213Y-117147792D01*
X127039707Y-117259286D01*
X127039711Y-117259289D01*
X127170814Y-117346890D01*
X127170827Y-117346897D01*
X127316498Y-117407235D01*
X127316503Y-117407237D01*
X127471153Y-117437999D01*
X127471156Y-117438000D01*
X127471158Y-117438000D01*
X127628844Y-117438000D01*
X127628845Y-117437999D01*
X127783497Y-117407237D01*
X127929179Y-117346894D01*
X128060289Y-117259289D01*
X128171789Y-117147789D01*
X128189164Y-117121786D01*
X128196898Y-117110212D01*
X128250510Y-117065406D01*
X128319835Y-117056699D01*
X128382862Y-117086853D01*
X128403102Y-117110212D01*
X128428207Y-117147784D01*
X128428213Y-117147792D01*
X128539707Y-117259286D01*
X128539711Y-117259289D01*
X128670814Y-117346890D01*
X128670827Y-117346897D01*
X128816498Y-117407235D01*
X128816503Y-117407237D01*
X128971153Y-117437999D01*
X128971156Y-117438000D01*
X128971158Y-117438000D01*
X129128844Y-117438000D01*
X129128845Y-117437999D01*
X129283497Y-117407237D01*
X129429179Y-117346894D01*
X129560289Y-117259289D01*
X129671789Y-117147789D01*
X129759394Y-117016679D01*
X129819737Y-116870997D01*
X129850500Y-116716342D01*
X129850500Y-116558658D01*
X129850500Y-116558655D01*
X129837426Y-116492931D01*
X129839516Y-116469563D01*
X129837104Y-116446227D01*
X129842572Y-116435411D01*
X129843653Y-116423340D01*
X129845352Y-116421153D01*
X147499500Y-116421153D01*
X147499500Y-116578846D01*
X147530261Y-116733489D01*
X147530264Y-116733501D01*
X147590602Y-116879172D01*
X147590609Y-116879185D01*
X147678210Y-117010288D01*
X147678213Y-117010292D01*
X147789707Y-117121786D01*
X147789711Y-117121789D01*
X147920814Y-117209390D01*
X147920827Y-117209397D01*
X148041272Y-117259286D01*
X148066503Y-117269737D01*
X148221153Y-117300499D01*
X148221156Y-117300500D01*
X148221158Y-117300500D01*
X148378844Y-117300500D01*
X148378845Y-117300499D01*
X148533497Y-117269737D01*
X148679179Y-117209394D01*
X148810289Y-117121789D01*
X148921789Y-117010289D01*
X149009394Y-116879179D01*
X149069737Y-116733497D01*
X149100500Y-116578842D01*
X149100500Y-116421158D01*
X149100500Y-116421155D01*
X149100499Y-116421153D01*
X149097088Y-116404003D01*
X149069737Y-116266503D01*
X149049771Y-116218300D01*
X149009397Y-116120827D01*
X149009390Y-116120814D01*
X148921789Y-115989711D01*
X148921786Y-115989707D01*
X148810292Y-115878213D01*
X148810288Y-115878210D01*
X148679185Y-115790609D01*
X148679172Y-115790602D01*
X148533501Y-115730264D01*
X148533489Y-115730261D01*
X148378845Y-115699500D01*
X148378842Y-115699500D01*
X148221158Y-115699500D01*
X148221155Y-115699500D01*
X148066510Y-115730261D01*
X148066498Y-115730264D01*
X147920827Y-115790602D01*
X147920814Y-115790609D01*
X147789711Y-115878210D01*
X147789707Y-115878213D01*
X147678213Y-115989707D01*
X147678210Y-115989711D01*
X147590609Y-116120814D01*
X147590602Y-116120827D01*
X147530264Y-116266498D01*
X147530261Y-116266510D01*
X147499500Y-116421153D01*
X129845352Y-116421153D01*
X129858045Y-116404812D01*
X129868632Y-116383875D01*
X129880892Y-116375399D01*
X129886515Y-116368162D01*
X129896203Y-116361841D01*
X129903621Y-116357480D01*
X129929179Y-116346894D01*
X130060289Y-116259289D01*
X130171789Y-116147789D01*
X130259394Y-116016679D01*
X130319737Y-115870997D01*
X130350500Y-115716342D01*
X130350500Y-115558658D01*
X130350500Y-115558655D01*
X130350499Y-115558653D01*
X130340879Y-115510289D01*
X130319737Y-115404003D01*
X130309455Y-115379179D01*
X130259397Y-115258327D01*
X130259390Y-115258314D01*
X130171789Y-115127211D01*
X130171786Y-115127207D01*
X130060292Y-115015713D01*
X130060288Y-115015710D01*
X129929185Y-114928109D01*
X129929172Y-114928102D01*
X129783501Y-114867764D01*
X129783489Y-114867761D01*
X129628845Y-114837000D01*
X129628842Y-114837000D01*
X129471158Y-114837000D01*
X129471155Y-114837000D01*
X129316510Y-114867761D01*
X129316498Y-114867764D01*
X129170827Y-114928102D01*
X129170814Y-114928109D01*
X129039711Y-115015710D01*
X129039707Y-115015713D01*
X128928213Y-115127207D01*
X128928210Y-115127211D01*
X128840609Y-115258314D01*
X128840602Y-115258327D01*
X128780264Y-115403998D01*
X128780261Y-115404010D01*
X128749500Y-115558653D01*
X128749500Y-115716346D01*
X128762573Y-115782068D01*
X128756346Y-115851659D01*
X128713483Y-115906837D01*
X128688411Y-115920819D01*
X128670826Y-115928103D01*
X128670814Y-115928109D01*
X128539711Y-116015710D01*
X128539707Y-116015713D01*
X128428213Y-116127207D01*
X128403102Y-116164789D01*
X128349489Y-116209593D01*
X128280164Y-116218300D01*
X128217137Y-116188145D01*
X128196898Y-116164789D01*
X128171786Y-116127207D01*
X128060292Y-116015713D01*
X128060288Y-116015710D01*
X127929185Y-115928109D01*
X127929179Y-115928106D01*
X127911589Y-115920820D01*
X127857186Y-115876978D01*
X127835122Y-115810684D01*
X127837426Y-115782068D01*
X127850500Y-115716342D01*
X127850500Y-115558658D01*
X127850500Y-115558655D01*
X127850499Y-115558653D01*
X127840879Y-115510289D01*
X127819737Y-115404003D01*
X127809455Y-115379179D01*
X127759397Y-115258327D01*
X127759390Y-115258314D01*
X127671789Y-115127211D01*
X127671786Y-115127207D01*
X127560292Y-115015713D01*
X127560288Y-115015710D01*
X127429185Y-114928109D01*
X127429179Y-114928106D01*
X127351684Y-114896006D01*
X127324664Y-114874232D01*
X127297647Y-114852688D01*
X127297497Y-114852338D01*
X127297281Y-114852164D01*
X127281687Y-114821209D01*
X127279097Y-114813560D01*
X127269737Y-114766503D01*
X127219039Y-114644106D01*
X130670500Y-114644106D01*
X130670500Y-114780894D01*
X130697994Y-114883501D01*
X130705903Y-114913019D01*
X130705906Y-114913026D01*
X130774291Y-115031474D01*
X130774295Y-115031479D01*
X130774296Y-115031481D01*
X130871019Y-115128204D01*
X130871021Y-115128205D01*
X130871025Y-115128208D01*
X130947401Y-115172303D01*
X130989480Y-115196597D01*
X131121606Y-115232000D01*
X131121608Y-115232000D01*
X131258392Y-115232000D01*
X131258394Y-115232000D01*
X131390520Y-115196597D01*
X131508981Y-115128204D01*
X131508986Y-115128198D01*
X131515426Y-115123258D01*
X131517150Y-115125505D01*
X131566401Y-115098596D01*
X131636094Y-115103562D01*
X131692038Y-115145418D01*
X131707352Y-115172302D01*
X131733809Y-115236174D01*
X131733814Y-115236184D01*
X131843248Y-115399962D01*
X131843251Y-115399966D01*
X131982533Y-115539248D01*
X131982537Y-115539251D01*
X132146315Y-115648685D01*
X132146328Y-115648692D01*
X132328308Y-115724069D01*
X132370000Y-115732362D01*
X132370000Y-114929488D01*
X132379940Y-114946705D01*
X132435795Y-115002560D01*
X132504204Y-115042056D01*
X132580504Y-115062500D01*
X132659496Y-115062500D01*
X132735796Y-115042056D01*
X132804205Y-115002560D01*
X132860060Y-114946705D01*
X132870000Y-114929488D01*
X132870000Y-115732362D01*
X132911690Y-115724069D01*
X132911692Y-115724069D01*
X133093671Y-115648692D01*
X133093684Y-115648685D01*
X133257462Y-115539251D01*
X133257466Y-115539248D01*
X133396748Y-115399966D01*
X133396751Y-115399962D01*
X133506185Y-115236184D01*
X133506192Y-115236171D01*
X133581569Y-115054193D01*
X133581572Y-115054181D01*
X133619999Y-114860995D01*
X133620000Y-114860992D01*
X133620000Y-114471153D01*
X141199500Y-114471153D01*
X141199500Y-114628846D01*
X141230261Y-114783489D01*
X141230264Y-114783501D01*
X141290602Y-114929172D01*
X141290609Y-114929185D01*
X141378210Y-115060288D01*
X141378213Y-115060292D01*
X141489707Y-115171786D01*
X141489711Y-115171789D01*
X141620814Y-115259390D01*
X141620827Y-115259397D01*
X141766498Y-115319735D01*
X141766503Y-115319737D01*
X141921153Y-115350499D01*
X141921156Y-115350500D01*
X141921158Y-115350500D01*
X142078844Y-115350500D01*
X142078845Y-115350499D01*
X142233497Y-115319737D01*
X142379179Y-115259394D01*
X142510289Y-115171789D01*
X142621789Y-115060289D01*
X142709394Y-114929179D01*
X142709839Y-114928106D01*
X142734834Y-114867761D01*
X142769737Y-114783497D01*
X142800500Y-114628842D01*
X142800500Y-114571153D01*
X149199500Y-114571153D01*
X149199500Y-114728846D01*
X149230261Y-114883489D01*
X149230264Y-114883501D01*
X149290602Y-115029172D01*
X149290609Y-115029185D01*
X149378210Y-115160288D01*
X149378213Y-115160292D01*
X149489707Y-115271786D01*
X149489711Y-115271789D01*
X149620814Y-115359390D01*
X149620827Y-115359397D01*
X149718771Y-115399966D01*
X149766503Y-115419737D01*
X149921153Y-115450499D01*
X149921156Y-115450500D01*
X149921158Y-115450500D01*
X150078844Y-115450500D01*
X150078845Y-115450499D01*
X150233497Y-115419737D01*
X150379179Y-115359394D01*
X150510289Y-115271789D01*
X150621789Y-115160289D01*
X150709394Y-115029179D01*
X150769737Y-114883497D01*
X150800500Y-114728842D01*
X150800500Y-114571158D01*
X150800500Y-114571155D01*
X150800499Y-114571153D01*
X150783917Y-114487790D01*
X150769737Y-114416503D01*
X150754989Y-114380898D01*
X150709397Y-114270827D01*
X150709390Y-114270814D01*
X150621789Y-114139711D01*
X150621786Y-114139707D01*
X150510292Y-114028213D01*
X150510288Y-114028210D01*
X150379185Y-113940609D01*
X150379172Y-113940602D01*
X150233501Y-113880264D01*
X150233489Y-113880261D01*
X150078845Y-113849500D01*
X150078842Y-113849500D01*
X149921158Y-113849500D01*
X149921155Y-113849500D01*
X149766510Y-113880261D01*
X149766498Y-113880264D01*
X149620827Y-113940602D01*
X149620814Y-113940609D01*
X149489711Y-114028210D01*
X149489707Y-114028213D01*
X149378213Y-114139707D01*
X149378210Y-114139711D01*
X149290609Y-114270814D01*
X149290602Y-114270827D01*
X149230264Y-114416498D01*
X149230261Y-114416510D01*
X149199500Y-114571153D01*
X142800500Y-114571153D01*
X142800500Y-114471158D01*
X142800500Y-114471155D01*
X142800499Y-114471153D01*
X142789627Y-114416498D01*
X142769737Y-114316503D01*
X142761572Y-114296791D01*
X142709397Y-114170827D01*
X142709390Y-114170814D01*
X142621789Y-114039711D01*
X142621786Y-114039707D01*
X142510292Y-113928213D01*
X142510288Y-113928210D01*
X142379185Y-113840609D01*
X142379172Y-113840602D01*
X142233501Y-113780264D01*
X142233489Y-113780261D01*
X142078845Y-113749500D01*
X142078842Y-113749500D01*
X141921158Y-113749500D01*
X141921155Y-113749500D01*
X141766510Y-113780261D01*
X141766498Y-113780264D01*
X141620827Y-113840602D01*
X141620814Y-113840609D01*
X141489711Y-113928210D01*
X141489707Y-113928213D01*
X141378213Y-114039707D01*
X141378210Y-114039711D01*
X141290609Y-114170814D01*
X141290602Y-114170827D01*
X141230264Y-114316498D01*
X141230261Y-114316510D01*
X141199500Y-114471153D01*
X133620000Y-114471153D01*
X133620000Y-114462500D01*
X132920000Y-114462500D01*
X132920000Y-113962500D01*
X133620000Y-113962500D01*
X133620000Y-113564008D01*
X133619999Y-113564004D01*
X133581572Y-113370818D01*
X133581569Y-113370806D01*
X133506192Y-113188828D01*
X133506185Y-113188815D01*
X133396751Y-113025037D01*
X133396748Y-113025033D01*
X133257466Y-112885751D01*
X133257462Y-112885748D01*
X133093684Y-112776314D01*
X133093671Y-112776307D01*
X132980973Y-112729627D01*
X132980972Y-112729627D01*
X132911687Y-112700928D01*
X132911683Y-112700927D01*
X132870000Y-112692635D01*
X132870000Y-113495511D01*
X132860060Y-113478295D01*
X132804205Y-113422440D01*
X132735796Y-113382944D01*
X132659496Y-113362500D01*
X132580504Y-113362500D01*
X132504204Y-113382944D01*
X132435795Y-113422440D01*
X132379940Y-113478295D01*
X132370000Y-113495511D01*
X132370000Y-112692636D01*
X132369999Y-112692635D01*
X132328316Y-112700927D01*
X132328308Y-112700929D01*
X132146328Y-112776307D01*
X132146315Y-112776314D01*
X131982537Y-112885748D01*
X131982533Y-112885751D01*
X131843251Y-113025033D01*
X131843248Y-113025037D01*
X131733814Y-113188815D01*
X131733807Y-113188828D01*
X131658430Y-113370806D01*
X131658427Y-113370818D01*
X131620000Y-113564004D01*
X131620000Y-113962500D01*
X132320000Y-113962500D01*
X132320000Y-114462500D01*
X131717122Y-114462500D01*
X131650083Y-114442815D01*
X131609735Y-114400501D01*
X131605704Y-114393519D01*
X131508982Y-114296797D01*
X131508974Y-114296791D01*
X131390526Y-114228406D01*
X131390522Y-114228404D01*
X131390520Y-114228403D01*
X131258394Y-114193000D01*
X131121606Y-114193000D01*
X130989480Y-114228403D01*
X130989473Y-114228406D01*
X130871025Y-114296791D01*
X130871017Y-114296797D01*
X130774297Y-114393517D01*
X130774291Y-114393525D01*
X130705906Y-114511973D01*
X130705904Y-114511977D01*
X130705903Y-114511980D01*
X130670500Y-114644106D01*
X127219039Y-114644106D01*
X127212718Y-114628846D01*
X127209397Y-114620827D01*
X127209390Y-114620814D01*
X127121789Y-114489711D01*
X127121786Y-114489707D01*
X127010292Y-114378213D01*
X127010288Y-114378210D01*
X126879185Y-114290609D01*
X126879172Y-114290602D01*
X126733501Y-114230264D01*
X126733489Y-114230261D01*
X126578845Y-114199500D01*
X126578842Y-114199500D01*
X126421158Y-114199500D01*
X126421155Y-114199500D01*
X126266510Y-114230261D01*
X126266498Y-114230264D01*
X126120827Y-114290602D01*
X126120814Y-114290609D01*
X125989714Y-114378208D01*
X125989706Y-114378215D01*
X125987727Y-114380194D01*
X125986437Y-114380898D01*
X125985007Y-114382072D01*
X125984784Y-114381800D01*
X125926401Y-114413674D01*
X125856710Y-114408684D01*
X125812372Y-114380187D01*
X125728982Y-114296797D01*
X125728974Y-114296791D01*
X125610526Y-114228406D01*
X125610522Y-114228404D01*
X125610520Y-114228403D01*
X125478394Y-114193000D01*
X125341606Y-114193000D01*
X125209480Y-114228403D01*
X125209473Y-114228406D01*
X125091025Y-114296791D01*
X125091017Y-114296797D01*
X124994295Y-114393519D01*
X124990265Y-114400501D01*
X124939697Y-114448716D01*
X124882878Y-114462500D01*
X124280000Y-114462500D01*
X124280000Y-113962500D01*
X124980000Y-113962500D01*
X124980000Y-113564008D01*
X124979999Y-113564004D01*
X124941572Y-113370818D01*
X124941569Y-113370806D01*
X124866192Y-113188828D01*
X124866185Y-113188815D01*
X124756751Y-113025037D01*
X124756748Y-113025033D01*
X124617466Y-112885751D01*
X124617462Y-112885748D01*
X124453684Y-112776314D01*
X124453671Y-112776307D01*
X124271691Y-112700929D01*
X124271683Y-112700927D01*
X124230000Y-112692635D01*
X124230000Y-113495511D01*
X124220060Y-113478295D01*
X124164205Y-113422440D01*
X124095796Y-113382944D01*
X124019496Y-113362500D01*
X123940504Y-113362500D01*
X123864204Y-113382944D01*
X123795795Y-113422440D01*
X123739940Y-113478295D01*
X123730000Y-113495511D01*
X123730000Y-112692636D01*
X123729999Y-112692635D01*
X123688316Y-112700927D01*
X123688308Y-112700929D01*
X123506328Y-112776307D01*
X123506315Y-112776314D01*
X123342537Y-112885748D01*
X123342533Y-112885751D01*
X123203251Y-113025033D01*
X123203248Y-113025037D01*
X123093814Y-113188815D01*
X123093807Y-113188828D01*
X123018430Y-113370806D01*
X123018427Y-113370818D01*
X122980000Y-113564004D01*
X117500500Y-113564004D01*
X117500500Y-112421153D01*
X125099500Y-112421153D01*
X125099500Y-112578846D01*
X125130261Y-112733489D01*
X125130264Y-112733501D01*
X125190602Y-112879172D01*
X125190609Y-112879185D01*
X125278210Y-113010288D01*
X125278213Y-113010292D01*
X125389707Y-113121786D01*
X125389711Y-113121789D01*
X125520814Y-113209390D01*
X125520827Y-113209397D01*
X125666498Y-113269735D01*
X125666503Y-113269737D01*
X125821153Y-113300499D01*
X125821156Y-113300500D01*
X125821158Y-113300500D01*
X125978844Y-113300500D01*
X125978845Y-113300499D01*
X126133497Y-113269737D01*
X126279179Y-113209394D01*
X126410289Y-113121789D01*
X126521789Y-113010289D01*
X126609394Y-112879179D01*
X126669737Y-112733497D01*
X126700500Y-112578842D01*
X126700500Y-112421158D01*
X126700500Y-112421155D01*
X126700499Y-112421153D01*
X126680543Y-112320827D01*
X126669737Y-112266503D01*
X126637929Y-112189711D01*
X126609397Y-112120827D01*
X126609390Y-112120814D01*
X126521790Y-111989712D01*
X126521784Y-111989705D01*
X126453232Y-111921153D01*
X130199500Y-111921153D01*
X130199500Y-112078846D01*
X130230261Y-112233489D01*
X130230264Y-112233501D01*
X130290602Y-112379172D01*
X130290609Y-112379185D01*
X130378210Y-112510288D01*
X130378213Y-112510292D01*
X130489707Y-112621786D01*
X130489711Y-112621789D01*
X130620814Y-112709390D01*
X130620827Y-112709397D01*
X130766498Y-112769735D01*
X130766503Y-112769737D01*
X130921153Y-112800499D01*
X130921156Y-112800500D01*
X130921158Y-112800500D01*
X131078844Y-112800500D01*
X131078845Y-112800499D01*
X131233497Y-112769737D01*
X131379179Y-112709394D01*
X131510289Y-112621789D01*
X131510925Y-112621153D01*
X147499500Y-112621153D01*
X147499500Y-112778846D01*
X147530261Y-112933489D01*
X147530264Y-112933501D01*
X147590602Y-113079172D01*
X147590609Y-113079185D01*
X147678210Y-113210288D01*
X147678213Y-113210292D01*
X147789707Y-113321786D01*
X147789711Y-113321789D01*
X147920814Y-113409390D01*
X147920827Y-113409397D01*
X148066498Y-113469735D01*
X148066503Y-113469737D01*
X148221153Y-113500499D01*
X148221156Y-113500500D01*
X148221158Y-113500500D01*
X148378844Y-113500500D01*
X148378845Y-113500499D01*
X148533497Y-113469737D01*
X148679179Y-113409394D01*
X148810289Y-113321789D01*
X148921789Y-113210289D01*
X149009394Y-113079179D01*
X149069737Y-112933497D01*
X149100500Y-112778842D01*
X149100500Y-112621158D01*
X149100500Y-112621155D01*
X149100499Y-112621153D01*
X149069737Y-112466503D01*
X149050955Y-112421158D01*
X149009397Y-112320827D01*
X149009390Y-112320814D01*
X148921789Y-112189711D01*
X148921786Y-112189707D01*
X148810292Y-112078213D01*
X148810288Y-112078210D01*
X148679185Y-111990609D01*
X148679172Y-111990602D01*
X148533501Y-111930264D01*
X148533489Y-111930261D01*
X148378845Y-111899500D01*
X148378842Y-111899500D01*
X148221158Y-111899500D01*
X148221155Y-111899500D01*
X148066510Y-111930261D01*
X148066498Y-111930264D01*
X147920827Y-111990602D01*
X147920814Y-111990609D01*
X147789711Y-112078210D01*
X147789707Y-112078213D01*
X147678213Y-112189707D01*
X147678210Y-112189711D01*
X147590609Y-112320814D01*
X147590602Y-112320827D01*
X147530264Y-112466498D01*
X147530261Y-112466510D01*
X147499500Y-112621153D01*
X131510925Y-112621153D01*
X131621789Y-112510289D01*
X131709394Y-112379179D01*
X131769737Y-112233497D01*
X131800500Y-112078842D01*
X131800500Y-111921158D01*
X131800500Y-111921155D01*
X131800499Y-111921153D01*
X131774531Y-111790606D01*
X131769737Y-111766503D01*
X131769735Y-111766498D01*
X131709397Y-111620827D01*
X131709390Y-111620814D01*
X131621789Y-111489711D01*
X131621786Y-111489707D01*
X131510292Y-111378213D01*
X131510288Y-111378210D01*
X131379185Y-111290609D01*
X131379172Y-111290602D01*
X131233501Y-111230264D01*
X131233489Y-111230261D01*
X131078845Y-111199500D01*
X131078842Y-111199500D01*
X130921158Y-111199500D01*
X130921155Y-111199500D01*
X130766510Y-111230261D01*
X130766498Y-111230264D01*
X130620827Y-111290602D01*
X130620814Y-111290609D01*
X130489711Y-111378210D01*
X130489707Y-111378213D01*
X130378213Y-111489707D01*
X130378210Y-111489711D01*
X130290609Y-111620814D01*
X130290602Y-111620827D01*
X130230264Y-111766498D01*
X130230261Y-111766510D01*
X130199500Y-111921153D01*
X126453232Y-111921153D01*
X126410292Y-111878213D01*
X126410288Y-111878210D01*
X126279185Y-111790609D01*
X126279172Y-111790602D01*
X126133501Y-111730264D01*
X126133489Y-111730261D01*
X125978845Y-111699500D01*
X125978842Y-111699500D01*
X125821158Y-111699500D01*
X125821155Y-111699500D01*
X125666510Y-111730261D01*
X125666498Y-111730264D01*
X125520827Y-111790602D01*
X125520814Y-111790609D01*
X125389711Y-111878210D01*
X125389707Y-111878213D01*
X125278213Y-111989707D01*
X125278210Y-111989711D01*
X125190609Y-112120814D01*
X125190602Y-112120827D01*
X125130264Y-112266498D01*
X125130261Y-112266510D01*
X125099500Y-112421153D01*
X117500500Y-112421153D01*
X117500500Y-110421153D01*
X124199500Y-110421153D01*
X124199500Y-110578846D01*
X124230261Y-110733489D01*
X124230264Y-110733501D01*
X124290602Y-110879172D01*
X124290609Y-110879185D01*
X124378210Y-111010288D01*
X124378213Y-111010292D01*
X124489707Y-111121786D01*
X124489711Y-111121789D01*
X124620814Y-111209390D01*
X124620827Y-111209397D01*
X124766498Y-111269735D01*
X124766503Y-111269737D01*
X124921153Y-111300499D01*
X124921156Y-111300500D01*
X124921158Y-111300500D01*
X125078844Y-111300500D01*
X125078845Y-111300499D01*
X125233497Y-111269737D01*
X125379179Y-111209394D01*
X125510289Y-111121789D01*
X125621789Y-111010289D01*
X125709394Y-110879179D01*
X125769737Y-110733497D01*
X125800500Y-110578842D01*
X125800500Y-110421158D01*
X125800500Y-110421155D01*
X125800499Y-110421153D01*
X125792957Y-110383237D01*
X125769737Y-110266503D01*
X125710625Y-110123792D01*
X125709397Y-110120827D01*
X125709390Y-110120814D01*
X125621789Y-109989711D01*
X125621786Y-109989707D01*
X125510292Y-109878213D01*
X125510288Y-109878210D01*
X125379185Y-109790609D01*
X125379172Y-109790602D01*
X125233501Y-109730264D01*
X125233489Y-109730261D01*
X125078845Y-109699500D01*
X125078842Y-109699500D01*
X124921158Y-109699500D01*
X124921155Y-109699500D01*
X124766510Y-109730261D01*
X124766498Y-109730264D01*
X124620827Y-109790602D01*
X124620814Y-109790609D01*
X124489711Y-109878210D01*
X124489707Y-109878213D01*
X124378213Y-109989707D01*
X124378210Y-109989711D01*
X124290609Y-110120814D01*
X124290602Y-110120827D01*
X124230264Y-110266498D01*
X124230261Y-110266510D01*
X124199500Y-110421153D01*
X117500500Y-110421153D01*
X117500500Y-109534653D01*
X127199500Y-109534653D01*
X127199500Y-109692346D01*
X127230261Y-109846989D01*
X127230264Y-109847001D01*
X127290602Y-109992672D01*
X127290609Y-109992685D01*
X127378210Y-110123788D01*
X127378213Y-110123792D01*
X127489707Y-110235286D01*
X127489711Y-110235289D01*
X127620814Y-110322890D01*
X127620827Y-110322897D01*
X127766498Y-110383235D01*
X127766503Y-110383237D01*
X127921153Y-110413999D01*
X127921156Y-110414000D01*
X127921158Y-110414000D01*
X128078844Y-110414000D01*
X128078845Y-110413999D01*
X128233497Y-110383237D01*
X128379179Y-110322894D01*
X128479559Y-110255821D01*
X128546236Y-110234944D01*
X128613616Y-110253428D01*
X128617335Y-110255818D01*
X128717721Y-110322894D01*
X128717723Y-110322895D01*
X128717727Y-110322897D01*
X128863398Y-110383235D01*
X128863403Y-110383237D01*
X129018053Y-110413999D01*
X129018056Y-110414000D01*
X129018058Y-110414000D01*
X129175744Y-110414000D01*
X129175745Y-110413999D01*
X129330397Y-110383237D01*
X129476079Y-110322894D01*
X129607189Y-110235289D01*
X129718689Y-110123789D01*
X129806294Y-109992679D01*
X129866637Y-109846997D01*
X129897400Y-109692342D01*
X129897400Y-109534658D01*
X129897400Y-109534655D01*
X129897399Y-109534653D01*
X134199500Y-109534653D01*
X134199500Y-109692346D01*
X134230261Y-109846989D01*
X134230264Y-109847001D01*
X134290602Y-109992672D01*
X134290609Y-109992685D01*
X134378210Y-110123788D01*
X134378213Y-110123792D01*
X134489707Y-110235286D01*
X134489711Y-110235289D01*
X134620814Y-110322890D01*
X134620827Y-110322897D01*
X134766498Y-110383235D01*
X134766503Y-110383237D01*
X134921153Y-110413999D01*
X134921156Y-110414000D01*
X134921158Y-110414000D01*
X135078844Y-110414000D01*
X135078845Y-110413999D01*
X135233497Y-110383237D01*
X135379179Y-110322894D01*
X135510289Y-110235289D01*
X135621789Y-110123789D01*
X135709394Y-109992679D01*
X135769737Y-109846997D01*
X135800500Y-109692342D01*
X135800500Y-109534658D01*
X135800500Y-109534655D01*
X135800499Y-109534653D01*
X135769738Y-109380010D01*
X135769737Y-109380003D01*
X135769735Y-109379998D01*
X135709397Y-109234327D01*
X135709390Y-109234314D01*
X135621789Y-109103211D01*
X135621786Y-109103207D01*
X135510292Y-108991713D01*
X135510288Y-108991710D01*
X135379185Y-108904109D01*
X135379172Y-108904102D01*
X135233501Y-108843764D01*
X135233489Y-108843761D01*
X135078845Y-108813000D01*
X135078842Y-108813000D01*
X134921158Y-108813000D01*
X134921155Y-108813000D01*
X134766510Y-108843761D01*
X134766498Y-108843764D01*
X134620827Y-108904102D01*
X134620814Y-108904109D01*
X134489711Y-108991710D01*
X134489707Y-108991713D01*
X134378213Y-109103207D01*
X134378210Y-109103211D01*
X134290609Y-109234314D01*
X134290602Y-109234327D01*
X134230264Y-109379998D01*
X134230261Y-109380010D01*
X134199500Y-109534653D01*
X129897399Y-109534653D01*
X129866638Y-109380010D01*
X129866637Y-109380003D01*
X129866635Y-109379998D01*
X129806297Y-109234327D01*
X129806290Y-109234314D01*
X129718689Y-109103211D01*
X129718686Y-109103207D01*
X129607192Y-108991713D01*
X129607188Y-108991710D01*
X129476085Y-108904109D01*
X129476072Y-108904102D01*
X129330401Y-108843764D01*
X129330389Y-108843761D01*
X129175745Y-108813000D01*
X129175742Y-108813000D01*
X129018058Y-108813000D01*
X129018055Y-108813000D01*
X128863410Y-108843761D01*
X128863398Y-108843764D01*
X128717727Y-108904102D01*
X128717714Y-108904109D01*
X128617341Y-108971177D01*
X128550663Y-108992055D01*
X128483283Y-108973570D01*
X128479559Y-108971177D01*
X128379185Y-108904109D01*
X128379172Y-108904102D01*
X128233501Y-108843764D01*
X128233489Y-108843761D01*
X128078845Y-108813000D01*
X128078842Y-108813000D01*
X127921158Y-108813000D01*
X127921155Y-108813000D01*
X127766510Y-108843761D01*
X127766498Y-108843764D01*
X127620827Y-108904102D01*
X127620814Y-108904109D01*
X127489711Y-108991710D01*
X127489707Y-108991713D01*
X127378213Y-109103207D01*
X127378210Y-109103211D01*
X127290609Y-109234314D01*
X127290602Y-109234327D01*
X127230264Y-109379998D01*
X127230261Y-109380010D01*
X127199500Y-109534653D01*
X117500500Y-109534653D01*
X117500500Y-106151153D01*
X153699500Y-106151153D01*
X153699500Y-106308846D01*
X153730261Y-106463489D01*
X153730264Y-106463501D01*
X153790602Y-106609172D01*
X153790609Y-106609185D01*
X153878210Y-106740288D01*
X153878213Y-106740292D01*
X153989707Y-106851786D01*
X153989711Y-106851789D01*
X154120814Y-106939390D01*
X154120827Y-106939397D01*
X154252066Y-106993757D01*
X154266503Y-106999737D01*
X154421153Y-107030499D01*
X154421156Y-107030500D01*
X154421158Y-107030500D01*
X154578844Y-107030500D01*
X154578845Y-107030499D01*
X154733497Y-106999737D01*
X154879179Y-106939394D01*
X155010289Y-106851789D01*
X155121789Y-106740289D01*
X155209394Y-106609179D01*
X155212294Y-106602179D01*
X155269735Y-106463501D01*
X155269737Y-106463497D01*
X155300500Y-106308842D01*
X155300500Y-106151158D01*
X155300500Y-106151155D01*
X155300499Y-106151153D01*
X155290824Y-106102512D01*
X155269737Y-105996503D01*
X155258161Y-105968556D01*
X155209397Y-105850827D01*
X155209390Y-105850814D01*
X155121789Y-105719711D01*
X155121786Y-105719707D01*
X155010292Y-105608213D01*
X155010288Y-105608210D01*
X154879185Y-105520609D01*
X154879172Y-105520602D01*
X154733501Y-105460264D01*
X154733489Y-105460261D01*
X154578845Y-105429500D01*
X154578842Y-105429500D01*
X154421158Y-105429500D01*
X154421155Y-105429500D01*
X154266510Y-105460261D01*
X154266498Y-105460264D01*
X154120827Y-105520602D01*
X154120814Y-105520609D01*
X153989711Y-105608210D01*
X153989707Y-105608213D01*
X153878213Y-105719707D01*
X153878210Y-105719711D01*
X153790609Y-105850814D01*
X153790602Y-105850827D01*
X153730264Y-105996498D01*
X153730261Y-105996510D01*
X153699500Y-106151153D01*
X117500500Y-106151153D01*
X117500500Y-104921153D01*
X170174500Y-104921153D01*
X170174500Y-105078846D01*
X170205261Y-105233489D01*
X170205264Y-105233501D01*
X170265602Y-105379172D01*
X170265609Y-105379185D01*
X170353210Y-105510288D01*
X170353213Y-105510292D01*
X170464707Y-105621786D01*
X170464711Y-105621789D01*
X170595814Y-105709390D01*
X170595827Y-105709397D01*
X170741498Y-105769735D01*
X170741503Y-105769737D01*
X170894167Y-105800104D01*
X170896153Y-105800499D01*
X170896156Y-105800500D01*
X170896158Y-105800500D01*
X171053844Y-105800500D01*
X171053845Y-105800499D01*
X171208497Y-105769737D01*
X171354179Y-105709394D01*
X171485289Y-105621789D01*
X171596789Y-105510289D01*
X171684394Y-105379179D01*
X171744737Y-105233497D01*
X171775500Y-105078842D01*
X171775500Y-104921158D01*
X171775500Y-104921155D01*
X171775499Y-104921153D01*
X171744737Y-104766503D01*
X171744735Y-104766498D01*
X171684397Y-104620827D01*
X171684390Y-104620814D01*
X171596789Y-104489711D01*
X171596786Y-104489707D01*
X171485292Y-104378213D01*
X171485288Y-104378210D01*
X171354185Y-104290609D01*
X171354172Y-104290602D01*
X171208501Y-104230264D01*
X171208489Y-104230261D01*
X171053845Y-104199500D01*
X171053842Y-104199500D01*
X170896158Y-104199500D01*
X170896155Y-104199500D01*
X170741510Y-104230261D01*
X170741498Y-104230264D01*
X170595827Y-104290602D01*
X170595814Y-104290609D01*
X170464711Y-104378210D01*
X170464707Y-104378213D01*
X170353213Y-104489707D01*
X170353210Y-104489711D01*
X170265609Y-104620814D01*
X170265602Y-104620827D01*
X170205264Y-104766498D01*
X170205261Y-104766510D01*
X170174500Y-104921153D01*
X117500500Y-104921153D01*
X117500500Y-101921153D01*
X166874500Y-101921153D01*
X166874500Y-102078846D01*
X166905261Y-102233489D01*
X166905264Y-102233501D01*
X166965602Y-102379172D01*
X166965609Y-102379185D01*
X167053210Y-102510288D01*
X167053213Y-102510292D01*
X167164707Y-102621786D01*
X167164711Y-102621789D01*
X167295814Y-102709390D01*
X167295827Y-102709397D01*
X167390024Y-102748414D01*
X167441503Y-102769737D01*
X167596153Y-102800499D01*
X167596156Y-102800500D01*
X167596158Y-102800500D01*
X167753844Y-102800500D01*
X167753845Y-102800499D01*
X167908497Y-102769737D01*
X168054179Y-102709394D01*
X168185289Y-102621789D01*
X168296789Y-102510289D01*
X168384394Y-102379179D01*
X168444737Y-102233497D01*
X168475500Y-102078842D01*
X168475500Y-101921158D01*
X168475500Y-101921155D01*
X168475499Y-101921153D01*
X169074500Y-101921153D01*
X169074500Y-102078846D01*
X169105261Y-102233489D01*
X169105264Y-102233501D01*
X169165602Y-102379172D01*
X169165609Y-102379185D01*
X169253210Y-102510288D01*
X169253213Y-102510292D01*
X169364707Y-102621786D01*
X169364711Y-102621789D01*
X169495814Y-102709390D01*
X169495827Y-102709397D01*
X169590024Y-102748414D01*
X169641503Y-102769737D01*
X169796153Y-102800499D01*
X169796156Y-102800500D01*
X169796158Y-102800500D01*
X169953844Y-102800500D01*
X169953845Y-102800499D01*
X170108497Y-102769737D01*
X170254179Y-102709394D01*
X170385289Y-102621789D01*
X170496789Y-102510289D01*
X170584394Y-102379179D01*
X170644737Y-102233497D01*
X170675500Y-102078842D01*
X170675500Y-101921158D01*
X170675500Y-101921155D01*
X170675499Y-101921153D01*
X171274500Y-101921153D01*
X171274500Y-102078846D01*
X171305261Y-102233489D01*
X171305264Y-102233501D01*
X171365602Y-102379172D01*
X171365609Y-102379185D01*
X171453210Y-102510288D01*
X171453213Y-102510292D01*
X171564707Y-102621786D01*
X171564711Y-102621789D01*
X171695814Y-102709390D01*
X171695827Y-102709397D01*
X171790024Y-102748414D01*
X171841503Y-102769737D01*
X171996153Y-102800499D01*
X171996156Y-102800500D01*
X171996158Y-102800500D01*
X172153844Y-102800500D01*
X172153845Y-102800499D01*
X172308497Y-102769737D01*
X172454179Y-102709394D01*
X172556111Y-102641284D01*
X172622786Y-102620408D01*
X172690166Y-102638892D01*
X172693847Y-102641257D01*
X172795821Y-102709394D01*
X172795823Y-102709395D01*
X172795827Y-102709397D01*
X172890024Y-102748414D01*
X172941503Y-102769737D01*
X173096153Y-102800499D01*
X173096156Y-102800500D01*
X173096158Y-102800500D01*
X173253844Y-102800500D01*
X173253845Y-102800499D01*
X173408497Y-102769737D01*
X173554179Y-102709394D01*
X173685289Y-102621789D01*
X173796789Y-102510289D01*
X173884394Y-102379179D01*
X173944737Y-102233497D01*
X173975500Y-102078842D01*
X173975500Y-101921158D01*
X173975500Y-101921155D01*
X173975499Y-101921153D01*
X173944738Y-101766510D01*
X173944737Y-101766503D01*
X173921991Y-101711588D01*
X173884397Y-101620827D01*
X173884390Y-101620814D01*
X173796789Y-101489711D01*
X173796786Y-101489707D01*
X173685292Y-101378213D01*
X173685288Y-101378210D01*
X173554185Y-101290609D01*
X173554172Y-101290602D01*
X173408501Y-101230264D01*
X173408489Y-101230261D01*
X173253845Y-101199500D01*
X173253842Y-101199500D01*
X173096158Y-101199500D01*
X173096155Y-101199500D01*
X172941510Y-101230261D01*
X172941498Y-101230264D01*
X172795827Y-101290602D01*
X172795814Y-101290609D01*
X172693891Y-101358713D01*
X172627213Y-101379591D01*
X172559833Y-101361107D01*
X172556109Y-101358713D01*
X172454185Y-101290609D01*
X172454172Y-101290602D01*
X172308501Y-101230264D01*
X172308489Y-101230261D01*
X172153845Y-101199500D01*
X172153842Y-101199500D01*
X171996158Y-101199500D01*
X171996155Y-101199500D01*
X171841510Y-101230261D01*
X171841498Y-101230264D01*
X171695827Y-101290602D01*
X171695814Y-101290609D01*
X171564711Y-101378210D01*
X171564707Y-101378213D01*
X171453213Y-101489707D01*
X171453210Y-101489711D01*
X171365609Y-101620814D01*
X171365602Y-101620827D01*
X171305264Y-101766498D01*
X171305261Y-101766510D01*
X171274500Y-101921153D01*
X170675499Y-101921153D01*
X170644738Y-101766510D01*
X170644737Y-101766503D01*
X170621991Y-101711588D01*
X170584397Y-101620827D01*
X170584390Y-101620814D01*
X170496789Y-101489711D01*
X170496786Y-101489707D01*
X170385292Y-101378213D01*
X170385288Y-101378210D01*
X170254185Y-101290609D01*
X170254172Y-101290602D01*
X170108501Y-101230264D01*
X170108489Y-101230261D01*
X169953845Y-101199500D01*
X169953842Y-101199500D01*
X169796158Y-101199500D01*
X169796155Y-101199500D01*
X169641510Y-101230261D01*
X169641498Y-101230264D01*
X169495827Y-101290602D01*
X169495814Y-101290609D01*
X169364711Y-101378210D01*
X169364707Y-101378213D01*
X169253213Y-101489707D01*
X169253210Y-101489711D01*
X169165609Y-101620814D01*
X169165602Y-101620827D01*
X169105264Y-101766498D01*
X169105261Y-101766510D01*
X169074500Y-101921153D01*
X168475499Y-101921153D01*
X168444738Y-101766510D01*
X168444737Y-101766503D01*
X168421991Y-101711588D01*
X168384397Y-101620827D01*
X168384390Y-101620814D01*
X168296789Y-101489711D01*
X168296786Y-101489707D01*
X168185292Y-101378213D01*
X168185288Y-101378210D01*
X168054185Y-101290609D01*
X168054172Y-101290602D01*
X167908501Y-101230264D01*
X167908489Y-101230261D01*
X167753845Y-101199500D01*
X167753842Y-101199500D01*
X167596158Y-101199500D01*
X167596155Y-101199500D01*
X167441510Y-101230261D01*
X167441498Y-101230264D01*
X167295827Y-101290602D01*
X167295814Y-101290609D01*
X167164711Y-101378210D01*
X167164707Y-101378213D01*
X167053213Y-101489707D01*
X167053210Y-101489711D01*
X166965609Y-101620814D01*
X166965602Y-101620827D01*
X166905264Y-101766498D01*
X166905261Y-101766510D01*
X166874500Y-101921153D01*
X117500500Y-101921153D01*
X117500500Y-99421153D01*
X129699500Y-99421153D01*
X129699500Y-99578846D01*
X129730261Y-99733489D01*
X129730264Y-99733501D01*
X129790602Y-99879172D01*
X129790609Y-99879185D01*
X129878210Y-100010288D01*
X129878213Y-100010292D01*
X129989707Y-100121786D01*
X129989711Y-100121789D01*
X130120817Y-100209392D01*
X130120819Y-100209393D01*
X130120821Y-100209394D01*
X130138409Y-100216679D01*
X130192812Y-100260520D01*
X130214877Y-100326814D01*
X130212573Y-100355431D01*
X130199500Y-100421153D01*
X130199500Y-100578846D01*
X130230261Y-100733489D01*
X130230264Y-100733501D01*
X130290602Y-100879172D01*
X130290609Y-100879185D01*
X130378210Y-101010288D01*
X130378213Y-101010292D01*
X130489707Y-101121786D01*
X130489711Y-101121789D01*
X130620814Y-101209390D01*
X130620827Y-101209397D01*
X130766498Y-101269735D01*
X130766503Y-101269737D01*
X130921153Y-101300499D01*
X130921156Y-101300500D01*
X130921158Y-101300500D01*
X131078844Y-101300500D01*
X131078845Y-101300499D01*
X131233497Y-101269737D01*
X131379179Y-101209394D01*
X131510289Y-101121789D01*
X131621789Y-101010289D01*
X131709394Y-100879179D01*
X131769737Y-100733497D01*
X131800500Y-100578842D01*
X131800500Y-100421158D01*
X131800500Y-100421155D01*
X131800499Y-100421153D01*
X131782408Y-100330205D01*
X131769737Y-100266503D01*
X131756062Y-100233489D01*
X131709397Y-100120827D01*
X131709390Y-100120814D01*
X131621789Y-99989711D01*
X131621786Y-99989707D01*
X131510292Y-99878213D01*
X131510288Y-99878210D01*
X131379185Y-99790609D01*
X131379179Y-99790606D01*
X131361589Y-99783320D01*
X131307186Y-99739478D01*
X131285122Y-99673184D01*
X131287425Y-99644571D01*
X131300500Y-99578842D01*
X131300500Y-99421158D01*
X131300500Y-99421155D01*
X131300499Y-99421153D01*
X138699500Y-99421153D01*
X138699500Y-99578846D01*
X138730261Y-99733489D01*
X138730264Y-99733501D01*
X138790602Y-99879172D01*
X138790609Y-99879185D01*
X138878210Y-100010288D01*
X138878213Y-100010292D01*
X138989707Y-100121786D01*
X138989711Y-100121789D01*
X139120814Y-100209390D01*
X139120827Y-100209397D01*
X139234425Y-100256450D01*
X139266503Y-100269737D01*
X139421153Y-100300499D01*
X139421156Y-100300500D01*
X139421158Y-100300500D01*
X139578844Y-100300500D01*
X139578845Y-100300499D01*
X139733497Y-100269737D01*
X139879179Y-100209394D01*
X140010289Y-100121789D01*
X140121789Y-100010289D01*
X140181348Y-99921153D01*
X151199500Y-99921153D01*
X151199500Y-100078846D01*
X151230261Y-100233489D01*
X151230264Y-100233501D01*
X151290602Y-100379172D01*
X151290609Y-100379185D01*
X151378210Y-100510288D01*
X151378213Y-100510292D01*
X151489707Y-100621786D01*
X151489711Y-100621789D01*
X151620814Y-100709390D01*
X151620827Y-100709397D01*
X151766498Y-100769735D01*
X151766503Y-100769737D01*
X151921153Y-100800499D01*
X151921156Y-100800500D01*
X151921158Y-100800500D01*
X152078844Y-100800500D01*
X152078845Y-100800499D01*
X152233497Y-100769737D01*
X152379179Y-100709394D01*
X152510289Y-100621789D01*
X152621789Y-100510289D01*
X152709394Y-100379179D01*
X152769737Y-100233497D01*
X152800500Y-100078842D01*
X152800500Y-99921158D01*
X152800500Y-99921155D01*
X152800499Y-99921153D01*
X152769738Y-99766510D01*
X152769737Y-99766503D01*
X152746080Y-99709390D01*
X152709397Y-99620827D01*
X152709390Y-99620814D01*
X152621789Y-99489711D01*
X152621786Y-99489707D01*
X152510292Y-99378213D01*
X152510288Y-99378210D01*
X152379185Y-99290609D01*
X152379172Y-99290602D01*
X152233501Y-99230264D01*
X152233489Y-99230261D01*
X152078845Y-99199500D01*
X152078842Y-99199500D01*
X151921158Y-99199500D01*
X151921155Y-99199500D01*
X151766510Y-99230261D01*
X151766498Y-99230264D01*
X151620827Y-99290602D01*
X151620814Y-99290609D01*
X151489711Y-99378210D01*
X151489707Y-99378213D01*
X151378213Y-99489707D01*
X151378210Y-99489711D01*
X151290609Y-99620814D01*
X151290602Y-99620827D01*
X151230264Y-99766498D01*
X151230261Y-99766510D01*
X151199500Y-99921153D01*
X140181348Y-99921153D01*
X140209394Y-99879179D01*
X140269737Y-99733497D01*
X140300500Y-99578842D01*
X140300500Y-99421158D01*
X140300500Y-99421155D01*
X140300499Y-99421153D01*
X140274531Y-99290606D01*
X140269737Y-99266503D01*
X140256062Y-99233489D01*
X140209397Y-99120827D01*
X140209390Y-99120814D01*
X140121790Y-98989712D01*
X140121784Y-98989705D01*
X140053232Y-98921153D01*
X155699500Y-98921153D01*
X155699500Y-99078846D01*
X155730261Y-99233489D01*
X155730264Y-99233501D01*
X155790602Y-99379172D01*
X155790609Y-99379185D01*
X155878210Y-99510288D01*
X155878213Y-99510292D01*
X155989707Y-99621786D01*
X155989711Y-99621789D01*
X156120814Y-99709390D01*
X156120827Y-99709397D01*
X156258683Y-99766498D01*
X156266503Y-99769737D01*
X156399973Y-99796286D01*
X156421153Y-99800499D01*
X156421156Y-99800500D01*
X156421158Y-99800500D01*
X156578844Y-99800500D01*
X156578845Y-99800499D01*
X156733497Y-99769737D01*
X156879179Y-99709394D01*
X157010289Y-99621789D01*
X157121789Y-99510289D01*
X157209394Y-99379179D01*
X157269737Y-99233497D01*
X157300500Y-99078842D01*
X157300500Y-98921158D01*
X157300500Y-98921155D01*
X157300499Y-98921153D01*
X157278986Y-98812997D01*
X157274836Y-98792135D01*
X181874500Y-98792135D01*
X181874500Y-100587870D01*
X181874501Y-100587876D01*
X181880908Y-100647483D01*
X181931202Y-100782328D01*
X181931206Y-100782335D01*
X182017452Y-100897544D01*
X182017455Y-100897547D01*
X182132664Y-100983793D01*
X182132671Y-100983797D01*
X182264082Y-101032810D01*
X182320016Y-101074681D01*
X182344433Y-101140145D01*
X182329582Y-101208418D01*
X182308431Y-101236673D01*
X182194889Y-101350215D01*
X182069951Y-101522179D01*
X181973444Y-101711585D01*
X181907753Y-101913760D01*
X181881606Y-102078846D01*
X181874500Y-102123713D01*
X181874500Y-102336287D01*
X181907754Y-102546243D01*
X181960766Y-102709397D01*
X181973444Y-102748414D01*
X182069951Y-102937820D01*
X182194890Y-103109786D01*
X182345213Y-103260109D01*
X182517182Y-103385050D01*
X182525946Y-103389516D01*
X182576742Y-103437491D01*
X182593536Y-103505312D01*
X182570998Y-103571447D01*
X182525946Y-103610484D01*
X182517182Y-103614949D01*
X182345213Y-103739890D01*
X182194890Y-103890213D01*
X182069951Y-104062179D01*
X181973444Y-104251585D01*
X181907753Y-104453760D01*
X181874500Y-104663713D01*
X181874500Y-104876286D01*
X181906581Y-105078842D01*
X181907754Y-105086243D01*
X181955601Y-105233501D01*
X181973444Y-105288414D01*
X182069951Y-105477820D01*
X182194890Y-105649786D01*
X182345213Y-105800109D01*
X182517182Y-105925050D01*
X182525946Y-105929516D01*
X182576742Y-105977491D01*
X182593536Y-106045312D01*
X182570998Y-106111447D01*
X182525946Y-106150484D01*
X182517182Y-106154949D01*
X182345213Y-106279890D01*
X182194890Y-106430213D01*
X182069951Y-106602179D01*
X181973444Y-106791585D01*
X181907753Y-106993760D01*
X181874500Y-107203713D01*
X181874500Y-107416286D01*
X181907753Y-107626239D01*
X181973444Y-107828414D01*
X182069951Y-108017820D01*
X182194890Y-108189786D01*
X182345213Y-108340109D01*
X182517179Y-108465048D01*
X182517181Y-108465049D01*
X182517184Y-108465051D01*
X182706588Y-108561557D01*
X182908757Y-108627246D01*
X183118713Y-108660500D01*
X183118714Y-108660500D01*
X183331286Y-108660500D01*
X183331287Y-108660500D01*
X183541243Y-108627246D01*
X183743412Y-108561557D01*
X183932816Y-108465051D01*
X183954789Y-108449086D01*
X184104786Y-108340109D01*
X184104788Y-108340106D01*
X184104792Y-108340104D01*
X184255104Y-108189792D01*
X184255106Y-108189788D01*
X184255109Y-108189786D01*
X184380048Y-108017820D01*
X184380047Y-108017820D01*
X184380051Y-108017816D01*
X184384514Y-108009054D01*
X184432488Y-107958259D01*
X184500308Y-107941463D01*
X184566444Y-107963999D01*
X184605486Y-108009056D01*
X184609951Y-108017820D01*
X184734890Y-108189786D01*
X184885213Y-108340109D01*
X185057179Y-108465048D01*
X185057181Y-108465049D01*
X185057184Y-108465051D01*
X185246588Y-108561557D01*
X185448757Y-108627246D01*
X185658713Y-108660500D01*
X185658714Y-108660500D01*
X185871286Y-108660500D01*
X185871287Y-108660500D01*
X186081243Y-108627246D01*
X186283412Y-108561557D01*
X186472816Y-108465051D01*
X186494789Y-108449086D01*
X186644786Y-108340109D01*
X186644788Y-108340106D01*
X186644792Y-108340104D01*
X186795104Y-108189792D01*
X186795106Y-108189788D01*
X186795109Y-108189786D01*
X186920048Y-108017820D01*
X186920047Y-108017820D01*
X186920051Y-108017816D01*
X187016557Y-107828412D01*
X187082246Y-107626243D01*
X187115500Y-107416287D01*
X187115500Y-107203713D01*
X187082246Y-106993757D01*
X187016557Y-106791588D01*
X186920051Y-106602184D01*
X186920049Y-106602181D01*
X186920048Y-106602179D01*
X186795109Y-106430213D01*
X186644786Y-106279890D01*
X186472820Y-106154951D01*
X186472115Y-106154591D01*
X186464054Y-106150485D01*
X186413259Y-106102512D01*
X186396463Y-106034692D01*
X186418999Y-105968556D01*
X186464054Y-105929515D01*
X186472816Y-105925051D01*
X186494789Y-105909086D01*
X186644786Y-105800109D01*
X186644788Y-105800106D01*
X186644792Y-105800104D01*
X186795104Y-105649792D01*
X186795106Y-105649788D01*
X186795109Y-105649786D01*
X186920048Y-105477820D01*
X186920047Y-105477820D01*
X186920051Y-105477816D01*
X187016557Y-105288412D01*
X187082246Y-105086243D01*
X187115500Y-104876287D01*
X187115500Y-104663713D01*
X187082246Y-104453757D01*
X187016557Y-104251588D01*
X186920051Y-104062184D01*
X186920049Y-104062181D01*
X186920048Y-104062179D01*
X186795109Y-103890213D01*
X186644786Y-103739890D01*
X186472820Y-103614951D01*
X186472115Y-103614591D01*
X186464054Y-103610485D01*
X186413259Y-103562512D01*
X186396463Y-103494692D01*
X186418999Y-103428556D01*
X186464054Y-103389515D01*
X186472816Y-103385051D01*
X186494789Y-103369086D01*
X186644786Y-103260109D01*
X186644788Y-103260106D01*
X186644792Y-103260104D01*
X186795104Y-103109792D01*
X186795106Y-103109788D01*
X186795109Y-103109786D01*
X186920048Y-102937820D01*
X186920047Y-102937820D01*
X186920051Y-102937816D01*
X187016557Y-102748412D01*
X187082246Y-102546243D01*
X187115500Y-102336287D01*
X187115500Y-102123713D01*
X187082246Y-101913757D01*
X187016557Y-101711588D01*
X186920051Y-101522184D01*
X186920049Y-101522181D01*
X186920048Y-101522179D01*
X186795109Y-101350213D01*
X186644786Y-101199890D01*
X186472820Y-101074951D01*
X186472115Y-101074591D01*
X186464054Y-101070485D01*
X186413259Y-101022512D01*
X186396463Y-100954692D01*
X186418999Y-100888556D01*
X186464054Y-100849515D01*
X186472816Y-100845051D01*
X186559138Y-100782335D01*
X186644786Y-100720109D01*
X186644788Y-100720106D01*
X186644792Y-100720104D01*
X186795104Y-100569792D01*
X186795106Y-100569788D01*
X186795109Y-100569786D01*
X186920048Y-100397820D01*
X186920047Y-100397820D01*
X186920051Y-100397816D01*
X187016557Y-100208412D01*
X187082246Y-100006243D01*
X187115500Y-99796287D01*
X187115500Y-99583713D01*
X187082246Y-99373757D01*
X187016557Y-99171588D01*
X186920051Y-98982184D01*
X186920049Y-98982181D01*
X186920048Y-98982179D01*
X186795109Y-98810213D01*
X186644786Y-98659890D01*
X186472820Y-98534951D01*
X186283414Y-98438444D01*
X186283413Y-98438443D01*
X186283412Y-98438443D01*
X186081243Y-98372754D01*
X186081241Y-98372753D01*
X186081240Y-98372753D01*
X185919957Y-98347208D01*
X185871287Y-98339500D01*
X185658713Y-98339500D01*
X185610042Y-98347208D01*
X185448760Y-98372753D01*
X185246585Y-98438444D01*
X185057179Y-98534951D01*
X184885215Y-98659889D01*
X184771673Y-98773431D01*
X184710350Y-98806915D01*
X184640658Y-98801931D01*
X184584725Y-98760059D01*
X184567810Y-98729082D01*
X184518797Y-98597671D01*
X184518793Y-98597664D01*
X184432547Y-98482455D01*
X184432544Y-98482452D01*
X184317335Y-98396206D01*
X184317328Y-98396202D01*
X184182482Y-98345908D01*
X184182483Y-98345908D01*
X184122883Y-98339501D01*
X184122881Y-98339500D01*
X184122873Y-98339500D01*
X184122864Y-98339500D01*
X182327129Y-98339500D01*
X182327123Y-98339501D01*
X182267516Y-98345908D01*
X182132671Y-98396202D01*
X182132664Y-98396206D01*
X182017455Y-98482452D01*
X182017452Y-98482455D01*
X181931206Y-98597664D01*
X181931202Y-98597671D01*
X181880908Y-98732517D01*
X181874501Y-98792116D01*
X181874500Y-98792135D01*
X157274836Y-98792135D01*
X157269738Y-98766508D01*
X157269737Y-98766507D01*
X157269737Y-98766503D01*
X157255660Y-98732517D01*
X157209397Y-98620827D01*
X157209390Y-98620814D01*
X157121789Y-98489711D01*
X157121786Y-98489707D01*
X157010292Y-98378213D01*
X157010288Y-98378210D01*
X156879185Y-98290609D01*
X156879172Y-98290602D01*
X156733501Y-98230264D01*
X156733489Y-98230261D01*
X156578845Y-98199500D01*
X156578842Y-98199500D01*
X156421158Y-98199500D01*
X156421155Y-98199500D01*
X156266510Y-98230261D01*
X156266498Y-98230264D01*
X156120827Y-98290602D01*
X156120814Y-98290609D01*
X155989711Y-98378210D01*
X155989707Y-98378213D01*
X155878213Y-98489707D01*
X155878210Y-98489711D01*
X155790609Y-98620814D01*
X155790602Y-98620827D01*
X155730264Y-98766498D01*
X155730261Y-98766510D01*
X155699500Y-98921153D01*
X140053232Y-98921153D01*
X140010292Y-98878213D01*
X140010288Y-98878210D01*
X139879185Y-98790609D01*
X139879172Y-98790602D01*
X139733501Y-98730264D01*
X139733489Y-98730261D01*
X139578845Y-98699500D01*
X139578842Y-98699500D01*
X139421158Y-98699500D01*
X139421155Y-98699500D01*
X139266510Y-98730261D01*
X139266498Y-98730264D01*
X139120827Y-98790602D01*
X139120814Y-98790609D01*
X138989711Y-98878210D01*
X138989707Y-98878213D01*
X138878213Y-98989707D01*
X138878210Y-98989711D01*
X138790609Y-99120814D01*
X138790602Y-99120827D01*
X138730264Y-99266498D01*
X138730261Y-99266510D01*
X138699500Y-99421153D01*
X131300499Y-99421153D01*
X131274531Y-99290606D01*
X131269737Y-99266503D01*
X131256062Y-99233489D01*
X131209397Y-99120827D01*
X131209390Y-99120814D01*
X131121789Y-98989711D01*
X131121786Y-98989707D01*
X131010292Y-98878213D01*
X131010288Y-98878210D01*
X130879185Y-98790609D01*
X130879172Y-98790602D01*
X130733501Y-98730264D01*
X130733489Y-98730261D01*
X130578845Y-98699500D01*
X130578842Y-98699500D01*
X130421158Y-98699500D01*
X130421155Y-98699500D01*
X130266510Y-98730261D01*
X130266498Y-98730264D01*
X130120827Y-98790602D01*
X130120814Y-98790609D01*
X129989711Y-98878210D01*
X129989707Y-98878213D01*
X129878213Y-98989707D01*
X129878210Y-98989711D01*
X129790609Y-99120814D01*
X129790602Y-99120827D01*
X129730264Y-99266498D01*
X129730261Y-99266510D01*
X129699500Y-99421153D01*
X117500500Y-99421153D01*
X117500500Y-96421153D01*
X132699500Y-96421153D01*
X132699500Y-96578846D01*
X132730261Y-96733489D01*
X132730264Y-96733501D01*
X132790602Y-96879172D01*
X132790609Y-96879185D01*
X132878210Y-97010288D01*
X132878213Y-97010292D01*
X132989707Y-97121786D01*
X132989711Y-97121789D01*
X133120814Y-97209390D01*
X133120827Y-97209397D01*
X133266498Y-97269735D01*
X133266503Y-97269737D01*
X133421153Y-97300499D01*
X133421156Y-97300500D01*
X133421158Y-97300500D01*
X133578844Y-97300500D01*
X133578845Y-97300499D01*
X133733497Y-97269737D01*
X133879179Y-97209394D01*
X134010289Y-97121789D01*
X134121789Y-97010289D01*
X134209394Y-96879179D01*
X134269737Y-96733497D01*
X134300500Y-96578842D01*
X134300500Y-96421158D01*
X134300500Y-96421155D01*
X134300499Y-96421153D01*
X138199500Y-96421153D01*
X138199500Y-96578846D01*
X138230261Y-96733489D01*
X138230264Y-96733501D01*
X138290602Y-96879172D01*
X138290609Y-96879185D01*
X138378210Y-97010288D01*
X138378213Y-97010292D01*
X138489707Y-97121786D01*
X138489711Y-97121789D01*
X138620814Y-97209390D01*
X138620827Y-97209397D01*
X138766498Y-97269735D01*
X138766503Y-97269737D01*
X138921153Y-97300499D01*
X138921156Y-97300500D01*
X138921158Y-97300500D01*
X139078844Y-97300500D01*
X139078845Y-97300499D01*
X139233497Y-97269737D01*
X139379179Y-97209394D01*
X139510289Y-97121789D01*
X139621789Y-97010289D01*
X139709394Y-96879179D01*
X139769737Y-96733497D01*
X139800500Y-96578842D01*
X139800500Y-96421158D01*
X139800500Y-96421155D01*
X139800499Y-96421153D01*
X139798338Y-96410288D01*
X139769737Y-96266503D01*
X139769735Y-96266498D01*
X139709397Y-96120827D01*
X139709390Y-96120814D01*
X139621789Y-95989711D01*
X139621786Y-95989707D01*
X139510292Y-95878213D01*
X139510288Y-95878210D01*
X139424897Y-95821153D01*
X168699500Y-95821153D01*
X168699500Y-95978846D01*
X168730261Y-96133489D01*
X168730264Y-96133501D01*
X168790602Y-96279172D01*
X168790609Y-96279185D01*
X168878210Y-96410288D01*
X168878213Y-96410292D01*
X168989707Y-96521786D01*
X168989711Y-96521789D01*
X169120814Y-96609390D01*
X169120827Y-96609397D01*
X169266498Y-96669735D01*
X169266503Y-96669737D01*
X169421153Y-96700499D01*
X169421156Y-96700500D01*
X169421158Y-96700500D01*
X169578844Y-96700500D01*
X169578845Y-96700499D01*
X169733497Y-96669737D01*
X169879179Y-96609394D01*
X170010289Y-96521789D01*
X170121789Y-96410289D01*
X170209394Y-96279179D01*
X170269737Y-96133497D01*
X170300500Y-95978842D01*
X170300500Y-95821158D01*
X170300500Y-95821155D01*
X170300499Y-95821153D01*
X170282419Y-95730261D01*
X170269737Y-95666503D01*
X170269735Y-95666498D01*
X170209397Y-95520827D01*
X170209390Y-95520814D01*
X170121789Y-95389711D01*
X170121786Y-95389707D01*
X170010292Y-95278213D01*
X170010288Y-95278210D01*
X169879185Y-95190609D01*
X169879172Y-95190602D01*
X169733501Y-95130264D01*
X169733489Y-95130261D01*
X169578845Y-95099500D01*
X169578842Y-95099500D01*
X169421158Y-95099500D01*
X169421155Y-95099500D01*
X169266510Y-95130261D01*
X169266498Y-95130264D01*
X169120827Y-95190602D01*
X169120814Y-95190609D01*
X168989711Y-95278210D01*
X168989707Y-95278213D01*
X168878213Y-95389707D01*
X168878210Y-95389711D01*
X168790609Y-95520814D01*
X168790602Y-95520827D01*
X168730264Y-95666498D01*
X168730261Y-95666510D01*
X168699500Y-95821153D01*
X139424897Y-95821153D01*
X139379185Y-95790609D01*
X139379172Y-95790602D01*
X139233501Y-95730264D01*
X139233489Y-95730261D01*
X139078845Y-95699500D01*
X139078842Y-95699500D01*
X138921158Y-95699500D01*
X138921155Y-95699500D01*
X138766510Y-95730261D01*
X138766498Y-95730264D01*
X138620827Y-95790602D01*
X138620814Y-95790609D01*
X138489711Y-95878210D01*
X138489707Y-95878213D01*
X138378213Y-95989707D01*
X138378210Y-95989711D01*
X138290609Y-96120814D01*
X138290602Y-96120827D01*
X138230264Y-96266498D01*
X138230261Y-96266510D01*
X138199500Y-96421153D01*
X134300499Y-96421153D01*
X134298338Y-96410288D01*
X134269737Y-96266503D01*
X134269735Y-96266498D01*
X134209397Y-96120827D01*
X134209390Y-96120814D01*
X134121789Y-95989711D01*
X134121786Y-95989707D01*
X134010292Y-95878213D01*
X134010288Y-95878210D01*
X133879185Y-95790609D01*
X133879172Y-95790602D01*
X133733501Y-95730264D01*
X133733489Y-95730261D01*
X133578845Y-95699500D01*
X133578842Y-95699500D01*
X133421158Y-95699500D01*
X133421155Y-95699500D01*
X133266510Y-95730261D01*
X133266498Y-95730264D01*
X133120827Y-95790602D01*
X133120814Y-95790609D01*
X132989711Y-95878210D01*
X132989707Y-95878213D01*
X132878213Y-95989707D01*
X132878210Y-95989711D01*
X132790609Y-96120814D01*
X132790602Y-96120827D01*
X132730264Y-96266498D01*
X132730261Y-96266510D01*
X132699500Y-96421153D01*
X117500500Y-96421153D01*
X117500500Y-91421153D01*
X123699500Y-91421153D01*
X123699500Y-91578846D01*
X123730261Y-91733489D01*
X123730264Y-91733501D01*
X123790602Y-91879172D01*
X123790609Y-91879185D01*
X123878210Y-92010288D01*
X123878213Y-92010292D01*
X123989707Y-92121786D01*
X123989711Y-92121789D01*
X124120814Y-92209390D01*
X124120827Y-92209397D01*
X124266498Y-92269735D01*
X124266503Y-92269737D01*
X124421153Y-92300499D01*
X124421156Y-92300500D01*
X124421158Y-92300500D01*
X124578844Y-92300500D01*
X124578845Y-92300499D01*
X124733497Y-92269737D01*
X124879179Y-92209394D01*
X125010289Y-92121789D01*
X125121789Y-92010289D01*
X125209394Y-91879179D01*
X125269737Y-91733497D01*
X125300500Y-91578842D01*
X125300500Y-91421158D01*
X125300500Y-91421155D01*
X125300499Y-91421153D01*
X133699500Y-91421153D01*
X133699500Y-91578846D01*
X133730261Y-91733489D01*
X133730264Y-91733501D01*
X133790602Y-91879172D01*
X133790609Y-91879185D01*
X133878210Y-92010288D01*
X133878213Y-92010292D01*
X133989707Y-92121786D01*
X133989711Y-92121789D01*
X134120814Y-92209390D01*
X134120827Y-92209397D01*
X134266498Y-92269735D01*
X134266503Y-92269737D01*
X134421153Y-92300499D01*
X134421156Y-92300500D01*
X134421158Y-92300500D01*
X134578844Y-92300500D01*
X134578845Y-92300499D01*
X134733497Y-92269737D01*
X134879179Y-92209394D01*
X135010289Y-92121789D01*
X135121789Y-92010289D01*
X135209394Y-91879179D01*
X135269737Y-91733497D01*
X135300500Y-91578842D01*
X135300500Y-91421158D01*
X135300500Y-91421155D01*
X135300499Y-91421153D01*
X135290679Y-91371786D01*
X135269737Y-91266503D01*
X135256062Y-91233489D01*
X135209397Y-91120827D01*
X135209390Y-91120814D01*
X135121789Y-90989711D01*
X135121786Y-90989707D01*
X135010292Y-90878213D01*
X135010288Y-90878210D01*
X134879185Y-90790609D01*
X134879173Y-90790602D01*
X134852674Y-90779627D01*
X134733501Y-90730264D01*
X134733489Y-90730261D01*
X134578845Y-90699500D01*
X134578842Y-90699500D01*
X134421158Y-90699500D01*
X134421155Y-90699500D01*
X134266510Y-90730261D01*
X134266498Y-90730264D01*
X134120827Y-90790602D01*
X134120814Y-90790609D01*
X133989711Y-90878210D01*
X133989707Y-90878213D01*
X133878213Y-90989707D01*
X133878210Y-90989711D01*
X133790609Y-91120814D01*
X133790602Y-91120827D01*
X133730264Y-91266498D01*
X133730261Y-91266510D01*
X133699500Y-91421153D01*
X125300499Y-91421153D01*
X125290679Y-91371786D01*
X125269737Y-91266503D01*
X125256062Y-91233489D01*
X125209397Y-91120827D01*
X125209390Y-91120814D01*
X125121789Y-90989711D01*
X125121786Y-90989707D01*
X125010292Y-90878213D01*
X125010288Y-90878210D01*
X124879185Y-90790609D01*
X124879172Y-90790602D01*
X124733501Y-90730264D01*
X124733489Y-90730261D01*
X124578845Y-90699500D01*
X124578842Y-90699500D01*
X124421158Y-90699500D01*
X124421155Y-90699500D01*
X124266510Y-90730261D01*
X124266498Y-90730264D01*
X124120827Y-90790602D01*
X124120814Y-90790609D01*
X123989711Y-90878210D01*
X123989707Y-90878213D01*
X123878213Y-90989707D01*
X123878210Y-90989711D01*
X123790609Y-91120814D01*
X123790602Y-91120827D01*
X123730264Y-91266498D01*
X123730261Y-91266510D01*
X123699500Y-91421153D01*
X117500500Y-91421153D01*
X117500500Y-90671153D01*
X138449500Y-90671153D01*
X138449500Y-90828846D01*
X138480261Y-90983489D01*
X138480264Y-90983501D01*
X138540602Y-91129172D01*
X138540609Y-91129185D01*
X138628210Y-91260288D01*
X138628213Y-91260292D01*
X138739707Y-91371786D01*
X138739711Y-91371789D01*
X138870814Y-91459390D01*
X138870827Y-91459397D01*
X139016498Y-91519735D01*
X139016503Y-91519737D01*
X139171153Y-91550499D01*
X139171156Y-91550500D01*
X139171158Y-91550500D01*
X139328844Y-91550500D01*
X139328845Y-91550499D01*
X139483497Y-91519737D01*
X139629179Y-91459394D01*
X139760289Y-91371789D01*
X139871789Y-91260289D01*
X139959394Y-91129179D01*
X139962854Y-91120827D01*
X140017163Y-90989711D01*
X140019737Y-90983497D01*
X140050500Y-90828842D01*
X140050500Y-90671158D01*
X140050500Y-90671155D01*
X140050499Y-90671153D01*
X140020748Y-90521588D01*
X140019737Y-90516503D01*
X140017163Y-90510288D01*
X139959397Y-90370827D01*
X139959390Y-90370814D01*
X139871789Y-90239711D01*
X139871786Y-90239707D01*
X139760292Y-90128213D01*
X139760288Y-90128210D01*
X139629185Y-90040609D01*
X139629172Y-90040602D01*
X139483501Y-89980264D01*
X139483489Y-89980261D01*
X139328845Y-89949500D01*
X139328842Y-89949500D01*
X139171158Y-89949500D01*
X139171155Y-89949500D01*
X139016510Y-89980261D01*
X139016498Y-89980264D01*
X138870827Y-90040602D01*
X138870814Y-90040609D01*
X138739711Y-90128210D01*
X138739707Y-90128213D01*
X138628213Y-90239707D01*
X138628210Y-90239711D01*
X138540609Y-90370814D01*
X138540602Y-90370827D01*
X138480264Y-90516498D01*
X138480261Y-90516510D01*
X138449500Y-90671153D01*
X117500500Y-90671153D01*
X117500500Y-85853713D01*
X157649500Y-85853713D01*
X157649500Y-86066287D01*
X157682754Y-86276243D01*
X157699512Y-86327820D01*
X157748444Y-86478414D01*
X157844951Y-86667820D01*
X157969890Y-86839786D01*
X158120213Y-86990109D01*
X158292182Y-87115050D01*
X158300946Y-87119516D01*
X158351742Y-87167491D01*
X158368536Y-87235312D01*
X158345998Y-87301447D01*
X158300946Y-87340484D01*
X158292182Y-87344949D01*
X158120213Y-87469890D01*
X157969890Y-87620213D01*
X157844951Y-87792179D01*
X157748444Y-87981585D01*
X157682753Y-88183760D01*
X157649500Y-88393713D01*
X157649500Y-88606286D01*
X157680689Y-88803209D01*
X157682754Y-88816243D01*
X157716841Y-88921153D01*
X157748444Y-89018414D01*
X157844951Y-89207820D01*
X157969890Y-89379786D01*
X158120213Y-89530109D01*
X158292182Y-89655050D01*
X158300946Y-89659516D01*
X158351742Y-89707491D01*
X158368536Y-89775312D01*
X158345998Y-89841447D01*
X158300946Y-89880484D01*
X158292182Y-89884949D01*
X158120213Y-90009890D01*
X157969890Y-90160213D01*
X157844951Y-90332179D01*
X157748444Y-90521585D01*
X157682753Y-90723760D01*
X157649500Y-90933713D01*
X157649500Y-91146286D01*
X157668541Y-91266510D01*
X157682754Y-91356243D01*
X157745872Y-91550500D01*
X157748444Y-91558414D01*
X157844951Y-91747820D01*
X157969890Y-91919786D01*
X158083430Y-92033326D01*
X158116915Y-92094649D01*
X158111931Y-92164341D01*
X158070059Y-92220274D01*
X158039083Y-92237189D01*
X157907669Y-92286203D01*
X157907664Y-92286206D01*
X157792455Y-92372452D01*
X157792452Y-92372455D01*
X157706206Y-92487664D01*
X157706202Y-92487671D01*
X157655908Y-92622517D01*
X157649501Y-92682116D01*
X157649501Y-92682123D01*
X157649500Y-92682135D01*
X157649500Y-94477870D01*
X157649501Y-94477876D01*
X157655908Y-94537483D01*
X157706202Y-94672328D01*
X157706206Y-94672335D01*
X157792452Y-94787544D01*
X157792455Y-94787547D01*
X157907664Y-94873793D01*
X157907671Y-94873797D01*
X158042517Y-94924091D01*
X158042516Y-94924091D01*
X158049444Y-94924835D01*
X158102127Y-94930500D01*
X159897872Y-94930499D01*
X159957483Y-94924091D01*
X160092331Y-94873796D01*
X160207546Y-94787546D01*
X160293796Y-94672331D01*
X160344091Y-94537483D01*
X160350500Y-94477873D01*
X160350499Y-92682128D01*
X160344091Y-92622517D01*
X160293796Y-92487669D01*
X160293795Y-92487668D01*
X160293793Y-92487664D01*
X160207547Y-92372455D01*
X160207544Y-92372452D01*
X160092335Y-92286206D01*
X160092328Y-92286202D01*
X159960917Y-92237189D01*
X159904983Y-92195318D01*
X159880566Y-92129853D01*
X159895418Y-92061580D01*
X159916563Y-92033332D01*
X160030104Y-91919792D01*
X160155051Y-91747816D01*
X160251557Y-91558412D01*
X160317246Y-91356243D01*
X160350500Y-91146287D01*
X160350500Y-90933713D01*
X160317246Y-90723757D01*
X160251557Y-90521588D01*
X160155051Y-90332184D01*
X160155049Y-90332181D01*
X160155048Y-90332179D01*
X160030109Y-90160213D01*
X159879786Y-90009890D01*
X159707820Y-89884951D01*
X159707115Y-89884591D01*
X159699054Y-89880485D01*
X159648259Y-89832512D01*
X159631463Y-89764692D01*
X159653999Y-89698556D01*
X159699054Y-89659515D01*
X159707816Y-89655051D01*
X159754940Y-89620814D01*
X159879786Y-89530109D01*
X159879788Y-89530106D01*
X159879792Y-89530104D01*
X160030104Y-89379792D01*
X160037269Y-89369930D01*
X160054544Y-89346153D01*
X166199500Y-89346153D01*
X166199500Y-89503846D01*
X166230261Y-89658489D01*
X166230264Y-89658501D01*
X166290602Y-89804172D01*
X166290609Y-89804185D01*
X166378210Y-89935288D01*
X166378213Y-89935292D01*
X166489707Y-90046786D01*
X166489711Y-90046789D01*
X166620814Y-90134390D01*
X166620827Y-90134397D01*
X166766498Y-90194735D01*
X166766503Y-90194737D01*
X166921153Y-90225499D01*
X166921156Y-90225500D01*
X166921158Y-90225500D01*
X167078844Y-90225500D01*
X167078845Y-90225499D01*
X167233497Y-90194737D01*
X167379179Y-90134394D01*
X167510289Y-90046789D01*
X167621789Y-89935289D01*
X167631234Y-89921153D01*
X174199500Y-89921153D01*
X174199500Y-90078846D01*
X174230261Y-90233489D01*
X174230264Y-90233501D01*
X174290602Y-90379172D01*
X174290609Y-90379185D01*
X174378210Y-90510288D01*
X174378213Y-90510292D01*
X174489707Y-90621786D01*
X174489711Y-90621789D01*
X174620814Y-90709390D01*
X174620827Y-90709397D01*
X174758683Y-90766498D01*
X174766503Y-90769737D01*
X174921153Y-90800499D01*
X174921156Y-90800500D01*
X174921158Y-90800500D01*
X175078844Y-90800500D01*
X175078845Y-90800499D01*
X175233497Y-90769737D01*
X175379179Y-90709394D01*
X175510289Y-90621789D01*
X175621789Y-90510289D01*
X175709394Y-90379179D01*
X175712854Y-90370827D01*
X175728862Y-90332179D01*
X175769737Y-90233497D01*
X175800500Y-90078842D01*
X175800500Y-89921158D01*
X175800500Y-89921155D01*
X175800499Y-89921153D01*
X175793298Y-89884951D01*
X175769737Y-89766503D01*
X175725421Y-89659514D01*
X175709397Y-89620827D01*
X175709390Y-89620814D01*
X175621789Y-89489711D01*
X175621786Y-89489707D01*
X175510292Y-89378213D01*
X175510288Y-89378210D01*
X175379185Y-89290609D01*
X175379172Y-89290602D01*
X175233501Y-89230264D01*
X175233489Y-89230261D01*
X175078845Y-89199500D01*
X175078842Y-89199500D01*
X174921158Y-89199500D01*
X174921155Y-89199500D01*
X174766510Y-89230261D01*
X174766498Y-89230264D01*
X174620827Y-89290602D01*
X174620814Y-89290609D01*
X174489711Y-89378210D01*
X174489707Y-89378213D01*
X174378213Y-89489707D01*
X174378210Y-89489711D01*
X174290609Y-89620814D01*
X174290602Y-89620827D01*
X174230264Y-89766498D01*
X174230261Y-89766510D01*
X174199500Y-89921153D01*
X167631234Y-89921153D01*
X167655425Y-89884949D01*
X167681334Y-89846175D01*
X167681335Y-89846173D01*
X167709387Y-89804190D01*
X167709390Y-89804185D01*
X167709394Y-89804179D01*
X167769737Y-89658497D01*
X167800500Y-89503842D01*
X167800500Y-89346158D01*
X167800500Y-89346155D01*
X167800499Y-89346153D01*
X167769737Y-89191503D01*
X167743024Y-89127011D01*
X167709397Y-89045827D01*
X167709390Y-89045814D01*
X167668058Y-88983957D01*
X167626093Y-88921153D01*
X177199500Y-88921153D01*
X177199500Y-89078846D01*
X177230261Y-89233489D01*
X177230264Y-89233501D01*
X177290602Y-89379172D01*
X177290609Y-89379185D01*
X177378210Y-89510288D01*
X177378213Y-89510292D01*
X177489707Y-89621786D01*
X177489711Y-89621789D01*
X177620814Y-89709390D01*
X177620827Y-89709397D01*
X177722612Y-89751557D01*
X177766503Y-89769737D01*
X177921153Y-89800499D01*
X177921156Y-89800500D01*
X177921158Y-89800500D01*
X178078844Y-89800500D01*
X178078845Y-89800499D01*
X178233497Y-89769737D01*
X178379179Y-89709394D01*
X178510289Y-89621789D01*
X178621789Y-89510289D01*
X178709394Y-89379179D01*
X178769737Y-89233497D01*
X178800500Y-89078842D01*
X178800500Y-88921158D01*
X178800500Y-88921155D01*
X178800499Y-88921153D01*
X178777039Y-88803213D01*
X178769737Y-88766503D01*
X178748655Y-88715606D01*
X178709397Y-88620827D01*
X178709390Y-88620814D01*
X178621789Y-88489711D01*
X178621786Y-88489707D01*
X178510292Y-88378213D01*
X178510288Y-88378210D01*
X178379185Y-88290609D01*
X178379172Y-88290602D01*
X178233501Y-88230264D01*
X178233489Y-88230261D01*
X178078845Y-88199500D01*
X178078842Y-88199500D01*
X177921158Y-88199500D01*
X177921155Y-88199500D01*
X177766510Y-88230261D01*
X177766498Y-88230264D01*
X177620827Y-88290602D01*
X177620814Y-88290609D01*
X177489711Y-88378210D01*
X177489707Y-88378213D01*
X177378213Y-88489707D01*
X177378210Y-88489711D01*
X177290609Y-88620814D01*
X177290602Y-88620827D01*
X177230264Y-88766498D01*
X177230261Y-88766510D01*
X177199500Y-88921153D01*
X167626093Y-88921153D01*
X167621789Y-88914711D01*
X167621786Y-88914707D01*
X167510292Y-88803213D01*
X167510287Y-88803209D01*
X167379185Y-88715609D01*
X167379172Y-88715602D01*
X167233501Y-88655264D01*
X167233489Y-88655261D01*
X167078845Y-88624500D01*
X167078842Y-88624500D01*
X166921158Y-88624500D01*
X166921155Y-88624500D01*
X166766510Y-88655261D01*
X166766498Y-88655264D01*
X166620827Y-88715602D01*
X166620814Y-88715609D01*
X166489713Y-88803209D01*
X166489707Y-88803213D01*
X166378213Y-88914707D01*
X166378210Y-88914711D01*
X166290609Y-89045814D01*
X166290602Y-89045827D01*
X166230264Y-89191498D01*
X166230261Y-89191510D01*
X166199500Y-89346153D01*
X160054544Y-89346153D01*
X160111921Y-89267181D01*
X160155048Y-89207820D01*
X160155047Y-89207820D01*
X160155051Y-89207816D01*
X160251557Y-89018412D01*
X160317246Y-88816243D01*
X160350500Y-88606287D01*
X160350500Y-88393713D01*
X160317246Y-88183757D01*
X160251557Y-87981588D01*
X160155051Y-87792184D01*
X160155049Y-87792181D01*
X160155048Y-87792179D01*
X160030109Y-87620213D01*
X159879786Y-87469890D01*
X159812704Y-87421153D01*
X180199500Y-87421153D01*
X180199500Y-87578846D01*
X180230261Y-87733489D01*
X180230264Y-87733501D01*
X180290602Y-87879172D01*
X180290609Y-87879185D01*
X180378210Y-88010288D01*
X180378213Y-88010292D01*
X180489707Y-88121786D01*
X180489711Y-88121789D01*
X180620814Y-88209390D01*
X180620827Y-88209397D01*
X180756450Y-88265573D01*
X180766503Y-88269737D01*
X180881312Y-88292574D01*
X180921153Y-88300499D01*
X180921156Y-88300500D01*
X180921158Y-88300500D01*
X181078843Y-88300500D01*
X181095304Y-88297225D01*
X181144568Y-88287426D01*
X181167944Y-88289517D01*
X181191297Y-88287108D01*
X181202101Y-88292574D01*
X181214158Y-88293653D01*
X181232694Y-88308052D01*
X181253642Y-88318650D01*
X181262110Y-88330902D01*
X181269336Y-88336515D01*
X181275670Y-88346226D01*
X181280030Y-88353647D01*
X181290606Y-88379179D01*
X181327290Y-88434081D01*
X181329113Y-88437183D01*
X181336771Y-88467731D01*
X181346182Y-88497786D01*
X181345201Y-88501359D01*
X181346103Y-88504955D01*
X181336030Y-88534792D01*
X181327698Y-88565167D01*
X181325304Y-88568891D01*
X181290609Y-88620814D01*
X181290602Y-88620827D01*
X181230264Y-88766498D01*
X181230261Y-88766510D01*
X181199500Y-88921153D01*
X181199500Y-89078846D01*
X181230261Y-89233489D01*
X181230264Y-89233501D01*
X181290602Y-89379172D01*
X181290609Y-89379185D01*
X181378210Y-89510288D01*
X181378213Y-89510292D01*
X181489707Y-89621786D01*
X181489711Y-89621789D01*
X181620814Y-89709390D01*
X181620827Y-89709397D01*
X181722612Y-89751557D01*
X181766503Y-89769737D01*
X181921153Y-89800499D01*
X181921156Y-89800500D01*
X182075500Y-89800500D01*
X182142539Y-89820185D01*
X182188294Y-89872989D01*
X182199500Y-89924500D01*
X182199500Y-90078846D01*
X182230261Y-90233489D01*
X182230264Y-90233501D01*
X182290602Y-90379172D01*
X182290609Y-90379185D01*
X182378210Y-90510288D01*
X182378213Y-90510292D01*
X182489707Y-90621786D01*
X182489711Y-90621789D01*
X182620814Y-90709390D01*
X182620827Y-90709397D01*
X182758683Y-90766498D01*
X182766503Y-90769737D01*
X182921153Y-90800499D01*
X182921156Y-90800500D01*
X183075500Y-90800500D01*
X183142539Y-90820185D01*
X183188294Y-90872989D01*
X183199500Y-90924500D01*
X183199500Y-91078846D01*
X183230261Y-91233489D01*
X183230264Y-91233501D01*
X183290602Y-91379172D01*
X183290609Y-91379185D01*
X183378210Y-91510288D01*
X183378213Y-91510292D01*
X183489707Y-91621786D01*
X183489711Y-91621789D01*
X183620814Y-91709390D01*
X183620827Y-91709397D01*
X183713590Y-91747820D01*
X183766503Y-91769737D01*
X183921153Y-91800499D01*
X183921156Y-91800500D01*
X183921158Y-91800500D01*
X184078844Y-91800500D01*
X184078845Y-91800499D01*
X184233497Y-91769737D01*
X184379179Y-91709394D01*
X184431110Y-91674694D01*
X184497785Y-91653816D01*
X184565165Y-91672300D01*
X184568863Y-91674676D01*
X184620821Y-91709394D01*
X184620823Y-91709395D01*
X184620825Y-91709396D01*
X184713590Y-91747820D01*
X184766503Y-91769737D01*
X184921153Y-91800499D01*
X184921156Y-91800500D01*
X184921158Y-91800500D01*
X185078844Y-91800500D01*
X185078845Y-91800499D01*
X185233497Y-91769737D01*
X185379179Y-91709394D01*
X185510289Y-91621789D01*
X185621789Y-91510289D01*
X185709394Y-91379179D01*
X185769737Y-91233497D01*
X185800500Y-91078842D01*
X185800500Y-90921158D01*
X185800500Y-90921155D01*
X185800499Y-90921153D01*
X185791957Y-90878210D01*
X185769737Y-90766503D01*
X185769735Y-90766498D01*
X185709397Y-90620827D01*
X185709390Y-90620814D01*
X185621789Y-90489711D01*
X185621786Y-90489707D01*
X185510292Y-90378213D01*
X185510288Y-90378210D01*
X185379185Y-90290609D01*
X185379172Y-90290602D01*
X185233501Y-90230264D01*
X185233489Y-90230261D01*
X185078845Y-90199500D01*
X185078842Y-90199500D01*
X184924500Y-90199500D01*
X184857461Y-90179815D01*
X184811706Y-90127011D01*
X184800500Y-90075500D01*
X184800500Y-89921155D01*
X184800499Y-89921153D01*
X184793298Y-89884951D01*
X184769737Y-89766503D01*
X184725421Y-89659514D01*
X184709397Y-89620827D01*
X184709390Y-89620814D01*
X184621789Y-89489711D01*
X184621786Y-89489707D01*
X184510292Y-89378213D01*
X184510288Y-89378210D01*
X184379185Y-89290609D01*
X184379172Y-89290602D01*
X184233501Y-89230264D01*
X184233489Y-89230261D01*
X184078845Y-89199500D01*
X184078842Y-89199500D01*
X183924500Y-89199500D01*
X183857461Y-89179815D01*
X183811706Y-89127011D01*
X183800500Y-89075500D01*
X183800500Y-88921155D01*
X183800499Y-88921153D01*
X183777039Y-88803213D01*
X183769737Y-88766503D01*
X183748655Y-88715606D01*
X183709397Y-88620827D01*
X183709390Y-88620814D01*
X183621789Y-88489711D01*
X183621786Y-88489707D01*
X183510292Y-88378213D01*
X183510288Y-88378210D01*
X183379185Y-88290609D01*
X183379172Y-88290602D01*
X183233501Y-88230264D01*
X183233489Y-88230261D01*
X183078845Y-88199500D01*
X183078842Y-88199500D01*
X182924500Y-88199500D01*
X182857461Y-88179815D01*
X182811706Y-88127011D01*
X182800500Y-88075500D01*
X182800500Y-87921155D01*
X182800499Y-87921153D01*
X182769738Y-87766510D01*
X182769737Y-87766503D01*
X182756062Y-87733489D01*
X182709397Y-87620827D01*
X182709390Y-87620814D01*
X182621789Y-87489711D01*
X182621786Y-87489707D01*
X182510292Y-87378213D01*
X182510288Y-87378210D01*
X182379185Y-87290609D01*
X182379172Y-87290602D01*
X182233501Y-87230264D01*
X182233489Y-87230261D01*
X182078845Y-87199500D01*
X182078842Y-87199500D01*
X181921158Y-87199500D01*
X181921153Y-87199500D01*
X181855431Y-87212573D01*
X181785839Y-87206346D01*
X181730662Y-87163482D01*
X181716679Y-87138409D01*
X181709392Y-87120817D01*
X181621789Y-86989711D01*
X181621786Y-86989707D01*
X181510292Y-86878213D01*
X181510288Y-86878210D01*
X181379185Y-86790609D01*
X181379172Y-86790602D01*
X181233501Y-86730264D01*
X181233489Y-86730261D01*
X181078845Y-86699500D01*
X181078842Y-86699500D01*
X180921158Y-86699500D01*
X180921155Y-86699500D01*
X180766510Y-86730261D01*
X180766498Y-86730264D01*
X180620827Y-86790602D01*
X180620814Y-86790609D01*
X180489711Y-86878210D01*
X180489707Y-86878213D01*
X180378213Y-86989707D01*
X180378210Y-86989711D01*
X180290609Y-87120814D01*
X180290602Y-87120827D01*
X180230264Y-87266498D01*
X180230261Y-87266510D01*
X180199500Y-87421153D01*
X159812704Y-87421153D01*
X159707820Y-87344951D01*
X159707115Y-87344591D01*
X159699054Y-87340485D01*
X159648259Y-87292512D01*
X159631463Y-87224692D01*
X159653999Y-87158556D01*
X159699054Y-87119515D01*
X159707816Y-87115051D01*
X159729789Y-87099086D01*
X159879786Y-86990109D01*
X159879788Y-86990106D01*
X159879792Y-86990104D01*
X160030104Y-86839792D01*
X160030106Y-86839788D01*
X160030109Y-86839786D01*
X160155048Y-86667820D01*
X160155047Y-86667820D01*
X160155051Y-86667816D01*
X160251557Y-86478412D01*
X160317246Y-86276243D01*
X160350500Y-86066287D01*
X160350500Y-85853713D01*
X160317246Y-85643757D01*
X160251557Y-85441588D01*
X160155051Y-85252184D01*
X160155049Y-85252181D01*
X160155048Y-85252179D01*
X160030109Y-85080213D01*
X159879792Y-84929896D01*
X159855413Y-84912184D01*
X159811745Y-84880457D01*
X159769081Y-84825129D01*
X159763102Y-84755515D01*
X159768040Y-84739345D01*
X159767969Y-84739324D01*
X159769731Y-84733509D01*
X159769737Y-84733497D01*
X159800500Y-84578842D01*
X159800500Y-84421158D01*
X159800500Y-84421155D01*
X159800499Y-84421153D01*
X159774531Y-84290606D01*
X159769737Y-84266503D01*
X159756062Y-84233489D01*
X159709397Y-84120827D01*
X159709390Y-84120814D01*
X159621789Y-83989711D01*
X159621786Y-83989707D01*
X159510292Y-83878213D01*
X159510288Y-83878210D01*
X159379185Y-83790609D01*
X159379172Y-83790602D01*
X159233501Y-83730264D01*
X159233489Y-83730261D01*
X159078845Y-83699500D01*
X159078842Y-83699500D01*
X158921158Y-83699500D01*
X158921155Y-83699500D01*
X158766510Y-83730261D01*
X158766498Y-83730264D01*
X158620827Y-83790602D01*
X158620814Y-83790609D01*
X158489711Y-83878210D01*
X158489707Y-83878213D01*
X158378213Y-83989707D01*
X158378210Y-83989711D01*
X158290609Y-84120814D01*
X158290602Y-84120827D01*
X158230264Y-84266498D01*
X158230261Y-84266510D01*
X158199500Y-84421153D01*
X158199500Y-84578846D01*
X158230260Y-84733488D01*
X158232030Y-84739320D01*
X158230685Y-84739727D01*
X158237396Y-84802159D01*
X158206120Y-84864637D01*
X158188253Y-84880457D01*
X158120214Y-84929891D01*
X158120205Y-84929898D01*
X157969890Y-85080213D01*
X157844951Y-85252179D01*
X157748444Y-85441585D01*
X157682753Y-85643760D01*
X157662800Y-85769738D01*
X157649500Y-85853713D01*
X117500500Y-85853713D01*
X117500500Y-84921153D01*
X155699500Y-84921153D01*
X155699500Y-85078846D01*
X155730261Y-85233489D01*
X155730264Y-85233501D01*
X155790602Y-85379172D01*
X155790609Y-85379185D01*
X155878210Y-85510288D01*
X155878213Y-85510292D01*
X155989707Y-85621786D01*
X155989711Y-85621789D01*
X156120814Y-85709390D01*
X156120827Y-85709397D01*
X156266498Y-85769735D01*
X156266503Y-85769737D01*
X156421153Y-85800499D01*
X156421156Y-85800500D01*
X156421158Y-85800500D01*
X156578844Y-85800500D01*
X156578845Y-85800499D01*
X156733497Y-85769737D01*
X156783961Y-85748834D01*
X156819099Y-85734280D01*
X156879172Y-85709397D01*
X156879172Y-85709396D01*
X156879179Y-85709394D01*
X157010289Y-85621789D01*
X157121789Y-85510289D01*
X157209394Y-85379179D01*
X157269737Y-85233497D01*
X157300500Y-85078842D01*
X157300500Y-84921158D01*
X157300500Y-84921155D01*
X157300499Y-84921153D01*
X157289257Y-84864637D01*
X157269737Y-84766503D01*
X157265186Y-84755515D01*
X157209397Y-84620827D01*
X157209390Y-84620814D01*
X157121789Y-84489711D01*
X157121786Y-84489707D01*
X157010292Y-84378213D01*
X157010288Y-84378210D01*
X156879185Y-84290609D01*
X156879172Y-84290602D01*
X156733501Y-84230264D01*
X156733489Y-84230261D01*
X156578845Y-84199500D01*
X156578842Y-84199500D01*
X156421158Y-84199500D01*
X156421155Y-84199500D01*
X156266510Y-84230261D01*
X156266498Y-84230264D01*
X156120827Y-84290602D01*
X156120814Y-84290609D01*
X155989711Y-84378210D01*
X155989707Y-84378213D01*
X155878213Y-84489707D01*
X155878210Y-84489711D01*
X155790609Y-84620814D01*
X155790602Y-84620827D01*
X155730264Y-84766498D01*
X155730261Y-84766510D01*
X155699500Y-84921153D01*
X117500500Y-84921153D01*
X117500500Y-82671153D01*
X125449500Y-82671153D01*
X125449500Y-82828846D01*
X125480261Y-82983489D01*
X125480264Y-82983501D01*
X125540602Y-83129172D01*
X125540609Y-83129185D01*
X125628210Y-83260288D01*
X125628213Y-83260292D01*
X125739707Y-83371786D01*
X125739711Y-83371789D01*
X125870814Y-83459390D01*
X125870827Y-83459397D01*
X126016498Y-83519735D01*
X126016503Y-83519737D01*
X126171153Y-83550499D01*
X126171156Y-83550500D01*
X126171158Y-83550500D01*
X126328844Y-83550500D01*
X126328845Y-83550499D01*
X126483497Y-83519737D01*
X126629179Y-83459394D01*
X126760289Y-83371789D01*
X126871789Y-83260289D01*
X126931348Y-83171153D01*
X128449500Y-83171153D01*
X128449500Y-83328846D01*
X128480261Y-83483489D01*
X128480264Y-83483501D01*
X128540602Y-83629172D01*
X128540609Y-83629185D01*
X128628210Y-83760288D01*
X128628213Y-83760292D01*
X128739707Y-83871786D01*
X128739711Y-83871789D01*
X128870814Y-83959390D01*
X128870827Y-83959397D01*
X128944013Y-83989711D01*
X129016503Y-84019737D01*
X129171153Y-84050499D01*
X129171156Y-84050500D01*
X129171158Y-84050500D01*
X129328844Y-84050500D01*
X129328845Y-84050499D01*
X129483497Y-84019737D01*
X129629179Y-83959394D01*
X129760289Y-83871789D01*
X129871789Y-83760289D01*
X129959394Y-83629179D01*
X129962854Y-83620827D01*
X129973067Y-83596166D01*
X130019737Y-83483497D01*
X130050500Y-83328842D01*
X130050500Y-83171158D01*
X130050500Y-83171155D01*
X130050499Y-83171153D01*
X130040293Y-83119844D01*
X130019737Y-83016503D01*
X129980242Y-82921153D01*
X149699500Y-82921153D01*
X149699500Y-83078846D01*
X149730261Y-83233489D01*
X149730264Y-83233501D01*
X149790602Y-83379172D01*
X149790609Y-83379185D01*
X149825304Y-83431109D01*
X149846182Y-83497786D01*
X149827698Y-83565167D01*
X149825304Y-83568891D01*
X149790609Y-83620814D01*
X149790602Y-83620827D01*
X149730264Y-83766498D01*
X149730261Y-83766510D01*
X149699500Y-83921153D01*
X149699500Y-84078846D01*
X149730261Y-84233489D01*
X149730264Y-84233501D01*
X149790602Y-84379172D01*
X149790609Y-84379185D01*
X149878210Y-84510288D01*
X149878213Y-84510292D01*
X149989707Y-84621786D01*
X149989711Y-84621789D01*
X150120814Y-84709390D01*
X150120827Y-84709397D01*
X150258683Y-84766498D01*
X150266503Y-84769737D01*
X150421153Y-84800499D01*
X150421156Y-84800500D01*
X150421158Y-84800500D01*
X150578844Y-84800500D01*
X150578845Y-84800499D01*
X150589179Y-84798443D01*
X150614287Y-84793450D01*
X150614292Y-84793449D01*
X150699800Y-84776439D01*
X150733497Y-84769737D01*
X150879179Y-84709394D01*
X151010289Y-84621789D01*
X151121789Y-84510289D01*
X151209394Y-84379179D01*
X151269737Y-84233497D01*
X151300500Y-84078842D01*
X151300500Y-83921158D01*
X151300500Y-83921155D01*
X151300499Y-83921153D01*
X151278536Y-83810738D01*
X151269737Y-83766503D01*
X151263066Y-83750397D01*
X151209396Y-83620825D01*
X151209394Y-83620822D01*
X151209394Y-83620821D01*
X151174694Y-83568889D01*
X151153816Y-83502215D01*
X151172300Y-83434835D01*
X151174676Y-83431136D01*
X151209394Y-83379179D01*
X151269737Y-83233497D01*
X151300500Y-83078842D01*
X151300500Y-82962153D01*
X161199500Y-82962153D01*
X161199500Y-83119846D01*
X161230261Y-83274489D01*
X161230264Y-83274501D01*
X161290602Y-83420172D01*
X161290609Y-83420185D01*
X161378210Y-83551288D01*
X161378213Y-83551292D01*
X161489707Y-83662786D01*
X161489711Y-83662789D01*
X161620814Y-83750390D01*
X161620827Y-83750397D01*
X161717892Y-83790602D01*
X161766503Y-83810737D01*
X161921153Y-83841499D01*
X161921156Y-83841500D01*
X161921158Y-83841500D01*
X162078844Y-83841500D01*
X162078845Y-83841499D01*
X162233497Y-83810737D01*
X162379179Y-83750394D01*
X162510289Y-83662789D01*
X162621789Y-83551289D01*
X162709394Y-83420179D01*
X162769737Y-83274497D01*
X162800500Y-83119842D01*
X162800500Y-82962158D01*
X162800500Y-82962155D01*
X162800499Y-82962153D01*
X162798139Y-82950288D01*
X162769737Y-82807503D01*
X162752757Y-82766510D01*
X162709397Y-82661827D01*
X162709390Y-82661814D01*
X162621789Y-82530711D01*
X162621786Y-82530707D01*
X162510292Y-82419213D01*
X162510288Y-82419210D01*
X162423400Y-82361153D01*
X164139500Y-82361153D01*
X164139500Y-82518846D01*
X164170261Y-82673489D01*
X164170264Y-82673501D01*
X164230602Y-82819172D01*
X164230609Y-82819185D01*
X164318210Y-82950288D01*
X164318213Y-82950292D01*
X164429707Y-83061786D01*
X164429711Y-83061789D01*
X164560814Y-83149390D01*
X164560827Y-83149397D01*
X164649889Y-83186287D01*
X164706503Y-83209737D01*
X164825912Y-83233489D01*
X164861153Y-83240499D01*
X164861156Y-83240500D01*
X164861158Y-83240500D01*
X165018844Y-83240500D01*
X165018845Y-83240499D01*
X165173497Y-83209737D01*
X165319179Y-83149394D01*
X165450289Y-83061789D01*
X165561789Y-82950289D01*
X165649394Y-82819179D01*
X165709737Y-82673497D01*
X165740500Y-82518842D01*
X165740500Y-82361158D01*
X165740500Y-82361155D01*
X165740499Y-82361153D01*
X165722619Y-82271264D01*
X165709737Y-82206503D01*
X165706836Y-82199500D01*
X165649397Y-82060827D01*
X165649390Y-82060814D01*
X165561789Y-81929711D01*
X165561786Y-81929707D01*
X165450292Y-81818213D01*
X165450288Y-81818210D01*
X165319185Y-81730609D01*
X165319172Y-81730602D01*
X165173501Y-81670264D01*
X165173489Y-81670261D01*
X165018845Y-81639500D01*
X165018842Y-81639500D01*
X164861158Y-81639500D01*
X164861155Y-81639500D01*
X164706510Y-81670261D01*
X164706498Y-81670264D01*
X164560827Y-81730602D01*
X164560814Y-81730609D01*
X164429711Y-81818210D01*
X164429707Y-81818213D01*
X164318213Y-81929707D01*
X164318210Y-81929711D01*
X164230609Y-82060814D01*
X164230602Y-82060827D01*
X164170264Y-82206498D01*
X164170261Y-82206510D01*
X164139500Y-82361153D01*
X162423400Y-82361153D01*
X162379185Y-82331609D01*
X162379172Y-82331602D01*
X162233501Y-82271264D01*
X162233489Y-82271261D01*
X162078845Y-82240500D01*
X162078842Y-82240500D01*
X161921158Y-82240500D01*
X161921155Y-82240500D01*
X161766510Y-82271261D01*
X161766498Y-82271264D01*
X161620827Y-82331602D01*
X161620814Y-82331609D01*
X161489711Y-82419210D01*
X161489707Y-82419213D01*
X161378213Y-82530707D01*
X161378210Y-82530711D01*
X161290609Y-82661814D01*
X161290602Y-82661827D01*
X161230264Y-82807498D01*
X161230261Y-82807510D01*
X161199500Y-82962153D01*
X151300500Y-82962153D01*
X151300500Y-82921158D01*
X151300500Y-82921155D01*
X151300499Y-82921153D01*
X151280215Y-82819179D01*
X151269737Y-82766503D01*
X151268600Y-82763757D01*
X151209397Y-82620827D01*
X151209390Y-82620814D01*
X151121789Y-82489711D01*
X151121786Y-82489707D01*
X151010292Y-82378213D01*
X151010288Y-82378210D01*
X150879185Y-82290609D01*
X150879172Y-82290602D01*
X150733501Y-82230264D01*
X150733489Y-82230261D01*
X150578845Y-82199500D01*
X150578842Y-82199500D01*
X150421158Y-82199500D01*
X150421155Y-82199500D01*
X150266510Y-82230261D01*
X150266498Y-82230264D01*
X150120827Y-82290602D01*
X150120814Y-82290609D01*
X149989711Y-82378210D01*
X149989707Y-82378213D01*
X149878213Y-82489707D01*
X149878210Y-82489711D01*
X149790609Y-82620814D01*
X149790602Y-82620827D01*
X149730264Y-82766498D01*
X149730261Y-82766510D01*
X149699500Y-82921153D01*
X129980242Y-82921153D01*
X129979933Y-82920408D01*
X129959397Y-82870827D01*
X129959390Y-82870814D01*
X129871789Y-82739711D01*
X129871786Y-82739707D01*
X129760292Y-82628213D01*
X129760288Y-82628210D01*
X129629185Y-82540609D01*
X129629172Y-82540602D01*
X129483501Y-82480264D01*
X129483489Y-82480261D01*
X129328845Y-82449500D01*
X129328842Y-82449500D01*
X129171158Y-82449500D01*
X129171155Y-82449500D01*
X129016510Y-82480261D01*
X129016498Y-82480264D01*
X128870827Y-82540602D01*
X128870814Y-82540609D01*
X128739711Y-82628210D01*
X128739707Y-82628213D01*
X128628213Y-82739707D01*
X128628210Y-82739711D01*
X128540609Y-82870814D01*
X128540602Y-82870827D01*
X128480264Y-83016498D01*
X128480261Y-83016510D01*
X128449500Y-83171153D01*
X126931348Y-83171153D01*
X126959394Y-83129179D01*
X126963261Y-83119844D01*
X126964185Y-83117613D01*
X126964185Y-83117612D01*
X127019737Y-82983497D01*
X127050500Y-82828842D01*
X127050500Y-82671158D01*
X127050500Y-82671155D01*
X127050499Y-82671153D01*
X127024531Y-82540606D01*
X127019737Y-82516503D01*
X127019735Y-82516498D01*
X126959397Y-82370827D01*
X126959390Y-82370814D01*
X126871789Y-82239711D01*
X126871786Y-82239707D01*
X126760292Y-82128213D01*
X126760288Y-82128210D01*
X126629185Y-82040609D01*
X126629172Y-82040602D01*
X126483501Y-81980264D01*
X126483489Y-81980261D01*
X126328845Y-81949500D01*
X126328842Y-81949500D01*
X126171158Y-81949500D01*
X126171155Y-81949500D01*
X126016510Y-81980261D01*
X126016498Y-81980264D01*
X125870827Y-82040602D01*
X125870814Y-82040609D01*
X125739711Y-82128210D01*
X125739707Y-82128213D01*
X125628213Y-82239707D01*
X125628210Y-82239711D01*
X125540609Y-82370814D01*
X125540602Y-82370827D01*
X125480264Y-82516498D01*
X125480261Y-82516510D01*
X125449500Y-82671153D01*
X117500500Y-82671153D01*
X117500500Y-80971153D01*
X118749500Y-80971153D01*
X118749500Y-81128846D01*
X118780261Y-81283489D01*
X118780264Y-81283501D01*
X118840602Y-81429172D01*
X118840609Y-81429185D01*
X118928210Y-81560288D01*
X118928213Y-81560292D01*
X119039707Y-81671786D01*
X119039711Y-81671789D01*
X119170814Y-81759390D01*
X119170827Y-81759397D01*
X119305820Y-81815312D01*
X119316503Y-81819737D01*
X119471153Y-81850499D01*
X119471156Y-81850500D01*
X119471158Y-81850500D01*
X119628844Y-81850500D01*
X119628845Y-81850499D01*
X119783497Y-81819737D01*
X119929179Y-81759394D01*
X120060289Y-81671789D01*
X120171789Y-81560289D01*
X120259394Y-81429179D01*
X120262719Y-81421153D01*
X133699500Y-81421153D01*
X133699500Y-81578846D01*
X133730261Y-81733489D01*
X133730264Y-81733501D01*
X133790602Y-81879172D01*
X133790609Y-81879185D01*
X133878210Y-82010288D01*
X133878213Y-82010292D01*
X133989707Y-82121786D01*
X133989711Y-82121789D01*
X134120814Y-82209390D01*
X134120827Y-82209397D01*
X134266498Y-82269735D01*
X134266503Y-82269737D01*
X134421153Y-82300499D01*
X134421156Y-82300500D01*
X134421158Y-82300500D01*
X134578844Y-82300500D01*
X134578845Y-82300499D01*
X134733497Y-82269737D01*
X134879179Y-82209394D01*
X135010289Y-82121789D01*
X135121789Y-82010289D01*
X135209394Y-81879179D01*
X135269737Y-81733497D01*
X135300500Y-81578842D01*
X135300500Y-81421158D01*
X135300500Y-81421155D01*
X135300499Y-81421153D01*
X135273117Y-81283497D01*
X135269737Y-81266503D01*
X135246080Y-81209390D01*
X135209397Y-81120827D01*
X135209390Y-81120814D01*
X135121789Y-80989711D01*
X135121786Y-80989707D01*
X135010292Y-80878213D01*
X135010288Y-80878210D01*
X134879185Y-80790609D01*
X134879173Y-80790602D01*
X134852674Y-80779627D01*
X134733501Y-80730264D01*
X134733489Y-80730261D01*
X134578845Y-80699500D01*
X134578842Y-80699500D01*
X134421158Y-80699500D01*
X134421155Y-80699500D01*
X134266510Y-80730261D01*
X134266498Y-80730264D01*
X134120827Y-80790602D01*
X134120814Y-80790609D01*
X133989711Y-80878210D01*
X133989707Y-80878213D01*
X133878213Y-80989707D01*
X133878210Y-80989711D01*
X133790609Y-81120814D01*
X133790602Y-81120827D01*
X133730264Y-81266498D01*
X133730261Y-81266510D01*
X133699500Y-81421153D01*
X120262719Y-81421153D01*
X120273067Y-81396166D01*
X120319737Y-81283497D01*
X120350500Y-81128842D01*
X120350500Y-80971158D01*
X120350500Y-80971155D01*
X120350499Y-80971153D01*
X120332204Y-80879179D01*
X120319737Y-80816503D01*
X120319735Y-80816498D01*
X120259397Y-80670827D01*
X120259390Y-80670814D01*
X120171789Y-80539711D01*
X120171786Y-80539707D01*
X120060292Y-80428213D01*
X120060288Y-80428210D01*
X119929185Y-80340609D01*
X119929172Y-80340602D01*
X119783501Y-80280264D01*
X119783489Y-80280261D01*
X119628845Y-80249500D01*
X119628842Y-80249500D01*
X119471158Y-80249500D01*
X119471155Y-80249500D01*
X119316510Y-80280261D01*
X119316498Y-80280264D01*
X119170827Y-80340602D01*
X119170814Y-80340609D01*
X119039711Y-80428210D01*
X119039707Y-80428213D01*
X118928213Y-80539707D01*
X118928210Y-80539711D01*
X118840609Y-80670814D01*
X118840602Y-80670827D01*
X118780264Y-80816498D01*
X118780261Y-80816510D01*
X118749500Y-80971153D01*
X117500500Y-80971153D01*
X117500500Y-79171153D01*
X128199500Y-79171153D01*
X128199500Y-79328846D01*
X128230261Y-79483489D01*
X128230264Y-79483501D01*
X128290602Y-79629172D01*
X128290609Y-79629185D01*
X128378210Y-79760288D01*
X128378213Y-79760292D01*
X128405240Y-79787319D01*
X128438725Y-79848642D01*
X128433741Y-79918334D01*
X128405240Y-79962681D01*
X128378213Y-79989707D01*
X128378210Y-79989711D01*
X128290609Y-80120814D01*
X128290602Y-80120827D01*
X128230264Y-80266498D01*
X128230261Y-80266510D01*
X128199500Y-80421153D01*
X128199500Y-80578846D01*
X128230261Y-80733489D01*
X128230264Y-80733501D01*
X128290602Y-80879172D01*
X128290609Y-80879185D01*
X128378210Y-81010288D01*
X128378213Y-81010292D01*
X128489707Y-81121786D01*
X128489711Y-81121789D01*
X128620814Y-81209390D01*
X128620827Y-81209397D01*
X128758683Y-81266498D01*
X128766503Y-81269737D01*
X128921153Y-81300499D01*
X128921156Y-81300500D01*
X128921158Y-81300500D01*
X129078844Y-81300500D01*
X129078845Y-81300499D01*
X129089179Y-81298443D01*
X129114287Y-81293450D01*
X129114292Y-81293449D01*
X129199800Y-81276439D01*
X129233497Y-81269737D01*
X129379179Y-81209394D01*
X129510289Y-81121789D01*
X129621789Y-81010289D01*
X129709394Y-80879179D01*
X129769737Y-80733497D01*
X129782138Y-80671153D01*
X146449500Y-80671153D01*
X146449500Y-80828846D01*
X146480261Y-80983489D01*
X146480264Y-80983501D01*
X146540602Y-81129172D01*
X146540609Y-81129185D01*
X146628210Y-81260288D01*
X146628213Y-81260292D01*
X146739707Y-81371786D01*
X146739711Y-81371789D01*
X146870814Y-81459390D01*
X146870827Y-81459397D01*
X147016498Y-81519735D01*
X147016503Y-81519737D01*
X147171153Y-81550499D01*
X147171156Y-81550500D01*
X147171158Y-81550500D01*
X147328844Y-81550500D01*
X147328845Y-81550499D01*
X147483497Y-81519737D01*
X147629179Y-81459394D01*
X147760289Y-81371789D01*
X147871789Y-81260289D01*
X147959394Y-81129179D01*
X147962854Y-81120827D01*
X147973067Y-81096166D01*
X148019737Y-80983497D01*
X148050500Y-80828842D01*
X148050500Y-80671158D01*
X148050500Y-80671155D01*
X148050499Y-80671153D01*
X148024353Y-80539711D01*
X148019737Y-80516503D01*
X147985445Y-80433713D01*
X147959397Y-80370827D01*
X147959390Y-80370814D01*
X147871789Y-80239711D01*
X147871786Y-80239707D01*
X147760292Y-80128213D01*
X147760288Y-80128210D01*
X147629185Y-80040609D01*
X147629172Y-80040602D01*
X147483501Y-79980264D01*
X147483489Y-79980261D01*
X147328845Y-79949500D01*
X147328842Y-79949500D01*
X147171158Y-79949500D01*
X147171155Y-79949500D01*
X147016510Y-79980261D01*
X147016498Y-79980264D01*
X146870827Y-80040602D01*
X146870814Y-80040609D01*
X146739711Y-80128210D01*
X146739707Y-80128213D01*
X146628213Y-80239707D01*
X146628210Y-80239711D01*
X146540609Y-80370814D01*
X146540602Y-80370827D01*
X146480264Y-80516498D01*
X146480261Y-80516510D01*
X146449500Y-80671153D01*
X129782138Y-80671153D01*
X129800500Y-80578842D01*
X129800500Y-80421158D01*
X129800500Y-80421155D01*
X129800499Y-80421153D01*
X129790486Y-80370814D01*
X129769737Y-80266503D01*
X129762694Y-80249500D01*
X129709397Y-80120827D01*
X129709390Y-80120814D01*
X129621789Y-79989711D01*
X129621786Y-79989707D01*
X129594760Y-79962681D01*
X129561275Y-79901358D01*
X129566259Y-79831666D01*
X129594760Y-79787319D01*
X129621786Y-79760292D01*
X129621789Y-79760289D01*
X129709394Y-79629179D01*
X129769737Y-79483497D01*
X129800500Y-79328842D01*
X129800500Y-79171158D01*
X129800500Y-79171155D01*
X129800499Y-79171153D01*
X129797296Y-79155050D01*
X129769737Y-79016503D01*
X129713110Y-78879792D01*
X129709397Y-78870827D01*
X129709390Y-78870814D01*
X129621789Y-78739711D01*
X129621786Y-78739707D01*
X129510292Y-78628213D01*
X129510288Y-78628210D01*
X129379185Y-78540609D01*
X129379173Y-78540602D01*
X129352674Y-78529627D01*
X129233501Y-78480264D01*
X129233489Y-78480261D01*
X129078845Y-78449500D01*
X129078842Y-78449500D01*
X128921158Y-78449500D01*
X128921155Y-78449500D01*
X128766510Y-78480261D01*
X128766498Y-78480264D01*
X128620827Y-78540602D01*
X128620814Y-78540609D01*
X128489711Y-78628210D01*
X128489707Y-78628213D01*
X128378213Y-78739707D01*
X128378210Y-78739711D01*
X128290609Y-78870814D01*
X128290602Y-78870827D01*
X128230264Y-79016498D01*
X128230261Y-79016510D01*
X128199500Y-79171153D01*
X117500500Y-79171153D01*
X117500500Y-77421153D01*
X124199500Y-77421153D01*
X124199500Y-77578846D01*
X124230261Y-77733489D01*
X124230264Y-77733501D01*
X124290602Y-77879172D01*
X124290609Y-77879185D01*
X124378210Y-78010288D01*
X124378213Y-78010292D01*
X124489707Y-78121786D01*
X124489711Y-78121789D01*
X124620814Y-78209390D01*
X124620827Y-78209397D01*
X124726185Y-78253037D01*
X124766503Y-78269737D01*
X124921153Y-78300499D01*
X124921156Y-78300500D01*
X124921158Y-78300500D01*
X125078844Y-78300500D01*
X125078845Y-78300499D01*
X125233497Y-78269737D01*
X125379179Y-78209394D01*
X125510289Y-78121789D01*
X125510293Y-78121784D01*
X125514999Y-78117924D01*
X125516337Y-78119554D01*
X125569243Y-78090648D01*
X125638936Y-78095615D01*
X125694880Y-78137472D01*
X125717249Y-78187616D01*
X125730261Y-78253031D01*
X125730264Y-78253041D01*
X125790602Y-78398712D01*
X125790609Y-78398725D01*
X125878210Y-78529828D01*
X125878213Y-78529832D01*
X125989707Y-78641326D01*
X125989711Y-78641329D01*
X126120814Y-78728930D01*
X126120827Y-78728937D01*
X126266498Y-78789275D01*
X126266503Y-78789277D01*
X126421153Y-78820039D01*
X126421156Y-78820040D01*
X126421158Y-78820040D01*
X126578844Y-78820040D01*
X126578845Y-78820039D01*
X126733497Y-78789277D01*
X126853161Y-78739711D01*
X126879172Y-78728937D01*
X126879172Y-78728936D01*
X126879179Y-78728934D01*
X127010289Y-78641329D01*
X127121789Y-78529829D01*
X127194404Y-78421153D01*
X138699500Y-78421153D01*
X138699500Y-78578846D01*
X138730261Y-78733489D01*
X138730264Y-78733501D01*
X138790602Y-78879172D01*
X138790609Y-78879185D01*
X138878210Y-79010288D01*
X138878213Y-79010292D01*
X138989707Y-79121786D01*
X138989711Y-79121789D01*
X139120814Y-79209390D01*
X139120827Y-79209397D01*
X139222612Y-79251557D01*
X139266503Y-79269737D01*
X139421153Y-79300499D01*
X139421156Y-79300500D01*
X139421158Y-79300500D01*
X139578844Y-79300500D01*
X139578845Y-79300499D01*
X139733497Y-79269737D01*
X139879179Y-79209394D01*
X140010289Y-79121789D01*
X140121789Y-79010289D01*
X140209394Y-78879179D01*
X140212854Y-78870827D01*
X140267163Y-78739711D01*
X140269737Y-78733497D01*
X140300500Y-78578842D01*
X140300500Y-78421158D01*
X140300500Y-78421155D01*
X140300499Y-78421153D01*
X144699500Y-78421153D01*
X144699500Y-78578846D01*
X144730261Y-78733489D01*
X144730264Y-78733501D01*
X144790602Y-78879172D01*
X144790609Y-78879185D01*
X144878210Y-79010288D01*
X144878213Y-79010292D01*
X144989707Y-79121786D01*
X144989711Y-79121789D01*
X145120814Y-79209390D01*
X145120827Y-79209397D01*
X145222612Y-79251557D01*
X145266503Y-79269737D01*
X145421153Y-79300499D01*
X145421156Y-79300500D01*
X145421158Y-79300500D01*
X145578844Y-79300500D01*
X145578845Y-79300499D01*
X145733497Y-79269737D01*
X145879179Y-79209394D01*
X146010289Y-79121789D01*
X146121789Y-79010289D01*
X146209394Y-78879179D01*
X146212854Y-78870827D01*
X146267163Y-78739711D01*
X146269737Y-78733497D01*
X146300500Y-78578842D01*
X146300500Y-78421158D01*
X146300500Y-78421155D01*
X146300499Y-78421153D01*
X150199500Y-78421153D01*
X150199500Y-78578846D01*
X150230261Y-78733489D01*
X150230264Y-78733501D01*
X150290602Y-78879172D01*
X150290609Y-78879185D01*
X150378210Y-79010288D01*
X150378213Y-79010292D01*
X150489707Y-79121786D01*
X150489711Y-79121789D01*
X150620814Y-79209390D01*
X150620827Y-79209397D01*
X150722612Y-79251557D01*
X150766503Y-79269737D01*
X150921153Y-79300499D01*
X150921156Y-79300500D01*
X150921158Y-79300500D01*
X151078844Y-79300500D01*
X151078845Y-79300499D01*
X151233497Y-79269737D01*
X151379179Y-79209394D01*
X151510289Y-79121789D01*
X151621789Y-79010289D01*
X151709394Y-78879179D01*
X151712854Y-78870827D01*
X151767163Y-78739711D01*
X151769737Y-78733497D01*
X151800500Y-78578842D01*
X151800500Y-78421158D01*
X151800500Y-78421155D01*
X151800499Y-78421153D01*
X151769738Y-78266510D01*
X151769737Y-78266503D01*
X151709794Y-78121786D01*
X151709397Y-78120827D01*
X151709390Y-78120814D01*
X151621789Y-77989711D01*
X151621786Y-77989707D01*
X151510292Y-77878213D01*
X151510288Y-77878210D01*
X151379185Y-77790609D01*
X151379172Y-77790602D01*
X151233501Y-77730264D01*
X151233489Y-77730261D01*
X151078845Y-77699500D01*
X151078842Y-77699500D01*
X150921158Y-77699500D01*
X150921155Y-77699500D01*
X150766510Y-77730261D01*
X150766498Y-77730264D01*
X150620827Y-77790602D01*
X150620814Y-77790609D01*
X150489711Y-77878210D01*
X150489707Y-77878213D01*
X150378213Y-77989707D01*
X150378210Y-77989711D01*
X150290609Y-78120814D01*
X150290602Y-78120827D01*
X150230264Y-78266498D01*
X150230261Y-78266510D01*
X150199500Y-78421153D01*
X146300499Y-78421153D01*
X146269738Y-78266510D01*
X146269737Y-78266503D01*
X146209794Y-78121786D01*
X146209397Y-78120827D01*
X146209390Y-78120814D01*
X146121789Y-77989711D01*
X146121786Y-77989707D01*
X146010292Y-77878213D01*
X146010288Y-77878210D01*
X145879185Y-77790609D01*
X145879172Y-77790602D01*
X145733501Y-77730264D01*
X145733489Y-77730261D01*
X145578845Y-77699500D01*
X145578842Y-77699500D01*
X145421158Y-77699500D01*
X145421155Y-77699500D01*
X145266510Y-77730261D01*
X145266498Y-77730264D01*
X145120827Y-77790602D01*
X145120814Y-77790609D01*
X144989711Y-77878210D01*
X144989707Y-77878213D01*
X144878213Y-77989707D01*
X144878210Y-77989711D01*
X144790609Y-78120814D01*
X144790602Y-78120827D01*
X144730264Y-78266498D01*
X144730261Y-78266510D01*
X144699500Y-78421153D01*
X140300499Y-78421153D01*
X140269738Y-78266510D01*
X140269737Y-78266503D01*
X140209794Y-78121786D01*
X140209397Y-78120827D01*
X140209390Y-78120814D01*
X140121789Y-77989711D01*
X140121786Y-77989707D01*
X140010292Y-77878213D01*
X140010288Y-77878210D01*
X139879185Y-77790609D01*
X139879172Y-77790602D01*
X139733501Y-77730264D01*
X139733489Y-77730261D01*
X139578845Y-77699500D01*
X139578842Y-77699500D01*
X139421158Y-77699500D01*
X139421155Y-77699500D01*
X139266510Y-77730261D01*
X139266498Y-77730264D01*
X139120827Y-77790602D01*
X139120814Y-77790609D01*
X138989711Y-77878210D01*
X138989707Y-77878213D01*
X138878213Y-77989707D01*
X138878210Y-77989711D01*
X138790609Y-78120814D01*
X138790602Y-78120827D01*
X138730264Y-78266498D01*
X138730261Y-78266510D01*
X138699500Y-78421153D01*
X127194404Y-78421153D01*
X127209394Y-78398719D01*
X127269737Y-78253037D01*
X127300500Y-78098382D01*
X127300500Y-77940698D01*
X127300500Y-77940695D01*
X127300499Y-77940693D01*
X127288263Y-77879179D01*
X127269737Y-77786043D01*
X127246633Y-77730264D01*
X127209397Y-77640367D01*
X127209390Y-77640354D01*
X127121789Y-77509251D01*
X127121786Y-77509247D01*
X127010292Y-77397753D01*
X127010288Y-77397750D01*
X126879185Y-77310149D01*
X126879172Y-77310142D01*
X126733501Y-77249804D01*
X126733489Y-77249801D01*
X126578845Y-77219040D01*
X126578842Y-77219040D01*
X126421158Y-77219040D01*
X126421155Y-77219040D01*
X126266510Y-77249801D01*
X126266498Y-77249804D01*
X126120827Y-77310142D01*
X126120814Y-77310149D01*
X125989711Y-77397750D01*
X125985001Y-77401616D01*
X125983669Y-77399994D01*
X125930694Y-77428904D01*
X125861004Y-77423902D01*
X125805081Y-77382016D01*
X125782750Y-77331922D01*
X125769738Y-77266510D01*
X125769737Y-77266503D01*
X125762819Y-77249801D01*
X125709397Y-77120827D01*
X125709390Y-77120814D01*
X125621789Y-76989711D01*
X125621786Y-76989707D01*
X125510292Y-76878213D01*
X125510288Y-76878210D01*
X125379185Y-76790609D01*
X125379172Y-76790602D01*
X125233501Y-76730264D01*
X125233489Y-76730261D01*
X125078845Y-76699500D01*
X125078842Y-76699500D01*
X124921158Y-76699500D01*
X124921155Y-76699500D01*
X124766510Y-76730261D01*
X124766498Y-76730264D01*
X124620827Y-76790602D01*
X124620814Y-76790609D01*
X124489711Y-76878210D01*
X124489707Y-76878213D01*
X124378213Y-76989707D01*
X124378210Y-76989711D01*
X124290609Y-77120814D01*
X124290602Y-77120827D01*
X124230264Y-77266498D01*
X124230261Y-77266510D01*
X124199500Y-77421153D01*
X117500500Y-77421153D01*
X117500500Y-75421153D01*
X155699500Y-75421153D01*
X155699500Y-75578846D01*
X155730261Y-75733489D01*
X155730264Y-75733501D01*
X155790602Y-75879172D01*
X155790609Y-75879185D01*
X155878210Y-76010288D01*
X155878213Y-76010292D01*
X155989707Y-76121786D01*
X155989711Y-76121789D01*
X156120814Y-76209390D01*
X156120827Y-76209397D01*
X156266498Y-76269735D01*
X156266503Y-76269737D01*
X156421153Y-76300499D01*
X156421156Y-76300500D01*
X156421158Y-76300500D01*
X156578844Y-76300500D01*
X156578845Y-76300499D01*
X156733497Y-76269737D01*
X156879179Y-76209394D01*
X157010289Y-76121789D01*
X157121789Y-76010289D01*
X157209394Y-75879179D01*
X157269737Y-75733497D01*
X157300500Y-75578842D01*
X157300500Y-75421158D01*
X157300500Y-75421155D01*
X157300499Y-75421153D01*
X157290928Y-75373032D01*
X157287085Y-75353713D01*
X186149500Y-75353713D01*
X186149500Y-75566286D01*
X186182753Y-75776239D01*
X186248444Y-75978414D01*
X186344951Y-76167820D01*
X186469890Y-76339786D01*
X186620213Y-76490109D01*
X186792182Y-76615050D01*
X186800946Y-76619516D01*
X186851742Y-76667491D01*
X186868536Y-76735312D01*
X186845998Y-76801447D01*
X186800946Y-76840484D01*
X186792182Y-76844949D01*
X186620213Y-76969890D01*
X186469890Y-77120213D01*
X186344951Y-77292179D01*
X186248444Y-77481585D01*
X186182753Y-77683760D01*
X186149500Y-77893713D01*
X186149500Y-78106286D01*
X186180260Y-78300500D01*
X186182754Y-78316243D01*
X186216841Y-78421153D01*
X186248444Y-78518414D01*
X186344951Y-78707820D01*
X186469890Y-78879786D01*
X186620213Y-79030109D01*
X186792182Y-79155050D01*
X186800946Y-79159516D01*
X186851742Y-79207491D01*
X186868536Y-79275312D01*
X186845998Y-79341447D01*
X186800946Y-79380484D01*
X186792182Y-79384949D01*
X186620213Y-79509890D01*
X186469890Y-79660213D01*
X186344951Y-79832179D01*
X186248444Y-80021585D01*
X186182753Y-80223760D01*
X186150372Y-80428210D01*
X186149500Y-80433713D01*
X186149500Y-80646287D01*
X186153439Y-80671155D01*
X186178414Y-80828846D01*
X186182754Y-80856243D01*
X186232806Y-81010288D01*
X186248444Y-81058414D01*
X186344951Y-81247820D01*
X186469890Y-81419786D01*
X186620213Y-81570109D01*
X186792182Y-81695050D01*
X186800946Y-81699516D01*
X186851742Y-81747491D01*
X186868536Y-81815312D01*
X186845998Y-81881447D01*
X186800946Y-81920484D01*
X186792182Y-81924949D01*
X186620213Y-82049890D01*
X186469890Y-82200213D01*
X186344951Y-82372179D01*
X186248444Y-82561585D01*
X186182753Y-82763760D01*
X186149500Y-82973713D01*
X186149500Y-83186286D01*
X186180050Y-83379174D01*
X186182754Y-83396243D01*
X186238851Y-83568892D01*
X186248444Y-83598414D01*
X186344951Y-83787820D01*
X186469890Y-83959786D01*
X186620213Y-84110109D01*
X186792182Y-84235050D01*
X186800946Y-84239516D01*
X186851742Y-84287491D01*
X186868536Y-84355312D01*
X186845998Y-84421447D01*
X186800946Y-84460484D01*
X186792182Y-84464949D01*
X186620213Y-84589890D01*
X186469890Y-84740213D01*
X186344951Y-84912179D01*
X186248444Y-85101585D01*
X186182753Y-85303760D01*
X186149500Y-85513713D01*
X186149500Y-85726286D01*
X186182753Y-85936239D01*
X186248444Y-86138414D01*
X186344951Y-86327820D01*
X186469890Y-86499786D01*
X186620213Y-86650109D01*
X186792179Y-86775048D01*
X186792181Y-86775049D01*
X186792184Y-86775051D01*
X186981588Y-86871557D01*
X187183757Y-86937246D01*
X187393713Y-86970500D01*
X187393714Y-86970500D01*
X187606286Y-86970500D01*
X187606287Y-86970500D01*
X187816243Y-86937246D01*
X188018412Y-86871557D01*
X188207816Y-86775051D01*
X188229789Y-86759086D01*
X188379786Y-86650109D01*
X188379788Y-86650106D01*
X188379792Y-86650104D01*
X188530104Y-86499792D01*
X188530106Y-86499788D01*
X188530109Y-86499786D01*
X188655048Y-86327820D01*
X188655047Y-86327820D01*
X188655051Y-86327816D01*
X188751557Y-86138412D01*
X188817246Y-85936243D01*
X188850500Y-85726287D01*
X188850500Y-85513713D01*
X188817246Y-85303757D01*
X188751557Y-85101588D01*
X188655051Y-84912184D01*
X188655049Y-84912181D01*
X188655048Y-84912179D01*
X188530109Y-84740213D01*
X188379786Y-84589890D01*
X188207820Y-84464951D01*
X188207115Y-84464591D01*
X188199054Y-84460485D01*
X188148259Y-84412512D01*
X188131463Y-84344692D01*
X188153999Y-84278556D01*
X188199054Y-84239515D01*
X188207816Y-84235051D01*
X188256748Y-84199500D01*
X188379786Y-84110109D01*
X188379788Y-84110106D01*
X188379792Y-84110104D01*
X188530104Y-83959792D01*
X188530106Y-83959788D01*
X188530109Y-83959786D01*
X188655048Y-83787820D01*
X188655047Y-83787820D01*
X188655051Y-83787816D01*
X188751557Y-83598412D01*
X188817246Y-83396243D01*
X188850500Y-83186287D01*
X188850500Y-82973713D01*
X188817246Y-82763757D01*
X188751557Y-82561588D01*
X188655051Y-82372184D01*
X188655049Y-82372181D01*
X188655048Y-82372179D01*
X188530109Y-82200213D01*
X188379786Y-82049890D01*
X188207820Y-81924951D01*
X188207115Y-81924591D01*
X188199054Y-81920485D01*
X188148259Y-81872512D01*
X188131463Y-81804692D01*
X188153999Y-81738556D01*
X188199054Y-81699515D01*
X188207816Y-81695051D01*
X188367760Y-81578846D01*
X188379786Y-81570109D01*
X188379788Y-81570106D01*
X188379792Y-81570104D01*
X188530104Y-81419792D01*
X188530106Y-81419788D01*
X188530109Y-81419786D01*
X188655048Y-81247820D01*
X188655047Y-81247820D01*
X188655051Y-81247816D01*
X188751557Y-81058412D01*
X188817246Y-80856243D01*
X188850500Y-80646287D01*
X188850500Y-80433713D01*
X188817246Y-80223757D01*
X188751557Y-80021588D01*
X188655051Y-79832184D01*
X188655049Y-79832181D01*
X188655048Y-79832179D01*
X188530109Y-79660213D01*
X188379786Y-79509890D01*
X188207820Y-79384951D01*
X188207115Y-79384591D01*
X188199054Y-79380485D01*
X188148259Y-79332512D01*
X188131463Y-79264692D01*
X188153999Y-79198556D01*
X188199054Y-79159515D01*
X188207816Y-79155051D01*
X188253602Y-79121786D01*
X188379786Y-79030109D01*
X188379788Y-79030106D01*
X188379792Y-79030104D01*
X188530104Y-78879792D01*
X188530106Y-78879788D01*
X188530109Y-78879786D01*
X188655048Y-78707820D01*
X188655047Y-78707820D01*
X188655051Y-78707816D01*
X188751557Y-78518412D01*
X188817246Y-78316243D01*
X188850500Y-78106287D01*
X188850500Y-77893713D01*
X188817246Y-77683757D01*
X188751557Y-77481588D01*
X188655051Y-77292184D01*
X188655049Y-77292181D01*
X188655048Y-77292179D01*
X188530109Y-77120213D01*
X188379786Y-76969890D01*
X188207820Y-76844951D01*
X188207115Y-76844591D01*
X188199054Y-76840485D01*
X188148259Y-76792512D01*
X188131463Y-76724692D01*
X188153999Y-76658556D01*
X188199054Y-76619515D01*
X188207816Y-76615051D01*
X188229789Y-76599086D01*
X188379786Y-76490109D01*
X188379788Y-76490106D01*
X188379792Y-76490104D01*
X188530104Y-76339792D01*
X188530106Y-76339788D01*
X188530109Y-76339786D01*
X188655048Y-76167820D01*
X188655047Y-76167820D01*
X188655051Y-76167816D01*
X188751557Y-75978412D01*
X188817246Y-75776243D01*
X188850500Y-75566287D01*
X188850500Y-75353713D01*
X188817246Y-75143757D01*
X188751557Y-74941588D01*
X188655051Y-74752184D01*
X188655049Y-74752181D01*
X188655048Y-74752179D01*
X188530109Y-74580213D01*
X188416181Y-74466285D01*
X188382696Y-74404962D01*
X188387680Y-74335270D01*
X188429552Y-74279337D01*
X188460529Y-74262422D01*
X188592086Y-74213354D01*
X188592093Y-74213350D01*
X188707187Y-74127190D01*
X188707190Y-74127187D01*
X188793350Y-74012093D01*
X188793354Y-74012086D01*
X188843596Y-73877379D01*
X188843598Y-73877372D01*
X188849999Y-73817844D01*
X188850000Y-73817827D01*
X188850000Y-73170000D01*
X187933012Y-73170000D01*
X187965925Y-73112993D01*
X188000000Y-72985826D01*
X188000000Y-72854174D01*
X187965925Y-72727007D01*
X187933012Y-72670000D01*
X188850000Y-72670000D01*
X188850000Y-72022172D01*
X188849999Y-72022155D01*
X188843598Y-71962627D01*
X188843596Y-71962620D01*
X188793354Y-71827913D01*
X188793350Y-71827906D01*
X188707190Y-71712812D01*
X188707187Y-71712809D01*
X188592093Y-71626649D01*
X188592086Y-71626645D01*
X188457379Y-71576403D01*
X188457372Y-71576401D01*
X188397844Y-71570000D01*
X187750000Y-71570000D01*
X187750000Y-72486988D01*
X187692993Y-72454075D01*
X187565826Y-72420000D01*
X187434174Y-72420000D01*
X187307007Y-72454075D01*
X187250000Y-72486988D01*
X187250000Y-71570000D01*
X186602155Y-71570000D01*
X186542627Y-71576401D01*
X186542620Y-71576403D01*
X186407913Y-71626645D01*
X186407906Y-71626649D01*
X186292812Y-71712809D01*
X186292809Y-71712812D01*
X186206649Y-71827906D01*
X186206645Y-71827913D01*
X186156403Y-71962620D01*
X186156401Y-71962627D01*
X186150000Y-72022155D01*
X186150000Y-72670000D01*
X187066988Y-72670000D01*
X187034075Y-72727007D01*
X187000000Y-72854174D01*
X187000000Y-72985826D01*
X187034075Y-73112993D01*
X187066988Y-73170000D01*
X186150000Y-73170000D01*
X186150000Y-73817844D01*
X186156401Y-73877372D01*
X186156403Y-73877379D01*
X186206645Y-74012086D01*
X186206649Y-74012093D01*
X186292809Y-74127187D01*
X186292812Y-74127190D01*
X186407906Y-74213350D01*
X186407913Y-74213354D01*
X186539470Y-74262422D01*
X186595404Y-74304293D01*
X186619821Y-74369758D01*
X186604969Y-74438031D01*
X186583819Y-74466285D01*
X186469889Y-74580215D01*
X186344951Y-74752179D01*
X186248444Y-74941585D01*
X186182753Y-75143760D01*
X186149500Y-75353713D01*
X157287085Y-75353713D01*
X157269738Y-75266508D01*
X157269737Y-75266507D01*
X157269737Y-75266503D01*
X157263545Y-75251555D01*
X157209397Y-75120827D01*
X157209390Y-75120814D01*
X157121789Y-74989711D01*
X157121786Y-74989707D01*
X157010292Y-74878213D01*
X157010288Y-74878210D01*
X156879185Y-74790609D01*
X156879172Y-74790602D01*
X156733501Y-74730264D01*
X156733489Y-74730261D01*
X156578845Y-74699500D01*
X156578842Y-74699500D01*
X156421158Y-74699500D01*
X156421155Y-74699500D01*
X156266510Y-74730261D01*
X156266498Y-74730264D01*
X156120827Y-74790602D01*
X156120814Y-74790609D01*
X155989711Y-74878210D01*
X155989707Y-74878213D01*
X155878213Y-74989707D01*
X155878210Y-74989711D01*
X155790609Y-75120814D01*
X155790602Y-75120827D01*
X155730264Y-75266498D01*
X155730261Y-75266510D01*
X155699500Y-75421153D01*
X117500500Y-75421153D01*
X117500500Y-74835577D01*
X117520185Y-74768538D01*
X117572989Y-74722783D01*
X117642147Y-74712839D01*
X117705703Y-74741864D01*
X117724816Y-74762689D01*
X117777772Y-74835577D01*
X117809896Y-74879792D01*
X117960213Y-75030109D01*
X118132179Y-75155048D01*
X118132181Y-75155049D01*
X118132184Y-75155051D01*
X118321588Y-75251557D01*
X118523757Y-75317246D01*
X118733713Y-75350500D01*
X118733714Y-75350500D01*
X118946286Y-75350500D01*
X118946287Y-75350500D01*
X119156243Y-75317246D01*
X119358412Y-75251557D01*
X119547816Y-75155051D01*
X119594940Y-75120814D01*
X119719786Y-75030109D01*
X119719788Y-75030106D01*
X119719792Y-75030104D01*
X119870104Y-74879792D01*
X119870106Y-74879788D01*
X119870109Y-74879786D01*
X119995048Y-74707820D01*
X119995047Y-74707820D01*
X119995051Y-74707816D01*
X119999514Y-74699054D01*
X120047488Y-74648259D01*
X120115308Y-74631463D01*
X120181444Y-74653999D01*
X120220486Y-74699056D01*
X120224951Y-74707820D01*
X120349890Y-74879786D01*
X120500213Y-75030109D01*
X120672179Y-75155048D01*
X120672181Y-75155049D01*
X120672184Y-75155051D01*
X120861588Y-75251557D01*
X121063757Y-75317246D01*
X121273713Y-75350500D01*
X121273714Y-75350500D01*
X121486286Y-75350500D01*
X121486287Y-75350500D01*
X121696243Y-75317246D01*
X121898412Y-75251557D01*
X122087816Y-75155051D01*
X122134940Y-75120814D01*
X122259786Y-75030109D01*
X122259788Y-75030106D01*
X122259792Y-75030104D01*
X122410104Y-74879792D01*
X122410106Y-74879788D01*
X122410109Y-74879786D01*
X122535048Y-74707820D01*
X122535047Y-74707820D01*
X122535051Y-74707816D01*
X122539514Y-74699054D01*
X122587488Y-74648259D01*
X122655308Y-74631463D01*
X122721444Y-74653999D01*
X122760486Y-74699056D01*
X122764951Y-74707820D01*
X122889890Y-74879786D01*
X123040213Y-75030109D01*
X123212179Y-75155048D01*
X123212181Y-75155049D01*
X123212184Y-75155051D01*
X123401588Y-75251557D01*
X123603757Y-75317246D01*
X123813713Y-75350500D01*
X123813714Y-75350500D01*
X124026286Y-75350500D01*
X124026287Y-75350500D01*
X124236243Y-75317246D01*
X124438412Y-75251557D01*
X124627816Y-75155051D01*
X124674940Y-75120814D01*
X124799786Y-75030109D01*
X124799788Y-75030106D01*
X124799792Y-75030104D01*
X124950104Y-74879792D01*
X124950106Y-74879788D01*
X124950109Y-74879786D01*
X125075048Y-74707820D01*
X125075047Y-74707820D01*
X125075051Y-74707816D01*
X125079514Y-74699054D01*
X125127488Y-74648259D01*
X125195308Y-74631463D01*
X125261444Y-74653999D01*
X125300486Y-74699056D01*
X125304951Y-74707820D01*
X125429890Y-74879786D01*
X125580213Y-75030109D01*
X125752179Y-75155048D01*
X125752181Y-75155049D01*
X125752184Y-75155051D01*
X125941588Y-75251557D01*
X126143757Y-75317246D01*
X126353713Y-75350500D01*
X126353714Y-75350500D01*
X126566286Y-75350500D01*
X126566287Y-75350500D01*
X126776243Y-75317246D01*
X126978412Y-75251557D01*
X127167816Y-75155051D01*
X127214940Y-75120814D01*
X127339786Y-75030109D01*
X127339788Y-75030106D01*
X127339792Y-75030104D01*
X127490104Y-74879792D01*
X127490106Y-74879788D01*
X127490109Y-74879786D01*
X127615048Y-74707820D01*
X127615047Y-74707820D01*
X127615051Y-74707816D01*
X127619514Y-74699054D01*
X127667488Y-74648259D01*
X127735308Y-74631463D01*
X127801444Y-74653999D01*
X127840486Y-74699056D01*
X127844951Y-74707820D01*
X127969890Y-74879786D01*
X128120213Y-75030109D01*
X128292179Y-75155048D01*
X128292181Y-75155049D01*
X128292184Y-75155051D01*
X128481588Y-75251557D01*
X128683757Y-75317246D01*
X128893713Y-75350500D01*
X128893714Y-75350500D01*
X129106286Y-75350500D01*
X129106287Y-75350500D01*
X129316243Y-75317246D01*
X129518412Y-75251557D01*
X129707816Y-75155051D01*
X129754940Y-75120814D01*
X129879786Y-75030109D01*
X129879788Y-75030106D01*
X129879792Y-75030104D01*
X130030104Y-74879792D01*
X130030106Y-74879788D01*
X130030109Y-74879786D01*
X130155048Y-74707820D01*
X130155047Y-74707820D01*
X130155051Y-74707816D01*
X130159514Y-74699054D01*
X130207488Y-74648259D01*
X130275308Y-74631463D01*
X130341444Y-74653999D01*
X130380486Y-74699056D01*
X130384951Y-74707820D01*
X130509890Y-74879786D01*
X130660213Y-75030109D01*
X130832179Y-75155048D01*
X130832181Y-75155049D01*
X130832184Y-75155051D01*
X131021588Y-75251557D01*
X131223757Y-75317246D01*
X131433713Y-75350500D01*
X131433714Y-75350500D01*
X131646286Y-75350500D01*
X131646287Y-75350500D01*
X131856243Y-75317246D01*
X132058412Y-75251557D01*
X132247816Y-75155051D01*
X132294940Y-75120814D01*
X132419786Y-75030109D01*
X132419788Y-75030106D01*
X132419792Y-75030104D01*
X132570104Y-74879792D01*
X132570106Y-74879788D01*
X132570109Y-74879786D01*
X132695048Y-74707820D01*
X132695047Y-74707820D01*
X132695051Y-74707816D01*
X132791557Y-74518412D01*
X132857246Y-74316243D01*
X132890500Y-74106287D01*
X132890500Y-73893713D01*
X132857246Y-73683757D01*
X132791557Y-73481588D01*
X132695051Y-73292184D01*
X132695049Y-73292181D01*
X132695048Y-73292179D01*
X132570109Y-73120213D01*
X132456181Y-73006285D01*
X132449351Y-72993778D01*
X132433685Y-72965087D01*
X132422696Y-72944962D01*
X132424399Y-72921153D01*
X134198500Y-72921153D01*
X134198500Y-73078846D01*
X134229261Y-73233489D01*
X134229264Y-73233501D01*
X134289602Y-73379172D01*
X134289609Y-73379185D01*
X134377210Y-73510288D01*
X134377213Y-73510292D01*
X134488707Y-73621786D01*
X134488711Y-73621789D01*
X134619814Y-73709390D01*
X134619827Y-73709397D01*
X134765498Y-73769735D01*
X134765503Y-73769737D01*
X134920153Y-73800499D01*
X134920156Y-73800500D01*
X134920158Y-73800500D01*
X135077844Y-73800500D01*
X135077845Y-73800499D01*
X135232497Y-73769737D01*
X135378179Y-73709394D01*
X135509289Y-73621789D01*
X135620789Y-73510289D01*
X135708394Y-73379179D01*
X135729293Y-73328723D01*
X135773133Y-73274321D01*
X135839427Y-73252255D01*
X135882171Y-73258244D01*
X136063757Y-73317246D01*
X136273713Y-73350500D01*
X136273714Y-73350500D01*
X136486286Y-73350500D01*
X136486287Y-73350500D01*
X136696243Y-73317246D01*
X136898412Y-73251557D01*
X137087816Y-73155051D01*
X137135764Y-73120215D01*
X137259786Y-73030109D01*
X137259788Y-73030106D01*
X137259792Y-73030104D01*
X137410104Y-72879792D01*
X137410106Y-72879788D01*
X137410109Y-72879786D01*
X137535048Y-72707820D01*
X137535047Y-72707820D01*
X137535051Y-72707816D01*
X137539514Y-72699054D01*
X137587488Y-72648259D01*
X137655308Y-72631463D01*
X137721444Y-72653999D01*
X137760486Y-72699056D01*
X137764951Y-72707820D01*
X137889890Y-72879786D01*
X138040213Y-73030109D01*
X138212179Y-73155048D01*
X138212181Y-73155049D01*
X138212184Y-73155051D01*
X138401588Y-73251557D01*
X138603757Y-73317246D01*
X138813713Y-73350500D01*
X138813714Y-73350500D01*
X139026286Y-73350500D01*
X139026287Y-73350500D01*
X139236243Y-73317246D01*
X139438412Y-73251557D01*
X139627816Y-73155051D01*
X139675764Y-73120215D01*
X139799786Y-73030109D01*
X139799788Y-73030106D01*
X139799792Y-73030104D01*
X139950104Y-72879792D01*
X139950106Y-72879788D01*
X139950109Y-72879786D01*
X140075048Y-72707820D01*
X140075047Y-72707820D01*
X140075051Y-72707816D01*
X140079514Y-72699054D01*
X140127488Y-72648259D01*
X140195308Y-72631463D01*
X140261444Y-72653999D01*
X140300486Y-72699056D01*
X140304951Y-72707820D01*
X140429890Y-72879786D01*
X140580213Y-73030109D01*
X140752179Y-73155048D01*
X140752181Y-73155049D01*
X140752184Y-73155051D01*
X140941588Y-73251557D01*
X141143757Y-73317246D01*
X141353713Y-73350500D01*
X141353714Y-73350500D01*
X141566286Y-73350500D01*
X141566287Y-73350500D01*
X141776243Y-73317246D01*
X141978412Y-73251557D01*
X142167816Y-73155051D01*
X142215764Y-73120215D01*
X142339786Y-73030109D01*
X142339788Y-73030106D01*
X142339792Y-73030104D01*
X142490104Y-72879792D01*
X142490106Y-72879788D01*
X142490109Y-72879786D01*
X142615048Y-72707820D01*
X142615047Y-72707820D01*
X142615051Y-72707816D01*
X142619514Y-72699054D01*
X142667488Y-72648259D01*
X142735308Y-72631463D01*
X142801444Y-72653999D01*
X142840486Y-72699056D01*
X142844951Y-72707820D01*
X142969890Y-72879786D01*
X143120213Y-73030109D01*
X143292179Y-73155048D01*
X143292181Y-73155049D01*
X143292184Y-73155051D01*
X143481588Y-73251557D01*
X143683757Y-73317246D01*
X143893713Y-73350500D01*
X143893714Y-73350500D01*
X144106286Y-73350500D01*
X144106287Y-73350500D01*
X144316243Y-73317246D01*
X144518412Y-73251557D01*
X144707816Y-73155051D01*
X144755764Y-73120215D01*
X144879786Y-73030109D01*
X144879788Y-73030106D01*
X144879792Y-73030104D01*
X145030104Y-72879792D01*
X145030106Y-72879788D01*
X145030109Y-72879786D01*
X145155048Y-72707820D01*
X145155047Y-72707820D01*
X145155051Y-72707816D01*
X145159514Y-72699054D01*
X145207488Y-72648259D01*
X145275308Y-72631463D01*
X145341444Y-72653999D01*
X145380486Y-72699056D01*
X145384951Y-72707820D01*
X145509890Y-72879786D01*
X145660213Y-73030109D01*
X145832179Y-73155048D01*
X145832181Y-73155049D01*
X145832184Y-73155051D01*
X146021588Y-73251557D01*
X146223757Y-73317246D01*
X146433713Y-73350500D01*
X146433714Y-73350500D01*
X146646286Y-73350500D01*
X146646287Y-73350500D01*
X146856243Y-73317246D01*
X147058412Y-73251557D01*
X147247816Y-73155051D01*
X147334478Y-73092088D01*
X147419784Y-73030110D01*
X147419784Y-73030109D01*
X147419792Y-73030104D01*
X147533717Y-72916178D01*
X147595036Y-72882696D01*
X147664728Y-72887680D01*
X147720662Y-72929551D01*
X147737577Y-72960528D01*
X147786646Y-73092088D01*
X147786649Y-73092093D01*
X147872809Y-73207187D01*
X147872812Y-73207190D01*
X147987906Y-73293350D01*
X147987913Y-73293354D01*
X148122620Y-73343596D01*
X148122627Y-73343598D01*
X148182155Y-73349999D01*
X148182172Y-73350000D01*
X148830000Y-73350000D01*
X148830000Y-72433012D01*
X148887007Y-72465925D01*
X149014174Y-72500000D01*
X149145826Y-72500000D01*
X149272993Y-72465925D01*
X149330000Y-72433012D01*
X149330000Y-73350000D01*
X149977828Y-73350000D01*
X149977844Y-73349999D01*
X150037372Y-73343598D01*
X150037379Y-73343596D01*
X150172086Y-73293354D01*
X150172093Y-73293350D01*
X150287187Y-73207190D01*
X150287190Y-73207187D01*
X150373350Y-73092093D01*
X150373354Y-73092086D01*
X150423596Y-72957379D01*
X150423598Y-72957372D01*
X150429999Y-72897844D01*
X150430000Y-72897827D01*
X150430000Y-72250000D01*
X149513012Y-72250000D01*
X149541214Y-72201153D01*
X165919500Y-72201153D01*
X165919500Y-72358846D01*
X165950261Y-72513489D01*
X165950264Y-72513501D01*
X166010602Y-72659172D01*
X166010609Y-72659185D01*
X166098210Y-72790288D01*
X166098213Y-72790292D01*
X166209707Y-72901786D01*
X166209711Y-72901789D01*
X166340814Y-72989390D01*
X166340827Y-72989397D01*
X166486498Y-73049735D01*
X166486503Y-73049737D01*
X166632823Y-73078842D01*
X166641153Y-73080499D01*
X166641156Y-73080500D01*
X166641158Y-73080500D01*
X166798844Y-73080500D01*
X166798845Y-73080499D01*
X166953497Y-73049737D01*
X167099179Y-72989394D01*
X167230289Y-72901789D01*
X167341789Y-72790289D01*
X167429394Y-72659179D01*
X167489737Y-72513497D01*
X167520500Y-72358842D01*
X167520500Y-72201158D01*
X167520500Y-72201155D01*
X167520499Y-72201153D01*
X178199500Y-72201153D01*
X178199500Y-72358846D01*
X178230261Y-72513489D01*
X178230264Y-72513501D01*
X178290602Y-72659172D01*
X178290609Y-72659185D01*
X178378210Y-72790288D01*
X178378213Y-72790292D01*
X178489707Y-72901786D01*
X178489711Y-72901789D01*
X178620814Y-72989390D01*
X178620827Y-72989397D01*
X178766498Y-73049735D01*
X178766503Y-73049737D01*
X178912823Y-73078842D01*
X178921153Y-73080499D01*
X178921156Y-73080500D01*
X178921158Y-73080500D01*
X179078844Y-73080500D01*
X179078845Y-73080499D01*
X179233497Y-73049737D01*
X179379179Y-72989394D01*
X179510289Y-72901789D01*
X179621789Y-72790289D01*
X179709394Y-72659179D01*
X179769737Y-72513497D01*
X179800500Y-72358842D01*
X179800500Y-72201158D01*
X179800500Y-72201155D01*
X179769738Y-72046507D01*
X179769735Y-72046498D01*
X179709397Y-71900827D01*
X179709390Y-71900814D01*
X179621789Y-71769711D01*
X179621786Y-71769707D01*
X179510292Y-71658213D01*
X179510288Y-71658210D01*
X179379185Y-71570609D01*
X179379172Y-71570602D01*
X179233501Y-71510264D01*
X179233489Y-71510261D01*
X179078845Y-71479500D01*
X179078842Y-71479500D01*
X178921158Y-71479500D01*
X178921155Y-71479500D01*
X178766510Y-71510261D01*
X178766498Y-71510264D01*
X178620827Y-71570602D01*
X178620814Y-71570609D01*
X178489711Y-71658210D01*
X178489707Y-71658213D01*
X178378213Y-71769707D01*
X178378210Y-71769711D01*
X178290609Y-71900814D01*
X178290602Y-71900827D01*
X178230264Y-72046498D01*
X178230261Y-72046510D01*
X178199500Y-72201153D01*
X167520499Y-72201153D01*
X167512125Y-72159056D01*
X167489737Y-72046503D01*
X167453907Y-71960000D01*
X167429397Y-71900827D01*
X167429390Y-71900814D01*
X167341789Y-71769711D01*
X167341786Y-71769707D01*
X167230292Y-71658213D01*
X167230288Y-71658210D01*
X167099185Y-71570609D01*
X167099172Y-71570602D01*
X166953501Y-71510264D01*
X166953489Y-71510261D01*
X166798845Y-71479500D01*
X166798842Y-71479500D01*
X166641158Y-71479500D01*
X166641155Y-71479500D01*
X166486510Y-71510261D01*
X166486498Y-71510264D01*
X166340827Y-71570602D01*
X166340814Y-71570609D01*
X166209711Y-71658210D01*
X166209707Y-71658213D01*
X166098213Y-71769707D01*
X166098210Y-71769711D01*
X166010609Y-71900814D01*
X166010602Y-71900827D01*
X165950264Y-72046498D01*
X165950261Y-72046510D01*
X165919500Y-72201153D01*
X149541214Y-72201153D01*
X149545925Y-72192993D01*
X149580000Y-72065826D01*
X149580000Y-71934174D01*
X149545925Y-71807007D01*
X149513012Y-71750000D01*
X150430000Y-71750000D01*
X150430000Y-71102172D01*
X150429999Y-71102155D01*
X150423598Y-71042627D01*
X150423596Y-71042620D01*
X150382860Y-70933399D01*
X150373353Y-70907911D01*
X150373350Y-70907906D01*
X150364552Y-70896153D01*
X155699500Y-70896153D01*
X155699500Y-71053846D01*
X155730261Y-71208489D01*
X155730264Y-71208501D01*
X155790602Y-71354172D01*
X155790609Y-71354185D01*
X155878210Y-71485288D01*
X155878213Y-71485292D01*
X155989707Y-71596786D01*
X155989711Y-71596789D01*
X156120814Y-71684390D01*
X156120827Y-71684397D01*
X156266498Y-71744735D01*
X156266503Y-71744737D01*
X156392035Y-71769707D01*
X156421153Y-71775499D01*
X156421156Y-71775500D01*
X156421158Y-71775500D01*
X156578844Y-71775500D01*
X156578845Y-71775499D01*
X156733497Y-71744737D01*
X156879179Y-71684394D01*
X157010289Y-71596789D01*
X157121789Y-71485289D01*
X157209394Y-71354179D01*
X157210404Y-71351742D01*
X157238354Y-71284262D01*
X157269737Y-71208497D01*
X157300500Y-71053842D01*
X157300500Y-70896158D01*
X157300500Y-70896155D01*
X157300499Y-70896153D01*
X157287049Y-70828536D01*
X157269737Y-70741503D01*
X157269103Y-70739973D01*
X157209397Y-70595827D01*
X157209390Y-70595814D01*
X157121789Y-70464711D01*
X157121786Y-70464707D01*
X157010292Y-70353213D01*
X157010288Y-70353210D01*
X156879185Y-70265609D01*
X156879172Y-70265602D01*
X156733501Y-70205264D01*
X156733489Y-70205261D01*
X156578845Y-70174500D01*
X156578842Y-70174500D01*
X156421158Y-70174500D01*
X156421155Y-70174500D01*
X156266510Y-70205261D01*
X156266498Y-70205264D01*
X156120827Y-70265602D01*
X156120814Y-70265609D01*
X155989711Y-70353210D01*
X155989707Y-70353213D01*
X155878213Y-70464707D01*
X155878210Y-70464711D01*
X155790609Y-70595814D01*
X155790602Y-70595827D01*
X155730264Y-70741498D01*
X155730261Y-70741510D01*
X155699500Y-70896153D01*
X150364552Y-70896153D01*
X150287190Y-70792812D01*
X150287187Y-70792809D01*
X150172093Y-70706649D01*
X150172086Y-70706645D01*
X150037379Y-70656403D01*
X150037372Y-70656401D01*
X149977844Y-70650000D01*
X149330000Y-70650000D01*
X149330000Y-71566988D01*
X149272993Y-71534075D01*
X149145826Y-71500000D01*
X149014174Y-71500000D01*
X148887007Y-71534075D01*
X148830000Y-71566988D01*
X148830000Y-70650000D01*
X148182155Y-70650000D01*
X148122627Y-70656401D01*
X148122620Y-70656403D01*
X147987913Y-70706645D01*
X147987906Y-70706649D01*
X147872812Y-70792809D01*
X147872809Y-70792812D01*
X147786649Y-70907906D01*
X147786646Y-70907912D01*
X147737577Y-71039471D01*
X147695705Y-71095404D01*
X147630241Y-71119821D01*
X147561968Y-71104969D01*
X147533714Y-71083818D01*
X147419786Y-70969890D01*
X147247820Y-70844951D01*
X147058414Y-70748444D01*
X147058413Y-70748443D01*
X147058412Y-70748443D01*
X146856243Y-70682754D01*
X146856241Y-70682753D01*
X146856240Y-70682753D01*
X146694957Y-70657208D01*
X146646287Y-70649500D01*
X146433713Y-70649500D01*
X146385042Y-70657208D01*
X146223760Y-70682753D01*
X146223757Y-70682754D01*
X146029255Y-70745952D01*
X146021585Y-70748444D01*
X145832179Y-70844951D01*
X145660213Y-70969890D01*
X145509890Y-71120213D01*
X145384949Y-71292182D01*
X145380484Y-71300946D01*
X145332509Y-71351742D01*
X145264688Y-71368536D01*
X145198553Y-71345998D01*
X145159516Y-71300946D01*
X145155050Y-71292182D01*
X145030109Y-71120213D01*
X144879786Y-70969890D01*
X144707820Y-70844951D01*
X144518414Y-70748444D01*
X144518413Y-70748443D01*
X144518412Y-70748443D01*
X144316243Y-70682754D01*
X144316241Y-70682753D01*
X144316240Y-70682753D01*
X144154957Y-70657208D01*
X144106287Y-70649500D01*
X143893713Y-70649500D01*
X143845042Y-70657208D01*
X143683760Y-70682753D01*
X143683757Y-70682754D01*
X143489255Y-70745952D01*
X143481585Y-70748444D01*
X143292179Y-70844951D01*
X143120213Y-70969890D01*
X142969890Y-71120213D01*
X142844949Y-71292182D01*
X142840484Y-71300946D01*
X142792509Y-71351742D01*
X142724688Y-71368536D01*
X142658553Y-71345998D01*
X142619516Y-71300946D01*
X142615050Y-71292182D01*
X142490109Y-71120213D01*
X142339786Y-70969890D01*
X142167820Y-70844951D01*
X141978414Y-70748444D01*
X141978413Y-70748443D01*
X141978412Y-70748443D01*
X141776243Y-70682754D01*
X141776241Y-70682753D01*
X141776240Y-70682753D01*
X141614957Y-70657208D01*
X141566287Y-70649500D01*
X141353713Y-70649500D01*
X141305042Y-70657208D01*
X141143760Y-70682753D01*
X141143757Y-70682754D01*
X140949255Y-70745952D01*
X140941585Y-70748444D01*
X140752179Y-70844951D01*
X140580213Y-70969890D01*
X140429890Y-71120213D01*
X140304949Y-71292182D01*
X140300484Y-71300946D01*
X140252509Y-71351742D01*
X140184688Y-71368536D01*
X140118553Y-71345998D01*
X140079516Y-71300946D01*
X140075050Y-71292182D01*
X139950109Y-71120213D01*
X139799786Y-70969890D01*
X139627820Y-70844951D01*
X139438414Y-70748444D01*
X139438413Y-70748443D01*
X139438412Y-70748443D01*
X139236243Y-70682754D01*
X139236241Y-70682753D01*
X139236240Y-70682753D01*
X139074957Y-70657208D01*
X139026287Y-70649500D01*
X138813713Y-70649500D01*
X138765042Y-70657208D01*
X138603760Y-70682753D01*
X138603757Y-70682754D01*
X138409255Y-70745952D01*
X138401585Y-70748444D01*
X138212179Y-70844951D01*
X138040213Y-70969890D01*
X137889890Y-71120213D01*
X137764949Y-71292182D01*
X137760484Y-71300946D01*
X137712509Y-71351742D01*
X137644688Y-71368536D01*
X137578553Y-71345998D01*
X137539516Y-71300946D01*
X137535050Y-71292182D01*
X137410109Y-71120213D01*
X137259786Y-70969890D01*
X137087820Y-70844951D01*
X136898414Y-70748444D01*
X136898413Y-70748443D01*
X136898412Y-70748443D01*
X136696243Y-70682754D01*
X136696241Y-70682753D01*
X136696240Y-70682753D01*
X136534957Y-70657208D01*
X136486287Y-70649500D01*
X136273713Y-70649500D01*
X136225042Y-70657208D01*
X136063760Y-70682753D01*
X136063757Y-70682754D01*
X135869255Y-70745952D01*
X135861585Y-70748444D01*
X135672179Y-70844951D01*
X135500213Y-70969890D01*
X135349890Y-71120213D01*
X135224951Y-71292179D01*
X135128444Y-71481585D01*
X135128443Y-71481587D01*
X135128443Y-71481588D01*
X135099716Y-71570000D01*
X135062753Y-71683760D01*
X135029500Y-71893713D01*
X135029500Y-72076343D01*
X135009815Y-72143382D01*
X134957011Y-72189137D01*
X134925971Y-72197505D01*
X134926132Y-72198311D01*
X134765510Y-72230261D01*
X134765498Y-72230264D01*
X134619827Y-72290602D01*
X134619814Y-72290609D01*
X134488711Y-72378210D01*
X134488707Y-72378213D01*
X134377213Y-72489707D01*
X134377210Y-72489711D01*
X134289609Y-72620814D01*
X134289602Y-72620827D01*
X134229264Y-72766498D01*
X134229261Y-72766510D01*
X134198500Y-72921153D01*
X132424399Y-72921153D01*
X132427680Y-72875270D01*
X132440657Y-72857935D01*
X132469552Y-72819336D01*
X132500529Y-72802422D01*
X132510015Y-72798884D01*
X132632086Y-72753354D01*
X132632093Y-72753350D01*
X132747187Y-72667190D01*
X132747190Y-72667187D01*
X132833350Y-72552093D01*
X132833354Y-72552086D01*
X132883596Y-72417379D01*
X132883598Y-72417372D01*
X132889999Y-72357844D01*
X132890000Y-72357827D01*
X132890000Y-71710000D01*
X131973012Y-71710000D01*
X132005925Y-71652993D01*
X132040000Y-71525826D01*
X132040000Y-71394174D01*
X132005925Y-71267007D01*
X131973012Y-71210000D01*
X132890000Y-71210000D01*
X132890000Y-70562172D01*
X132889999Y-70562155D01*
X132883598Y-70502627D01*
X132883596Y-70502620D01*
X132833354Y-70367913D01*
X132833350Y-70367906D01*
X132747190Y-70252812D01*
X132747187Y-70252809D01*
X132632093Y-70166649D01*
X132632086Y-70166645D01*
X132497379Y-70116403D01*
X132497372Y-70116401D01*
X132437844Y-70110000D01*
X131790000Y-70110000D01*
X131790000Y-71026988D01*
X131732993Y-70994075D01*
X131605826Y-70960000D01*
X131474174Y-70960000D01*
X131347007Y-70994075D01*
X131290000Y-71026988D01*
X131290000Y-70110000D01*
X130642155Y-70110000D01*
X130582627Y-70116401D01*
X130582620Y-70116403D01*
X130447913Y-70166645D01*
X130447906Y-70166649D01*
X130332812Y-70252809D01*
X130332809Y-70252812D01*
X130246649Y-70367906D01*
X130246646Y-70367912D01*
X130197577Y-70499471D01*
X130155705Y-70555404D01*
X130090241Y-70579821D01*
X130021968Y-70564969D01*
X129993714Y-70543818D01*
X129879786Y-70429890D01*
X129707820Y-70304951D01*
X129518414Y-70208444D01*
X129518413Y-70208443D01*
X129518412Y-70208443D01*
X129316243Y-70142754D01*
X129316241Y-70142753D01*
X129316240Y-70142753D01*
X129154957Y-70117208D01*
X129106287Y-70109500D01*
X128893713Y-70109500D01*
X128845042Y-70117208D01*
X128683760Y-70142753D01*
X128481585Y-70208444D01*
X128292179Y-70304951D01*
X128120213Y-70429890D01*
X127969890Y-70580213D01*
X127844949Y-70752182D01*
X127840484Y-70760946D01*
X127792509Y-70811742D01*
X127724688Y-70828536D01*
X127658553Y-70805998D01*
X127619516Y-70760946D01*
X127615050Y-70752182D01*
X127490109Y-70580213D01*
X127339786Y-70429890D01*
X127167820Y-70304951D01*
X126978414Y-70208444D01*
X126978413Y-70208443D01*
X126978412Y-70208443D01*
X126776243Y-70142754D01*
X126776241Y-70142753D01*
X126776240Y-70142753D01*
X126614957Y-70117208D01*
X126566287Y-70109500D01*
X126353713Y-70109500D01*
X126305042Y-70117208D01*
X126143760Y-70142753D01*
X125941585Y-70208444D01*
X125752179Y-70304951D01*
X125580213Y-70429890D01*
X125429890Y-70580213D01*
X125304949Y-70752182D01*
X125300484Y-70760946D01*
X125252509Y-70811742D01*
X125184688Y-70828536D01*
X125118553Y-70805998D01*
X125079516Y-70760946D01*
X125075050Y-70752182D01*
X124950109Y-70580213D01*
X124799786Y-70429890D01*
X124627820Y-70304951D01*
X124438414Y-70208444D01*
X124438413Y-70208443D01*
X124438412Y-70208443D01*
X124236243Y-70142754D01*
X124236241Y-70142753D01*
X124236240Y-70142753D01*
X124074957Y-70117208D01*
X124026287Y-70109500D01*
X123813713Y-70109500D01*
X123765042Y-70117208D01*
X123603760Y-70142753D01*
X123401585Y-70208444D01*
X123212179Y-70304951D01*
X123040213Y-70429890D01*
X122889890Y-70580213D01*
X122764949Y-70752182D01*
X122760484Y-70760946D01*
X122712509Y-70811742D01*
X122644688Y-70828536D01*
X122578553Y-70805998D01*
X122539516Y-70760946D01*
X122535050Y-70752182D01*
X122410109Y-70580213D01*
X122259786Y-70429890D01*
X122087820Y-70304951D01*
X121898414Y-70208444D01*
X121898413Y-70208443D01*
X121898412Y-70208443D01*
X121696243Y-70142754D01*
X121696241Y-70142753D01*
X121696240Y-70142753D01*
X121534957Y-70117208D01*
X121486287Y-70109500D01*
X121273713Y-70109500D01*
X121225042Y-70117208D01*
X121063760Y-70142753D01*
X120861585Y-70208444D01*
X120672179Y-70304951D01*
X120500213Y-70429890D01*
X120349890Y-70580213D01*
X120224949Y-70752182D01*
X120220484Y-70760946D01*
X120172509Y-70811742D01*
X120104688Y-70828536D01*
X120038553Y-70805998D01*
X119999516Y-70760946D01*
X119995050Y-70752182D01*
X119870109Y-70580213D01*
X119719786Y-70429890D01*
X119547820Y-70304951D01*
X119358414Y-70208444D01*
X119358413Y-70208443D01*
X119358412Y-70208443D01*
X119156243Y-70142754D01*
X119156241Y-70142753D01*
X119156240Y-70142753D01*
X118994957Y-70117208D01*
X118946287Y-70109500D01*
X118733713Y-70109500D01*
X118685042Y-70117208D01*
X118523760Y-70142753D01*
X118321585Y-70208444D01*
X118132179Y-70304951D01*
X117960213Y-70429890D01*
X117809894Y-70580209D01*
X117809890Y-70580214D01*
X117724818Y-70697307D01*
X117669488Y-70739973D01*
X117599875Y-70745952D01*
X117538080Y-70713347D01*
X117503723Y-70652508D01*
X117500500Y-70624422D01*
X117500500Y-69422153D01*
X132699500Y-69422153D01*
X132699500Y-69579846D01*
X132730261Y-69734489D01*
X132730264Y-69734501D01*
X132790602Y-69880172D01*
X132790609Y-69880185D01*
X132878210Y-70011288D01*
X132878213Y-70011292D01*
X132989707Y-70122786D01*
X132989711Y-70122789D01*
X133120814Y-70210390D01*
X133120827Y-70210397D01*
X133254123Y-70265609D01*
X133266503Y-70270737D01*
X133416126Y-70300499D01*
X133421153Y-70301499D01*
X133421156Y-70301500D01*
X133421158Y-70301500D01*
X133578844Y-70301500D01*
X133578845Y-70301499D01*
X133733497Y-70270737D01*
X133879179Y-70210394D01*
X134010289Y-70122789D01*
X134121789Y-70011289D01*
X134209394Y-69880179D01*
X134269737Y-69734497D01*
X134296210Y-69601410D01*
X134328595Y-69539499D01*
X134370376Y-69511039D01*
X134379179Y-69507394D01*
X134506751Y-69422153D01*
X136699500Y-69422153D01*
X136699500Y-69579846D01*
X136730261Y-69734489D01*
X136730264Y-69734501D01*
X136790602Y-69880172D01*
X136790609Y-69880185D01*
X136878210Y-70011288D01*
X136878213Y-70011292D01*
X136989707Y-70122786D01*
X136989711Y-70122789D01*
X137120814Y-70210390D01*
X137120827Y-70210397D01*
X137254123Y-70265609D01*
X137266503Y-70270737D01*
X137416126Y-70300499D01*
X137421153Y-70301499D01*
X137421156Y-70301500D01*
X137421158Y-70301500D01*
X137578844Y-70301500D01*
X137578845Y-70301499D01*
X137733497Y-70270737D01*
X137879179Y-70210394D01*
X138010289Y-70122789D01*
X138121789Y-70011289D01*
X138129865Y-69999202D01*
X138147232Y-69973212D01*
X138200844Y-69928406D01*
X138270169Y-69919699D01*
X138333196Y-69949853D01*
X138353436Y-69973211D01*
X138378210Y-70010289D01*
X138489707Y-70121786D01*
X138489711Y-70121789D01*
X138620814Y-70209390D01*
X138620827Y-70209397D01*
X138725642Y-70252812D01*
X138766503Y-70269737D01*
X138921153Y-70300499D01*
X138921156Y-70300500D01*
X138921158Y-70300500D01*
X139078844Y-70300500D01*
X139078845Y-70300499D01*
X139233497Y-70269737D01*
X139376765Y-70210394D01*
X139379172Y-70209397D01*
X139379172Y-70209396D01*
X139379179Y-70209394D01*
X139510289Y-70121789D01*
X139621789Y-70010289D01*
X139708726Y-69880179D01*
X139709390Y-69879185D01*
X139709390Y-69879184D01*
X139709394Y-69879179D01*
X139769737Y-69733497D01*
X139800500Y-69578842D01*
X139800500Y-69421158D01*
X139800500Y-69421155D01*
X139800499Y-69421153D01*
X139778049Y-69308289D01*
X139769737Y-69266503D01*
X139732738Y-69177179D01*
X139709397Y-69120827D01*
X139709390Y-69120814D01*
X139621789Y-68989711D01*
X139621786Y-68989707D01*
X139510292Y-68878213D01*
X139510288Y-68878210D01*
X139379185Y-68790609D01*
X139379172Y-68790602D01*
X139233501Y-68730264D01*
X139233489Y-68730261D01*
X139078845Y-68699500D01*
X139078842Y-68699500D01*
X138921158Y-68699500D01*
X138921155Y-68699500D01*
X138766510Y-68730261D01*
X138766498Y-68730264D01*
X138620827Y-68790602D01*
X138620814Y-68790609D01*
X138489711Y-68878210D01*
X138489707Y-68878213D01*
X138378211Y-68989709D01*
X138352766Y-69027790D01*
X138299152Y-69072594D01*
X138229827Y-69081300D01*
X138166800Y-69051144D01*
X138146562Y-69027787D01*
X138134872Y-69010292D01*
X138121789Y-68990711D01*
X138121787Y-68990708D01*
X138010292Y-68879213D01*
X138010288Y-68879210D01*
X137879185Y-68791609D01*
X137879172Y-68791602D01*
X137733501Y-68731264D01*
X137733489Y-68731261D01*
X137578845Y-68700500D01*
X137578842Y-68700500D01*
X137421158Y-68700500D01*
X137421155Y-68700500D01*
X137266510Y-68731261D01*
X137266498Y-68731264D01*
X137120827Y-68791602D01*
X137120814Y-68791609D01*
X136989711Y-68879210D01*
X136989707Y-68879213D01*
X136878213Y-68990707D01*
X136878210Y-68990711D01*
X136790609Y-69121814D01*
X136790602Y-69121827D01*
X136730264Y-69267498D01*
X136730261Y-69267510D01*
X136699500Y-69422153D01*
X134506751Y-69422153D01*
X134510289Y-69419789D01*
X134510292Y-69419786D01*
X134601694Y-69328385D01*
X134621786Y-69308292D01*
X134621789Y-69308289D01*
X134709394Y-69177179D01*
X134769737Y-69031497D01*
X134800500Y-68876842D01*
X134800500Y-68719158D01*
X134800500Y-68719155D01*
X134800499Y-68719153D01*
X134772590Y-68578846D01*
X134769737Y-68564503D01*
X134769735Y-68564498D01*
X134709397Y-68418827D01*
X134709390Y-68418814D01*
X134621789Y-68287711D01*
X134621786Y-68287707D01*
X134510292Y-68176213D01*
X134510288Y-68176210D01*
X134379185Y-68088609D01*
X134379172Y-68088602D01*
X134233501Y-68028264D01*
X134233489Y-68028261D01*
X134078845Y-67997500D01*
X134078842Y-67997500D01*
X133921158Y-67997500D01*
X133921155Y-67997500D01*
X133766510Y-68028261D01*
X133766498Y-68028264D01*
X133620827Y-68088602D01*
X133620814Y-68088609D01*
X133489711Y-68176210D01*
X133489707Y-68176213D01*
X133378213Y-68287707D01*
X133378210Y-68287711D01*
X133290609Y-68418814D01*
X133290602Y-68418827D01*
X133230264Y-68564498D01*
X133230261Y-68564508D01*
X133203789Y-68697589D01*
X133171404Y-68759500D01*
X133129632Y-68787955D01*
X133120828Y-68791602D01*
X133120814Y-68791609D01*
X132989711Y-68879210D01*
X132989707Y-68879213D01*
X132878213Y-68990707D01*
X132878210Y-68990711D01*
X132790609Y-69121814D01*
X132790602Y-69121827D01*
X132730264Y-69267498D01*
X132730261Y-69267510D01*
X132699500Y-69422153D01*
X117500500Y-69422153D01*
X117500500Y-66868872D01*
X117999500Y-66868872D01*
X117999500Y-67131127D01*
X118020436Y-67290140D01*
X118033730Y-67391116D01*
X118055178Y-67471161D01*
X118101602Y-67644418D01*
X118101605Y-67644428D01*
X118201953Y-67886690D01*
X118201958Y-67886700D01*
X118333075Y-68113803D01*
X118492718Y-68321851D01*
X118492726Y-68321860D01*
X118678140Y-68507274D01*
X118678148Y-68507281D01*
X118886196Y-68666924D01*
X119113299Y-68798041D01*
X119113309Y-68798046D01*
X119309264Y-68879213D01*
X119355581Y-68898398D01*
X119608884Y-68966270D01*
X119868880Y-69000500D01*
X119868887Y-69000500D01*
X120131113Y-69000500D01*
X120131120Y-69000500D01*
X120391116Y-68966270D01*
X120644419Y-68898398D01*
X120886697Y-68798043D01*
X121113803Y-68666924D01*
X121321851Y-68507282D01*
X121321855Y-68507277D01*
X121321860Y-68507274D01*
X121407981Y-68421153D01*
X124199500Y-68421153D01*
X124199500Y-68578846D01*
X124230261Y-68733489D01*
X124230264Y-68733501D01*
X124290602Y-68879172D01*
X124290609Y-68879185D01*
X124378210Y-69010288D01*
X124378213Y-69010292D01*
X124489707Y-69121786D01*
X124489711Y-69121789D01*
X124620814Y-69209390D01*
X124620827Y-69209397D01*
X124766498Y-69269735D01*
X124766503Y-69269737D01*
X124890733Y-69294448D01*
X124921153Y-69300499D01*
X124921156Y-69300500D01*
X124921158Y-69300500D01*
X125078844Y-69300500D01*
X125109264Y-69294449D01*
X125109264Y-69294448D01*
X125233497Y-69269737D01*
X125379179Y-69209394D01*
X125510289Y-69121789D01*
X125621789Y-69010289D01*
X125709394Y-68879179D01*
X125769737Y-68733497D01*
X125800500Y-68578842D01*
X125800500Y-68421158D01*
X125800500Y-68421155D01*
X125800499Y-68421153D01*
X125780746Y-68321851D01*
X125769737Y-68266503D01*
X125732337Y-68176210D01*
X125709397Y-68120827D01*
X125709390Y-68120814D01*
X125621789Y-67989711D01*
X125621786Y-67989707D01*
X125510292Y-67878213D01*
X125510288Y-67878210D01*
X125379185Y-67790609D01*
X125379172Y-67790602D01*
X125233501Y-67730264D01*
X125233489Y-67730261D01*
X125078845Y-67699500D01*
X125078842Y-67699500D01*
X124921158Y-67699500D01*
X124921155Y-67699500D01*
X124766510Y-67730261D01*
X124766498Y-67730264D01*
X124620827Y-67790602D01*
X124620814Y-67790609D01*
X124489711Y-67878210D01*
X124489707Y-67878213D01*
X124378213Y-67989707D01*
X124378210Y-67989711D01*
X124290609Y-68120814D01*
X124290602Y-68120827D01*
X124230264Y-68266498D01*
X124230261Y-68266510D01*
X124199500Y-68421153D01*
X121407981Y-68421153D01*
X121507274Y-68321860D01*
X121507277Y-68321855D01*
X121507282Y-68321851D01*
X121666924Y-68113803D01*
X121798043Y-67886697D01*
X121801559Y-67878210D01*
X121862841Y-67730261D01*
X121898398Y-67644419D01*
X121966270Y-67391116D01*
X122000500Y-67131120D01*
X122000500Y-66868880D01*
X122000499Y-66868872D01*
X184999500Y-66868872D01*
X184999500Y-67131127D01*
X185020436Y-67290140D01*
X185033730Y-67391116D01*
X185055178Y-67471161D01*
X185101602Y-67644418D01*
X185101605Y-67644428D01*
X185201953Y-67886690D01*
X185201958Y-67886700D01*
X185333075Y-68113803D01*
X185492718Y-68321851D01*
X185492726Y-68321860D01*
X185678140Y-68507274D01*
X185678148Y-68507281D01*
X185886196Y-68666924D01*
X186113299Y-68798041D01*
X186113309Y-68798046D01*
X186309264Y-68879213D01*
X186355581Y-68898398D01*
X186608884Y-68966270D01*
X186868880Y-69000500D01*
X186868887Y-69000500D01*
X187131113Y-69000500D01*
X187131120Y-69000500D01*
X187391116Y-68966270D01*
X187644419Y-68898398D01*
X187886697Y-68798043D01*
X188113803Y-68666924D01*
X188321851Y-68507282D01*
X188321855Y-68507277D01*
X188321860Y-68507274D01*
X188507274Y-68321860D01*
X188507277Y-68321855D01*
X188507282Y-68321851D01*
X188666924Y-68113803D01*
X188798043Y-67886697D01*
X188801559Y-67878210D01*
X188862841Y-67730261D01*
X188898398Y-67644419D01*
X188966270Y-67391116D01*
X189000500Y-67131120D01*
X189000500Y-66868880D01*
X188966270Y-66608884D01*
X188898398Y-66355581D01*
X188800204Y-66118520D01*
X188798046Y-66113309D01*
X188798041Y-66113299D01*
X188666924Y-65886196D01*
X188507281Y-65678148D01*
X188507274Y-65678140D01*
X188321860Y-65492726D01*
X188321851Y-65492718D01*
X188113803Y-65333075D01*
X187886700Y-65201958D01*
X187886690Y-65201953D01*
X187644428Y-65101605D01*
X187644421Y-65101603D01*
X187644419Y-65101602D01*
X187391116Y-65033730D01*
X187333339Y-65026123D01*
X187131127Y-64999500D01*
X187131120Y-64999500D01*
X186868880Y-64999500D01*
X186868872Y-64999500D01*
X186637772Y-65029926D01*
X186608884Y-65033730D01*
X186355581Y-65101602D01*
X186355571Y-65101605D01*
X186113309Y-65201953D01*
X186113299Y-65201958D01*
X185886196Y-65333075D01*
X185678148Y-65492718D01*
X185492718Y-65678148D01*
X185333075Y-65886196D01*
X185201958Y-66113299D01*
X185201953Y-66113309D01*
X185101605Y-66355571D01*
X185101602Y-66355581D01*
X185033730Y-66608885D01*
X184999500Y-66868872D01*
X122000499Y-66868872D01*
X121966270Y-66608884D01*
X121898398Y-66355581D01*
X121800204Y-66118520D01*
X121798046Y-66113309D01*
X121798041Y-66113299D01*
X121666924Y-65886196D01*
X121507281Y-65678148D01*
X121507274Y-65678140D01*
X121321860Y-65492726D01*
X121321851Y-65492718D01*
X121113803Y-65333075D01*
X120886700Y-65201958D01*
X120886690Y-65201953D01*
X120644428Y-65101605D01*
X120644421Y-65101603D01*
X120644419Y-65101602D01*
X120391116Y-65033730D01*
X120333339Y-65026123D01*
X120131127Y-64999500D01*
X120131120Y-64999500D01*
X119868880Y-64999500D01*
X119868872Y-64999500D01*
X119637772Y-65029926D01*
X119608884Y-65033730D01*
X119355581Y-65101602D01*
X119355571Y-65101605D01*
X119113309Y-65201953D01*
X119113299Y-65201958D01*
X118886196Y-65333075D01*
X118678148Y-65492718D01*
X118492718Y-65678148D01*
X118333075Y-65886196D01*
X118201958Y-66113299D01*
X118201953Y-66113309D01*
X118101605Y-66355571D01*
X118101602Y-66355581D01*
X118033730Y-66608885D01*
X117999500Y-66868872D01*
X117500500Y-66868872D01*
X117500500Y-64624500D01*
X117520185Y-64557461D01*
X117572989Y-64511706D01*
X117624500Y-64500500D01*
X189375500Y-64500500D01*
X189442539Y-64520185D01*
G37*
%TD.AperFunction*%
%TD*%
M02*
