%TF.GenerationSoftware,KiCad,Pcbnew,9.0.3*%
%TF.CreationDate,2025-07-12T13:39:52+12:00*%
%TF.ProjectId,RemiRAT,52656d69-5241-4542-9e6b-696361645f70,rev?*%
%TF.SameCoordinates,Original*%
%TF.FileFunction,Soldermask,Top*%
%TF.FilePolarity,Negative*%
%FSLAX46Y46*%
G04 Gerber Fmt 4.6, Leading zero omitted, Abs format (unit mm)*
G04 Created by KiCad (PCBNEW 9.0.3) date 2025-07-12 13:39:52*
%MOMM*%
%LPD*%
G01*
G04 APERTURE LIST*
G04 Aperture macros list*
%AMRoundRect*
0 Rectangle with rounded corners*
0 $1 Rounding radius*
0 $2 $3 $4 $5 $6 $7 $8 $9 X,Y pos of 4 corners*
0 Add a 4 corners polygon primitive as box body*
4,1,4,$2,$3,$4,$5,$6,$7,$8,$9,$2,$3,0*
0 Add four circle primitives for the rounded corners*
1,1,$1+$1,$2,$3*
1,1,$1+$1,$4,$5*
1,1,$1+$1,$6,$7*
1,1,$1+$1,$8,$9*
0 Add four rect primitives between the rounded corners*
20,1,$1+$1,$2,$3,$4,$5,0*
20,1,$1+$1,$4,$5,$6,$7,0*
20,1,$1+$1,$6,$7,$8,$9,0*
20,1,$1+$1,$8,$9,$2,$3,0*%
G04 Aperture macros list end*
%ADD10C,0.650000*%
%ADD11RoundRect,0.150000X-0.150000X-0.425000X0.150000X-0.425000X0.150000X0.425000X-0.150000X0.425000X0*%
%ADD12RoundRect,0.075000X-0.075000X-0.500000X0.075000X-0.500000X0.075000X0.500000X-0.075000X0.500000X0*%
%ADD13O,1.000000X2.100000*%
%ADD14O,1.000000X1.800000*%
%ADD15RoundRect,0.135000X-0.135000X-0.185000X0.135000X-0.185000X0.135000X0.185000X-0.135000X0.185000X0*%
%ADD16RoundRect,0.100000X0.130000X0.100000X-0.130000X0.100000X-0.130000X-0.100000X0.130000X-0.100000X0*%
%ADD17RoundRect,0.102000X-0.500000X0.775000X-0.500000X-0.775000X0.500000X-0.775000X0.500000X0.775000X0*%
%ADD18RoundRect,0.150000X0.512500X0.150000X-0.512500X0.150000X-0.512500X-0.150000X0.512500X-0.150000X0*%
%ADD19RoundRect,0.100000X-0.130000X-0.100000X0.130000X-0.100000X0.130000X0.100000X-0.130000X0.100000X0*%
%ADD20RoundRect,0.250000X-0.650000X0.325000X-0.650000X-0.325000X0.650000X-0.325000X0.650000X0.325000X0*%
%ADD21RoundRect,0.102000X-0.735000X-0.140000X0.735000X-0.140000X0.735000X0.140000X-0.735000X0.140000X0*%
%ADD22RoundRect,0.102000X-0.140000X-0.735000X0.140000X-0.735000X0.140000X0.735000X-0.140000X0.735000X0*%
%ADD23RoundRect,0.218750X-0.256250X0.218750X-0.256250X-0.218750X0.256250X-0.218750X0.256250X0.218750X0*%
%ADD24R,0.700000X1.200000*%
%ADD25R,1.000000X0.800000*%
%ADD26R,1.000000X1.200000*%
%ADD27R,1.000000X2.800000*%
%ADD28R,1.300000X1.900000*%
%ADD29RoundRect,0.375000X0.375000X-0.625000X0.375000X0.625000X-0.375000X0.625000X-0.375000X-0.625000X0*%
%ADD30RoundRect,0.500000X1.400000X-0.500000X1.400000X0.500000X-1.400000X0.500000X-1.400000X-0.500000X0*%
%ADD31RoundRect,0.140000X0.170000X-0.140000X0.170000X0.140000X-0.170000X0.140000X-0.170000X-0.140000X0*%
%ADD32RoundRect,0.140000X0.140000X0.170000X-0.140000X0.170000X-0.140000X-0.170000X0.140000X-0.170000X0*%
%ADD33RoundRect,0.218750X0.256250X-0.218750X0.256250X0.218750X-0.256250X0.218750X-0.256250X-0.218750X0*%
%ADD34RoundRect,0.102000X-0.600000X-0.900000X0.600000X-0.900000X0.600000X0.900000X-0.600000X0.900000X0*%
%ADD35R,1.700000X1.700000*%
%ADD36C,1.700000*%
%ADD37RoundRect,0.100000X0.100000X-0.130000X0.100000X0.130000X-0.100000X0.130000X-0.100000X-0.130000X0*%
%ADD38RoundRect,0.250000X-0.475000X0.250000X-0.475000X-0.250000X0.475000X-0.250000X0.475000X0.250000X0*%
%ADD39R,0.740000X2.400000*%
%ADD40RoundRect,0.102000X-1.220000X-0.565000X1.220000X-0.565000X1.220000X0.565000X-1.220000X0.565000X0*%
%ADD41R,1.498600X0.889000*%
%ADD42R,0.889000X1.498600*%
%ADD43R,0.889000X0.889000*%
%ADD44RoundRect,0.100000X-0.100000X0.130000X-0.100000X-0.130000X0.100000X-0.130000X0.100000X0.130000X0*%
%ADD45RoundRect,0.140000X-0.170000X0.140000X-0.170000X-0.140000X0.170000X-0.140000X0.170000X0.140000X0*%
%ADD46RoundRect,0.160000X-0.222500X-0.160000X0.222500X-0.160000X0.222500X0.160000X-0.222500X0.160000X0*%
%ADD47R,2.400000X0.740000*%
%ADD48RoundRect,0.102000X-0.775000X-0.500000X0.775000X-0.500000X0.775000X0.500000X-0.775000X0.500000X0*%
%ADD49RoundRect,0.160000X0.222500X0.160000X-0.222500X0.160000X-0.222500X-0.160000X0.222500X-0.160000X0*%
%ADD50RoundRect,0.135000X0.135000X0.185000X-0.135000X0.185000X-0.135000X-0.185000X0.135000X-0.185000X0*%
%ADD51R,1.000000X1.800000*%
%ADD52RoundRect,0.150000X0.150000X-0.512500X0.150000X0.512500X-0.150000X0.512500X-0.150000X-0.512500X0*%
G04 APERTURE END LIST*
D10*
%TO.C,J1*%
X125410000Y-114712500D03*
X131190000Y-114712500D03*
D11*
X125100000Y-113637500D03*
X125900000Y-113637500D03*
D12*
X127050000Y-113637500D03*
X128050000Y-113637500D03*
X128550000Y-113637500D03*
X129550000Y-113637500D03*
D11*
X130700000Y-113637500D03*
X131500000Y-113637500D03*
X131500000Y-113637500D03*
X130700000Y-113637500D03*
D12*
X130050000Y-113637500D03*
X129050000Y-113637500D03*
X127550000Y-113637500D03*
X126550000Y-113637500D03*
D11*
X125900000Y-113637500D03*
X125100000Y-113637500D03*
D13*
X123980000Y-114212500D03*
D14*
X123980000Y-118392500D03*
D13*
X132620000Y-114212500D03*
D14*
X132620000Y-118392500D03*
%TD*%
D15*
%TO.C,R11*%
X159990000Y-79500000D03*
X161010000Y-79500000D03*
%TD*%
D16*
%TO.C,C7*%
X136475000Y-103237500D03*
X135835000Y-103237500D03*
%TD*%
D17*
%TO.C,S3*%
X155600000Y-68375000D03*
X155600000Y-73625000D03*
X152400000Y-68375000D03*
X152400000Y-73625000D03*
%TD*%
D18*
%TO.C,Q2*%
X158637500Y-79400000D03*
X158637500Y-77500000D03*
X156362500Y-78450000D03*
%TD*%
D19*
%TO.C,R4*%
X130680000Y-105000000D03*
X131320000Y-105000000D03*
%TD*%
D15*
%TO.C,R5*%
X154490000Y-99000000D03*
X155510000Y-99000000D03*
%TD*%
D20*
%TO.C,C8*%
X158000000Y-71000000D03*
X158000000Y-73950000D03*
%TD*%
D21*
%TO.C,U1*%
X127580000Y-78750000D03*
X127580000Y-79250000D03*
X127580000Y-79750000D03*
X127580000Y-80250000D03*
X127580000Y-80750000D03*
X127580000Y-81250000D03*
X127580000Y-81750000D03*
X127580000Y-82250000D03*
X127580000Y-82750000D03*
X127580000Y-83250000D03*
X127580000Y-83750000D03*
X127580000Y-84250000D03*
X127580000Y-84750000D03*
X127580000Y-85250000D03*
X127580000Y-85750000D03*
X127580000Y-86250000D03*
X127580000Y-86750000D03*
X127580000Y-87250000D03*
X127580000Y-87750000D03*
X127580000Y-88250000D03*
X127580000Y-88750000D03*
X127580000Y-89250000D03*
X127580000Y-89750000D03*
X127580000Y-90250000D03*
X127580000Y-90750000D03*
X127580000Y-91250000D03*
X127580000Y-91750000D03*
X127580000Y-92250000D03*
X127580000Y-92750000D03*
X127580000Y-93250000D03*
X127580000Y-93750000D03*
X127580000Y-94250000D03*
X127580000Y-94750000D03*
X127580000Y-95250000D03*
X127580000Y-95750000D03*
X127580000Y-96250000D03*
D22*
X129500000Y-98170000D03*
X130000000Y-98170000D03*
X130500000Y-98170000D03*
X131000000Y-98170000D03*
X131500000Y-98170000D03*
X132000000Y-98170000D03*
X132500000Y-98170000D03*
X133000000Y-98170000D03*
X133500000Y-98170000D03*
X134000000Y-98170000D03*
X134500000Y-98170000D03*
X135000000Y-98170000D03*
X135500000Y-98170000D03*
X136000000Y-98170000D03*
X136500000Y-98170000D03*
X137000000Y-98170000D03*
X137500000Y-98170000D03*
X138000000Y-98170000D03*
X138500000Y-98170000D03*
X139000000Y-98170000D03*
X139500000Y-98170000D03*
X140000000Y-98170000D03*
X140500000Y-98170000D03*
X141000000Y-98170000D03*
X141500000Y-98170000D03*
X142000000Y-98170000D03*
X142500000Y-98170000D03*
X143000000Y-98170000D03*
X143500000Y-98170000D03*
X144000000Y-98170000D03*
X144500000Y-98170000D03*
X145000000Y-98170000D03*
X145500000Y-98170000D03*
X146000000Y-98170000D03*
X146500000Y-98170000D03*
X147000000Y-98170000D03*
D21*
X148920000Y-96250000D03*
X148920000Y-95750000D03*
X148920000Y-95250000D03*
X148920000Y-94750000D03*
X148920000Y-94250000D03*
X148920000Y-93750000D03*
X148920000Y-93250000D03*
X148920000Y-92750000D03*
X148920000Y-92250000D03*
X148920000Y-91750000D03*
X148920000Y-91250000D03*
X148920000Y-90750000D03*
X148920000Y-90250000D03*
X148920000Y-89750000D03*
X148920000Y-89250000D03*
X148920000Y-88750000D03*
X148920000Y-88250000D03*
X148920000Y-87750000D03*
X148920000Y-87250000D03*
X148920000Y-86750000D03*
X148920000Y-86250000D03*
X148920000Y-85750000D03*
X148920000Y-85250000D03*
X148920000Y-84750000D03*
X148920000Y-84250000D03*
X148920000Y-83750000D03*
X148920000Y-83250000D03*
X148920000Y-82750000D03*
X148920000Y-82250000D03*
X148920000Y-81750000D03*
X148920000Y-81250000D03*
X148920000Y-80750000D03*
X148920000Y-80250000D03*
X148920000Y-79750000D03*
X148920000Y-79250000D03*
X148920000Y-78750000D03*
D22*
X147000000Y-76830000D03*
X146500000Y-76830000D03*
X146000000Y-76830000D03*
X145500000Y-76830000D03*
X145000000Y-76830000D03*
X144500000Y-76830000D03*
X144000000Y-76830000D03*
X143500000Y-76830000D03*
X143000000Y-76830000D03*
X142500000Y-76830000D03*
X142000000Y-76830000D03*
X141500000Y-76830000D03*
X141000000Y-76830000D03*
X140500000Y-76830000D03*
X140000000Y-76830000D03*
X139500000Y-76830000D03*
X139000000Y-76830000D03*
X138500000Y-76830000D03*
X138000000Y-76830000D03*
X137500000Y-76830000D03*
X137000000Y-76830000D03*
X136500000Y-76830000D03*
X136000000Y-76830000D03*
X135500000Y-76830000D03*
X135000000Y-76830000D03*
X134500000Y-76830000D03*
X134000000Y-76830000D03*
X133500000Y-76830000D03*
X133000000Y-76830000D03*
X132500000Y-76830000D03*
X132000000Y-76830000D03*
X131500000Y-76830000D03*
X131000000Y-76830000D03*
X130500000Y-76830000D03*
X130000000Y-76830000D03*
X129500000Y-76830000D03*
%TD*%
D16*
%TO.C,C5*%
X121790000Y-94970000D03*
X121150000Y-94970000D03*
%TD*%
D23*
%TO.C,LD1*%
X154500000Y-82212500D03*
X154500000Y-83787500D03*
%TD*%
D24*
%TO.C,J4*%
X174275000Y-103775000D03*
X173175000Y-103775000D03*
X172075000Y-103775000D03*
X170975000Y-103775000D03*
X169875000Y-103775000D03*
X168775000Y-103775000D03*
X167675000Y-103775000D03*
X166575000Y-103775000D03*
X165625000Y-103775000D03*
D25*
X164675000Y-114275000D03*
D26*
X164675000Y-108075000D03*
D27*
X164675000Y-118425000D03*
D26*
X175825000Y-103775000D03*
D28*
X178175000Y-118875000D03*
%TD*%
D29*
%TO.C,VR1*%
X143700000Y-114650000D03*
X146000000Y-114650000D03*
X148300000Y-114650000D03*
D30*
X146000000Y-108350000D03*
%TD*%
D31*
%TO.C,C10*%
X125500000Y-94980000D03*
X125500000Y-94020000D03*
%TD*%
D32*
%TO.C,C3*%
X152980000Y-99000000D03*
X152020000Y-99000000D03*
%TD*%
D33*
%TO.C,LD2*%
X154500000Y-78287500D03*
X154500000Y-76712500D03*
%TD*%
D34*
%TO.C,Y1*%
X120800000Y-96500000D03*
X120800000Y-100500000D03*
X123200000Y-100500000D03*
X123200000Y-96500000D03*
%TD*%
D35*
%TO.C,J3*%
X187500000Y-72920000D03*
D36*
X187500000Y-75460000D03*
X187500000Y-78000000D03*
X187500000Y-80540000D03*
X187500000Y-83080000D03*
X187500000Y-85620000D03*
%TD*%
D35*
%TO.C,J9*%
X183225000Y-99690000D03*
D36*
X185765000Y-99690000D03*
X183225000Y-102230000D03*
X185765000Y-102230000D03*
X183225000Y-104770000D03*
X185765000Y-104770000D03*
X183225000Y-107310000D03*
X185765000Y-107310000D03*
%TD*%
D16*
%TO.C,R1*%
X123820000Y-110500000D03*
X123180000Y-110500000D03*
%TD*%
D35*
%TO.C,J7*%
X159000000Y-93580000D03*
D36*
X159000000Y-91040000D03*
X159000000Y-88500000D03*
X159000000Y-85960000D03*
%TD*%
D19*
%TO.C,R2*%
X131680000Y-110500000D03*
X132320000Y-110500000D03*
%TD*%
%TO.C,R10*%
X154180000Y-85000000D03*
X154820000Y-85000000D03*
%TD*%
D37*
%TO.C,R3*%
X127000000Y-101320000D03*
X127000000Y-100680000D03*
%TD*%
D15*
%TO.C,R9*%
X159990000Y-83000000D03*
X161010000Y-83000000D03*
%TD*%
D38*
%TO.C,C2*%
X140500000Y-114550000D03*
X140500000Y-116450000D03*
%TD*%
D39*
%TO.C,J2*%
X171000000Y-95900000D03*
X171000000Y-92000000D03*
X172270000Y-95900000D03*
X172270000Y-92000000D03*
X173540000Y-95900000D03*
X173540000Y-92000000D03*
X174810000Y-95900000D03*
X174810000Y-92000000D03*
X176080000Y-95900000D03*
X176080000Y-92000000D03*
%TD*%
D40*
%TO.C,S2*%
X152200000Y-103690000D03*
X152200000Y-106230000D03*
X152200000Y-108770000D03*
X152200000Y-111310000D03*
X160800000Y-111310000D03*
X160800000Y-108770000D03*
X160800000Y-106230000D03*
X160800000Y-103690000D03*
%TD*%
D41*
%TO.C,U2*%
X163250000Y-69745000D03*
X163250000Y-71015000D03*
X163250000Y-72285000D03*
X163250000Y-73555000D03*
X163250000Y-74825000D03*
X163250000Y-76095000D03*
X163250000Y-77365000D03*
X163250000Y-78635000D03*
X163250000Y-79905000D03*
X163250000Y-81175000D03*
X163250000Y-82445000D03*
X163250000Y-83715000D03*
X163250000Y-84985000D03*
X163250000Y-86255000D03*
D42*
X166285000Y-87350002D03*
X167555000Y-87350002D03*
X168825000Y-87350002D03*
X170095000Y-87350002D03*
X171365000Y-87350002D03*
X172635000Y-87350002D03*
X173905000Y-87350002D03*
X175175000Y-87350002D03*
X176445000Y-87350002D03*
X177715000Y-87350002D03*
D41*
X180750000Y-86255000D03*
X180750000Y-84985000D03*
X180750000Y-83715000D03*
X180750000Y-82445000D03*
X180750000Y-81175000D03*
X180750000Y-79905000D03*
X180750000Y-78635000D03*
X180750000Y-77365000D03*
X180750000Y-76095000D03*
X180750000Y-74825000D03*
X180750000Y-73555000D03*
X180750000Y-72285000D03*
X180750000Y-71015000D03*
X180750000Y-69745000D03*
D43*
X170495700Y-76931200D03*
X169095700Y-75531200D03*
X169095700Y-76931200D03*
X169095700Y-78331200D03*
X170495700Y-78331200D03*
X170495700Y-75531200D03*
X171895700Y-75531200D03*
X171895700Y-76931200D03*
X171895700Y-78331200D03*
%TD*%
D44*
%TO.C,C4*%
X124970000Y-100000000D03*
X124970000Y-100640000D03*
%TD*%
D19*
%TO.C,C6*%
X133835000Y-103237500D03*
X134475000Y-103237500D03*
%TD*%
D35*
%TO.C,J8*%
X131540000Y-71460000D03*
D36*
X131540000Y-74000000D03*
X129000000Y-71460000D03*
X129000000Y-74000000D03*
X126460000Y-71460000D03*
X126460000Y-74000000D03*
X123920000Y-71460000D03*
X123920000Y-74000000D03*
X121380000Y-71460000D03*
X121380000Y-74000000D03*
X118840000Y-71460000D03*
X118840000Y-74000000D03*
%TD*%
D45*
%TO.C,C1*%
X138000000Y-114520000D03*
X138000000Y-115480000D03*
%TD*%
D46*
%TO.C,F1*%
X134927500Y-110500000D03*
X136072500Y-110500000D03*
%TD*%
D47*
%TO.C,J5*%
X119550000Y-82960000D03*
X123450000Y-82960000D03*
X119550000Y-84230000D03*
X123450000Y-84230000D03*
X119550000Y-85500000D03*
X123450000Y-85500000D03*
X119550000Y-86770000D03*
X123450000Y-86770000D03*
X119550000Y-88040000D03*
X123450000Y-88040000D03*
%TD*%
D48*
%TO.C,S1*%
X153875000Y-115900000D03*
X159125000Y-115900000D03*
X153875000Y-119100000D03*
X159125000Y-119100000D03*
%TD*%
D49*
%TO.C,F2*%
X129072500Y-68500000D03*
X127927500Y-68500000D03*
%TD*%
D45*
%TO.C,C9*%
X160000000Y-70995000D03*
X160000000Y-71955000D03*
%TD*%
D50*
%TO.C,R8*%
X136010000Y-74500000D03*
X134990000Y-74500000D03*
%TD*%
D35*
%TO.C,J6*%
X149080000Y-72000000D03*
D36*
X146540000Y-72000000D03*
X144000000Y-72000000D03*
X141460000Y-72000000D03*
X138920000Y-72000000D03*
X136380000Y-72000000D03*
%TD*%
D16*
%TO.C,R12*%
X154820000Y-75500000D03*
X154180000Y-75500000D03*
%TD*%
D51*
%TO.C,Y2*%
X136500000Y-101737500D03*
X134000000Y-101737500D03*
%TD*%
D18*
%TO.C,Q1*%
X158637500Y-82900000D03*
X158637500Y-81000000D03*
X156362500Y-81950000D03*
%TD*%
D52*
%TO.C,U3*%
X127600000Y-110775000D03*
X128550000Y-110775000D03*
X129500000Y-110775000D03*
X129500000Y-108500000D03*
X128550000Y-108500000D03*
X127600000Y-108500000D03*
%TD*%
M02*
