%TF.GenerationSoftware,KiCad,Pcbnew,9.0.3*%
%TF.CreationDate,2025-07-12T13:39:52+12:00*%
%TF.ProjectId,RemiRAT,52656d69-5241-4542-9e6b-696361645f70,rev?*%
%TF.SameCoordinates,Original*%
%TF.FileFunction,Legend,Bot*%
%TF.FilePolarity,Positive*%
%FSLAX46Y46*%
G04 Gerber Fmt 4.6, Leading zero omitted, Abs format (unit mm)*
G04 Created by KiCad (PCBNEW 9.0.3) date 2025-07-12 13:39:52*
%MOMM*%
%LPD*%
G01*
G04 APERTURE LIST*
%ADD10C,0.100000*%
%ADD11C,0.200000*%
%ADD12C,0.300000*%
%ADD13C,0.500000*%
%ADD14C,0.250000*%
G04 APERTURE END LIST*
D10*
X134500000Y-99000000D02*
X117500000Y-99000000D01*
X117500000Y-69500000D01*
X121500000Y-69500000D01*
X121500000Y-68000000D01*
X134500000Y-68000000D01*
X134500000Y-99000000D01*
X179500000Y-71000000D02*
X189500000Y-71000000D01*
X189500000Y-87500000D01*
X179500000Y-87500000D01*
X179500000Y-71000000D01*
X178500000Y-91000000D02*
X184500000Y-91000000D01*
X184500000Y-108500000D01*
X178500000Y-108500000D01*
X178500000Y-91000000D01*
X134500000Y-65500000D02*
X160000000Y-65500000D01*
X160000000Y-75500000D01*
X134500000Y-75500000D01*
X134500000Y-65500000D01*
X184500000Y-91000000D02*
X189500000Y-91000000D01*
X189500000Y-108500000D01*
X184500000Y-108500000D01*
X184500000Y-91000000D01*
X150500000Y-84000000D02*
X161000000Y-84000000D01*
X161000000Y-95500000D01*
X150500000Y-95500000D01*
X150500000Y-84000000D01*
D11*
X130182500Y-69106517D02*
X130182500Y-69677945D01*
X130182500Y-69392231D02*
X131182500Y-69392231D01*
X131182500Y-69392231D02*
X131039643Y-69487469D01*
X131039643Y-69487469D02*
X130944405Y-69582707D01*
X130944405Y-69582707D02*
X130896786Y-69677945D01*
X129572556Y-69725564D02*
X129572556Y-69106517D01*
X129572556Y-69106517D02*
X129191604Y-69439850D01*
X129191604Y-69439850D02*
X129191604Y-69296993D01*
X129191604Y-69296993D02*
X129143985Y-69201755D01*
X129143985Y-69201755D02*
X129096366Y-69154136D01*
X129096366Y-69154136D02*
X129001128Y-69106517D01*
X129001128Y-69106517D02*
X128763033Y-69106517D01*
X128763033Y-69106517D02*
X128667795Y-69154136D01*
X128667795Y-69154136D02*
X128620176Y-69201755D01*
X128620176Y-69201755D02*
X128572556Y-69296993D01*
X128572556Y-69296993D02*
X128572556Y-69582707D01*
X128572556Y-69582707D02*
X128620176Y-69677945D01*
X128620176Y-69677945D02*
X128667795Y-69725564D01*
X127962612Y-69154136D02*
X127962612Y-69630326D01*
X127962612Y-69630326D02*
X127486422Y-69677945D01*
X127486422Y-69677945D02*
X127534041Y-69630326D01*
X127534041Y-69630326D02*
X127581660Y-69535088D01*
X127581660Y-69535088D02*
X127581660Y-69296993D01*
X127581660Y-69296993D02*
X127534041Y-69201755D01*
X127534041Y-69201755D02*
X127486422Y-69154136D01*
X127486422Y-69154136D02*
X127391184Y-69106517D01*
X127391184Y-69106517D02*
X127153089Y-69106517D01*
X127153089Y-69106517D02*
X127057851Y-69154136D01*
X127057851Y-69154136D02*
X127010232Y-69201755D01*
X127010232Y-69201755D02*
X126962612Y-69296993D01*
X126962612Y-69296993D02*
X126962612Y-69535088D01*
X126962612Y-69535088D02*
X127010232Y-69630326D01*
X127010232Y-69630326D02*
X127057851Y-69677945D01*
X126352668Y-69725564D02*
X126352668Y-69058898D01*
X126352668Y-69058898D02*
X125352668Y-69487469D01*
X123742724Y-69582707D02*
X123742724Y-69392231D01*
X123742724Y-69392231D02*
X123790344Y-69296993D01*
X123790344Y-69296993D02*
X123837963Y-69249374D01*
X123837963Y-69249374D02*
X123980820Y-69154136D01*
X123980820Y-69154136D02*
X124171296Y-69106517D01*
X124171296Y-69106517D02*
X124552248Y-69106517D01*
X124552248Y-69106517D02*
X124647486Y-69154136D01*
X124647486Y-69154136D02*
X124695105Y-69201755D01*
X124695105Y-69201755D02*
X124742724Y-69296993D01*
X124742724Y-69296993D02*
X124742724Y-69487469D01*
X124742724Y-69487469D02*
X124695105Y-69582707D01*
X124695105Y-69582707D02*
X124647486Y-69630326D01*
X124647486Y-69630326D02*
X124552248Y-69677945D01*
X124552248Y-69677945D02*
X124314153Y-69677945D01*
X124314153Y-69677945D02*
X124218915Y-69630326D01*
X124218915Y-69630326D02*
X124171296Y-69582707D01*
X124171296Y-69582707D02*
X124123677Y-69487469D01*
X124123677Y-69487469D02*
X124123677Y-69296993D01*
X124123677Y-69296993D02*
X124171296Y-69201755D01*
X124171296Y-69201755D02*
X124218915Y-69154136D01*
X124218915Y-69154136D02*
X124314153Y-69106517D01*
X122132780Y-69106517D02*
X122132780Y-69677945D01*
X122132780Y-69392231D02*
X123132780Y-69392231D01*
X123132780Y-69392231D02*
X122989923Y-69487469D01*
X122989923Y-69487469D02*
X122894685Y-69582707D01*
X122894685Y-69582707D02*
X122847066Y-69677945D01*
X122132780Y-68154136D02*
X122132780Y-68725564D01*
X122132780Y-68439850D02*
X123132780Y-68439850D01*
X123132780Y-68439850D02*
X122989923Y-68535088D01*
X122989923Y-68535088D02*
X122894685Y-68630326D01*
X122894685Y-68630326D02*
X122847066Y-68725564D01*
D12*
X145516917Y-83729400D02*
X145302632Y-83800828D01*
X145302632Y-83800828D02*
X144945489Y-83800828D01*
X144945489Y-83800828D02*
X144802632Y-83729400D01*
X144802632Y-83729400D02*
X144731203Y-83657971D01*
X144731203Y-83657971D02*
X144659774Y-83515114D01*
X144659774Y-83515114D02*
X144659774Y-83372257D01*
X144659774Y-83372257D02*
X144731203Y-83229400D01*
X144731203Y-83229400D02*
X144802632Y-83157971D01*
X144802632Y-83157971D02*
X144945489Y-83086542D01*
X144945489Y-83086542D02*
X145231203Y-83015114D01*
X145231203Y-83015114D02*
X145374060Y-82943685D01*
X145374060Y-82943685D02*
X145445489Y-82872257D01*
X145445489Y-82872257D02*
X145516917Y-82729400D01*
X145516917Y-82729400D02*
X145516917Y-82586542D01*
X145516917Y-82586542D02*
X145445489Y-82443685D01*
X145445489Y-82443685D02*
X145374060Y-82372257D01*
X145374060Y-82372257D02*
X145231203Y-82300828D01*
X145231203Y-82300828D02*
X144874060Y-82300828D01*
X144874060Y-82300828D02*
X144659774Y-82372257D01*
X144088346Y-83372257D02*
X143374061Y-83372257D01*
X144231203Y-83800828D02*
X143731203Y-82300828D01*
X143731203Y-82300828D02*
X143231203Y-83800828D01*
X142731204Y-83800828D02*
X142731204Y-82300828D01*
X142731204Y-82300828D02*
X142231204Y-83372257D01*
X142231204Y-83372257D02*
X141731204Y-82300828D01*
X141731204Y-82300828D02*
X141731204Y-83800828D01*
D10*
X156267544Y-87375920D02*
X156267544Y-88042587D01*
X156505639Y-86994968D02*
X156743734Y-87709253D01*
X156743734Y-87709253D02*
X156124687Y-87709253D01*
X155743734Y-87947348D02*
X155696115Y-87994968D01*
X155696115Y-87994968D02*
X155743734Y-88042587D01*
X155743734Y-88042587D02*
X155791353Y-87994968D01*
X155791353Y-87994968D02*
X155743734Y-87947348D01*
X155743734Y-87947348D02*
X155743734Y-88042587D01*
X155743734Y-87423539D02*
X155696115Y-87471158D01*
X155696115Y-87471158D02*
X155743734Y-87518777D01*
X155743734Y-87518777D02*
X155791353Y-87471158D01*
X155791353Y-87471158D02*
X155743734Y-87423539D01*
X155743734Y-87423539D02*
X155743734Y-87518777D01*
X155267544Y-88042587D02*
X155267544Y-87042587D01*
X155267544Y-87042587D02*
X154934211Y-87756872D01*
X154934211Y-87756872D02*
X154600878Y-87042587D01*
X154600878Y-87042587D02*
X154600878Y-88042587D01*
X153934211Y-87042587D02*
X153743735Y-87042587D01*
X153743735Y-87042587D02*
X153648497Y-87090206D01*
X153648497Y-87090206D02*
X153553259Y-87185444D01*
X153553259Y-87185444D02*
X153505640Y-87375920D01*
X153505640Y-87375920D02*
X153505640Y-87709253D01*
X153505640Y-87709253D02*
X153553259Y-87899729D01*
X153553259Y-87899729D02*
X153648497Y-87994968D01*
X153648497Y-87994968D02*
X153743735Y-88042587D01*
X153743735Y-88042587D02*
X153934211Y-88042587D01*
X153934211Y-88042587D02*
X154029449Y-87994968D01*
X154029449Y-87994968D02*
X154124687Y-87899729D01*
X154124687Y-87899729D02*
X154172306Y-87709253D01*
X154172306Y-87709253D02*
X154172306Y-87375920D01*
X154172306Y-87375920D02*
X154124687Y-87185444D01*
X154124687Y-87185444D02*
X154029449Y-87090206D01*
X154029449Y-87090206D02*
X153934211Y-87042587D01*
X153124687Y-87994968D02*
X152981830Y-88042587D01*
X152981830Y-88042587D02*
X152743735Y-88042587D01*
X152743735Y-88042587D02*
X152648497Y-87994968D01*
X152648497Y-87994968D02*
X152600878Y-87947348D01*
X152600878Y-87947348D02*
X152553259Y-87852110D01*
X152553259Y-87852110D02*
X152553259Y-87756872D01*
X152553259Y-87756872D02*
X152600878Y-87661634D01*
X152600878Y-87661634D02*
X152648497Y-87614015D01*
X152648497Y-87614015D02*
X152743735Y-87566396D01*
X152743735Y-87566396D02*
X152934211Y-87518777D01*
X152934211Y-87518777D02*
X153029449Y-87471158D01*
X153029449Y-87471158D02*
X153077068Y-87423539D01*
X153077068Y-87423539D02*
X153124687Y-87328301D01*
X153124687Y-87328301D02*
X153124687Y-87233063D01*
X153124687Y-87233063D02*
X153077068Y-87137825D01*
X153077068Y-87137825D02*
X153029449Y-87090206D01*
X153029449Y-87090206D02*
X152934211Y-87042587D01*
X152934211Y-87042587D02*
X152696116Y-87042587D01*
X152696116Y-87042587D02*
X152553259Y-87090206D01*
X152124687Y-88042587D02*
X152124687Y-87042587D01*
X156791353Y-88652531D02*
X156172306Y-88652531D01*
X156172306Y-88652531D02*
X156505639Y-89033483D01*
X156505639Y-89033483D02*
X156362782Y-89033483D01*
X156362782Y-89033483D02*
X156267544Y-89081102D01*
X156267544Y-89081102D02*
X156219925Y-89128721D01*
X156219925Y-89128721D02*
X156172306Y-89223959D01*
X156172306Y-89223959D02*
X156172306Y-89462054D01*
X156172306Y-89462054D02*
X156219925Y-89557292D01*
X156219925Y-89557292D02*
X156267544Y-89604912D01*
X156267544Y-89604912D02*
X156362782Y-89652531D01*
X156362782Y-89652531D02*
X156648496Y-89652531D01*
X156648496Y-89652531D02*
X156743734Y-89604912D01*
X156743734Y-89604912D02*
X156791353Y-89557292D01*
X155743734Y-89557292D02*
X155696115Y-89604912D01*
X155696115Y-89604912D02*
X155743734Y-89652531D01*
X155743734Y-89652531D02*
X155791353Y-89604912D01*
X155791353Y-89604912D02*
X155743734Y-89557292D01*
X155743734Y-89557292D02*
X155743734Y-89652531D01*
X155743734Y-89033483D02*
X155696115Y-89081102D01*
X155696115Y-89081102D02*
X155743734Y-89128721D01*
X155743734Y-89128721D02*
X155791353Y-89081102D01*
X155791353Y-89081102D02*
X155743734Y-89033483D01*
X155743734Y-89033483D02*
X155743734Y-89128721D01*
X155315163Y-89604912D02*
X155172306Y-89652531D01*
X155172306Y-89652531D02*
X154934211Y-89652531D01*
X154934211Y-89652531D02*
X154838973Y-89604912D01*
X154838973Y-89604912D02*
X154791354Y-89557292D01*
X154791354Y-89557292D02*
X154743735Y-89462054D01*
X154743735Y-89462054D02*
X154743735Y-89366816D01*
X154743735Y-89366816D02*
X154791354Y-89271578D01*
X154791354Y-89271578D02*
X154838973Y-89223959D01*
X154838973Y-89223959D02*
X154934211Y-89176340D01*
X154934211Y-89176340D02*
X155124687Y-89128721D01*
X155124687Y-89128721D02*
X155219925Y-89081102D01*
X155219925Y-89081102D02*
X155267544Y-89033483D01*
X155267544Y-89033483D02*
X155315163Y-88938245D01*
X155315163Y-88938245D02*
X155315163Y-88843007D01*
X155315163Y-88843007D02*
X155267544Y-88747769D01*
X155267544Y-88747769D02*
X155219925Y-88700150D01*
X155219925Y-88700150D02*
X155124687Y-88652531D01*
X155124687Y-88652531D02*
X154886592Y-88652531D01*
X154886592Y-88652531D02*
X154743735Y-88700150D01*
X153743735Y-89557292D02*
X153791354Y-89604912D01*
X153791354Y-89604912D02*
X153934211Y-89652531D01*
X153934211Y-89652531D02*
X154029449Y-89652531D01*
X154029449Y-89652531D02*
X154172306Y-89604912D01*
X154172306Y-89604912D02*
X154267544Y-89509673D01*
X154267544Y-89509673D02*
X154315163Y-89414435D01*
X154315163Y-89414435D02*
X154362782Y-89223959D01*
X154362782Y-89223959D02*
X154362782Y-89081102D01*
X154362782Y-89081102D02*
X154315163Y-88890626D01*
X154315163Y-88890626D02*
X154267544Y-88795388D01*
X154267544Y-88795388D02*
X154172306Y-88700150D01*
X154172306Y-88700150D02*
X154029449Y-88652531D01*
X154029449Y-88652531D02*
X153934211Y-88652531D01*
X153934211Y-88652531D02*
X153791354Y-88700150D01*
X153791354Y-88700150D02*
X153743735Y-88747769D01*
X153315163Y-89652531D02*
X153315163Y-88652531D01*
X152743735Y-89652531D02*
X153172306Y-89081102D01*
X152743735Y-88652531D02*
X153315163Y-89223959D01*
X156743734Y-90357713D02*
X156696115Y-90310094D01*
X156696115Y-90310094D02*
X156600877Y-90262475D01*
X156600877Y-90262475D02*
X156362782Y-90262475D01*
X156362782Y-90262475D02*
X156267544Y-90310094D01*
X156267544Y-90310094D02*
X156219925Y-90357713D01*
X156219925Y-90357713D02*
X156172306Y-90452951D01*
X156172306Y-90452951D02*
X156172306Y-90548189D01*
X156172306Y-90548189D02*
X156219925Y-90691046D01*
X156219925Y-90691046D02*
X156791353Y-91262475D01*
X156791353Y-91262475D02*
X156172306Y-91262475D01*
X155743734Y-91167236D02*
X155696115Y-91214856D01*
X155696115Y-91214856D02*
X155743734Y-91262475D01*
X155743734Y-91262475D02*
X155791353Y-91214856D01*
X155791353Y-91214856D02*
X155743734Y-91167236D01*
X155743734Y-91167236D02*
X155743734Y-91262475D01*
X155743734Y-90643427D02*
X155696115Y-90691046D01*
X155696115Y-90691046D02*
X155743734Y-90738665D01*
X155743734Y-90738665D02*
X155791353Y-90691046D01*
X155791353Y-90691046D02*
X155743734Y-90643427D01*
X155743734Y-90643427D02*
X155743734Y-90738665D01*
X155267544Y-91262475D02*
X155267544Y-90262475D01*
X155267544Y-90262475D02*
X154934211Y-90976760D01*
X154934211Y-90976760D02*
X154600878Y-90262475D01*
X154600878Y-90262475D02*
X154600878Y-91262475D01*
X154124687Y-91262475D02*
X154124687Y-90262475D01*
X153696116Y-91214856D02*
X153553259Y-91262475D01*
X153553259Y-91262475D02*
X153315164Y-91262475D01*
X153315164Y-91262475D02*
X153219926Y-91214856D01*
X153219926Y-91214856D02*
X153172307Y-91167236D01*
X153172307Y-91167236D02*
X153124688Y-91071998D01*
X153124688Y-91071998D02*
X153124688Y-90976760D01*
X153124688Y-90976760D02*
X153172307Y-90881522D01*
X153172307Y-90881522D02*
X153219926Y-90833903D01*
X153219926Y-90833903D02*
X153315164Y-90786284D01*
X153315164Y-90786284D02*
X153505640Y-90738665D01*
X153505640Y-90738665D02*
X153600878Y-90691046D01*
X153600878Y-90691046D02*
X153648497Y-90643427D01*
X153648497Y-90643427D02*
X153696116Y-90548189D01*
X153696116Y-90548189D02*
X153696116Y-90452951D01*
X153696116Y-90452951D02*
X153648497Y-90357713D01*
X153648497Y-90357713D02*
X153600878Y-90310094D01*
X153600878Y-90310094D02*
X153505640Y-90262475D01*
X153505640Y-90262475D02*
X153267545Y-90262475D01*
X153267545Y-90262475D02*
X153124688Y-90310094D01*
X152505640Y-90262475D02*
X152315164Y-90262475D01*
X152315164Y-90262475D02*
X152219926Y-90310094D01*
X152219926Y-90310094D02*
X152124688Y-90405332D01*
X152124688Y-90405332D02*
X152077069Y-90595808D01*
X152077069Y-90595808D02*
X152077069Y-90929141D01*
X152077069Y-90929141D02*
X152124688Y-91119617D01*
X152124688Y-91119617D02*
X152219926Y-91214856D01*
X152219926Y-91214856D02*
X152315164Y-91262475D01*
X152315164Y-91262475D02*
X152505640Y-91262475D01*
X152505640Y-91262475D02*
X152600878Y-91214856D01*
X152600878Y-91214856D02*
X152696116Y-91119617D01*
X152696116Y-91119617D02*
X152743735Y-90929141D01*
X152743735Y-90929141D02*
X152743735Y-90595808D01*
X152743735Y-90595808D02*
X152696116Y-90405332D01*
X152696116Y-90405332D02*
X152600878Y-90310094D01*
X152600878Y-90310094D02*
X152505640Y-90262475D01*
X156172306Y-92872419D02*
X156743734Y-92872419D01*
X156458020Y-92872419D02*
X156458020Y-91872419D01*
X156458020Y-91872419D02*
X156553258Y-92015276D01*
X156553258Y-92015276D02*
X156648496Y-92110514D01*
X156648496Y-92110514D02*
X156743734Y-92158133D01*
X155743734Y-92777180D02*
X155696115Y-92824800D01*
X155696115Y-92824800D02*
X155743734Y-92872419D01*
X155743734Y-92872419D02*
X155791353Y-92824800D01*
X155791353Y-92824800D02*
X155743734Y-92777180D01*
X155743734Y-92777180D02*
X155743734Y-92872419D01*
X155743734Y-92253371D02*
X155696115Y-92300990D01*
X155696115Y-92300990D02*
X155743734Y-92348609D01*
X155743734Y-92348609D02*
X155791353Y-92300990D01*
X155791353Y-92300990D02*
X155743734Y-92253371D01*
X155743734Y-92253371D02*
X155743734Y-92348609D01*
X155267544Y-92872419D02*
X155267544Y-91872419D01*
X155267544Y-91872419D02*
X154696116Y-92872419D01*
X154696116Y-92872419D02*
X154696116Y-91872419D01*
X154219925Y-92872419D02*
X154219925Y-91872419D01*
X154219925Y-91872419D02*
X153838973Y-91872419D01*
X153838973Y-91872419D02*
X153743735Y-91920038D01*
X153743735Y-91920038D02*
X153696116Y-91967657D01*
X153696116Y-91967657D02*
X153648497Y-92062895D01*
X153648497Y-92062895D02*
X153648497Y-92205752D01*
X153648497Y-92205752D02*
X153696116Y-92300990D01*
X153696116Y-92300990D02*
X153743735Y-92348609D01*
X153743735Y-92348609D02*
X153838973Y-92396228D01*
X153838973Y-92396228D02*
X154219925Y-92396228D01*
X152648497Y-92777180D02*
X152696116Y-92824800D01*
X152696116Y-92824800D02*
X152838973Y-92872419D01*
X152838973Y-92872419D02*
X152934211Y-92872419D01*
X152934211Y-92872419D02*
X153077068Y-92824800D01*
X153077068Y-92824800D02*
X153172306Y-92729561D01*
X153172306Y-92729561D02*
X153219925Y-92634323D01*
X153219925Y-92634323D02*
X153267544Y-92443847D01*
X153267544Y-92443847D02*
X153267544Y-92300990D01*
X153267544Y-92300990D02*
X153219925Y-92110514D01*
X153219925Y-92110514D02*
X153172306Y-92015276D01*
X153172306Y-92015276D02*
X153077068Y-91920038D01*
X153077068Y-91920038D02*
X152934211Y-91872419D01*
X152934211Y-91872419D02*
X152838973Y-91872419D01*
X152838973Y-91872419D02*
X152696116Y-91920038D01*
X152696116Y-91920038D02*
X152648497Y-91967657D01*
X152267544Y-92824800D02*
X152124687Y-92872419D01*
X152124687Y-92872419D02*
X151886592Y-92872419D01*
X151886592Y-92872419D02*
X151791354Y-92824800D01*
X151791354Y-92824800D02*
X151743735Y-92777180D01*
X151743735Y-92777180D02*
X151696116Y-92681942D01*
X151696116Y-92681942D02*
X151696116Y-92586704D01*
X151696116Y-92586704D02*
X151743735Y-92491466D01*
X151743735Y-92491466D02*
X151791354Y-92443847D01*
X151791354Y-92443847D02*
X151886592Y-92396228D01*
X151886592Y-92396228D02*
X152077068Y-92348609D01*
X152077068Y-92348609D02*
X152172306Y-92300990D01*
X152172306Y-92300990D02*
X152219925Y-92253371D01*
X152219925Y-92253371D02*
X152267544Y-92158133D01*
X152267544Y-92158133D02*
X152267544Y-92062895D01*
X152267544Y-92062895D02*
X152219925Y-91967657D01*
X152219925Y-91967657D02*
X152172306Y-91920038D01*
X152172306Y-91920038D02*
X152077068Y-91872419D01*
X152077068Y-91872419D02*
X151838973Y-91872419D01*
X151838973Y-91872419D02*
X151696116Y-91920038D01*
X150743735Y-92872419D02*
X151315163Y-92872419D01*
X151029449Y-92872419D02*
X151029449Y-91872419D01*
X151029449Y-91872419D02*
X151124687Y-92015276D01*
X151124687Y-92015276D02*
X151219925Y-92110514D01*
X151219925Y-92110514D02*
X151315163Y-92158133D01*
D13*
X160052005Y-107729238D02*
X160718672Y-106776857D01*
X161194862Y-107729238D02*
X161194862Y-105729238D01*
X161194862Y-105729238D02*
X160432957Y-105729238D01*
X160432957Y-105729238D02*
X160242481Y-105824476D01*
X160242481Y-105824476D02*
X160147243Y-105919714D01*
X160147243Y-105919714D02*
X160052005Y-106110190D01*
X160052005Y-106110190D02*
X160052005Y-106395904D01*
X160052005Y-106395904D02*
X160147243Y-106586380D01*
X160147243Y-106586380D02*
X160242481Y-106681619D01*
X160242481Y-106681619D02*
X160432957Y-106776857D01*
X160432957Y-106776857D02*
X161194862Y-106776857D01*
X158432957Y-107634000D02*
X158623433Y-107729238D01*
X158623433Y-107729238D02*
X159004386Y-107729238D01*
X159004386Y-107729238D02*
X159194862Y-107634000D01*
X159194862Y-107634000D02*
X159290100Y-107443523D01*
X159290100Y-107443523D02*
X159290100Y-106681619D01*
X159290100Y-106681619D02*
X159194862Y-106491142D01*
X159194862Y-106491142D02*
X159004386Y-106395904D01*
X159004386Y-106395904D02*
X158623433Y-106395904D01*
X158623433Y-106395904D02*
X158432957Y-106491142D01*
X158432957Y-106491142D02*
X158337719Y-106681619D01*
X158337719Y-106681619D02*
X158337719Y-106872095D01*
X158337719Y-106872095D02*
X159290100Y-107062571D01*
X157480576Y-107729238D02*
X157480576Y-106395904D01*
X157480576Y-106586380D02*
X157385338Y-106491142D01*
X157385338Y-106491142D02*
X157194862Y-106395904D01*
X157194862Y-106395904D02*
X156909147Y-106395904D01*
X156909147Y-106395904D02*
X156718671Y-106491142D01*
X156718671Y-106491142D02*
X156623433Y-106681619D01*
X156623433Y-106681619D02*
X156623433Y-107729238D01*
X156623433Y-106681619D02*
X156528195Y-106491142D01*
X156528195Y-106491142D02*
X156337719Y-106395904D01*
X156337719Y-106395904D02*
X156052005Y-106395904D01*
X156052005Y-106395904D02*
X155861528Y-106491142D01*
X155861528Y-106491142D02*
X155766290Y-106681619D01*
X155766290Y-106681619D02*
X155766290Y-107729238D01*
X154813909Y-107729238D02*
X154813909Y-106395904D01*
X154813909Y-105729238D02*
X154909147Y-105824476D01*
X154909147Y-105824476D02*
X154813909Y-105919714D01*
X154813909Y-105919714D02*
X154718671Y-105824476D01*
X154718671Y-105824476D02*
X154813909Y-105729238D01*
X154813909Y-105729238D02*
X154813909Y-105919714D01*
X152718671Y-107729238D02*
X153385338Y-106776857D01*
X153861528Y-107729238D02*
X153861528Y-105729238D01*
X153861528Y-105729238D02*
X153099623Y-105729238D01*
X153099623Y-105729238D02*
X152909147Y-105824476D01*
X152909147Y-105824476D02*
X152813909Y-105919714D01*
X152813909Y-105919714D02*
X152718671Y-106110190D01*
X152718671Y-106110190D02*
X152718671Y-106395904D01*
X152718671Y-106395904D02*
X152813909Y-106586380D01*
X152813909Y-106586380D02*
X152909147Y-106681619D01*
X152909147Y-106681619D02*
X153099623Y-106776857D01*
X153099623Y-106776857D02*
X153861528Y-106776857D01*
X151956766Y-107157809D02*
X151004385Y-107157809D01*
X152147242Y-107729238D02*
X151480576Y-105729238D01*
X151480576Y-105729238D02*
X150813909Y-107729238D01*
X150432956Y-105729238D02*
X149290099Y-105729238D01*
X149861528Y-107729238D02*
X149861528Y-105729238D01*
X147290098Y-106395904D02*
X146813908Y-107729238D01*
X146813908Y-107729238D02*
X146337717Y-106395904D01*
X145194860Y-105729238D02*
X145004383Y-105729238D01*
X145004383Y-105729238D02*
X144813907Y-105824476D01*
X144813907Y-105824476D02*
X144718669Y-105919714D01*
X144718669Y-105919714D02*
X144623431Y-106110190D01*
X144623431Y-106110190D02*
X144528193Y-106491142D01*
X144528193Y-106491142D02*
X144528193Y-106967333D01*
X144528193Y-106967333D02*
X144623431Y-107348285D01*
X144623431Y-107348285D02*
X144718669Y-107538761D01*
X144718669Y-107538761D02*
X144813907Y-107634000D01*
X144813907Y-107634000D02*
X145004383Y-107729238D01*
X145004383Y-107729238D02*
X145194860Y-107729238D01*
X145194860Y-107729238D02*
X145385336Y-107634000D01*
X145385336Y-107634000D02*
X145480574Y-107538761D01*
X145480574Y-107538761D02*
X145575812Y-107348285D01*
X145575812Y-107348285D02*
X145671050Y-106967333D01*
X145671050Y-106967333D02*
X145671050Y-106491142D01*
X145671050Y-106491142D02*
X145575812Y-106110190D01*
X145575812Y-106110190D02*
X145480574Y-105919714D01*
X145480574Y-105919714D02*
X145385336Y-105824476D01*
X145385336Y-105824476D02*
X145194860Y-105729238D01*
X143290098Y-105729238D02*
X143099621Y-105729238D01*
X143099621Y-105729238D02*
X142909145Y-105824476D01*
X142909145Y-105824476D02*
X142813907Y-105919714D01*
X142813907Y-105919714D02*
X142718669Y-106110190D01*
X142718669Y-106110190D02*
X142623431Y-106491142D01*
X142623431Y-106491142D02*
X142623431Y-106967333D01*
X142623431Y-106967333D02*
X142718669Y-107348285D01*
X142718669Y-107348285D02*
X142813907Y-107538761D01*
X142813907Y-107538761D02*
X142909145Y-107634000D01*
X142909145Y-107634000D02*
X143099621Y-107729238D01*
X143099621Y-107729238D02*
X143290098Y-107729238D01*
X143290098Y-107729238D02*
X143480574Y-107634000D01*
X143480574Y-107634000D02*
X143575812Y-107538761D01*
X143575812Y-107538761D02*
X143671050Y-107348285D01*
X143671050Y-107348285D02*
X143766288Y-106967333D01*
X143766288Y-106967333D02*
X143766288Y-106491142D01*
X143766288Y-106491142D02*
X143671050Y-106110190D01*
X143671050Y-106110190D02*
X143575812Y-105919714D01*
X143575812Y-105919714D02*
X143480574Y-105824476D01*
X143480574Y-105824476D02*
X143290098Y-105729238D01*
D10*
X133172306Y-80663035D02*
X133743734Y-80663035D01*
X133458020Y-80663035D02*
X133458020Y-79663035D01*
X133458020Y-79663035D02*
X133553258Y-79805892D01*
X133553258Y-79805892D02*
X133648496Y-79901130D01*
X133648496Y-79901130D02*
X133743734Y-79948749D01*
X132743734Y-80567796D02*
X132696115Y-80615416D01*
X132696115Y-80615416D02*
X132743734Y-80663035D01*
X132743734Y-80663035D02*
X132791353Y-80615416D01*
X132791353Y-80615416D02*
X132743734Y-80567796D01*
X132743734Y-80567796D02*
X132743734Y-80663035D01*
X132743734Y-80043987D02*
X132696115Y-80091606D01*
X132696115Y-80091606D02*
X132743734Y-80139225D01*
X132743734Y-80139225D02*
X132791353Y-80091606D01*
X132791353Y-80091606D02*
X132743734Y-80043987D01*
X132743734Y-80043987D02*
X132743734Y-80139225D01*
X131743735Y-79710654D02*
X131838973Y-79663035D01*
X131838973Y-79663035D02*
X131981830Y-79663035D01*
X131981830Y-79663035D02*
X132124687Y-79710654D01*
X132124687Y-79710654D02*
X132219925Y-79805892D01*
X132219925Y-79805892D02*
X132267544Y-79901130D01*
X132267544Y-79901130D02*
X132315163Y-80091606D01*
X132315163Y-80091606D02*
X132315163Y-80234463D01*
X132315163Y-80234463D02*
X132267544Y-80424939D01*
X132267544Y-80424939D02*
X132219925Y-80520177D01*
X132219925Y-80520177D02*
X132124687Y-80615416D01*
X132124687Y-80615416D02*
X131981830Y-80663035D01*
X131981830Y-80663035D02*
X131886592Y-80663035D01*
X131886592Y-80663035D02*
X131743735Y-80615416D01*
X131743735Y-80615416D02*
X131696116Y-80567796D01*
X131696116Y-80567796D02*
X131696116Y-80234463D01*
X131696116Y-80234463D02*
X131886592Y-80234463D01*
X131267544Y-80663035D02*
X131267544Y-79663035D01*
X131267544Y-79663035D02*
X130696116Y-80663035D01*
X130696116Y-80663035D02*
X130696116Y-79663035D01*
X130219925Y-80663035D02*
X130219925Y-79663035D01*
X130219925Y-79663035D02*
X129981830Y-79663035D01*
X129981830Y-79663035D02*
X129838973Y-79710654D01*
X129838973Y-79710654D02*
X129743735Y-79805892D01*
X129743735Y-79805892D02*
X129696116Y-79901130D01*
X129696116Y-79901130D02*
X129648497Y-80091606D01*
X129648497Y-80091606D02*
X129648497Y-80234463D01*
X129648497Y-80234463D02*
X129696116Y-80424939D01*
X129696116Y-80424939D02*
X129743735Y-80520177D01*
X129743735Y-80520177D02*
X129838973Y-80615416D01*
X129838973Y-80615416D02*
X129981830Y-80663035D01*
X129981830Y-80663035D02*
X130219925Y-80663035D01*
X133743734Y-81368217D02*
X133696115Y-81320598D01*
X133696115Y-81320598D02*
X133600877Y-81272979D01*
X133600877Y-81272979D02*
X133362782Y-81272979D01*
X133362782Y-81272979D02*
X133267544Y-81320598D01*
X133267544Y-81320598D02*
X133219925Y-81368217D01*
X133219925Y-81368217D02*
X133172306Y-81463455D01*
X133172306Y-81463455D02*
X133172306Y-81558693D01*
X133172306Y-81558693D02*
X133219925Y-81701550D01*
X133219925Y-81701550D02*
X133791353Y-82272979D01*
X133791353Y-82272979D02*
X133172306Y-82272979D01*
X132743734Y-82177740D02*
X132696115Y-82225360D01*
X132696115Y-82225360D02*
X132743734Y-82272979D01*
X132743734Y-82272979D02*
X132791353Y-82225360D01*
X132791353Y-82225360D02*
X132743734Y-82177740D01*
X132743734Y-82177740D02*
X132743734Y-82272979D01*
X132743734Y-81653931D02*
X132696115Y-81701550D01*
X132696115Y-81701550D02*
X132743734Y-81749169D01*
X132743734Y-81749169D02*
X132791353Y-81701550D01*
X132791353Y-81701550D02*
X132743734Y-81653931D01*
X132743734Y-81653931D02*
X132743734Y-81749169D01*
X132315163Y-81987264D02*
X131838973Y-81987264D01*
X132410401Y-82272979D02*
X132077068Y-81272979D01*
X132077068Y-81272979D02*
X131743735Y-82272979D01*
X130886592Y-82272979D02*
X131458020Y-82272979D01*
X131172306Y-82272979D02*
X131172306Y-81272979D01*
X131172306Y-81272979D02*
X131267544Y-81415836D01*
X131267544Y-81415836D02*
X131362782Y-81511074D01*
X131362782Y-81511074D02*
X131458020Y-81558693D01*
X129743735Y-81225360D02*
X130600877Y-82511074D01*
X129410401Y-82272979D02*
X129410401Y-81272979D01*
X129410401Y-81272979D02*
X129029449Y-81272979D01*
X129029449Y-81272979D02*
X128934211Y-81320598D01*
X128934211Y-81320598D02*
X128886592Y-81368217D01*
X128886592Y-81368217D02*
X128838973Y-81463455D01*
X128838973Y-81463455D02*
X128838973Y-81606312D01*
X128838973Y-81606312D02*
X128886592Y-81701550D01*
X128886592Y-81701550D02*
X128934211Y-81749169D01*
X128934211Y-81749169D02*
X129029449Y-81796788D01*
X129029449Y-81796788D02*
X129410401Y-81796788D01*
X128505639Y-81272979D02*
X128267544Y-82272979D01*
X128267544Y-82272979D02*
X128077068Y-81558693D01*
X128077068Y-81558693D02*
X127886592Y-82272979D01*
X127886592Y-82272979D02*
X127648497Y-81272979D01*
X127267544Y-82272979D02*
X127267544Y-81272979D01*
X127267544Y-81272979D02*
X126934211Y-81987264D01*
X126934211Y-81987264D02*
X126600878Y-81272979D01*
X126600878Y-81272979D02*
X126600878Y-82272979D01*
X125648497Y-82272979D02*
X126124687Y-82272979D01*
X126124687Y-82272979D02*
X126124687Y-81272979D01*
X124838973Y-81272979D02*
X125315163Y-81272979D01*
X125315163Y-81272979D02*
X125362782Y-81749169D01*
X125362782Y-81749169D02*
X125315163Y-81701550D01*
X125315163Y-81701550D02*
X125219925Y-81653931D01*
X125219925Y-81653931D02*
X124981830Y-81653931D01*
X124981830Y-81653931D02*
X124886592Y-81701550D01*
X124886592Y-81701550D02*
X124838973Y-81749169D01*
X124838973Y-81749169D02*
X124791354Y-81844407D01*
X124791354Y-81844407D02*
X124791354Y-82082502D01*
X124791354Y-82082502D02*
X124838973Y-82177740D01*
X124838973Y-82177740D02*
X124886592Y-82225360D01*
X124886592Y-82225360D02*
X124981830Y-82272979D01*
X124981830Y-82272979D02*
X125219925Y-82272979D01*
X125219925Y-82272979D02*
X125315163Y-82225360D01*
X125315163Y-82225360D02*
X125362782Y-82177740D01*
X123648497Y-81225360D02*
X124505639Y-82511074D01*
X123315163Y-82272979D02*
X123315163Y-81272979D01*
X123315163Y-81272979D02*
X122934211Y-81272979D01*
X122934211Y-81272979D02*
X122838973Y-81320598D01*
X122838973Y-81320598D02*
X122791354Y-81368217D01*
X122791354Y-81368217D02*
X122743735Y-81463455D01*
X122743735Y-81463455D02*
X122743735Y-81606312D01*
X122743735Y-81606312D02*
X122791354Y-81701550D01*
X122791354Y-81701550D02*
X122838973Y-81749169D01*
X122838973Y-81749169D02*
X122934211Y-81796788D01*
X122934211Y-81796788D02*
X123315163Y-81796788D01*
X121743735Y-82177740D02*
X121791354Y-82225360D01*
X121791354Y-82225360D02*
X121934211Y-82272979D01*
X121934211Y-82272979D02*
X122029449Y-82272979D01*
X122029449Y-82272979D02*
X122172306Y-82225360D01*
X122172306Y-82225360D02*
X122267544Y-82130121D01*
X122267544Y-82130121D02*
X122315163Y-82034883D01*
X122315163Y-82034883D02*
X122362782Y-81844407D01*
X122362782Y-81844407D02*
X122362782Y-81701550D01*
X122362782Y-81701550D02*
X122315163Y-81511074D01*
X122315163Y-81511074D02*
X122267544Y-81415836D01*
X122267544Y-81415836D02*
X122172306Y-81320598D01*
X122172306Y-81320598D02*
X122029449Y-81272979D01*
X122029449Y-81272979D02*
X121934211Y-81272979D01*
X121934211Y-81272979D02*
X121791354Y-81320598D01*
X121791354Y-81320598D02*
X121743735Y-81368217D01*
X121362782Y-81368217D02*
X121315163Y-81320598D01*
X121315163Y-81320598D02*
X121219925Y-81272979D01*
X121219925Y-81272979D02*
X120981830Y-81272979D01*
X120981830Y-81272979D02*
X120886592Y-81320598D01*
X120886592Y-81320598D02*
X120838973Y-81368217D01*
X120838973Y-81368217D02*
X120791354Y-81463455D01*
X120791354Y-81463455D02*
X120791354Y-81558693D01*
X120791354Y-81558693D02*
X120838973Y-81701550D01*
X120838973Y-81701550D02*
X121410401Y-82272979D01*
X121410401Y-82272979D02*
X120791354Y-82272979D01*
X120410401Y-81368217D02*
X120362782Y-81320598D01*
X120362782Y-81320598D02*
X120267544Y-81272979D01*
X120267544Y-81272979D02*
X120029449Y-81272979D01*
X120029449Y-81272979D02*
X119934211Y-81320598D01*
X119934211Y-81320598D02*
X119886592Y-81368217D01*
X119886592Y-81368217D02*
X119838973Y-81463455D01*
X119838973Y-81463455D02*
X119838973Y-81558693D01*
X119838973Y-81558693D02*
X119886592Y-81701550D01*
X119886592Y-81701550D02*
X120458020Y-82272979D01*
X120458020Y-82272979D02*
X119838973Y-82272979D01*
X133791353Y-82882923D02*
X133172306Y-82882923D01*
X133172306Y-82882923D02*
X133505639Y-83263875D01*
X133505639Y-83263875D02*
X133362782Y-83263875D01*
X133362782Y-83263875D02*
X133267544Y-83311494D01*
X133267544Y-83311494D02*
X133219925Y-83359113D01*
X133219925Y-83359113D02*
X133172306Y-83454351D01*
X133172306Y-83454351D02*
X133172306Y-83692446D01*
X133172306Y-83692446D02*
X133219925Y-83787684D01*
X133219925Y-83787684D02*
X133267544Y-83835304D01*
X133267544Y-83835304D02*
X133362782Y-83882923D01*
X133362782Y-83882923D02*
X133648496Y-83882923D01*
X133648496Y-83882923D02*
X133743734Y-83835304D01*
X133743734Y-83835304D02*
X133791353Y-83787684D01*
X132743734Y-83787684D02*
X132696115Y-83835304D01*
X132696115Y-83835304D02*
X132743734Y-83882923D01*
X132743734Y-83882923D02*
X132791353Y-83835304D01*
X132791353Y-83835304D02*
X132743734Y-83787684D01*
X132743734Y-83787684D02*
X132743734Y-83882923D01*
X132743734Y-83263875D02*
X132696115Y-83311494D01*
X132696115Y-83311494D02*
X132743734Y-83359113D01*
X132743734Y-83359113D02*
X132791353Y-83311494D01*
X132791353Y-83311494D02*
X132743734Y-83263875D01*
X132743734Y-83263875D02*
X132743734Y-83359113D01*
X132362782Y-82882923D02*
X131743735Y-82882923D01*
X131743735Y-82882923D02*
X132077068Y-83263875D01*
X132077068Y-83263875D02*
X131934211Y-83263875D01*
X131934211Y-83263875D02*
X131838973Y-83311494D01*
X131838973Y-83311494D02*
X131791354Y-83359113D01*
X131791354Y-83359113D02*
X131743735Y-83454351D01*
X131743735Y-83454351D02*
X131743735Y-83692446D01*
X131743735Y-83692446D02*
X131791354Y-83787684D01*
X131791354Y-83787684D02*
X131838973Y-83835304D01*
X131838973Y-83835304D02*
X131934211Y-83882923D01*
X131934211Y-83882923D02*
X132219925Y-83882923D01*
X132219925Y-83882923D02*
X132315163Y-83835304D01*
X132315163Y-83835304D02*
X132362782Y-83787684D01*
X131315163Y-83787684D02*
X131267544Y-83835304D01*
X131267544Y-83835304D02*
X131315163Y-83882923D01*
X131315163Y-83882923D02*
X131362782Y-83835304D01*
X131362782Y-83835304D02*
X131315163Y-83787684D01*
X131315163Y-83787684D02*
X131315163Y-83882923D01*
X130934211Y-82882923D02*
X130315164Y-82882923D01*
X130315164Y-82882923D02*
X130648497Y-83263875D01*
X130648497Y-83263875D02*
X130505640Y-83263875D01*
X130505640Y-83263875D02*
X130410402Y-83311494D01*
X130410402Y-83311494D02*
X130362783Y-83359113D01*
X130362783Y-83359113D02*
X130315164Y-83454351D01*
X130315164Y-83454351D02*
X130315164Y-83692446D01*
X130315164Y-83692446D02*
X130362783Y-83787684D01*
X130362783Y-83787684D02*
X130410402Y-83835304D01*
X130410402Y-83835304D02*
X130505640Y-83882923D01*
X130505640Y-83882923D02*
X130791354Y-83882923D01*
X130791354Y-83882923D02*
X130886592Y-83835304D01*
X130886592Y-83835304D02*
X130934211Y-83787684D01*
X130029449Y-82882923D02*
X129696116Y-83882923D01*
X129696116Y-83882923D02*
X129362783Y-82882923D01*
X133267544Y-84826200D02*
X133267544Y-85492867D01*
X133505639Y-84445248D02*
X133743734Y-85159533D01*
X133743734Y-85159533D02*
X133124687Y-85159533D01*
X132743734Y-85397628D02*
X132696115Y-85445248D01*
X132696115Y-85445248D02*
X132743734Y-85492867D01*
X132743734Y-85492867D02*
X132791353Y-85445248D01*
X132791353Y-85445248D02*
X132743734Y-85397628D01*
X132743734Y-85397628D02*
X132743734Y-85492867D01*
X132743734Y-84873819D02*
X132696115Y-84921438D01*
X132696115Y-84921438D02*
X132743734Y-84969057D01*
X132743734Y-84969057D02*
X132791353Y-84921438D01*
X132791353Y-84921438D02*
X132743734Y-84873819D01*
X132743734Y-84873819D02*
X132743734Y-84969057D01*
X132315163Y-85207152D02*
X131838973Y-85207152D01*
X132410401Y-85492867D02*
X132077068Y-84492867D01*
X132077068Y-84492867D02*
X131743735Y-85492867D01*
X131458020Y-84588105D02*
X131410401Y-84540486D01*
X131410401Y-84540486D02*
X131315163Y-84492867D01*
X131315163Y-84492867D02*
X131077068Y-84492867D01*
X131077068Y-84492867D02*
X130981830Y-84540486D01*
X130981830Y-84540486D02*
X130934211Y-84588105D01*
X130934211Y-84588105D02*
X130886592Y-84683343D01*
X130886592Y-84683343D02*
X130886592Y-84778581D01*
X130886592Y-84778581D02*
X130934211Y-84921438D01*
X130934211Y-84921438D02*
X131505639Y-85492867D01*
X131505639Y-85492867D02*
X130886592Y-85492867D01*
X129743735Y-84445248D02*
X130600877Y-85730962D01*
X129410401Y-85492867D02*
X129410401Y-84492867D01*
X129410401Y-84492867D02*
X129029449Y-84492867D01*
X129029449Y-84492867D02*
X128934211Y-84540486D01*
X128934211Y-84540486D02*
X128886592Y-84588105D01*
X128886592Y-84588105D02*
X128838973Y-84683343D01*
X128838973Y-84683343D02*
X128838973Y-84826200D01*
X128838973Y-84826200D02*
X128886592Y-84921438D01*
X128886592Y-84921438D02*
X128934211Y-84969057D01*
X128934211Y-84969057D02*
X129029449Y-85016676D01*
X129029449Y-85016676D02*
X129410401Y-85016676D01*
X128505639Y-84492867D02*
X128267544Y-85492867D01*
X128267544Y-85492867D02*
X128077068Y-84778581D01*
X128077068Y-84778581D02*
X127886592Y-85492867D01*
X127886592Y-85492867D02*
X127648497Y-84492867D01*
X127267544Y-85492867D02*
X127267544Y-84492867D01*
X127267544Y-84492867D02*
X126934211Y-85207152D01*
X126934211Y-85207152D02*
X126600878Y-84492867D01*
X126600878Y-84492867D02*
X126600878Y-85492867D01*
X125648497Y-85492867D02*
X126124687Y-85492867D01*
X126124687Y-85492867D02*
X126124687Y-84492867D01*
X124886592Y-84492867D02*
X125077068Y-84492867D01*
X125077068Y-84492867D02*
X125172306Y-84540486D01*
X125172306Y-84540486D02*
X125219925Y-84588105D01*
X125219925Y-84588105D02*
X125315163Y-84730962D01*
X125315163Y-84730962D02*
X125362782Y-84921438D01*
X125362782Y-84921438D02*
X125362782Y-85302390D01*
X125362782Y-85302390D02*
X125315163Y-85397628D01*
X125315163Y-85397628D02*
X125267544Y-85445248D01*
X125267544Y-85445248D02*
X125172306Y-85492867D01*
X125172306Y-85492867D02*
X124981830Y-85492867D01*
X124981830Y-85492867D02*
X124886592Y-85445248D01*
X124886592Y-85445248D02*
X124838973Y-85397628D01*
X124838973Y-85397628D02*
X124791354Y-85302390D01*
X124791354Y-85302390D02*
X124791354Y-85064295D01*
X124791354Y-85064295D02*
X124838973Y-84969057D01*
X124838973Y-84969057D02*
X124886592Y-84921438D01*
X124886592Y-84921438D02*
X124981830Y-84873819D01*
X124981830Y-84873819D02*
X125172306Y-84873819D01*
X125172306Y-84873819D02*
X125267544Y-84921438D01*
X125267544Y-84921438D02*
X125315163Y-84969057D01*
X125315163Y-84969057D02*
X125362782Y-85064295D01*
X123648497Y-84445248D02*
X124505639Y-85730962D01*
X123315163Y-85492867D02*
X123315163Y-84492867D01*
X123315163Y-84492867D02*
X122934211Y-84492867D01*
X122934211Y-84492867D02*
X122838973Y-84540486D01*
X122838973Y-84540486D02*
X122791354Y-84588105D01*
X122791354Y-84588105D02*
X122743735Y-84683343D01*
X122743735Y-84683343D02*
X122743735Y-84826200D01*
X122743735Y-84826200D02*
X122791354Y-84921438D01*
X122791354Y-84921438D02*
X122838973Y-84969057D01*
X122838973Y-84969057D02*
X122934211Y-85016676D01*
X122934211Y-85016676D02*
X123315163Y-85016676D01*
X121743735Y-85397628D02*
X121791354Y-85445248D01*
X121791354Y-85445248D02*
X121934211Y-85492867D01*
X121934211Y-85492867D02*
X122029449Y-85492867D01*
X122029449Y-85492867D02*
X122172306Y-85445248D01*
X122172306Y-85445248D02*
X122267544Y-85350009D01*
X122267544Y-85350009D02*
X122315163Y-85254771D01*
X122315163Y-85254771D02*
X122362782Y-85064295D01*
X122362782Y-85064295D02*
X122362782Y-84921438D01*
X122362782Y-84921438D02*
X122315163Y-84730962D01*
X122315163Y-84730962D02*
X122267544Y-84635724D01*
X122267544Y-84635724D02*
X122172306Y-84540486D01*
X122172306Y-84540486D02*
X122029449Y-84492867D01*
X122029449Y-84492867D02*
X121934211Y-84492867D01*
X121934211Y-84492867D02*
X121791354Y-84540486D01*
X121791354Y-84540486D02*
X121743735Y-84588105D01*
X121362782Y-84588105D02*
X121315163Y-84540486D01*
X121315163Y-84540486D02*
X121219925Y-84492867D01*
X121219925Y-84492867D02*
X120981830Y-84492867D01*
X120981830Y-84492867D02*
X120886592Y-84540486D01*
X120886592Y-84540486D02*
X120838973Y-84588105D01*
X120838973Y-84588105D02*
X120791354Y-84683343D01*
X120791354Y-84683343D02*
X120791354Y-84778581D01*
X120791354Y-84778581D02*
X120838973Y-84921438D01*
X120838973Y-84921438D02*
X121410401Y-85492867D01*
X121410401Y-85492867D02*
X120791354Y-85492867D01*
X120458020Y-84492867D02*
X119838973Y-84492867D01*
X119838973Y-84492867D02*
X120172306Y-84873819D01*
X120172306Y-84873819D02*
X120029449Y-84873819D01*
X120029449Y-84873819D02*
X119934211Y-84921438D01*
X119934211Y-84921438D02*
X119886592Y-84969057D01*
X119886592Y-84969057D02*
X119838973Y-85064295D01*
X119838973Y-85064295D02*
X119838973Y-85302390D01*
X119838973Y-85302390D02*
X119886592Y-85397628D01*
X119886592Y-85397628D02*
X119934211Y-85445248D01*
X119934211Y-85445248D02*
X120029449Y-85492867D01*
X120029449Y-85492867D02*
X120315163Y-85492867D01*
X120315163Y-85492867D02*
X120410401Y-85445248D01*
X120410401Y-85445248D02*
X120458020Y-85397628D01*
X133219925Y-86102811D02*
X133696115Y-86102811D01*
X133696115Y-86102811D02*
X133743734Y-86579001D01*
X133743734Y-86579001D02*
X133696115Y-86531382D01*
X133696115Y-86531382D02*
X133600877Y-86483763D01*
X133600877Y-86483763D02*
X133362782Y-86483763D01*
X133362782Y-86483763D02*
X133267544Y-86531382D01*
X133267544Y-86531382D02*
X133219925Y-86579001D01*
X133219925Y-86579001D02*
X133172306Y-86674239D01*
X133172306Y-86674239D02*
X133172306Y-86912334D01*
X133172306Y-86912334D02*
X133219925Y-87007572D01*
X133219925Y-87007572D02*
X133267544Y-87055192D01*
X133267544Y-87055192D02*
X133362782Y-87102811D01*
X133362782Y-87102811D02*
X133600877Y-87102811D01*
X133600877Y-87102811D02*
X133696115Y-87055192D01*
X133696115Y-87055192D02*
X133743734Y-87007572D01*
X132743734Y-87007572D02*
X132696115Y-87055192D01*
X132696115Y-87055192D02*
X132743734Y-87102811D01*
X132743734Y-87102811D02*
X132791353Y-87055192D01*
X132791353Y-87055192D02*
X132743734Y-87007572D01*
X132743734Y-87007572D02*
X132743734Y-87102811D01*
X132743734Y-86483763D02*
X132696115Y-86531382D01*
X132696115Y-86531382D02*
X132743734Y-86579001D01*
X132743734Y-86579001D02*
X132791353Y-86531382D01*
X132791353Y-86531382D02*
X132743734Y-86483763D01*
X132743734Y-86483763D02*
X132743734Y-86579001D01*
X132267544Y-87102811D02*
X132267544Y-86102811D01*
X132267544Y-86102811D02*
X132029449Y-86102811D01*
X132029449Y-86102811D02*
X131886592Y-86150430D01*
X131886592Y-86150430D02*
X131791354Y-86245668D01*
X131791354Y-86245668D02*
X131743735Y-86340906D01*
X131743735Y-86340906D02*
X131696116Y-86531382D01*
X131696116Y-86531382D02*
X131696116Y-86674239D01*
X131696116Y-86674239D02*
X131743735Y-86864715D01*
X131743735Y-86864715D02*
X131791354Y-86959953D01*
X131791354Y-86959953D02*
X131886592Y-87055192D01*
X131886592Y-87055192D02*
X132029449Y-87102811D01*
X132029449Y-87102811D02*
X132267544Y-87102811D01*
X130743735Y-87102811D02*
X131315163Y-87102811D01*
X131029449Y-87102811D02*
X131029449Y-86102811D01*
X131029449Y-86102811D02*
X131124687Y-86245668D01*
X131124687Y-86245668D02*
X131219925Y-86340906D01*
X131219925Y-86340906D02*
X131315163Y-86388525D01*
X129886592Y-86436144D02*
X129886592Y-87102811D01*
X130124687Y-86055192D02*
X130362782Y-86769477D01*
X130362782Y-86769477D02*
X129743735Y-86769477D01*
X128648497Y-86055192D02*
X129505639Y-87340906D01*
X128315163Y-87102811D02*
X128315163Y-86102811D01*
X128315163Y-86102811D02*
X127934211Y-86102811D01*
X127934211Y-86102811D02*
X127838973Y-86150430D01*
X127838973Y-86150430D02*
X127791354Y-86198049D01*
X127791354Y-86198049D02*
X127743735Y-86293287D01*
X127743735Y-86293287D02*
X127743735Y-86436144D01*
X127743735Y-86436144D02*
X127791354Y-86531382D01*
X127791354Y-86531382D02*
X127838973Y-86579001D01*
X127838973Y-86579001D02*
X127934211Y-86626620D01*
X127934211Y-86626620D02*
X128315163Y-86626620D01*
X126743735Y-87007572D02*
X126791354Y-87055192D01*
X126791354Y-87055192D02*
X126934211Y-87102811D01*
X126934211Y-87102811D02*
X127029449Y-87102811D01*
X127029449Y-87102811D02*
X127172306Y-87055192D01*
X127172306Y-87055192D02*
X127267544Y-86959953D01*
X127267544Y-86959953D02*
X127315163Y-86864715D01*
X127315163Y-86864715D02*
X127362782Y-86674239D01*
X127362782Y-86674239D02*
X127362782Y-86531382D01*
X127362782Y-86531382D02*
X127315163Y-86340906D01*
X127315163Y-86340906D02*
X127267544Y-86245668D01*
X127267544Y-86245668D02*
X127172306Y-86150430D01*
X127172306Y-86150430D02*
X127029449Y-86102811D01*
X127029449Y-86102811D02*
X126934211Y-86102811D01*
X126934211Y-86102811D02*
X126791354Y-86150430D01*
X126791354Y-86150430D02*
X126743735Y-86198049D01*
X125791354Y-87102811D02*
X126362782Y-87102811D01*
X126077068Y-87102811D02*
X126077068Y-86102811D01*
X126077068Y-86102811D02*
X126172306Y-86245668D01*
X126172306Y-86245668D02*
X126267544Y-86340906D01*
X126267544Y-86340906D02*
X126362782Y-86388525D01*
X124934211Y-86102811D02*
X125124687Y-86102811D01*
X125124687Y-86102811D02*
X125219925Y-86150430D01*
X125219925Y-86150430D02*
X125267544Y-86198049D01*
X125267544Y-86198049D02*
X125362782Y-86340906D01*
X125362782Y-86340906D02*
X125410401Y-86531382D01*
X125410401Y-86531382D02*
X125410401Y-86912334D01*
X125410401Y-86912334D02*
X125362782Y-87007572D01*
X125362782Y-87007572D02*
X125315163Y-87055192D01*
X125315163Y-87055192D02*
X125219925Y-87102811D01*
X125219925Y-87102811D02*
X125029449Y-87102811D01*
X125029449Y-87102811D02*
X124934211Y-87055192D01*
X124934211Y-87055192D02*
X124886592Y-87007572D01*
X124886592Y-87007572D02*
X124838973Y-86912334D01*
X124838973Y-86912334D02*
X124838973Y-86674239D01*
X124838973Y-86674239D02*
X124886592Y-86579001D01*
X124886592Y-86579001D02*
X124934211Y-86531382D01*
X124934211Y-86531382D02*
X125029449Y-86483763D01*
X125029449Y-86483763D02*
X125219925Y-86483763D01*
X125219925Y-86483763D02*
X125315163Y-86531382D01*
X125315163Y-86531382D02*
X125362782Y-86579001D01*
X125362782Y-86579001D02*
X125410401Y-86674239D01*
X133267544Y-87712755D02*
X133458020Y-87712755D01*
X133458020Y-87712755D02*
X133553258Y-87760374D01*
X133553258Y-87760374D02*
X133600877Y-87807993D01*
X133600877Y-87807993D02*
X133696115Y-87950850D01*
X133696115Y-87950850D02*
X133743734Y-88141326D01*
X133743734Y-88141326D02*
X133743734Y-88522278D01*
X133743734Y-88522278D02*
X133696115Y-88617516D01*
X133696115Y-88617516D02*
X133648496Y-88665136D01*
X133648496Y-88665136D02*
X133553258Y-88712755D01*
X133553258Y-88712755D02*
X133362782Y-88712755D01*
X133362782Y-88712755D02*
X133267544Y-88665136D01*
X133267544Y-88665136D02*
X133219925Y-88617516D01*
X133219925Y-88617516D02*
X133172306Y-88522278D01*
X133172306Y-88522278D02*
X133172306Y-88284183D01*
X133172306Y-88284183D02*
X133219925Y-88188945D01*
X133219925Y-88188945D02*
X133267544Y-88141326D01*
X133267544Y-88141326D02*
X133362782Y-88093707D01*
X133362782Y-88093707D02*
X133553258Y-88093707D01*
X133553258Y-88093707D02*
X133648496Y-88141326D01*
X133648496Y-88141326D02*
X133696115Y-88188945D01*
X133696115Y-88188945D02*
X133743734Y-88284183D01*
X132743734Y-88617516D02*
X132696115Y-88665136D01*
X132696115Y-88665136D02*
X132743734Y-88712755D01*
X132743734Y-88712755D02*
X132791353Y-88665136D01*
X132791353Y-88665136D02*
X132743734Y-88617516D01*
X132743734Y-88617516D02*
X132743734Y-88712755D01*
X132743734Y-88093707D02*
X132696115Y-88141326D01*
X132696115Y-88141326D02*
X132743734Y-88188945D01*
X132743734Y-88188945D02*
X132791353Y-88141326D01*
X132791353Y-88141326D02*
X132743734Y-88093707D01*
X132743734Y-88093707D02*
X132743734Y-88188945D01*
X131696116Y-88712755D02*
X132029449Y-88236564D01*
X132267544Y-88712755D02*
X132267544Y-87712755D01*
X132267544Y-87712755D02*
X131886592Y-87712755D01*
X131886592Y-87712755D02*
X131791354Y-87760374D01*
X131791354Y-87760374D02*
X131743735Y-87807993D01*
X131743735Y-87807993D02*
X131696116Y-87903231D01*
X131696116Y-87903231D02*
X131696116Y-88046088D01*
X131696116Y-88046088D02*
X131743735Y-88141326D01*
X131743735Y-88141326D02*
X131791354Y-88188945D01*
X131791354Y-88188945D02*
X131886592Y-88236564D01*
X131886592Y-88236564D02*
X132267544Y-88236564D01*
X131362782Y-87712755D02*
X130696116Y-88712755D01*
X130696116Y-87712755D02*
X131362782Y-88712755D01*
X130315163Y-88712755D02*
X130315163Y-87712755D01*
X130315163Y-87712755D02*
X130077068Y-87712755D01*
X130077068Y-87712755D02*
X129934211Y-87760374D01*
X129934211Y-87760374D02*
X129838973Y-87855612D01*
X129838973Y-87855612D02*
X129791354Y-87950850D01*
X129791354Y-87950850D02*
X129743735Y-88141326D01*
X129743735Y-88141326D02*
X129743735Y-88284183D01*
X129743735Y-88284183D02*
X129791354Y-88474659D01*
X129791354Y-88474659D02*
X129838973Y-88569897D01*
X129838973Y-88569897D02*
X129934211Y-88665136D01*
X129934211Y-88665136D02*
X130077068Y-88712755D01*
X130077068Y-88712755D02*
X130315163Y-88712755D01*
X128791354Y-88712755D02*
X129362782Y-88712755D01*
X129077068Y-88712755D02*
X129077068Y-87712755D01*
X129077068Y-87712755D02*
X129172306Y-87855612D01*
X129172306Y-87855612D02*
X129267544Y-87950850D01*
X129267544Y-87950850D02*
X129362782Y-87998469D01*
X127648497Y-87665136D02*
X128505639Y-88950850D01*
X127315163Y-88712755D02*
X127315163Y-87712755D01*
X127315163Y-87712755D02*
X126934211Y-87712755D01*
X126934211Y-87712755D02*
X126838973Y-87760374D01*
X126838973Y-87760374D02*
X126791354Y-87807993D01*
X126791354Y-87807993D02*
X126743735Y-87903231D01*
X126743735Y-87903231D02*
X126743735Y-88046088D01*
X126743735Y-88046088D02*
X126791354Y-88141326D01*
X126791354Y-88141326D02*
X126838973Y-88188945D01*
X126838973Y-88188945D02*
X126934211Y-88236564D01*
X126934211Y-88236564D02*
X127315163Y-88236564D01*
X126410401Y-87712755D02*
X126172306Y-88712755D01*
X126172306Y-88712755D02*
X125981830Y-87998469D01*
X125981830Y-87998469D02*
X125791354Y-88712755D01*
X125791354Y-88712755D02*
X125553259Y-87712755D01*
X125172306Y-88712755D02*
X125172306Y-87712755D01*
X125172306Y-87712755D02*
X124838973Y-88427040D01*
X124838973Y-88427040D02*
X124505640Y-87712755D01*
X124505640Y-87712755D02*
X124505640Y-88712755D01*
X123553259Y-88712755D02*
X124029449Y-88712755D01*
X124029449Y-88712755D02*
X124029449Y-87712755D01*
X122696116Y-88712755D02*
X123267544Y-88712755D01*
X122981830Y-88712755D02*
X122981830Y-87712755D01*
X122981830Y-87712755D02*
X123077068Y-87855612D01*
X123077068Y-87855612D02*
X123172306Y-87950850D01*
X123172306Y-87950850D02*
X123267544Y-87998469D01*
X121553259Y-87665136D02*
X122410401Y-88950850D01*
X121219925Y-88712755D02*
X121219925Y-87712755D01*
X121219925Y-87712755D02*
X120838973Y-87712755D01*
X120838973Y-87712755D02*
X120743735Y-87760374D01*
X120743735Y-87760374D02*
X120696116Y-87807993D01*
X120696116Y-87807993D02*
X120648497Y-87903231D01*
X120648497Y-87903231D02*
X120648497Y-88046088D01*
X120648497Y-88046088D02*
X120696116Y-88141326D01*
X120696116Y-88141326D02*
X120743735Y-88188945D01*
X120743735Y-88188945D02*
X120838973Y-88236564D01*
X120838973Y-88236564D02*
X121219925Y-88236564D01*
X120267544Y-88427040D02*
X119791354Y-88427040D01*
X120362782Y-88712755D02*
X120029449Y-87712755D01*
X120029449Y-87712755D02*
X119696116Y-88712755D01*
X118838973Y-88712755D02*
X119410401Y-88712755D01*
X119124687Y-88712755D02*
X119124687Y-87712755D01*
X119124687Y-87712755D02*
X119219925Y-87855612D01*
X119219925Y-87855612D02*
X119315163Y-87950850D01*
X119315163Y-87950850D02*
X119410401Y-87998469D01*
X118458020Y-87807993D02*
X118410401Y-87760374D01*
X118410401Y-87760374D02*
X118315163Y-87712755D01*
X118315163Y-87712755D02*
X118077068Y-87712755D01*
X118077068Y-87712755D02*
X117981830Y-87760374D01*
X117981830Y-87760374D02*
X117934211Y-87807993D01*
X117934211Y-87807993D02*
X117886592Y-87903231D01*
X117886592Y-87903231D02*
X117886592Y-87998469D01*
X117886592Y-87998469D02*
X117934211Y-88141326D01*
X117934211Y-88141326D02*
X118505639Y-88712755D01*
X118505639Y-88712755D02*
X117886592Y-88712755D01*
X133791353Y-89322699D02*
X133124687Y-89322699D01*
X133124687Y-89322699D02*
X133553258Y-90322699D01*
X132743734Y-90227460D02*
X132696115Y-90275080D01*
X132696115Y-90275080D02*
X132743734Y-90322699D01*
X132743734Y-90322699D02*
X132791353Y-90275080D01*
X132791353Y-90275080D02*
X132743734Y-90227460D01*
X132743734Y-90227460D02*
X132743734Y-90322699D01*
X132743734Y-89703651D02*
X132696115Y-89751270D01*
X132696115Y-89751270D02*
X132743734Y-89798889D01*
X132743734Y-89798889D02*
X132791353Y-89751270D01*
X132791353Y-89751270D02*
X132743734Y-89703651D01*
X132743734Y-89703651D02*
X132743734Y-89798889D01*
X132267544Y-90322699D02*
X132267544Y-89322699D01*
X132267544Y-89322699D02*
X132029449Y-89322699D01*
X132029449Y-89322699D02*
X131886592Y-89370318D01*
X131886592Y-89370318D02*
X131791354Y-89465556D01*
X131791354Y-89465556D02*
X131743735Y-89560794D01*
X131743735Y-89560794D02*
X131696116Y-89751270D01*
X131696116Y-89751270D02*
X131696116Y-89894127D01*
X131696116Y-89894127D02*
X131743735Y-90084603D01*
X131743735Y-90084603D02*
X131791354Y-90179841D01*
X131791354Y-90179841D02*
X131886592Y-90275080D01*
X131886592Y-90275080D02*
X132029449Y-90322699D01*
X132029449Y-90322699D02*
X132267544Y-90322699D01*
X130743735Y-90322699D02*
X131315163Y-90322699D01*
X131029449Y-90322699D02*
X131029449Y-89322699D01*
X131029449Y-89322699D02*
X131124687Y-89465556D01*
X131124687Y-89465556D02*
X131219925Y-89560794D01*
X131219925Y-89560794D02*
X131315163Y-89608413D01*
X129838973Y-89322699D02*
X130315163Y-89322699D01*
X130315163Y-89322699D02*
X130362782Y-89798889D01*
X130362782Y-89798889D02*
X130315163Y-89751270D01*
X130315163Y-89751270D02*
X130219925Y-89703651D01*
X130219925Y-89703651D02*
X129981830Y-89703651D01*
X129981830Y-89703651D02*
X129886592Y-89751270D01*
X129886592Y-89751270D02*
X129838973Y-89798889D01*
X129838973Y-89798889D02*
X129791354Y-89894127D01*
X129791354Y-89894127D02*
X129791354Y-90132222D01*
X129791354Y-90132222D02*
X129838973Y-90227460D01*
X129838973Y-90227460D02*
X129886592Y-90275080D01*
X129886592Y-90275080D02*
X129981830Y-90322699D01*
X129981830Y-90322699D02*
X130219925Y-90322699D01*
X130219925Y-90322699D02*
X130315163Y-90275080D01*
X130315163Y-90275080D02*
X130362782Y-90227460D01*
X128648497Y-89275080D02*
X129505639Y-90560794D01*
X128315163Y-90322699D02*
X128315163Y-89322699D01*
X128315163Y-89322699D02*
X127934211Y-89322699D01*
X127934211Y-89322699D02*
X127838973Y-89370318D01*
X127838973Y-89370318D02*
X127791354Y-89417937D01*
X127791354Y-89417937D02*
X127743735Y-89513175D01*
X127743735Y-89513175D02*
X127743735Y-89656032D01*
X127743735Y-89656032D02*
X127791354Y-89751270D01*
X127791354Y-89751270D02*
X127838973Y-89798889D01*
X127838973Y-89798889D02*
X127934211Y-89846508D01*
X127934211Y-89846508D02*
X128315163Y-89846508D01*
X126743735Y-90227460D02*
X126791354Y-90275080D01*
X126791354Y-90275080D02*
X126934211Y-90322699D01*
X126934211Y-90322699D02*
X127029449Y-90322699D01*
X127029449Y-90322699D02*
X127172306Y-90275080D01*
X127172306Y-90275080D02*
X127267544Y-90179841D01*
X127267544Y-90179841D02*
X127315163Y-90084603D01*
X127315163Y-90084603D02*
X127362782Y-89894127D01*
X127362782Y-89894127D02*
X127362782Y-89751270D01*
X127362782Y-89751270D02*
X127315163Y-89560794D01*
X127315163Y-89560794D02*
X127267544Y-89465556D01*
X127267544Y-89465556D02*
X127172306Y-89370318D01*
X127172306Y-89370318D02*
X127029449Y-89322699D01*
X127029449Y-89322699D02*
X126934211Y-89322699D01*
X126934211Y-89322699D02*
X126791354Y-89370318D01*
X126791354Y-89370318D02*
X126743735Y-89417937D01*
X125791354Y-90322699D02*
X126362782Y-90322699D01*
X126077068Y-90322699D02*
X126077068Y-89322699D01*
X126077068Y-89322699D02*
X126172306Y-89465556D01*
X126172306Y-89465556D02*
X126267544Y-89560794D01*
X126267544Y-89560794D02*
X126362782Y-89608413D01*
X125458020Y-89322699D02*
X124791354Y-89322699D01*
X124791354Y-89322699D02*
X125219925Y-90322699D01*
X133553258Y-91361214D02*
X133648496Y-91313595D01*
X133648496Y-91313595D02*
X133696115Y-91265976D01*
X133696115Y-91265976D02*
X133743734Y-91170738D01*
X133743734Y-91170738D02*
X133743734Y-91123119D01*
X133743734Y-91123119D02*
X133696115Y-91027881D01*
X133696115Y-91027881D02*
X133648496Y-90980262D01*
X133648496Y-90980262D02*
X133553258Y-90932643D01*
X133553258Y-90932643D02*
X133362782Y-90932643D01*
X133362782Y-90932643D02*
X133267544Y-90980262D01*
X133267544Y-90980262D02*
X133219925Y-91027881D01*
X133219925Y-91027881D02*
X133172306Y-91123119D01*
X133172306Y-91123119D02*
X133172306Y-91170738D01*
X133172306Y-91170738D02*
X133219925Y-91265976D01*
X133219925Y-91265976D02*
X133267544Y-91313595D01*
X133267544Y-91313595D02*
X133362782Y-91361214D01*
X133362782Y-91361214D02*
X133553258Y-91361214D01*
X133553258Y-91361214D02*
X133648496Y-91408833D01*
X133648496Y-91408833D02*
X133696115Y-91456452D01*
X133696115Y-91456452D02*
X133743734Y-91551690D01*
X133743734Y-91551690D02*
X133743734Y-91742166D01*
X133743734Y-91742166D02*
X133696115Y-91837404D01*
X133696115Y-91837404D02*
X133648496Y-91885024D01*
X133648496Y-91885024D02*
X133553258Y-91932643D01*
X133553258Y-91932643D02*
X133362782Y-91932643D01*
X133362782Y-91932643D02*
X133267544Y-91885024D01*
X133267544Y-91885024D02*
X133219925Y-91837404D01*
X133219925Y-91837404D02*
X133172306Y-91742166D01*
X133172306Y-91742166D02*
X133172306Y-91551690D01*
X133172306Y-91551690D02*
X133219925Y-91456452D01*
X133219925Y-91456452D02*
X133267544Y-91408833D01*
X133267544Y-91408833D02*
X133362782Y-91361214D01*
X132743734Y-91837404D02*
X132696115Y-91885024D01*
X132696115Y-91885024D02*
X132743734Y-91932643D01*
X132743734Y-91932643D02*
X132791353Y-91885024D01*
X132791353Y-91885024D02*
X132743734Y-91837404D01*
X132743734Y-91837404D02*
X132743734Y-91932643D01*
X132743734Y-91313595D02*
X132696115Y-91361214D01*
X132696115Y-91361214D02*
X132743734Y-91408833D01*
X132743734Y-91408833D02*
X132791353Y-91361214D01*
X132791353Y-91361214D02*
X132743734Y-91313595D01*
X132743734Y-91313595D02*
X132743734Y-91408833D01*
X132410401Y-90932643D02*
X131838973Y-90932643D01*
X132124687Y-91932643D02*
X132124687Y-90932643D01*
X131600877Y-90932643D02*
X130934211Y-91932643D01*
X130934211Y-90932643D02*
X131600877Y-91932643D01*
X130553258Y-91932643D02*
X130553258Y-90932643D01*
X130553258Y-90932643D02*
X130315163Y-90932643D01*
X130315163Y-90932643D02*
X130172306Y-90980262D01*
X130172306Y-90980262D02*
X130077068Y-91075500D01*
X130077068Y-91075500D02*
X130029449Y-91170738D01*
X130029449Y-91170738D02*
X129981830Y-91361214D01*
X129981830Y-91361214D02*
X129981830Y-91504071D01*
X129981830Y-91504071D02*
X130029449Y-91694547D01*
X130029449Y-91694547D02*
X130077068Y-91789785D01*
X130077068Y-91789785D02*
X130172306Y-91885024D01*
X130172306Y-91885024D02*
X130315163Y-91932643D01*
X130315163Y-91932643D02*
X130553258Y-91932643D01*
X129029449Y-91932643D02*
X129600877Y-91932643D01*
X129315163Y-91932643D02*
X129315163Y-90932643D01*
X129315163Y-90932643D02*
X129410401Y-91075500D01*
X129410401Y-91075500D02*
X129505639Y-91170738D01*
X129505639Y-91170738D02*
X129600877Y-91218357D01*
X127886592Y-90885024D02*
X128743734Y-92170738D01*
X127553258Y-91932643D02*
X127553258Y-90932643D01*
X127553258Y-90932643D02*
X127172306Y-90932643D01*
X127172306Y-90932643D02*
X127077068Y-90980262D01*
X127077068Y-90980262D02*
X127029449Y-91027881D01*
X127029449Y-91027881D02*
X126981830Y-91123119D01*
X126981830Y-91123119D02*
X126981830Y-91265976D01*
X126981830Y-91265976D02*
X127029449Y-91361214D01*
X127029449Y-91361214D02*
X127077068Y-91408833D01*
X127077068Y-91408833D02*
X127172306Y-91456452D01*
X127172306Y-91456452D02*
X127553258Y-91456452D01*
X126648496Y-90932643D02*
X126410401Y-91932643D01*
X126410401Y-91932643D02*
X126219925Y-91218357D01*
X126219925Y-91218357D02*
X126029449Y-91932643D01*
X126029449Y-91932643D02*
X125791354Y-90932643D01*
X125410401Y-91932643D02*
X125410401Y-90932643D01*
X125410401Y-90932643D02*
X125077068Y-91646928D01*
X125077068Y-91646928D02*
X124743735Y-90932643D01*
X124743735Y-90932643D02*
X124743735Y-91932643D01*
X124267544Y-91932643D02*
X124267544Y-90932643D01*
X124267544Y-91408833D02*
X123696116Y-91408833D01*
X123696116Y-91932643D02*
X123696116Y-90932643D01*
X123267544Y-91027881D02*
X123219925Y-90980262D01*
X123219925Y-90980262D02*
X123124687Y-90932643D01*
X123124687Y-90932643D02*
X122886592Y-90932643D01*
X122886592Y-90932643D02*
X122791354Y-90980262D01*
X122791354Y-90980262D02*
X122743735Y-91027881D01*
X122743735Y-91027881D02*
X122696116Y-91123119D01*
X122696116Y-91123119D02*
X122696116Y-91218357D01*
X122696116Y-91218357D02*
X122743735Y-91361214D01*
X122743735Y-91361214D02*
X123315163Y-91932643D01*
X123315163Y-91932643D02*
X122696116Y-91932643D01*
X121553259Y-90885024D02*
X122410401Y-92170738D01*
X121219925Y-91932643D02*
X121219925Y-90932643D01*
X121219925Y-90932643D02*
X120838973Y-90932643D01*
X120838973Y-90932643D02*
X120743735Y-90980262D01*
X120743735Y-90980262D02*
X120696116Y-91027881D01*
X120696116Y-91027881D02*
X120648497Y-91123119D01*
X120648497Y-91123119D02*
X120648497Y-91265976D01*
X120648497Y-91265976D02*
X120696116Y-91361214D01*
X120696116Y-91361214D02*
X120743735Y-91408833D01*
X120743735Y-91408833D02*
X120838973Y-91456452D01*
X120838973Y-91456452D02*
X121219925Y-91456452D01*
X120267544Y-91646928D02*
X119791354Y-91646928D01*
X120362782Y-91932643D02*
X120029449Y-90932643D01*
X120029449Y-90932643D02*
X119696116Y-91932643D01*
X118838973Y-91932643D02*
X119410401Y-91932643D01*
X119124687Y-91932643D02*
X119124687Y-90932643D01*
X119124687Y-90932643D02*
X119219925Y-91075500D01*
X119219925Y-91075500D02*
X119315163Y-91170738D01*
X119315163Y-91170738D02*
X119410401Y-91218357D01*
X118505639Y-90932643D02*
X117886592Y-90932643D01*
X117886592Y-90932643D02*
X118219925Y-91313595D01*
X118219925Y-91313595D02*
X118077068Y-91313595D01*
X118077068Y-91313595D02*
X117981830Y-91361214D01*
X117981830Y-91361214D02*
X117934211Y-91408833D01*
X117934211Y-91408833D02*
X117886592Y-91504071D01*
X117886592Y-91504071D02*
X117886592Y-91742166D01*
X117886592Y-91742166D02*
X117934211Y-91837404D01*
X117934211Y-91837404D02*
X117981830Y-91885024D01*
X117981830Y-91885024D02*
X118077068Y-91932643D01*
X118077068Y-91932643D02*
X118362782Y-91932643D01*
X118362782Y-91932643D02*
X118458020Y-91885024D01*
X118458020Y-91885024D02*
X118505639Y-91837404D01*
X133648496Y-93542587D02*
X133458020Y-93542587D01*
X133458020Y-93542587D02*
X133362782Y-93494968D01*
X133362782Y-93494968D02*
X133315163Y-93447348D01*
X133315163Y-93447348D02*
X133219925Y-93304491D01*
X133219925Y-93304491D02*
X133172306Y-93114015D01*
X133172306Y-93114015D02*
X133172306Y-92733063D01*
X133172306Y-92733063D02*
X133219925Y-92637825D01*
X133219925Y-92637825D02*
X133267544Y-92590206D01*
X133267544Y-92590206D02*
X133362782Y-92542587D01*
X133362782Y-92542587D02*
X133553258Y-92542587D01*
X133553258Y-92542587D02*
X133648496Y-92590206D01*
X133648496Y-92590206D02*
X133696115Y-92637825D01*
X133696115Y-92637825D02*
X133743734Y-92733063D01*
X133743734Y-92733063D02*
X133743734Y-92971158D01*
X133743734Y-92971158D02*
X133696115Y-93066396D01*
X133696115Y-93066396D02*
X133648496Y-93114015D01*
X133648496Y-93114015D02*
X133553258Y-93161634D01*
X133553258Y-93161634D02*
X133362782Y-93161634D01*
X133362782Y-93161634D02*
X133267544Y-93114015D01*
X133267544Y-93114015D02*
X133219925Y-93066396D01*
X133219925Y-93066396D02*
X133172306Y-92971158D01*
X132743734Y-93447348D02*
X132696115Y-93494968D01*
X132696115Y-93494968D02*
X132743734Y-93542587D01*
X132743734Y-93542587D02*
X132791353Y-93494968D01*
X132791353Y-93494968D02*
X132743734Y-93447348D01*
X132743734Y-93447348D02*
X132743734Y-93542587D01*
X132743734Y-92923539D02*
X132696115Y-92971158D01*
X132696115Y-92971158D02*
X132743734Y-93018777D01*
X132743734Y-93018777D02*
X132791353Y-92971158D01*
X132791353Y-92971158D02*
X132743734Y-92923539D01*
X132743734Y-92923539D02*
X132743734Y-93018777D01*
X131696116Y-93447348D02*
X131743735Y-93494968D01*
X131743735Y-93494968D02*
X131886592Y-93542587D01*
X131886592Y-93542587D02*
X131981830Y-93542587D01*
X131981830Y-93542587D02*
X132124687Y-93494968D01*
X132124687Y-93494968D02*
X132219925Y-93399729D01*
X132219925Y-93399729D02*
X132267544Y-93304491D01*
X132267544Y-93304491D02*
X132315163Y-93114015D01*
X132315163Y-93114015D02*
X132315163Y-92971158D01*
X132315163Y-92971158D02*
X132267544Y-92780682D01*
X132267544Y-92780682D02*
X132219925Y-92685444D01*
X132219925Y-92685444D02*
X132124687Y-92590206D01*
X132124687Y-92590206D02*
X131981830Y-92542587D01*
X131981830Y-92542587D02*
X131886592Y-92542587D01*
X131886592Y-92542587D02*
X131743735Y-92590206D01*
X131743735Y-92590206D02*
X131696116Y-92637825D01*
X131315163Y-93256872D02*
X130838973Y-93256872D01*
X131410401Y-93542587D02*
X131077068Y-92542587D01*
X131077068Y-92542587D02*
X130743735Y-93542587D01*
X130410401Y-93542587D02*
X130410401Y-92542587D01*
X130410401Y-92542587D02*
X129838973Y-93542587D01*
X129838973Y-93542587D02*
X129838973Y-92542587D01*
X128791354Y-93542587D02*
X129124687Y-93066396D01*
X129362782Y-93542587D02*
X129362782Y-92542587D01*
X129362782Y-92542587D02*
X128981830Y-92542587D01*
X128981830Y-92542587D02*
X128886592Y-92590206D01*
X128886592Y-92590206D02*
X128838973Y-92637825D01*
X128838973Y-92637825D02*
X128791354Y-92733063D01*
X128791354Y-92733063D02*
X128791354Y-92875920D01*
X128791354Y-92875920D02*
X128838973Y-92971158D01*
X128838973Y-92971158D02*
X128886592Y-93018777D01*
X128886592Y-93018777D02*
X128981830Y-93066396D01*
X128981830Y-93066396D02*
X129362782Y-93066396D01*
X128458020Y-92542587D02*
X127791354Y-93542587D01*
X127791354Y-92542587D02*
X128458020Y-93542587D01*
X127219925Y-92542587D02*
X127124687Y-92542587D01*
X127124687Y-92542587D02*
X127029449Y-92590206D01*
X127029449Y-92590206D02*
X126981830Y-92637825D01*
X126981830Y-92637825D02*
X126934211Y-92733063D01*
X126934211Y-92733063D02*
X126886592Y-92923539D01*
X126886592Y-92923539D02*
X126886592Y-93161634D01*
X126886592Y-93161634D02*
X126934211Y-93352110D01*
X126934211Y-93352110D02*
X126981830Y-93447348D01*
X126981830Y-93447348D02*
X127029449Y-93494968D01*
X127029449Y-93494968D02*
X127124687Y-93542587D01*
X127124687Y-93542587D02*
X127219925Y-93542587D01*
X127219925Y-93542587D02*
X127315163Y-93494968D01*
X127315163Y-93494968D02*
X127362782Y-93447348D01*
X127362782Y-93447348D02*
X127410401Y-93352110D01*
X127410401Y-93352110D02*
X127458020Y-93161634D01*
X127458020Y-93161634D02*
X127458020Y-92923539D01*
X127458020Y-92923539D02*
X127410401Y-92733063D01*
X127410401Y-92733063D02*
X127362782Y-92637825D01*
X127362782Y-92637825D02*
X127315163Y-92590206D01*
X127315163Y-92590206D02*
X127219925Y-92542587D01*
X125743735Y-92494968D02*
X126600877Y-93780682D01*
X125410401Y-93542587D02*
X125410401Y-92542587D01*
X125410401Y-92542587D02*
X125029449Y-92542587D01*
X125029449Y-92542587D02*
X124934211Y-92590206D01*
X124934211Y-92590206D02*
X124886592Y-92637825D01*
X124886592Y-92637825D02*
X124838973Y-92733063D01*
X124838973Y-92733063D02*
X124838973Y-92875920D01*
X124838973Y-92875920D02*
X124886592Y-92971158D01*
X124886592Y-92971158D02*
X124934211Y-93018777D01*
X124934211Y-93018777D02*
X125029449Y-93066396D01*
X125029449Y-93066396D02*
X125410401Y-93066396D01*
X124458020Y-93256872D02*
X123981830Y-93256872D01*
X124553258Y-93542587D02*
X124219925Y-92542587D01*
X124219925Y-92542587D02*
X123886592Y-93542587D01*
X123029449Y-93542587D02*
X123600877Y-93542587D01*
X123315163Y-93542587D02*
X123315163Y-92542587D01*
X123315163Y-92542587D02*
X123410401Y-92685444D01*
X123410401Y-92685444D02*
X123505639Y-92780682D01*
X123505639Y-92780682D02*
X123600877Y-92828301D01*
X133172306Y-95152531D02*
X133743734Y-95152531D01*
X133458020Y-95152531D02*
X133458020Y-94152531D01*
X133458020Y-94152531D02*
X133553258Y-94295388D01*
X133553258Y-94295388D02*
X133648496Y-94390626D01*
X133648496Y-94390626D02*
X133743734Y-94438245D01*
X132553258Y-94152531D02*
X132458020Y-94152531D01*
X132458020Y-94152531D02*
X132362782Y-94200150D01*
X132362782Y-94200150D02*
X132315163Y-94247769D01*
X132315163Y-94247769D02*
X132267544Y-94343007D01*
X132267544Y-94343007D02*
X132219925Y-94533483D01*
X132219925Y-94533483D02*
X132219925Y-94771578D01*
X132219925Y-94771578D02*
X132267544Y-94962054D01*
X132267544Y-94962054D02*
X132315163Y-95057292D01*
X132315163Y-95057292D02*
X132362782Y-95104912D01*
X132362782Y-95104912D02*
X132458020Y-95152531D01*
X132458020Y-95152531D02*
X132553258Y-95152531D01*
X132553258Y-95152531D02*
X132648496Y-95104912D01*
X132648496Y-95104912D02*
X132696115Y-95057292D01*
X132696115Y-95057292D02*
X132743734Y-94962054D01*
X132743734Y-94962054D02*
X132791353Y-94771578D01*
X132791353Y-94771578D02*
X132791353Y-94533483D01*
X132791353Y-94533483D02*
X132743734Y-94343007D01*
X132743734Y-94343007D02*
X132696115Y-94247769D01*
X132696115Y-94247769D02*
X132648496Y-94200150D01*
X132648496Y-94200150D02*
X132553258Y-94152531D01*
X131791353Y-95057292D02*
X131743734Y-95104912D01*
X131743734Y-95104912D02*
X131791353Y-95152531D01*
X131791353Y-95152531D02*
X131838972Y-95104912D01*
X131838972Y-95104912D02*
X131791353Y-95057292D01*
X131791353Y-95057292D02*
X131791353Y-95152531D01*
X131791353Y-94533483D02*
X131743734Y-94581102D01*
X131743734Y-94581102D02*
X131791353Y-94628721D01*
X131791353Y-94628721D02*
X131838972Y-94581102D01*
X131838972Y-94581102D02*
X131791353Y-94533483D01*
X131791353Y-94533483D02*
X131791353Y-94628721D01*
X131458020Y-94152531D02*
X130886592Y-94152531D01*
X131172306Y-95152531D02*
X131172306Y-94152531D01*
X130648496Y-94152531D02*
X130410401Y-95152531D01*
X130410401Y-95152531D02*
X130219925Y-94438245D01*
X130219925Y-94438245D02*
X130029449Y-95152531D01*
X130029449Y-95152531D02*
X129791354Y-94152531D01*
X128838973Y-95057292D02*
X128886592Y-95104912D01*
X128886592Y-95104912D02*
X129029449Y-95152531D01*
X129029449Y-95152531D02*
X129124687Y-95152531D01*
X129124687Y-95152531D02*
X129267544Y-95104912D01*
X129267544Y-95104912D02*
X129362782Y-95009673D01*
X129362782Y-95009673D02*
X129410401Y-94914435D01*
X129410401Y-94914435D02*
X129458020Y-94723959D01*
X129458020Y-94723959D02*
X129458020Y-94581102D01*
X129458020Y-94581102D02*
X129410401Y-94390626D01*
X129410401Y-94390626D02*
X129362782Y-94295388D01*
X129362782Y-94295388D02*
X129267544Y-94200150D01*
X129267544Y-94200150D02*
X129124687Y-94152531D01*
X129124687Y-94152531D02*
X129029449Y-94152531D01*
X129029449Y-94152531D02*
X128886592Y-94200150D01*
X128886592Y-94200150D02*
X128838973Y-94247769D01*
X128410401Y-95152531D02*
X128410401Y-94152531D01*
X127838973Y-95152531D02*
X128267544Y-94581102D01*
X127838973Y-94152531D02*
X128410401Y-94723959D01*
X127219925Y-94152531D02*
X127124687Y-94152531D01*
X127124687Y-94152531D02*
X127029449Y-94200150D01*
X127029449Y-94200150D02*
X126981830Y-94247769D01*
X126981830Y-94247769D02*
X126934211Y-94343007D01*
X126934211Y-94343007D02*
X126886592Y-94533483D01*
X126886592Y-94533483D02*
X126886592Y-94771578D01*
X126886592Y-94771578D02*
X126934211Y-94962054D01*
X126934211Y-94962054D02*
X126981830Y-95057292D01*
X126981830Y-95057292D02*
X127029449Y-95104912D01*
X127029449Y-95104912D02*
X127124687Y-95152531D01*
X127124687Y-95152531D02*
X127219925Y-95152531D01*
X127219925Y-95152531D02*
X127315163Y-95104912D01*
X127315163Y-95104912D02*
X127362782Y-95057292D01*
X127362782Y-95057292D02*
X127410401Y-94962054D01*
X127410401Y-94962054D02*
X127458020Y-94771578D01*
X127458020Y-94771578D02*
X127458020Y-94533483D01*
X127458020Y-94533483D02*
X127410401Y-94343007D01*
X127410401Y-94343007D02*
X127362782Y-94247769D01*
X127362782Y-94247769D02*
X127315163Y-94200150D01*
X127315163Y-94200150D02*
X127219925Y-94152531D01*
X125743735Y-94104912D02*
X126600877Y-95390626D01*
X125410401Y-95152531D02*
X125410401Y-94152531D01*
X125410401Y-94152531D02*
X125029449Y-94152531D01*
X125029449Y-94152531D02*
X124934211Y-94200150D01*
X124934211Y-94200150D02*
X124886592Y-94247769D01*
X124886592Y-94247769D02*
X124838973Y-94343007D01*
X124838973Y-94343007D02*
X124838973Y-94485864D01*
X124838973Y-94485864D02*
X124886592Y-94581102D01*
X124886592Y-94581102D02*
X124934211Y-94628721D01*
X124934211Y-94628721D02*
X125029449Y-94676340D01*
X125029449Y-94676340D02*
X125410401Y-94676340D01*
X124458020Y-94866816D02*
X123981830Y-94866816D01*
X124553258Y-95152531D02*
X124219925Y-94152531D01*
X124219925Y-94152531D02*
X123886592Y-95152531D01*
X123029449Y-95152531D02*
X123600877Y-95152531D01*
X123315163Y-95152531D02*
X123315163Y-94152531D01*
X123315163Y-94152531D02*
X123410401Y-94295388D01*
X123410401Y-94295388D02*
X123505639Y-94390626D01*
X123505639Y-94390626D02*
X123600877Y-94438245D01*
X122458020Y-94581102D02*
X122553258Y-94533483D01*
X122553258Y-94533483D02*
X122600877Y-94485864D01*
X122600877Y-94485864D02*
X122648496Y-94390626D01*
X122648496Y-94390626D02*
X122648496Y-94343007D01*
X122648496Y-94343007D02*
X122600877Y-94247769D01*
X122600877Y-94247769D02*
X122553258Y-94200150D01*
X122553258Y-94200150D02*
X122458020Y-94152531D01*
X122458020Y-94152531D02*
X122267544Y-94152531D01*
X122267544Y-94152531D02*
X122172306Y-94200150D01*
X122172306Y-94200150D02*
X122124687Y-94247769D01*
X122124687Y-94247769D02*
X122077068Y-94343007D01*
X122077068Y-94343007D02*
X122077068Y-94390626D01*
X122077068Y-94390626D02*
X122124687Y-94485864D01*
X122124687Y-94485864D02*
X122172306Y-94533483D01*
X122172306Y-94533483D02*
X122267544Y-94581102D01*
X122267544Y-94581102D02*
X122458020Y-94581102D01*
X122458020Y-94581102D02*
X122553258Y-94628721D01*
X122553258Y-94628721D02*
X122600877Y-94676340D01*
X122600877Y-94676340D02*
X122648496Y-94771578D01*
X122648496Y-94771578D02*
X122648496Y-94962054D01*
X122648496Y-94962054D02*
X122600877Y-95057292D01*
X122600877Y-95057292D02*
X122553258Y-95104912D01*
X122553258Y-95104912D02*
X122458020Y-95152531D01*
X122458020Y-95152531D02*
X122267544Y-95152531D01*
X122267544Y-95152531D02*
X122172306Y-95104912D01*
X122172306Y-95104912D02*
X122124687Y-95057292D01*
X122124687Y-95057292D02*
X122077068Y-94962054D01*
X122077068Y-94962054D02*
X122077068Y-94771578D01*
X122077068Y-94771578D02*
X122124687Y-94676340D01*
X122124687Y-94676340D02*
X122172306Y-94628721D01*
X122172306Y-94628721D02*
X122267544Y-94581102D01*
X133172306Y-96762475D02*
X133743734Y-96762475D01*
X133458020Y-96762475D02*
X133458020Y-95762475D01*
X133458020Y-95762475D02*
X133553258Y-95905332D01*
X133553258Y-95905332D02*
X133648496Y-96000570D01*
X133648496Y-96000570D02*
X133743734Y-96048189D01*
X132219925Y-96762475D02*
X132791353Y-96762475D01*
X132505639Y-96762475D02*
X132505639Y-95762475D01*
X132505639Y-95762475D02*
X132600877Y-95905332D01*
X132600877Y-95905332D02*
X132696115Y-96000570D01*
X132696115Y-96000570D02*
X132791353Y-96048189D01*
X131791353Y-96667236D02*
X131743734Y-96714856D01*
X131743734Y-96714856D02*
X131791353Y-96762475D01*
X131791353Y-96762475D02*
X131838972Y-96714856D01*
X131838972Y-96714856D02*
X131791353Y-96667236D01*
X131791353Y-96667236D02*
X131791353Y-96762475D01*
X131791353Y-96143427D02*
X131743734Y-96191046D01*
X131743734Y-96191046D02*
X131791353Y-96238665D01*
X131791353Y-96238665D02*
X131838972Y-96191046D01*
X131838972Y-96191046D02*
X131791353Y-96143427D01*
X131791353Y-96143427D02*
X131791353Y-96238665D01*
X130743735Y-96667236D02*
X130791354Y-96714856D01*
X130791354Y-96714856D02*
X130934211Y-96762475D01*
X130934211Y-96762475D02*
X131029449Y-96762475D01*
X131029449Y-96762475D02*
X131172306Y-96714856D01*
X131172306Y-96714856D02*
X131267544Y-96619617D01*
X131267544Y-96619617D02*
X131315163Y-96524379D01*
X131315163Y-96524379D02*
X131362782Y-96333903D01*
X131362782Y-96333903D02*
X131362782Y-96191046D01*
X131362782Y-96191046D02*
X131315163Y-96000570D01*
X131315163Y-96000570D02*
X131267544Y-95905332D01*
X131267544Y-95905332D02*
X131172306Y-95810094D01*
X131172306Y-95810094D02*
X131029449Y-95762475D01*
X131029449Y-95762475D02*
X130934211Y-95762475D01*
X130934211Y-95762475D02*
X130791354Y-95810094D01*
X130791354Y-95810094D02*
X130743735Y-95857713D01*
X130362782Y-96476760D02*
X129886592Y-96476760D01*
X130458020Y-96762475D02*
X130124687Y-95762475D01*
X130124687Y-95762475D02*
X129791354Y-96762475D01*
X129458020Y-96762475D02*
X129458020Y-95762475D01*
X129458020Y-95762475D02*
X128886592Y-96762475D01*
X128886592Y-96762475D02*
X128886592Y-95762475D01*
X128553258Y-95762475D02*
X127981830Y-95762475D01*
X128267544Y-96762475D02*
X128267544Y-95762475D01*
X127743734Y-95762475D02*
X127077068Y-96762475D01*
X127077068Y-95762475D02*
X127743734Y-96762475D01*
X126505639Y-95762475D02*
X126410401Y-95762475D01*
X126410401Y-95762475D02*
X126315163Y-95810094D01*
X126315163Y-95810094D02*
X126267544Y-95857713D01*
X126267544Y-95857713D02*
X126219925Y-95952951D01*
X126219925Y-95952951D02*
X126172306Y-96143427D01*
X126172306Y-96143427D02*
X126172306Y-96381522D01*
X126172306Y-96381522D02*
X126219925Y-96571998D01*
X126219925Y-96571998D02*
X126267544Y-96667236D01*
X126267544Y-96667236D02*
X126315163Y-96714856D01*
X126315163Y-96714856D02*
X126410401Y-96762475D01*
X126410401Y-96762475D02*
X126505639Y-96762475D01*
X126505639Y-96762475D02*
X126600877Y-96714856D01*
X126600877Y-96714856D02*
X126648496Y-96667236D01*
X126648496Y-96667236D02*
X126696115Y-96571998D01*
X126696115Y-96571998D02*
X126743734Y-96381522D01*
X126743734Y-96381522D02*
X126743734Y-96143427D01*
X126743734Y-96143427D02*
X126696115Y-95952951D01*
X126696115Y-95952951D02*
X126648496Y-95857713D01*
X126648496Y-95857713D02*
X126600877Y-95810094D01*
X126600877Y-95810094D02*
X126505639Y-95762475D01*
X125029449Y-95714856D02*
X125886591Y-97000570D01*
X124696115Y-96762475D02*
X124696115Y-95762475D01*
X124696115Y-95762475D02*
X124315163Y-95762475D01*
X124315163Y-95762475D02*
X124219925Y-95810094D01*
X124219925Y-95810094D02*
X124172306Y-95857713D01*
X124172306Y-95857713D02*
X124124687Y-95952951D01*
X124124687Y-95952951D02*
X124124687Y-96095808D01*
X124124687Y-96095808D02*
X124172306Y-96191046D01*
X124172306Y-96191046D02*
X124219925Y-96238665D01*
X124219925Y-96238665D02*
X124315163Y-96286284D01*
X124315163Y-96286284D02*
X124696115Y-96286284D01*
X123743734Y-96476760D02*
X123267544Y-96476760D01*
X123838972Y-96762475D02*
X123505639Y-95762475D01*
X123505639Y-95762475D02*
X123172306Y-96762475D01*
X122648496Y-95762475D02*
X122553258Y-95762475D01*
X122553258Y-95762475D02*
X122458020Y-95810094D01*
X122458020Y-95810094D02*
X122410401Y-95857713D01*
X122410401Y-95857713D02*
X122362782Y-95952951D01*
X122362782Y-95952951D02*
X122315163Y-96143427D01*
X122315163Y-96143427D02*
X122315163Y-96381522D01*
X122315163Y-96381522D02*
X122362782Y-96571998D01*
X122362782Y-96571998D02*
X122410401Y-96667236D01*
X122410401Y-96667236D02*
X122458020Y-96714856D01*
X122458020Y-96714856D02*
X122553258Y-96762475D01*
X122553258Y-96762475D02*
X122648496Y-96762475D01*
X122648496Y-96762475D02*
X122743734Y-96714856D01*
X122743734Y-96714856D02*
X122791353Y-96667236D01*
X122791353Y-96667236D02*
X122838972Y-96571998D01*
X122838972Y-96571998D02*
X122886591Y-96381522D01*
X122886591Y-96381522D02*
X122886591Y-96143427D01*
X122886591Y-96143427D02*
X122838972Y-95952951D01*
X122838972Y-95952951D02*
X122791353Y-95857713D01*
X122791353Y-95857713D02*
X122743734Y-95810094D01*
X122743734Y-95810094D02*
X122648496Y-95762475D01*
X133172306Y-98372419D02*
X133743734Y-98372419D01*
X133458020Y-98372419D02*
X133458020Y-97372419D01*
X133458020Y-97372419D02*
X133553258Y-97515276D01*
X133553258Y-97515276D02*
X133648496Y-97610514D01*
X133648496Y-97610514D02*
X133743734Y-97658133D01*
X132791353Y-97467657D02*
X132743734Y-97420038D01*
X132743734Y-97420038D02*
X132648496Y-97372419D01*
X132648496Y-97372419D02*
X132410401Y-97372419D01*
X132410401Y-97372419D02*
X132315163Y-97420038D01*
X132315163Y-97420038D02*
X132267544Y-97467657D01*
X132267544Y-97467657D02*
X132219925Y-97562895D01*
X132219925Y-97562895D02*
X132219925Y-97658133D01*
X132219925Y-97658133D02*
X132267544Y-97800990D01*
X132267544Y-97800990D02*
X132838972Y-98372419D01*
X132838972Y-98372419D02*
X132219925Y-98372419D01*
X131791353Y-98277180D02*
X131743734Y-98324800D01*
X131743734Y-98324800D02*
X131791353Y-98372419D01*
X131791353Y-98372419D02*
X131838972Y-98324800D01*
X131838972Y-98324800D02*
X131791353Y-98277180D01*
X131791353Y-98277180D02*
X131791353Y-98372419D01*
X131791353Y-97753371D02*
X131743734Y-97800990D01*
X131743734Y-97800990D02*
X131791353Y-97848609D01*
X131791353Y-97848609D02*
X131838972Y-97800990D01*
X131838972Y-97800990D02*
X131791353Y-97753371D01*
X131791353Y-97753371D02*
X131791353Y-97848609D01*
X131458020Y-97372419D02*
X130886592Y-97372419D01*
X131172306Y-98372419D02*
X131172306Y-97372419D01*
X130648496Y-97372419D02*
X130410401Y-98372419D01*
X130410401Y-98372419D02*
X130219925Y-97658133D01*
X130219925Y-97658133D02*
X130029449Y-98372419D01*
X130029449Y-98372419D02*
X129791354Y-97372419D01*
X129410401Y-98372419D02*
X129410401Y-97372419D01*
X129410401Y-97372419D02*
X129172306Y-97372419D01*
X129172306Y-97372419D02*
X129029449Y-97420038D01*
X129029449Y-97420038D02*
X128934211Y-97515276D01*
X128934211Y-97515276D02*
X128886592Y-97610514D01*
X128886592Y-97610514D02*
X128838973Y-97800990D01*
X128838973Y-97800990D02*
X128838973Y-97943847D01*
X128838973Y-97943847D02*
X128886592Y-98134323D01*
X128886592Y-98134323D02*
X128934211Y-98229561D01*
X128934211Y-98229561D02*
X129029449Y-98324800D01*
X129029449Y-98324800D02*
X129172306Y-98372419D01*
X129172306Y-98372419D02*
X129410401Y-98372419D01*
X128219925Y-97372419D02*
X128124687Y-97372419D01*
X128124687Y-97372419D02*
X128029449Y-97420038D01*
X128029449Y-97420038D02*
X127981830Y-97467657D01*
X127981830Y-97467657D02*
X127934211Y-97562895D01*
X127934211Y-97562895D02*
X127886592Y-97753371D01*
X127886592Y-97753371D02*
X127886592Y-97991466D01*
X127886592Y-97991466D02*
X127934211Y-98181942D01*
X127934211Y-98181942D02*
X127981830Y-98277180D01*
X127981830Y-98277180D02*
X128029449Y-98324800D01*
X128029449Y-98324800D02*
X128124687Y-98372419D01*
X128124687Y-98372419D02*
X128219925Y-98372419D01*
X128219925Y-98372419D02*
X128315163Y-98324800D01*
X128315163Y-98324800D02*
X128362782Y-98277180D01*
X128362782Y-98277180D02*
X128410401Y-98181942D01*
X128410401Y-98181942D02*
X128458020Y-97991466D01*
X128458020Y-97991466D02*
X128458020Y-97753371D01*
X128458020Y-97753371D02*
X128410401Y-97562895D01*
X128410401Y-97562895D02*
X128362782Y-97467657D01*
X128362782Y-97467657D02*
X128315163Y-97420038D01*
X128315163Y-97420038D02*
X128219925Y-97372419D01*
X126743735Y-97324800D02*
X127600877Y-98610514D01*
X126410401Y-98372419D02*
X126410401Y-97372419D01*
X126410401Y-97372419D02*
X126029449Y-97372419D01*
X126029449Y-97372419D02*
X125934211Y-97420038D01*
X125934211Y-97420038D02*
X125886592Y-97467657D01*
X125886592Y-97467657D02*
X125838973Y-97562895D01*
X125838973Y-97562895D02*
X125838973Y-97705752D01*
X125838973Y-97705752D02*
X125886592Y-97800990D01*
X125886592Y-97800990D02*
X125934211Y-97848609D01*
X125934211Y-97848609D02*
X126029449Y-97896228D01*
X126029449Y-97896228D02*
X126410401Y-97896228D01*
X125458020Y-98086704D02*
X124981830Y-98086704D01*
X125553258Y-98372419D02*
X125219925Y-97372419D01*
X125219925Y-97372419D02*
X124886592Y-98372419D01*
X124029449Y-98372419D02*
X124600877Y-98372419D01*
X124315163Y-98372419D02*
X124315163Y-97372419D01*
X124315163Y-97372419D02*
X124410401Y-97515276D01*
X124410401Y-97515276D02*
X124505639Y-97610514D01*
X124505639Y-97610514D02*
X124600877Y-97658133D01*
X123696115Y-97372419D02*
X123029449Y-97372419D01*
X123029449Y-97372419D02*
X123458020Y-98372419D01*
D11*
X149154136Y-110268612D02*
X149654136Y-109554326D01*
X150011279Y-110268612D02*
X150011279Y-108768612D01*
X150011279Y-108768612D02*
X149439850Y-108768612D01*
X149439850Y-108768612D02*
X149296993Y-108840041D01*
X149296993Y-108840041D02*
X149225564Y-108911469D01*
X149225564Y-108911469D02*
X149154136Y-109054326D01*
X149154136Y-109054326D02*
X149154136Y-109268612D01*
X149154136Y-109268612D02*
X149225564Y-109411469D01*
X149225564Y-109411469D02*
X149296993Y-109482898D01*
X149296993Y-109482898D02*
X149439850Y-109554326D01*
X149439850Y-109554326D02*
X150011279Y-109554326D01*
X147939850Y-110197184D02*
X148082707Y-110268612D01*
X148082707Y-110268612D02*
X148368422Y-110268612D01*
X148368422Y-110268612D02*
X148511279Y-110197184D01*
X148511279Y-110197184D02*
X148582707Y-110054326D01*
X148582707Y-110054326D02*
X148582707Y-109482898D01*
X148582707Y-109482898D02*
X148511279Y-109340041D01*
X148511279Y-109340041D02*
X148368422Y-109268612D01*
X148368422Y-109268612D02*
X148082707Y-109268612D01*
X148082707Y-109268612D02*
X147939850Y-109340041D01*
X147939850Y-109340041D02*
X147868422Y-109482898D01*
X147868422Y-109482898D02*
X147868422Y-109625755D01*
X147868422Y-109625755D02*
X148582707Y-109768612D01*
X147225565Y-110268612D02*
X147225565Y-109268612D01*
X147225565Y-109411469D02*
X147154136Y-109340041D01*
X147154136Y-109340041D02*
X147011279Y-109268612D01*
X147011279Y-109268612D02*
X146796993Y-109268612D01*
X146796993Y-109268612D02*
X146654136Y-109340041D01*
X146654136Y-109340041D02*
X146582708Y-109482898D01*
X146582708Y-109482898D02*
X146582708Y-110268612D01*
X146582708Y-109482898D02*
X146511279Y-109340041D01*
X146511279Y-109340041D02*
X146368422Y-109268612D01*
X146368422Y-109268612D02*
X146154136Y-109268612D01*
X146154136Y-109268612D02*
X146011279Y-109340041D01*
X146011279Y-109340041D02*
X145939850Y-109482898D01*
X145939850Y-109482898D02*
X145939850Y-110268612D01*
X145011279Y-110268612D02*
X145154136Y-110197184D01*
X145154136Y-110197184D02*
X145225565Y-110125755D01*
X145225565Y-110125755D02*
X145296993Y-109982898D01*
X145296993Y-109982898D02*
X145296993Y-109554326D01*
X145296993Y-109554326D02*
X145225565Y-109411469D01*
X145225565Y-109411469D02*
X145154136Y-109340041D01*
X145154136Y-109340041D02*
X145011279Y-109268612D01*
X145011279Y-109268612D02*
X144796993Y-109268612D01*
X144796993Y-109268612D02*
X144654136Y-109340041D01*
X144654136Y-109340041D02*
X144582708Y-109411469D01*
X144582708Y-109411469D02*
X144511279Y-109554326D01*
X144511279Y-109554326D02*
X144511279Y-109982898D01*
X144511279Y-109982898D02*
X144582708Y-110125755D01*
X144582708Y-110125755D02*
X144654136Y-110197184D01*
X144654136Y-110197184D02*
X144796993Y-110268612D01*
X144796993Y-110268612D02*
X145011279Y-110268612D01*
X144082707Y-109268612D02*
X143511279Y-109268612D01*
X143868422Y-108768612D02*
X143868422Y-110054326D01*
X143868422Y-110054326D02*
X143796993Y-110197184D01*
X143796993Y-110197184D02*
X143654136Y-110268612D01*
X143654136Y-110268612D02*
X143511279Y-110268612D01*
X142439850Y-110197184D02*
X142582707Y-110268612D01*
X142582707Y-110268612D02*
X142868422Y-110268612D01*
X142868422Y-110268612D02*
X143011279Y-110197184D01*
X143011279Y-110197184D02*
X143082707Y-110054326D01*
X143082707Y-110054326D02*
X143082707Y-109482898D01*
X143082707Y-109482898D02*
X143011279Y-109340041D01*
X143011279Y-109340041D02*
X142868422Y-109268612D01*
X142868422Y-109268612D02*
X142582707Y-109268612D01*
X142582707Y-109268612D02*
X142439850Y-109340041D01*
X142439850Y-109340041D02*
X142368422Y-109482898D01*
X142368422Y-109482898D02*
X142368422Y-109625755D01*
X142368422Y-109625755D02*
X143082707Y-109768612D01*
X150082707Y-112254957D02*
X149368422Y-112254957D01*
X150225564Y-112683528D02*
X149725564Y-111183528D01*
X149725564Y-111183528D02*
X149225564Y-112683528D01*
X148082708Y-112612100D02*
X148225565Y-112683528D01*
X148225565Y-112683528D02*
X148511279Y-112683528D01*
X148511279Y-112683528D02*
X148654136Y-112612100D01*
X148654136Y-112612100D02*
X148725565Y-112540671D01*
X148725565Y-112540671D02*
X148796993Y-112397814D01*
X148796993Y-112397814D02*
X148796993Y-111969242D01*
X148796993Y-111969242D02*
X148725565Y-111826385D01*
X148725565Y-111826385D02*
X148654136Y-111754957D01*
X148654136Y-111754957D02*
X148511279Y-111683528D01*
X148511279Y-111683528D02*
X148225565Y-111683528D01*
X148225565Y-111683528D02*
X148082708Y-111754957D01*
X146796994Y-112612100D02*
X146939851Y-112683528D01*
X146939851Y-112683528D02*
X147225565Y-112683528D01*
X147225565Y-112683528D02*
X147368422Y-112612100D01*
X147368422Y-112612100D02*
X147439851Y-112540671D01*
X147439851Y-112540671D02*
X147511279Y-112397814D01*
X147511279Y-112397814D02*
X147511279Y-111969242D01*
X147511279Y-111969242D02*
X147439851Y-111826385D01*
X147439851Y-111826385D02*
X147368422Y-111754957D01*
X147368422Y-111754957D02*
X147225565Y-111683528D01*
X147225565Y-111683528D02*
X146939851Y-111683528D01*
X146939851Y-111683528D02*
X146796994Y-111754957D01*
X145582708Y-112612100D02*
X145725565Y-112683528D01*
X145725565Y-112683528D02*
X146011280Y-112683528D01*
X146011280Y-112683528D02*
X146154137Y-112612100D01*
X146154137Y-112612100D02*
X146225565Y-112469242D01*
X146225565Y-112469242D02*
X146225565Y-111897814D01*
X146225565Y-111897814D02*
X146154137Y-111754957D01*
X146154137Y-111754957D02*
X146011280Y-111683528D01*
X146011280Y-111683528D02*
X145725565Y-111683528D01*
X145725565Y-111683528D02*
X145582708Y-111754957D01*
X145582708Y-111754957D02*
X145511280Y-111897814D01*
X145511280Y-111897814D02*
X145511280Y-112040671D01*
X145511280Y-112040671D02*
X146225565Y-112183528D01*
X144939851Y-112612100D02*
X144796994Y-112683528D01*
X144796994Y-112683528D02*
X144511280Y-112683528D01*
X144511280Y-112683528D02*
X144368423Y-112612100D01*
X144368423Y-112612100D02*
X144296994Y-112469242D01*
X144296994Y-112469242D02*
X144296994Y-112397814D01*
X144296994Y-112397814D02*
X144368423Y-112254957D01*
X144368423Y-112254957D02*
X144511280Y-112183528D01*
X144511280Y-112183528D02*
X144725566Y-112183528D01*
X144725566Y-112183528D02*
X144868423Y-112112100D01*
X144868423Y-112112100D02*
X144939851Y-111969242D01*
X144939851Y-111969242D02*
X144939851Y-111897814D01*
X144939851Y-111897814D02*
X144868423Y-111754957D01*
X144868423Y-111754957D02*
X144725566Y-111683528D01*
X144725566Y-111683528D02*
X144511280Y-111683528D01*
X144511280Y-111683528D02*
X144368423Y-111754957D01*
X143725565Y-112612100D02*
X143582708Y-112683528D01*
X143582708Y-112683528D02*
X143296994Y-112683528D01*
X143296994Y-112683528D02*
X143154137Y-112612100D01*
X143154137Y-112612100D02*
X143082708Y-112469242D01*
X143082708Y-112469242D02*
X143082708Y-112397814D01*
X143082708Y-112397814D02*
X143154137Y-112254957D01*
X143154137Y-112254957D02*
X143296994Y-112183528D01*
X143296994Y-112183528D02*
X143511280Y-112183528D01*
X143511280Y-112183528D02*
X143654137Y-112112100D01*
X143654137Y-112112100D02*
X143725565Y-111969242D01*
X143725565Y-111969242D02*
X143725565Y-111897814D01*
X143725565Y-111897814D02*
X143654137Y-111754957D01*
X143654137Y-111754957D02*
X143511280Y-111683528D01*
X143511280Y-111683528D02*
X143296994Y-111683528D01*
X143296994Y-111683528D02*
X143154137Y-111754957D01*
X150225564Y-113598444D02*
X149368422Y-113598444D01*
X149796993Y-115098444D02*
X149796993Y-113598444D01*
X148868422Y-115098444D02*
X148868422Y-114098444D01*
X148868422Y-114384158D02*
X148796993Y-114241301D01*
X148796993Y-114241301D02*
X148725565Y-114169873D01*
X148725565Y-114169873D02*
X148582707Y-114098444D01*
X148582707Y-114098444D02*
X148439850Y-114098444D01*
X147725565Y-115098444D02*
X147868422Y-115027016D01*
X147868422Y-115027016D02*
X147939851Y-114955587D01*
X147939851Y-114955587D02*
X148011279Y-114812730D01*
X148011279Y-114812730D02*
X148011279Y-114384158D01*
X148011279Y-114384158D02*
X147939851Y-114241301D01*
X147939851Y-114241301D02*
X147868422Y-114169873D01*
X147868422Y-114169873D02*
X147725565Y-114098444D01*
X147725565Y-114098444D02*
X147511279Y-114098444D01*
X147511279Y-114098444D02*
X147368422Y-114169873D01*
X147368422Y-114169873D02*
X147296994Y-114241301D01*
X147296994Y-114241301D02*
X147225565Y-114384158D01*
X147225565Y-114384158D02*
X147225565Y-114812730D01*
X147225565Y-114812730D02*
X147296994Y-114955587D01*
X147296994Y-114955587D02*
X147368422Y-115027016D01*
X147368422Y-115027016D02*
X147511279Y-115098444D01*
X147511279Y-115098444D02*
X147725565Y-115098444D01*
X146582708Y-114098444D02*
X146582708Y-115384158D01*
X146582708Y-115384158D02*
X146654136Y-115527016D01*
X146654136Y-115527016D02*
X146796993Y-115598444D01*
X146796993Y-115598444D02*
X146868422Y-115598444D01*
X146582708Y-113598444D02*
X146654136Y-113669873D01*
X146654136Y-113669873D02*
X146582708Y-113741301D01*
X146582708Y-113741301D02*
X146511279Y-113669873D01*
X146511279Y-113669873D02*
X146582708Y-113598444D01*
X146582708Y-113598444D02*
X146582708Y-113741301D01*
X145225565Y-115098444D02*
X145225565Y-114312730D01*
X145225565Y-114312730D02*
X145296993Y-114169873D01*
X145296993Y-114169873D02*
X145439850Y-114098444D01*
X145439850Y-114098444D02*
X145725565Y-114098444D01*
X145725565Y-114098444D02*
X145868422Y-114169873D01*
X145225565Y-115027016D02*
X145368422Y-115098444D01*
X145368422Y-115098444D02*
X145725565Y-115098444D01*
X145725565Y-115098444D02*
X145868422Y-115027016D01*
X145868422Y-115027016D02*
X145939850Y-114884158D01*
X145939850Y-114884158D02*
X145939850Y-114741301D01*
X145939850Y-114741301D02*
X145868422Y-114598444D01*
X145868422Y-114598444D02*
X145725565Y-114527016D01*
X145725565Y-114527016D02*
X145368422Y-114527016D01*
X145368422Y-114527016D02*
X145225565Y-114455587D01*
X144511279Y-114098444D02*
X144511279Y-115098444D01*
X144511279Y-114241301D02*
X144439850Y-114169873D01*
X144439850Y-114169873D02*
X144296993Y-114098444D01*
X144296993Y-114098444D02*
X144082707Y-114098444D01*
X144082707Y-114098444D02*
X143939850Y-114169873D01*
X143939850Y-114169873D02*
X143868422Y-114312730D01*
X143868422Y-114312730D02*
X143868422Y-115098444D01*
D10*
X188232454Y-93042587D02*
X188232454Y-92042587D01*
X187565788Y-92042587D02*
X187375312Y-92042587D01*
X187375312Y-92042587D02*
X187280074Y-92090206D01*
X187280074Y-92090206D02*
X187184836Y-92185444D01*
X187184836Y-92185444D02*
X187137217Y-92375920D01*
X187137217Y-92375920D02*
X187137217Y-92709253D01*
X187137217Y-92709253D02*
X187184836Y-92899729D01*
X187184836Y-92899729D02*
X187280074Y-92994968D01*
X187280074Y-92994968D02*
X187375312Y-93042587D01*
X187375312Y-93042587D02*
X187565788Y-93042587D01*
X187565788Y-93042587D02*
X187661026Y-92994968D01*
X187661026Y-92994968D02*
X187756264Y-92899729D01*
X187756264Y-92899729D02*
X187803883Y-92709253D01*
X187803883Y-92709253D02*
X187803883Y-92375920D01*
X187803883Y-92375920D02*
X187756264Y-92185444D01*
X187756264Y-92185444D02*
X187661026Y-92090206D01*
X187661026Y-92090206D02*
X187565788Y-92042587D01*
X186232455Y-92042587D02*
X186708645Y-92042587D01*
X186708645Y-92042587D02*
X186756264Y-92518777D01*
X186756264Y-92518777D02*
X186708645Y-92471158D01*
X186708645Y-92471158D02*
X186613407Y-92423539D01*
X186613407Y-92423539D02*
X186375312Y-92423539D01*
X186375312Y-92423539D02*
X186280074Y-92471158D01*
X186280074Y-92471158D02*
X186232455Y-92518777D01*
X186232455Y-92518777D02*
X186184836Y-92614015D01*
X186184836Y-92614015D02*
X186184836Y-92852110D01*
X186184836Y-92852110D02*
X186232455Y-92947348D01*
X186232455Y-92947348D02*
X186280074Y-92994968D01*
X186280074Y-92994968D02*
X186375312Y-93042587D01*
X186375312Y-93042587D02*
X186613407Y-93042587D01*
X186613407Y-93042587D02*
X186708645Y-92994968D01*
X186708645Y-92994968D02*
X186756264Y-92947348D01*
X185756264Y-92947348D02*
X185708645Y-92994968D01*
X185708645Y-92994968D02*
X185756264Y-93042587D01*
X185756264Y-93042587D02*
X185803883Y-92994968D01*
X185803883Y-92994968D02*
X185756264Y-92947348D01*
X185756264Y-92947348D02*
X185756264Y-93042587D01*
X185756264Y-92423539D02*
X185708645Y-92471158D01*
X185708645Y-92471158D02*
X185756264Y-92518777D01*
X185756264Y-92518777D02*
X185803883Y-92471158D01*
X185803883Y-92471158D02*
X185756264Y-92423539D01*
X185756264Y-92423539D02*
X185756264Y-92518777D01*
X185327693Y-92137825D02*
X185280074Y-92090206D01*
X185280074Y-92090206D02*
X185184836Y-92042587D01*
X185184836Y-92042587D02*
X184946741Y-92042587D01*
X184946741Y-92042587D02*
X184851503Y-92090206D01*
X184851503Y-92090206D02*
X184803884Y-92137825D01*
X184803884Y-92137825D02*
X184756265Y-92233063D01*
X184756265Y-92233063D02*
X184756265Y-92328301D01*
X184756265Y-92328301D02*
X184803884Y-92471158D01*
X184803884Y-92471158D02*
X185375312Y-93042587D01*
X185375312Y-93042587D02*
X184756265Y-93042587D01*
X189184835Y-94652531D02*
X189184835Y-93652531D01*
X188518169Y-93652531D02*
X188327693Y-93652531D01*
X188327693Y-93652531D02*
X188232455Y-93700150D01*
X188232455Y-93700150D02*
X188137217Y-93795388D01*
X188137217Y-93795388D02*
X188089598Y-93985864D01*
X188089598Y-93985864D02*
X188089598Y-94319197D01*
X188089598Y-94319197D02*
X188137217Y-94509673D01*
X188137217Y-94509673D02*
X188232455Y-94604912D01*
X188232455Y-94604912D02*
X188327693Y-94652531D01*
X188327693Y-94652531D02*
X188518169Y-94652531D01*
X188518169Y-94652531D02*
X188613407Y-94604912D01*
X188613407Y-94604912D02*
X188708645Y-94509673D01*
X188708645Y-94509673D02*
X188756264Y-94319197D01*
X188756264Y-94319197D02*
X188756264Y-93985864D01*
X188756264Y-93985864D02*
X188708645Y-93795388D01*
X188708645Y-93795388D02*
X188613407Y-93700150D01*
X188613407Y-93700150D02*
X188518169Y-93652531D01*
X187137217Y-94652531D02*
X187708645Y-94652531D01*
X187422931Y-94652531D02*
X187422931Y-93652531D01*
X187422931Y-93652531D02*
X187518169Y-93795388D01*
X187518169Y-93795388D02*
X187613407Y-93890626D01*
X187613407Y-93890626D02*
X187708645Y-93938245D01*
X186565788Y-94081102D02*
X186661026Y-94033483D01*
X186661026Y-94033483D02*
X186708645Y-93985864D01*
X186708645Y-93985864D02*
X186756264Y-93890626D01*
X186756264Y-93890626D02*
X186756264Y-93843007D01*
X186756264Y-93843007D02*
X186708645Y-93747769D01*
X186708645Y-93747769D02*
X186661026Y-93700150D01*
X186661026Y-93700150D02*
X186565788Y-93652531D01*
X186565788Y-93652531D02*
X186375312Y-93652531D01*
X186375312Y-93652531D02*
X186280074Y-93700150D01*
X186280074Y-93700150D02*
X186232455Y-93747769D01*
X186232455Y-93747769D02*
X186184836Y-93843007D01*
X186184836Y-93843007D02*
X186184836Y-93890626D01*
X186184836Y-93890626D02*
X186232455Y-93985864D01*
X186232455Y-93985864D02*
X186280074Y-94033483D01*
X186280074Y-94033483D02*
X186375312Y-94081102D01*
X186375312Y-94081102D02*
X186565788Y-94081102D01*
X186565788Y-94081102D02*
X186661026Y-94128721D01*
X186661026Y-94128721D02*
X186708645Y-94176340D01*
X186708645Y-94176340D02*
X186756264Y-94271578D01*
X186756264Y-94271578D02*
X186756264Y-94462054D01*
X186756264Y-94462054D02*
X186708645Y-94557292D01*
X186708645Y-94557292D02*
X186661026Y-94604912D01*
X186661026Y-94604912D02*
X186565788Y-94652531D01*
X186565788Y-94652531D02*
X186375312Y-94652531D01*
X186375312Y-94652531D02*
X186280074Y-94604912D01*
X186280074Y-94604912D02*
X186232455Y-94557292D01*
X186232455Y-94557292D02*
X186184836Y-94462054D01*
X186184836Y-94462054D02*
X186184836Y-94271578D01*
X186184836Y-94271578D02*
X186232455Y-94176340D01*
X186232455Y-94176340D02*
X186280074Y-94128721D01*
X186280074Y-94128721D02*
X186375312Y-94081102D01*
X185756264Y-94557292D02*
X185708645Y-94604912D01*
X185708645Y-94604912D02*
X185756264Y-94652531D01*
X185756264Y-94652531D02*
X185803883Y-94604912D01*
X185803883Y-94604912D02*
X185756264Y-94557292D01*
X185756264Y-94557292D02*
X185756264Y-94652531D01*
X185756264Y-94033483D02*
X185708645Y-94081102D01*
X185708645Y-94081102D02*
X185756264Y-94128721D01*
X185756264Y-94128721D02*
X185803883Y-94081102D01*
X185803883Y-94081102D02*
X185756264Y-94033483D01*
X185756264Y-94033483D02*
X185756264Y-94128721D01*
X184851503Y-93985864D02*
X184851503Y-94652531D01*
X185089598Y-93604912D02*
X185327693Y-94319197D01*
X185327693Y-94319197D02*
X184708646Y-94319197D01*
X189184835Y-96262475D02*
X189184835Y-95262475D01*
X188518169Y-95262475D02*
X188327693Y-95262475D01*
X188327693Y-95262475D02*
X188232455Y-95310094D01*
X188232455Y-95310094D02*
X188137217Y-95405332D01*
X188137217Y-95405332D02*
X188089598Y-95595808D01*
X188089598Y-95595808D02*
X188089598Y-95929141D01*
X188089598Y-95929141D02*
X188137217Y-96119617D01*
X188137217Y-96119617D02*
X188232455Y-96214856D01*
X188232455Y-96214856D02*
X188327693Y-96262475D01*
X188327693Y-96262475D02*
X188518169Y-96262475D01*
X188518169Y-96262475D02*
X188613407Y-96214856D01*
X188613407Y-96214856D02*
X188708645Y-96119617D01*
X188708645Y-96119617D02*
X188756264Y-95929141D01*
X188756264Y-95929141D02*
X188756264Y-95595808D01*
X188756264Y-95595808D02*
X188708645Y-95405332D01*
X188708645Y-95405332D02*
X188613407Y-95310094D01*
X188613407Y-95310094D02*
X188518169Y-95262475D01*
X187137217Y-96262475D02*
X187708645Y-96262475D01*
X187422931Y-96262475D02*
X187422931Y-95262475D01*
X187422931Y-95262475D02*
X187518169Y-95405332D01*
X187518169Y-95405332D02*
X187613407Y-95500570D01*
X187613407Y-95500570D02*
X187708645Y-95548189D01*
X186661026Y-96262475D02*
X186470550Y-96262475D01*
X186470550Y-96262475D02*
X186375312Y-96214856D01*
X186375312Y-96214856D02*
X186327693Y-96167236D01*
X186327693Y-96167236D02*
X186232455Y-96024379D01*
X186232455Y-96024379D02*
X186184836Y-95833903D01*
X186184836Y-95833903D02*
X186184836Y-95452951D01*
X186184836Y-95452951D02*
X186232455Y-95357713D01*
X186232455Y-95357713D02*
X186280074Y-95310094D01*
X186280074Y-95310094D02*
X186375312Y-95262475D01*
X186375312Y-95262475D02*
X186565788Y-95262475D01*
X186565788Y-95262475D02*
X186661026Y-95310094D01*
X186661026Y-95310094D02*
X186708645Y-95357713D01*
X186708645Y-95357713D02*
X186756264Y-95452951D01*
X186756264Y-95452951D02*
X186756264Y-95691046D01*
X186756264Y-95691046D02*
X186708645Y-95786284D01*
X186708645Y-95786284D02*
X186661026Y-95833903D01*
X186661026Y-95833903D02*
X186565788Y-95881522D01*
X186565788Y-95881522D02*
X186375312Y-95881522D01*
X186375312Y-95881522D02*
X186280074Y-95833903D01*
X186280074Y-95833903D02*
X186232455Y-95786284D01*
X186232455Y-95786284D02*
X186184836Y-95691046D01*
X185756264Y-96167236D02*
X185708645Y-96214856D01*
X185708645Y-96214856D02*
X185756264Y-96262475D01*
X185756264Y-96262475D02*
X185803883Y-96214856D01*
X185803883Y-96214856D02*
X185756264Y-96167236D01*
X185756264Y-96167236D02*
X185756264Y-96262475D01*
X185756264Y-95643427D02*
X185708645Y-95691046D01*
X185708645Y-95691046D02*
X185756264Y-95738665D01*
X185756264Y-95738665D02*
X185803883Y-95691046D01*
X185803883Y-95691046D02*
X185756264Y-95643427D01*
X185756264Y-95643427D02*
X185756264Y-95738665D01*
X184851503Y-95262475D02*
X185041979Y-95262475D01*
X185041979Y-95262475D02*
X185137217Y-95310094D01*
X185137217Y-95310094D02*
X185184836Y-95357713D01*
X185184836Y-95357713D02*
X185280074Y-95500570D01*
X185280074Y-95500570D02*
X185327693Y-95691046D01*
X185327693Y-95691046D02*
X185327693Y-96071998D01*
X185327693Y-96071998D02*
X185280074Y-96167236D01*
X185280074Y-96167236D02*
X185232455Y-96214856D01*
X185232455Y-96214856D02*
X185137217Y-96262475D01*
X185137217Y-96262475D02*
X184946741Y-96262475D01*
X184946741Y-96262475D02*
X184851503Y-96214856D01*
X184851503Y-96214856D02*
X184803884Y-96167236D01*
X184803884Y-96167236D02*
X184756265Y-96071998D01*
X184756265Y-96071998D02*
X184756265Y-95833903D01*
X184756265Y-95833903D02*
X184803884Y-95738665D01*
X184803884Y-95738665D02*
X184851503Y-95691046D01*
X184851503Y-95691046D02*
X184946741Y-95643427D01*
X184946741Y-95643427D02*
X185137217Y-95643427D01*
X185137217Y-95643427D02*
X185232455Y-95691046D01*
X185232455Y-95691046D02*
X185280074Y-95738665D01*
X185280074Y-95738665D02*
X185327693Y-95833903D01*
X189184835Y-97872419D02*
X189184835Y-96872419D01*
X188518169Y-96872419D02*
X188327693Y-96872419D01*
X188327693Y-96872419D02*
X188232455Y-96920038D01*
X188232455Y-96920038D02*
X188137217Y-97015276D01*
X188137217Y-97015276D02*
X188089598Y-97205752D01*
X188089598Y-97205752D02*
X188089598Y-97539085D01*
X188089598Y-97539085D02*
X188137217Y-97729561D01*
X188137217Y-97729561D02*
X188232455Y-97824800D01*
X188232455Y-97824800D02*
X188327693Y-97872419D01*
X188327693Y-97872419D02*
X188518169Y-97872419D01*
X188518169Y-97872419D02*
X188613407Y-97824800D01*
X188613407Y-97824800D02*
X188708645Y-97729561D01*
X188708645Y-97729561D02*
X188756264Y-97539085D01*
X188756264Y-97539085D02*
X188756264Y-97205752D01*
X188756264Y-97205752D02*
X188708645Y-97015276D01*
X188708645Y-97015276D02*
X188613407Y-96920038D01*
X188613407Y-96920038D02*
X188518169Y-96872419D01*
X187708645Y-96967657D02*
X187661026Y-96920038D01*
X187661026Y-96920038D02*
X187565788Y-96872419D01*
X187565788Y-96872419D02*
X187327693Y-96872419D01*
X187327693Y-96872419D02*
X187232455Y-96920038D01*
X187232455Y-96920038D02*
X187184836Y-96967657D01*
X187184836Y-96967657D02*
X187137217Y-97062895D01*
X187137217Y-97062895D02*
X187137217Y-97158133D01*
X187137217Y-97158133D02*
X187184836Y-97300990D01*
X187184836Y-97300990D02*
X187756264Y-97872419D01*
X187756264Y-97872419D02*
X187137217Y-97872419D01*
X186184836Y-97872419D02*
X186756264Y-97872419D01*
X186470550Y-97872419D02*
X186470550Y-96872419D01*
X186470550Y-96872419D02*
X186565788Y-97015276D01*
X186565788Y-97015276D02*
X186661026Y-97110514D01*
X186661026Y-97110514D02*
X186756264Y-97158133D01*
X185756264Y-97777180D02*
X185708645Y-97824800D01*
X185708645Y-97824800D02*
X185756264Y-97872419D01*
X185756264Y-97872419D02*
X185803883Y-97824800D01*
X185803883Y-97824800D02*
X185756264Y-97777180D01*
X185756264Y-97777180D02*
X185756264Y-97872419D01*
X185756264Y-97253371D02*
X185708645Y-97300990D01*
X185708645Y-97300990D02*
X185756264Y-97348609D01*
X185756264Y-97348609D02*
X185803883Y-97300990D01*
X185803883Y-97300990D02*
X185756264Y-97253371D01*
X185756264Y-97253371D02*
X185756264Y-97348609D01*
X185137217Y-97300990D02*
X185232455Y-97253371D01*
X185232455Y-97253371D02*
X185280074Y-97205752D01*
X185280074Y-97205752D02*
X185327693Y-97110514D01*
X185327693Y-97110514D02*
X185327693Y-97062895D01*
X185327693Y-97062895D02*
X185280074Y-96967657D01*
X185280074Y-96967657D02*
X185232455Y-96920038D01*
X185232455Y-96920038D02*
X185137217Y-96872419D01*
X185137217Y-96872419D02*
X184946741Y-96872419D01*
X184946741Y-96872419D02*
X184851503Y-96920038D01*
X184851503Y-96920038D02*
X184803884Y-96967657D01*
X184803884Y-96967657D02*
X184756265Y-97062895D01*
X184756265Y-97062895D02*
X184756265Y-97110514D01*
X184756265Y-97110514D02*
X184803884Y-97205752D01*
X184803884Y-97205752D02*
X184851503Y-97253371D01*
X184851503Y-97253371D02*
X184946741Y-97300990D01*
X184946741Y-97300990D02*
X185137217Y-97300990D01*
X185137217Y-97300990D02*
X185232455Y-97348609D01*
X185232455Y-97348609D02*
X185280074Y-97396228D01*
X185280074Y-97396228D02*
X185327693Y-97491466D01*
X185327693Y-97491466D02*
X185327693Y-97681942D01*
X185327693Y-97681942D02*
X185280074Y-97777180D01*
X185280074Y-97777180D02*
X185232455Y-97824800D01*
X185232455Y-97824800D02*
X185137217Y-97872419D01*
X185137217Y-97872419D02*
X184946741Y-97872419D01*
X184946741Y-97872419D02*
X184851503Y-97824800D01*
X184851503Y-97824800D02*
X184803884Y-97777180D01*
X184803884Y-97777180D02*
X184756265Y-97681942D01*
X184756265Y-97681942D02*
X184756265Y-97491466D01*
X184756265Y-97491466D02*
X184803884Y-97396228D01*
X184803884Y-97396228D02*
X184851503Y-97348609D01*
X184851503Y-97348609D02*
X184946741Y-97300990D01*
X159172306Y-66822699D02*
X159743734Y-66822699D01*
X159458020Y-66822699D02*
X159458020Y-65822699D01*
X159458020Y-65822699D02*
X159553258Y-65965556D01*
X159553258Y-65965556D02*
X159648496Y-66060794D01*
X159648496Y-66060794D02*
X159743734Y-66108413D01*
X158743734Y-66727460D02*
X158696115Y-66775080D01*
X158696115Y-66775080D02*
X158743734Y-66822699D01*
X158743734Y-66822699D02*
X158791353Y-66775080D01*
X158791353Y-66775080D02*
X158743734Y-66727460D01*
X158743734Y-66727460D02*
X158743734Y-66822699D01*
X158743734Y-66203651D02*
X158696115Y-66251270D01*
X158696115Y-66251270D02*
X158743734Y-66298889D01*
X158743734Y-66298889D02*
X158791353Y-66251270D01*
X158791353Y-66251270D02*
X158743734Y-66203651D01*
X158743734Y-66203651D02*
X158743734Y-66298889D01*
X157743735Y-65870318D02*
X157838973Y-65822699D01*
X157838973Y-65822699D02*
X157981830Y-65822699D01*
X157981830Y-65822699D02*
X158124687Y-65870318D01*
X158124687Y-65870318D02*
X158219925Y-65965556D01*
X158219925Y-65965556D02*
X158267544Y-66060794D01*
X158267544Y-66060794D02*
X158315163Y-66251270D01*
X158315163Y-66251270D02*
X158315163Y-66394127D01*
X158315163Y-66394127D02*
X158267544Y-66584603D01*
X158267544Y-66584603D02*
X158219925Y-66679841D01*
X158219925Y-66679841D02*
X158124687Y-66775080D01*
X158124687Y-66775080D02*
X157981830Y-66822699D01*
X157981830Y-66822699D02*
X157886592Y-66822699D01*
X157886592Y-66822699D02*
X157743735Y-66775080D01*
X157743735Y-66775080D02*
X157696116Y-66727460D01*
X157696116Y-66727460D02*
X157696116Y-66394127D01*
X157696116Y-66394127D02*
X157886592Y-66394127D01*
X157267544Y-66822699D02*
X157267544Y-65822699D01*
X157267544Y-65822699D02*
X156696116Y-66822699D01*
X156696116Y-66822699D02*
X156696116Y-65822699D01*
X156219925Y-66822699D02*
X156219925Y-65822699D01*
X156219925Y-65822699D02*
X155981830Y-65822699D01*
X155981830Y-65822699D02*
X155838973Y-65870318D01*
X155838973Y-65870318D02*
X155743735Y-65965556D01*
X155743735Y-65965556D02*
X155696116Y-66060794D01*
X155696116Y-66060794D02*
X155648497Y-66251270D01*
X155648497Y-66251270D02*
X155648497Y-66394127D01*
X155648497Y-66394127D02*
X155696116Y-66584603D01*
X155696116Y-66584603D02*
X155743735Y-66679841D01*
X155743735Y-66679841D02*
X155838973Y-66775080D01*
X155838973Y-66775080D02*
X155981830Y-66822699D01*
X155981830Y-66822699D02*
X156219925Y-66822699D01*
X159743734Y-67527881D02*
X159696115Y-67480262D01*
X159696115Y-67480262D02*
X159600877Y-67432643D01*
X159600877Y-67432643D02*
X159362782Y-67432643D01*
X159362782Y-67432643D02*
X159267544Y-67480262D01*
X159267544Y-67480262D02*
X159219925Y-67527881D01*
X159219925Y-67527881D02*
X159172306Y-67623119D01*
X159172306Y-67623119D02*
X159172306Y-67718357D01*
X159172306Y-67718357D02*
X159219925Y-67861214D01*
X159219925Y-67861214D02*
X159791353Y-68432643D01*
X159791353Y-68432643D02*
X159172306Y-68432643D01*
X158743734Y-68337404D02*
X158696115Y-68385024D01*
X158696115Y-68385024D02*
X158743734Y-68432643D01*
X158743734Y-68432643D02*
X158791353Y-68385024D01*
X158791353Y-68385024D02*
X158743734Y-68337404D01*
X158743734Y-68337404D02*
X158743734Y-68432643D01*
X158743734Y-67813595D02*
X158696115Y-67861214D01*
X158696115Y-67861214D02*
X158743734Y-67908833D01*
X158743734Y-67908833D02*
X158791353Y-67861214D01*
X158791353Y-67861214D02*
X158743734Y-67813595D01*
X158743734Y-67813595D02*
X158743734Y-67908833D01*
X158267544Y-67432643D02*
X158267544Y-68242166D01*
X158267544Y-68242166D02*
X158219925Y-68337404D01*
X158219925Y-68337404D02*
X158172306Y-68385024D01*
X158172306Y-68385024D02*
X158077068Y-68432643D01*
X158077068Y-68432643D02*
X157886592Y-68432643D01*
X157886592Y-68432643D02*
X157791354Y-68385024D01*
X157791354Y-68385024D02*
X157743735Y-68337404D01*
X157743735Y-68337404D02*
X157696116Y-68242166D01*
X157696116Y-68242166D02*
X157696116Y-67432643D01*
X157362782Y-67432643D02*
X156791354Y-67432643D01*
X157077068Y-68432643D02*
X157077068Y-67432643D01*
X156553258Y-67432643D02*
X155886592Y-68432643D01*
X155886592Y-67432643D02*
X156553258Y-68432643D01*
X155505639Y-68432643D02*
X155505639Y-67432643D01*
X155505639Y-67432643D02*
X155267544Y-67432643D01*
X155267544Y-67432643D02*
X155124687Y-67480262D01*
X155124687Y-67480262D02*
X155029449Y-67575500D01*
X155029449Y-67575500D02*
X154981830Y-67670738D01*
X154981830Y-67670738D02*
X154934211Y-67861214D01*
X154934211Y-67861214D02*
X154934211Y-68004071D01*
X154934211Y-68004071D02*
X154981830Y-68194547D01*
X154981830Y-68194547D02*
X155029449Y-68289785D01*
X155029449Y-68289785D02*
X155124687Y-68385024D01*
X155124687Y-68385024D02*
X155267544Y-68432643D01*
X155267544Y-68432643D02*
X155505639Y-68432643D01*
X153791354Y-67385024D02*
X154648496Y-68670738D01*
X153458020Y-68432643D02*
X153458020Y-67432643D01*
X153458020Y-67432643D02*
X153077068Y-67432643D01*
X153077068Y-67432643D02*
X152981830Y-67480262D01*
X152981830Y-67480262D02*
X152934211Y-67527881D01*
X152934211Y-67527881D02*
X152886592Y-67623119D01*
X152886592Y-67623119D02*
X152886592Y-67765976D01*
X152886592Y-67765976D02*
X152934211Y-67861214D01*
X152934211Y-67861214D02*
X152981830Y-67908833D01*
X152981830Y-67908833D02*
X153077068Y-67956452D01*
X153077068Y-67956452D02*
X153458020Y-67956452D01*
X152505639Y-68146928D02*
X152029449Y-68146928D01*
X152600877Y-68432643D02*
X152267544Y-67432643D01*
X152267544Y-67432643D02*
X151934211Y-68432643D01*
X151553258Y-68432643D02*
X151362782Y-68432643D01*
X151362782Y-68432643D02*
X151267544Y-68385024D01*
X151267544Y-68385024D02*
X151219925Y-68337404D01*
X151219925Y-68337404D02*
X151124687Y-68194547D01*
X151124687Y-68194547D02*
X151077068Y-68004071D01*
X151077068Y-68004071D02*
X151077068Y-67623119D01*
X151077068Y-67623119D02*
X151124687Y-67527881D01*
X151124687Y-67527881D02*
X151172306Y-67480262D01*
X151172306Y-67480262D02*
X151267544Y-67432643D01*
X151267544Y-67432643D02*
X151458020Y-67432643D01*
X151458020Y-67432643D02*
X151553258Y-67480262D01*
X151553258Y-67480262D02*
X151600877Y-67527881D01*
X151600877Y-67527881D02*
X151648496Y-67623119D01*
X151648496Y-67623119D02*
X151648496Y-67861214D01*
X151648496Y-67861214D02*
X151600877Y-67956452D01*
X151600877Y-67956452D02*
X151553258Y-68004071D01*
X151553258Y-68004071D02*
X151458020Y-68051690D01*
X151458020Y-68051690D02*
X151267544Y-68051690D01*
X151267544Y-68051690D02*
X151172306Y-68004071D01*
X151172306Y-68004071D02*
X151124687Y-67956452D01*
X151124687Y-67956452D02*
X151077068Y-67861214D01*
X159791353Y-69042587D02*
X159172306Y-69042587D01*
X159172306Y-69042587D02*
X159505639Y-69423539D01*
X159505639Y-69423539D02*
X159362782Y-69423539D01*
X159362782Y-69423539D02*
X159267544Y-69471158D01*
X159267544Y-69471158D02*
X159219925Y-69518777D01*
X159219925Y-69518777D02*
X159172306Y-69614015D01*
X159172306Y-69614015D02*
X159172306Y-69852110D01*
X159172306Y-69852110D02*
X159219925Y-69947348D01*
X159219925Y-69947348D02*
X159267544Y-69994968D01*
X159267544Y-69994968D02*
X159362782Y-70042587D01*
X159362782Y-70042587D02*
X159648496Y-70042587D01*
X159648496Y-70042587D02*
X159743734Y-69994968D01*
X159743734Y-69994968D02*
X159791353Y-69947348D01*
X158743734Y-69947348D02*
X158696115Y-69994968D01*
X158696115Y-69994968D02*
X158743734Y-70042587D01*
X158743734Y-70042587D02*
X158791353Y-69994968D01*
X158791353Y-69994968D02*
X158743734Y-69947348D01*
X158743734Y-69947348D02*
X158743734Y-70042587D01*
X158743734Y-69423539D02*
X158696115Y-69471158D01*
X158696115Y-69471158D02*
X158743734Y-69518777D01*
X158743734Y-69518777D02*
X158791353Y-69471158D01*
X158791353Y-69471158D02*
X158743734Y-69423539D01*
X158743734Y-69423539D02*
X158743734Y-69518777D01*
X158267544Y-69042587D02*
X158267544Y-69852110D01*
X158267544Y-69852110D02*
X158219925Y-69947348D01*
X158219925Y-69947348D02*
X158172306Y-69994968D01*
X158172306Y-69994968D02*
X158077068Y-70042587D01*
X158077068Y-70042587D02*
X157886592Y-70042587D01*
X157886592Y-70042587D02*
X157791354Y-69994968D01*
X157791354Y-69994968D02*
X157743735Y-69947348D01*
X157743735Y-69947348D02*
X157696116Y-69852110D01*
X157696116Y-69852110D02*
X157696116Y-69042587D01*
X156648497Y-70042587D02*
X156981830Y-69566396D01*
X157219925Y-70042587D02*
X157219925Y-69042587D01*
X157219925Y-69042587D02*
X156838973Y-69042587D01*
X156838973Y-69042587D02*
X156743735Y-69090206D01*
X156743735Y-69090206D02*
X156696116Y-69137825D01*
X156696116Y-69137825D02*
X156648497Y-69233063D01*
X156648497Y-69233063D02*
X156648497Y-69375920D01*
X156648497Y-69375920D02*
X156696116Y-69471158D01*
X156696116Y-69471158D02*
X156743735Y-69518777D01*
X156743735Y-69518777D02*
X156838973Y-69566396D01*
X156838973Y-69566396D02*
X157219925Y-69566396D01*
X156315163Y-69042587D02*
X155648497Y-70042587D01*
X155648497Y-69042587D02*
X156315163Y-70042587D01*
X155267544Y-70042587D02*
X155267544Y-69042587D01*
X155267544Y-69042587D02*
X155029449Y-69042587D01*
X155029449Y-69042587D02*
X154886592Y-69090206D01*
X154886592Y-69090206D02*
X154791354Y-69185444D01*
X154791354Y-69185444D02*
X154743735Y-69280682D01*
X154743735Y-69280682D02*
X154696116Y-69471158D01*
X154696116Y-69471158D02*
X154696116Y-69614015D01*
X154696116Y-69614015D02*
X154743735Y-69804491D01*
X154743735Y-69804491D02*
X154791354Y-69899729D01*
X154791354Y-69899729D02*
X154886592Y-69994968D01*
X154886592Y-69994968D02*
X155029449Y-70042587D01*
X155029449Y-70042587D02*
X155267544Y-70042587D01*
X153553259Y-68994968D02*
X154410401Y-70280682D01*
X153219925Y-70042587D02*
X153219925Y-69042587D01*
X153219925Y-69042587D02*
X152838973Y-69042587D01*
X152838973Y-69042587D02*
X152743735Y-69090206D01*
X152743735Y-69090206D02*
X152696116Y-69137825D01*
X152696116Y-69137825D02*
X152648497Y-69233063D01*
X152648497Y-69233063D02*
X152648497Y-69375920D01*
X152648497Y-69375920D02*
X152696116Y-69471158D01*
X152696116Y-69471158D02*
X152743735Y-69518777D01*
X152743735Y-69518777D02*
X152838973Y-69566396D01*
X152838973Y-69566396D02*
X153219925Y-69566396D01*
X152267544Y-69756872D02*
X151791354Y-69756872D01*
X152362782Y-70042587D02*
X152029449Y-69042587D01*
X152029449Y-69042587D02*
X151696116Y-70042587D01*
X151219925Y-69471158D02*
X151315163Y-69423539D01*
X151315163Y-69423539D02*
X151362782Y-69375920D01*
X151362782Y-69375920D02*
X151410401Y-69280682D01*
X151410401Y-69280682D02*
X151410401Y-69233063D01*
X151410401Y-69233063D02*
X151362782Y-69137825D01*
X151362782Y-69137825D02*
X151315163Y-69090206D01*
X151315163Y-69090206D02*
X151219925Y-69042587D01*
X151219925Y-69042587D02*
X151029449Y-69042587D01*
X151029449Y-69042587D02*
X150934211Y-69090206D01*
X150934211Y-69090206D02*
X150886592Y-69137825D01*
X150886592Y-69137825D02*
X150838973Y-69233063D01*
X150838973Y-69233063D02*
X150838973Y-69280682D01*
X150838973Y-69280682D02*
X150886592Y-69375920D01*
X150886592Y-69375920D02*
X150934211Y-69423539D01*
X150934211Y-69423539D02*
X151029449Y-69471158D01*
X151029449Y-69471158D02*
X151219925Y-69471158D01*
X151219925Y-69471158D02*
X151315163Y-69518777D01*
X151315163Y-69518777D02*
X151362782Y-69566396D01*
X151362782Y-69566396D02*
X151410401Y-69661634D01*
X151410401Y-69661634D02*
X151410401Y-69852110D01*
X151410401Y-69852110D02*
X151362782Y-69947348D01*
X151362782Y-69947348D02*
X151315163Y-69994968D01*
X151315163Y-69994968D02*
X151219925Y-70042587D01*
X151219925Y-70042587D02*
X151029449Y-70042587D01*
X151029449Y-70042587D02*
X150934211Y-69994968D01*
X150934211Y-69994968D02*
X150886592Y-69947348D01*
X150886592Y-69947348D02*
X150838973Y-69852110D01*
X150838973Y-69852110D02*
X150838973Y-69661634D01*
X150838973Y-69661634D02*
X150886592Y-69566396D01*
X150886592Y-69566396D02*
X150934211Y-69518777D01*
X150934211Y-69518777D02*
X151029449Y-69471158D01*
X159267544Y-70985864D02*
X159267544Y-71652531D01*
X159505639Y-70604912D02*
X159743734Y-71319197D01*
X159743734Y-71319197D02*
X159124687Y-71319197D01*
X158743734Y-71557292D02*
X158696115Y-71604912D01*
X158696115Y-71604912D02*
X158743734Y-71652531D01*
X158743734Y-71652531D02*
X158791353Y-71604912D01*
X158791353Y-71604912D02*
X158743734Y-71557292D01*
X158743734Y-71557292D02*
X158743734Y-71652531D01*
X158743734Y-71033483D02*
X158696115Y-71081102D01*
X158696115Y-71081102D02*
X158743734Y-71128721D01*
X158743734Y-71128721D02*
X158791353Y-71081102D01*
X158791353Y-71081102D02*
X158743734Y-71033483D01*
X158743734Y-71033483D02*
X158743734Y-71128721D01*
X158362782Y-70652531D02*
X157743735Y-70652531D01*
X157743735Y-70652531D02*
X158077068Y-71033483D01*
X158077068Y-71033483D02*
X157934211Y-71033483D01*
X157934211Y-71033483D02*
X157838973Y-71081102D01*
X157838973Y-71081102D02*
X157791354Y-71128721D01*
X157791354Y-71128721D02*
X157743735Y-71223959D01*
X157743735Y-71223959D02*
X157743735Y-71462054D01*
X157743735Y-71462054D02*
X157791354Y-71557292D01*
X157791354Y-71557292D02*
X157838973Y-71604912D01*
X157838973Y-71604912D02*
X157934211Y-71652531D01*
X157934211Y-71652531D02*
X158219925Y-71652531D01*
X158219925Y-71652531D02*
X158315163Y-71604912D01*
X158315163Y-71604912D02*
X158362782Y-71557292D01*
X157315163Y-71557292D02*
X157267544Y-71604912D01*
X157267544Y-71604912D02*
X157315163Y-71652531D01*
X157315163Y-71652531D02*
X157362782Y-71604912D01*
X157362782Y-71604912D02*
X157315163Y-71557292D01*
X157315163Y-71557292D02*
X157315163Y-71652531D01*
X156934211Y-70652531D02*
X156315164Y-70652531D01*
X156315164Y-70652531D02*
X156648497Y-71033483D01*
X156648497Y-71033483D02*
X156505640Y-71033483D01*
X156505640Y-71033483D02*
X156410402Y-71081102D01*
X156410402Y-71081102D02*
X156362783Y-71128721D01*
X156362783Y-71128721D02*
X156315164Y-71223959D01*
X156315164Y-71223959D02*
X156315164Y-71462054D01*
X156315164Y-71462054D02*
X156362783Y-71557292D01*
X156362783Y-71557292D02*
X156410402Y-71604912D01*
X156410402Y-71604912D02*
X156505640Y-71652531D01*
X156505640Y-71652531D02*
X156791354Y-71652531D01*
X156791354Y-71652531D02*
X156886592Y-71604912D01*
X156886592Y-71604912D02*
X156934211Y-71557292D01*
X156029449Y-70652531D02*
X155696116Y-71652531D01*
X155696116Y-71652531D02*
X155362783Y-70652531D01*
X159219925Y-72262475D02*
X159696115Y-72262475D01*
X159696115Y-72262475D02*
X159743734Y-72738665D01*
X159743734Y-72738665D02*
X159696115Y-72691046D01*
X159696115Y-72691046D02*
X159600877Y-72643427D01*
X159600877Y-72643427D02*
X159362782Y-72643427D01*
X159362782Y-72643427D02*
X159267544Y-72691046D01*
X159267544Y-72691046D02*
X159219925Y-72738665D01*
X159219925Y-72738665D02*
X159172306Y-72833903D01*
X159172306Y-72833903D02*
X159172306Y-73071998D01*
X159172306Y-73071998D02*
X159219925Y-73167236D01*
X159219925Y-73167236D02*
X159267544Y-73214856D01*
X159267544Y-73214856D02*
X159362782Y-73262475D01*
X159362782Y-73262475D02*
X159600877Y-73262475D01*
X159600877Y-73262475D02*
X159696115Y-73214856D01*
X159696115Y-73214856D02*
X159743734Y-73167236D01*
X158743734Y-73167236D02*
X158696115Y-73214856D01*
X158696115Y-73214856D02*
X158743734Y-73262475D01*
X158743734Y-73262475D02*
X158791353Y-73214856D01*
X158791353Y-73214856D02*
X158743734Y-73167236D01*
X158743734Y-73167236D02*
X158743734Y-73262475D01*
X158743734Y-72643427D02*
X158696115Y-72691046D01*
X158696115Y-72691046D02*
X158743734Y-72738665D01*
X158743734Y-72738665D02*
X158791353Y-72691046D01*
X158791353Y-72691046D02*
X158743734Y-72643427D01*
X158743734Y-72643427D02*
X158743734Y-72738665D01*
X158267544Y-73262475D02*
X158267544Y-72262475D01*
X158267544Y-72262475D02*
X157696116Y-73262475D01*
X157696116Y-73262475D02*
X157696116Y-72262475D01*
X156648497Y-73262475D02*
X156981830Y-72786284D01*
X157219925Y-73262475D02*
X157219925Y-72262475D01*
X157219925Y-72262475D02*
X156838973Y-72262475D01*
X156838973Y-72262475D02*
X156743735Y-72310094D01*
X156743735Y-72310094D02*
X156696116Y-72357713D01*
X156696116Y-72357713D02*
X156648497Y-72452951D01*
X156648497Y-72452951D02*
X156648497Y-72595808D01*
X156648497Y-72595808D02*
X156696116Y-72691046D01*
X156696116Y-72691046D02*
X156743735Y-72738665D01*
X156743735Y-72738665D02*
X156838973Y-72786284D01*
X156838973Y-72786284D02*
X157219925Y-72786284D01*
X156267544Y-73214856D02*
X156124687Y-73262475D01*
X156124687Y-73262475D02*
X155886592Y-73262475D01*
X155886592Y-73262475D02*
X155791354Y-73214856D01*
X155791354Y-73214856D02*
X155743735Y-73167236D01*
X155743735Y-73167236D02*
X155696116Y-73071998D01*
X155696116Y-73071998D02*
X155696116Y-72976760D01*
X155696116Y-72976760D02*
X155743735Y-72881522D01*
X155743735Y-72881522D02*
X155791354Y-72833903D01*
X155791354Y-72833903D02*
X155886592Y-72786284D01*
X155886592Y-72786284D02*
X156077068Y-72738665D01*
X156077068Y-72738665D02*
X156172306Y-72691046D01*
X156172306Y-72691046D02*
X156219925Y-72643427D01*
X156219925Y-72643427D02*
X156267544Y-72548189D01*
X156267544Y-72548189D02*
X156267544Y-72452951D01*
X156267544Y-72452951D02*
X156219925Y-72357713D01*
X156219925Y-72357713D02*
X156172306Y-72310094D01*
X156172306Y-72310094D02*
X156077068Y-72262475D01*
X156077068Y-72262475D02*
X155838973Y-72262475D01*
X155838973Y-72262475D02*
X155696116Y-72310094D01*
X155410401Y-72262475D02*
X154838973Y-72262475D01*
X155124687Y-73262475D02*
X155124687Y-72262475D01*
X154172306Y-72738665D02*
X154029449Y-72786284D01*
X154029449Y-72786284D02*
X153981830Y-72833903D01*
X153981830Y-72833903D02*
X153934211Y-72929141D01*
X153934211Y-72929141D02*
X153934211Y-73071998D01*
X153934211Y-73071998D02*
X153981830Y-73167236D01*
X153981830Y-73167236D02*
X154029449Y-73214856D01*
X154029449Y-73214856D02*
X154124687Y-73262475D01*
X154124687Y-73262475D02*
X154505639Y-73262475D01*
X154505639Y-73262475D02*
X154505639Y-72262475D01*
X154505639Y-72262475D02*
X154172306Y-72262475D01*
X154172306Y-72262475D02*
X154077068Y-72310094D01*
X154077068Y-72310094D02*
X154029449Y-72357713D01*
X154029449Y-72357713D02*
X153981830Y-72452951D01*
X153981830Y-72452951D02*
X153981830Y-72548189D01*
X153981830Y-72548189D02*
X154029449Y-72643427D01*
X154029449Y-72643427D02*
X154077068Y-72691046D01*
X154077068Y-72691046D02*
X154172306Y-72738665D01*
X154172306Y-72738665D02*
X154505639Y-72738665D01*
X159267544Y-73872419D02*
X159458020Y-73872419D01*
X159458020Y-73872419D02*
X159553258Y-73920038D01*
X159553258Y-73920038D02*
X159600877Y-73967657D01*
X159600877Y-73967657D02*
X159696115Y-74110514D01*
X159696115Y-74110514D02*
X159743734Y-74300990D01*
X159743734Y-74300990D02*
X159743734Y-74681942D01*
X159743734Y-74681942D02*
X159696115Y-74777180D01*
X159696115Y-74777180D02*
X159648496Y-74824800D01*
X159648496Y-74824800D02*
X159553258Y-74872419D01*
X159553258Y-74872419D02*
X159362782Y-74872419D01*
X159362782Y-74872419D02*
X159267544Y-74824800D01*
X159267544Y-74824800D02*
X159219925Y-74777180D01*
X159219925Y-74777180D02*
X159172306Y-74681942D01*
X159172306Y-74681942D02*
X159172306Y-74443847D01*
X159172306Y-74443847D02*
X159219925Y-74348609D01*
X159219925Y-74348609D02*
X159267544Y-74300990D01*
X159267544Y-74300990D02*
X159362782Y-74253371D01*
X159362782Y-74253371D02*
X159553258Y-74253371D01*
X159553258Y-74253371D02*
X159648496Y-74300990D01*
X159648496Y-74300990D02*
X159696115Y-74348609D01*
X159696115Y-74348609D02*
X159743734Y-74443847D01*
X158743734Y-74777180D02*
X158696115Y-74824800D01*
X158696115Y-74824800D02*
X158743734Y-74872419D01*
X158743734Y-74872419D02*
X158791353Y-74824800D01*
X158791353Y-74824800D02*
X158743734Y-74777180D01*
X158743734Y-74777180D02*
X158743734Y-74872419D01*
X158743734Y-74253371D02*
X158696115Y-74300990D01*
X158696115Y-74300990D02*
X158743734Y-74348609D01*
X158743734Y-74348609D02*
X158791353Y-74300990D01*
X158791353Y-74300990D02*
X158743734Y-74253371D01*
X158743734Y-74253371D02*
X158743734Y-74348609D01*
X158267544Y-74348609D02*
X157934211Y-74348609D01*
X157791354Y-74872419D02*
X158267544Y-74872419D01*
X158267544Y-74872419D02*
X158267544Y-73872419D01*
X158267544Y-73872419D02*
X157791354Y-73872419D01*
X156791354Y-74872419D02*
X157124687Y-74396228D01*
X157362782Y-74872419D02*
X157362782Y-73872419D01*
X157362782Y-73872419D02*
X156981830Y-73872419D01*
X156981830Y-73872419D02*
X156886592Y-73920038D01*
X156886592Y-73920038D02*
X156838973Y-73967657D01*
X156838973Y-73967657D02*
X156791354Y-74062895D01*
X156791354Y-74062895D02*
X156791354Y-74205752D01*
X156791354Y-74205752D02*
X156838973Y-74300990D01*
X156838973Y-74300990D02*
X156886592Y-74348609D01*
X156886592Y-74348609D02*
X156981830Y-74396228D01*
X156981830Y-74396228D02*
X157362782Y-74396228D01*
X156410401Y-74586704D02*
X155934211Y-74586704D01*
X156505639Y-74872419D02*
X156172306Y-73872419D01*
X156172306Y-73872419D02*
X155838973Y-74872419D01*
X155553258Y-74824800D02*
X155410401Y-74872419D01*
X155410401Y-74872419D02*
X155172306Y-74872419D01*
X155172306Y-74872419D02*
X155077068Y-74824800D01*
X155077068Y-74824800D02*
X155029449Y-74777180D01*
X155029449Y-74777180D02*
X154981830Y-74681942D01*
X154981830Y-74681942D02*
X154981830Y-74586704D01*
X154981830Y-74586704D02*
X155029449Y-74491466D01*
X155029449Y-74491466D02*
X155077068Y-74443847D01*
X155077068Y-74443847D02*
X155172306Y-74396228D01*
X155172306Y-74396228D02*
X155362782Y-74348609D01*
X155362782Y-74348609D02*
X155458020Y-74300990D01*
X155458020Y-74300990D02*
X155505639Y-74253371D01*
X155505639Y-74253371D02*
X155553258Y-74158133D01*
X155553258Y-74158133D02*
X155553258Y-74062895D01*
X155553258Y-74062895D02*
X155505639Y-73967657D01*
X155505639Y-73967657D02*
X155458020Y-73920038D01*
X155458020Y-73920038D02*
X155362782Y-73872419D01*
X155362782Y-73872419D02*
X155124687Y-73872419D01*
X155124687Y-73872419D02*
X154981830Y-73920038D01*
X154553258Y-74348609D02*
X154219925Y-74348609D01*
X154077068Y-74872419D02*
X154553258Y-74872419D01*
X154553258Y-74872419D02*
X154553258Y-73872419D01*
X154553258Y-73872419D02*
X154077068Y-73872419D01*
X152934211Y-73824800D02*
X153791353Y-75110514D01*
X152600877Y-74872419D02*
X152600877Y-73872419D01*
X152600877Y-73872419D02*
X152219925Y-73872419D01*
X152219925Y-73872419D02*
X152124687Y-73920038D01*
X152124687Y-73920038D02*
X152077068Y-73967657D01*
X152077068Y-73967657D02*
X152029449Y-74062895D01*
X152029449Y-74062895D02*
X152029449Y-74205752D01*
X152029449Y-74205752D02*
X152077068Y-74300990D01*
X152077068Y-74300990D02*
X152124687Y-74348609D01*
X152124687Y-74348609D02*
X152219925Y-74396228D01*
X152219925Y-74396228D02*
X152600877Y-74396228D01*
X151029449Y-74777180D02*
X151077068Y-74824800D01*
X151077068Y-74824800D02*
X151219925Y-74872419D01*
X151219925Y-74872419D02*
X151315163Y-74872419D01*
X151315163Y-74872419D02*
X151458020Y-74824800D01*
X151458020Y-74824800D02*
X151553258Y-74729561D01*
X151553258Y-74729561D02*
X151600877Y-74634323D01*
X151600877Y-74634323D02*
X151648496Y-74443847D01*
X151648496Y-74443847D02*
X151648496Y-74300990D01*
X151648496Y-74300990D02*
X151600877Y-74110514D01*
X151600877Y-74110514D02*
X151553258Y-74015276D01*
X151553258Y-74015276D02*
X151458020Y-73920038D01*
X151458020Y-73920038D02*
X151315163Y-73872419D01*
X151315163Y-73872419D02*
X151219925Y-73872419D01*
X151219925Y-73872419D02*
X151077068Y-73920038D01*
X151077068Y-73920038D02*
X151029449Y-73967657D01*
X150410401Y-73872419D02*
X150315163Y-73872419D01*
X150315163Y-73872419D02*
X150219925Y-73920038D01*
X150219925Y-73920038D02*
X150172306Y-73967657D01*
X150172306Y-73967657D02*
X150124687Y-74062895D01*
X150124687Y-74062895D02*
X150077068Y-74253371D01*
X150077068Y-74253371D02*
X150077068Y-74491466D01*
X150077068Y-74491466D02*
X150124687Y-74681942D01*
X150124687Y-74681942D02*
X150172306Y-74777180D01*
X150172306Y-74777180D02*
X150219925Y-74824800D01*
X150219925Y-74824800D02*
X150315163Y-74872419D01*
X150315163Y-74872419D02*
X150410401Y-74872419D01*
X150410401Y-74872419D02*
X150505639Y-74824800D01*
X150505639Y-74824800D02*
X150553258Y-74777180D01*
X150553258Y-74777180D02*
X150600877Y-74681942D01*
X150600877Y-74681942D02*
X150648496Y-74491466D01*
X150648496Y-74491466D02*
X150648496Y-74253371D01*
X150648496Y-74253371D02*
X150600877Y-74062895D01*
X150600877Y-74062895D02*
X150553258Y-73967657D01*
X150553258Y-73967657D02*
X150505639Y-73920038D01*
X150505639Y-73920038D02*
X150410401Y-73872419D01*
X184672306Y-76322699D02*
X185243734Y-76322699D01*
X184958020Y-76322699D02*
X184958020Y-75322699D01*
X184958020Y-75322699D02*
X185053258Y-75465556D01*
X185053258Y-75465556D02*
X185148496Y-75560794D01*
X185148496Y-75560794D02*
X185243734Y-75608413D01*
X184243734Y-76227460D02*
X184196115Y-76275080D01*
X184196115Y-76275080D02*
X184243734Y-76322699D01*
X184243734Y-76322699D02*
X184291353Y-76275080D01*
X184291353Y-76275080D02*
X184243734Y-76227460D01*
X184243734Y-76227460D02*
X184243734Y-76322699D01*
X184243734Y-75703651D02*
X184196115Y-75751270D01*
X184196115Y-75751270D02*
X184243734Y-75798889D01*
X184243734Y-75798889D02*
X184291353Y-75751270D01*
X184291353Y-75751270D02*
X184243734Y-75703651D01*
X184243734Y-75703651D02*
X184243734Y-75798889D01*
X183243735Y-75370318D02*
X183338973Y-75322699D01*
X183338973Y-75322699D02*
X183481830Y-75322699D01*
X183481830Y-75322699D02*
X183624687Y-75370318D01*
X183624687Y-75370318D02*
X183719925Y-75465556D01*
X183719925Y-75465556D02*
X183767544Y-75560794D01*
X183767544Y-75560794D02*
X183815163Y-75751270D01*
X183815163Y-75751270D02*
X183815163Y-75894127D01*
X183815163Y-75894127D02*
X183767544Y-76084603D01*
X183767544Y-76084603D02*
X183719925Y-76179841D01*
X183719925Y-76179841D02*
X183624687Y-76275080D01*
X183624687Y-76275080D02*
X183481830Y-76322699D01*
X183481830Y-76322699D02*
X183386592Y-76322699D01*
X183386592Y-76322699D02*
X183243735Y-76275080D01*
X183243735Y-76275080D02*
X183196116Y-76227460D01*
X183196116Y-76227460D02*
X183196116Y-75894127D01*
X183196116Y-75894127D02*
X183386592Y-75894127D01*
X182767544Y-76322699D02*
X182767544Y-75322699D01*
X182767544Y-75322699D02*
X182196116Y-76322699D01*
X182196116Y-76322699D02*
X182196116Y-75322699D01*
X181719925Y-76322699D02*
X181719925Y-75322699D01*
X181719925Y-75322699D02*
X181481830Y-75322699D01*
X181481830Y-75322699D02*
X181338973Y-75370318D01*
X181338973Y-75370318D02*
X181243735Y-75465556D01*
X181243735Y-75465556D02*
X181196116Y-75560794D01*
X181196116Y-75560794D02*
X181148497Y-75751270D01*
X181148497Y-75751270D02*
X181148497Y-75894127D01*
X181148497Y-75894127D02*
X181196116Y-76084603D01*
X181196116Y-76084603D02*
X181243735Y-76179841D01*
X181243735Y-76179841D02*
X181338973Y-76275080D01*
X181338973Y-76275080D02*
X181481830Y-76322699D01*
X181481830Y-76322699D02*
X181719925Y-76322699D01*
X185243734Y-77027881D02*
X185196115Y-76980262D01*
X185196115Y-76980262D02*
X185100877Y-76932643D01*
X185100877Y-76932643D02*
X184862782Y-76932643D01*
X184862782Y-76932643D02*
X184767544Y-76980262D01*
X184767544Y-76980262D02*
X184719925Y-77027881D01*
X184719925Y-77027881D02*
X184672306Y-77123119D01*
X184672306Y-77123119D02*
X184672306Y-77218357D01*
X184672306Y-77218357D02*
X184719925Y-77361214D01*
X184719925Y-77361214D02*
X185291353Y-77932643D01*
X185291353Y-77932643D02*
X184672306Y-77932643D01*
X184243734Y-77837404D02*
X184196115Y-77885024D01*
X184196115Y-77885024D02*
X184243734Y-77932643D01*
X184243734Y-77932643D02*
X184291353Y-77885024D01*
X184291353Y-77885024D02*
X184243734Y-77837404D01*
X184243734Y-77837404D02*
X184243734Y-77932643D01*
X184243734Y-77313595D02*
X184196115Y-77361214D01*
X184196115Y-77361214D02*
X184243734Y-77408833D01*
X184243734Y-77408833D02*
X184291353Y-77361214D01*
X184291353Y-77361214D02*
X184243734Y-77313595D01*
X184243734Y-77313595D02*
X184243734Y-77408833D01*
X183910401Y-76932643D02*
X183338973Y-76932643D01*
X183624687Y-77932643D02*
X183624687Y-76932643D01*
X183100877Y-76932643D02*
X182434211Y-77932643D01*
X182434211Y-76932643D02*
X183100877Y-77932643D01*
X182053258Y-77932643D02*
X182053258Y-76932643D01*
X182053258Y-76932643D02*
X181815163Y-76932643D01*
X181815163Y-76932643D02*
X181672306Y-76980262D01*
X181672306Y-76980262D02*
X181577068Y-77075500D01*
X181577068Y-77075500D02*
X181529449Y-77170738D01*
X181529449Y-77170738D02*
X181481830Y-77361214D01*
X181481830Y-77361214D02*
X181481830Y-77504071D01*
X181481830Y-77504071D02*
X181529449Y-77694547D01*
X181529449Y-77694547D02*
X181577068Y-77789785D01*
X181577068Y-77789785D02*
X181672306Y-77885024D01*
X181672306Y-77885024D02*
X181815163Y-77932643D01*
X181815163Y-77932643D02*
X182053258Y-77932643D01*
X180862782Y-76932643D02*
X180767544Y-76932643D01*
X180767544Y-76932643D02*
X180672306Y-76980262D01*
X180672306Y-76980262D02*
X180624687Y-77027881D01*
X180624687Y-77027881D02*
X180577068Y-77123119D01*
X180577068Y-77123119D02*
X180529449Y-77313595D01*
X180529449Y-77313595D02*
X180529449Y-77551690D01*
X180529449Y-77551690D02*
X180577068Y-77742166D01*
X180577068Y-77742166D02*
X180624687Y-77837404D01*
X180624687Y-77837404D02*
X180672306Y-77885024D01*
X180672306Y-77885024D02*
X180767544Y-77932643D01*
X180767544Y-77932643D02*
X180862782Y-77932643D01*
X180862782Y-77932643D02*
X180958020Y-77885024D01*
X180958020Y-77885024D02*
X181005639Y-77837404D01*
X181005639Y-77837404D02*
X181053258Y-77742166D01*
X181053258Y-77742166D02*
X181100877Y-77551690D01*
X181100877Y-77551690D02*
X181100877Y-77313595D01*
X181100877Y-77313595D02*
X181053258Y-77123119D01*
X181053258Y-77123119D02*
X181005639Y-77027881D01*
X181005639Y-77027881D02*
X180958020Y-76980262D01*
X180958020Y-76980262D02*
X180862782Y-76932643D01*
X185291353Y-78542587D02*
X184672306Y-78542587D01*
X184672306Y-78542587D02*
X185005639Y-78923539D01*
X185005639Y-78923539D02*
X184862782Y-78923539D01*
X184862782Y-78923539D02*
X184767544Y-78971158D01*
X184767544Y-78971158D02*
X184719925Y-79018777D01*
X184719925Y-79018777D02*
X184672306Y-79114015D01*
X184672306Y-79114015D02*
X184672306Y-79352110D01*
X184672306Y-79352110D02*
X184719925Y-79447348D01*
X184719925Y-79447348D02*
X184767544Y-79494968D01*
X184767544Y-79494968D02*
X184862782Y-79542587D01*
X184862782Y-79542587D02*
X185148496Y-79542587D01*
X185148496Y-79542587D02*
X185243734Y-79494968D01*
X185243734Y-79494968D02*
X185291353Y-79447348D01*
X184243734Y-79447348D02*
X184196115Y-79494968D01*
X184196115Y-79494968D02*
X184243734Y-79542587D01*
X184243734Y-79542587D02*
X184291353Y-79494968D01*
X184291353Y-79494968D02*
X184243734Y-79447348D01*
X184243734Y-79447348D02*
X184243734Y-79542587D01*
X184243734Y-78923539D02*
X184196115Y-78971158D01*
X184196115Y-78971158D02*
X184243734Y-79018777D01*
X184243734Y-79018777D02*
X184291353Y-78971158D01*
X184291353Y-78971158D02*
X184243734Y-78923539D01*
X184243734Y-78923539D02*
X184243734Y-79018777D01*
X183196116Y-79542587D02*
X183529449Y-79066396D01*
X183767544Y-79542587D02*
X183767544Y-78542587D01*
X183767544Y-78542587D02*
X183386592Y-78542587D01*
X183386592Y-78542587D02*
X183291354Y-78590206D01*
X183291354Y-78590206D02*
X183243735Y-78637825D01*
X183243735Y-78637825D02*
X183196116Y-78733063D01*
X183196116Y-78733063D02*
X183196116Y-78875920D01*
X183196116Y-78875920D02*
X183243735Y-78971158D01*
X183243735Y-78971158D02*
X183291354Y-79018777D01*
X183291354Y-79018777D02*
X183386592Y-79066396D01*
X183386592Y-79066396D02*
X183767544Y-79066396D01*
X182862782Y-78542587D02*
X182196116Y-79542587D01*
X182196116Y-78542587D02*
X182862782Y-79542587D01*
X181815163Y-79542587D02*
X181815163Y-78542587D01*
X181815163Y-78542587D02*
X181577068Y-78542587D01*
X181577068Y-78542587D02*
X181434211Y-78590206D01*
X181434211Y-78590206D02*
X181338973Y-78685444D01*
X181338973Y-78685444D02*
X181291354Y-78780682D01*
X181291354Y-78780682D02*
X181243735Y-78971158D01*
X181243735Y-78971158D02*
X181243735Y-79114015D01*
X181243735Y-79114015D02*
X181291354Y-79304491D01*
X181291354Y-79304491D02*
X181338973Y-79399729D01*
X181338973Y-79399729D02*
X181434211Y-79494968D01*
X181434211Y-79494968D02*
X181577068Y-79542587D01*
X181577068Y-79542587D02*
X181815163Y-79542587D01*
X180624687Y-78542587D02*
X180529449Y-78542587D01*
X180529449Y-78542587D02*
X180434211Y-78590206D01*
X180434211Y-78590206D02*
X180386592Y-78637825D01*
X180386592Y-78637825D02*
X180338973Y-78733063D01*
X180338973Y-78733063D02*
X180291354Y-78923539D01*
X180291354Y-78923539D02*
X180291354Y-79161634D01*
X180291354Y-79161634D02*
X180338973Y-79352110D01*
X180338973Y-79352110D02*
X180386592Y-79447348D01*
X180386592Y-79447348D02*
X180434211Y-79494968D01*
X180434211Y-79494968D02*
X180529449Y-79542587D01*
X180529449Y-79542587D02*
X180624687Y-79542587D01*
X180624687Y-79542587D02*
X180719925Y-79494968D01*
X180719925Y-79494968D02*
X180767544Y-79447348D01*
X180767544Y-79447348D02*
X180815163Y-79352110D01*
X180815163Y-79352110D02*
X180862782Y-79161634D01*
X180862782Y-79161634D02*
X180862782Y-78923539D01*
X180862782Y-78923539D02*
X180815163Y-78733063D01*
X180815163Y-78733063D02*
X180767544Y-78637825D01*
X180767544Y-78637825D02*
X180719925Y-78590206D01*
X180719925Y-78590206D02*
X180624687Y-78542587D01*
X184767544Y-80485864D02*
X184767544Y-81152531D01*
X185005639Y-80104912D02*
X185243734Y-80819197D01*
X185243734Y-80819197D02*
X184624687Y-80819197D01*
X184243734Y-81057292D02*
X184196115Y-81104912D01*
X184196115Y-81104912D02*
X184243734Y-81152531D01*
X184243734Y-81152531D02*
X184291353Y-81104912D01*
X184291353Y-81104912D02*
X184243734Y-81057292D01*
X184243734Y-81057292D02*
X184243734Y-81152531D01*
X184243734Y-80533483D02*
X184196115Y-80581102D01*
X184196115Y-80581102D02*
X184243734Y-80628721D01*
X184243734Y-80628721D02*
X184291353Y-80581102D01*
X184291353Y-80581102D02*
X184243734Y-80533483D01*
X184243734Y-80533483D02*
X184243734Y-80628721D01*
X183862782Y-80152531D02*
X183243735Y-80152531D01*
X183243735Y-80152531D02*
X183577068Y-80533483D01*
X183577068Y-80533483D02*
X183434211Y-80533483D01*
X183434211Y-80533483D02*
X183338973Y-80581102D01*
X183338973Y-80581102D02*
X183291354Y-80628721D01*
X183291354Y-80628721D02*
X183243735Y-80723959D01*
X183243735Y-80723959D02*
X183243735Y-80962054D01*
X183243735Y-80962054D02*
X183291354Y-81057292D01*
X183291354Y-81057292D02*
X183338973Y-81104912D01*
X183338973Y-81104912D02*
X183434211Y-81152531D01*
X183434211Y-81152531D02*
X183719925Y-81152531D01*
X183719925Y-81152531D02*
X183815163Y-81104912D01*
X183815163Y-81104912D02*
X183862782Y-81057292D01*
X182815163Y-81057292D02*
X182767544Y-81104912D01*
X182767544Y-81104912D02*
X182815163Y-81152531D01*
X182815163Y-81152531D02*
X182862782Y-81104912D01*
X182862782Y-81104912D02*
X182815163Y-81057292D01*
X182815163Y-81057292D02*
X182815163Y-81152531D01*
X182434211Y-80152531D02*
X181815164Y-80152531D01*
X181815164Y-80152531D02*
X182148497Y-80533483D01*
X182148497Y-80533483D02*
X182005640Y-80533483D01*
X182005640Y-80533483D02*
X181910402Y-80581102D01*
X181910402Y-80581102D02*
X181862783Y-80628721D01*
X181862783Y-80628721D02*
X181815164Y-80723959D01*
X181815164Y-80723959D02*
X181815164Y-80962054D01*
X181815164Y-80962054D02*
X181862783Y-81057292D01*
X181862783Y-81057292D02*
X181910402Y-81104912D01*
X181910402Y-81104912D02*
X182005640Y-81152531D01*
X182005640Y-81152531D02*
X182291354Y-81152531D01*
X182291354Y-81152531D02*
X182386592Y-81104912D01*
X182386592Y-81104912D02*
X182434211Y-81057292D01*
X181529449Y-80152531D02*
X181196116Y-81152531D01*
X181196116Y-81152531D02*
X180862783Y-80152531D01*
X184719925Y-81762475D02*
X185196115Y-81762475D01*
X185196115Y-81762475D02*
X185243734Y-82238665D01*
X185243734Y-82238665D02*
X185196115Y-82191046D01*
X185196115Y-82191046D02*
X185100877Y-82143427D01*
X185100877Y-82143427D02*
X184862782Y-82143427D01*
X184862782Y-82143427D02*
X184767544Y-82191046D01*
X184767544Y-82191046D02*
X184719925Y-82238665D01*
X184719925Y-82238665D02*
X184672306Y-82333903D01*
X184672306Y-82333903D02*
X184672306Y-82571998D01*
X184672306Y-82571998D02*
X184719925Y-82667236D01*
X184719925Y-82667236D02*
X184767544Y-82714856D01*
X184767544Y-82714856D02*
X184862782Y-82762475D01*
X184862782Y-82762475D02*
X185100877Y-82762475D01*
X185100877Y-82762475D02*
X185196115Y-82714856D01*
X185196115Y-82714856D02*
X185243734Y-82667236D01*
X184243734Y-82667236D02*
X184196115Y-82714856D01*
X184196115Y-82714856D02*
X184243734Y-82762475D01*
X184243734Y-82762475D02*
X184291353Y-82714856D01*
X184291353Y-82714856D02*
X184243734Y-82667236D01*
X184243734Y-82667236D02*
X184243734Y-82762475D01*
X184243734Y-82143427D02*
X184196115Y-82191046D01*
X184196115Y-82191046D02*
X184243734Y-82238665D01*
X184243734Y-82238665D02*
X184291353Y-82191046D01*
X184291353Y-82191046D02*
X184243734Y-82143427D01*
X184243734Y-82143427D02*
X184243734Y-82238665D01*
X183767544Y-82238665D02*
X183434211Y-82238665D01*
X183291354Y-82762475D02*
X183767544Y-82762475D01*
X183767544Y-82762475D02*
X183767544Y-81762475D01*
X183767544Y-81762475D02*
X183291354Y-81762475D01*
X182862782Y-82762475D02*
X182862782Y-81762475D01*
X182862782Y-81762475D02*
X182291354Y-82762475D01*
X182291354Y-82762475D02*
X182291354Y-81762475D01*
X184767544Y-83372419D02*
X184958020Y-83372419D01*
X184958020Y-83372419D02*
X185053258Y-83420038D01*
X185053258Y-83420038D02*
X185100877Y-83467657D01*
X185100877Y-83467657D02*
X185196115Y-83610514D01*
X185196115Y-83610514D02*
X185243734Y-83800990D01*
X185243734Y-83800990D02*
X185243734Y-84181942D01*
X185243734Y-84181942D02*
X185196115Y-84277180D01*
X185196115Y-84277180D02*
X185148496Y-84324800D01*
X185148496Y-84324800D02*
X185053258Y-84372419D01*
X185053258Y-84372419D02*
X184862782Y-84372419D01*
X184862782Y-84372419D02*
X184767544Y-84324800D01*
X184767544Y-84324800D02*
X184719925Y-84277180D01*
X184719925Y-84277180D02*
X184672306Y-84181942D01*
X184672306Y-84181942D02*
X184672306Y-83943847D01*
X184672306Y-83943847D02*
X184719925Y-83848609D01*
X184719925Y-83848609D02*
X184767544Y-83800990D01*
X184767544Y-83800990D02*
X184862782Y-83753371D01*
X184862782Y-83753371D02*
X185053258Y-83753371D01*
X185053258Y-83753371D02*
X185148496Y-83800990D01*
X185148496Y-83800990D02*
X185196115Y-83848609D01*
X185196115Y-83848609D02*
X185243734Y-83943847D01*
X184243734Y-84277180D02*
X184196115Y-84324800D01*
X184196115Y-84324800D02*
X184243734Y-84372419D01*
X184243734Y-84372419D02*
X184291353Y-84324800D01*
X184291353Y-84324800D02*
X184243734Y-84277180D01*
X184243734Y-84277180D02*
X184243734Y-84372419D01*
X184243734Y-83753371D02*
X184196115Y-83800990D01*
X184196115Y-83800990D02*
X184243734Y-83848609D01*
X184243734Y-83848609D02*
X184291353Y-83800990D01*
X184291353Y-83800990D02*
X184243734Y-83753371D01*
X184243734Y-83753371D02*
X184243734Y-83848609D01*
X183767544Y-84372419D02*
X183767544Y-83372419D01*
X183100878Y-83372419D02*
X182910402Y-83372419D01*
X182910402Y-83372419D02*
X182815164Y-83420038D01*
X182815164Y-83420038D02*
X182719926Y-83515276D01*
X182719926Y-83515276D02*
X182672307Y-83705752D01*
X182672307Y-83705752D02*
X182672307Y-84039085D01*
X182672307Y-84039085D02*
X182719926Y-84229561D01*
X182719926Y-84229561D02*
X182815164Y-84324800D01*
X182815164Y-84324800D02*
X182910402Y-84372419D01*
X182910402Y-84372419D02*
X183100878Y-84372419D01*
X183100878Y-84372419D02*
X183196116Y-84324800D01*
X183196116Y-84324800D02*
X183291354Y-84229561D01*
X183291354Y-84229561D02*
X183338973Y-84039085D01*
X183338973Y-84039085D02*
X183338973Y-83705752D01*
X183338973Y-83705752D02*
X183291354Y-83515276D01*
X183291354Y-83515276D02*
X183196116Y-83420038D01*
X183196116Y-83420038D02*
X183100878Y-83372419D01*
X182053259Y-83372419D02*
X181958021Y-83372419D01*
X181958021Y-83372419D02*
X181862783Y-83420038D01*
X181862783Y-83420038D02*
X181815164Y-83467657D01*
X181815164Y-83467657D02*
X181767545Y-83562895D01*
X181767545Y-83562895D02*
X181719926Y-83753371D01*
X181719926Y-83753371D02*
X181719926Y-83991466D01*
X181719926Y-83991466D02*
X181767545Y-84181942D01*
X181767545Y-84181942D02*
X181815164Y-84277180D01*
X181815164Y-84277180D02*
X181862783Y-84324800D01*
X181862783Y-84324800D02*
X181958021Y-84372419D01*
X181958021Y-84372419D02*
X182053259Y-84372419D01*
X182053259Y-84372419D02*
X182148497Y-84324800D01*
X182148497Y-84324800D02*
X182196116Y-84277180D01*
X182196116Y-84277180D02*
X182243735Y-84181942D01*
X182243735Y-84181942D02*
X182291354Y-83991466D01*
X182291354Y-83991466D02*
X182291354Y-83753371D01*
X182291354Y-83753371D02*
X182243735Y-83562895D01*
X182243735Y-83562895D02*
X182196116Y-83467657D01*
X182196116Y-83467657D02*
X182148497Y-83420038D01*
X182148497Y-83420038D02*
X182053259Y-83372419D01*
D11*
X150225564Y-116306028D02*
X149725564Y-117806028D01*
X149725564Y-117806028D02*
X149225564Y-116306028D01*
X148154136Y-117734600D02*
X148296993Y-117806028D01*
X148296993Y-117806028D02*
X148582708Y-117806028D01*
X148582708Y-117806028D02*
X148725565Y-117734600D01*
X148725565Y-117734600D02*
X148796993Y-117591742D01*
X148796993Y-117591742D02*
X148796993Y-117020314D01*
X148796993Y-117020314D02*
X148725565Y-116877457D01*
X148725565Y-116877457D02*
X148582708Y-116806028D01*
X148582708Y-116806028D02*
X148296993Y-116806028D01*
X148296993Y-116806028D02*
X148154136Y-116877457D01*
X148154136Y-116877457D02*
X148082708Y-117020314D01*
X148082708Y-117020314D02*
X148082708Y-117163171D01*
X148082708Y-117163171D02*
X148796993Y-117306028D01*
X147439851Y-117806028D02*
X147439851Y-116806028D01*
X147439851Y-117091742D02*
X147368422Y-116948885D01*
X147368422Y-116948885D02*
X147296994Y-116877457D01*
X147296994Y-116877457D02*
X147154136Y-116806028D01*
X147154136Y-116806028D02*
X147011279Y-116806028D01*
X146582708Y-117734600D02*
X146439851Y-117806028D01*
X146439851Y-117806028D02*
X146154137Y-117806028D01*
X146154137Y-117806028D02*
X146011280Y-117734600D01*
X146011280Y-117734600D02*
X145939851Y-117591742D01*
X145939851Y-117591742D02*
X145939851Y-117520314D01*
X145939851Y-117520314D02*
X146011280Y-117377457D01*
X146011280Y-117377457D02*
X146154137Y-117306028D01*
X146154137Y-117306028D02*
X146368423Y-117306028D01*
X146368423Y-117306028D02*
X146511280Y-117234600D01*
X146511280Y-117234600D02*
X146582708Y-117091742D01*
X146582708Y-117091742D02*
X146582708Y-117020314D01*
X146582708Y-117020314D02*
X146511280Y-116877457D01*
X146511280Y-116877457D02*
X146368423Y-116806028D01*
X146368423Y-116806028D02*
X146154137Y-116806028D01*
X146154137Y-116806028D02*
X146011280Y-116877457D01*
X145296994Y-117806028D02*
X145296994Y-116806028D01*
X145296994Y-116306028D02*
X145368422Y-116377457D01*
X145368422Y-116377457D02*
X145296994Y-116448885D01*
X145296994Y-116448885D02*
X145225565Y-116377457D01*
X145225565Y-116377457D02*
X145296994Y-116306028D01*
X145296994Y-116306028D02*
X145296994Y-116448885D01*
X144368422Y-117806028D02*
X144511279Y-117734600D01*
X144511279Y-117734600D02*
X144582708Y-117663171D01*
X144582708Y-117663171D02*
X144654136Y-117520314D01*
X144654136Y-117520314D02*
X144654136Y-117091742D01*
X144654136Y-117091742D02*
X144582708Y-116948885D01*
X144582708Y-116948885D02*
X144511279Y-116877457D01*
X144511279Y-116877457D02*
X144368422Y-116806028D01*
X144368422Y-116806028D02*
X144154136Y-116806028D01*
X144154136Y-116806028D02*
X144011279Y-116877457D01*
X144011279Y-116877457D02*
X143939851Y-116948885D01*
X143939851Y-116948885D02*
X143868422Y-117091742D01*
X143868422Y-117091742D02*
X143868422Y-117520314D01*
X143868422Y-117520314D02*
X143939851Y-117663171D01*
X143939851Y-117663171D02*
X144011279Y-117734600D01*
X144011279Y-117734600D02*
X144154136Y-117806028D01*
X144154136Y-117806028D02*
X144368422Y-117806028D01*
X143225565Y-116806028D02*
X143225565Y-117806028D01*
X143225565Y-116948885D02*
X143154136Y-116877457D01*
X143154136Y-116877457D02*
X143011279Y-116806028D01*
X143011279Y-116806028D02*
X142796993Y-116806028D01*
X142796993Y-116806028D02*
X142654136Y-116877457D01*
X142654136Y-116877457D02*
X142582708Y-117020314D01*
X142582708Y-117020314D02*
X142582708Y-117806028D01*
X141868422Y-117663171D02*
X141796993Y-117734600D01*
X141796993Y-117734600D02*
X141868422Y-117806028D01*
X141868422Y-117806028D02*
X141939850Y-117734600D01*
X141939850Y-117734600D02*
X141868422Y-117663171D01*
X141868422Y-117663171D02*
X141868422Y-117806028D01*
X141868422Y-116877457D02*
X141796993Y-116948885D01*
X141796993Y-116948885D02*
X141868422Y-117020314D01*
X141868422Y-117020314D02*
X141939850Y-116948885D01*
X141939850Y-116948885D02*
X141868422Y-116877457D01*
X141868422Y-116877457D02*
X141868422Y-117020314D01*
X140868421Y-116306028D02*
X140725564Y-116306028D01*
X140725564Y-116306028D02*
X140582707Y-116377457D01*
X140582707Y-116377457D02*
X140511279Y-116448885D01*
X140511279Y-116448885D02*
X140439850Y-116591742D01*
X140439850Y-116591742D02*
X140368421Y-116877457D01*
X140368421Y-116877457D02*
X140368421Y-117234600D01*
X140368421Y-117234600D02*
X140439850Y-117520314D01*
X140439850Y-117520314D02*
X140511279Y-117663171D01*
X140511279Y-117663171D02*
X140582707Y-117734600D01*
X140582707Y-117734600D02*
X140725564Y-117806028D01*
X140725564Y-117806028D02*
X140868421Y-117806028D01*
X140868421Y-117806028D02*
X141011279Y-117734600D01*
X141011279Y-117734600D02*
X141082707Y-117663171D01*
X141082707Y-117663171D02*
X141154136Y-117520314D01*
X141154136Y-117520314D02*
X141225564Y-117234600D01*
X141225564Y-117234600D02*
X141225564Y-116877457D01*
X141225564Y-116877457D02*
X141154136Y-116591742D01*
X141154136Y-116591742D02*
X141082707Y-116448885D01*
X141082707Y-116448885D02*
X141011279Y-116377457D01*
X141011279Y-116377457D02*
X140868421Y-116306028D01*
X139439850Y-116306028D02*
X139296993Y-116306028D01*
X139296993Y-116306028D02*
X139154136Y-116377457D01*
X139154136Y-116377457D02*
X139082708Y-116448885D01*
X139082708Y-116448885D02*
X139011279Y-116591742D01*
X139011279Y-116591742D02*
X138939850Y-116877457D01*
X138939850Y-116877457D02*
X138939850Y-117234600D01*
X138939850Y-117234600D02*
X139011279Y-117520314D01*
X139011279Y-117520314D02*
X139082708Y-117663171D01*
X139082708Y-117663171D02*
X139154136Y-117734600D01*
X139154136Y-117734600D02*
X139296993Y-117806028D01*
X139296993Y-117806028D02*
X139439850Y-117806028D01*
X139439850Y-117806028D02*
X139582708Y-117734600D01*
X139582708Y-117734600D02*
X139654136Y-117663171D01*
X139654136Y-117663171D02*
X139725565Y-117520314D01*
X139725565Y-117520314D02*
X139796993Y-117234600D01*
X139796993Y-117234600D02*
X139796993Y-116877457D01*
X139796993Y-116877457D02*
X139725565Y-116591742D01*
X139725565Y-116591742D02*
X139654136Y-116448885D01*
X139654136Y-116448885D02*
X139582708Y-116377457D01*
X139582708Y-116377457D02*
X139439850Y-116306028D01*
X146182500Y-73822054D02*
X146182500Y-74393482D01*
X146182500Y-74107768D02*
X147182500Y-74107768D01*
X147182500Y-74107768D02*
X147039643Y-74203006D01*
X147039643Y-74203006D02*
X146944405Y-74298244D01*
X146944405Y-74298244D02*
X146896786Y-74393482D01*
X145477318Y-74393482D02*
X145524937Y-74345863D01*
X145524937Y-74345863D02*
X145572556Y-74250625D01*
X145572556Y-74250625D02*
X145572556Y-74012530D01*
X145572556Y-74012530D02*
X145524937Y-73917292D01*
X145524937Y-73917292D02*
X145477318Y-73869673D01*
X145477318Y-73869673D02*
X145382080Y-73822054D01*
X145382080Y-73822054D02*
X145286842Y-73822054D01*
X145286842Y-73822054D02*
X145143985Y-73869673D01*
X145143985Y-73869673D02*
X144572556Y-74441101D01*
X144572556Y-74441101D02*
X144572556Y-73822054D01*
X143962612Y-74441101D02*
X143962612Y-73822054D01*
X143962612Y-73822054D02*
X143581660Y-74155387D01*
X143581660Y-74155387D02*
X143581660Y-74012530D01*
X143581660Y-74012530D02*
X143534041Y-73917292D01*
X143534041Y-73917292D02*
X143486422Y-73869673D01*
X143486422Y-73869673D02*
X143391184Y-73822054D01*
X143391184Y-73822054D02*
X143153089Y-73822054D01*
X143153089Y-73822054D02*
X143057851Y-73869673D01*
X143057851Y-73869673D02*
X143010232Y-73917292D01*
X143010232Y-73917292D02*
X142962612Y-74012530D01*
X142962612Y-74012530D02*
X142962612Y-74298244D01*
X142962612Y-74298244D02*
X143010232Y-74393482D01*
X143010232Y-74393482D02*
X143057851Y-74441101D01*
X142019335Y-73917292D02*
X141352668Y-73917292D01*
X142400288Y-74155387D02*
X141686002Y-74393482D01*
X141686002Y-74393482D02*
X141686002Y-73774435D01*
X140742724Y-73869673D02*
X140742724Y-74345863D01*
X140742724Y-74345863D02*
X140266534Y-74393482D01*
X140266534Y-74393482D02*
X140314153Y-74345863D01*
X140314153Y-74345863D02*
X140361772Y-74250625D01*
X140361772Y-74250625D02*
X140361772Y-74012530D01*
X140361772Y-74012530D02*
X140314153Y-73917292D01*
X140314153Y-73917292D02*
X140266534Y-73869673D01*
X140266534Y-73869673D02*
X140171296Y-73822054D01*
X140171296Y-73822054D02*
X139933201Y-73822054D01*
X139933201Y-73822054D02*
X139837963Y-73869673D01*
X139837963Y-73869673D02*
X139790344Y-73917292D01*
X139790344Y-73917292D02*
X139742724Y-74012530D01*
X139742724Y-74012530D02*
X139742724Y-74250625D01*
X139742724Y-74250625D02*
X139790344Y-74345863D01*
X139790344Y-74345863D02*
X139837963Y-74393482D01*
X139132780Y-73917292D02*
X139132780Y-74107768D01*
X139132780Y-74107768D02*
X139085161Y-74203006D01*
X139085161Y-74203006D02*
X139037542Y-74250625D01*
X139037542Y-74250625D02*
X138894685Y-74345863D01*
X138894685Y-74345863D02*
X138704209Y-74393482D01*
X138704209Y-74393482D02*
X138323257Y-74393482D01*
X138323257Y-74393482D02*
X138228019Y-74345863D01*
X138228019Y-74345863D02*
X138180400Y-74298244D01*
X138180400Y-74298244D02*
X138132780Y-74203006D01*
X138132780Y-74203006D02*
X138132780Y-74012530D01*
X138132780Y-74012530D02*
X138180400Y-73917292D01*
X138180400Y-73917292D02*
X138228019Y-73869673D01*
X138228019Y-73869673D02*
X138323257Y-73822054D01*
X138323257Y-73822054D02*
X138561352Y-73822054D01*
X138561352Y-73822054D02*
X138656590Y-73869673D01*
X138656590Y-73869673D02*
X138704209Y-73917292D01*
X138704209Y-73917292D02*
X138751828Y-74012530D01*
X138751828Y-74012530D02*
X138751828Y-74203006D01*
X138751828Y-74203006D02*
X138704209Y-74298244D01*
X138704209Y-74298244D02*
X138656590Y-74345863D01*
X138656590Y-74345863D02*
X138561352Y-74393482D01*
X160654136Y-110561280D02*
X161154136Y-109846994D01*
X161511279Y-110561280D02*
X161511279Y-109061280D01*
X161511279Y-109061280D02*
X160939850Y-109061280D01*
X160939850Y-109061280D02*
X160796993Y-109132709D01*
X160796993Y-109132709D02*
X160725564Y-109204137D01*
X160725564Y-109204137D02*
X160654136Y-109346994D01*
X160654136Y-109346994D02*
X160654136Y-109561280D01*
X160654136Y-109561280D02*
X160725564Y-109704137D01*
X160725564Y-109704137D02*
X160796993Y-109775566D01*
X160796993Y-109775566D02*
X160939850Y-109846994D01*
X160939850Y-109846994D02*
X161511279Y-109846994D01*
X159368422Y-110561280D02*
X159368422Y-109775566D01*
X159368422Y-109775566D02*
X159439850Y-109632709D01*
X159439850Y-109632709D02*
X159582707Y-109561280D01*
X159582707Y-109561280D02*
X159868422Y-109561280D01*
X159868422Y-109561280D02*
X160011279Y-109632709D01*
X159368422Y-110489852D02*
X159511279Y-110561280D01*
X159511279Y-110561280D02*
X159868422Y-110561280D01*
X159868422Y-110561280D02*
X160011279Y-110489852D01*
X160011279Y-110489852D02*
X160082707Y-110346994D01*
X160082707Y-110346994D02*
X160082707Y-110204137D01*
X160082707Y-110204137D02*
X160011279Y-110061280D01*
X160011279Y-110061280D02*
X159868422Y-109989852D01*
X159868422Y-109989852D02*
X159511279Y-109989852D01*
X159511279Y-109989852D02*
X159368422Y-109918423D01*
X158011279Y-110561280D02*
X158011279Y-109061280D01*
X158011279Y-110489852D02*
X158154136Y-110561280D01*
X158154136Y-110561280D02*
X158439850Y-110561280D01*
X158439850Y-110561280D02*
X158582707Y-110489852D01*
X158582707Y-110489852D02*
X158654136Y-110418423D01*
X158654136Y-110418423D02*
X158725564Y-110275566D01*
X158725564Y-110275566D02*
X158725564Y-109846994D01*
X158725564Y-109846994D02*
X158654136Y-109704137D01*
X158654136Y-109704137D02*
X158582707Y-109632709D01*
X158582707Y-109632709D02*
X158439850Y-109561280D01*
X158439850Y-109561280D02*
X158154136Y-109561280D01*
X158154136Y-109561280D02*
X158011279Y-109632709D01*
X157296993Y-110561280D02*
X157296993Y-109561280D01*
X157296993Y-109061280D02*
X157368421Y-109132709D01*
X157368421Y-109132709D02*
X157296993Y-109204137D01*
X157296993Y-109204137D02*
X157225564Y-109132709D01*
X157225564Y-109132709D02*
X157296993Y-109061280D01*
X157296993Y-109061280D02*
X157296993Y-109204137D01*
X156368421Y-110561280D02*
X156511278Y-110489852D01*
X156511278Y-110489852D02*
X156582707Y-110418423D01*
X156582707Y-110418423D02*
X156654135Y-110275566D01*
X156654135Y-110275566D02*
X156654135Y-109846994D01*
X156654135Y-109846994D02*
X156582707Y-109704137D01*
X156582707Y-109704137D02*
X156511278Y-109632709D01*
X156511278Y-109632709D02*
X156368421Y-109561280D01*
X156368421Y-109561280D02*
X156154135Y-109561280D01*
X156154135Y-109561280D02*
X156011278Y-109632709D01*
X156011278Y-109632709D02*
X155939850Y-109704137D01*
X155939850Y-109704137D02*
X155868421Y-109846994D01*
X155868421Y-109846994D02*
X155868421Y-110275566D01*
X155868421Y-110275566D02*
X155939850Y-110418423D01*
X155939850Y-110418423D02*
X156011278Y-110489852D01*
X156011278Y-110489852D02*
X156154135Y-110561280D01*
X156154135Y-110561280D02*
X156368421Y-110561280D01*
X161511279Y-112190482D02*
X161011279Y-112190482D01*
X160796993Y-112976196D02*
X161511279Y-112976196D01*
X161511279Y-112976196D02*
X161511279Y-111476196D01*
X161511279Y-111476196D02*
X160796993Y-111476196D01*
X160296993Y-112976196D02*
X159511279Y-111976196D01*
X160296993Y-111976196D02*
X159511279Y-112976196D01*
X158939850Y-111976196D02*
X158939850Y-113476196D01*
X158939850Y-112047625D02*
X158796993Y-111976196D01*
X158796993Y-111976196D02*
X158511278Y-111976196D01*
X158511278Y-111976196D02*
X158368421Y-112047625D01*
X158368421Y-112047625D02*
X158296993Y-112119053D01*
X158296993Y-112119053D02*
X158225564Y-112261910D01*
X158225564Y-112261910D02*
X158225564Y-112690482D01*
X158225564Y-112690482D02*
X158296993Y-112833339D01*
X158296993Y-112833339D02*
X158368421Y-112904768D01*
X158368421Y-112904768D02*
X158511278Y-112976196D01*
X158511278Y-112976196D02*
X158796993Y-112976196D01*
X158796993Y-112976196D02*
X158939850Y-112904768D01*
X157368421Y-112976196D02*
X157511278Y-112904768D01*
X157511278Y-112904768D02*
X157582707Y-112761910D01*
X157582707Y-112761910D02*
X157582707Y-111476196D01*
X156582707Y-112976196D02*
X156725564Y-112904768D01*
X156725564Y-112904768D02*
X156796993Y-112833339D01*
X156796993Y-112833339D02*
X156868421Y-112690482D01*
X156868421Y-112690482D02*
X156868421Y-112261910D01*
X156868421Y-112261910D02*
X156796993Y-112119053D01*
X156796993Y-112119053D02*
X156725564Y-112047625D01*
X156725564Y-112047625D02*
X156582707Y-111976196D01*
X156582707Y-111976196D02*
X156368421Y-111976196D01*
X156368421Y-111976196D02*
X156225564Y-112047625D01*
X156225564Y-112047625D02*
X156154136Y-112119053D01*
X156154136Y-112119053D02*
X156082707Y-112261910D01*
X156082707Y-112261910D02*
X156082707Y-112690482D01*
X156082707Y-112690482D02*
X156154136Y-112833339D01*
X156154136Y-112833339D02*
X156225564Y-112904768D01*
X156225564Y-112904768D02*
X156368421Y-112976196D01*
X156368421Y-112976196D02*
X156582707Y-112976196D01*
X155439850Y-112976196D02*
X155439850Y-111976196D01*
X155439850Y-111476196D02*
X155511278Y-111547625D01*
X155511278Y-111547625D02*
X155439850Y-111619053D01*
X155439850Y-111619053D02*
X155368421Y-111547625D01*
X155368421Y-111547625D02*
X155439850Y-111476196D01*
X155439850Y-111476196D02*
X155439850Y-111619053D01*
X154939849Y-111976196D02*
X154368421Y-111976196D01*
X154725564Y-111476196D02*
X154725564Y-112761910D01*
X154725564Y-112761910D02*
X154654135Y-112904768D01*
X154654135Y-112904768D02*
X154511278Y-112976196D01*
X154511278Y-112976196D02*
X154368421Y-112976196D01*
X161511279Y-115391112D02*
X161511279Y-113891112D01*
X161511279Y-113891112D02*
X161011279Y-114962541D01*
X161011279Y-114962541D02*
X160511279Y-113891112D01*
X160511279Y-113891112D02*
X160511279Y-115391112D01*
X159582707Y-115391112D02*
X159725564Y-115319684D01*
X159725564Y-115319684D02*
X159796993Y-115248255D01*
X159796993Y-115248255D02*
X159868421Y-115105398D01*
X159868421Y-115105398D02*
X159868421Y-114676826D01*
X159868421Y-114676826D02*
X159796993Y-114533969D01*
X159796993Y-114533969D02*
X159725564Y-114462541D01*
X159725564Y-114462541D02*
X159582707Y-114391112D01*
X159582707Y-114391112D02*
X159368421Y-114391112D01*
X159368421Y-114391112D02*
X159225564Y-114462541D01*
X159225564Y-114462541D02*
X159154136Y-114533969D01*
X159154136Y-114533969D02*
X159082707Y-114676826D01*
X159082707Y-114676826D02*
X159082707Y-115105398D01*
X159082707Y-115105398D02*
X159154136Y-115248255D01*
X159154136Y-115248255D02*
X159225564Y-115319684D01*
X159225564Y-115319684D02*
X159368421Y-115391112D01*
X159368421Y-115391112D02*
X159582707Y-115391112D01*
X157796993Y-115391112D02*
X157796993Y-113891112D01*
X157796993Y-115319684D02*
X157939850Y-115391112D01*
X157939850Y-115391112D02*
X158225564Y-115391112D01*
X158225564Y-115391112D02*
X158368421Y-115319684D01*
X158368421Y-115319684D02*
X158439850Y-115248255D01*
X158439850Y-115248255D02*
X158511278Y-115105398D01*
X158511278Y-115105398D02*
X158511278Y-114676826D01*
X158511278Y-114676826D02*
X158439850Y-114533969D01*
X158439850Y-114533969D02*
X158368421Y-114462541D01*
X158368421Y-114462541D02*
X158225564Y-114391112D01*
X158225564Y-114391112D02*
X157939850Y-114391112D01*
X157939850Y-114391112D02*
X157796993Y-114462541D01*
X156439850Y-114391112D02*
X156439850Y-115391112D01*
X157082707Y-114391112D02*
X157082707Y-115176826D01*
X157082707Y-115176826D02*
X157011278Y-115319684D01*
X157011278Y-115319684D02*
X156868421Y-115391112D01*
X156868421Y-115391112D02*
X156654135Y-115391112D01*
X156654135Y-115391112D02*
X156511278Y-115319684D01*
X156511278Y-115319684D02*
X156439850Y-115248255D01*
X155511278Y-115391112D02*
X155654135Y-115319684D01*
X155654135Y-115319684D02*
X155725564Y-115176826D01*
X155725564Y-115176826D02*
X155725564Y-113891112D01*
X154368421Y-115319684D02*
X154511278Y-115391112D01*
X154511278Y-115391112D02*
X154796993Y-115391112D01*
X154796993Y-115391112D02*
X154939850Y-115319684D01*
X154939850Y-115319684D02*
X155011278Y-115176826D01*
X155011278Y-115176826D02*
X155011278Y-114605398D01*
X155011278Y-114605398D02*
X154939850Y-114462541D01*
X154939850Y-114462541D02*
X154796993Y-114391112D01*
X154796993Y-114391112D02*
X154511278Y-114391112D01*
X154511278Y-114391112D02*
X154368421Y-114462541D01*
X154368421Y-114462541D02*
X154296993Y-114605398D01*
X154296993Y-114605398D02*
X154296993Y-114748255D01*
X154296993Y-114748255D02*
X155011278Y-114891112D01*
X161511279Y-117806028D02*
X161511279Y-116306028D01*
X160796993Y-116806028D02*
X160796993Y-117806028D01*
X160796993Y-116948885D02*
X160725564Y-116877457D01*
X160725564Y-116877457D02*
X160582707Y-116806028D01*
X160582707Y-116806028D02*
X160368421Y-116806028D01*
X160368421Y-116806028D02*
X160225564Y-116877457D01*
X160225564Y-116877457D02*
X160154136Y-117020314D01*
X160154136Y-117020314D02*
X160154136Y-117806028D01*
X159439850Y-116806028D02*
X159439850Y-118091742D01*
X159439850Y-118091742D02*
X159511278Y-118234600D01*
X159511278Y-118234600D02*
X159654135Y-118306028D01*
X159654135Y-118306028D02*
X159725564Y-118306028D01*
X159439850Y-116306028D02*
X159511278Y-116377457D01*
X159511278Y-116377457D02*
X159439850Y-116448885D01*
X159439850Y-116448885D02*
X159368421Y-116377457D01*
X159368421Y-116377457D02*
X159439850Y-116306028D01*
X159439850Y-116306028D02*
X159439850Y-116448885D01*
X158154135Y-117734600D02*
X158296992Y-117806028D01*
X158296992Y-117806028D02*
X158582707Y-117806028D01*
X158582707Y-117806028D02*
X158725564Y-117734600D01*
X158725564Y-117734600D02*
X158796992Y-117591742D01*
X158796992Y-117591742D02*
X158796992Y-117020314D01*
X158796992Y-117020314D02*
X158725564Y-116877457D01*
X158725564Y-116877457D02*
X158582707Y-116806028D01*
X158582707Y-116806028D02*
X158296992Y-116806028D01*
X158296992Y-116806028D02*
X158154135Y-116877457D01*
X158154135Y-116877457D02*
X158082707Y-117020314D01*
X158082707Y-117020314D02*
X158082707Y-117163171D01*
X158082707Y-117163171D02*
X158796992Y-117306028D01*
X156796993Y-117734600D02*
X156939850Y-117806028D01*
X156939850Y-117806028D02*
X157225564Y-117806028D01*
X157225564Y-117806028D02*
X157368421Y-117734600D01*
X157368421Y-117734600D02*
X157439850Y-117663171D01*
X157439850Y-117663171D02*
X157511278Y-117520314D01*
X157511278Y-117520314D02*
X157511278Y-117091742D01*
X157511278Y-117091742D02*
X157439850Y-116948885D01*
X157439850Y-116948885D02*
X157368421Y-116877457D01*
X157368421Y-116877457D02*
X157225564Y-116806028D01*
X157225564Y-116806028D02*
X156939850Y-116806028D01*
X156939850Y-116806028D02*
X156796993Y-116877457D01*
X156368421Y-116806028D02*
X155796993Y-116806028D01*
X156154136Y-116306028D02*
X156154136Y-117591742D01*
X156154136Y-117591742D02*
X156082707Y-117734600D01*
X156082707Y-117734600D02*
X155939850Y-117806028D01*
X155939850Y-117806028D02*
X155796993Y-117806028D01*
X155082707Y-117806028D02*
X155225564Y-117734600D01*
X155225564Y-117734600D02*
X155296993Y-117663171D01*
X155296993Y-117663171D02*
X155368421Y-117520314D01*
X155368421Y-117520314D02*
X155368421Y-117091742D01*
X155368421Y-117091742D02*
X155296993Y-116948885D01*
X155296993Y-116948885D02*
X155225564Y-116877457D01*
X155225564Y-116877457D02*
X155082707Y-116806028D01*
X155082707Y-116806028D02*
X154868421Y-116806028D01*
X154868421Y-116806028D02*
X154725564Y-116877457D01*
X154725564Y-116877457D02*
X154654136Y-116948885D01*
X154654136Y-116948885D02*
X154582707Y-117091742D01*
X154582707Y-117091742D02*
X154582707Y-117520314D01*
X154582707Y-117520314D02*
X154654136Y-117663171D01*
X154654136Y-117663171D02*
X154725564Y-117734600D01*
X154725564Y-117734600D02*
X154868421Y-117806028D01*
X154868421Y-117806028D02*
X155082707Y-117806028D01*
X153939850Y-117806028D02*
X153939850Y-116806028D01*
X153939850Y-117091742D02*
X153868421Y-116948885D01*
X153868421Y-116948885D02*
X153796993Y-116877457D01*
X153796993Y-116877457D02*
X153654135Y-116806028D01*
X153654135Y-116806028D02*
X153511278Y-116806028D01*
D14*
X182178571Y-113473596D02*
X181178571Y-113473596D01*
X181178571Y-113473596D02*
X182178571Y-114973596D01*
X182178571Y-114973596D02*
X181178571Y-114973596D01*
X179892857Y-114973596D02*
X180607143Y-114973596D01*
X180607143Y-114973596D02*
X180607143Y-113473596D01*
X178607142Y-114973596D02*
X179464285Y-114973596D01*
X179035714Y-114973596D02*
X179035714Y-113473596D01*
X179035714Y-113473596D02*
X179178571Y-113687882D01*
X179178571Y-113687882D02*
X179321428Y-113830739D01*
X179321428Y-113830739D02*
X179464285Y-113902168D01*
X177107143Y-114973596D02*
X177607143Y-114259310D01*
X177964286Y-114973596D02*
X177964286Y-113473596D01*
X177964286Y-113473596D02*
X177392857Y-113473596D01*
X177392857Y-113473596D02*
X177250000Y-113545025D01*
X177250000Y-113545025D02*
X177178571Y-113616453D01*
X177178571Y-113616453D02*
X177107143Y-113759310D01*
X177107143Y-113759310D02*
X177107143Y-113973596D01*
X177107143Y-113973596D02*
X177178571Y-114116453D01*
X177178571Y-114116453D02*
X177250000Y-114187882D01*
X177250000Y-114187882D02*
X177392857Y-114259310D01*
X177392857Y-114259310D02*
X177964286Y-114259310D01*
X176464286Y-114973596D02*
X176464286Y-113473596D01*
X175750000Y-114973596D02*
X175750000Y-113473596D01*
X175750000Y-113473596D02*
X175178571Y-113473596D01*
X175178571Y-113473596D02*
X175035714Y-113545025D01*
X175035714Y-113545025D02*
X174964285Y-113616453D01*
X174964285Y-113616453D02*
X174892857Y-113759310D01*
X174892857Y-113759310D02*
X174892857Y-113973596D01*
X174892857Y-113973596D02*
X174964285Y-114116453D01*
X174964285Y-114116453D02*
X175035714Y-114187882D01*
X175035714Y-114187882D02*
X175178571Y-114259310D01*
X175178571Y-114259310D02*
X175750000Y-114259310D01*
X181678571Y-117388512D02*
X181678571Y-116388512D01*
X181678571Y-116531369D02*
X181607142Y-116459941D01*
X181607142Y-116459941D02*
X181464285Y-116388512D01*
X181464285Y-116388512D02*
X181249999Y-116388512D01*
X181249999Y-116388512D02*
X181107142Y-116459941D01*
X181107142Y-116459941D02*
X181035714Y-116602798D01*
X181035714Y-116602798D02*
X181035714Y-117388512D01*
X181035714Y-116602798D02*
X180964285Y-116459941D01*
X180964285Y-116459941D02*
X180821428Y-116388512D01*
X180821428Y-116388512D02*
X180607142Y-116388512D01*
X180607142Y-116388512D02*
X180464285Y-116459941D01*
X180464285Y-116459941D02*
X180392856Y-116602798D01*
X180392856Y-116602798D02*
X180392856Y-117388512D01*
X179678571Y-117388512D02*
X179678571Y-116388512D01*
X179678571Y-116674226D02*
X179607142Y-116531369D01*
X179607142Y-116531369D02*
X179535714Y-116459941D01*
X179535714Y-116459941D02*
X179392856Y-116388512D01*
X179392856Y-116388512D02*
X179249999Y-116388512D01*
X178964285Y-116388512D02*
X178392857Y-116388512D01*
X178750000Y-117388512D02*
X178750000Y-116102798D01*
X178750000Y-116102798D02*
X178678571Y-115959941D01*
X178678571Y-115959941D02*
X178535714Y-115888512D01*
X178535714Y-115888512D02*
X178392857Y-115888512D01*
X177678571Y-117388512D02*
X177821428Y-117317084D01*
X177821428Y-117317084D02*
X177892857Y-117245655D01*
X177892857Y-117245655D02*
X177964285Y-117102798D01*
X177964285Y-117102798D02*
X177964285Y-116674226D01*
X177964285Y-116674226D02*
X177892857Y-116531369D01*
X177892857Y-116531369D02*
X177821428Y-116459941D01*
X177821428Y-116459941D02*
X177678571Y-116388512D01*
X177678571Y-116388512D02*
X177464285Y-116388512D01*
X177464285Y-116388512D02*
X177321428Y-116459941D01*
X177321428Y-116459941D02*
X177250000Y-116531369D01*
X177250000Y-116531369D02*
X177178571Y-116674226D01*
X177178571Y-116674226D02*
X177178571Y-117102798D01*
X177178571Y-117102798D02*
X177250000Y-117245655D01*
X177250000Y-117245655D02*
X177321428Y-117317084D01*
X177321428Y-117317084D02*
X177464285Y-117388512D01*
X177464285Y-117388512D02*
X177678571Y-117388512D01*
X176678571Y-117388512D02*
X175892857Y-116388512D01*
X176678571Y-116388512D02*
X175892857Y-117388512D01*
X175321428Y-117388512D02*
X175321428Y-116388512D01*
X175321428Y-115888512D02*
X175392856Y-115959941D01*
X175392856Y-115959941D02*
X175321428Y-116031369D01*
X175321428Y-116031369D02*
X175249999Y-115959941D01*
X175249999Y-115959941D02*
X175321428Y-115888512D01*
X175321428Y-115888512D02*
X175321428Y-116031369D01*
X180642857Y-119803428D02*
X179857143Y-118803428D01*
X180642857Y-118803428D02*
X179857143Y-119803428D01*
X179428571Y-118803428D02*
X178642857Y-118803428D01*
X178642857Y-118803428D02*
X179428571Y-119803428D01*
X179428571Y-119803428D02*
X178642857Y-119803428D01*
X178071428Y-119803428D02*
X178071428Y-118803428D01*
X178071428Y-119089142D02*
X177999999Y-118946285D01*
X177999999Y-118946285D02*
X177928571Y-118874857D01*
X177928571Y-118874857D02*
X177785713Y-118803428D01*
X177785713Y-118803428D02*
X177642856Y-118803428D01*
X176500000Y-119803428D02*
X176500000Y-118303428D01*
X176500000Y-119732000D02*
X176642857Y-119803428D01*
X176642857Y-119803428D02*
X176928571Y-119803428D01*
X176928571Y-119803428D02*
X177071428Y-119732000D01*
X177071428Y-119732000D02*
X177142857Y-119660571D01*
X177142857Y-119660571D02*
X177214285Y-119517714D01*
X177214285Y-119517714D02*
X177214285Y-119089142D01*
X177214285Y-119089142D02*
X177142857Y-118946285D01*
X177142857Y-118946285D02*
X177071428Y-118874857D01*
X177071428Y-118874857D02*
X176928571Y-118803428D01*
X176928571Y-118803428D02*
X176642857Y-118803428D01*
X176642857Y-118803428D02*
X176500000Y-118874857D01*
D11*
X187511279Y-89020314D02*
X187011279Y-89020314D01*
X186796993Y-89806028D02*
X187511279Y-89806028D01*
X187511279Y-89806028D02*
X187511279Y-88306028D01*
X187511279Y-88306028D02*
X186796993Y-88306028D01*
X186225564Y-89734600D02*
X186011279Y-89806028D01*
X186011279Y-89806028D02*
X185654136Y-89806028D01*
X185654136Y-89806028D02*
X185511279Y-89734600D01*
X185511279Y-89734600D02*
X185439850Y-89663171D01*
X185439850Y-89663171D02*
X185368421Y-89520314D01*
X185368421Y-89520314D02*
X185368421Y-89377457D01*
X185368421Y-89377457D02*
X185439850Y-89234600D01*
X185439850Y-89234600D02*
X185511279Y-89163171D01*
X185511279Y-89163171D02*
X185654136Y-89091742D01*
X185654136Y-89091742D02*
X185939850Y-89020314D01*
X185939850Y-89020314D02*
X186082707Y-88948885D01*
X186082707Y-88948885D02*
X186154136Y-88877457D01*
X186154136Y-88877457D02*
X186225564Y-88734600D01*
X186225564Y-88734600D02*
X186225564Y-88591742D01*
X186225564Y-88591742D02*
X186154136Y-88448885D01*
X186154136Y-88448885D02*
X186082707Y-88377457D01*
X186082707Y-88377457D02*
X185939850Y-88306028D01*
X185939850Y-88306028D02*
X185582707Y-88306028D01*
X185582707Y-88306028D02*
X185368421Y-88377457D01*
X184725565Y-89806028D02*
X184725565Y-88306028D01*
X184725565Y-88306028D02*
X184154136Y-88306028D01*
X184154136Y-88306028D02*
X184011279Y-88377457D01*
X184011279Y-88377457D02*
X183939850Y-88448885D01*
X183939850Y-88448885D02*
X183868422Y-88591742D01*
X183868422Y-88591742D02*
X183868422Y-88806028D01*
X183868422Y-88806028D02*
X183939850Y-88948885D01*
X183939850Y-88948885D02*
X184011279Y-89020314D01*
X184011279Y-89020314D02*
X184154136Y-89091742D01*
X184154136Y-89091742D02*
X184725565Y-89091742D01*
X183368422Y-88306028D02*
X182439850Y-88306028D01*
X182439850Y-88306028D02*
X182939850Y-88877457D01*
X182939850Y-88877457D02*
X182725565Y-88877457D01*
X182725565Y-88877457D02*
X182582708Y-88948885D01*
X182582708Y-88948885D02*
X182511279Y-89020314D01*
X182511279Y-89020314D02*
X182439850Y-89163171D01*
X182439850Y-89163171D02*
X182439850Y-89520314D01*
X182439850Y-89520314D02*
X182511279Y-89663171D01*
X182511279Y-89663171D02*
X182582708Y-89734600D01*
X182582708Y-89734600D02*
X182725565Y-89806028D01*
X182725565Y-89806028D02*
X183154136Y-89806028D01*
X183154136Y-89806028D02*
X183296993Y-89734600D01*
X183296993Y-89734600D02*
X183368422Y-89663171D01*
X181868422Y-88448885D02*
X181796994Y-88377457D01*
X181796994Y-88377457D02*
X181654137Y-88306028D01*
X181654137Y-88306028D02*
X181296994Y-88306028D01*
X181296994Y-88306028D02*
X181154137Y-88377457D01*
X181154137Y-88377457D02*
X181082708Y-88448885D01*
X181082708Y-88448885D02*
X181011279Y-88591742D01*
X181011279Y-88591742D02*
X181011279Y-88734600D01*
X181011279Y-88734600D02*
X181082708Y-88948885D01*
X181082708Y-88948885D02*
X181939851Y-89806028D01*
X181939851Y-89806028D02*
X181011279Y-89806028D01*
D10*
X182672306Y-93042587D02*
X183243734Y-93042587D01*
X182958020Y-93042587D02*
X182958020Y-92042587D01*
X182958020Y-92042587D02*
X183053258Y-92185444D01*
X183053258Y-92185444D02*
X183148496Y-92280682D01*
X183148496Y-92280682D02*
X183243734Y-92328301D01*
X182243734Y-92947348D02*
X182196115Y-92994968D01*
X182196115Y-92994968D02*
X182243734Y-93042587D01*
X182243734Y-93042587D02*
X182291353Y-92994968D01*
X182291353Y-92994968D02*
X182243734Y-92947348D01*
X182243734Y-92947348D02*
X182243734Y-93042587D01*
X182243734Y-92423539D02*
X182196115Y-92471158D01*
X182196115Y-92471158D02*
X182243734Y-92518777D01*
X182243734Y-92518777D02*
X182291353Y-92471158D01*
X182291353Y-92471158D02*
X182243734Y-92423539D01*
X182243734Y-92423539D02*
X182243734Y-92518777D01*
X181767544Y-93042587D02*
X181767544Y-92042587D01*
X181100878Y-92042587D02*
X180910402Y-92042587D01*
X180910402Y-92042587D02*
X180815164Y-92090206D01*
X180815164Y-92090206D02*
X180719926Y-92185444D01*
X180719926Y-92185444D02*
X180672307Y-92375920D01*
X180672307Y-92375920D02*
X180672307Y-92709253D01*
X180672307Y-92709253D02*
X180719926Y-92899729D01*
X180719926Y-92899729D02*
X180815164Y-92994968D01*
X180815164Y-92994968D02*
X180910402Y-93042587D01*
X180910402Y-93042587D02*
X181100878Y-93042587D01*
X181100878Y-93042587D02*
X181196116Y-92994968D01*
X181196116Y-92994968D02*
X181291354Y-92899729D01*
X181291354Y-92899729D02*
X181338973Y-92709253D01*
X181338973Y-92709253D02*
X181338973Y-92375920D01*
X181338973Y-92375920D02*
X181291354Y-92185444D01*
X181291354Y-92185444D02*
X181196116Y-92090206D01*
X181196116Y-92090206D02*
X181100878Y-92042587D01*
X179719926Y-93042587D02*
X180291354Y-93042587D01*
X180005640Y-93042587D02*
X180005640Y-92042587D01*
X180005640Y-92042587D02*
X180100878Y-92185444D01*
X180100878Y-92185444D02*
X180196116Y-92280682D01*
X180196116Y-92280682D02*
X180291354Y-92328301D01*
X179386592Y-92042587D02*
X178719926Y-92042587D01*
X178719926Y-92042587D02*
X179148497Y-93042587D01*
X183291353Y-93652531D02*
X182672306Y-93652531D01*
X182672306Y-93652531D02*
X183005639Y-94033483D01*
X183005639Y-94033483D02*
X182862782Y-94033483D01*
X182862782Y-94033483D02*
X182767544Y-94081102D01*
X182767544Y-94081102D02*
X182719925Y-94128721D01*
X182719925Y-94128721D02*
X182672306Y-94223959D01*
X182672306Y-94223959D02*
X182672306Y-94462054D01*
X182672306Y-94462054D02*
X182719925Y-94557292D01*
X182719925Y-94557292D02*
X182767544Y-94604912D01*
X182767544Y-94604912D02*
X182862782Y-94652531D01*
X182862782Y-94652531D02*
X183148496Y-94652531D01*
X183148496Y-94652531D02*
X183243734Y-94604912D01*
X183243734Y-94604912D02*
X183291353Y-94557292D01*
X182243734Y-94557292D02*
X182196115Y-94604912D01*
X182196115Y-94604912D02*
X182243734Y-94652531D01*
X182243734Y-94652531D02*
X182291353Y-94604912D01*
X182291353Y-94604912D02*
X182243734Y-94557292D01*
X182243734Y-94557292D02*
X182243734Y-94652531D01*
X182243734Y-94033483D02*
X182196115Y-94081102D01*
X182196115Y-94081102D02*
X182243734Y-94128721D01*
X182243734Y-94128721D02*
X182291353Y-94081102D01*
X182291353Y-94081102D02*
X182243734Y-94033483D01*
X182243734Y-94033483D02*
X182243734Y-94128721D01*
X181767544Y-94652531D02*
X181767544Y-93652531D01*
X181100878Y-93652531D02*
X180910402Y-93652531D01*
X180910402Y-93652531D02*
X180815164Y-93700150D01*
X180815164Y-93700150D02*
X180719926Y-93795388D01*
X180719926Y-93795388D02*
X180672307Y-93985864D01*
X180672307Y-93985864D02*
X180672307Y-94319197D01*
X180672307Y-94319197D02*
X180719926Y-94509673D01*
X180719926Y-94509673D02*
X180815164Y-94604912D01*
X180815164Y-94604912D02*
X180910402Y-94652531D01*
X180910402Y-94652531D02*
X181100878Y-94652531D01*
X181100878Y-94652531D02*
X181196116Y-94604912D01*
X181196116Y-94604912D02*
X181291354Y-94509673D01*
X181291354Y-94509673D02*
X181338973Y-94319197D01*
X181338973Y-94319197D02*
X181338973Y-93985864D01*
X181338973Y-93985864D02*
X181291354Y-93795388D01*
X181291354Y-93795388D02*
X181196116Y-93700150D01*
X181196116Y-93700150D02*
X181100878Y-93652531D01*
X179719926Y-94652531D02*
X180291354Y-94652531D01*
X180005640Y-94652531D02*
X180005640Y-93652531D01*
X180005640Y-93652531D02*
X180100878Y-93795388D01*
X180100878Y-93795388D02*
X180196116Y-93890626D01*
X180196116Y-93890626D02*
X180291354Y-93938245D01*
X178862783Y-93652531D02*
X179053259Y-93652531D01*
X179053259Y-93652531D02*
X179148497Y-93700150D01*
X179148497Y-93700150D02*
X179196116Y-93747769D01*
X179196116Y-93747769D02*
X179291354Y-93890626D01*
X179291354Y-93890626D02*
X179338973Y-94081102D01*
X179338973Y-94081102D02*
X179338973Y-94462054D01*
X179338973Y-94462054D02*
X179291354Y-94557292D01*
X179291354Y-94557292D02*
X179243735Y-94604912D01*
X179243735Y-94604912D02*
X179148497Y-94652531D01*
X179148497Y-94652531D02*
X178958021Y-94652531D01*
X178958021Y-94652531D02*
X178862783Y-94604912D01*
X178862783Y-94604912D02*
X178815164Y-94557292D01*
X178815164Y-94557292D02*
X178767545Y-94462054D01*
X178767545Y-94462054D02*
X178767545Y-94223959D01*
X178767545Y-94223959D02*
X178815164Y-94128721D01*
X178815164Y-94128721D02*
X178862783Y-94081102D01*
X178862783Y-94081102D02*
X178958021Y-94033483D01*
X178958021Y-94033483D02*
X179148497Y-94033483D01*
X179148497Y-94033483D02*
X179243735Y-94081102D01*
X179243735Y-94081102D02*
X179291354Y-94128721D01*
X179291354Y-94128721D02*
X179338973Y-94223959D01*
X182719925Y-95262475D02*
X183196115Y-95262475D01*
X183196115Y-95262475D02*
X183243734Y-95738665D01*
X183243734Y-95738665D02*
X183196115Y-95691046D01*
X183196115Y-95691046D02*
X183100877Y-95643427D01*
X183100877Y-95643427D02*
X182862782Y-95643427D01*
X182862782Y-95643427D02*
X182767544Y-95691046D01*
X182767544Y-95691046D02*
X182719925Y-95738665D01*
X182719925Y-95738665D02*
X182672306Y-95833903D01*
X182672306Y-95833903D02*
X182672306Y-96071998D01*
X182672306Y-96071998D02*
X182719925Y-96167236D01*
X182719925Y-96167236D02*
X182767544Y-96214856D01*
X182767544Y-96214856D02*
X182862782Y-96262475D01*
X182862782Y-96262475D02*
X183100877Y-96262475D01*
X183100877Y-96262475D02*
X183196115Y-96214856D01*
X183196115Y-96214856D02*
X183243734Y-96167236D01*
X182243734Y-96167236D02*
X182196115Y-96214856D01*
X182196115Y-96214856D02*
X182243734Y-96262475D01*
X182243734Y-96262475D02*
X182291353Y-96214856D01*
X182291353Y-96214856D02*
X182243734Y-96167236D01*
X182243734Y-96167236D02*
X182243734Y-96262475D01*
X182243734Y-95643427D02*
X182196115Y-95691046D01*
X182196115Y-95691046D02*
X182243734Y-95738665D01*
X182243734Y-95738665D02*
X182291353Y-95691046D01*
X182291353Y-95691046D02*
X182243734Y-95643427D01*
X182243734Y-95643427D02*
X182243734Y-95738665D01*
X181767544Y-96262475D02*
X181767544Y-95262475D01*
X181100878Y-95262475D02*
X180910402Y-95262475D01*
X180910402Y-95262475D02*
X180815164Y-95310094D01*
X180815164Y-95310094D02*
X180719926Y-95405332D01*
X180719926Y-95405332D02*
X180672307Y-95595808D01*
X180672307Y-95595808D02*
X180672307Y-95929141D01*
X180672307Y-95929141D02*
X180719926Y-96119617D01*
X180719926Y-96119617D02*
X180815164Y-96214856D01*
X180815164Y-96214856D02*
X180910402Y-96262475D01*
X180910402Y-96262475D02*
X181100878Y-96262475D01*
X181100878Y-96262475D02*
X181196116Y-96214856D01*
X181196116Y-96214856D02*
X181291354Y-96119617D01*
X181291354Y-96119617D02*
X181338973Y-95929141D01*
X181338973Y-95929141D02*
X181338973Y-95595808D01*
X181338973Y-95595808D02*
X181291354Y-95405332D01*
X181291354Y-95405332D02*
X181196116Y-95310094D01*
X181196116Y-95310094D02*
X181100878Y-95262475D01*
X179815164Y-95595808D02*
X179815164Y-96262475D01*
X180053259Y-95214856D02*
X180291354Y-95929141D01*
X180291354Y-95929141D02*
X179672307Y-95929141D01*
X183291353Y-96872419D02*
X182624687Y-96872419D01*
X182624687Y-96872419D02*
X183053258Y-97872419D01*
X182243734Y-97777180D02*
X182196115Y-97824800D01*
X182196115Y-97824800D02*
X182243734Y-97872419D01*
X182243734Y-97872419D02*
X182291353Y-97824800D01*
X182291353Y-97824800D02*
X182243734Y-97777180D01*
X182243734Y-97777180D02*
X182243734Y-97872419D01*
X182243734Y-97253371D02*
X182196115Y-97300990D01*
X182196115Y-97300990D02*
X182243734Y-97348609D01*
X182243734Y-97348609D02*
X182291353Y-97300990D01*
X182291353Y-97300990D02*
X182243734Y-97253371D01*
X182243734Y-97253371D02*
X182243734Y-97348609D01*
X181767544Y-97872419D02*
X181767544Y-96872419D01*
X181100878Y-96872419D02*
X180910402Y-96872419D01*
X180910402Y-96872419D02*
X180815164Y-96920038D01*
X180815164Y-96920038D02*
X180719926Y-97015276D01*
X180719926Y-97015276D02*
X180672307Y-97205752D01*
X180672307Y-97205752D02*
X180672307Y-97539085D01*
X180672307Y-97539085D02*
X180719926Y-97729561D01*
X180719926Y-97729561D02*
X180815164Y-97824800D01*
X180815164Y-97824800D02*
X180910402Y-97872419D01*
X180910402Y-97872419D02*
X181100878Y-97872419D01*
X181100878Y-97872419D02*
X181196116Y-97824800D01*
X181196116Y-97824800D02*
X181291354Y-97729561D01*
X181291354Y-97729561D02*
X181338973Y-97539085D01*
X181338973Y-97539085D02*
X181338973Y-97205752D01*
X181338973Y-97205752D02*
X181291354Y-97015276D01*
X181291354Y-97015276D02*
X181196116Y-96920038D01*
X181196116Y-96920038D02*
X181100878Y-96872419D01*
X180291354Y-96967657D02*
X180243735Y-96920038D01*
X180243735Y-96920038D02*
X180148497Y-96872419D01*
X180148497Y-96872419D02*
X179910402Y-96872419D01*
X179910402Y-96872419D02*
X179815164Y-96920038D01*
X179815164Y-96920038D02*
X179767545Y-96967657D01*
X179767545Y-96967657D02*
X179719926Y-97062895D01*
X179719926Y-97062895D02*
X179719926Y-97158133D01*
X179719926Y-97158133D02*
X179767545Y-97300990D01*
X179767545Y-97300990D02*
X180338973Y-97872419D01*
X180338973Y-97872419D02*
X179719926Y-97872419D01*
D11*
X131087262Y-76393482D02*
X131134881Y-76345863D01*
X131134881Y-76345863D02*
X131182500Y-76250625D01*
X131182500Y-76250625D02*
X131182500Y-76012530D01*
X131182500Y-76012530D02*
X131134881Y-75917292D01*
X131134881Y-75917292D02*
X131087262Y-75869673D01*
X131087262Y-75869673D02*
X130992024Y-75822054D01*
X130992024Y-75822054D02*
X130896786Y-75822054D01*
X130896786Y-75822054D02*
X130753929Y-75869673D01*
X130753929Y-75869673D02*
X130182500Y-76441101D01*
X130182500Y-76441101D02*
X130182500Y-75822054D01*
X129239223Y-75917292D02*
X128572556Y-75917292D01*
X129620176Y-76155387D02*
X128905890Y-76393482D01*
X128905890Y-76393482D02*
X128905890Y-75774435D01*
X127962612Y-75917292D02*
X127962612Y-76107768D01*
X127962612Y-76107768D02*
X127914993Y-76203006D01*
X127914993Y-76203006D02*
X127867374Y-76250625D01*
X127867374Y-76250625D02*
X127724517Y-76345863D01*
X127724517Y-76345863D02*
X127534041Y-76393482D01*
X127534041Y-76393482D02*
X127153089Y-76393482D01*
X127153089Y-76393482D02*
X127057851Y-76345863D01*
X127057851Y-76345863D02*
X127010232Y-76298244D01*
X127010232Y-76298244D02*
X126962612Y-76203006D01*
X126962612Y-76203006D02*
X126962612Y-76012530D01*
X126962612Y-76012530D02*
X127010232Y-75917292D01*
X127010232Y-75917292D02*
X127057851Y-75869673D01*
X127057851Y-75869673D02*
X127153089Y-75822054D01*
X127153089Y-75822054D02*
X127391184Y-75822054D01*
X127391184Y-75822054D02*
X127486422Y-75869673D01*
X127486422Y-75869673D02*
X127534041Y-75917292D01*
X127534041Y-75917292D02*
X127581660Y-76012530D01*
X127581660Y-76012530D02*
X127581660Y-76203006D01*
X127581660Y-76203006D02*
X127534041Y-76298244D01*
X127534041Y-76298244D02*
X127486422Y-76345863D01*
X127486422Y-76345863D02*
X127391184Y-76393482D01*
X125924097Y-76203006D02*
X125971716Y-76298244D01*
X125971716Y-76298244D02*
X126019335Y-76345863D01*
X126019335Y-76345863D02*
X126114573Y-76393482D01*
X126114573Y-76393482D02*
X126162192Y-76393482D01*
X126162192Y-76393482D02*
X126257430Y-76345863D01*
X126257430Y-76345863D02*
X126305049Y-76298244D01*
X126305049Y-76298244D02*
X126352668Y-76203006D01*
X126352668Y-76203006D02*
X126352668Y-76012530D01*
X126352668Y-76012530D02*
X126305049Y-75917292D01*
X126305049Y-75917292D02*
X126257430Y-75869673D01*
X126257430Y-75869673D02*
X126162192Y-75822054D01*
X126162192Y-75822054D02*
X126114573Y-75822054D01*
X126114573Y-75822054D02*
X126019335Y-75869673D01*
X126019335Y-75869673D02*
X125971716Y-75917292D01*
X125971716Y-75917292D02*
X125924097Y-76012530D01*
X125924097Y-76012530D02*
X125924097Y-76203006D01*
X125924097Y-76203006D02*
X125876478Y-76298244D01*
X125876478Y-76298244D02*
X125828859Y-76345863D01*
X125828859Y-76345863D02*
X125733621Y-76393482D01*
X125733621Y-76393482D02*
X125543145Y-76393482D01*
X125543145Y-76393482D02*
X125447907Y-76345863D01*
X125447907Y-76345863D02*
X125400288Y-76298244D01*
X125400288Y-76298244D02*
X125352668Y-76203006D01*
X125352668Y-76203006D02*
X125352668Y-76012530D01*
X125352668Y-76012530D02*
X125400288Y-75917292D01*
X125400288Y-75917292D02*
X125447907Y-75869673D01*
X125447907Y-75869673D02*
X125543145Y-75822054D01*
X125543145Y-75822054D02*
X125733621Y-75822054D01*
X125733621Y-75822054D02*
X125828859Y-75869673D01*
X125828859Y-75869673D02*
X125876478Y-75917292D01*
X125876478Y-75917292D02*
X125924097Y-76012530D01*
X123742724Y-76774435D02*
X123742724Y-77345863D01*
X123742724Y-77060149D02*
X124742724Y-77060149D01*
X124742724Y-77060149D02*
X124599867Y-77155387D01*
X124599867Y-77155387D02*
X124504629Y-77250625D01*
X124504629Y-77250625D02*
X124457010Y-77345863D01*
X124742724Y-76155387D02*
X124742724Y-76060149D01*
X124742724Y-76060149D02*
X124695105Y-75964911D01*
X124695105Y-75964911D02*
X124647486Y-75917292D01*
X124647486Y-75917292D02*
X124552248Y-75869673D01*
X124552248Y-75869673D02*
X124361772Y-75822054D01*
X124361772Y-75822054D02*
X124123677Y-75822054D01*
X124123677Y-75822054D02*
X123933201Y-75869673D01*
X123933201Y-75869673D02*
X123837963Y-75917292D01*
X123837963Y-75917292D02*
X123790344Y-75964911D01*
X123790344Y-75964911D02*
X123742724Y-76060149D01*
X123742724Y-76060149D02*
X123742724Y-76155387D01*
X123742724Y-76155387D02*
X123790344Y-76250625D01*
X123790344Y-76250625D02*
X123837963Y-76298244D01*
X123837963Y-76298244D02*
X123933201Y-76345863D01*
X123933201Y-76345863D02*
X124123677Y-76393482D01*
X124123677Y-76393482D02*
X124361772Y-76393482D01*
X124361772Y-76393482D02*
X124552248Y-76345863D01*
X124552248Y-76345863D02*
X124647486Y-76298244D01*
X124647486Y-76298244D02*
X124695105Y-76250625D01*
X124695105Y-76250625D02*
X124742724Y-76155387D01*
X122132780Y-76774435D02*
X122132780Y-77345863D01*
X122132780Y-77060149D02*
X123132780Y-77060149D01*
X123132780Y-77060149D02*
X122989923Y-77155387D01*
X122989923Y-77155387D02*
X122894685Y-77250625D01*
X122894685Y-77250625D02*
X122847066Y-77345863D01*
X123037542Y-76393482D02*
X123085161Y-76345863D01*
X123085161Y-76345863D02*
X123132780Y-76250625D01*
X123132780Y-76250625D02*
X123132780Y-76012530D01*
X123132780Y-76012530D02*
X123085161Y-75917292D01*
X123085161Y-75917292D02*
X123037542Y-75869673D01*
X123037542Y-75869673D02*
X122942304Y-75822054D01*
X122942304Y-75822054D02*
X122847066Y-75822054D01*
X122847066Y-75822054D02*
X122704209Y-75869673D01*
X122704209Y-75869673D02*
X122132780Y-76441101D01*
X122132780Y-76441101D02*
X122132780Y-75822054D01*
M02*
