M48
; DRILL file {KiCad 9.0.3} date 2025-07-12T13:44:31+1200
; FORMAT={-:-/ absolute / metric / decimal}
; #@! TF.CreationDate,2025-07-12T13:44:31+12:00
; #@! TF.GenerationSoftware,Kicad,Pcbnew,9.0.3
; #@! TF.FileFunction,MixedPlating,1,4
FMAT,2
METRIC
; #@! TA.AperFunction,Plated,PTH,ViaDrill
T1C0.300
; #@! TA.AperFunction,Plated,PTH,ComponentDrill
T2C0.600
; #@! TA.AperFunction,Plated,PTH,ComponentDrill
T3C1.000
; #@! TA.AperFunction,NonPlated,NPTH,ComponentDrill
T4C0.650
%
G90
G05
T1
X119.55Y-81.05
X124.5Y-91.5
X125.0Y-68.5
X125.0Y-77.5
X125.0Y-110.5
X125.9Y-112.5
X126.25Y-82.75
X126.5Y-78.02
X126.5Y-115.0
X127.05Y-115.637
X127.55Y-116.637
X128.0Y-109.614
X128.5Y-112.0
X129.0Y-79.25
X129.0Y-80.5
X129.0Y-84.25
X129.05Y-116.637
X129.097Y-109.614
X129.25Y-83.25
X129.55Y-115.637
X130.5Y-99.5
X131.0Y-100.5
X131.0Y-112.0
X133.5Y-69.501
X133.5Y-96.5
X134.0Y-68.798
X134.5Y-81.5
X134.5Y-91.5
X134.999Y-73.0
X135.0Y-109.614
X137.5Y-69.501
X138.0Y-99.5
X139.0Y-69.5
X139.0Y-96.5
X139.25Y-90.75
X139.5Y-78.5
X139.5Y-99.5
X142.0Y-114.55
X145.5Y-78.5
X147.25Y-80.75
X147.5Y-79.75
X148.3Y-112.7
X148.3Y-116.5
X150.0Y-114.65
X150.5Y-83.0
X150.5Y-84.0
X150.5Y-95.75
X151.0Y-78.5
X152.0Y-100.0
X154.5Y-106.23
X156.5Y-70.975
X156.5Y-75.5
X156.5Y-85.0
X156.5Y-99.0
X159.0Y-84.5
X160.0Y-77.5
X160.0Y-81.0
X162.0Y-83.041
X164.94Y-82.44
X166.72Y-72.28
X167.0Y-89.425
X167.675Y-102.0
X169.5Y-95.9
X169.875Y-102.0
X170.975Y-105.0
X172.075Y-102.0
X173.175Y-102.0
X175.0Y-90.0
X178.0Y-89.0
X179.0Y-72.28
X181.0Y-87.5
X182.0Y-88.0
X182.0Y-89.0
X183.0Y-89.0
X183.0Y-90.0
X184.0Y-90.0
X184.0Y-91.0
X185.0Y-91.0
T3
X118.84Y-71.46
X118.84Y-74.0
X121.38Y-71.46
X121.38Y-74.0
X123.92Y-71.46
X123.92Y-74.0
X126.46Y-71.46
X126.46Y-74.0
X129.0Y-71.46
X129.0Y-74.0
X131.54Y-71.46
X131.54Y-74.0
X136.38Y-72.0
X138.92Y-72.0
X141.46Y-72.0
X144.0Y-72.0
X146.54Y-72.0
X149.08Y-72.0
X159.0Y-85.96
X159.0Y-88.5
X159.0Y-91.04
X159.0Y-93.58
X183.225Y-99.69
X183.225Y-102.23
X183.225Y-104.77
X183.225Y-107.31
X185.765Y-99.69
X185.765Y-102.23
X185.765Y-104.77
X185.765Y-107.31
X187.5Y-72.92
X187.5Y-75.46
X187.5Y-78.0
X187.5Y-80.54
X187.5Y-83.08
X187.5Y-85.62
T4
X125.41Y-114.712
X131.19Y-114.712
T2
G00X123.98Y-113.662
M15
G01X123.98Y-114.762
M16
G05
G00X123.98Y-117.992
M15
G01X123.98Y-118.792
M16
G05
G00X132.62Y-113.662
M15
G01X132.62Y-114.762
M16
G05
G00X132.62Y-117.992
M15
G01X132.62Y-118.792
M16
G05
M30
