%TF.GenerationSoftware,KiCad,Pcbnew,9.0.3*%
%TF.CreationDate,2025-07-12T21:01:37+12:00*%
%TF.ProjectId,RemiRAT,52656d69-5241-4542-9e6b-696361645f70,rev?*%
%TF.SameCoordinates,Original*%
%TF.FileFunction,Legend,Bot*%
%TF.FilePolarity,Positive*%
%FSLAX46Y46*%
G04 Gerber Fmt 4.6, Leading zero omitted, Abs format (unit mm)*
G04 Created by KiCad (PCBNEW 9.0.3) date 2025-07-12 21:01:37*
%MOMM*%
%LPD*%
G01*
G04 APERTURE LIST*
%ADD10C,0.100000*%
%ADD11C,0.300000*%
%ADD12C,0.500000*%
%ADD13C,0.200000*%
%ADD14C,0.250000*%
G04 APERTURE END LIST*
D10*
X179500000Y-57250000D02*
X189500000Y-57250000D01*
X189500000Y-73750000D01*
X179500000Y-73750000D01*
X179500000Y-57250000D01*
X145000000Y-79500000D02*
X133500000Y-79500000D01*
X137000000Y-54500000D02*
X137000000Y-69500000D01*
X117500000Y-57500000D02*
X117500000Y-95000000D01*
X127500000Y-57500000D02*
X117500000Y-57500000D01*
X145000000Y-69500000D02*
X137000000Y-69500000D01*
X145000000Y-69500000D02*
X145000000Y-79500000D01*
X135000000Y-54500000D02*
X137000000Y-54500000D01*
X134500000Y-95000000D02*
X134500000Y-80500000D01*
X132500000Y-80500000D02*
X132500000Y-76000000D01*
X127500000Y-76000000D02*
X127500000Y-57500000D01*
X131000000Y-71500000D02*
X131000000Y-54500000D01*
X117500000Y-95000000D02*
X134500000Y-95000000D01*
X132500000Y-76000000D02*
X127500000Y-76000000D01*
X131000000Y-71500000D02*
X133500000Y-71500000D01*
X131000000Y-54500000D02*
X135000000Y-54500000D01*
X133500000Y-79500000D02*
X133500000Y-71500000D01*
X173000000Y-74750000D02*
X189000000Y-74750000D01*
X189000000Y-88000000D01*
X173000000Y-88000000D01*
X173000000Y-74750000D01*
X138000000Y-55000000D02*
X148500000Y-55000000D01*
X148500000Y-66500000D01*
X138000000Y-66500000D01*
X138000000Y-55000000D01*
X134500000Y-80500000D02*
X132500000Y-80500000D01*
D11*
X129516917Y-56729400D02*
X129302632Y-56800828D01*
X129302632Y-56800828D02*
X128945489Y-56800828D01*
X128945489Y-56800828D02*
X128802632Y-56729400D01*
X128802632Y-56729400D02*
X128731203Y-56657971D01*
X128731203Y-56657971D02*
X128659774Y-56515114D01*
X128659774Y-56515114D02*
X128659774Y-56372257D01*
X128659774Y-56372257D02*
X128731203Y-56229400D01*
X128731203Y-56229400D02*
X128802632Y-56157971D01*
X128802632Y-56157971D02*
X128945489Y-56086542D01*
X128945489Y-56086542D02*
X129231203Y-56015114D01*
X129231203Y-56015114D02*
X129374060Y-55943685D01*
X129374060Y-55943685D02*
X129445489Y-55872257D01*
X129445489Y-55872257D02*
X129516917Y-55729400D01*
X129516917Y-55729400D02*
X129516917Y-55586542D01*
X129516917Y-55586542D02*
X129445489Y-55443685D01*
X129445489Y-55443685D02*
X129374060Y-55372257D01*
X129374060Y-55372257D02*
X129231203Y-55300828D01*
X129231203Y-55300828D02*
X128874060Y-55300828D01*
X128874060Y-55300828D02*
X128659774Y-55372257D01*
X128088346Y-56372257D02*
X127374061Y-56372257D01*
X128231203Y-56800828D02*
X127731203Y-55300828D01*
X127731203Y-55300828D02*
X127231203Y-56800828D01*
X126731204Y-56800828D02*
X126731204Y-55300828D01*
X126731204Y-55300828D02*
X126231204Y-56372257D01*
X126231204Y-56372257D02*
X125731204Y-55300828D01*
X125731204Y-55300828D02*
X125731204Y-56800828D01*
D10*
X147267544Y-58375920D02*
X147267544Y-59042587D01*
X147505639Y-57994968D02*
X147743734Y-58709253D01*
X147743734Y-58709253D02*
X147124687Y-58709253D01*
X146743734Y-58947348D02*
X146696115Y-58994968D01*
X146696115Y-58994968D02*
X146743734Y-59042587D01*
X146743734Y-59042587D02*
X146791353Y-58994968D01*
X146791353Y-58994968D02*
X146743734Y-58947348D01*
X146743734Y-58947348D02*
X146743734Y-59042587D01*
X146743734Y-58423539D02*
X146696115Y-58471158D01*
X146696115Y-58471158D02*
X146743734Y-58518777D01*
X146743734Y-58518777D02*
X146791353Y-58471158D01*
X146791353Y-58471158D02*
X146743734Y-58423539D01*
X146743734Y-58423539D02*
X146743734Y-58518777D01*
X146267544Y-59042587D02*
X146267544Y-58042587D01*
X146267544Y-58042587D02*
X145934211Y-58756872D01*
X145934211Y-58756872D02*
X145600878Y-58042587D01*
X145600878Y-58042587D02*
X145600878Y-59042587D01*
X144934211Y-58042587D02*
X144743735Y-58042587D01*
X144743735Y-58042587D02*
X144648497Y-58090206D01*
X144648497Y-58090206D02*
X144553259Y-58185444D01*
X144553259Y-58185444D02*
X144505640Y-58375920D01*
X144505640Y-58375920D02*
X144505640Y-58709253D01*
X144505640Y-58709253D02*
X144553259Y-58899729D01*
X144553259Y-58899729D02*
X144648497Y-58994968D01*
X144648497Y-58994968D02*
X144743735Y-59042587D01*
X144743735Y-59042587D02*
X144934211Y-59042587D01*
X144934211Y-59042587D02*
X145029449Y-58994968D01*
X145029449Y-58994968D02*
X145124687Y-58899729D01*
X145124687Y-58899729D02*
X145172306Y-58709253D01*
X145172306Y-58709253D02*
X145172306Y-58375920D01*
X145172306Y-58375920D02*
X145124687Y-58185444D01*
X145124687Y-58185444D02*
X145029449Y-58090206D01*
X145029449Y-58090206D02*
X144934211Y-58042587D01*
X144124687Y-58994968D02*
X143981830Y-59042587D01*
X143981830Y-59042587D02*
X143743735Y-59042587D01*
X143743735Y-59042587D02*
X143648497Y-58994968D01*
X143648497Y-58994968D02*
X143600878Y-58947348D01*
X143600878Y-58947348D02*
X143553259Y-58852110D01*
X143553259Y-58852110D02*
X143553259Y-58756872D01*
X143553259Y-58756872D02*
X143600878Y-58661634D01*
X143600878Y-58661634D02*
X143648497Y-58614015D01*
X143648497Y-58614015D02*
X143743735Y-58566396D01*
X143743735Y-58566396D02*
X143934211Y-58518777D01*
X143934211Y-58518777D02*
X144029449Y-58471158D01*
X144029449Y-58471158D02*
X144077068Y-58423539D01*
X144077068Y-58423539D02*
X144124687Y-58328301D01*
X144124687Y-58328301D02*
X144124687Y-58233063D01*
X144124687Y-58233063D02*
X144077068Y-58137825D01*
X144077068Y-58137825D02*
X144029449Y-58090206D01*
X144029449Y-58090206D02*
X143934211Y-58042587D01*
X143934211Y-58042587D02*
X143696116Y-58042587D01*
X143696116Y-58042587D02*
X143553259Y-58090206D01*
X143124687Y-59042587D02*
X143124687Y-58042587D01*
X147791353Y-59652531D02*
X147172306Y-59652531D01*
X147172306Y-59652531D02*
X147505639Y-60033483D01*
X147505639Y-60033483D02*
X147362782Y-60033483D01*
X147362782Y-60033483D02*
X147267544Y-60081102D01*
X147267544Y-60081102D02*
X147219925Y-60128721D01*
X147219925Y-60128721D02*
X147172306Y-60223959D01*
X147172306Y-60223959D02*
X147172306Y-60462054D01*
X147172306Y-60462054D02*
X147219925Y-60557292D01*
X147219925Y-60557292D02*
X147267544Y-60604912D01*
X147267544Y-60604912D02*
X147362782Y-60652531D01*
X147362782Y-60652531D02*
X147648496Y-60652531D01*
X147648496Y-60652531D02*
X147743734Y-60604912D01*
X147743734Y-60604912D02*
X147791353Y-60557292D01*
X146743734Y-60557292D02*
X146696115Y-60604912D01*
X146696115Y-60604912D02*
X146743734Y-60652531D01*
X146743734Y-60652531D02*
X146791353Y-60604912D01*
X146791353Y-60604912D02*
X146743734Y-60557292D01*
X146743734Y-60557292D02*
X146743734Y-60652531D01*
X146743734Y-60033483D02*
X146696115Y-60081102D01*
X146696115Y-60081102D02*
X146743734Y-60128721D01*
X146743734Y-60128721D02*
X146791353Y-60081102D01*
X146791353Y-60081102D02*
X146743734Y-60033483D01*
X146743734Y-60033483D02*
X146743734Y-60128721D01*
X146315163Y-60604912D02*
X146172306Y-60652531D01*
X146172306Y-60652531D02*
X145934211Y-60652531D01*
X145934211Y-60652531D02*
X145838973Y-60604912D01*
X145838973Y-60604912D02*
X145791354Y-60557292D01*
X145791354Y-60557292D02*
X145743735Y-60462054D01*
X145743735Y-60462054D02*
X145743735Y-60366816D01*
X145743735Y-60366816D02*
X145791354Y-60271578D01*
X145791354Y-60271578D02*
X145838973Y-60223959D01*
X145838973Y-60223959D02*
X145934211Y-60176340D01*
X145934211Y-60176340D02*
X146124687Y-60128721D01*
X146124687Y-60128721D02*
X146219925Y-60081102D01*
X146219925Y-60081102D02*
X146267544Y-60033483D01*
X146267544Y-60033483D02*
X146315163Y-59938245D01*
X146315163Y-59938245D02*
X146315163Y-59843007D01*
X146315163Y-59843007D02*
X146267544Y-59747769D01*
X146267544Y-59747769D02*
X146219925Y-59700150D01*
X146219925Y-59700150D02*
X146124687Y-59652531D01*
X146124687Y-59652531D02*
X145886592Y-59652531D01*
X145886592Y-59652531D02*
X145743735Y-59700150D01*
X144743735Y-60557292D02*
X144791354Y-60604912D01*
X144791354Y-60604912D02*
X144934211Y-60652531D01*
X144934211Y-60652531D02*
X145029449Y-60652531D01*
X145029449Y-60652531D02*
X145172306Y-60604912D01*
X145172306Y-60604912D02*
X145267544Y-60509673D01*
X145267544Y-60509673D02*
X145315163Y-60414435D01*
X145315163Y-60414435D02*
X145362782Y-60223959D01*
X145362782Y-60223959D02*
X145362782Y-60081102D01*
X145362782Y-60081102D02*
X145315163Y-59890626D01*
X145315163Y-59890626D02*
X145267544Y-59795388D01*
X145267544Y-59795388D02*
X145172306Y-59700150D01*
X145172306Y-59700150D02*
X145029449Y-59652531D01*
X145029449Y-59652531D02*
X144934211Y-59652531D01*
X144934211Y-59652531D02*
X144791354Y-59700150D01*
X144791354Y-59700150D02*
X144743735Y-59747769D01*
X144315163Y-60652531D02*
X144315163Y-59652531D01*
X143743735Y-60652531D02*
X144172306Y-60081102D01*
X143743735Y-59652531D02*
X144315163Y-60223959D01*
X147743734Y-61357713D02*
X147696115Y-61310094D01*
X147696115Y-61310094D02*
X147600877Y-61262475D01*
X147600877Y-61262475D02*
X147362782Y-61262475D01*
X147362782Y-61262475D02*
X147267544Y-61310094D01*
X147267544Y-61310094D02*
X147219925Y-61357713D01*
X147219925Y-61357713D02*
X147172306Y-61452951D01*
X147172306Y-61452951D02*
X147172306Y-61548189D01*
X147172306Y-61548189D02*
X147219925Y-61691046D01*
X147219925Y-61691046D02*
X147791353Y-62262475D01*
X147791353Y-62262475D02*
X147172306Y-62262475D01*
X146743734Y-62167236D02*
X146696115Y-62214856D01*
X146696115Y-62214856D02*
X146743734Y-62262475D01*
X146743734Y-62262475D02*
X146791353Y-62214856D01*
X146791353Y-62214856D02*
X146743734Y-62167236D01*
X146743734Y-62167236D02*
X146743734Y-62262475D01*
X146743734Y-61643427D02*
X146696115Y-61691046D01*
X146696115Y-61691046D02*
X146743734Y-61738665D01*
X146743734Y-61738665D02*
X146791353Y-61691046D01*
X146791353Y-61691046D02*
X146743734Y-61643427D01*
X146743734Y-61643427D02*
X146743734Y-61738665D01*
X146267544Y-62262475D02*
X146267544Y-61262475D01*
X146267544Y-61262475D02*
X145934211Y-61976760D01*
X145934211Y-61976760D02*
X145600878Y-61262475D01*
X145600878Y-61262475D02*
X145600878Y-62262475D01*
X145124687Y-62262475D02*
X145124687Y-61262475D01*
X144696116Y-62214856D02*
X144553259Y-62262475D01*
X144553259Y-62262475D02*
X144315164Y-62262475D01*
X144315164Y-62262475D02*
X144219926Y-62214856D01*
X144219926Y-62214856D02*
X144172307Y-62167236D01*
X144172307Y-62167236D02*
X144124688Y-62071998D01*
X144124688Y-62071998D02*
X144124688Y-61976760D01*
X144124688Y-61976760D02*
X144172307Y-61881522D01*
X144172307Y-61881522D02*
X144219926Y-61833903D01*
X144219926Y-61833903D02*
X144315164Y-61786284D01*
X144315164Y-61786284D02*
X144505640Y-61738665D01*
X144505640Y-61738665D02*
X144600878Y-61691046D01*
X144600878Y-61691046D02*
X144648497Y-61643427D01*
X144648497Y-61643427D02*
X144696116Y-61548189D01*
X144696116Y-61548189D02*
X144696116Y-61452951D01*
X144696116Y-61452951D02*
X144648497Y-61357713D01*
X144648497Y-61357713D02*
X144600878Y-61310094D01*
X144600878Y-61310094D02*
X144505640Y-61262475D01*
X144505640Y-61262475D02*
X144267545Y-61262475D01*
X144267545Y-61262475D02*
X144124688Y-61310094D01*
X143505640Y-61262475D02*
X143315164Y-61262475D01*
X143315164Y-61262475D02*
X143219926Y-61310094D01*
X143219926Y-61310094D02*
X143124688Y-61405332D01*
X143124688Y-61405332D02*
X143077069Y-61595808D01*
X143077069Y-61595808D02*
X143077069Y-61929141D01*
X143077069Y-61929141D02*
X143124688Y-62119617D01*
X143124688Y-62119617D02*
X143219926Y-62214856D01*
X143219926Y-62214856D02*
X143315164Y-62262475D01*
X143315164Y-62262475D02*
X143505640Y-62262475D01*
X143505640Y-62262475D02*
X143600878Y-62214856D01*
X143600878Y-62214856D02*
X143696116Y-62119617D01*
X143696116Y-62119617D02*
X143743735Y-61929141D01*
X143743735Y-61929141D02*
X143743735Y-61595808D01*
X143743735Y-61595808D02*
X143696116Y-61405332D01*
X143696116Y-61405332D02*
X143600878Y-61310094D01*
X143600878Y-61310094D02*
X143505640Y-61262475D01*
X147172306Y-63872419D02*
X147743734Y-63872419D01*
X147458020Y-63872419D02*
X147458020Y-62872419D01*
X147458020Y-62872419D02*
X147553258Y-63015276D01*
X147553258Y-63015276D02*
X147648496Y-63110514D01*
X147648496Y-63110514D02*
X147743734Y-63158133D01*
X146743734Y-63777180D02*
X146696115Y-63824800D01*
X146696115Y-63824800D02*
X146743734Y-63872419D01*
X146743734Y-63872419D02*
X146791353Y-63824800D01*
X146791353Y-63824800D02*
X146743734Y-63777180D01*
X146743734Y-63777180D02*
X146743734Y-63872419D01*
X146743734Y-63253371D02*
X146696115Y-63300990D01*
X146696115Y-63300990D02*
X146743734Y-63348609D01*
X146743734Y-63348609D02*
X146791353Y-63300990D01*
X146791353Y-63300990D02*
X146743734Y-63253371D01*
X146743734Y-63253371D02*
X146743734Y-63348609D01*
X146267544Y-63872419D02*
X146267544Y-62872419D01*
X146267544Y-62872419D02*
X145696116Y-63872419D01*
X145696116Y-63872419D02*
X145696116Y-62872419D01*
X145219925Y-63872419D02*
X145219925Y-62872419D01*
X145219925Y-62872419D02*
X144838973Y-62872419D01*
X144838973Y-62872419D02*
X144743735Y-62920038D01*
X144743735Y-62920038D02*
X144696116Y-62967657D01*
X144696116Y-62967657D02*
X144648497Y-63062895D01*
X144648497Y-63062895D02*
X144648497Y-63205752D01*
X144648497Y-63205752D02*
X144696116Y-63300990D01*
X144696116Y-63300990D02*
X144743735Y-63348609D01*
X144743735Y-63348609D02*
X144838973Y-63396228D01*
X144838973Y-63396228D02*
X145219925Y-63396228D01*
X143648497Y-63777180D02*
X143696116Y-63824800D01*
X143696116Y-63824800D02*
X143838973Y-63872419D01*
X143838973Y-63872419D02*
X143934211Y-63872419D01*
X143934211Y-63872419D02*
X144077068Y-63824800D01*
X144077068Y-63824800D02*
X144172306Y-63729561D01*
X144172306Y-63729561D02*
X144219925Y-63634323D01*
X144219925Y-63634323D02*
X144267544Y-63443847D01*
X144267544Y-63443847D02*
X144267544Y-63300990D01*
X144267544Y-63300990D02*
X144219925Y-63110514D01*
X144219925Y-63110514D02*
X144172306Y-63015276D01*
X144172306Y-63015276D02*
X144077068Y-62920038D01*
X144077068Y-62920038D02*
X143934211Y-62872419D01*
X143934211Y-62872419D02*
X143838973Y-62872419D01*
X143838973Y-62872419D02*
X143696116Y-62920038D01*
X143696116Y-62920038D02*
X143648497Y-62967657D01*
X143267544Y-63824800D02*
X143124687Y-63872419D01*
X143124687Y-63872419D02*
X142886592Y-63872419D01*
X142886592Y-63872419D02*
X142791354Y-63824800D01*
X142791354Y-63824800D02*
X142743735Y-63777180D01*
X142743735Y-63777180D02*
X142696116Y-63681942D01*
X142696116Y-63681942D02*
X142696116Y-63586704D01*
X142696116Y-63586704D02*
X142743735Y-63491466D01*
X142743735Y-63491466D02*
X142791354Y-63443847D01*
X142791354Y-63443847D02*
X142886592Y-63396228D01*
X142886592Y-63396228D02*
X143077068Y-63348609D01*
X143077068Y-63348609D02*
X143172306Y-63300990D01*
X143172306Y-63300990D02*
X143219925Y-63253371D01*
X143219925Y-63253371D02*
X143267544Y-63158133D01*
X143267544Y-63158133D02*
X143267544Y-63062895D01*
X143267544Y-63062895D02*
X143219925Y-62967657D01*
X143219925Y-62967657D02*
X143172306Y-62920038D01*
X143172306Y-62920038D02*
X143077068Y-62872419D01*
X143077068Y-62872419D02*
X142838973Y-62872419D01*
X142838973Y-62872419D02*
X142696116Y-62920038D01*
X141743735Y-63872419D02*
X142315163Y-63872419D01*
X142029449Y-63872419D02*
X142029449Y-62872419D01*
X142029449Y-62872419D02*
X142124687Y-63015276D01*
X142124687Y-63015276D02*
X142219925Y-63110514D01*
X142219925Y-63110514D02*
X142315163Y-63158133D01*
D12*
X160052005Y-107729238D02*
X160718672Y-106776857D01*
X161194862Y-107729238D02*
X161194862Y-105729238D01*
X161194862Y-105729238D02*
X160432957Y-105729238D01*
X160432957Y-105729238D02*
X160242481Y-105824476D01*
X160242481Y-105824476D02*
X160147243Y-105919714D01*
X160147243Y-105919714D02*
X160052005Y-106110190D01*
X160052005Y-106110190D02*
X160052005Y-106395904D01*
X160052005Y-106395904D02*
X160147243Y-106586380D01*
X160147243Y-106586380D02*
X160242481Y-106681619D01*
X160242481Y-106681619D02*
X160432957Y-106776857D01*
X160432957Y-106776857D02*
X161194862Y-106776857D01*
X158432957Y-107634000D02*
X158623433Y-107729238D01*
X158623433Y-107729238D02*
X159004386Y-107729238D01*
X159004386Y-107729238D02*
X159194862Y-107634000D01*
X159194862Y-107634000D02*
X159290100Y-107443523D01*
X159290100Y-107443523D02*
X159290100Y-106681619D01*
X159290100Y-106681619D02*
X159194862Y-106491142D01*
X159194862Y-106491142D02*
X159004386Y-106395904D01*
X159004386Y-106395904D02*
X158623433Y-106395904D01*
X158623433Y-106395904D02*
X158432957Y-106491142D01*
X158432957Y-106491142D02*
X158337719Y-106681619D01*
X158337719Y-106681619D02*
X158337719Y-106872095D01*
X158337719Y-106872095D02*
X159290100Y-107062571D01*
X157480576Y-107729238D02*
X157480576Y-106395904D01*
X157480576Y-106586380D02*
X157385338Y-106491142D01*
X157385338Y-106491142D02*
X157194862Y-106395904D01*
X157194862Y-106395904D02*
X156909147Y-106395904D01*
X156909147Y-106395904D02*
X156718671Y-106491142D01*
X156718671Y-106491142D02*
X156623433Y-106681619D01*
X156623433Y-106681619D02*
X156623433Y-107729238D01*
X156623433Y-106681619D02*
X156528195Y-106491142D01*
X156528195Y-106491142D02*
X156337719Y-106395904D01*
X156337719Y-106395904D02*
X156052005Y-106395904D01*
X156052005Y-106395904D02*
X155861528Y-106491142D01*
X155861528Y-106491142D02*
X155766290Y-106681619D01*
X155766290Y-106681619D02*
X155766290Y-107729238D01*
X154813909Y-107729238D02*
X154813909Y-106395904D01*
X154813909Y-105729238D02*
X154909147Y-105824476D01*
X154909147Y-105824476D02*
X154813909Y-105919714D01*
X154813909Y-105919714D02*
X154718671Y-105824476D01*
X154718671Y-105824476D02*
X154813909Y-105729238D01*
X154813909Y-105729238D02*
X154813909Y-105919714D01*
X152718671Y-107729238D02*
X153385338Y-106776857D01*
X153861528Y-107729238D02*
X153861528Y-105729238D01*
X153861528Y-105729238D02*
X153099623Y-105729238D01*
X153099623Y-105729238D02*
X152909147Y-105824476D01*
X152909147Y-105824476D02*
X152813909Y-105919714D01*
X152813909Y-105919714D02*
X152718671Y-106110190D01*
X152718671Y-106110190D02*
X152718671Y-106395904D01*
X152718671Y-106395904D02*
X152813909Y-106586380D01*
X152813909Y-106586380D02*
X152909147Y-106681619D01*
X152909147Y-106681619D02*
X153099623Y-106776857D01*
X153099623Y-106776857D02*
X153861528Y-106776857D01*
X151956766Y-107157809D02*
X151004385Y-107157809D01*
X152147242Y-107729238D02*
X151480576Y-105729238D01*
X151480576Y-105729238D02*
X150813909Y-107729238D01*
X150432956Y-105729238D02*
X149290099Y-105729238D01*
X149861528Y-107729238D02*
X149861528Y-105729238D01*
X147290098Y-106395904D02*
X146813908Y-107729238D01*
X146813908Y-107729238D02*
X146337717Y-106395904D01*
X145194860Y-105729238D02*
X145004383Y-105729238D01*
X145004383Y-105729238D02*
X144813907Y-105824476D01*
X144813907Y-105824476D02*
X144718669Y-105919714D01*
X144718669Y-105919714D02*
X144623431Y-106110190D01*
X144623431Y-106110190D02*
X144528193Y-106491142D01*
X144528193Y-106491142D02*
X144528193Y-106967333D01*
X144528193Y-106967333D02*
X144623431Y-107348285D01*
X144623431Y-107348285D02*
X144718669Y-107538761D01*
X144718669Y-107538761D02*
X144813907Y-107634000D01*
X144813907Y-107634000D02*
X145004383Y-107729238D01*
X145004383Y-107729238D02*
X145194860Y-107729238D01*
X145194860Y-107729238D02*
X145385336Y-107634000D01*
X145385336Y-107634000D02*
X145480574Y-107538761D01*
X145480574Y-107538761D02*
X145575812Y-107348285D01*
X145575812Y-107348285D02*
X145671050Y-106967333D01*
X145671050Y-106967333D02*
X145671050Y-106491142D01*
X145671050Y-106491142D02*
X145575812Y-106110190D01*
X145575812Y-106110190D02*
X145480574Y-105919714D01*
X145480574Y-105919714D02*
X145385336Y-105824476D01*
X145385336Y-105824476D02*
X145194860Y-105729238D01*
X143290098Y-105729238D02*
X143099621Y-105729238D01*
X143099621Y-105729238D02*
X142909145Y-105824476D01*
X142909145Y-105824476D02*
X142813907Y-105919714D01*
X142813907Y-105919714D02*
X142718669Y-106110190D01*
X142718669Y-106110190D02*
X142623431Y-106491142D01*
X142623431Y-106491142D02*
X142623431Y-106967333D01*
X142623431Y-106967333D02*
X142718669Y-107348285D01*
X142718669Y-107348285D02*
X142813907Y-107538761D01*
X142813907Y-107538761D02*
X142909145Y-107634000D01*
X142909145Y-107634000D02*
X143099621Y-107729238D01*
X143099621Y-107729238D02*
X143290098Y-107729238D01*
X143290098Y-107729238D02*
X143480574Y-107634000D01*
X143480574Y-107634000D02*
X143575812Y-107538761D01*
X143575812Y-107538761D02*
X143671050Y-107348285D01*
X143671050Y-107348285D02*
X143766288Y-106967333D01*
X143766288Y-106967333D02*
X143766288Y-106491142D01*
X143766288Y-106491142D02*
X143671050Y-106110190D01*
X143671050Y-106110190D02*
X143575812Y-105919714D01*
X143575812Y-105919714D02*
X143480574Y-105824476D01*
X143480574Y-105824476D02*
X143290098Y-105729238D01*
D10*
X121780074Y-76163035D02*
X122351502Y-76163035D01*
X122065788Y-76163035D02*
X122065788Y-75163035D01*
X122065788Y-75163035D02*
X122161026Y-75305892D01*
X122161026Y-75305892D02*
X122256264Y-75401130D01*
X122256264Y-75401130D02*
X122351502Y-75448749D01*
X121351502Y-76067796D02*
X121303883Y-76115416D01*
X121303883Y-76115416D02*
X121351502Y-76163035D01*
X121351502Y-76163035D02*
X121399121Y-76115416D01*
X121399121Y-76115416D02*
X121351502Y-76067796D01*
X121351502Y-76067796D02*
X121351502Y-76163035D01*
X121351502Y-75543987D02*
X121303883Y-75591606D01*
X121303883Y-75591606D02*
X121351502Y-75639225D01*
X121351502Y-75639225D02*
X121399121Y-75591606D01*
X121399121Y-75591606D02*
X121351502Y-75543987D01*
X121351502Y-75543987D02*
X121351502Y-75639225D01*
X120351503Y-75210654D02*
X120446741Y-75163035D01*
X120446741Y-75163035D02*
X120589598Y-75163035D01*
X120589598Y-75163035D02*
X120732455Y-75210654D01*
X120732455Y-75210654D02*
X120827693Y-75305892D01*
X120827693Y-75305892D02*
X120875312Y-75401130D01*
X120875312Y-75401130D02*
X120922931Y-75591606D01*
X120922931Y-75591606D02*
X120922931Y-75734463D01*
X120922931Y-75734463D02*
X120875312Y-75924939D01*
X120875312Y-75924939D02*
X120827693Y-76020177D01*
X120827693Y-76020177D02*
X120732455Y-76115416D01*
X120732455Y-76115416D02*
X120589598Y-76163035D01*
X120589598Y-76163035D02*
X120494360Y-76163035D01*
X120494360Y-76163035D02*
X120351503Y-76115416D01*
X120351503Y-76115416D02*
X120303884Y-76067796D01*
X120303884Y-76067796D02*
X120303884Y-75734463D01*
X120303884Y-75734463D02*
X120494360Y-75734463D01*
X119875312Y-76163035D02*
X119875312Y-75163035D01*
X119875312Y-75163035D02*
X119303884Y-76163035D01*
X119303884Y-76163035D02*
X119303884Y-75163035D01*
X118827693Y-76163035D02*
X118827693Y-75163035D01*
X118827693Y-75163035D02*
X118589598Y-75163035D01*
X118589598Y-75163035D02*
X118446741Y-75210654D01*
X118446741Y-75210654D02*
X118351503Y-75305892D01*
X118351503Y-75305892D02*
X118303884Y-75401130D01*
X118303884Y-75401130D02*
X118256265Y-75591606D01*
X118256265Y-75591606D02*
X118256265Y-75734463D01*
X118256265Y-75734463D02*
X118303884Y-75924939D01*
X118303884Y-75924939D02*
X118351503Y-76020177D01*
X118351503Y-76020177D02*
X118446741Y-76115416D01*
X118446741Y-76115416D02*
X118589598Y-76163035D01*
X118589598Y-76163035D02*
X118827693Y-76163035D01*
X132161026Y-76868217D02*
X132113407Y-76820598D01*
X132113407Y-76820598D02*
X132018169Y-76772979D01*
X132018169Y-76772979D02*
X131780074Y-76772979D01*
X131780074Y-76772979D02*
X131684836Y-76820598D01*
X131684836Y-76820598D02*
X131637217Y-76868217D01*
X131637217Y-76868217D02*
X131589598Y-76963455D01*
X131589598Y-76963455D02*
X131589598Y-77058693D01*
X131589598Y-77058693D02*
X131637217Y-77201550D01*
X131637217Y-77201550D02*
X132208645Y-77772979D01*
X132208645Y-77772979D02*
X131589598Y-77772979D01*
X131161026Y-77677740D02*
X131113407Y-77725360D01*
X131113407Y-77725360D02*
X131161026Y-77772979D01*
X131161026Y-77772979D02*
X131208645Y-77725360D01*
X131208645Y-77725360D02*
X131161026Y-77677740D01*
X131161026Y-77677740D02*
X131161026Y-77772979D01*
X131161026Y-77153931D02*
X131113407Y-77201550D01*
X131113407Y-77201550D02*
X131161026Y-77249169D01*
X131161026Y-77249169D02*
X131208645Y-77201550D01*
X131208645Y-77201550D02*
X131161026Y-77153931D01*
X131161026Y-77153931D02*
X131161026Y-77249169D01*
X130732455Y-77487264D02*
X130256265Y-77487264D01*
X130827693Y-77772979D02*
X130494360Y-76772979D01*
X130494360Y-76772979D02*
X130161027Y-77772979D01*
X129303884Y-77772979D02*
X129875312Y-77772979D01*
X129589598Y-77772979D02*
X129589598Y-76772979D01*
X129589598Y-76772979D02*
X129684836Y-76915836D01*
X129684836Y-76915836D02*
X129780074Y-77011074D01*
X129780074Y-77011074D02*
X129875312Y-77058693D01*
X128161027Y-76725360D02*
X129018169Y-78011074D01*
X127827693Y-77772979D02*
X127827693Y-76772979D01*
X127827693Y-76772979D02*
X127446741Y-76772979D01*
X127446741Y-76772979D02*
X127351503Y-76820598D01*
X127351503Y-76820598D02*
X127303884Y-76868217D01*
X127303884Y-76868217D02*
X127256265Y-76963455D01*
X127256265Y-76963455D02*
X127256265Y-77106312D01*
X127256265Y-77106312D02*
X127303884Y-77201550D01*
X127303884Y-77201550D02*
X127351503Y-77249169D01*
X127351503Y-77249169D02*
X127446741Y-77296788D01*
X127446741Y-77296788D02*
X127827693Y-77296788D01*
X126922931Y-76772979D02*
X126684836Y-77772979D01*
X126684836Y-77772979D02*
X126494360Y-77058693D01*
X126494360Y-77058693D02*
X126303884Y-77772979D01*
X126303884Y-77772979D02*
X126065789Y-76772979D01*
X125684836Y-77772979D02*
X125684836Y-76772979D01*
X125684836Y-76772979D02*
X125351503Y-77487264D01*
X125351503Y-77487264D02*
X125018170Y-76772979D01*
X125018170Y-76772979D02*
X125018170Y-77772979D01*
X124065789Y-77772979D02*
X124541979Y-77772979D01*
X124541979Y-77772979D02*
X124541979Y-76772979D01*
X123256265Y-76772979D02*
X123732455Y-76772979D01*
X123732455Y-76772979D02*
X123780074Y-77249169D01*
X123780074Y-77249169D02*
X123732455Y-77201550D01*
X123732455Y-77201550D02*
X123637217Y-77153931D01*
X123637217Y-77153931D02*
X123399122Y-77153931D01*
X123399122Y-77153931D02*
X123303884Y-77201550D01*
X123303884Y-77201550D02*
X123256265Y-77249169D01*
X123256265Y-77249169D02*
X123208646Y-77344407D01*
X123208646Y-77344407D02*
X123208646Y-77582502D01*
X123208646Y-77582502D02*
X123256265Y-77677740D01*
X123256265Y-77677740D02*
X123303884Y-77725360D01*
X123303884Y-77725360D02*
X123399122Y-77772979D01*
X123399122Y-77772979D02*
X123637217Y-77772979D01*
X123637217Y-77772979D02*
X123732455Y-77725360D01*
X123732455Y-77725360D02*
X123780074Y-77677740D01*
X122065789Y-76725360D02*
X122922931Y-78011074D01*
X121732455Y-77772979D02*
X121732455Y-76772979D01*
X121732455Y-76772979D02*
X121351503Y-76772979D01*
X121351503Y-76772979D02*
X121256265Y-76820598D01*
X121256265Y-76820598D02*
X121208646Y-76868217D01*
X121208646Y-76868217D02*
X121161027Y-76963455D01*
X121161027Y-76963455D02*
X121161027Y-77106312D01*
X121161027Y-77106312D02*
X121208646Y-77201550D01*
X121208646Y-77201550D02*
X121256265Y-77249169D01*
X121256265Y-77249169D02*
X121351503Y-77296788D01*
X121351503Y-77296788D02*
X121732455Y-77296788D01*
X120161027Y-77677740D02*
X120208646Y-77725360D01*
X120208646Y-77725360D02*
X120351503Y-77772979D01*
X120351503Y-77772979D02*
X120446741Y-77772979D01*
X120446741Y-77772979D02*
X120589598Y-77725360D01*
X120589598Y-77725360D02*
X120684836Y-77630121D01*
X120684836Y-77630121D02*
X120732455Y-77534883D01*
X120732455Y-77534883D02*
X120780074Y-77344407D01*
X120780074Y-77344407D02*
X120780074Y-77201550D01*
X120780074Y-77201550D02*
X120732455Y-77011074D01*
X120732455Y-77011074D02*
X120684836Y-76915836D01*
X120684836Y-76915836D02*
X120589598Y-76820598D01*
X120589598Y-76820598D02*
X120446741Y-76772979D01*
X120446741Y-76772979D02*
X120351503Y-76772979D01*
X120351503Y-76772979D02*
X120208646Y-76820598D01*
X120208646Y-76820598D02*
X120161027Y-76868217D01*
X119780074Y-76868217D02*
X119732455Y-76820598D01*
X119732455Y-76820598D02*
X119637217Y-76772979D01*
X119637217Y-76772979D02*
X119399122Y-76772979D01*
X119399122Y-76772979D02*
X119303884Y-76820598D01*
X119303884Y-76820598D02*
X119256265Y-76868217D01*
X119256265Y-76868217D02*
X119208646Y-76963455D01*
X119208646Y-76963455D02*
X119208646Y-77058693D01*
X119208646Y-77058693D02*
X119256265Y-77201550D01*
X119256265Y-77201550D02*
X119827693Y-77772979D01*
X119827693Y-77772979D02*
X119208646Y-77772979D01*
X118827693Y-76868217D02*
X118780074Y-76820598D01*
X118780074Y-76820598D02*
X118684836Y-76772979D01*
X118684836Y-76772979D02*
X118446741Y-76772979D01*
X118446741Y-76772979D02*
X118351503Y-76820598D01*
X118351503Y-76820598D02*
X118303884Y-76868217D01*
X118303884Y-76868217D02*
X118256265Y-76963455D01*
X118256265Y-76963455D02*
X118256265Y-77058693D01*
X118256265Y-77058693D02*
X118303884Y-77201550D01*
X118303884Y-77201550D02*
X118875312Y-77772979D01*
X118875312Y-77772979D02*
X118256265Y-77772979D01*
X122589597Y-78382923D02*
X121970550Y-78382923D01*
X121970550Y-78382923D02*
X122303883Y-78763875D01*
X122303883Y-78763875D02*
X122161026Y-78763875D01*
X122161026Y-78763875D02*
X122065788Y-78811494D01*
X122065788Y-78811494D02*
X122018169Y-78859113D01*
X122018169Y-78859113D02*
X121970550Y-78954351D01*
X121970550Y-78954351D02*
X121970550Y-79192446D01*
X121970550Y-79192446D02*
X122018169Y-79287684D01*
X122018169Y-79287684D02*
X122065788Y-79335304D01*
X122065788Y-79335304D02*
X122161026Y-79382923D01*
X122161026Y-79382923D02*
X122446740Y-79382923D01*
X122446740Y-79382923D02*
X122541978Y-79335304D01*
X122541978Y-79335304D02*
X122589597Y-79287684D01*
X121541978Y-79287684D02*
X121494359Y-79335304D01*
X121494359Y-79335304D02*
X121541978Y-79382923D01*
X121541978Y-79382923D02*
X121589597Y-79335304D01*
X121589597Y-79335304D02*
X121541978Y-79287684D01*
X121541978Y-79287684D02*
X121541978Y-79382923D01*
X121541978Y-78763875D02*
X121494359Y-78811494D01*
X121494359Y-78811494D02*
X121541978Y-78859113D01*
X121541978Y-78859113D02*
X121589597Y-78811494D01*
X121589597Y-78811494D02*
X121541978Y-78763875D01*
X121541978Y-78763875D02*
X121541978Y-78859113D01*
X121161026Y-78382923D02*
X120541979Y-78382923D01*
X120541979Y-78382923D02*
X120875312Y-78763875D01*
X120875312Y-78763875D02*
X120732455Y-78763875D01*
X120732455Y-78763875D02*
X120637217Y-78811494D01*
X120637217Y-78811494D02*
X120589598Y-78859113D01*
X120589598Y-78859113D02*
X120541979Y-78954351D01*
X120541979Y-78954351D02*
X120541979Y-79192446D01*
X120541979Y-79192446D02*
X120589598Y-79287684D01*
X120589598Y-79287684D02*
X120637217Y-79335304D01*
X120637217Y-79335304D02*
X120732455Y-79382923D01*
X120732455Y-79382923D02*
X121018169Y-79382923D01*
X121018169Y-79382923D02*
X121113407Y-79335304D01*
X121113407Y-79335304D02*
X121161026Y-79287684D01*
X120113407Y-79287684D02*
X120065788Y-79335304D01*
X120065788Y-79335304D02*
X120113407Y-79382923D01*
X120113407Y-79382923D02*
X120161026Y-79335304D01*
X120161026Y-79335304D02*
X120113407Y-79287684D01*
X120113407Y-79287684D02*
X120113407Y-79382923D01*
X119732455Y-78382923D02*
X119113408Y-78382923D01*
X119113408Y-78382923D02*
X119446741Y-78763875D01*
X119446741Y-78763875D02*
X119303884Y-78763875D01*
X119303884Y-78763875D02*
X119208646Y-78811494D01*
X119208646Y-78811494D02*
X119161027Y-78859113D01*
X119161027Y-78859113D02*
X119113408Y-78954351D01*
X119113408Y-78954351D02*
X119113408Y-79192446D01*
X119113408Y-79192446D02*
X119161027Y-79287684D01*
X119161027Y-79287684D02*
X119208646Y-79335304D01*
X119208646Y-79335304D02*
X119303884Y-79382923D01*
X119303884Y-79382923D02*
X119589598Y-79382923D01*
X119589598Y-79382923D02*
X119684836Y-79335304D01*
X119684836Y-79335304D02*
X119732455Y-79287684D01*
X118827693Y-78382923D02*
X118494360Y-79382923D01*
X118494360Y-79382923D02*
X118161027Y-78382923D01*
X131684836Y-80326200D02*
X131684836Y-80992867D01*
X131922931Y-79945248D02*
X132161026Y-80659533D01*
X132161026Y-80659533D02*
X131541979Y-80659533D01*
X131161026Y-80897628D02*
X131113407Y-80945248D01*
X131113407Y-80945248D02*
X131161026Y-80992867D01*
X131161026Y-80992867D02*
X131208645Y-80945248D01*
X131208645Y-80945248D02*
X131161026Y-80897628D01*
X131161026Y-80897628D02*
X131161026Y-80992867D01*
X131161026Y-80373819D02*
X131113407Y-80421438D01*
X131113407Y-80421438D02*
X131161026Y-80469057D01*
X131161026Y-80469057D02*
X131208645Y-80421438D01*
X131208645Y-80421438D02*
X131161026Y-80373819D01*
X131161026Y-80373819D02*
X131161026Y-80469057D01*
X130732455Y-80707152D02*
X130256265Y-80707152D01*
X130827693Y-80992867D02*
X130494360Y-79992867D01*
X130494360Y-79992867D02*
X130161027Y-80992867D01*
X129875312Y-80088105D02*
X129827693Y-80040486D01*
X129827693Y-80040486D02*
X129732455Y-79992867D01*
X129732455Y-79992867D02*
X129494360Y-79992867D01*
X129494360Y-79992867D02*
X129399122Y-80040486D01*
X129399122Y-80040486D02*
X129351503Y-80088105D01*
X129351503Y-80088105D02*
X129303884Y-80183343D01*
X129303884Y-80183343D02*
X129303884Y-80278581D01*
X129303884Y-80278581D02*
X129351503Y-80421438D01*
X129351503Y-80421438D02*
X129922931Y-80992867D01*
X129922931Y-80992867D02*
X129303884Y-80992867D01*
X128161027Y-79945248D02*
X129018169Y-81230962D01*
X127827693Y-80992867D02*
X127827693Y-79992867D01*
X127827693Y-79992867D02*
X127446741Y-79992867D01*
X127446741Y-79992867D02*
X127351503Y-80040486D01*
X127351503Y-80040486D02*
X127303884Y-80088105D01*
X127303884Y-80088105D02*
X127256265Y-80183343D01*
X127256265Y-80183343D02*
X127256265Y-80326200D01*
X127256265Y-80326200D02*
X127303884Y-80421438D01*
X127303884Y-80421438D02*
X127351503Y-80469057D01*
X127351503Y-80469057D02*
X127446741Y-80516676D01*
X127446741Y-80516676D02*
X127827693Y-80516676D01*
X126922931Y-79992867D02*
X126684836Y-80992867D01*
X126684836Y-80992867D02*
X126494360Y-80278581D01*
X126494360Y-80278581D02*
X126303884Y-80992867D01*
X126303884Y-80992867D02*
X126065789Y-79992867D01*
X125684836Y-80992867D02*
X125684836Y-79992867D01*
X125684836Y-79992867D02*
X125351503Y-80707152D01*
X125351503Y-80707152D02*
X125018170Y-79992867D01*
X125018170Y-79992867D02*
X125018170Y-80992867D01*
X124065789Y-80992867D02*
X124541979Y-80992867D01*
X124541979Y-80992867D02*
X124541979Y-79992867D01*
X123303884Y-79992867D02*
X123494360Y-79992867D01*
X123494360Y-79992867D02*
X123589598Y-80040486D01*
X123589598Y-80040486D02*
X123637217Y-80088105D01*
X123637217Y-80088105D02*
X123732455Y-80230962D01*
X123732455Y-80230962D02*
X123780074Y-80421438D01*
X123780074Y-80421438D02*
X123780074Y-80802390D01*
X123780074Y-80802390D02*
X123732455Y-80897628D01*
X123732455Y-80897628D02*
X123684836Y-80945248D01*
X123684836Y-80945248D02*
X123589598Y-80992867D01*
X123589598Y-80992867D02*
X123399122Y-80992867D01*
X123399122Y-80992867D02*
X123303884Y-80945248D01*
X123303884Y-80945248D02*
X123256265Y-80897628D01*
X123256265Y-80897628D02*
X123208646Y-80802390D01*
X123208646Y-80802390D02*
X123208646Y-80564295D01*
X123208646Y-80564295D02*
X123256265Y-80469057D01*
X123256265Y-80469057D02*
X123303884Y-80421438D01*
X123303884Y-80421438D02*
X123399122Y-80373819D01*
X123399122Y-80373819D02*
X123589598Y-80373819D01*
X123589598Y-80373819D02*
X123684836Y-80421438D01*
X123684836Y-80421438D02*
X123732455Y-80469057D01*
X123732455Y-80469057D02*
X123780074Y-80564295D01*
X122065789Y-79945248D02*
X122922931Y-81230962D01*
X121732455Y-80992867D02*
X121732455Y-79992867D01*
X121732455Y-79992867D02*
X121351503Y-79992867D01*
X121351503Y-79992867D02*
X121256265Y-80040486D01*
X121256265Y-80040486D02*
X121208646Y-80088105D01*
X121208646Y-80088105D02*
X121161027Y-80183343D01*
X121161027Y-80183343D02*
X121161027Y-80326200D01*
X121161027Y-80326200D02*
X121208646Y-80421438D01*
X121208646Y-80421438D02*
X121256265Y-80469057D01*
X121256265Y-80469057D02*
X121351503Y-80516676D01*
X121351503Y-80516676D02*
X121732455Y-80516676D01*
X120161027Y-80897628D02*
X120208646Y-80945248D01*
X120208646Y-80945248D02*
X120351503Y-80992867D01*
X120351503Y-80992867D02*
X120446741Y-80992867D01*
X120446741Y-80992867D02*
X120589598Y-80945248D01*
X120589598Y-80945248D02*
X120684836Y-80850009D01*
X120684836Y-80850009D02*
X120732455Y-80754771D01*
X120732455Y-80754771D02*
X120780074Y-80564295D01*
X120780074Y-80564295D02*
X120780074Y-80421438D01*
X120780074Y-80421438D02*
X120732455Y-80230962D01*
X120732455Y-80230962D02*
X120684836Y-80135724D01*
X120684836Y-80135724D02*
X120589598Y-80040486D01*
X120589598Y-80040486D02*
X120446741Y-79992867D01*
X120446741Y-79992867D02*
X120351503Y-79992867D01*
X120351503Y-79992867D02*
X120208646Y-80040486D01*
X120208646Y-80040486D02*
X120161027Y-80088105D01*
X119780074Y-80088105D02*
X119732455Y-80040486D01*
X119732455Y-80040486D02*
X119637217Y-79992867D01*
X119637217Y-79992867D02*
X119399122Y-79992867D01*
X119399122Y-79992867D02*
X119303884Y-80040486D01*
X119303884Y-80040486D02*
X119256265Y-80088105D01*
X119256265Y-80088105D02*
X119208646Y-80183343D01*
X119208646Y-80183343D02*
X119208646Y-80278581D01*
X119208646Y-80278581D02*
X119256265Y-80421438D01*
X119256265Y-80421438D02*
X119827693Y-80992867D01*
X119827693Y-80992867D02*
X119208646Y-80992867D01*
X118875312Y-79992867D02*
X118256265Y-79992867D01*
X118256265Y-79992867D02*
X118589598Y-80373819D01*
X118589598Y-80373819D02*
X118446741Y-80373819D01*
X118446741Y-80373819D02*
X118351503Y-80421438D01*
X118351503Y-80421438D02*
X118303884Y-80469057D01*
X118303884Y-80469057D02*
X118256265Y-80564295D01*
X118256265Y-80564295D02*
X118256265Y-80802390D01*
X118256265Y-80802390D02*
X118303884Y-80897628D01*
X118303884Y-80897628D02*
X118351503Y-80945248D01*
X118351503Y-80945248D02*
X118446741Y-80992867D01*
X118446741Y-80992867D02*
X118732455Y-80992867D01*
X118732455Y-80992867D02*
X118827693Y-80945248D01*
X118827693Y-80945248D02*
X118875312Y-80897628D01*
X126637217Y-81602811D02*
X127113407Y-81602811D01*
X127113407Y-81602811D02*
X127161026Y-82079001D01*
X127161026Y-82079001D02*
X127113407Y-82031382D01*
X127113407Y-82031382D02*
X127018169Y-81983763D01*
X127018169Y-81983763D02*
X126780074Y-81983763D01*
X126780074Y-81983763D02*
X126684836Y-82031382D01*
X126684836Y-82031382D02*
X126637217Y-82079001D01*
X126637217Y-82079001D02*
X126589598Y-82174239D01*
X126589598Y-82174239D02*
X126589598Y-82412334D01*
X126589598Y-82412334D02*
X126637217Y-82507572D01*
X126637217Y-82507572D02*
X126684836Y-82555192D01*
X126684836Y-82555192D02*
X126780074Y-82602811D01*
X126780074Y-82602811D02*
X127018169Y-82602811D01*
X127018169Y-82602811D02*
X127113407Y-82555192D01*
X127113407Y-82555192D02*
X127161026Y-82507572D01*
X126161026Y-82507572D02*
X126113407Y-82555192D01*
X126113407Y-82555192D02*
X126161026Y-82602811D01*
X126161026Y-82602811D02*
X126208645Y-82555192D01*
X126208645Y-82555192D02*
X126161026Y-82507572D01*
X126161026Y-82507572D02*
X126161026Y-82602811D01*
X126161026Y-81983763D02*
X126113407Y-82031382D01*
X126113407Y-82031382D02*
X126161026Y-82079001D01*
X126161026Y-82079001D02*
X126208645Y-82031382D01*
X126208645Y-82031382D02*
X126161026Y-81983763D01*
X126161026Y-81983763D02*
X126161026Y-82079001D01*
X125684836Y-82602811D02*
X125684836Y-81602811D01*
X125684836Y-81602811D02*
X125446741Y-81602811D01*
X125446741Y-81602811D02*
X125303884Y-81650430D01*
X125303884Y-81650430D02*
X125208646Y-81745668D01*
X125208646Y-81745668D02*
X125161027Y-81840906D01*
X125161027Y-81840906D02*
X125113408Y-82031382D01*
X125113408Y-82031382D02*
X125113408Y-82174239D01*
X125113408Y-82174239D02*
X125161027Y-82364715D01*
X125161027Y-82364715D02*
X125208646Y-82459953D01*
X125208646Y-82459953D02*
X125303884Y-82555192D01*
X125303884Y-82555192D02*
X125446741Y-82602811D01*
X125446741Y-82602811D02*
X125684836Y-82602811D01*
X124161027Y-82602811D02*
X124732455Y-82602811D01*
X124446741Y-82602811D02*
X124446741Y-81602811D01*
X124446741Y-81602811D02*
X124541979Y-81745668D01*
X124541979Y-81745668D02*
X124637217Y-81840906D01*
X124637217Y-81840906D02*
X124732455Y-81888525D01*
X123303884Y-81936144D02*
X123303884Y-82602811D01*
X123541979Y-81555192D02*
X123780074Y-82269477D01*
X123780074Y-82269477D02*
X123161027Y-82269477D01*
X122065789Y-81555192D02*
X122922931Y-82840906D01*
X121732455Y-82602811D02*
X121732455Y-81602811D01*
X121732455Y-81602811D02*
X121351503Y-81602811D01*
X121351503Y-81602811D02*
X121256265Y-81650430D01*
X121256265Y-81650430D02*
X121208646Y-81698049D01*
X121208646Y-81698049D02*
X121161027Y-81793287D01*
X121161027Y-81793287D02*
X121161027Y-81936144D01*
X121161027Y-81936144D02*
X121208646Y-82031382D01*
X121208646Y-82031382D02*
X121256265Y-82079001D01*
X121256265Y-82079001D02*
X121351503Y-82126620D01*
X121351503Y-82126620D02*
X121732455Y-82126620D01*
X120161027Y-82507572D02*
X120208646Y-82555192D01*
X120208646Y-82555192D02*
X120351503Y-82602811D01*
X120351503Y-82602811D02*
X120446741Y-82602811D01*
X120446741Y-82602811D02*
X120589598Y-82555192D01*
X120589598Y-82555192D02*
X120684836Y-82459953D01*
X120684836Y-82459953D02*
X120732455Y-82364715D01*
X120732455Y-82364715D02*
X120780074Y-82174239D01*
X120780074Y-82174239D02*
X120780074Y-82031382D01*
X120780074Y-82031382D02*
X120732455Y-81840906D01*
X120732455Y-81840906D02*
X120684836Y-81745668D01*
X120684836Y-81745668D02*
X120589598Y-81650430D01*
X120589598Y-81650430D02*
X120446741Y-81602811D01*
X120446741Y-81602811D02*
X120351503Y-81602811D01*
X120351503Y-81602811D02*
X120208646Y-81650430D01*
X120208646Y-81650430D02*
X120161027Y-81698049D01*
X119208646Y-82602811D02*
X119780074Y-82602811D01*
X119494360Y-82602811D02*
X119494360Y-81602811D01*
X119494360Y-81602811D02*
X119589598Y-81745668D01*
X119589598Y-81745668D02*
X119684836Y-81840906D01*
X119684836Y-81840906D02*
X119780074Y-81888525D01*
X118351503Y-81602811D02*
X118541979Y-81602811D01*
X118541979Y-81602811D02*
X118637217Y-81650430D01*
X118637217Y-81650430D02*
X118684836Y-81698049D01*
X118684836Y-81698049D02*
X118780074Y-81840906D01*
X118780074Y-81840906D02*
X118827693Y-82031382D01*
X118827693Y-82031382D02*
X118827693Y-82412334D01*
X118827693Y-82412334D02*
X118780074Y-82507572D01*
X118780074Y-82507572D02*
X118732455Y-82555192D01*
X118732455Y-82555192D02*
X118637217Y-82602811D01*
X118637217Y-82602811D02*
X118446741Y-82602811D01*
X118446741Y-82602811D02*
X118351503Y-82555192D01*
X118351503Y-82555192D02*
X118303884Y-82507572D01*
X118303884Y-82507572D02*
X118256265Y-82412334D01*
X118256265Y-82412334D02*
X118256265Y-82174239D01*
X118256265Y-82174239D02*
X118303884Y-82079001D01*
X118303884Y-82079001D02*
X118351503Y-82031382D01*
X118351503Y-82031382D02*
X118446741Y-81983763D01*
X118446741Y-81983763D02*
X118637217Y-81983763D01*
X118637217Y-81983763D02*
X118732455Y-82031382D01*
X118732455Y-82031382D02*
X118780074Y-82079001D01*
X118780074Y-82079001D02*
X118827693Y-82174239D01*
X133637217Y-83212755D02*
X133827693Y-83212755D01*
X133827693Y-83212755D02*
X133922931Y-83260374D01*
X133922931Y-83260374D02*
X133970550Y-83307993D01*
X133970550Y-83307993D02*
X134065788Y-83450850D01*
X134065788Y-83450850D02*
X134113407Y-83641326D01*
X134113407Y-83641326D02*
X134113407Y-84022278D01*
X134113407Y-84022278D02*
X134065788Y-84117516D01*
X134065788Y-84117516D02*
X134018169Y-84165136D01*
X134018169Y-84165136D02*
X133922931Y-84212755D01*
X133922931Y-84212755D02*
X133732455Y-84212755D01*
X133732455Y-84212755D02*
X133637217Y-84165136D01*
X133637217Y-84165136D02*
X133589598Y-84117516D01*
X133589598Y-84117516D02*
X133541979Y-84022278D01*
X133541979Y-84022278D02*
X133541979Y-83784183D01*
X133541979Y-83784183D02*
X133589598Y-83688945D01*
X133589598Y-83688945D02*
X133637217Y-83641326D01*
X133637217Y-83641326D02*
X133732455Y-83593707D01*
X133732455Y-83593707D02*
X133922931Y-83593707D01*
X133922931Y-83593707D02*
X134018169Y-83641326D01*
X134018169Y-83641326D02*
X134065788Y-83688945D01*
X134065788Y-83688945D02*
X134113407Y-83784183D01*
X133113407Y-84117516D02*
X133065788Y-84165136D01*
X133065788Y-84165136D02*
X133113407Y-84212755D01*
X133113407Y-84212755D02*
X133161026Y-84165136D01*
X133161026Y-84165136D02*
X133113407Y-84117516D01*
X133113407Y-84117516D02*
X133113407Y-84212755D01*
X133113407Y-83593707D02*
X133065788Y-83641326D01*
X133065788Y-83641326D02*
X133113407Y-83688945D01*
X133113407Y-83688945D02*
X133161026Y-83641326D01*
X133161026Y-83641326D02*
X133113407Y-83593707D01*
X133113407Y-83593707D02*
X133113407Y-83688945D01*
X132065789Y-84212755D02*
X132399122Y-83736564D01*
X132637217Y-84212755D02*
X132637217Y-83212755D01*
X132637217Y-83212755D02*
X132256265Y-83212755D01*
X132256265Y-83212755D02*
X132161027Y-83260374D01*
X132161027Y-83260374D02*
X132113408Y-83307993D01*
X132113408Y-83307993D02*
X132065789Y-83403231D01*
X132065789Y-83403231D02*
X132065789Y-83546088D01*
X132065789Y-83546088D02*
X132113408Y-83641326D01*
X132113408Y-83641326D02*
X132161027Y-83688945D01*
X132161027Y-83688945D02*
X132256265Y-83736564D01*
X132256265Y-83736564D02*
X132637217Y-83736564D01*
X131732455Y-83212755D02*
X131065789Y-84212755D01*
X131065789Y-83212755D02*
X131732455Y-84212755D01*
X130684836Y-84212755D02*
X130684836Y-83212755D01*
X130684836Y-83212755D02*
X130446741Y-83212755D01*
X130446741Y-83212755D02*
X130303884Y-83260374D01*
X130303884Y-83260374D02*
X130208646Y-83355612D01*
X130208646Y-83355612D02*
X130161027Y-83450850D01*
X130161027Y-83450850D02*
X130113408Y-83641326D01*
X130113408Y-83641326D02*
X130113408Y-83784183D01*
X130113408Y-83784183D02*
X130161027Y-83974659D01*
X130161027Y-83974659D02*
X130208646Y-84069897D01*
X130208646Y-84069897D02*
X130303884Y-84165136D01*
X130303884Y-84165136D02*
X130446741Y-84212755D01*
X130446741Y-84212755D02*
X130684836Y-84212755D01*
X129161027Y-84212755D02*
X129732455Y-84212755D01*
X129446741Y-84212755D02*
X129446741Y-83212755D01*
X129446741Y-83212755D02*
X129541979Y-83355612D01*
X129541979Y-83355612D02*
X129637217Y-83450850D01*
X129637217Y-83450850D02*
X129732455Y-83498469D01*
X128018170Y-83165136D02*
X128875312Y-84450850D01*
X127684836Y-84212755D02*
X127684836Y-83212755D01*
X127684836Y-83212755D02*
X127303884Y-83212755D01*
X127303884Y-83212755D02*
X127208646Y-83260374D01*
X127208646Y-83260374D02*
X127161027Y-83307993D01*
X127161027Y-83307993D02*
X127113408Y-83403231D01*
X127113408Y-83403231D02*
X127113408Y-83546088D01*
X127113408Y-83546088D02*
X127161027Y-83641326D01*
X127161027Y-83641326D02*
X127208646Y-83688945D01*
X127208646Y-83688945D02*
X127303884Y-83736564D01*
X127303884Y-83736564D02*
X127684836Y-83736564D01*
X126780074Y-83212755D02*
X126541979Y-84212755D01*
X126541979Y-84212755D02*
X126351503Y-83498469D01*
X126351503Y-83498469D02*
X126161027Y-84212755D01*
X126161027Y-84212755D02*
X125922932Y-83212755D01*
X125541979Y-84212755D02*
X125541979Y-83212755D01*
X125541979Y-83212755D02*
X125208646Y-83927040D01*
X125208646Y-83927040D02*
X124875313Y-83212755D01*
X124875313Y-83212755D02*
X124875313Y-84212755D01*
X123922932Y-84212755D02*
X124399122Y-84212755D01*
X124399122Y-84212755D02*
X124399122Y-83212755D01*
X123065789Y-84212755D02*
X123637217Y-84212755D01*
X123351503Y-84212755D02*
X123351503Y-83212755D01*
X123351503Y-83212755D02*
X123446741Y-83355612D01*
X123446741Y-83355612D02*
X123541979Y-83450850D01*
X123541979Y-83450850D02*
X123637217Y-83498469D01*
X121922932Y-83165136D02*
X122780074Y-84450850D01*
X121589598Y-84212755D02*
X121589598Y-83212755D01*
X121589598Y-83212755D02*
X121208646Y-83212755D01*
X121208646Y-83212755D02*
X121113408Y-83260374D01*
X121113408Y-83260374D02*
X121065789Y-83307993D01*
X121065789Y-83307993D02*
X121018170Y-83403231D01*
X121018170Y-83403231D02*
X121018170Y-83546088D01*
X121018170Y-83546088D02*
X121065789Y-83641326D01*
X121065789Y-83641326D02*
X121113408Y-83688945D01*
X121113408Y-83688945D02*
X121208646Y-83736564D01*
X121208646Y-83736564D02*
X121589598Y-83736564D01*
X120637217Y-83927040D02*
X120161027Y-83927040D01*
X120732455Y-84212755D02*
X120399122Y-83212755D01*
X120399122Y-83212755D02*
X120065789Y-84212755D01*
X119208646Y-84212755D02*
X119780074Y-84212755D01*
X119494360Y-84212755D02*
X119494360Y-83212755D01*
X119494360Y-83212755D02*
X119589598Y-83355612D01*
X119589598Y-83355612D02*
X119684836Y-83450850D01*
X119684836Y-83450850D02*
X119780074Y-83498469D01*
X118827693Y-83307993D02*
X118780074Y-83260374D01*
X118780074Y-83260374D02*
X118684836Y-83212755D01*
X118684836Y-83212755D02*
X118446741Y-83212755D01*
X118446741Y-83212755D02*
X118351503Y-83260374D01*
X118351503Y-83260374D02*
X118303884Y-83307993D01*
X118303884Y-83307993D02*
X118256265Y-83403231D01*
X118256265Y-83403231D02*
X118256265Y-83498469D01*
X118256265Y-83498469D02*
X118303884Y-83641326D01*
X118303884Y-83641326D02*
X118875312Y-84212755D01*
X118875312Y-84212755D02*
X118256265Y-84212755D01*
X127208645Y-84822699D02*
X126541979Y-84822699D01*
X126541979Y-84822699D02*
X126970550Y-85822699D01*
X126161026Y-85727460D02*
X126113407Y-85775080D01*
X126113407Y-85775080D02*
X126161026Y-85822699D01*
X126161026Y-85822699D02*
X126208645Y-85775080D01*
X126208645Y-85775080D02*
X126161026Y-85727460D01*
X126161026Y-85727460D02*
X126161026Y-85822699D01*
X126161026Y-85203651D02*
X126113407Y-85251270D01*
X126113407Y-85251270D02*
X126161026Y-85298889D01*
X126161026Y-85298889D02*
X126208645Y-85251270D01*
X126208645Y-85251270D02*
X126161026Y-85203651D01*
X126161026Y-85203651D02*
X126161026Y-85298889D01*
X125684836Y-85822699D02*
X125684836Y-84822699D01*
X125684836Y-84822699D02*
X125446741Y-84822699D01*
X125446741Y-84822699D02*
X125303884Y-84870318D01*
X125303884Y-84870318D02*
X125208646Y-84965556D01*
X125208646Y-84965556D02*
X125161027Y-85060794D01*
X125161027Y-85060794D02*
X125113408Y-85251270D01*
X125113408Y-85251270D02*
X125113408Y-85394127D01*
X125113408Y-85394127D02*
X125161027Y-85584603D01*
X125161027Y-85584603D02*
X125208646Y-85679841D01*
X125208646Y-85679841D02*
X125303884Y-85775080D01*
X125303884Y-85775080D02*
X125446741Y-85822699D01*
X125446741Y-85822699D02*
X125684836Y-85822699D01*
X124161027Y-85822699D02*
X124732455Y-85822699D01*
X124446741Y-85822699D02*
X124446741Y-84822699D01*
X124446741Y-84822699D02*
X124541979Y-84965556D01*
X124541979Y-84965556D02*
X124637217Y-85060794D01*
X124637217Y-85060794D02*
X124732455Y-85108413D01*
X123256265Y-84822699D02*
X123732455Y-84822699D01*
X123732455Y-84822699D02*
X123780074Y-85298889D01*
X123780074Y-85298889D02*
X123732455Y-85251270D01*
X123732455Y-85251270D02*
X123637217Y-85203651D01*
X123637217Y-85203651D02*
X123399122Y-85203651D01*
X123399122Y-85203651D02*
X123303884Y-85251270D01*
X123303884Y-85251270D02*
X123256265Y-85298889D01*
X123256265Y-85298889D02*
X123208646Y-85394127D01*
X123208646Y-85394127D02*
X123208646Y-85632222D01*
X123208646Y-85632222D02*
X123256265Y-85727460D01*
X123256265Y-85727460D02*
X123303884Y-85775080D01*
X123303884Y-85775080D02*
X123399122Y-85822699D01*
X123399122Y-85822699D02*
X123637217Y-85822699D01*
X123637217Y-85822699D02*
X123732455Y-85775080D01*
X123732455Y-85775080D02*
X123780074Y-85727460D01*
X122065789Y-84775080D02*
X122922931Y-86060794D01*
X121732455Y-85822699D02*
X121732455Y-84822699D01*
X121732455Y-84822699D02*
X121351503Y-84822699D01*
X121351503Y-84822699D02*
X121256265Y-84870318D01*
X121256265Y-84870318D02*
X121208646Y-84917937D01*
X121208646Y-84917937D02*
X121161027Y-85013175D01*
X121161027Y-85013175D02*
X121161027Y-85156032D01*
X121161027Y-85156032D02*
X121208646Y-85251270D01*
X121208646Y-85251270D02*
X121256265Y-85298889D01*
X121256265Y-85298889D02*
X121351503Y-85346508D01*
X121351503Y-85346508D02*
X121732455Y-85346508D01*
X120161027Y-85727460D02*
X120208646Y-85775080D01*
X120208646Y-85775080D02*
X120351503Y-85822699D01*
X120351503Y-85822699D02*
X120446741Y-85822699D01*
X120446741Y-85822699D02*
X120589598Y-85775080D01*
X120589598Y-85775080D02*
X120684836Y-85679841D01*
X120684836Y-85679841D02*
X120732455Y-85584603D01*
X120732455Y-85584603D02*
X120780074Y-85394127D01*
X120780074Y-85394127D02*
X120780074Y-85251270D01*
X120780074Y-85251270D02*
X120732455Y-85060794D01*
X120732455Y-85060794D02*
X120684836Y-84965556D01*
X120684836Y-84965556D02*
X120589598Y-84870318D01*
X120589598Y-84870318D02*
X120446741Y-84822699D01*
X120446741Y-84822699D02*
X120351503Y-84822699D01*
X120351503Y-84822699D02*
X120208646Y-84870318D01*
X120208646Y-84870318D02*
X120161027Y-84917937D01*
X119208646Y-85822699D02*
X119780074Y-85822699D01*
X119494360Y-85822699D02*
X119494360Y-84822699D01*
X119494360Y-84822699D02*
X119589598Y-84965556D01*
X119589598Y-84965556D02*
X119684836Y-85060794D01*
X119684836Y-85060794D02*
X119780074Y-85108413D01*
X118875312Y-84822699D02*
X118208646Y-84822699D01*
X118208646Y-84822699D02*
X118637217Y-85822699D01*
X133922931Y-86861214D02*
X134018169Y-86813595D01*
X134018169Y-86813595D02*
X134065788Y-86765976D01*
X134065788Y-86765976D02*
X134113407Y-86670738D01*
X134113407Y-86670738D02*
X134113407Y-86623119D01*
X134113407Y-86623119D02*
X134065788Y-86527881D01*
X134065788Y-86527881D02*
X134018169Y-86480262D01*
X134018169Y-86480262D02*
X133922931Y-86432643D01*
X133922931Y-86432643D02*
X133732455Y-86432643D01*
X133732455Y-86432643D02*
X133637217Y-86480262D01*
X133637217Y-86480262D02*
X133589598Y-86527881D01*
X133589598Y-86527881D02*
X133541979Y-86623119D01*
X133541979Y-86623119D02*
X133541979Y-86670738D01*
X133541979Y-86670738D02*
X133589598Y-86765976D01*
X133589598Y-86765976D02*
X133637217Y-86813595D01*
X133637217Y-86813595D02*
X133732455Y-86861214D01*
X133732455Y-86861214D02*
X133922931Y-86861214D01*
X133922931Y-86861214D02*
X134018169Y-86908833D01*
X134018169Y-86908833D02*
X134065788Y-86956452D01*
X134065788Y-86956452D02*
X134113407Y-87051690D01*
X134113407Y-87051690D02*
X134113407Y-87242166D01*
X134113407Y-87242166D02*
X134065788Y-87337404D01*
X134065788Y-87337404D02*
X134018169Y-87385024D01*
X134018169Y-87385024D02*
X133922931Y-87432643D01*
X133922931Y-87432643D02*
X133732455Y-87432643D01*
X133732455Y-87432643D02*
X133637217Y-87385024D01*
X133637217Y-87385024D02*
X133589598Y-87337404D01*
X133589598Y-87337404D02*
X133541979Y-87242166D01*
X133541979Y-87242166D02*
X133541979Y-87051690D01*
X133541979Y-87051690D02*
X133589598Y-86956452D01*
X133589598Y-86956452D02*
X133637217Y-86908833D01*
X133637217Y-86908833D02*
X133732455Y-86861214D01*
X133113407Y-87337404D02*
X133065788Y-87385024D01*
X133065788Y-87385024D02*
X133113407Y-87432643D01*
X133113407Y-87432643D02*
X133161026Y-87385024D01*
X133161026Y-87385024D02*
X133113407Y-87337404D01*
X133113407Y-87337404D02*
X133113407Y-87432643D01*
X133113407Y-86813595D02*
X133065788Y-86861214D01*
X133065788Y-86861214D02*
X133113407Y-86908833D01*
X133113407Y-86908833D02*
X133161026Y-86861214D01*
X133161026Y-86861214D02*
X133113407Y-86813595D01*
X133113407Y-86813595D02*
X133113407Y-86908833D01*
X132780074Y-86432643D02*
X132208646Y-86432643D01*
X132494360Y-87432643D02*
X132494360Y-86432643D01*
X131970550Y-86432643D02*
X131303884Y-87432643D01*
X131303884Y-86432643D02*
X131970550Y-87432643D01*
X130922931Y-87432643D02*
X130922931Y-86432643D01*
X130922931Y-86432643D02*
X130684836Y-86432643D01*
X130684836Y-86432643D02*
X130541979Y-86480262D01*
X130541979Y-86480262D02*
X130446741Y-86575500D01*
X130446741Y-86575500D02*
X130399122Y-86670738D01*
X130399122Y-86670738D02*
X130351503Y-86861214D01*
X130351503Y-86861214D02*
X130351503Y-87004071D01*
X130351503Y-87004071D02*
X130399122Y-87194547D01*
X130399122Y-87194547D02*
X130446741Y-87289785D01*
X130446741Y-87289785D02*
X130541979Y-87385024D01*
X130541979Y-87385024D02*
X130684836Y-87432643D01*
X130684836Y-87432643D02*
X130922931Y-87432643D01*
X129399122Y-87432643D02*
X129970550Y-87432643D01*
X129684836Y-87432643D02*
X129684836Y-86432643D01*
X129684836Y-86432643D02*
X129780074Y-86575500D01*
X129780074Y-86575500D02*
X129875312Y-86670738D01*
X129875312Y-86670738D02*
X129970550Y-86718357D01*
X128256265Y-86385024D02*
X129113407Y-87670738D01*
X127922931Y-87432643D02*
X127922931Y-86432643D01*
X127922931Y-86432643D02*
X127541979Y-86432643D01*
X127541979Y-86432643D02*
X127446741Y-86480262D01*
X127446741Y-86480262D02*
X127399122Y-86527881D01*
X127399122Y-86527881D02*
X127351503Y-86623119D01*
X127351503Y-86623119D02*
X127351503Y-86765976D01*
X127351503Y-86765976D02*
X127399122Y-86861214D01*
X127399122Y-86861214D02*
X127446741Y-86908833D01*
X127446741Y-86908833D02*
X127541979Y-86956452D01*
X127541979Y-86956452D02*
X127922931Y-86956452D01*
X127018169Y-86432643D02*
X126780074Y-87432643D01*
X126780074Y-87432643D02*
X126589598Y-86718357D01*
X126589598Y-86718357D02*
X126399122Y-87432643D01*
X126399122Y-87432643D02*
X126161027Y-86432643D01*
X125780074Y-87432643D02*
X125780074Y-86432643D01*
X125780074Y-86432643D02*
X125446741Y-87146928D01*
X125446741Y-87146928D02*
X125113408Y-86432643D01*
X125113408Y-86432643D02*
X125113408Y-87432643D01*
X124637217Y-87432643D02*
X124637217Y-86432643D01*
X124637217Y-86908833D02*
X124065789Y-86908833D01*
X124065789Y-87432643D02*
X124065789Y-86432643D01*
X123637217Y-86527881D02*
X123589598Y-86480262D01*
X123589598Y-86480262D02*
X123494360Y-86432643D01*
X123494360Y-86432643D02*
X123256265Y-86432643D01*
X123256265Y-86432643D02*
X123161027Y-86480262D01*
X123161027Y-86480262D02*
X123113408Y-86527881D01*
X123113408Y-86527881D02*
X123065789Y-86623119D01*
X123065789Y-86623119D02*
X123065789Y-86718357D01*
X123065789Y-86718357D02*
X123113408Y-86861214D01*
X123113408Y-86861214D02*
X123684836Y-87432643D01*
X123684836Y-87432643D02*
X123065789Y-87432643D01*
X121922932Y-86385024D02*
X122780074Y-87670738D01*
X121589598Y-87432643D02*
X121589598Y-86432643D01*
X121589598Y-86432643D02*
X121208646Y-86432643D01*
X121208646Y-86432643D02*
X121113408Y-86480262D01*
X121113408Y-86480262D02*
X121065789Y-86527881D01*
X121065789Y-86527881D02*
X121018170Y-86623119D01*
X121018170Y-86623119D02*
X121018170Y-86765976D01*
X121018170Y-86765976D02*
X121065789Y-86861214D01*
X121065789Y-86861214D02*
X121113408Y-86908833D01*
X121113408Y-86908833D02*
X121208646Y-86956452D01*
X121208646Y-86956452D02*
X121589598Y-86956452D01*
X120637217Y-87146928D02*
X120161027Y-87146928D01*
X120732455Y-87432643D02*
X120399122Y-86432643D01*
X120399122Y-86432643D02*
X120065789Y-87432643D01*
X119208646Y-87432643D02*
X119780074Y-87432643D01*
X119494360Y-87432643D02*
X119494360Y-86432643D01*
X119494360Y-86432643D02*
X119589598Y-86575500D01*
X119589598Y-86575500D02*
X119684836Y-86670738D01*
X119684836Y-86670738D02*
X119780074Y-86718357D01*
X118875312Y-86432643D02*
X118256265Y-86432643D01*
X118256265Y-86432643D02*
X118589598Y-86813595D01*
X118589598Y-86813595D02*
X118446741Y-86813595D01*
X118446741Y-86813595D02*
X118351503Y-86861214D01*
X118351503Y-86861214D02*
X118303884Y-86908833D01*
X118303884Y-86908833D02*
X118256265Y-87004071D01*
X118256265Y-87004071D02*
X118256265Y-87242166D01*
X118256265Y-87242166D02*
X118303884Y-87337404D01*
X118303884Y-87337404D02*
X118351503Y-87385024D01*
X118351503Y-87385024D02*
X118446741Y-87432643D01*
X118446741Y-87432643D02*
X118732455Y-87432643D01*
X118732455Y-87432643D02*
X118827693Y-87385024D01*
X118827693Y-87385024D02*
X118875312Y-87337404D01*
X128875312Y-89042587D02*
X128684836Y-89042587D01*
X128684836Y-89042587D02*
X128589598Y-88994968D01*
X128589598Y-88994968D02*
X128541979Y-88947348D01*
X128541979Y-88947348D02*
X128446741Y-88804491D01*
X128446741Y-88804491D02*
X128399122Y-88614015D01*
X128399122Y-88614015D02*
X128399122Y-88233063D01*
X128399122Y-88233063D02*
X128446741Y-88137825D01*
X128446741Y-88137825D02*
X128494360Y-88090206D01*
X128494360Y-88090206D02*
X128589598Y-88042587D01*
X128589598Y-88042587D02*
X128780074Y-88042587D01*
X128780074Y-88042587D02*
X128875312Y-88090206D01*
X128875312Y-88090206D02*
X128922931Y-88137825D01*
X128922931Y-88137825D02*
X128970550Y-88233063D01*
X128970550Y-88233063D02*
X128970550Y-88471158D01*
X128970550Y-88471158D02*
X128922931Y-88566396D01*
X128922931Y-88566396D02*
X128875312Y-88614015D01*
X128875312Y-88614015D02*
X128780074Y-88661634D01*
X128780074Y-88661634D02*
X128589598Y-88661634D01*
X128589598Y-88661634D02*
X128494360Y-88614015D01*
X128494360Y-88614015D02*
X128446741Y-88566396D01*
X128446741Y-88566396D02*
X128399122Y-88471158D01*
X127970550Y-88947348D02*
X127922931Y-88994968D01*
X127922931Y-88994968D02*
X127970550Y-89042587D01*
X127970550Y-89042587D02*
X128018169Y-88994968D01*
X128018169Y-88994968D02*
X127970550Y-88947348D01*
X127970550Y-88947348D02*
X127970550Y-89042587D01*
X127970550Y-88423539D02*
X127922931Y-88471158D01*
X127922931Y-88471158D02*
X127970550Y-88518777D01*
X127970550Y-88518777D02*
X128018169Y-88471158D01*
X128018169Y-88471158D02*
X127970550Y-88423539D01*
X127970550Y-88423539D02*
X127970550Y-88518777D01*
X126922932Y-88947348D02*
X126970551Y-88994968D01*
X126970551Y-88994968D02*
X127113408Y-89042587D01*
X127113408Y-89042587D02*
X127208646Y-89042587D01*
X127208646Y-89042587D02*
X127351503Y-88994968D01*
X127351503Y-88994968D02*
X127446741Y-88899729D01*
X127446741Y-88899729D02*
X127494360Y-88804491D01*
X127494360Y-88804491D02*
X127541979Y-88614015D01*
X127541979Y-88614015D02*
X127541979Y-88471158D01*
X127541979Y-88471158D02*
X127494360Y-88280682D01*
X127494360Y-88280682D02*
X127446741Y-88185444D01*
X127446741Y-88185444D02*
X127351503Y-88090206D01*
X127351503Y-88090206D02*
X127208646Y-88042587D01*
X127208646Y-88042587D02*
X127113408Y-88042587D01*
X127113408Y-88042587D02*
X126970551Y-88090206D01*
X126970551Y-88090206D02*
X126922932Y-88137825D01*
X126541979Y-88756872D02*
X126065789Y-88756872D01*
X126637217Y-89042587D02*
X126303884Y-88042587D01*
X126303884Y-88042587D02*
X125970551Y-89042587D01*
X125637217Y-89042587D02*
X125637217Y-88042587D01*
X125637217Y-88042587D02*
X125065789Y-89042587D01*
X125065789Y-89042587D02*
X125065789Y-88042587D01*
X124018170Y-89042587D02*
X124351503Y-88566396D01*
X124589598Y-89042587D02*
X124589598Y-88042587D01*
X124589598Y-88042587D02*
X124208646Y-88042587D01*
X124208646Y-88042587D02*
X124113408Y-88090206D01*
X124113408Y-88090206D02*
X124065789Y-88137825D01*
X124065789Y-88137825D02*
X124018170Y-88233063D01*
X124018170Y-88233063D02*
X124018170Y-88375920D01*
X124018170Y-88375920D02*
X124065789Y-88471158D01*
X124065789Y-88471158D02*
X124113408Y-88518777D01*
X124113408Y-88518777D02*
X124208646Y-88566396D01*
X124208646Y-88566396D02*
X124589598Y-88566396D01*
X123684836Y-88042587D02*
X123018170Y-89042587D01*
X123018170Y-88042587D02*
X123684836Y-89042587D01*
X122446741Y-88042587D02*
X122351503Y-88042587D01*
X122351503Y-88042587D02*
X122256265Y-88090206D01*
X122256265Y-88090206D02*
X122208646Y-88137825D01*
X122208646Y-88137825D02*
X122161027Y-88233063D01*
X122161027Y-88233063D02*
X122113408Y-88423539D01*
X122113408Y-88423539D02*
X122113408Y-88661634D01*
X122113408Y-88661634D02*
X122161027Y-88852110D01*
X122161027Y-88852110D02*
X122208646Y-88947348D01*
X122208646Y-88947348D02*
X122256265Y-88994968D01*
X122256265Y-88994968D02*
X122351503Y-89042587D01*
X122351503Y-89042587D02*
X122446741Y-89042587D01*
X122446741Y-89042587D02*
X122541979Y-88994968D01*
X122541979Y-88994968D02*
X122589598Y-88947348D01*
X122589598Y-88947348D02*
X122637217Y-88852110D01*
X122637217Y-88852110D02*
X122684836Y-88661634D01*
X122684836Y-88661634D02*
X122684836Y-88423539D01*
X122684836Y-88423539D02*
X122637217Y-88233063D01*
X122637217Y-88233063D02*
X122589598Y-88137825D01*
X122589598Y-88137825D02*
X122541979Y-88090206D01*
X122541979Y-88090206D02*
X122446741Y-88042587D01*
X120970551Y-87994968D02*
X121827693Y-89280682D01*
X120637217Y-89042587D02*
X120637217Y-88042587D01*
X120637217Y-88042587D02*
X120256265Y-88042587D01*
X120256265Y-88042587D02*
X120161027Y-88090206D01*
X120161027Y-88090206D02*
X120113408Y-88137825D01*
X120113408Y-88137825D02*
X120065789Y-88233063D01*
X120065789Y-88233063D02*
X120065789Y-88375920D01*
X120065789Y-88375920D02*
X120113408Y-88471158D01*
X120113408Y-88471158D02*
X120161027Y-88518777D01*
X120161027Y-88518777D02*
X120256265Y-88566396D01*
X120256265Y-88566396D02*
X120637217Y-88566396D01*
X119684836Y-88756872D02*
X119208646Y-88756872D01*
X119780074Y-89042587D02*
X119446741Y-88042587D01*
X119446741Y-88042587D02*
X119113408Y-89042587D01*
X118256265Y-89042587D02*
X118827693Y-89042587D01*
X118541979Y-89042587D02*
X118541979Y-88042587D01*
X118541979Y-88042587D02*
X118637217Y-88185444D01*
X118637217Y-88185444D02*
X118732455Y-88280682D01*
X118732455Y-88280682D02*
X118827693Y-88328301D01*
X129351503Y-90652531D02*
X129922931Y-90652531D01*
X129637217Y-90652531D02*
X129637217Y-89652531D01*
X129637217Y-89652531D02*
X129732455Y-89795388D01*
X129732455Y-89795388D02*
X129827693Y-89890626D01*
X129827693Y-89890626D02*
X129922931Y-89938245D01*
X128732455Y-89652531D02*
X128637217Y-89652531D01*
X128637217Y-89652531D02*
X128541979Y-89700150D01*
X128541979Y-89700150D02*
X128494360Y-89747769D01*
X128494360Y-89747769D02*
X128446741Y-89843007D01*
X128446741Y-89843007D02*
X128399122Y-90033483D01*
X128399122Y-90033483D02*
X128399122Y-90271578D01*
X128399122Y-90271578D02*
X128446741Y-90462054D01*
X128446741Y-90462054D02*
X128494360Y-90557292D01*
X128494360Y-90557292D02*
X128541979Y-90604912D01*
X128541979Y-90604912D02*
X128637217Y-90652531D01*
X128637217Y-90652531D02*
X128732455Y-90652531D01*
X128732455Y-90652531D02*
X128827693Y-90604912D01*
X128827693Y-90604912D02*
X128875312Y-90557292D01*
X128875312Y-90557292D02*
X128922931Y-90462054D01*
X128922931Y-90462054D02*
X128970550Y-90271578D01*
X128970550Y-90271578D02*
X128970550Y-90033483D01*
X128970550Y-90033483D02*
X128922931Y-89843007D01*
X128922931Y-89843007D02*
X128875312Y-89747769D01*
X128875312Y-89747769D02*
X128827693Y-89700150D01*
X128827693Y-89700150D02*
X128732455Y-89652531D01*
X127970550Y-90557292D02*
X127922931Y-90604912D01*
X127922931Y-90604912D02*
X127970550Y-90652531D01*
X127970550Y-90652531D02*
X128018169Y-90604912D01*
X128018169Y-90604912D02*
X127970550Y-90557292D01*
X127970550Y-90557292D02*
X127970550Y-90652531D01*
X127970550Y-90033483D02*
X127922931Y-90081102D01*
X127922931Y-90081102D02*
X127970550Y-90128721D01*
X127970550Y-90128721D02*
X128018169Y-90081102D01*
X128018169Y-90081102D02*
X127970550Y-90033483D01*
X127970550Y-90033483D02*
X127970550Y-90128721D01*
X127637217Y-89652531D02*
X127065789Y-89652531D01*
X127351503Y-90652531D02*
X127351503Y-89652531D01*
X126827693Y-89652531D02*
X126589598Y-90652531D01*
X126589598Y-90652531D02*
X126399122Y-89938245D01*
X126399122Y-89938245D02*
X126208646Y-90652531D01*
X126208646Y-90652531D02*
X125970551Y-89652531D01*
X125018170Y-90557292D02*
X125065789Y-90604912D01*
X125065789Y-90604912D02*
X125208646Y-90652531D01*
X125208646Y-90652531D02*
X125303884Y-90652531D01*
X125303884Y-90652531D02*
X125446741Y-90604912D01*
X125446741Y-90604912D02*
X125541979Y-90509673D01*
X125541979Y-90509673D02*
X125589598Y-90414435D01*
X125589598Y-90414435D02*
X125637217Y-90223959D01*
X125637217Y-90223959D02*
X125637217Y-90081102D01*
X125637217Y-90081102D02*
X125589598Y-89890626D01*
X125589598Y-89890626D02*
X125541979Y-89795388D01*
X125541979Y-89795388D02*
X125446741Y-89700150D01*
X125446741Y-89700150D02*
X125303884Y-89652531D01*
X125303884Y-89652531D02*
X125208646Y-89652531D01*
X125208646Y-89652531D02*
X125065789Y-89700150D01*
X125065789Y-89700150D02*
X125018170Y-89747769D01*
X124589598Y-90652531D02*
X124589598Y-89652531D01*
X124018170Y-90652531D02*
X124446741Y-90081102D01*
X124018170Y-89652531D02*
X124589598Y-90223959D01*
X123399122Y-89652531D02*
X123303884Y-89652531D01*
X123303884Y-89652531D02*
X123208646Y-89700150D01*
X123208646Y-89700150D02*
X123161027Y-89747769D01*
X123161027Y-89747769D02*
X123113408Y-89843007D01*
X123113408Y-89843007D02*
X123065789Y-90033483D01*
X123065789Y-90033483D02*
X123065789Y-90271578D01*
X123065789Y-90271578D02*
X123113408Y-90462054D01*
X123113408Y-90462054D02*
X123161027Y-90557292D01*
X123161027Y-90557292D02*
X123208646Y-90604912D01*
X123208646Y-90604912D02*
X123303884Y-90652531D01*
X123303884Y-90652531D02*
X123399122Y-90652531D01*
X123399122Y-90652531D02*
X123494360Y-90604912D01*
X123494360Y-90604912D02*
X123541979Y-90557292D01*
X123541979Y-90557292D02*
X123589598Y-90462054D01*
X123589598Y-90462054D02*
X123637217Y-90271578D01*
X123637217Y-90271578D02*
X123637217Y-90033483D01*
X123637217Y-90033483D02*
X123589598Y-89843007D01*
X123589598Y-89843007D02*
X123541979Y-89747769D01*
X123541979Y-89747769D02*
X123494360Y-89700150D01*
X123494360Y-89700150D02*
X123399122Y-89652531D01*
X121922932Y-89604912D02*
X122780074Y-90890626D01*
X121589598Y-90652531D02*
X121589598Y-89652531D01*
X121589598Y-89652531D02*
X121208646Y-89652531D01*
X121208646Y-89652531D02*
X121113408Y-89700150D01*
X121113408Y-89700150D02*
X121065789Y-89747769D01*
X121065789Y-89747769D02*
X121018170Y-89843007D01*
X121018170Y-89843007D02*
X121018170Y-89985864D01*
X121018170Y-89985864D02*
X121065789Y-90081102D01*
X121065789Y-90081102D02*
X121113408Y-90128721D01*
X121113408Y-90128721D02*
X121208646Y-90176340D01*
X121208646Y-90176340D02*
X121589598Y-90176340D01*
X120637217Y-90366816D02*
X120161027Y-90366816D01*
X120732455Y-90652531D02*
X120399122Y-89652531D01*
X120399122Y-89652531D02*
X120065789Y-90652531D01*
X119208646Y-90652531D02*
X119780074Y-90652531D01*
X119494360Y-90652531D02*
X119494360Y-89652531D01*
X119494360Y-89652531D02*
X119589598Y-89795388D01*
X119589598Y-89795388D02*
X119684836Y-89890626D01*
X119684836Y-89890626D02*
X119780074Y-89938245D01*
X118637217Y-90081102D02*
X118732455Y-90033483D01*
X118732455Y-90033483D02*
X118780074Y-89985864D01*
X118780074Y-89985864D02*
X118827693Y-89890626D01*
X118827693Y-89890626D02*
X118827693Y-89843007D01*
X118827693Y-89843007D02*
X118780074Y-89747769D01*
X118780074Y-89747769D02*
X118732455Y-89700150D01*
X118732455Y-89700150D02*
X118637217Y-89652531D01*
X118637217Y-89652531D02*
X118446741Y-89652531D01*
X118446741Y-89652531D02*
X118351503Y-89700150D01*
X118351503Y-89700150D02*
X118303884Y-89747769D01*
X118303884Y-89747769D02*
X118256265Y-89843007D01*
X118256265Y-89843007D02*
X118256265Y-89890626D01*
X118256265Y-89890626D02*
X118303884Y-89985864D01*
X118303884Y-89985864D02*
X118351503Y-90033483D01*
X118351503Y-90033483D02*
X118446741Y-90081102D01*
X118446741Y-90081102D02*
X118637217Y-90081102D01*
X118637217Y-90081102D02*
X118732455Y-90128721D01*
X118732455Y-90128721D02*
X118780074Y-90176340D01*
X118780074Y-90176340D02*
X118827693Y-90271578D01*
X118827693Y-90271578D02*
X118827693Y-90462054D01*
X118827693Y-90462054D02*
X118780074Y-90557292D01*
X118780074Y-90557292D02*
X118732455Y-90604912D01*
X118732455Y-90604912D02*
X118637217Y-90652531D01*
X118637217Y-90652531D02*
X118446741Y-90652531D01*
X118446741Y-90652531D02*
X118351503Y-90604912D01*
X118351503Y-90604912D02*
X118303884Y-90557292D01*
X118303884Y-90557292D02*
X118256265Y-90462054D01*
X118256265Y-90462054D02*
X118256265Y-90271578D01*
X118256265Y-90271578D02*
X118303884Y-90176340D01*
X118303884Y-90176340D02*
X118351503Y-90128721D01*
X118351503Y-90128721D02*
X118446741Y-90081102D01*
X129113408Y-92262475D02*
X129684836Y-92262475D01*
X129399122Y-92262475D02*
X129399122Y-91262475D01*
X129399122Y-91262475D02*
X129494360Y-91405332D01*
X129494360Y-91405332D02*
X129589598Y-91500570D01*
X129589598Y-91500570D02*
X129684836Y-91548189D01*
X128161027Y-92262475D02*
X128732455Y-92262475D01*
X128446741Y-92262475D02*
X128446741Y-91262475D01*
X128446741Y-91262475D02*
X128541979Y-91405332D01*
X128541979Y-91405332D02*
X128637217Y-91500570D01*
X128637217Y-91500570D02*
X128732455Y-91548189D01*
X127732455Y-92167236D02*
X127684836Y-92214856D01*
X127684836Y-92214856D02*
X127732455Y-92262475D01*
X127732455Y-92262475D02*
X127780074Y-92214856D01*
X127780074Y-92214856D02*
X127732455Y-92167236D01*
X127732455Y-92167236D02*
X127732455Y-92262475D01*
X127732455Y-91643427D02*
X127684836Y-91691046D01*
X127684836Y-91691046D02*
X127732455Y-91738665D01*
X127732455Y-91738665D02*
X127780074Y-91691046D01*
X127780074Y-91691046D02*
X127732455Y-91643427D01*
X127732455Y-91643427D02*
X127732455Y-91738665D01*
X126684837Y-92167236D02*
X126732456Y-92214856D01*
X126732456Y-92214856D02*
X126875313Y-92262475D01*
X126875313Y-92262475D02*
X126970551Y-92262475D01*
X126970551Y-92262475D02*
X127113408Y-92214856D01*
X127113408Y-92214856D02*
X127208646Y-92119617D01*
X127208646Y-92119617D02*
X127256265Y-92024379D01*
X127256265Y-92024379D02*
X127303884Y-91833903D01*
X127303884Y-91833903D02*
X127303884Y-91691046D01*
X127303884Y-91691046D02*
X127256265Y-91500570D01*
X127256265Y-91500570D02*
X127208646Y-91405332D01*
X127208646Y-91405332D02*
X127113408Y-91310094D01*
X127113408Y-91310094D02*
X126970551Y-91262475D01*
X126970551Y-91262475D02*
X126875313Y-91262475D01*
X126875313Y-91262475D02*
X126732456Y-91310094D01*
X126732456Y-91310094D02*
X126684837Y-91357713D01*
X126303884Y-91976760D02*
X125827694Y-91976760D01*
X126399122Y-92262475D02*
X126065789Y-91262475D01*
X126065789Y-91262475D02*
X125732456Y-92262475D01*
X125399122Y-92262475D02*
X125399122Y-91262475D01*
X125399122Y-91262475D02*
X124827694Y-92262475D01*
X124827694Y-92262475D02*
X124827694Y-91262475D01*
X124494360Y-91262475D02*
X123922932Y-91262475D01*
X124208646Y-92262475D02*
X124208646Y-91262475D01*
X123684836Y-91262475D02*
X123018170Y-92262475D01*
X123018170Y-91262475D02*
X123684836Y-92262475D01*
X122446741Y-91262475D02*
X122351503Y-91262475D01*
X122351503Y-91262475D02*
X122256265Y-91310094D01*
X122256265Y-91310094D02*
X122208646Y-91357713D01*
X122208646Y-91357713D02*
X122161027Y-91452951D01*
X122161027Y-91452951D02*
X122113408Y-91643427D01*
X122113408Y-91643427D02*
X122113408Y-91881522D01*
X122113408Y-91881522D02*
X122161027Y-92071998D01*
X122161027Y-92071998D02*
X122208646Y-92167236D01*
X122208646Y-92167236D02*
X122256265Y-92214856D01*
X122256265Y-92214856D02*
X122351503Y-92262475D01*
X122351503Y-92262475D02*
X122446741Y-92262475D01*
X122446741Y-92262475D02*
X122541979Y-92214856D01*
X122541979Y-92214856D02*
X122589598Y-92167236D01*
X122589598Y-92167236D02*
X122637217Y-92071998D01*
X122637217Y-92071998D02*
X122684836Y-91881522D01*
X122684836Y-91881522D02*
X122684836Y-91643427D01*
X122684836Y-91643427D02*
X122637217Y-91452951D01*
X122637217Y-91452951D02*
X122589598Y-91357713D01*
X122589598Y-91357713D02*
X122541979Y-91310094D01*
X122541979Y-91310094D02*
X122446741Y-91262475D01*
X120970551Y-91214856D02*
X121827693Y-92500570D01*
X120637217Y-92262475D02*
X120637217Y-91262475D01*
X120637217Y-91262475D02*
X120256265Y-91262475D01*
X120256265Y-91262475D02*
X120161027Y-91310094D01*
X120161027Y-91310094D02*
X120113408Y-91357713D01*
X120113408Y-91357713D02*
X120065789Y-91452951D01*
X120065789Y-91452951D02*
X120065789Y-91595808D01*
X120065789Y-91595808D02*
X120113408Y-91691046D01*
X120113408Y-91691046D02*
X120161027Y-91738665D01*
X120161027Y-91738665D02*
X120256265Y-91786284D01*
X120256265Y-91786284D02*
X120637217Y-91786284D01*
X119684836Y-91976760D02*
X119208646Y-91976760D01*
X119780074Y-92262475D02*
X119446741Y-91262475D01*
X119446741Y-91262475D02*
X119113408Y-92262475D01*
X118589598Y-91262475D02*
X118494360Y-91262475D01*
X118494360Y-91262475D02*
X118399122Y-91310094D01*
X118399122Y-91310094D02*
X118351503Y-91357713D01*
X118351503Y-91357713D02*
X118303884Y-91452951D01*
X118303884Y-91452951D02*
X118256265Y-91643427D01*
X118256265Y-91643427D02*
X118256265Y-91881522D01*
X118256265Y-91881522D02*
X118303884Y-92071998D01*
X118303884Y-92071998D02*
X118351503Y-92167236D01*
X118351503Y-92167236D02*
X118399122Y-92214856D01*
X118399122Y-92214856D02*
X118494360Y-92262475D01*
X118494360Y-92262475D02*
X118589598Y-92262475D01*
X118589598Y-92262475D02*
X118684836Y-92214856D01*
X118684836Y-92214856D02*
X118732455Y-92167236D01*
X118732455Y-92167236D02*
X118780074Y-92071998D01*
X118780074Y-92071998D02*
X118827693Y-91881522D01*
X118827693Y-91881522D02*
X118827693Y-91643427D01*
X118827693Y-91643427D02*
X118780074Y-91452951D01*
X118780074Y-91452951D02*
X118732455Y-91357713D01*
X118732455Y-91357713D02*
X118684836Y-91310094D01*
X118684836Y-91310094D02*
X118589598Y-91262475D01*
X128351503Y-93872419D02*
X128922931Y-93872419D01*
X128637217Y-93872419D02*
X128637217Y-92872419D01*
X128637217Y-92872419D02*
X128732455Y-93015276D01*
X128732455Y-93015276D02*
X128827693Y-93110514D01*
X128827693Y-93110514D02*
X128922931Y-93158133D01*
X127970550Y-92967657D02*
X127922931Y-92920038D01*
X127922931Y-92920038D02*
X127827693Y-92872419D01*
X127827693Y-92872419D02*
X127589598Y-92872419D01*
X127589598Y-92872419D02*
X127494360Y-92920038D01*
X127494360Y-92920038D02*
X127446741Y-92967657D01*
X127446741Y-92967657D02*
X127399122Y-93062895D01*
X127399122Y-93062895D02*
X127399122Y-93158133D01*
X127399122Y-93158133D02*
X127446741Y-93300990D01*
X127446741Y-93300990D02*
X128018169Y-93872419D01*
X128018169Y-93872419D02*
X127399122Y-93872419D01*
X126970550Y-93777180D02*
X126922931Y-93824800D01*
X126922931Y-93824800D02*
X126970550Y-93872419D01*
X126970550Y-93872419D02*
X127018169Y-93824800D01*
X127018169Y-93824800D02*
X126970550Y-93777180D01*
X126970550Y-93777180D02*
X126970550Y-93872419D01*
X126970550Y-93253371D02*
X126922931Y-93300990D01*
X126922931Y-93300990D02*
X126970550Y-93348609D01*
X126970550Y-93348609D02*
X127018169Y-93300990D01*
X127018169Y-93300990D02*
X126970550Y-93253371D01*
X126970550Y-93253371D02*
X126970550Y-93348609D01*
X126637217Y-92872419D02*
X126065789Y-92872419D01*
X126351503Y-93872419D02*
X126351503Y-92872419D01*
X125827693Y-92872419D02*
X125589598Y-93872419D01*
X125589598Y-93872419D02*
X125399122Y-93158133D01*
X125399122Y-93158133D02*
X125208646Y-93872419D01*
X125208646Y-93872419D02*
X124970551Y-92872419D01*
X124589598Y-93872419D02*
X124589598Y-92872419D01*
X124589598Y-92872419D02*
X124351503Y-92872419D01*
X124351503Y-92872419D02*
X124208646Y-92920038D01*
X124208646Y-92920038D02*
X124113408Y-93015276D01*
X124113408Y-93015276D02*
X124065789Y-93110514D01*
X124065789Y-93110514D02*
X124018170Y-93300990D01*
X124018170Y-93300990D02*
X124018170Y-93443847D01*
X124018170Y-93443847D02*
X124065789Y-93634323D01*
X124065789Y-93634323D02*
X124113408Y-93729561D01*
X124113408Y-93729561D02*
X124208646Y-93824800D01*
X124208646Y-93824800D02*
X124351503Y-93872419D01*
X124351503Y-93872419D02*
X124589598Y-93872419D01*
X123399122Y-92872419D02*
X123303884Y-92872419D01*
X123303884Y-92872419D02*
X123208646Y-92920038D01*
X123208646Y-92920038D02*
X123161027Y-92967657D01*
X123161027Y-92967657D02*
X123113408Y-93062895D01*
X123113408Y-93062895D02*
X123065789Y-93253371D01*
X123065789Y-93253371D02*
X123065789Y-93491466D01*
X123065789Y-93491466D02*
X123113408Y-93681942D01*
X123113408Y-93681942D02*
X123161027Y-93777180D01*
X123161027Y-93777180D02*
X123208646Y-93824800D01*
X123208646Y-93824800D02*
X123303884Y-93872419D01*
X123303884Y-93872419D02*
X123399122Y-93872419D01*
X123399122Y-93872419D02*
X123494360Y-93824800D01*
X123494360Y-93824800D02*
X123541979Y-93777180D01*
X123541979Y-93777180D02*
X123589598Y-93681942D01*
X123589598Y-93681942D02*
X123637217Y-93491466D01*
X123637217Y-93491466D02*
X123637217Y-93253371D01*
X123637217Y-93253371D02*
X123589598Y-93062895D01*
X123589598Y-93062895D02*
X123541979Y-92967657D01*
X123541979Y-92967657D02*
X123494360Y-92920038D01*
X123494360Y-92920038D02*
X123399122Y-92872419D01*
X121922932Y-92824800D02*
X122780074Y-94110514D01*
X121589598Y-93872419D02*
X121589598Y-92872419D01*
X121589598Y-92872419D02*
X121208646Y-92872419D01*
X121208646Y-92872419D02*
X121113408Y-92920038D01*
X121113408Y-92920038D02*
X121065789Y-92967657D01*
X121065789Y-92967657D02*
X121018170Y-93062895D01*
X121018170Y-93062895D02*
X121018170Y-93205752D01*
X121018170Y-93205752D02*
X121065789Y-93300990D01*
X121065789Y-93300990D02*
X121113408Y-93348609D01*
X121113408Y-93348609D02*
X121208646Y-93396228D01*
X121208646Y-93396228D02*
X121589598Y-93396228D01*
X120637217Y-93586704D02*
X120161027Y-93586704D01*
X120732455Y-93872419D02*
X120399122Y-92872419D01*
X120399122Y-92872419D02*
X120065789Y-93872419D01*
X119208646Y-93872419D02*
X119780074Y-93872419D01*
X119494360Y-93872419D02*
X119494360Y-92872419D01*
X119494360Y-92872419D02*
X119589598Y-93015276D01*
X119589598Y-93015276D02*
X119684836Y-93110514D01*
X119684836Y-93110514D02*
X119780074Y-93158133D01*
X118875312Y-92872419D02*
X118208646Y-92872419D01*
X118208646Y-92872419D02*
X118637217Y-93872419D01*
X179672306Y-77212755D02*
X180243734Y-77212755D01*
X179958020Y-77212755D02*
X179958020Y-76212755D01*
X179958020Y-76212755D02*
X180053258Y-76355612D01*
X180053258Y-76355612D02*
X180148496Y-76450850D01*
X180148496Y-76450850D02*
X180243734Y-76498469D01*
X180291353Y-79432643D02*
X179672306Y-79432643D01*
X179672306Y-79432643D02*
X180005639Y-79813595D01*
X180005639Y-79813595D02*
X179862782Y-79813595D01*
X179862782Y-79813595D02*
X179767544Y-79861214D01*
X179767544Y-79861214D02*
X179719925Y-79908833D01*
X179719925Y-79908833D02*
X179672306Y-80004071D01*
X179672306Y-80004071D02*
X179672306Y-80242166D01*
X179672306Y-80242166D02*
X179719925Y-80337404D01*
X179719925Y-80337404D02*
X179767544Y-80385024D01*
X179767544Y-80385024D02*
X179862782Y-80432643D01*
X179862782Y-80432643D02*
X180148496Y-80432643D01*
X180148496Y-80432643D02*
X180243734Y-80385024D01*
X180243734Y-80385024D02*
X180291353Y-80337404D01*
X179719925Y-82652531D02*
X180196115Y-82652531D01*
X180196115Y-82652531D02*
X180243734Y-83128721D01*
X180243734Y-83128721D02*
X180196115Y-83081102D01*
X180196115Y-83081102D02*
X180100877Y-83033483D01*
X180100877Y-83033483D02*
X179862782Y-83033483D01*
X179862782Y-83033483D02*
X179767544Y-83081102D01*
X179767544Y-83081102D02*
X179719925Y-83128721D01*
X179719925Y-83128721D02*
X179672306Y-83223959D01*
X179672306Y-83223959D02*
X179672306Y-83462054D01*
X179672306Y-83462054D02*
X179719925Y-83557292D01*
X179719925Y-83557292D02*
X179767544Y-83604912D01*
X179767544Y-83604912D02*
X179862782Y-83652531D01*
X179862782Y-83652531D02*
X180100877Y-83652531D01*
X180100877Y-83652531D02*
X180196115Y-83604912D01*
X180196115Y-83604912D02*
X180243734Y-83557292D01*
X180291353Y-85872419D02*
X179624687Y-85872419D01*
X179624687Y-85872419D02*
X180053258Y-86872419D01*
D13*
X149154136Y-110268612D02*
X149654136Y-109554326D01*
X150011279Y-110268612D02*
X150011279Y-108768612D01*
X150011279Y-108768612D02*
X149439850Y-108768612D01*
X149439850Y-108768612D02*
X149296993Y-108840041D01*
X149296993Y-108840041D02*
X149225564Y-108911469D01*
X149225564Y-108911469D02*
X149154136Y-109054326D01*
X149154136Y-109054326D02*
X149154136Y-109268612D01*
X149154136Y-109268612D02*
X149225564Y-109411469D01*
X149225564Y-109411469D02*
X149296993Y-109482898D01*
X149296993Y-109482898D02*
X149439850Y-109554326D01*
X149439850Y-109554326D02*
X150011279Y-109554326D01*
X147939850Y-110197184D02*
X148082707Y-110268612D01*
X148082707Y-110268612D02*
X148368422Y-110268612D01*
X148368422Y-110268612D02*
X148511279Y-110197184D01*
X148511279Y-110197184D02*
X148582707Y-110054326D01*
X148582707Y-110054326D02*
X148582707Y-109482898D01*
X148582707Y-109482898D02*
X148511279Y-109340041D01*
X148511279Y-109340041D02*
X148368422Y-109268612D01*
X148368422Y-109268612D02*
X148082707Y-109268612D01*
X148082707Y-109268612D02*
X147939850Y-109340041D01*
X147939850Y-109340041D02*
X147868422Y-109482898D01*
X147868422Y-109482898D02*
X147868422Y-109625755D01*
X147868422Y-109625755D02*
X148582707Y-109768612D01*
X147225565Y-110268612D02*
X147225565Y-109268612D01*
X147225565Y-109411469D02*
X147154136Y-109340041D01*
X147154136Y-109340041D02*
X147011279Y-109268612D01*
X147011279Y-109268612D02*
X146796993Y-109268612D01*
X146796993Y-109268612D02*
X146654136Y-109340041D01*
X146654136Y-109340041D02*
X146582708Y-109482898D01*
X146582708Y-109482898D02*
X146582708Y-110268612D01*
X146582708Y-109482898D02*
X146511279Y-109340041D01*
X146511279Y-109340041D02*
X146368422Y-109268612D01*
X146368422Y-109268612D02*
X146154136Y-109268612D01*
X146154136Y-109268612D02*
X146011279Y-109340041D01*
X146011279Y-109340041D02*
X145939850Y-109482898D01*
X145939850Y-109482898D02*
X145939850Y-110268612D01*
X145011279Y-110268612D02*
X145154136Y-110197184D01*
X145154136Y-110197184D02*
X145225565Y-110125755D01*
X145225565Y-110125755D02*
X145296993Y-109982898D01*
X145296993Y-109982898D02*
X145296993Y-109554326D01*
X145296993Y-109554326D02*
X145225565Y-109411469D01*
X145225565Y-109411469D02*
X145154136Y-109340041D01*
X145154136Y-109340041D02*
X145011279Y-109268612D01*
X145011279Y-109268612D02*
X144796993Y-109268612D01*
X144796993Y-109268612D02*
X144654136Y-109340041D01*
X144654136Y-109340041D02*
X144582708Y-109411469D01*
X144582708Y-109411469D02*
X144511279Y-109554326D01*
X144511279Y-109554326D02*
X144511279Y-109982898D01*
X144511279Y-109982898D02*
X144582708Y-110125755D01*
X144582708Y-110125755D02*
X144654136Y-110197184D01*
X144654136Y-110197184D02*
X144796993Y-110268612D01*
X144796993Y-110268612D02*
X145011279Y-110268612D01*
X144082707Y-109268612D02*
X143511279Y-109268612D01*
X143868422Y-108768612D02*
X143868422Y-110054326D01*
X143868422Y-110054326D02*
X143796993Y-110197184D01*
X143796993Y-110197184D02*
X143654136Y-110268612D01*
X143654136Y-110268612D02*
X143511279Y-110268612D01*
X142439850Y-110197184D02*
X142582707Y-110268612D01*
X142582707Y-110268612D02*
X142868422Y-110268612D01*
X142868422Y-110268612D02*
X143011279Y-110197184D01*
X143011279Y-110197184D02*
X143082707Y-110054326D01*
X143082707Y-110054326D02*
X143082707Y-109482898D01*
X143082707Y-109482898D02*
X143011279Y-109340041D01*
X143011279Y-109340041D02*
X142868422Y-109268612D01*
X142868422Y-109268612D02*
X142582707Y-109268612D01*
X142582707Y-109268612D02*
X142439850Y-109340041D01*
X142439850Y-109340041D02*
X142368422Y-109482898D01*
X142368422Y-109482898D02*
X142368422Y-109625755D01*
X142368422Y-109625755D02*
X143082707Y-109768612D01*
X150082707Y-112254957D02*
X149368422Y-112254957D01*
X150225564Y-112683528D02*
X149725564Y-111183528D01*
X149725564Y-111183528D02*
X149225564Y-112683528D01*
X148082708Y-112612100D02*
X148225565Y-112683528D01*
X148225565Y-112683528D02*
X148511279Y-112683528D01*
X148511279Y-112683528D02*
X148654136Y-112612100D01*
X148654136Y-112612100D02*
X148725565Y-112540671D01*
X148725565Y-112540671D02*
X148796993Y-112397814D01*
X148796993Y-112397814D02*
X148796993Y-111969242D01*
X148796993Y-111969242D02*
X148725565Y-111826385D01*
X148725565Y-111826385D02*
X148654136Y-111754957D01*
X148654136Y-111754957D02*
X148511279Y-111683528D01*
X148511279Y-111683528D02*
X148225565Y-111683528D01*
X148225565Y-111683528D02*
X148082708Y-111754957D01*
X146796994Y-112612100D02*
X146939851Y-112683528D01*
X146939851Y-112683528D02*
X147225565Y-112683528D01*
X147225565Y-112683528D02*
X147368422Y-112612100D01*
X147368422Y-112612100D02*
X147439851Y-112540671D01*
X147439851Y-112540671D02*
X147511279Y-112397814D01*
X147511279Y-112397814D02*
X147511279Y-111969242D01*
X147511279Y-111969242D02*
X147439851Y-111826385D01*
X147439851Y-111826385D02*
X147368422Y-111754957D01*
X147368422Y-111754957D02*
X147225565Y-111683528D01*
X147225565Y-111683528D02*
X146939851Y-111683528D01*
X146939851Y-111683528D02*
X146796994Y-111754957D01*
X145582708Y-112612100D02*
X145725565Y-112683528D01*
X145725565Y-112683528D02*
X146011280Y-112683528D01*
X146011280Y-112683528D02*
X146154137Y-112612100D01*
X146154137Y-112612100D02*
X146225565Y-112469242D01*
X146225565Y-112469242D02*
X146225565Y-111897814D01*
X146225565Y-111897814D02*
X146154137Y-111754957D01*
X146154137Y-111754957D02*
X146011280Y-111683528D01*
X146011280Y-111683528D02*
X145725565Y-111683528D01*
X145725565Y-111683528D02*
X145582708Y-111754957D01*
X145582708Y-111754957D02*
X145511280Y-111897814D01*
X145511280Y-111897814D02*
X145511280Y-112040671D01*
X145511280Y-112040671D02*
X146225565Y-112183528D01*
X144939851Y-112612100D02*
X144796994Y-112683528D01*
X144796994Y-112683528D02*
X144511280Y-112683528D01*
X144511280Y-112683528D02*
X144368423Y-112612100D01*
X144368423Y-112612100D02*
X144296994Y-112469242D01*
X144296994Y-112469242D02*
X144296994Y-112397814D01*
X144296994Y-112397814D02*
X144368423Y-112254957D01*
X144368423Y-112254957D02*
X144511280Y-112183528D01*
X144511280Y-112183528D02*
X144725566Y-112183528D01*
X144725566Y-112183528D02*
X144868423Y-112112100D01*
X144868423Y-112112100D02*
X144939851Y-111969242D01*
X144939851Y-111969242D02*
X144939851Y-111897814D01*
X144939851Y-111897814D02*
X144868423Y-111754957D01*
X144868423Y-111754957D02*
X144725566Y-111683528D01*
X144725566Y-111683528D02*
X144511280Y-111683528D01*
X144511280Y-111683528D02*
X144368423Y-111754957D01*
X143725565Y-112612100D02*
X143582708Y-112683528D01*
X143582708Y-112683528D02*
X143296994Y-112683528D01*
X143296994Y-112683528D02*
X143154137Y-112612100D01*
X143154137Y-112612100D02*
X143082708Y-112469242D01*
X143082708Y-112469242D02*
X143082708Y-112397814D01*
X143082708Y-112397814D02*
X143154137Y-112254957D01*
X143154137Y-112254957D02*
X143296994Y-112183528D01*
X143296994Y-112183528D02*
X143511280Y-112183528D01*
X143511280Y-112183528D02*
X143654137Y-112112100D01*
X143654137Y-112112100D02*
X143725565Y-111969242D01*
X143725565Y-111969242D02*
X143725565Y-111897814D01*
X143725565Y-111897814D02*
X143654137Y-111754957D01*
X143654137Y-111754957D02*
X143511280Y-111683528D01*
X143511280Y-111683528D02*
X143296994Y-111683528D01*
X143296994Y-111683528D02*
X143154137Y-111754957D01*
X150225564Y-113598444D02*
X149368422Y-113598444D01*
X149796993Y-115098444D02*
X149796993Y-113598444D01*
X148868422Y-115098444D02*
X148868422Y-114098444D01*
X148868422Y-114384158D02*
X148796993Y-114241301D01*
X148796993Y-114241301D02*
X148725565Y-114169873D01*
X148725565Y-114169873D02*
X148582707Y-114098444D01*
X148582707Y-114098444D02*
X148439850Y-114098444D01*
X147725565Y-115098444D02*
X147868422Y-115027016D01*
X147868422Y-115027016D02*
X147939851Y-114955587D01*
X147939851Y-114955587D02*
X148011279Y-114812730D01*
X148011279Y-114812730D02*
X148011279Y-114384158D01*
X148011279Y-114384158D02*
X147939851Y-114241301D01*
X147939851Y-114241301D02*
X147868422Y-114169873D01*
X147868422Y-114169873D02*
X147725565Y-114098444D01*
X147725565Y-114098444D02*
X147511279Y-114098444D01*
X147511279Y-114098444D02*
X147368422Y-114169873D01*
X147368422Y-114169873D02*
X147296994Y-114241301D01*
X147296994Y-114241301D02*
X147225565Y-114384158D01*
X147225565Y-114384158D02*
X147225565Y-114812730D01*
X147225565Y-114812730D02*
X147296994Y-114955587D01*
X147296994Y-114955587D02*
X147368422Y-115027016D01*
X147368422Y-115027016D02*
X147511279Y-115098444D01*
X147511279Y-115098444D02*
X147725565Y-115098444D01*
X146582708Y-114098444D02*
X146582708Y-115384158D01*
X146582708Y-115384158D02*
X146654136Y-115527016D01*
X146654136Y-115527016D02*
X146796993Y-115598444D01*
X146796993Y-115598444D02*
X146868422Y-115598444D01*
X146582708Y-113598444D02*
X146654136Y-113669873D01*
X146654136Y-113669873D02*
X146582708Y-113741301D01*
X146582708Y-113741301D02*
X146511279Y-113669873D01*
X146511279Y-113669873D02*
X146582708Y-113598444D01*
X146582708Y-113598444D02*
X146582708Y-113741301D01*
X145225565Y-115098444D02*
X145225565Y-114312730D01*
X145225565Y-114312730D02*
X145296993Y-114169873D01*
X145296993Y-114169873D02*
X145439850Y-114098444D01*
X145439850Y-114098444D02*
X145725565Y-114098444D01*
X145725565Y-114098444D02*
X145868422Y-114169873D01*
X145225565Y-115027016D02*
X145368422Y-115098444D01*
X145368422Y-115098444D02*
X145725565Y-115098444D01*
X145725565Y-115098444D02*
X145868422Y-115027016D01*
X145868422Y-115027016D02*
X145939850Y-114884158D01*
X145939850Y-114884158D02*
X145939850Y-114741301D01*
X145939850Y-114741301D02*
X145868422Y-114598444D01*
X145868422Y-114598444D02*
X145725565Y-114527016D01*
X145725565Y-114527016D02*
X145368422Y-114527016D01*
X145368422Y-114527016D02*
X145225565Y-114455587D01*
X144511279Y-114098444D02*
X144511279Y-115098444D01*
X144511279Y-114241301D02*
X144439850Y-114169873D01*
X144439850Y-114169873D02*
X144296993Y-114098444D01*
X144296993Y-114098444D02*
X144082707Y-114098444D01*
X144082707Y-114098444D02*
X143939850Y-114169873D01*
X143939850Y-114169873D02*
X143868422Y-114312730D01*
X143868422Y-114312730D02*
X143868422Y-115098444D01*
D10*
X177172306Y-76102811D02*
X177743734Y-76102811D01*
X177458020Y-76102811D02*
X177458020Y-75102811D01*
X177458020Y-75102811D02*
X177553258Y-75245668D01*
X177553258Y-75245668D02*
X177648496Y-75340906D01*
X177648496Y-75340906D02*
X177743734Y-75388525D01*
X176743734Y-76007572D02*
X176696115Y-76055192D01*
X176696115Y-76055192D02*
X176743734Y-76102811D01*
X176743734Y-76102811D02*
X176791353Y-76055192D01*
X176791353Y-76055192D02*
X176743734Y-76007572D01*
X176743734Y-76007572D02*
X176743734Y-76102811D01*
X176743734Y-75483763D02*
X176696115Y-75531382D01*
X176696115Y-75531382D02*
X176743734Y-75579001D01*
X176743734Y-75579001D02*
X176791353Y-75531382D01*
X176791353Y-75531382D02*
X176743734Y-75483763D01*
X176743734Y-75483763D02*
X176743734Y-75579001D01*
X176267544Y-76102811D02*
X176267544Y-75102811D01*
X175600878Y-75102811D02*
X175410402Y-75102811D01*
X175410402Y-75102811D02*
X175315164Y-75150430D01*
X175315164Y-75150430D02*
X175219926Y-75245668D01*
X175219926Y-75245668D02*
X175172307Y-75436144D01*
X175172307Y-75436144D02*
X175172307Y-75769477D01*
X175172307Y-75769477D02*
X175219926Y-75959953D01*
X175219926Y-75959953D02*
X175315164Y-76055192D01*
X175315164Y-76055192D02*
X175410402Y-76102811D01*
X175410402Y-76102811D02*
X175600878Y-76102811D01*
X175600878Y-76102811D02*
X175696116Y-76055192D01*
X175696116Y-76055192D02*
X175791354Y-75959953D01*
X175791354Y-75959953D02*
X175838973Y-75769477D01*
X175838973Y-75769477D02*
X175838973Y-75436144D01*
X175838973Y-75436144D02*
X175791354Y-75245668D01*
X175791354Y-75245668D02*
X175696116Y-75150430D01*
X175696116Y-75150430D02*
X175600878Y-75102811D01*
X174219926Y-76102811D02*
X174791354Y-76102811D01*
X174505640Y-76102811D02*
X174505640Y-75102811D01*
X174505640Y-75102811D02*
X174600878Y-75245668D01*
X174600878Y-75245668D02*
X174696116Y-75340906D01*
X174696116Y-75340906D02*
X174791354Y-75388525D01*
X173886592Y-75102811D02*
X173219926Y-75102811D01*
X173219926Y-75102811D02*
X173648497Y-76102811D01*
X177743734Y-76807993D02*
X177696115Y-76760374D01*
X177696115Y-76760374D02*
X177600877Y-76712755D01*
X177600877Y-76712755D02*
X177362782Y-76712755D01*
X177362782Y-76712755D02*
X177267544Y-76760374D01*
X177267544Y-76760374D02*
X177219925Y-76807993D01*
X177219925Y-76807993D02*
X177172306Y-76903231D01*
X177172306Y-76903231D02*
X177172306Y-76998469D01*
X177172306Y-76998469D02*
X177219925Y-77141326D01*
X177219925Y-77141326D02*
X177791353Y-77712755D01*
X177791353Y-77712755D02*
X177172306Y-77712755D01*
X176743734Y-77617516D02*
X176696115Y-77665136D01*
X176696115Y-77665136D02*
X176743734Y-77712755D01*
X176743734Y-77712755D02*
X176791353Y-77665136D01*
X176791353Y-77665136D02*
X176743734Y-77617516D01*
X176743734Y-77617516D02*
X176743734Y-77712755D01*
X176743734Y-77093707D02*
X176696115Y-77141326D01*
X176696115Y-77141326D02*
X176743734Y-77188945D01*
X176743734Y-77188945D02*
X176791353Y-77141326D01*
X176791353Y-77141326D02*
X176743734Y-77093707D01*
X176743734Y-77093707D02*
X176743734Y-77188945D01*
X176267544Y-77712755D02*
X176267544Y-76712755D01*
X175600878Y-76712755D02*
X175410402Y-76712755D01*
X175410402Y-76712755D02*
X175315164Y-76760374D01*
X175315164Y-76760374D02*
X175219926Y-76855612D01*
X175219926Y-76855612D02*
X175172307Y-77046088D01*
X175172307Y-77046088D02*
X175172307Y-77379421D01*
X175172307Y-77379421D02*
X175219926Y-77569897D01*
X175219926Y-77569897D02*
X175315164Y-77665136D01*
X175315164Y-77665136D02*
X175410402Y-77712755D01*
X175410402Y-77712755D02*
X175600878Y-77712755D01*
X175600878Y-77712755D02*
X175696116Y-77665136D01*
X175696116Y-77665136D02*
X175791354Y-77569897D01*
X175791354Y-77569897D02*
X175838973Y-77379421D01*
X175838973Y-77379421D02*
X175838973Y-77046088D01*
X175838973Y-77046088D02*
X175791354Y-76855612D01*
X175791354Y-76855612D02*
X175696116Y-76760374D01*
X175696116Y-76760374D02*
X175600878Y-76712755D01*
X174267545Y-76712755D02*
X174743735Y-76712755D01*
X174743735Y-76712755D02*
X174791354Y-77188945D01*
X174791354Y-77188945D02*
X174743735Y-77141326D01*
X174743735Y-77141326D02*
X174648497Y-77093707D01*
X174648497Y-77093707D02*
X174410402Y-77093707D01*
X174410402Y-77093707D02*
X174315164Y-77141326D01*
X174315164Y-77141326D02*
X174267545Y-77188945D01*
X174267545Y-77188945D02*
X174219926Y-77284183D01*
X174219926Y-77284183D02*
X174219926Y-77522278D01*
X174219926Y-77522278D02*
X174267545Y-77617516D01*
X174267545Y-77617516D02*
X174315164Y-77665136D01*
X174315164Y-77665136D02*
X174410402Y-77712755D01*
X174410402Y-77712755D02*
X174648497Y-77712755D01*
X174648497Y-77712755D02*
X174743735Y-77665136D01*
X174743735Y-77665136D02*
X174791354Y-77617516D01*
X177791353Y-78322699D02*
X177172306Y-78322699D01*
X177172306Y-78322699D02*
X177505639Y-78703651D01*
X177505639Y-78703651D02*
X177362782Y-78703651D01*
X177362782Y-78703651D02*
X177267544Y-78751270D01*
X177267544Y-78751270D02*
X177219925Y-78798889D01*
X177219925Y-78798889D02*
X177172306Y-78894127D01*
X177172306Y-78894127D02*
X177172306Y-79132222D01*
X177172306Y-79132222D02*
X177219925Y-79227460D01*
X177219925Y-79227460D02*
X177267544Y-79275080D01*
X177267544Y-79275080D02*
X177362782Y-79322699D01*
X177362782Y-79322699D02*
X177648496Y-79322699D01*
X177648496Y-79322699D02*
X177743734Y-79275080D01*
X177743734Y-79275080D02*
X177791353Y-79227460D01*
X176743734Y-79227460D02*
X176696115Y-79275080D01*
X176696115Y-79275080D02*
X176743734Y-79322699D01*
X176743734Y-79322699D02*
X176791353Y-79275080D01*
X176791353Y-79275080D02*
X176743734Y-79227460D01*
X176743734Y-79227460D02*
X176743734Y-79322699D01*
X176743734Y-78703651D02*
X176696115Y-78751270D01*
X176696115Y-78751270D02*
X176743734Y-78798889D01*
X176743734Y-78798889D02*
X176791353Y-78751270D01*
X176791353Y-78751270D02*
X176743734Y-78703651D01*
X176743734Y-78703651D02*
X176743734Y-78798889D01*
X176267544Y-79322699D02*
X176267544Y-78322699D01*
X175600878Y-78322699D02*
X175410402Y-78322699D01*
X175410402Y-78322699D02*
X175315164Y-78370318D01*
X175315164Y-78370318D02*
X175219926Y-78465556D01*
X175219926Y-78465556D02*
X175172307Y-78656032D01*
X175172307Y-78656032D02*
X175172307Y-78989365D01*
X175172307Y-78989365D02*
X175219926Y-79179841D01*
X175219926Y-79179841D02*
X175315164Y-79275080D01*
X175315164Y-79275080D02*
X175410402Y-79322699D01*
X175410402Y-79322699D02*
X175600878Y-79322699D01*
X175600878Y-79322699D02*
X175696116Y-79275080D01*
X175696116Y-79275080D02*
X175791354Y-79179841D01*
X175791354Y-79179841D02*
X175838973Y-78989365D01*
X175838973Y-78989365D02*
X175838973Y-78656032D01*
X175838973Y-78656032D02*
X175791354Y-78465556D01*
X175791354Y-78465556D02*
X175696116Y-78370318D01*
X175696116Y-78370318D02*
X175600878Y-78322699D01*
X174219926Y-79322699D02*
X174791354Y-79322699D01*
X174505640Y-79322699D02*
X174505640Y-78322699D01*
X174505640Y-78322699D02*
X174600878Y-78465556D01*
X174600878Y-78465556D02*
X174696116Y-78560794D01*
X174696116Y-78560794D02*
X174791354Y-78608413D01*
X173362783Y-78322699D02*
X173553259Y-78322699D01*
X173553259Y-78322699D02*
X173648497Y-78370318D01*
X173648497Y-78370318D02*
X173696116Y-78417937D01*
X173696116Y-78417937D02*
X173791354Y-78560794D01*
X173791354Y-78560794D02*
X173838973Y-78751270D01*
X173838973Y-78751270D02*
X173838973Y-79132222D01*
X173838973Y-79132222D02*
X173791354Y-79227460D01*
X173791354Y-79227460D02*
X173743735Y-79275080D01*
X173743735Y-79275080D02*
X173648497Y-79322699D01*
X173648497Y-79322699D02*
X173458021Y-79322699D01*
X173458021Y-79322699D02*
X173362783Y-79275080D01*
X173362783Y-79275080D02*
X173315164Y-79227460D01*
X173315164Y-79227460D02*
X173267545Y-79132222D01*
X173267545Y-79132222D02*
X173267545Y-78894127D01*
X173267545Y-78894127D02*
X173315164Y-78798889D01*
X173315164Y-78798889D02*
X173362783Y-78751270D01*
X173362783Y-78751270D02*
X173458021Y-78703651D01*
X173458021Y-78703651D02*
X173648497Y-78703651D01*
X173648497Y-78703651D02*
X173743735Y-78751270D01*
X173743735Y-78751270D02*
X173791354Y-78798889D01*
X173791354Y-78798889D02*
X173838973Y-78894127D01*
X177267544Y-80265976D02*
X177267544Y-80932643D01*
X177505639Y-79885024D02*
X177743734Y-80599309D01*
X177743734Y-80599309D02*
X177124687Y-80599309D01*
X176743734Y-80837404D02*
X176696115Y-80885024D01*
X176696115Y-80885024D02*
X176743734Y-80932643D01*
X176743734Y-80932643D02*
X176791353Y-80885024D01*
X176791353Y-80885024D02*
X176743734Y-80837404D01*
X176743734Y-80837404D02*
X176743734Y-80932643D01*
X176743734Y-80313595D02*
X176696115Y-80361214D01*
X176696115Y-80361214D02*
X176743734Y-80408833D01*
X176743734Y-80408833D02*
X176791353Y-80361214D01*
X176791353Y-80361214D02*
X176743734Y-80313595D01*
X176743734Y-80313595D02*
X176743734Y-80408833D01*
X176267544Y-80932643D02*
X176267544Y-79932643D01*
X175600878Y-79932643D02*
X175410402Y-79932643D01*
X175410402Y-79932643D02*
X175315164Y-79980262D01*
X175315164Y-79980262D02*
X175219926Y-80075500D01*
X175219926Y-80075500D02*
X175172307Y-80265976D01*
X175172307Y-80265976D02*
X175172307Y-80599309D01*
X175172307Y-80599309D02*
X175219926Y-80789785D01*
X175219926Y-80789785D02*
X175315164Y-80885024D01*
X175315164Y-80885024D02*
X175410402Y-80932643D01*
X175410402Y-80932643D02*
X175600878Y-80932643D01*
X175600878Y-80932643D02*
X175696116Y-80885024D01*
X175696116Y-80885024D02*
X175791354Y-80789785D01*
X175791354Y-80789785D02*
X175838973Y-80599309D01*
X175838973Y-80599309D02*
X175838973Y-80265976D01*
X175838973Y-80265976D02*
X175791354Y-80075500D01*
X175791354Y-80075500D02*
X175696116Y-79980262D01*
X175696116Y-79980262D02*
X175600878Y-79932643D01*
X174219926Y-80932643D02*
X174791354Y-80932643D01*
X174505640Y-80932643D02*
X174505640Y-79932643D01*
X174505640Y-79932643D02*
X174600878Y-80075500D01*
X174600878Y-80075500D02*
X174696116Y-80170738D01*
X174696116Y-80170738D02*
X174791354Y-80218357D01*
X173648497Y-80361214D02*
X173743735Y-80313595D01*
X173743735Y-80313595D02*
X173791354Y-80265976D01*
X173791354Y-80265976D02*
X173838973Y-80170738D01*
X173838973Y-80170738D02*
X173838973Y-80123119D01*
X173838973Y-80123119D02*
X173791354Y-80027881D01*
X173791354Y-80027881D02*
X173743735Y-79980262D01*
X173743735Y-79980262D02*
X173648497Y-79932643D01*
X173648497Y-79932643D02*
X173458021Y-79932643D01*
X173458021Y-79932643D02*
X173362783Y-79980262D01*
X173362783Y-79980262D02*
X173315164Y-80027881D01*
X173315164Y-80027881D02*
X173267545Y-80123119D01*
X173267545Y-80123119D02*
X173267545Y-80170738D01*
X173267545Y-80170738D02*
X173315164Y-80265976D01*
X173315164Y-80265976D02*
X173362783Y-80313595D01*
X173362783Y-80313595D02*
X173458021Y-80361214D01*
X173458021Y-80361214D02*
X173648497Y-80361214D01*
X173648497Y-80361214D02*
X173743735Y-80408833D01*
X173743735Y-80408833D02*
X173791354Y-80456452D01*
X173791354Y-80456452D02*
X173838973Y-80551690D01*
X173838973Y-80551690D02*
X173838973Y-80742166D01*
X173838973Y-80742166D02*
X173791354Y-80837404D01*
X173791354Y-80837404D02*
X173743735Y-80885024D01*
X173743735Y-80885024D02*
X173648497Y-80932643D01*
X173648497Y-80932643D02*
X173458021Y-80932643D01*
X173458021Y-80932643D02*
X173362783Y-80885024D01*
X173362783Y-80885024D02*
X173315164Y-80837404D01*
X173315164Y-80837404D02*
X173267545Y-80742166D01*
X173267545Y-80742166D02*
X173267545Y-80551690D01*
X173267545Y-80551690D02*
X173315164Y-80456452D01*
X173315164Y-80456452D02*
X173362783Y-80408833D01*
X173362783Y-80408833D02*
X173458021Y-80361214D01*
X177219925Y-81542587D02*
X177696115Y-81542587D01*
X177696115Y-81542587D02*
X177743734Y-82018777D01*
X177743734Y-82018777D02*
X177696115Y-81971158D01*
X177696115Y-81971158D02*
X177600877Y-81923539D01*
X177600877Y-81923539D02*
X177362782Y-81923539D01*
X177362782Y-81923539D02*
X177267544Y-81971158D01*
X177267544Y-81971158D02*
X177219925Y-82018777D01*
X177219925Y-82018777D02*
X177172306Y-82114015D01*
X177172306Y-82114015D02*
X177172306Y-82352110D01*
X177172306Y-82352110D02*
X177219925Y-82447348D01*
X177219925Y-82447348D02*
X177267544Y-82494968D01*
X177267544Y-82494968D02*
X177362782Y-82542587D01*
X177362782Y-82542587D02*
X177600877Y-82542587D01*
X177600877Y-82542587D02*
X177696115Y-82494968D01*
X177696115Y-82494968D02*
X177743734Y-82447348D01*
X176743734Y-82447348D02*
X176696115Y-82494968D01*
X176696115Y-82494968D02*
X176743734Y-82542587D01*
X176743734Y-82542587D02*
X176791353Y-82494968D01*
X176791353Y-82494968D02*
X176743734Y-82447348D01*
X176743734Y-82447348D02*
X176743734Y-82542587D01*
X176743734Y-81923539D02*
X176696115Y-81971158D01*
X176696115Y-81971158D02*
X176743734Y-82018777D01*
X176743734Y-82018777D02*
X176791353Y-81971158D01*
X176791353Y-81971158D02*
X176743734Y-81923539D01*
X176743734Y-81923539D02*
X176743734Y-82018777D01*
X176267544Y-82542587D02*
X176267544Y-81542587D01*
X175600878Y-81542587D02*
X175410402Y-81542587D01*
X175410402Y-81542587D02*
X175315164Y-81590206D01*
X175315164Y-81590206D02*
X175219926Y-81685444D01*
X175219926Y-81685444D02*
X175172307Y-81875920D01*
X175172307Y-81875920D02*
X175172307Y-82209253D01*
X175172307Y-82209253D02*
X175219926Y-82399729D01*
X175219926Y-82399729D02*
X175315164Y-82494968D01*
X175315164Y-82494968D02*
X175410402Y-82542587D01*
X175410402Y-82542587D02*
X175600878Y-82542587D01*
X175600878Y-82542587D02*
X175696116Y-82494968D01*
X175696116Y-82494968D02*
X175791354Y-82399729D01*
X175791354Y-82399729D02*
X175838973Y-82209253D01*
X175838973Y-82209253D02*
X175838973Y-81875920D01*
X175838973Y-81875920D02*
X175791354Y-81685444D01*
X175791354Y-81685444D02*
X175696116Y-81590206D01*
X175696116Y-81590206D02*
X175600878Y-81542587D01*
X174315164Y-81875920D02*
X174315164Y-82542587D01*
X174553259Y-81494968D02*
X174791354Y-82209253D01*
X174791354Y-82209253D02*
X174172307Y-82209253D01*
X177267544Y-83152531D02*
X177458020Y-83152531D01*
X177458020Y-83152531D02*
X177553258Y-83200150D01*
X177553258Y-83200150D02*
X177600877Y-83247769D01*
X177600877Y-83247769D02*
X177696115Y-83390626D01*
X177696115Y-83390626D02*
X177743734Y-83581102D01*
X177743734Y-83581102D02*
X177743734Y-83962054D01*
X177743734Y-83962054D02*
X177696115Y-84057292D01*
X177696115Y-84057292D02*
X177648496Y-84104912D01*
X177648496Y-84104912D02*
X177553258Y-84152531D01*
X177553258Y-84152531D02*
X177362782Y-84152531D01*
X177362782Y-84152531D02*
X177267544Y-84104912D01*
X177267544Y-84104912D02*
X177219925Y-84057292D01*
X177219925Y-84057292D02*
X177172306Y-83962054D01*
X177172306Y-83962054D02*
X177172306Y-83723959D01*
X177172306Y-83723959D02*
X177219925Y-83628721D01*
X177219925Y-83628721D02*
X177267544Y-83581102D01*
X177267544Y-83581102D02*
X177362782Y-83533483D01*
X177362782Y-83533483D02*
X177553258Y-83533483D01*
X177553258Y-83533483D02*
X177648496Y-83581102D01*
X177648496Y-83581102D02*
X177696115Y-83628721D01*
X177696115Y-83628721D02*
X177743734Y-83723959D01*
X176743734Y-84057292D02*
X176696115Y-84104912D01*
X176696115Y-84104912D02*
X176743734Y-84152531D01*
X176743734Y-84152531D02*
X176791353Y-84104912D01*
X176791353Y-84104912D02*
X176743734Y-84057292D01*
X176743734Y-84057292D02*
X176743734Y-84152531D01*
X176743734Y-83533483D02*
X176696115Y-83581102D01*
X176696115Y-83581102D02*
X176743734Y-83628721D01*
X176743734Y-83628721D02*
X176791353Y-83581102D01*
X176791353Y-83581102D02*
X176743734Y-83533483D01*
X176743734Y-83533483D02*
X176743734Y-83628721D01*
X176267544Y-84152531D02*
X176267544Y-83152531D01*
X175600878Y-83152531D02*
X175410402Y-83152531D01*
X175410402Y-83152531D02*
X175315164Y-83200150D01*
X175315164Y-83200150D02*
X175219926Y-83295388D01*
X175219926Y-83295388D02*
X175172307Y-83485864D01*
X175172307Y-83485864D02*
X175172307Y-83819197D01*
X175172307Y-83819197D02*
X175219926Y-84009673D01*
X175219926Y-84009673D02*
X175315164Y-84104912D01*
X175315164Y-84104912D02*
X175410402Y-84152531D01*
X175410402Y-84152531D02*
X175600878Y-84152531D01*
X175600878Y-84152531D02*
X175696116Y-84104912D01*
X175696116Y-84104912D02*
X175791354Y-84009673D01*
X175791354Y-84009673D02*
X175838973Y-83819197D01*
X175838973Y-83819197D02*
X175838973Y-83485864D01*
X175838973Y-83485864D02*
X175791354Y-83295388D01*
X175791354Y-83295388D02*
X175696116Y-83200150D01*
X175696116Y-83200150D02*
X175600878Y-83152531D01*
X174219926Y-84152531D02*
X174791354Y-84152531D01*
X174505640Y-84152531D02*
X174505640Y-83152531D01*
X174505640Y-83152531D02*
X174600878Y-83295388D01*
X174600878Y-83295388D02*
X174696116Y-83390626D01*
X174696116Y-83390626D02*
X174791354Y-83438245D01*
X173743735Y-84152531D02*
X173553259Y-84152531D01*
X173553259Y-84152531D02*
X173458021Y-84104912D01*
X173458021Y-84104912D02*
X173410402Y-84057292D01*
X173410402Y-84057292D02*
X173315164Y-83914435D01*
X173315164Y-83914435D02*
X173267545Y-83723959D01*
X173267545Y-83723959D02*
X173267545Y-83343007D01*
X173267545Y-83343007D02*
X173315164Y-83247769D01*
X173315164Y-83247769D02*
X173362783Y-83200150D01*
X173362783Y-83200150D02*
X173458021Y-83152531D01*
X173458021Y-83152531D02*
X173648497Y-83152531D01*
X173648497Y-83152531D02*
X173743735Y-83200150D01*
X173743735Y-83200150D02*
X173791354Y-83247769D01*
X173791354Y-83247769D02*
X173838973Y-83343007D01*
X173838973Y-83343007D02*
X173838973Y-83581102D01*
X173838973Y-83581102D02*
X173791354Y-83676340D01*
X173791354Y-83676340D02*
X173743735Y-83723959D01*
X173743735Y-83723959D02*
X173648497Y-83771578D01*
X173648497Y-83771578D02*
X173458021Y-83771578D01*
X173458021Y-83771578D02*
X173362783Y-83723959D01*
X173362783Y-83723959D02*
X173315164Y-83676340D01*
X173315164Y-83676340D02*
X173267545Y-83581102D01*
X177791353Y-84762475D02*
X177124687Y-84762475D01*
X177124687Y-84762475D02*
X177553258Y-85762475D01*
X176743734Y-85667236D02*
X176696115Y-85714856D01*
X176696115Y-85714856D02*
X176743734Y-85762475D01*
X176743734Y-85762475D02*
X176791353Y-85714856D01*
X176791353Y-85714856D02*
X176743734Y-85667236D01*
X176743734Y-85667236D02*
X176743734Y-85762475D01*
X176743734Y-85143427D02*
X176696115Y-85191046D01*
X176696115Y-85191046D02*
X176743734Y-85238665D01*
X176743734Y-85238665D02*
X176791353Y-85191046D01*
X176791353Y-85191046D02*
X176743734Y-85143427D01*
X176743734Y-85143427D02*
X176743734Y-85238665D01*
X176267544Y-85762475D02*
X176267544Y-84762475D01*
X175600878Y-84762475D02*
X175410402Y-84762475D01*
X175410402Y-84762475D02*
X175315164Y-84810094D01*
X175315164Y-84810094D02*
X175219926Y-84905332D01*
X175219926Y-84905332D02*
X175172307Y-85095808D01*
X175172307Y-85095808D02*
X175172307Y-85429141D01*
X175172307Y-85429141D02*
X175219926Y-85619617D01*
X175219926Y-85619617D02*
X175315164Y-85714856D01*
X175315164Y-85714856D02*
X175410402Y-85762475D01*
X175410402Y-85762475D02*
X175600878Y-85762475D01*
X175600878Y-85762475D02*
X175696116Y-85714856D01*
X175696116Y-85714856D02*
X175791354Y-85619617D01*
X175791354Y-85619617D02*
X175838973Y-85429141D01*
X175838973Y-85429141D02*
X175838973Y-85095808D01*
X175838973Y-85095808D02*
X175791354Y-84905332D01*
X175791354Y-84905332D02*
X175696116Y-84810094D01*
X175696116Y-84810094D02*
X175600878Y-84762475D01*
X174791354Y-84857713D02*
X174743735Y-84810094D01*
X174743735Y-84810094D02*
X174648497Y-84762475D01*
X174648497Y-84762475D02*
X174410402Y-84762475D01*
X174410402Y-84762475D02*
X174315164Y-84810094D01*
X174315164Y-84810094D02*
X174267545Y-84857713D01*
X174267545Y-84857713D02*
X174219926Y-84952951D01*
X174219926Y-84952951D02*
X174219926Y-85048189D01*
X174219926Y-85048189D02*
X174267545Y-85191046D01*
X174267545Y-85191046D02*
X174838973Y-85762475D01*
X174838973Y-85762475D02*
X174219926Y-85762475D01*
X177553258Y-86800990D02*
X177648496Y-86753371D01*
X177648496Y-86753371D02*
X177696115Y-86705752D01*
X177696115Y-86705752D02*
X177743734Y-86610514D01*
X177743734Y-86610514D02*
X177743734Y-86562895D01*
X177743734Y-86562895D02*
X177696115Y-86467657D01*
X177696115Y-86467657D02*
X177648496Y-86420038D01*
X177648496Y-86420038D02*
X177553258Y-86372419D01*
X177553258Y-86372419D02*
X177362782Y-86372419D01*
X177362782Y-86372419D02*
X177267544Y-86420038D01*
X177267544Y-86420038D02*
X177219925Y-86467657D01*
X177219925Y-86467657D02*
X177172306Y-86562895D01*
X177172306Y-86562895D02*
X177172306Y-86610514D01*
X177172306Y-86610514D02*
X177219925Y-86705752D01*
X177219925Y-86705752D02*
X177267544Y-86753371D01*
X177267544Y-86753371D02*
X177362782Y-86800990D01*
X177362782Y-86800990D02*
X177553258Y-86800990D01*
X177553258Y-86800990D02*
X177648496Y-86848609D01*
X177648496Y-86848609D02*
X177696115Y-86896228D01*
X177696115Y-86896228D02*
X177743734Y-86991466D01*
X177743734Y-86991466D02*
X177743734Y-87181942D01*
X177743734Y-87181942D02*
X177696115Y-87277180D01*
X177696115Y-87277180D02*
X177648496Y-87324800D01*
X177648496Y-87324800D02*
X177553258Y-87372419D01*
X177553258Y-87372419D02*
X177362782Y-87372419D01*
X177362782Y-87372419D02*
X177267544Y-87324800D01*
X177267544Y-87324800D02*
X177219925Y-87277180D01*
X177219925Y-87277180D02*
X177172306Y-87181942D01*
X177172306Y-87181942D02*
X177172306Y-86991466D01*
X177172306Y-86991466D02*
X177219925Y-86896228D01*
X177219925Y-86896228D02*
X177267544Y-86848609D01*
X177267544Y-86848609D02*
X177362782Y-86800990D01*
X176743734Y-87277180D02*
X176696115Y-87324800D01*
X176696115Y-87324800D02*
X176743734Y-87372419D01*
X176743734Y-87372419D02*
X176791353Y-87324800D01*
X176791353Y-87324800D02*
X176743734Y-87277180D01*
X176743734Y-87277180D02*
X176743734Y-87372419D01*
X176743734Y-86753371D02*
X176696115Y-86800990D01*
X176696115Y-86800990D02*
X176743734Y-86848609D01*
X176743734Y-86848609D02*
X176791353Y-86800990D01*
X176791353Y-86800990D02*
X176743734Y-86753371D01*
X176743734Y-86753371D02*
X176743734Y-86848609D01*
X176267544Y-87372419D02*
X176267544Y-86372419D01*
X175600878Y-86372419D02*
X175410402Y-86372419D01*
X175410402Y-86372419D02*
X175315164Y-86420038D01*
X175315164Y-86420038D02*
X175219926Y-86515276D01*
X175219926Y-86515276D02*
X175172307Y-86705752D01*
X175172307Y-86705752D02*
X175172307Y-87039085D01*
X175172307Y-87039085D02*
X175219926Y-87229561D01*
X175219926Y-87229561D02*
X175315164Y-87324800D01*
X175315164Y-87324800D02*
X175410402Y-87372419D01*
X175410402Y-87372419D02*
X175600878Y-87372419D01*
X175600878Y-87372419D02*
X175696116Y-87324800D01*
X175696116Y-87324800D02*
X175791354Y-87229561D01*
X175791354Y-87229561D02*
X175838973Y-87039085D01*
X175838973Y-87039085D02*
X175838973Y-86705752D01*
X175838973Y-86705752D02*
X175791354Y-86515276D01*
X175791354Y-86515276D02*
X175696116Y-86420038D01*
X175696116Y-86420038D02*
X175600878Y-86372419D01*
X174791354Y-86467657D02*
X174743735Y-86420038D01*
X174743735Y-86420038D02*
X174648497Y-86372419D01*
X174648497Y-86372419D02*
X174410402Y-86372419D01*
X174410402Y-86372419D02*
X174315164Y-86420038D01*
X174315164Y-86420038D02*
X174267545Y-86467657D01*
X174267545Y-86467657D02*
X174219926Y-86562895D01*
X174219926Y-86562895D02*
X174219926Y-86658133D01*
X174219926Y-86658133D02*
X174267545Y-86800990D01*
X174267545Y-86800990D02*
X174838973Y-87372419D01*
X174838973Y-87372419D02*
X174219926Y-87372419D01*
X173267545Y-87372419D02*
X173838973Y-87372419D01*
X173553259Y-87372419D02*
X173553259Y-86372419D01*
X173553259Y-86372419D02*
X173648497Y-86515276D01*
X173648497Y-86515276D02*
X173743735Y-86610514D01*
X173743735Y-86610514D02*
X173838973Y-86658133D01*
X143672306Y-70822699D02*
X144243734Y-70822699D01*
X143958020Y-70822699D02*
X143958020Y-69822699D01*
X143958020Y-69822699D02*
X144053258Y-69965556D01*
X144053258Y-69965556D02*
X144148496Y-70060794D01*
X144148496Y-70060794D02*
X144243734Y-70108413D01*
X143243734Y-70727460D02*
X143196115Y-70775080D01*
X143196115Y-70775080D02*
X143243734Y-70822699D01*
X143243734Y-70822699D02*
X143291353Y-70775080D01*
X143291353Y-70775080D02*
X143243734Y-70727460D01*
X143243734Y-70727460D02*
X143243734Y-70822699D01*
X143243734Y-70203651D02*
X143196115Y-70251270D01*
X143196115Y-70251270D02*
X143243734Y-70298889D01*
X143243734Y-70298889D02*
X143291353Y-70251270D01*
X143291353Y-70251270D02*
X143243734Y-70203651D01*
X143243734Y-70203651D02*
X143243734Y-70298889D01*
X142243735Y-69870318D02*
X142338973Y-69822699D01*
X142338973Y-69822699D02*
X142481830Y-69822699D01*
X142481830Y-69822699D02*
X142624687Y-69870318D01*
X142624687Y-69870318D02*
X142719925Y-69965556D01*
X142719925Y-69965556D02*
X142767544Y-70060794D01*
X142767544Y-70060794D02*
X142815163Y-70251270D01*
X142815163Y-70251270D02*
X142815163Y-70394127D01*
X142815163Y-70394127D02*
X142767544Y-70584603D01*
X142767544Y-70584603D02*
X142719925Y-70679841D01*
X142719925Y-70679841D02*
X142624687Y-70775080D01*
X142624687Y-70775080D02*
X142481830Y-70822699D01*
X142481830Y-70822699D02*
X142386592Y-70822699D01*
X142386592Y-70822699D02*
X142243735Y-70775080D01*
X142243735Y-70775080D02*
X142196116Y-70727460D01*
X142196116Y-70727460D02*
X142196116Y-70394127D01*
X142196116Y-70394127D02*
X142386592Y-70394127D01*
X141767544Y-70822699D02*
X141767544Y-69822699D01*
X141767544Y-69822699D02*
X141196116Y-70822699D01*
X141196116Y-70822699D02*
X141196116Y-69822699D01*
X140719925Y-70822699D02*
X140719925Y-69822699D01*
X140719925Y-69822699D02*
X140481830Y-69822699D01*
X140481830Y-69822699D02*
X140338973Y-69870318D01*
X140338973Y-69870318D02*
X140243735Y-69965556D01*
X140243735Y-69965556D02*
X140196116Y-70060794D01*
X140196116Y-70060794D02*
X140148497Y-70251270D01*
X140148497Y-70251270D02*
X140148497Y-70394127D01*
X140148497Y-70394127D02*
X140196116Y-70584603D01*
X140196116Y-70584603D02*
X140243735Y-70679841D01*
X140243735Y-70679841D02*
X140338973Y-70775080D01*
X140338973Y-70775080D02*
X140481830Y-70822699D01*
X140481830Y-70822699D02*
X140719925Y-70822699D01*
X144243734Y-71527881D02*
X144196115Y-71480262D01*
X144196115Y-71480262D02*
X144100877Y-71432643D01*
X144100877Y-71432643D02*
X143862782Y-71432643D01*
X143862782Y-71432643D02*
X143767544Y-71480262D01*
X143767544Y-71480262D02*
X143719925Y-71527881D01*
X143719925Y-71527881D02*
X143672306Y-71623119D01*
X143672306Y-71623119D02*
X143672306Y-71718357D01*
X143672306Y-71718357D02*
X143719925Y-71861214D01*
X143719925Y-71861214D02*
X144291353Y-72432643D01*
X144291353Y-72432643D02*
X143672306Y-72432643D01*
X143243734Y-72337404D02*
X143196115Y-72385024D01*
X143196115Y-72385024D02*
X143243734Y-72432643D01*
X143243734Y-72432643D02*
X143291353Y-72385024D01*
X143291353Y-72385024D02*
X143243734Y-72337404D01*
X143243734Y-72337404D02*
X143243734Y-72432643D01*
X143243734Y-71813595D02*
X143196115Y-71861214D01*
X143196115Y-71861214D02*
X143243734Y-71908833D01*
X143243734Y-71908833D02*
X143291353Y-71861214D01*
X143291353Y-71861214D02*
X143243734Y-71813595D01*
X143243734Y-71813595D02*
X143243734Y-71908833D01*
X142767544Y-71432643D02*
X142767544Y-72242166D01*
X142767544Y-72242166D02*
X142719925Y-72337404D01*
X142719925Y-72337404D02*
X142672306Y-72385024D01*
X142672306Y-72385024D02*
X142577068Y-72432643D01*
X142577068Y-72432643D02*
X142386592Y-72432643D01*
X142386592Y-72432643D02*
X142291354Y-72385024D01*
X142291354Y-72385024D02*
X142243735Y-72337404D01*
X142243735Y-72337404D02*
X142196116Y-72242166D01*
X142196116Y-72242166D02*
X142196116Y-71432643D01*
X141862782Y-71432643D02*
X141291354Y-71432643D01*
X141577068Y-72432643D02*
X141577068Y-71432643D01*
X141053258Y-71432643D02*
X140386592Y-72432643D01*
X140386592Y-71432643D02*
X141053258Y-72432643D01*
X140005639Y-72432643D02*
X140005639Y-71432643D01*
X140005639Y-71432643D02*
X139767544Y-71432643D01*
X139767544Y-71432643D02*
X139624687Y-71480262D01*
X139624687Y-71480262D02*
X139529449Y-71575500D01*
X139529449Y-71575500D02*
X139481830Y-71670738D01*
X139481830Y-71670738D02*
X139434211Y-71861214D01*
X139434211Y-71861214D02*
X139434211Y-72004071D01*
X139434211Y-72004071D02*
X139481830Y-72194547D01*
X139481830Y-72194547D02*
X139529449Y-72289785D01*
X139529449Y-72289785D02*
X139624687Y-72385024D01*
X139624687Y-72385024D02*
X139767544Y-72432643D01*
X139767544Y-72432643D02*
X140005639Y-72432643D01*
X138291354Y-71385024D02*
X139148496Y-72670738D01*
X137958020Y-72432643D02*
X137958020Y-71432643D01*
X137958020Y-71432643D02*
X137577068Y-71432643D01*
X137577068Y-71432643D02*
X137481830Y-71480262D01*
X137481830Y-71480262D02*
X137434211Y-71527881D01*
X137434211Y-71527881D02*
X137386592Y-71623119D01*
X137386592Y-71623119D02*
X137386592Y-71765976D01*
X137386592Y-71765976D02*
X137434211Y-71861214D01*
X137434211Y-71861214D02*
X137481830Y-71908833D01*
X137481830Y-71908833D02*
X137577068Y-71956452D01*
X137577068Y-71956452D02*
X137958020Y-71956452D01*
X137005639Y-72146928D02*
X136529449Y-72146928D01*
X137100877Y-72432643D02*
X136767544Y-71432643D01*
X136767544Y-71432643D02*
X136434211Y-72432643D01*
X136053258Y-72432643D02*
X135862782Y-72432643D01*
X135862782Y-72432643D02*
X135767544Y-72385024D01*
X135767544Y-72385024D02*
X135719925Y-72337404D01*
X135719925Y-72337404D02*
X135624687Y-72194547D01*
X135624687Y-72194547D02*
X135577068Y-72004071D01*
X135577068Y-72004071D02*
X135577068Y-71623119D01*
X135577068Y-71623119D02*
X135624687Y-71527881D01*
X135624687Y-71527881D02*
X135672306Y-71480262D01*
X135672306Y-71480262D02*
X135767544Y-71432643D01*
X135767544Y-71432643D02*
X135958020Y-71432643D01*
X135958020Y-71432643D02*
X136053258Y-71480262D01*
X136053258Y-71480262D02*
X136100877Y-71527881D01*
X136100877Y-71527881D02*
X136148496Y-71623119D01*
X136148496Y-71623119D02*
X136148496Y-71861214D01*
X136148496Y-71861214D02*
X136100877Y-71956452D01*
X136100877Y-71956452D02*
X136053258Y-72004071D01*
X136053258Y-72004071D02*
X135958020Y-72051690D01*
X135958020Y-72051690D02*
X135767544Y-72051690D01*
X135767544Y-72051690D02*
X135672306Y-72004071D01*
X135672306Y-72004071D02*
X135624687Y-71956452D01*
X135624687Y-71956452D02*
X135577068Y-71861214D01*
X144291353Y-73042587D02*
X143672306Y-73042587D01*
X143672306Y-73042587D02*
X144005639Y-73423539D01*
X144005639Y-73423539D02*
X143862782Y-73423539D01*
X143862782Y-73423539D02*
X143767544Y-73471158D01*
X143767544Y-73471158D02*
X143719925Y-73518777D01*
X143719925Y-73518777D02*
X143672306Y-73614015D01*
X143672306Y-73614015D02*
X143672306Y-73852110D01*
X143672306Y-73852110D02*
X143719925Y-73947348D01*
X143719925Y-73947348D02*
X143767544Y-73994968D01*
X143767544Y-73994968D02*
X143862782Y-74042587D01*
X143862782Y-74042587D02*
X144148496Y-74042587D01*
X144148496Y-74042587D02*
X144243734Y-73994968D01*
X144243734Y-73994968D02*
X144291353Y-73947348D01*
X143243734Y-73947348D02*
X143196115Y-73994968D01*
X143196115Y-73994968D02*
X143243734Y-74042587D01*
X143243734Y-74042587D02*
X143291353Y-73994968D01*
X143291353Y-73994968D02*
X143243734Y-73947348D01*
X143243734Y-73947348D02*
X143243734Y-74042587D01*
X143243734Y-73423539D02*
X143196115Y-73471158D01*
X143196115Y-73471158D02*
X143243734Y-73518777D01*
X143243734Y-73518777D02*
X143291353Y-73471158D01*
X143291353Y-73471158D02*
X143243734Y-73423539D01*
X143243734Y-73423539D02*
X143243734Y-73518777D01*
X142767544Y-73042587D02*
X142767544Y-73852110D01*
X142767544Y-73852110D02*
X142719925Y-73947348D01*
X142719925Y-73947348D02*
X142672306Y-73994968D01*
X142672306Y-73994968D02*
X142577068Y-74042587D01*
X142577068Y-74042587D02*
X142386592Y-74042587D01*
X142386592Y-74042587D02*
X142291354Y-73994968D01*
X142291354Y-73994968D02*
X142243735Y-73947348D01*
X142243735Y-73947348D02*
X142196116Y-73852110D01*
X142196116Y-73852110D02*
X142196116Y-73042587D01*
X141148497Y-74042587D02*
X141481830Y-73566396D01*
X141719925Y-74042587D02*
X141719925Y-73042587D01*
X141719925Y-73042587D02*
X141338973Y-73042587D01*
X141338973Y-73042587D02*
X141243735Y-73090206D01*
X141243735Y-73090206D02*
X141196116Y-73137825D01*
X141196116Y-73137825D02*
X141148497Y-73233063D01*
X141148497Y-73233063D02*
X141148497Y-73375920D01*
X141148497Y-73375920D02*
X141196116Y-73471158D01*
X141196116Y-73471158D02*
X141243735Y-73518777D01*
X141243735Y-73518777D02*
X141338973Y-73566396D01*
X141338973Y-73566396D02*
X141719925Y-73566396D01*
X140815163Y-73042587D02*
X140148497Y-74042587D01*
X140148497Y-73042587D02*
X140815163Y-74042587D01*
X139767544Y-74042587D02*
X139767544Y-73042587D01*
X139767544Y-73042587D02*
X139529449Y-73042587D01*
X139529449Y-73042587D02*
X139386592Y-73090206D01*
X139386592Y-73090206D02*
X139291354Y-73185444D01*
X139291354Y-73185444D02*
X139243735Y-73280682D01*
X139243735Y-73280682D02*
X139196116Y-73471158D01*
X139196116Y-73471158D02*
X139196116Y-73614015D01*
X139196116Y-73614015D02*
X139243735Y-73804491D01*
X139243735Y-73804491D02*
X139291354Y-73899729D01*
X139291354Y-73899729D02*
X139386592Y-73994968D01*
X139386592Y-73994968D02*
X139529449Y-74042587D01*
X139529449Y-74042587D02*
X139767544Y-74042587D01*
X138053259Y-72994968D02*
X138910401Y-74280682D01*
X137719925Y-74042587D02*
X137719925Y-73042587D01*
X137719925Y-73042587D02*
X137338973Y-73042587D01*
X137338973Y-73042587D02*
X137243735Y-73090206D01*
X137243735Y-73090206D02*
X137196116Y-73137825D01*
X137196116Y-73137825D02*
X137148497Y-73233063D01*
X137148497Y-73233063D02*
X137148497Y-73375920D01*
X137148497Y-73375920D02*
X137196116Y-73471158D01*
X137196116Y-73471158D02*
X137243735Y-73518777D01*
X137243735Y-73518777D02*
X137338973Y-73566396D01*
X137338973Y-73566396D02*
X137719925Y-73566396D01*
X136767544Y-73756872D02*
X136291354Y-73756872D01*
X136862782Y-74042587D02*
X136529449Y-73042587D01*
X136529449Y-73042587D02*
X136196116Y-74042587D01*
X135719925Y-73471158D02*
X135815163Y-73423539D01*
X135815163Y-73423539D02*
X135862782Y-73375920D01*
X135862782Y-73375920D02*
X135910401Y-73280682D01*
X135910401Y-73280682D02*
X135910401Y-73233063D01*
X135910401Y-73233063D02*
X135862782Y-73137825D01*
X135862782Y-73137825D02*
X135815163Y-73090206D01*
X135815163Y-73090206D02*
X135719925Y-73042587D01*
X135719925Y-73042587D02*
X135529449Y-73042587D01*
X135529449Y-73042587D02*
X135434211Y-73090206D01*
X135434211Y-73090206D02*
X135386592Y-73137825D01*
X135386592Y-73137825D02*
X135338973Y-73233063D01*
X135338973Y-73233063D02*
X135338973Y-73280682D01*
X135338973Y-73280682D02*
X135386592Y-73375920D01*
X135386592Y-73375920D02*
X135434211Y-73423539D01*
X135434211Y-73423539D02*
X135529449Y-73471158D01*
X135529449Y-73471158D02*
X135719925Y-73471158D01*
X135719925Y-73471158D02*
X135815163Y-73518777D01*
X135815163Y-73518777D02*
X135862782Y-73566396D01*
X135862782Y-73566396D02*
X135910401Y-73661634D01*
X135910401Y-73661634D02*
X135910401Y-73852110D01*
X135910401Y-73852110D02*
X135862782Y-73947348D01*
X135862782Y-73947348D02*
X135815163Y-73994968D01*
X135815163Y-73994968D02*
X135719925Y-74042587D01*
X135719925Y-74042587D02*
X135529449Y-74042587D01*
X135529449Y-74042587D02*
X135434211Y-73994968D01*
X135434211Y-73994968D02*
X135386592Y-73947348D01*
X135386592Y-73947348D02*
X135338973Y-73852110D01*
X135338973Y-73852110D02*
X135338973Y-73661634D01*
X135338973Y-73661634D02*
X135386592Y-73566396D01*
X135386592Y-73566396D02*
X135434211Y-73518777D01*
X135434211Y-73518777D02*
X135529449Y-73471158D01*
X143767544Y-74985864D02*
X143767544Y-75652531D01*
X144005639Y-74604912D02*
X144243734Y-75319197D01*
X144243734Y-75319197D02*
X143624687Y-75319197D01*
X143243734Y-75557292D02*
X143196115Y-75604912D01*
X143196115Y-75604912D02*
X143243734Y-75652531D01*
X143243734Y-75652531D02*
X143291353Y-75604912D01*
X143291353Y-75604912D02*
X143243734Y-75557292D01*
X143243734Y-75557292D02*
X143243734Y-75652531D01*
X143243734Y-75033483D02*
X143196115Y-75081102D01*
X143196115Y-75081102D02*
X143243734Y-75128721D01*
X143243734Y-75128721D02*
X143291353Y-75081102D01*
X143291353Y-75081102D02*
X143243734Y-75033483D01*
X143243734Y-75033483D02*
X143243734Y-75128721D01*
X142862782Y-74652531D02*
X142243735Y-74652531D01*
X142243735Y-74652531D02*
X142577068Y-75033483D01*
X142577068Y-75033483D02*
X142434211Y-75033483D01*
X142434211Y-75033483D02*
X142338973Y-75081102D01*
X142338973Y-75081102D02*
X142291354Y-75128721D01*
X142291354Y-75128721D02*
X142243735Y-75223959D01*
X142243735Y-75223959D02*
X142243735Y-75462054D01*
X142243735Y-75462054D02*
X142291354Y-75557292D01*
X142291354Y-75557292D02*
X142338973Y-75604912D01*
X142338973Y-75604912D02*
X142434211Y-75652531D01*
X142434211Y-75652531D02*
X142719925Y-75652531D01*
X142719925Y-75652531D02*
X142815163Y-75604912D01*
X142815163Y-75604912D02*
X142862782Y-75557292D01*
X141815163Y-75557292D02*
X141767544Y-75604912D01*
X141767544Y-75604912D02*
X141815163Y-75652531D01*
X141815163Y-75652531D02*
X141862782Y-75604912D01*
X141862782Y-75604912D02*
X141815163Y-75557292D01*
X141815163Y-75557292D02*
X141815163Y-75652531D01*
X141434211Y-74652531D02*
X140815164Y-74652531D01*
X140815164Y-74652531D02*
X141148497Y-75033483D01*
X141148497Y-75033483D02*
X141005640Y-75033483D01*
X141005640Y-75033483D02*
X140910402Y-75081102D01*
X140910402Y-75081102D02*
X140862783Y-75128721D01*
X140862783Y-75128721D02*
X140815164Y-75223959D01*
X140815164Y-75223959D02*
X140815164Y-75462054D01*
X140815164Y-75462054D02*
X140862783Y-75557292D01*
X140862783Y-75557292D02*
X140910402Y-75604912D01*
X140910402Y-75604912D02*
X141005640Y-75652531D01*
X141005640Y-75652531D02*
X141291354Y-75652531D01*
X141291354Y-75652531D02*
X141386592Y-75604912D01*
X141386592Y-75604912D02*
X141434211Y-75557292D01*
X140529449Y-74652531D02*
X140196116Y-75652531D01*
X140196116Y-75652531D02*
X139862783Y-74652531D01*
X143719925Y-76262475D02*
X144196115Y-76262475D01*
X144196115Y-76262475D02*
X144243734Y-76738665D01*
X144243734Y-76738665D02*
X144196115Y-76691046D01*
X144196115Y-76691046D02*
X144100877Y-76643427D01*
X144100877Y-76643427D02*
X143862782Y-76643427D01*
X143862782Y-76643427D02*
X143767544Y-76691046D01*
X143767544Y-76691046D02*
X143719925Y-76738665D01*
X143719925Y-76738665D02*
X143672306Y-76833903D01*
X143672306Y-76833903D02*
X143672306Y-77071998D01*
X143672306Y-77071998D02*
X143719925Y-77167236D01*
X143719925Y-77167236D02*
X143767544Y-77214856D01*
X143767544Y-77214856D02*
X143862782Y-77262475D01*
X143862782Y-77262475D02*
X144100877Y-77262475D01*
X144100877Y-77262475D02*
X144196115Y-77214856D01*
X144196115Y-77214856D02*
X144243734Y-77167236D01*
X143243734Y-77167236D02*
X143196115Y-77214856D01*
X143196115Y-77214856D02*
X143243734Y-77262475D01*
X143243734Y-77262475D02*
X143291353Y-77214856D01*
X143291353Y-77214856D02*
X143243734Y-77167236D01*
X143243734Y-77167236D02*
X143243734Y-77262475D01*
X143243734Y-76643427D02*
X143196115Y-76691046D01*
X143196115Y-76691046D02*
X143243734Y-76738665D01*
X143243734Y-76738665D02*
X143291353Y-76691046D01*
X143291353Y-76691046D02*
X143243734Y-76643427D01*
X143243734Y-76643427D02*
X143243734Y-76738665D01*
X142767544Y-77262475D02*
X142767544Y-76262475D01*
X142767544Y-76262475D02*
X142196116Y-77262475D01*
X142196116Y-77262475D02*
X142196116Y-76262475D01*
X141148497Y-77262475D02*
X141481830Y-76786284D01*
X141719925Y-77262475D02*
X141719925Y-76262475D01*
X141719925Y-76262475D02*
X141338973Y-76262475D01*
X141338973Y-76262475D02*
X141243735Y-76310094D01*
X141243735Y-76310094D02*
X141196116Y-76357713D01*
X141196116Y-76357713D02*
X141148497Y-76452951D01*
X141148497Y-76452951D02*
X141148497Y-76595808D01*
X141148497Y-76595808D02*
X141196116Y-76691046D01*
X141196116Y-76691046D02*
X141243735Y-76738665D01*
X141243735Y-76738665D02*
X141338973Y-76786284D01*
X141338973Y-76786284D02*
X141719925Y-76786284D01*
X140767544Y-77214856D02*
X140624687Y-77262475D01*
X140624687Y-77262475D02*
X140386592Y-77262475D01*
X140386592Y-77262475D02*
X140291354Y-77214856D01*
X140291354Y-77214856D02*
X140243735Y-77167236D01*
X140243735Y-77167236D02*
X140196116Y-77071998D01*
X140196116Y-77071998D02*
X140196116Y-76976760D01*
X140196116Y-76976760D02*
X140243735Y-76881522D01*
X140243735Y-76881522D02*
X140291354Y-76833903D01*
X140291354Y-76833903D02*
X140386592Y-76786284D01*
X140386592Y-76786284D02*
X140577068Y-76738665D01*
X140577068Y-76738665D02*
X140672306Y-76691046D01*
X140672306Y-76691046D02*
X140719925Y-76643427D01*
X140719925Y-76643427D02*
X140767544Y-76548189D01*
X140767544Y-76548189D02*
X140767544Y-76452951D01*
X140767544Y-76452951D02*
X140719925Y-76357713D01*
X140719925Y-76357713D02*
X140672306Y-76310094D01*
X140672306Y-76310094D02*
X140577068Y-76262475D01*
X140577068Y-76262475D02*
X140338973Y-76262475D01*
X140338973Y-76262475D02*
X140196116Y-76310094D01*
X139910401Y-76262475D02*
X139338973Y-76262475D01*
X139624687Y-77262475D02*
X139624687Y-76262475D01*
X138672306Y-76738665D02*
X138529449Y-76786284D01*
X138529449Y-76786284D02*
X138481830Y-76833903D01*
X138481830Y-76833903D02*
X138434211Y-76929141D01*
X138434211Y-76929141D02*
X138434211Y-77071998D01*
X138434211Y-77071998D02*
X138481830Y-77167236D01*
X138481830Y-77167236D02*
X138529449Y-77214856D01*
X138529449Y-77214856D02*
X138624687Y-77262475D01*
X138624687Y-77262475D02*
X139005639Y-77262475D01*
X139005639Y-77262475D02*
X139005639Y-76262475D01*
X139005639Y-76262475D02*
X138672306Y-76262475D01*
X138672306Y-76262475D02*
X138577068Y-76310094D01*
X138577068Y-76310094D02*
X138529449Y-76357713D01*
X138529449Y-76357713D02*
X138481830Y-76452951D01*
X138481830Y-76452951D02*
X138481830Y-76548189D01*
X138481830Y-76548189D02*
X138529449Y-76643427D01*
X138529449Y-76643427D02*
X138577068Y-76691046D01*
X138577068Y-76691046D02*
X138672306Y-76738665D01*
X138672306Y-76738665D02*
X139005639Y-76738665D01*
X143767544Y-77872419D02*
X143958020Y-77872419D01*
X143958020Y-77872419D02*
X144053258Y-77920038D01*
X144053258Y-77920038D02*
X144100877Y-77967657D01*
X144100877Y-77967657D02*
X144196115Y-78110514D01*
X144196115Y-78110514D02*
X144243734Y-78300990D01*
X144243734Y-78300990D02*
X144243734Y-78681942D01*
X144243734Y-78681942D02*
X144196115Y-78777180D01*
X144196115Y-78777180D02*
X144148496Y-78824800D01*
X144148496Y-78824800D02*
X144053258Y-78872419D01*
X144053258Y-78872419D02*
X143862782Y-78872419D01*
X143862782Y-78872419D02*
X143767544Y-78824800D01*
X143767544Y-78824800D02*
X143719925Y-78777180D01*
X143719925Y-78777180D02*
X143672306Y-78681942D01*
X143672306Y-78681942D02*
X143672306Y-78443847D01*
X143672306Y-78443847D02*
X143719925Y-78348609D01*
X143719925Y-78348609D02*
X143767544Y-78300990D01*
X143767544Y-78300990D02*
X143862782Y-78253371D01*
X143862782Y-78253371D02*
X144053258Y-78253371D01*
X144053258Y-78253371D02*
X144148496Y-78300990D01*
X144148496Y-78300990D02*
X144196115Y-78348609D01*
X144196115Y-78348609D02*
X144243734Y-78443847D01*
X143243734Y-78777180D02*
X143196115Y-78824800D01*
X143196115Y-78824800D02*
X143243734Y-78872419D01*
X143243734Y-78872419D02*
X143291353Y-78824800D01*
X143291353Y-78824800D02*
X143243734Y-78777180D01*
X143243734Y-78777180D02*
X143243734Y-78872419D01*
X143243734Y-78253371D02*
X143196115Y-78300990D01*
X143196115Y-78300990D02*
X143243734Y-78348609D01*
X143243734Y-78348609D02*
X143291353Y-78300990D01*
X143291353Y-78300990D02*
X143243734Y-78253371D01*
X143243734Y-78253371D02*
X143243734Y-78348609D01*
X142767544Y-78348609D02*
X142434211Y-78348609D01*
X142291354Y-78872419D02*
X142767544Y-78872419D01*
X142767544Y-78872419D02*
X142767544Y-77872419D01*
X142767544Y-77872419D02*
X142291354Y-77872419D01*
X141291354Y-78872419D02*
X141624687Y-78396228D01*
X141862782Y-78872419D02*
X141862782Y-77872419D01*
X141862782Y-77872419D02*
X141481830Y-77872419D01*
X141481830Y-77872419D02*
X141386592Y-77920038D01*
X141386592Y-77920038D02*
X141338973Y-77967657D01*
X141338973Y-77967657D02*
X141291354Y-78062895D01*
X141291354Y-78062895D02*
X141291354Y-78205752D01*
X141291354Y-78205752D02*
X141338973Y-78300990D01*
X141338973Y-78300990D02*
X141386592Y-78348609D01*
X141386592Y-78348609D02*
X141481830Y-78396228D01*
X141481830Y-78396228D02*
X141862782Y-78396228D01*
X140910401Y-78586704D02*
X140434211Y-78586704D01*
X141005639Y-78872419D02*
X140672306Y-77872419D01*
X140672306Y-77872419D02*
X140338973Y-78872419D01*
X140053258Y-78824800D02*
X139910401Y-78872419D01*
X139910401Y-78872419D02*
X139672306Y-78872419D01*
X139672306Y-78872419D02*
X139577068Y-78824800D01*
X139577068Y-78824800D02*
X139529449Y-78777180D01*
X139529449Y-78777180D02*
X139481830Y-78681942D01*
X139481830Y-78681942D02*
X139481830Y-78586704D01*
X139481830Y-78586704D02*
X139529449Y-78491466D01*
X139529449Y-78491466D02*
X139577068Y-78443847D01*
X139577068Y-78443847D02*
X139672306Y-78396228D01*
X139672306Y-78396228D02*
X139862782Y-78348609D01*
X139862782Y-78348609D02*
X139958020Y-78300990D01*
X139958020Y-78300990D02*
X140005639Y-78253371D01*
X140005639Y-78253371D02*
X140053258Y-78158133D01*
X140053258Y-78158133D02*
X140053258Y-78062895D01*
X140053258Y-78062895D02*
X140005639Y-77967657D01*
X140005639Y-77967657D02*
X139958020Y-77920038D01*
X139958020Y-77920038D02*
X139862782Y-77872419D01*
X139862782Y-77872419D02*
X139624687Y-77872419D01*
X139624687Y-77872419D02*
X139481830Y-77920038D01*
X139053258Y-78348609D02*
X138719925Y-78348609D01*
X138577068Y-78872419D02*
X139053258Y-78872419D01*
X139053258Y-78872419D02*
X139053258Y-77872419D01*
X139053258Y-77872419D02*
X138577068Y-77872419D01*
X137434211Y-77824800D02*
X138291353Y-79110514D01*
X137100877Y-78872419D02*
X137100877Y-77872419D01*
X137100877Y-77872419D02*
X136719925Y-77872419D01*
X136719925Y-77872419D02*
X136624687Y-77920038D01*
X136624687Y-77920038D02*
X136577068Y-77967657D01*
X136577068Y-77967657D02*
X136529449Y-78062895D01*
X136529449Y-78062895D02*
X136529449Y-78205752D01*
X136529449Y-78205752D02*
X136577068Y-78300990D01*
X136577068Y-78300990D02*
X136624687Y-78348609D01*
X136624687Y-78348609D02*
X136719925Y-78396228D01*
X136719925Y-78396228D02*
X137100877Y-78396228D01*
X135529449Y-78777180D02*
X135577068Y-78824800D01*
X135577068Y-78824800D02*
X135719925Y-78872419D01*
X135719925Y-78872419D02*
X135815163Y-78872419D01*
X135815163Y-78872419D02*
X135958020Y-78824800D01*
X135958020Y-78824800D02*
X136053258Y-78729561D01*
X136053258Y-78729561D02*
X136100877Y-78634323D01*
X136100877Y-78634323D02*
X136148496Y-78443847D01*
X136148496Y-78443847D02*
X136148496Y-78300990D01*
X136148496Y-78300990D02*
X136100877Y-78110514D01*
X136100877Y-78110514D02*
X136053258Y-78015276D01*
X136053258Y-78015276D02*
X135958020Y-77920038D01*
X135958020Y-77920038D02*
X135815163Y-77872419D01*
X135815163Y-77872419D02*
X135719925Y-77872419D01*
X135719925Y-77872419D02*
X135577068Y-77920038D01*
X135577068Y-77920038D02*
X135529449Y-77967657D01*
X134910401Y-77872419D02*
X134815163Y-77872419D01*
X134815163Y-77872419D02*
X134719925Y-77920038D01*
X134719925Y-77920038D02*
X134672306Y-77967657D01*
X134672306Y-77967657D02*
X134624687Y-78062895D01*
X134624687Y-78062895D02*
X134577068Y-78253371D01*
X134577068Y-78253371D02*
X134577068Y-78491466D01*
X134577068Y-78491466D02*
X134624687Y-78681942D01*
X134624687Y-78681942D02*
X134672306Y-78777180D01*
X134672306Y-78777180D02*
X134719925Y-78824800D01*
X134719925Y-78824800D02*
X134815163Y-78872419D01*
X134815163Y-78872419D02*
X134910401Y-78872419D01*
X134910401Y-78872419D02*
X135005639Y-78824800D01*
X135005639Y-78824800D02*
X135053258Y-78777180D01*
X135053258Y-78777180D02*
X135100877Y-78681942D01*
X135100877Y-78681942D02*
X135148496Y-78491466D01*
X135148496Y-78491466D02*
X135148496Y-78253371D01*
X135148496Y-78253371D02*
X135100877Y-78062895D01*
X135100877Y-78062895D02*
X135053258Y-77967657D01*
X135053258Y-77967657D02*
X135005639Y-77920038D01*
X135005639Y-77920038D02*
X134910401Y-77872419D01*
X184672306Y-62572699D02*
X185243734Y-62572699D01*
X184958020Y-62572699D02*
X184958020Y-61572699D01*
X184958020Y-61572699D02*
X185053258Y-61715556D01*
X185053258Y-61715556D02*
X185148496Y-61810794D01*
X185148496Y-61810794D02*
X185243734Y-61858413D01*
X184243734Y-62477460D02*
X184196115Y-62525080D01*
X184196115Y-62525080D02*
X184243734Y-62572699D01*
X184243734Y-62572699D02*
X184291353Y-62525080D01*
X184291353Y-62525080D02*
X184243734Y-62477460D01*
X184243734Y-62477460D02*
X184243734Y-62572699D01*
X184243734Y-61953651D02*
X184196115Y-62001270D01*
X184196115Y-62001270D02*
X184243734Y-62048889D01*
X184243734Y-62048889D02*
X184291353Y-62001270D01*
X184291353Y-62001270D02*
X184243734Y-61953651D01*
X184243734Y-61953651D02*
X184243734Y-62048889D01*
X183243735Y-61620318D02*
X183338973Y-61572699D01*
X183338973Y-61572699D02*
X183481830Y-61572699D01*
X183481830Y-61572699D02*
X183624687Y-61620318D01*
X183624687Y-61620318D02*
X183719925Y-61715556D01*
X183719925Y-61715556D02*
X183767544Y-61810794D01*
X183767544Y-61810794D02*
X183815163Y-62001270D01*
X183815163Y-62001270D02*
X183815163Y-62144127D01*
X183815163Y-62144127D02*
X183767544Y-62334603D01*
X183767544Y-62334603D02*
X183719925Y-62429841D01*
X183719925Y-62429841D02*
X183624687Y-62525080D01*
X183624687Y-62525080D02*
X183481830Y-62572699D01*
X183481830Y-62572699D02*
X183386592Y-62572699D01*
X183386592Y-62572699D02*
X183243735Y-62525080D01*
X183243735Y-62525080D02*
X183196116Y-62477460D01*
X183196116Y-62477460D02*
X183196116Y-62144127D01*
X183196116Y-62144127D02*
X183386592Y-62144127D01*
X182767544Y-62572699D02*
X182767544Y-61572699D01*
X182767544Y-61572699D02*
X182196116Y-62572699D01*
X182196116Y-62572699D02*
X182196116Y-61572699D01*
X181719925Y-62572699D02*
X181719925Y-61572699D01*
X181719925Y-61572699D02*
X181481830Y-61572699D01*
X181481830Y-61572699D02*
X181338973Y-61620318D01*
X181338973Y-61620318D02*
X181243735Y-61715556D01*
X181243735Y-61715556D02*
X181196116Y-61810794D01*
X181196116Y-61810794D02*
X181148497Y-62001270D01*
X181148497Y-62001270D02*
X181148497Y-62144127D01*
X181148497Y-62144127D02*
X181196116Y-62334603D01*
X181196116Y-62334603D02*
X181243735Y-62429841D01*
X181243735Y-62429841D02*
X181338973Y-62525080D01*
X181338973Y-62525080D02*
X181481830Y-62572699D01*
X181481830Y-62572699D02*
X181719925Y-62572699D01*
X185243734Y-63277881D02*
X185196115Y-63230262D01*
X185196115Y-63230262D02*
X185100877Y-63182643D01*
X185100877Y-63182643D02*
X184862782Y-63182643D01*
X184862782Y-63182643D02*
X184767544Y-63230262D01*
X184767544Y-63230262D02*
X184719925Y-63277881D01*
X184719925Y-63277881D02*
X184672306Y-63373119D01*
X184672306Y-63373119D02*
X184672306Y-63468357D01*
X184672306Y-63468357D02*
X184719925Y-63611214D01*
X184719925Y-63611214D02*
X185291353Y-64182643D01*
X185291353Y-64182643D02*
X184672306Y-64182643D01*
X184243734Y-64087404D02*
X184196115Y-64135024D01*
X184196115Y-64135024D02*
X184243734Y-64182643D01*
X184243734Y-64182643D02*
X184291353Y-64135024D01*
X184291353Y-64135024D02*
X184243734Y-64087404D01*
X184243734Y-64087404D02*
X184243734Y-64182643D01*
X184243734Y-63563595D02*
X184196115Y-63611214D01*
X184196115Y-63611214D02*
X184243734Y-63658833D01*
X184243734Y-63658833D02*
X184291353Y-63611214D01*
X184291353Y-63611214D02*
X184243734Y-63563595D01*
X184243734Y-63563595D02*
X184243734Y-63658833D01*
X183910401Y-63182643D02*
X183338973Y-63182643D01*
X183624687Y-64182643D02*
X183624687Y-63182643D01*
X183100877Y-63182643D02*
X182434211Y-64182643D01*
X182434211Y-63182643D02*
X183100877Y-64182643D01*
X182053258Y-64182643D02*
X182053258Y-63182643D01*
X182053258Y-63182643D02*
X181815163Y-63182643D01*
X181815163Y-63182643D02*
X181672306Y-63230262D01*
X181672306Y-63230262D02*
X181577068Y-63325500D01*
X181577068Y-63325500D02*
X181529449Y-63420738D01*
X181529449Y-63420738D02*
X181481830Y-63611214D01*
X181481830Y-63611214D02*
X181481830Y-63754071D01*
X181481830Y-63754071D02*
X181529449Y-63944547D01*
X181529449Y-63944547D02*
X181577068Y-64039785D01*
X181577068Y-64039785D02*
X181672306Y-64135024D01*
X181672306Y-64135024D02*
X181815163Y-64182643D01*
X181815163Y-64182643D02*
X182053258Y-64182643D01*
X180862782Y-63182643D02*
X180767544Y-63182643D01*
X180767544Y-63182643D02*
X180672306Y-63230262D01*
X180672306Y-63230262D02*
X180624687Y-63277881D01*
X180624687Y-63277881D02*
X180577068Y-63373119D01*
X180577068Y-63373119D02*
X180529449Y-63563595D01*
X180529449Y-63563595D02*
X180529449Y-63801690D01*
X180529449Y-63801690D02*
X180577068Y-63992166D01*
X180577068Y-63992166D02*
X180624687Y-64087404D01*
X180624687Y-64087404D02*
X180672306Y-64135024D01*
X180672306Y-64135024D02*
X180767544Y-64182643D01*
X180767544Y-64182643D02*
X180862782Y-64182643D01*
X180862782Y-64182643D02*
X180958020Y-64135024D01*
X180958020Y-64135024D02*
X181005639Y-64087404D01*
X181005639Y-64087404D02*
X181053258Y-63992166D01*
X181053258Y-63992166D02*
X181100877Y-63801690D01*
X181100877Y-63801690D02*
X181100877Y-63563595D01*
X181100877Y-63563595D02*
X181053258Y-63373119D01*
X181053258Y-63373119D02*
X181005639Y-63277881D01*
X181005639Y-63277881D02*
X180958020Y-63230262D01*
X180958020Y-63230262D02*
X180862782Y-63182643D01*
X185291353Y-64792587D02*
X184672306Y-64792587D01*
X184672306Y-64792587D02*
X185005639Y-65173539D01*
X185005639Y-65173539D02*
X184862782Y-65173539D01*
X184862782Y-65173539D02*
X184767544Y-65221158D01*
X184767544Y-65221158D02*
X184719925Y-65268777D01*
X184719925Y-65268777D02*
X184672306Y-65364015D01*
X184672306Y-65364015D02*
X184672306Y-65602110D01*
X184672306Y-65602110D02*
X184719925Y-65697348D01*
X184719925Y-65697348D02*
X184767544Y-65744968D01*
X184767544Y-65744968D02*
X184862782Y-65792587D01*
X184862782Y-65792587D02*
X185148496Y-65792587D01*
X185148496Y-65792587D02*
X185243734Y-65744968D01*
X185243734Y-65744968D02*
X185291353Y-65697348D01*
X184243734Y-65697348D02*
X184196115Y-65744968D01*
X184196115Y-65744968D02*
X184243734Y-65792587D01*
X184243734Y-65792587D02*
X184291353Y-65744968D01*
X184291353Y-65744968D02*
X184243734Y-65697348D01*
X184243734Y-65697348D02*
X184243734Y-65792587D01*
X184243734Y-65173539D02*
X184196115Y-65221158D01*
X184196115Y-65221158D02*
X184243734Y-65268777D01*
X184243734Y-65268777D02*
X184291353Y-65221158D01*
X184291353Y-65221158D02*
X184243734Y-65173539D01*
X184243734Y-65173539D02*
X184243734Y-65268777D01*
X183196116Y-65792587D02*
X183529449Y-65316396D01*
X183767544Y-65792587D02*
X183767544Y-64792587D01*
X183767544Y-64792587D02*
X183386592Y-64792587D01*
X183386592Y-64792587D02*
X183291354Y-64840206D01*
X183291354Y-64840206D02*
X183243735Y-64887825D01*
X183243735Y-64887825D02*
X183196116Y-64983063D01*
X183196116Y-64983063D02*
X183196116Y-65125920D01*
X183196116Y-65125920D02*
X183243735Y-65221158D01*
X183243735Y-65221158D02*
X183291354Y-65268777D01*
X183291354Y-65268777D02*
X183386592Y-65316396D01*
X183386592Y-65316396D02*
X183767544Y-65316396D01*
X182862782Y-64792587D02*
X182196116Y-65792587D01*
X182196116Y-64792587D02*
X182862782Y-65792587D01*
X181815163Y-65792587D02*
X181815163Y-64792587D01*
X181815163Y-64792587D02*
X181577068Y-64792587D01*
X181577068Y-64792587D02*
X181434211Y-64840206D01*
X181434211Y-64840206D02*
X181338973Y-64935444D01*
X181338973Y-64935444D02*
X181291354Y-65030682D01*
X181291354Y-65030682D02*
X181243735Y-65221158D01*
X181243735Y-65221158D02*
X181243735Y-65364015D01*
X181243735Y-65364015D02*
X181291354Y-65554491D01*
X181291354Y-65554491D02*
X181338973Y-65649729D01*
X181338973Y-65649729D02*
X181434211Y-65744968D01*
X181434211Y-65744968D02*
X181577068Y-65792587D01*
X181577068Y-65792587D02*
X181815163Y-65792587D01*
X180624687Y-64792587D02*
X180529449Y-64792587D01*
X180529449Y-64792587D02*
X180434211Y-64840206D01*
X180434211Y-64840206D02*
X180386592Y-64887825D01*
X180386592Y-64887825D02*
X180338973Y-64983063D01*
X180338973Y-64983063D02*
X180291354Y-65173539D01*
X180291354Y-65173539D02*
X180291354Y-65411634D01*
X180291354Y-65411634D02*
X180338973Y-65602110D01*
X180338973Y-65602110D02*
X180386592Y-65697348D01*
X180386592Y-65697348D02*
X180434211Y-65744968D01*
X180434211Y-65744968D02*
X180529449Y-65792587D01*
X180529449Y-65792587D02*
X180624687Y-65792587D01*
X180624687Y-65792587D02*
X180719925Y-65744968D01*
X180719925Y-65744968D02*
X180767544Y-65697348D01*
X180767544Y-65697348D02*
X180815163Y-65602110D01*
X180815163Y-65602110D02*
X180862782Y-65411634D01*
X180862782Y-65411634D02*
X180862782Y-65173539D01*
X180862782Y-65173539D02*
X180815163Y-64983063D01*
X180815163Y-64983063D02*
X180767544Y-64887825D01*
X180767544Y-64887825D02*
X180719925Y-64840206D01*
X180719925Y-64840206D02*
X180624687Y-64792587D01*
X184767544Y-66735864D02*
X184767544Y-67402531D01*
X185005639Y-66354912D02*
X185243734Y-67069197D01*
X185243734Y-67069197D02*
X184624687Y-67069197D01*
X184243734Y-67307292D02*
X184196115Y-67354912D01*
X184196115Y-67354912D02*
X184243734Y-67402531D01*
X184243734Y-67402531D02*
X184291353Y-67354912D01*
X184291353Y-67354912D02*
X184243734Y-67307292D01*
X184243734Y-67307292D02*
X184243734Y-67402531D01*
X184243734Y-66783483D02*
X184196115Y-66831102D01*
X184196115Y-66831102D02*
X184243734Y-66878721D01*
X184243734Y-66878721D02*
X184291353Y-66831102D01*
X184291353Y-66831102D02*
X184243734Y-66783483D01*
X184243734Y-66783483D02*
X184243734Y-66878721D01*
X183862782Y-66402531D02*
X183243735Y-66402531D01*
X183243735Y-66402531D02*
X183577068Y-66783483D01*
X183577068Y-66783483D02*
X183434211Y-66783483D01*
X183434211Y-66783483D02*
X183338973Y-66831102D01*
X183338973Y-66831102D02*
X183291354Y-66878721D01*
X183291354Y-66878721D02*
X183243735Y-66973959D01*
X183243735Y-66973959D02*
X183243735Y-67212054D01*
X183243735Y-67212054D02*
X183291354Y-67307292D01*
X183291354Y-67307292D02*
X183338973Y-67354912D01*
X183338973Y-67354912D02*
X183434211Y-67402531D01*
X183434211Y-67402531D02*
X183719925Y-67402531D01*
X183719925Y-67402531D02*
X183815163Y-67354912D01*
X183815163Y-67354912D02*
X183862782Y-67307292D01*
X182815163Y-67307292D02*
X182767544Y-67354912D01*
X182767544Y-67354912D02*
X182815163Y-67402531D01*
X182815163Y-67402531D02*
X182862782Y-67354912D01*
X182862782Y-67354912D02*
X182815163Y-67307292D01*
X182815163Y-67307292D02*
X182815163Y-67402531D01*
X182434211Y-66402531D02*
X181815164Y-66402531D01*
X181815164Y-66402531D02*
X182148497Y-66783483D01*
X182148497Y-66783483D02*
X182005640Y-66783483D01*
X182005640Y-66783483D02*
X181910402Y-66831102D01*
X181910402Y-66831102D02*
X181862783Y-66878721D01*
X181862783Y-66878721D02*
X181815164Y-66973959D01*
X181815164Y-66973959D02*
X181815164Y-67212054D01*
X181815164Y-67212054D02*
X181862783Y-67307292D01*
X181862783Y-67307292D02*
X181910402Y-67354912D01*
X181910402Y-67354912D02*
X182005640Y-67402531D01*
X182005640Y-67402531D02*
X182291354Y-67402531D01*
X182291354Y-67402531D02*
X182386592Y-67354912D01*
X182386592Y-67354912D02*
X182434211Y-67307292D01*
X181529449Y-66402531D02*
X181196116Y-67402531D01*
X181196116Y-67402531D02*
X180862783Y-66402531D01*
X184719925Y-68012475D02*
X185196115Y-68012475D01*
X185196115Y-68012475D02*
X185243734Y-68488665D01*
X185243734Y-68488665D02*
X185196115Y-68441046D01*
X185196115Y-68441046D02*
X185100877Y-68393427D01*
X185100877Y-68393427D02*
X184862782Y-68393427D01*
X184862782Y-68393427D02*
X184767544Y-68441046D01*
X184767544Y-68441046D02*
X184719925Y-68488665D01*
X184719925Y-68488665D02*
X184672306Y-68583903D01*
X184672306Y-68583903D02*
X184672306Y-68821998D01*
X184672306Y-68821998D02*
X184719925Y-68917236D01*
X184719925Y-68917236D02*
X184767544Y-68964856D01*
X184767544Y-68964856D02*
X184862782Y-69012475D01*
X184862782Y-69012475D02*
X185100877Y-69012475D01*
X185100877Y-69012475D02*
X185196115Y-68964856D01*
X185196115Y-68964856D02*
X185243734Y-68917236D01*
X184243734Y-68917236D02*
X184196115Y-68964856D01*
X184196115Y-68964856D02*
X184243734Y-69012475D01*
X184243734Y-69012475D02*
X184291353Y-68964856D01*
X184291353Y-68964856D02*
X184243734Y-68917236D01*
X184243734Y-68917236D02*
X184243734Y-69012475D01*
X184243734Y-68393427D02*
X184196115Y-68441046D01*
X184196115Y-68441046D02*
X184243734Y-68488665D01*
X184243734Y-68488665D02*
X184291353Y-68441046D01*
X184291353Y-68441046D02*
X184243734Y-68393427D01*
X184243734Y-68393427D02*
X184243734Y-68488665D01*
X183767544Y-68488665D02*
X183434211Y-68488665D01*
X183291354Y-69012475D02*
X183767544Y-69012475D01*
X183767544Y-69012475D02*
X183767544Y-68012475D01*
X183767544Y-68012475D02*
X183291354Y-68012475D01*
X182862782Y-69012475D02*
X182862782Y-68012475D01*
X182862782Y-68012475D02*
X182291354Y-69012475D01*
X182291354Y-69012475D02*
X182291354Y-68012475D01*
X184767544Y-69622419D02*
X184958020Y-69622419D01*
X184958020Y-69622419D02*
X185053258Y-69670038D01*
X185053258Y-69670038D02*
X185100877Y-69717657D01*
X185100877Y-69717657D02*
X185196115Y-69860514D01*
X185196115Y-69860514D02*
X185243734Y-70050990D01*
X185243734Y-70050990D02*
X185243734Y-70431942D01*
X185243734Y-70431942D02*
X185196115Y-70527180D01*
X185196115Y-70527180D02*
X185148496Y-70574800D01*
X185148496Y-70574800D02*
X185053258Y-70622419D01*
X185053258Y-70622419D02*
X184862782Y-70622419D01*
X184862782Y-70622419D02*
X184767544Y-70574800D01*
X184767544Y-70574800D02*
X184719925Y-70527180D01*
X184719925Y-70527180D02*
X184672306Y-70431942D01*
X184672306Y-70431942D02*
X184672306Y-70193847D01*
X184672306Y-70193847D02*
X184719925Y-70098609D01*
X184719925Y-70098609D02*
X184767544Y-70050990D01*
X184767544Y-70050990D02*
X184862782Y-70003371D01*
X184862782Y-70003371D02*
X185053258Y-70003371D01*
X185053258Y-70003371D02*
X185148496Y-70050990D01*
X185148496Y-70050990D02*
X185196115Y-70098609D01*
X185196115Y-70098609D02*
X185243734Y-70193847D01*
X184243734Y-70527180D02*
X184196115Y-70574800D01*
X184196115Y-70574800D02*
X184243734Y-70622419D01*
X184243734Y-70622419D02*
X184291353Y-70574800D01*
X184291353Y-70574800D02*
X184243734Y-70527180D01*
X184243734Y-70527180D02*
X184243734Y-70622419D01*
X184243734Y-70003371D02*
X184196115Y-70050990D01*
X184196115Y-70050990D02*
X184243734Y-70098609D01*
X184243734Y-70098609D02*
X184291353Y-70050990D01*
X184291353Y-70050990D02*
X184243734Y-70003371D01*
X184243734Y-70003371D02*
X184243734Y-70098609D01*
X183767544Y-70622419D02*
X183767544Y-69622419D01*
X183100878Y-69622419D02*
X182910402Y-69622419D01*
X182910402Y-69622419D02*
X182815164Y-69670038D01*
X182815164Y-69670038D02*
X182719926Y-69765276D01*
X182719926Y-69765276D02*
X182672307Y-69955752D01*
X182672307Y-69955752D02*
X182672307Y-70289085D01*
X182672307Y-70289085D02*
X182719926Y-70479561D01*
X182719926Y-70479561D02*
X182815164Y-70574800D01*
X182815164Y-70574800D02*
X182910402Y-70622419D01*
X182910402Y-70622419D02*
X183100878Y-70622419D01*
X183100878Y-70622419D02*
X183196116Y-70574800D01*
X183196116Y-70574800D02*
X183291354Y-70479561D01*
X183291354Y-70479561D02*
X183338973Y-70289085D01*
X183338973Y-70289085D02*
X183338973Y-69955752D01*
X183338973Y-69955752D02*
X183291354Y-69765276D01*
X183291354Y-69765276D02*
X183196116Y-69670038D01*
X183196116Y-69670038D02*
X183100878Y-69622419D01*
X182053259Y-69622419D02*
X181958021Y-69622419D01*
X181958021Y-69622419D02*
X181862783Y-69670038D01*
X181862783Y-69670038D02*
X181815164Y-69717657D01*
X181815164Y-69717657D02*
X181767545Y-69812895D01*
X181767545Y-69812895D02*
X181719926Y-70003371D01*
X181719926Y-70003371D02*
X181719926Y-70241466D01*
X181719926Y-70241466D02*
X181767545Y-70431942D01*
X181767545Y-70431942D02*
X181815164Y-70527180D01*
X181815164Y-70527180D02*
X181862783Y-70574800D01*
X181862783Y-70574800D02*
X181958021Y-70622419D01*
X181958021Y-70622419D02*
X182053259Y-70622419D01*
X182053259Y-70622419D02*
X182148497Y-70574800D01*
X182148497Y-70574800D02*
X182196116Y-70527180D01*
X182196116Y-70527180D02*
X182243735Y-70431942D01*
X182243735Y-70431942D02*
X182291354Y-70241466D01*
X182291354Y-70241466D02*
X182291354Y-70003371D01*
X182291354Y-70003371D02*
X182243735Y-69812895D01*
X182243735Y-69812895D02*
X182196116Y-69717657D01*
X182196116Y-69717657D02*
X182148497Y-69670038D01*
X182148497Y-69670038D02*
X182053259Y-69622419D01*
D13*
X150225564Y-116306028D02*
X149725564Y-117806028D01*
X149725564Y-117806028D02*
X149225564Y-116306028D01*
X148154136Y-117734600D02*
X148296993Y-117806028D01*
X148296993Y-117806028D02*
X148582708Y-117806028D01*
X148582708Y-117806028D02*
X148725565Y-117734600D01*
X148725565Y-117734600D02*
X148796993Y-117591742D01*
X148796993Y-117591742D02*
X148796993Y-117020314D01*
X148796993Y-117020314D02*
X148725565Y-116877457D01*
X148725565Y-116877457D02*
X148582708Y-116806028D01*
X148582708Y-116806028D02*
X148296993Y-116806028D01*
X148296993Y-116806028D02*
X148154136Y-116877457D01*
X148154136Y-116877457D02*
X148082708Y-117020314D01*
X148082708Y-117020314D02*
X148082708Y-117163171D01*
X148082708Y-117163171D02*
X148796993Y-117306028D01*
X147439851Y-117806028D02*
X147439851Y-116806028D01*
X147439851Y-117091742D02*
X147368422Y-116948885D01*
X147368422Y-116948885D02*
X147296994Y-116877457D01*
X147296994Y-116877457D02*
X147154136Y-116806028D01*
X147154136Y-116806028D02*
X147011279Y-116806028D01*
X146582708Y-117734600D02*
X146439851Y-117806028D01*
X146439851Y-117806028D02*
X146154137Y-117806028D01*
X146154137Y-117806028D02*
X146011280Y-117734600D01*
X146011280Y-117734600D02*
X145939851Y-117591742D01*
X145939851Y-117591742D02*
X145939851Y-117520314D01*
X145939851Y-117520314D02*
X146011280Y-117377457D01*
X146011280Y-117377457D02*
X146154137Y-117306028D01*
X146154137Y-117306028D02*
X146368423Y-117306028D01*
X146368423Y-117306028D02*
X146511280Y-117234600D01*
X146511280Y-117234600D02*
X146582708Y-117091742D01*
X146582708Y-117091742D02*
X146582708Y-117020314D01*
X146582708Y-117020314D02*
X146511280Y-116877457D01*
X146511280Y-116877457D02*
X146368423Y-116806028D01*
X146368423Y-116806028D02*
X146154137Y-116806028D01*
X146154137Y-116806028D02*
X146011280Y-116877457D01*
X145296994Y-117806028D02*
X145296994Y-116806028D01*
X145296994Y-116306028D02*
X145368422Y-116377457D01*
X145368422Y-116377457D02*
X145296994Y-116448885D01*
X145296994Y-116448885D02*
X145225565Y-116377457D01*
X145225565Y-116377457D02*
X145296994Y-116306028D01*
X145296994Y-116306028D02*
X145296994Y-116448885D01*
X144368422Y-117806028D02*
X144511279Y-117734600D01*
X144511279Y-117734600D02*
X144582708Y-117663171D01*
X144582708Y-117663171D02*
X144654136Y-117520314D01*
X144654136Y-117520314D02*
X144654136Y-117091742D01*
X144654136Y-117091742D02*
X144582708Y-116948885D01*
X144582708Y-116948885D02*
X144511279Y-116877457D01*
X144511279Y-116877457D02*
X144368422Y-116806028D01*
X144368422Y-116806028D02*
X144154136Y-116806028D01*
X144154136Y-116806028D02*
X144011279Y-116877457D01*
X144011279Y-116877457D02*
X143939851Y-116948885D01*
X143939851Y-116948885D02*
X143868422Y-117091742D01*
X143868422Y-117091742D02*
X143868422Y-117520314D01*
X143868422Y-117520314D02*
X143939851Y-117663171D01*
X143939851Y-117663171D02*
X144011279Y-117734600D01*
X144011279Y-117734600D02*
X144154136Y-117806028D01*
X144154136Y-117806028D02*
X144368422Y-117806028D01*
X143225565Y-116806028D02*
X143225565Y-117806028D01*
X143225565Y-116948885D02*
X143154136Y-116877457D01*
X143154136Y-116877457D02*
X143011279Y-116806028D01*
X143011279Y-116806028D02*
X142796993Y-116806028D01*
X142796993Y-116806028D02*
X142654136Y-116877457D01*
X142654136Y-116877457D02*
X142582708Y-117020314D01*
X142582708Y-117020314D02*
X142582708Y-117806028D01*
X141868422Y-117663171D02*
X141796993Y-117734600D01*
X141796993Y-117734600D02*
X141868422Y-117806028D01*
X141868422Y-117806028D02*
X141939850Y-117734600D01*
X141939850Y-117734600D02*
X141868422Y-117663171D01*
X141868422Y-117663171D02*
X141868422Y-117806028D01*
X141868422Y-116877457D02*
X141796993Y-116948885D01*
X141796993Y-116948885D02*
X141868422Y-117020314D01*
X141868422Y-117020314D02*
X141939850Y-116948885D01*
X141939850Y-116948885D02*
X141868422Y-116877457D01*
X141868422Y-116877457D02*
X141868422Y-117020314D01*
X140868421Y-116306028D02*
X140725564Y-116306028D01*
X140725564Y-116306028D02*
X140582707Y-116377457D01*
X140582707Y-116377457D02*
X140511279Y-116448885D01*
X140511279Y-116448885D02*
X140439850Y-116591742D01*
X140439850Y-116591742D02*
X140368421Y-116877457D01*
X140368421Y-116877457D02*
X140368421Y-117234600D01*
X140368421Y-117234600D02*
X140439850Y-117520314D01*
X140439850Y-117520314D02*
X140511279Y-117663171D01*
X140511279Y-117663171D02*
X140582707Y-117734600D01*
X140582707Y-117734600D02*
X140725564Y-117806028D01*
X140725564Y-117806028D02*
X140868421Y-117806028D01*
X140868421Y-117806028D02*
X141011279Y-117734600D01*
X141011279Y-117734600D02*
X141082707Y-117663171D01*
X141082707Y-117663171D02*
X141154136Y-117520314D01*
X141154136Y-117520314D02*
X141225564Y-117234600D01*
X141225564Y-117234600D02*
X141225564Y-116877457D01*
X141225564Y-116877457D02*
X141154136Y-116591742D01*
X141154136Y-116591742D02*
X141082707Y-116448885D01*
X141082707Y-116448885D02*
X141011279Y-116377457D01*
X141011279Y-116377457D02*
X140868421Y-116306028D01*
X139439850Y-116306028D02*
X139296993Y-116306028D01*
X139296993Y-116306028D02*
X139154136Y-116377457D01*
X139154136Y-116377457D02*
X139082708Y-116448885D01*
X139082708Y-116448885D02*
X139011279Y-116591742D01*
X139011279Y-116591742D02*
X138939850Y-116877457D01*
X138939850Y-116877457D02*
X138939850Y-117234600D01*
X138939850Y-117234600D02*
X139011279Y-117520314D01*
X139011279Y-117520314D02*
X139082708Y-117663171D01*
X139082708Y-117663171D02*
X139154136Y-117734600D01*
X139154136Y-117734600D02*
X139296993Y-117806028D01*
X139296993Y-117806028D02*
X139439850Y-117806028D01*
X139439850Y-117806028D02*
X139582708Y-117734600D01*
X139582708Y-117734600D02*
X139654136Y-117663171D01*
X139654136Y-117663171D02*
X139725565Y-117520314D01*
X139725565Y-117520314D02*
X139796993Y-117234600D01*
X139796993Y-117234600D02*
X139796993Y-116877457D01*
X139796993Y-116877457D02*
X139725565Y-116591742D01*
X139725565Y-116591742D02*
X139654136Y-116448885D01*
X139654136Y-116448885D02*
X139582708Y-116377457D01*
X139582708Y-116377457D02*
X139439850Y-116306028D01*
D10*
X126172306Y-62822699D02*
X126743734Y-62822699D01*
X126458020Y-62822699D02*
X126458020Y-61822699D01*
X126458020Y-61822699D02*
X126553258Y-61965556D01*
X126553258Y-61965556D02*
X126648496Y-62060794D01*
X126648496Y-62060794D02*
X126743734Y-62108413D01*
X125219925Y-62822699D02*
X125791353Y-62822699D01*
X125505639Y-62822699D02*
X125505639Y-61822699D01*
X125505639Y-61822699D02*
X125600877Y-61965556D01*
X125600877Y-61965556D02*
X125696115Y-62060794D01*
X125696115Y-62060794D02*
X125791353Y-62108413D01*
X126648496Y-64432643D02*
X126458020Y-64432643D01*
X126458020Y-64432643D02*
X126362782Y-64385024D01*
X126362782Y-64385024D02*
X126315163Y-64337404D01*
X126315163Y-64337404D02*
X126219925Y-64194547D01*
X126219925Y-64194547D02*
X126172306Y-64004071D01*
X126172306Y-64004071D02*
X126172306Y-63623119D01*
X126172306Y-63623119D02*
X126219925Y-63527881D01*
X126219925Y-63527881D02*
X126267544Y-63480262D01*
X126267544Y-63480262D02*
X126362782Y-63432643D01*
X126362782Y-63432643D02*
X126553258Y-63432643D01*
X126553258Y-63432643D02*
X126648496Y-63480262D01*
X126648496Y-63480262D02*
X126696115Y-63527881D01*
X126696115Y-63527881D02*
X126743734Y-63623119D01*
X126743734Y-63623119D02*
X126743734Y-63861214D01*
X126743734Y-63861214D02*
X126696115Y-63956452D01*
X126696115Y-63956452D02*
X126648496Y-64004071D01*
X126648496Y-64004071D02*
X126553258Y-64051690D01*
X126553258Y-64051690D02*
X126362782Y-64051690D01*
X126362782Y-64051690D02*
X126267544Y-64004071D01*
X126267544Y-64004071D02*
X126219925Y-63956452D01*
X126219925Y-63956452D02*
X126172306Y-63861214D01*
X126791353Y-65042587D02*
X126124687Y-65042587D01*
X126124687Y-65042587D02*
X126553258Y-66042587D01*
X126219925Y-66652531D02*
X126696115Y-66652531D01*
X126696115Y-66652531D02*
X126743734Y-67128721D01*
X126743734Y-67128721D02*
X126696115Y-67081102D01*
X126696115Y-67081102D02*
X126600877Y-67033483D01*
X126600877Y-67033483D02*
X126362782Y-67033483D01*
X126362782Y-67033483D02*
X126267544Y-67081102D01*
X126267544Y-67081102D02*
X126219925Y-67128721D01*
X126219925Y-67128721D02*
X126172306Y-67223959D01*
X126172306Y-67223959D02*
X126172306Y-67462054D01*
X126172306Y-67462054D02*
X126219925Y-67557292D01*
X126219925Y-67557292D02*
X126267544Y-67604912D01*
X126267544Y-67604912D02*
X126362782Y-67652531D01*
X126362782Y-67652531D02*
X126600877Y-67652531D01*
X126600877Y-67652531D02*
X126696115Y-67604912D01*
X126696115Y-67604912D02*
X126743734Y-67557292D01*
X126791353Y-68262475D02*
X126172306Y-68262475D01*
X126172306Y-68262475D02*
X126505639Y-68643427D01*
X126505639Y-68643427D02*
X126362782Y-68643427D01*
X126362782Y-68643427D02*
X126267544Y-68691046D01*
X126267544Y-68691046D02*
X126219925Y-68738665D01*
X126219925Y-68738665D02*
X126172306Y-68833903D01*
X126172306Y-68833903D02*
X126172306Y-69071998D01*
X126172306Y-69071998D02*
X126219925Y-69167236D01*
X126219925Y-69167236D02*
X126267544Y-69214856D01*
X126267544Y-69214856D02*
X126362782Y-69262475D01*
X126362782Y-69262475D02*
X126648496Y-69262475D01*
X126648496Y-69262475D02*
X126743734Y-69214856D01*
X126743734Y-69214856D02*
X126791353Y-69167236D01*
X126172306Y-70872419D02*
X126743734Y-70872419D01*
X126458020Y-70872419D02*
X126458020Y-69872419D01*
X126458020Y-69872419D02*
X126553258Y-70015276D01*
X126553258Y-70015276D02*
X126648496Y-70110514D01*
X126648496Y-70110514D02*
X126743734Y-70158133D01*
D13*
X132322054Y-58817499D02*
X132893482Y-58817499D01*
X132607768Y-58817499D02*
X132607768Y-57817499D01*
X132607768Y-57817499D02*
X132703006Y-57960356D01*
X132703006Y-57960356D02*
X132798244Y-58055594D01*
X132798244Y-58055594D02*
X132893482Y-58103213D01*
X132893482Y-59522681D02*
X132845863Y-59475062D01*
X132845863Y-59475062D02*
X132750625Y-59427443D01*
X132750625Y-59427443D02*
X132512530Y-59427443D01*
X132512530Y-59427443D02*
X132417292Y-59475062D01*
X132417292Y-59475062D02*
X132369673Y-59522681D01*
X132369673Y-59522681D02*
X132322054Y-59617919D01*
X132322054Y-59617919D02*
X132322054Y-59713157D01*
X132322054Y-59713157D02*
X132369673Y-59856014D01*
X132369673Y-59856014D02*
X132941101Y-60427443D01*
X132941101Y-60427443D02*
X132322054Y-60427443D01*
X132941101Y-61037387D02*
X132322054Y-61037387D01*
X132322054Y-61037387D02*
X132655387Y-61418339D01*
X132655387Y-61418339D02*
X132512530Y-61418339D01*
X132512530Y-61418339D02*
X132417292Y-61465958D01*
X132417292Y-61465958D02*
X132369673Y-61513577D01*
X132369673Y-61513577D02*
X132322054Y-61608815D01*
X132322054Y-61608815D02*
X132322054Y-61846910D01*
X132322054Y-61846910D02*
X132369673Y-61942148D01*
X132369673Y-61942148D02*
X132417292Y-61989768D01*
X132417292Y-61989768D02*
X132512530Y-62037387D01*
X132512530Y-62037387D02*
X132798244Y-62037387D01*
X132798244Y-62037387D02*
X132893482Y-61989768D01*
X132893482Y-61989768D02*
X132941101Y-61942148D01*
X132417292Y-62980664D02*
X132417292Y-63647331D01*
X132655387Y-62599712D02*
X132893482Y-63313997D01*
X132893482Y-63313997D02*
X132274435Y-63313997D01*
X132369673Y-64257275D02*
X132845863Y-64257275D01*
X132845863Y-64257275D02*
X132893482Y-64733465D01*
X132893482Y-64733465D02*
X132845863Y-64685846D01*
X132845863Y-64685846D02*
X132750625Y-64638227D01*
X132750625Y-64638227D02*
X132512530Y-64638227D01*
X132512530Y-64638227D02*
X132417292Y-64685846D01*
X132417292Y-64685846D02*
X132369673Y-64733465D01*
X132369673Y-64733465D02*
X132322054Y-64828703D01*
X132322054Y-64828703D02*
X132322054Y-65066798D01*
X132322054Y-65066798D02*
X132369673Y-65162036D01*
X132369673Y-65162036D02*
X132417292Y-65209656D01*
X132417292Y-65209656D02*
X132512530Y-65257275D01*
X132512530Y-65257275D02*
X132750625Y-65257275D01*
X132750625Y-65257275D02*
X132845863Y-65209656D01*
X132845863Y-65209656D02*
X132893482Y-65162036D01*
X132417292Y-65867219D02*
X132607768Y-65867219D01*
X132607768Y-65867219D02*
X132703006Y-65914838D01*
X132703006Y-65914838D02*
X132750625Y-65962457D01*
X132750625Y-65962457D02*
X132845863Y-66105314D01*
X132845863Y-66105314D02*
X132893482Y-66295790D01*
X132893482Y-66295790D02*
X132893482Y-66676742D01*
X132893482Y-66676742D02*
X132845863Y-66771980D01*
X132845863Y-66771980D02*
X132798244Y-66819600D01*
X132798244Y-66819600D02*
X132703006Y-66867219D01*
X132703006Y-66867219D02*
X132512530Y-66867219D01*
X132512530Y-66867219D02*
X132417292Y-66819600D01*
X132417292Y-66819600D02*
X132369673Y-66771980D01*
X132369673Y-66771980D02*
X132322054Y-66676742D01*
X132322054Y-66676742D02*
X132322054Y-66438647D01*
X132322054Y-66438647D02*
X132369673Y-66343409D01*
X132369673Y-66343409D02*
X132417292Y-66295790D01*
X132417292Y-66295790D02*
X132512530Y-66248171D01*
X132512530Y-66248171D02*
X132703006Y-66248171D01*
X132703006Y-66248171D02*
X132798244Y-66295790D01*
X132798244Y-66295790D02*
X132845863Y-66343409D01*
X132845863Y-66343409D02*
X132893482Y-66438647D01*
X160654136Y-110561280D02*
X161154136Y-109846994D01*
X161511279Y-110561280D02*
X161511279Y-109061280D01*
X161511279Y-109061280D02*
X160939850Y-109061280D01*
X160939850Y-109061280D02*
X160796993Y-109132709D01*
X160796993Y-109132709D02*
X160725564Y-109204137D01*
X160725564Y-109204137D02*
X160654136Y-109346994D01*
X160654136Y-109346994D02*
X160654136Y-109561280D01*
X160654136Y-109561280D02*
X160725564Y-109704137D01*
X160725564Y-109704137D02*
X160796993Y-109775566D01*
X160796993Y-109775566D02*
X160939850Y-109846994D01*
X160939850Y-109846994D02*
X161511279Y-109846994D01*
X159368422Y-110561280D02*
X159368422Y-109775566D01*
X159368422Y-109775566D02*
X159439850Y-109632709D01*
X159439850Y-109632709D02*
X159582707Y-109561280D01*
X159582707Y-109561280D02*
X159868422Y-109561280D01*
X159868422Y-109561280D02*
X160011279Y-109632709D01*
X159368422Y-110489852D02*
X159511279Y-110561280D01*
X159511279Y-110561280D02*
X159868422Y-110561280D01*
X159868422Y-110561280D02*
X160011279Y-110489852D01*
X160011279Y-110489852D02*
X160082707Y-110346994D01*
X160082707Y-110346994D02*
X160082707Y-110204137D01*
X160082707Y-110204137D02*
X160011279Y-110061280D01*
X160011279Y-110061280D02*
X159868422Y-109989852D01*
X159868422Y-109989852D02*
X159511279Y-109989852D01*
X159511279Y-109989852D02*
X159368422Y-109918423D01*
X158011279Y-110561280D02*
X158011279Y-109061280D01*
X158011279Y-110489852D02*
X158154136Y-110561280D01*
X158154136Y-110561280D02*
X158439850Y-110561280D01*
X158439850Y-110561280D02*
X158582707Y-110489852D01*
X158582707Y-110489852D02*
X158654136Y-110418423D01*
X158654136Y-110418423D02*
X158725564Y-110275566D01*
X158725564Y-110275566D02*
X158725564Y-109846994D01*
X158725564Y-109846994D02*
X158654136Y-109704137D01*
X158654136Y-109704137D02*
X158582707Y-109632709D01*
X158582707Y-109632709D02*
X158439850Y-109561280D01*
X158439850Y-109561280D02*
X158154136Y-109561280D01*
X158154136Y-109561280D02*
X158011279Y-109632709D01*
X157296993Y-110561280D02*
X157296993Y-109561280D01*
X157296993Y-109061280D02*
X157368421Y-109132709D01*
X157368421Y-109132709D02*
X157296993Y-109204137D01*
X157296993Y-109204137D02*
X157225564Y-109132709D01*
X157225564Y-109132709D02*
X157296993Y-109061280D01*
X157296993Y-109061280D02*
X157296993Y-109204137D01*
X156368421Y-110561280D02*
X156511278Y-110489852D01*
X156511278Y-110489852D02*
X156582707Y-110418423D01*
X156582707Y-110418423D02*
X156654135Y-110275566D01*
X156654135Y-110275566D02*
X156654135Y-109846994D01*
X156654135Y-109846994D02*
X156582707Y-109704137D01*
X156582707Y-109704137D02*
X156511278Y-109632709D01*
X156511278Y-109632709D02*
X156368421Y-109561280D01*
X156368421Y-109561280D02*
X156154135Y-109561280D01*
X156154135Y-109561280D02*
X156011278Y-109632709D01*
X156011278Y-109632709D02*
X155939850Y-109704137D01*
X155939850Y-109704137D02*
X155868421Y-109846994D01*
X155868421Y-109846994D02*
X155868421Y-110275566D01*
X155868421Y-110275566D02*
X155939850Y-110418423D01*
X155939850Y-110418423D02*
X156011278Y-110489852D01*
X156011278Y-110489852D02*
X156154135Y-110561280D01*
X156154135Y-110561280D02*
X156368421Y-110561280D01*
X161511279Y-112190482D02*
X161011279Y-112190482D01*
X160796993Y-112976196D02*
X161511279Y-112976196D01*
X161511279Y-112976196D02*
X161511279Y-111476196D01*
X161511279Y-111476196D02*
X160796993Y-111476196D01*
X160296993Y-112976196D02*
X159511279Y-111976196D01*
X160296993Y-111976196D02*
X159511279Y-112976196D01*
X158939850Y-111976196D02*
X158939850Y-113476196D01*
X158939850Y-112047625D02*
X158796993Y-111976196D01*
X158796993Y-111976196D02*
X158511278Y-111976196D01*
X158511278Y-111976196D02*
X158368421Y-112047625D01*
X158368421Y-112047625D02*
X158296993Y-112119053D01*
X158296993Y-112119053D02*
X158225564Y-112261910D01*
X158225564Y-112261910D02*
X158225564Y-112690482D01*
X158225564Y-112690482D02*
X158296993Y-112833339D01*
X158296993Y-112833339D02*
X158368421Y-112904768D01*
X158368421Y-112904768D02*
X158511278Y-112976196D01*
X158511278Y-112976196D02*
X158796993Y-112976196D01*
X158796993Y-112976196D02*
X158939850Y-112904768D01*
X157368421Y-112976196D02*
X157511278Y-112904768D01*
X157511278Y-112904768D02*
X157582707Y-112761910D01*
X157582707Y-112761910D02*
X157582707Y-111476196D01*
X156582707Y-112976196D02*
X156725564Y-112904768D01*
X156725564Y-112904768D02*
X156796993Y-112833339D01*
X156796993Y-112833339D02*
X156868421Y-112690482D01*
X156868421Y-112690482D02*
X156868421Y-112261910D01*
X156868421Y-112261910D02*
X156796993Y-112119053D01*
X156796993Y-112119053D02*
X156725564Y-112047625D01*
X156725564Y-112047625D02*
X156582707Y-111976196D01*
X156582707Y-111976196D02*
X156368421Y-111976196D01*
X156368421Y-111976196D02*
X156225564Y-112047625D01*
X156225564Y-112047625D02*
X156154136Y-112119053D01*
X156154136Y-112119053D02*
X156082707Y-112261910D01*
X156082707Y-112261910D02*
X156082707Y-112690482D01*
X156082707Y-112690482D02*
X156154136Y-112833339D01*
X156154136Y-112833339D02*
X156225564Y-112904768D01*
X156225564Y-112904768D02*
X156368421Y-112976196D01*
X156368421Y-112976196D02*
X156582707Y-112976196D01*
X155439850Y-112976196D02*
X155439850Y-111976196D01*
X155439850Y-111476196D02*
X155511278Y-111547625D01*
X155511278Y-111547625D02*
X155439850Y-111619053D01*
X155439850Y-111619053D02*
X155368421Y-111547625D01*
X155368421Y-111547625D02*
X155439850Y-111476196D01*
X155439850Y-111476196D02*
X155439850Y-111619053D01*
X154939849Y-111976196D02*
X154368421Y-111976196D01*
X154725564Y-111476196D02*
X154725564Y-112761910D01*
X154725564Y-112761910D02*
X154654135Y-112904768D01*
X154654135Y-112904768D02*
X154511278Y-112976196D01*
X154511278Y-112976196D02*
X154368421Y-112976196D01*
X161511279Y-115391112D02*
X161511279Y-113891112D01*
X161511279Y-113891112D02*
X161011279Y-114962541D01*
X161011279Y-114962541D02*
X160511279Y-113891112D01*
X160511279Y-113891112D02*
X160511279Y-115391112D01*
X159582707Y-115391112D02*
X159725564Y-115319684D01*
X159725564Y-115319684D02*
X159796993Y-115248255D01*
X159796993Y-115248255D02*
X159868421Y-115105398D01*
X159868421Y-115105398D02*
X159868421Y-114676826D01*
X159868421Y-114676826D02*
X159796993Y-114533969D01*
X159796993Y-114533969D02*
X159725564Y-114462541D01*
X159725564Y-114462541D02*
X159582707Y-114391112D01*
X159582707Y-114391112D02*
X159368421Y-114391112D01*
X159368421Y-114391112D02*
X159225564Y-114462541D01*
X159225564Y-114462541D02*
X159154136Y-114533969D01*
X159154136Y-114533969D02*
X159082707Y-114676826D01*
X159082707Y-114676826D02*
X159082707Y-115105398D01*
X159082707Y-115105398D02*
X159154136Y-115248255D01*
X159154136Y-115248255D02*
X159225564Y-115319684D01*
X159225564Y-115319684D02*
X159368421Y-115391112D01*
X159368421Y-115391112D02*
X159582707Y-115391112D01*
X157796993Y-115391112D02*
X157796993Y-113891112D01*
X157796993Y-115319684D02*
X157939850Y-115391112D01*
X157939850Y-115391112D02*
X158225564Y-115391112D01*
X158225564Y-115391112D02*
X158368421Y-115319684D01*
X158368421Y-115319684D02*
X158439850Y-115248255D01*
X158439850Y-115248255D02*
X158511278Y-115105398D01*
X158511278Y-115105398D02*
X158511278Y-114676826D01*
X158511278Y-114676826D02*
X158439850Y-114533969D01*
X158439850Y-114533969D02*
X158368421Y-114462541D01*
X158368421Y-114462541D02*
X158225564Y-114391112D01*
X158225564Y-114391112D02*
X157939850Y-114391112D01*
X157939850Y-114391112D02*
X157796993Y-114462541D01*
X156439850Y-114391112D02*
X156439850Y-115391112D01*
X157082707Y-114391112D02*
X157082707Y-115176826D01*
X157082707Y-115176826D02*
X157011278Y-115319684D01*
X157011278Y-115319684D02*
X156868421Y-115391112D01*
X156868421Y-115391112D02*
X156654135Y-115391112D01*
X156654135Y-115391112D02*
X156511278Y-115319684D01*
X156511278Y-115319684D02*
X156439850Y-115248255D01*
X155511278Y-115391112D02*
X155654135Y-115319684D01*
X155654135Y-115319684D02*
X155725564Y-115176826D01*
X155725564Y-115176826D02*
X155725564Y-113891112D01*
X154368421Y-115319684D02*
X154511278Y-115391112D01*
X154511278Y-115391112D02*
X154796993Y-115391112D01*
X154796993Y-115391112D02*
X154939850Y-115319684D01*
X154939850Y-115319684D02*
X155011278Y-115176826D01*
X155011278Y-115176826D02*
X155011278Y-114605398D01*
X155011278Y-114605398D02*
X154939850Y-114462541D01*
X154939850Y-114462541D02*
X154796993Y-114391112D01*
X154796993Y-114391112D02*
X154511278Y-114391112D01*
X154511278Y-114391112D02*
X154368421Y-114462541D01*
X154368421Y-114462541D02*
X154296993Y-114605398D01*
X154296993Y-114605398D02*
X154296993Y-114748255D01*
X154296993Y-114748255D02*
X155011278Y-114891112D01*
X161511279Y-117806028D02*
X161511279Y-116306028D01*
X160796993Y-116806028D02*
X160796993Y-117806028D01*
X160796993Y-116948885D02*
X160725564Y-116877457D01*
X160725564Y-116877457D02*
X160582707Y-116806028D01*
X160582707Y-116806028D02*
X160368421Y-116806028D01*
X160368421Y-116806028D02*
X160225564Y-116877457D01*
X160225564Y-116877457D02*
X160154136Y-117020314D01*
X160154136Y-117020314D02*
X160154136Y-117806028D01*
X159439850Y-116806028D02*
X159439850Y-118091742D01*
X159439850Y-118091742D02*
X159511278Y-118234600D01*
X159511278Y-118234600D02*
X159654135Y-118306028D01*
X159654135Y-118306028D02*
X159725564Y-118306028D01*
X159439850Y-116306028D02*
X159511278Y-116377457D01*
X159511278Y-116377457D02*
X159439850Y-116448885D01*
X159439850Y-116448885D02*
X159368421Y-116377457D01*
X159368421Y-116377457D02*
X159439850Y-116306028D01*
X159439850Y-116306028D02*
X159439850Y-116448885D01*
X158154135Y-117734600D02*
X158296992Y-117806028D01*
X158296992Y-117806028D02*
X158582707Y-117806028D01*
X158582707Y-117806028D02*
X158725564Y-117734600D01*
X158725564Y-117734600D02*
X158796992Y-117591742D01*
X158796992Y-117591742D02*
X158796992Y-117020314D01*
X158796992Y-117020314D02*
X158725564Y-116877457D01*
X158725564Y-116877457D02*
X158582707Y-116806028D01*
X158582707Y-116806028D02*
X158296992Y-116806028D01*
X158296992Y-116806028D02*
X158154135Y-116877457D01*
X158154135Y-116877457D02*
X158082707Y-117020314D01*
X158082707Y-117020314D02*
X158082707Y-117163171D01*
X158082707Y-117163171D02*
X158796992Y-117306028D01*
X156796993Y-117734600D02*
X156939850Y-117806028D01*
X156939850Y-117806028D02*
X157225564Y-117806028D01*
X157225564Y-117806028D02*
X157368421Y-117734600D01*
X157368421Y-117734600D02*
X157439850Y-117663171D01*
X157439850Y-117663171D02*
X157511278Y-117520314D01*
X157511278Y-117520314D02*
X157511278Y-117091742D01*
X157511278Y-117091742D02*
X157439850Y-116948885D01*
X157439850Y-116948885D02*
X157368421Y-116877457D01*
X157368421Y-116877457D02*
X157225564Y-116806028D01*
X157225564Y-116806028D02*
X156939850Y-116806028D01*
X156939850Y-116806028D02*
X156796993Y-116877457D01*
X156368421Y-116806028D02*
X155796993Y-116806028D01*
X156154136Y-116306028D02*
X156154136Y-117591742D01*
X156154136Y-117591742D02*
X156082707Y-117734600D01*
X156082707Y-117734600D02*
X155939850Y-117806028D01*
X155939850Y-117806028D02*
X155796993Y-117806028D01*
X155082707Y-117806028D02*
X155225564Y-117734600D01*
X155225564Y-117734600D02*
X155296993Y-117663171D01*
X155296993Y-117663171D02*
X155368421Y-117520314D01*
X155368421Y-117520314D02*
X155368421Y-117091742D01*
X155368421Y-117091742D02*
X155296993Y-116948885D01*
X155296993Y-116948885D02*
X155225564Y-116877457D01*
X155225564Y-116877457D02*
X155082707Y-116806028D01*
X155082707Y-116806028D02*
X154868421Y-116806028D01*
X154868421Y-116806028D02*
X154725564Y-116877457D01*
X154725564Y-116877457D02*
X154654136Y-116948885D01*
X154654136Y-116948885D02*
X154582707Y-117091742D01*
X154582707Y-117091742D02*
X154582707Y-117520314D01*
X154582707Y-117520314D02*
X154654136Y-117663171D01*
X154654136Y-117663171D02*
X154725564Y-117734600D01*
X154725564Y-117734600D02*
X154868421Y-117806028D01*
X154868421Y-117806028D02*
X155082707Y-117806028D01*
X153939850Y-117806028D02*
X153939850Y-116806028D01*
X153939850Y-117091742D02*
X153868421Y-116948885D01*
X153868421Y-116948885D02*
X153796993Y-116877457D01*
X153796993Y-116877457D02*
X153654135Y-116806028D01*
X153654135Y-116806028D02*
X153511278Y-116806028D01*
D14*
X187678571Y-107973596D02*
X186678571Y-107973596D01*
X186678571Y-107973596D02*
X187678571Y-109473596D01*
X187678571Y-109473596D02*
X186678571Y-109473596D01*
X185392857Y-109473596D02*
X186107143Y-109473596D01*
X186107143Y-109473596D02*
X186107143Y-107973596D01*
X184107142Y-109473596D02*
X184964285Y-109473596D01*
X184535714Y-109473596D02*
X184535714Y-107973596D01*
X184535714Y-107973596D02*
X184678571Y-108187882D01*
X184678571Y-108187882D02*
X184821428Y-108330739D01*
X184821428Y-108330739D02*
X184964285Y-108402168D01*
X182607143Y-109473596D02*
X183107143Y-108759310D01*
X183464286Y-109473596D02*
X183464286Y-107973596D01*
X183464286Y-107973596D02*
X182892857Y-107973596D01*
X182892857Y-107973596D02*
X182750000Y-108045025D01*
X182750000Y-108045025D02*
X182678571Y-108116453D01*
X182678571Y-108116453D02*
X182607143Y-108259310D01*
X182607143Y-108259310D02*
X182607143Y-108473596D01*
X182607143Y-108473596D02*
X182678571Y-108616453D01*
X182678571Y-108616453D02*
X182750000Y-108687882D01*
X182750000Y-108687882D02*
X182892857Y-108759310D01*
X182892857Y-108759310D02*
X183464286Y-108759310D01*
X181964286Y-109473596D02*
X181964286Y-107973596D01*
X181250000Y-109473596D02*
X181250000Y-107973596D01*
X181250000Y-107973596D02*
X180678571Y-107973596D01*
X180678571Y-107973596D02*
X180535714Y-108045025D01*
X180535714Y-108045025D02*
X180464285Y-108116453D01*
X180464285Y-108116453D02*
X180392857Y-108259310D01*
X180392857Y-108259310D02*
X180392857Y-108473596D01*
X180392857Y-108473596D02*
X180464285Y-108616453D01*
X180464285Y-108616453D02*
X180535714Y-108687882D01*
X180535714Y-108687882D02*
X180678571Y-108759310D01*
X180678571Y-108759310D02*
X181250000Y-108759310D01*
X187178571Y-111888512D02*
X187178571Y-110888512D01*
X187178571Y-111031369D02*
X187107142Y-110959941D01*
X187107142Y-110959941D02*
X186964285Y-110888512D01*
X186964285Y-110888512D02*
X186749999Y-110888512D01*
X186749999Y-110888512D02*
X186607142Y-110959941D01*
X186607142Y-110959941D02*
X186535714Y-111102798D01*
X186535714Y-111102798D02*
X186535714Y-111888512D01*
X186535714Y-111102798D02*
X186464285Y-110959941D01*
X186464285Y-110959941D02*
X186321428Y-110888512D01*
X186321428Y-110888512D02*
X186107142Y-110888512D01*
X186107142Y-110888512D02*
X185964285Y-110959941D01*
X185964285Y-110959941D02*
X185892856Y-111102798D01*
X185892856Y-111102798D02*
X185892856Y-111888512D01*
X185178571Y-111888512D02*
X185178571Y-110888512D01*
X185178571Y-111174226D02*
X185107142Y-111031369D01*
X185107142Y-111031369D02*
X185035714Y-110959941D01*
X185035714Y-110959941D02*
X184892856Y-110888512D01*
X184892856Y-110888512D02*
X184749999Y-110888512D01*
X184464285Y-110888512D02*
X183892857Y-110888512D01*
X184250000Y-111888512D02*
X184250000Y-110602798D01*
X184250000Y-110602798D02*
X184178571Y-110459941D01*
X184178571Y-110459941D02*
X184035714Y-110388512D01*
X184035714Y-110388512D02*
X183892857Y-110388512D01*
X183178571Y-111888512D02*
X183321428Y-111817084D01*
X183321428Y-111817084D02*
X183392857Y-111745655D01*
X183392857Y-111745655D02*
X183464285Y-111602798D01*
X183464285Y-111602798D02*
X183464285Y-111174226D01*
X183464285Y-111174226D02*
X183392857Y-111031369D01*
X183392857Y-111031369D02*
X183321428Y-110959941D01*
X183321428Y-110959941D02*
X183178571Y-110888512D01*
X183178571Y-110888512D02*
X182964285Y-110888512D01*
X182964285Y-110888512D02*
X182821428Y-110959941D01*
X182821428Y-110959941D02*
X182750000Y-111031369D01*
X182750000Y-111031369D02*
X182678571Y-111174226D01*
X182678571Y-111174226D02*
X182678571Y-111602798D01*
X182678571Y-111602798D02*
X182750000Y-111745655D01*
X182750000Y-111745655D02*
X182821428Y-111817084D01*
X182821428Y-111817084D02*
X182964285Y-111888512D01*
X182964285Y-111888512D02*
X183178571Y-111888512D01*
X182178571Y-111888512D02*
X181392857Y-110888512D01*
X182178571Y-110888512D02*
X181392857Y-111888512D01*
X180821428Y-111888512D02*
X180821428Y-110888512D01*
X180821428Y-110388512D02*
X180892856Y-110459941D01*
X180892856Y-110459941D02*
X180821428Y-110531369D01*
X180821428Y-110531369D02*
X180749999Y-110459941D01*
X180749999Y-110459941D02*
X180821428Y-110388512D01*
X180821428Y-110388512D02*
X180821428Y-110531369D01*
X186142857Y-114303428D02*
X185357143Y-113303428D01*
X186142857Y-113303428D02*
X185357143Y-114303428D01*
X184928571Y-113303428D02*
X184142857Y-113303428D01*
X184142857Y-113303428D02*
X184928571Y-114303428D01*
X184928571Y-114303428D02*
X184142857Y-114303428D01*
X183571428Y-114303428D02*
X183571428Y-113303428D01*
X183571428Y-113589142D02*
X183499999Y-113446285D01*
X183499999Y-113446285D02*
X183428571Y-113374857D01*
X183428571Y-113374857D02*
X183285713Y-113303428D01*
X183285713Y-113303428D02*
X183142856Y-113303428D01*
X182000000Y-114303428D02*
X182000000Y-112803428D01*
X182000000Y-114232000D02*
X182142857Y-114303428D01*
X182142857Y-114303428D02*
X182428571Y-114303428D01*
X182428571Y-114303428D02*
X182571428Y-114232000D01*
X182571428Y-114232000D02*
X182642857Y-114160571D01*
X182642857Y-114160571D02*
X182714285Y-114017714D01*
X182714285Y-114017714D02*
X182714285Y-113589142D01*
X182714285Y-113589142D02*
X182642857Y-113446285D01*
X182642857Y-113446285D02*
X182571428Y-113374857D01*
X182571428Y-113374857D02*
X182428571Y-113303428D01*
X182428571Y-113303428D02*
X182142857Y-113303428D01*
X182142857Y-113303428D02*
X182000000Y-113374857D01*
D10*
X119172306Y-62822699D02*
X119743734Y-62822699D01*
X119458020Y-62822699D02*
X119458020Y-61822699D01*
X119458020Y-61822699D02*
X119553258Y-61965556D01*
X119553258Y-61965556D02*
X119648496Y-62060794D01*
X119648496Y-62060794D02*
X119743734Y-62108413D01*
X118791353Y-61917937D02*
X118743734Y-61870318D01*
X118743734Y-61870318D02*
X118648496Y-61822699D01*
X118648496Y-61822699D02*
X118410401Y-61822699D01*
X118410401Y-61822699D02*
X118315163Y-61870318D01*
X118315163Y-61870318D02*
X118267544Y-61917937D01*
X118267544Y-61917937D02*
X118219925Y-62013175D01*
X118219925Y-62013175D02*
X118219925Y-62108413D01*
X118219925Y-62108413D02*
X118267544Y-62251270D01*
X118267544Y-62251270D02*
X118838972Y-62822699D01*
X118838972Y-62822699D02*
X118219925Y-62822699D01*
X119172306Y-64432643D02*
X119743734Y-64432643D01*
X119458020Y-64432643D02*
X119458020Y-63432643D01*
X119458020Y-63432643D02*
X119553258Y-63575500D01*
X119553258Y-63575500D02*
X119648496Y-63670738D01*
X119648496Y-63670738D02*
X119743734Y-63718357D01*
X118553258Y-63432643D02*
X118458020Y-63432643D01*
X118458020Y-63432643D02*
X118362782Y-63480262D01*
X118362782Y-63480262D02*
X118315163Y-63527881D01*
X118315163Y-63527881D02*
X118267544Y-63623119D01*
X118267544Y-63623119D02*
X118219925Y-63813595D01*
X118219925Y-63813595D02*
X118219925Y-64051690D01*
X118219925Y-64051690D02*
X118267544Y-64242166D01*
X118267544Y-64242166D02*
X118315163Y-64337404D01*
X118315163Y-64337404D02*
X118362782Y-64385024D01*
X118362782Y-64385024D02*
X118458020Y-64432643D01*
X118458020Y-64432643D02*
X118553258Y-64432643D01*
X118553258Y-64432643D02*
X118648496Y-64385024D01*
X118648496Y-64385024D02*
X118696115Y-64337404D01*
X118696115Y-64337404D02*
X118743734Y-64242166D01*
X118743734Y-64242166D02*
X118791353Y-64051690D01*
X118791353Y-64051690D02*
X118791353Y-63813595D01*
X118791353Y-63813595D02*
X118743734Y-63623119D01*
X118743734Y-63623119D02*
X118696115Y-63527881D01*
X118696115Y-63527881D02*
X118648496Y-63480262D01*
X118648496Y-63480262D02*
X118553258Y-63432643D01*
X119553258Y-65471158D02*
X119648496Y-65423539D01*
X119648496Y-65423539D02*
X119696115Y-65375920D01*
X119696115Y-65375920D02*
X119743734Y-65280682D01*
X119743734Y-65280682D02*
X119743734Y-65233063D01*
X119743734Y-65233063D02*
X119696115Y-65137825D01*
X119696115Y-65137825D02*
X119648496Y-65090206D01*
X119648496Y-65090206D02*
X119553258Y-65042587D01*
X119553258Y-65042587D02*
X119362782Y-65042587D01*
X119362782Y-65042587D02*
X119267544Y-65090206D01*
X119267544Y-65090206D02*
X119219925Y-65137825D01*
X119219925Y-65137825D02*
X119172306Y-65233063D01*
X119172306Y-65233063D02*
X119172306Y-65280682D01*
X119172306Y-65280682D02*
X119219925Y-65375920D01*
X119219925Y-65375920D02*
X119267544Y-65423539D01*
X119267544Y-65423539D02*
X119362782Y-65471158D01*
X119362782Y-65471158D02*
X119553258Y-65471158D01*
X119553258Y-65471158D02*
X119648496Y-65518777D01*
X119648496Y-65518777D02*
X119696115Y-65566396D01*
X119696115Y-65566396D02*
X119743734Y-65661634D01*
X119743734Y-65661634D02*
X119743734Y-65852110D01*
X119743734Y-65852110D02*
X119696115Y-65947348D01*
X119696115Y-65947348D02*
X119648496Y-65994968D01*
X119648496Y-65994968D02*
X119553258Y-66042587D01*
X119553258Y-66042587D02*
X119362782Y-66042587D01*
X119362782Y-66042587D02*
X119267544Y-65994968D01*
X119267544Y-65994968D02*
X119219925Y-65947348D01*
X119219925Y-65947348D02*
X119172306Y-65852110D01*
X119172306Y-65852110D02*
X119172306Y-65661634D01*
X119172306Y-65661634D02*
X119219925Y-65566396D01*
X119219925Y-65566396D02*
X119267544Y-65518777D01*
X119267544Y-65518777D02*
X119362782Y-65471158D01*
X119267544Y-66652531D02*
X119458020Y-66652531D01*
X119458020Y-66652531D02*
X119553258Y-66700150D01*
X119553258Y-66700150D02*
X119600877Y-66747769D01*
X119600877Y-66747769D02*
X119696115Y-66890626D01*
X119696115Y-66890626D02*
X119743734Y-67081102D01*
X119743734Y-67081102D02*
X119743734Y-67462054D01*
X119743734Y-67462054D02*
X119696115Y-67557292D01*
X119696115Y-67557292D02*
X119648496Y-67604912D01*
X119648496Y-67604912D02*
X119553258Y-67652531D01*
X119553258Y-67652531D02*
X119362782Y-67652531D01*
X119362782Y-67652531D02*
X119267544Y-67604912D01*
X119267544Y-67604912D02*
X119219925Y-67557292D01*
X119219925Y-67557292D02*
X119172306Y-67462054D01*
X119172306Y-67462054D02*
X119172306Y-67223959D01*
X119172306Y-67223959D02*
X119219925Y-67128721D01*
X119219925Y-67128721D02*
X119267544Y-67081102D01*
X119267544Y-67081102D02*
X119362782Y-67033483D01*
X119362782Y-67033483D02*
X119553258Y-67033483D01*
X119553258Y-67033483D02*
X119648496Y-67081102D01*
X119648496Y-67081102D02*
X119696115Y-67128721D01*
X119696115Y-67128721D02*
X119743734Y-67223959D01*
X119267544Y-68595808D02*
X119267544Y-69262475D01*
X119505639Y-68214856D02*
X119743734Y-68929141D01*
X119743734Y-68929141D02*
X119124687Y-68929141D01*
X119743734Y-69967657D02*
X119696115Y-69920038D01*
X119696115Y-69920038D02*
X119600877Y-69872419D01*
X119600877Y-69872419D02*
X119362782Y-69872419D01*
X119362782Y-69872419D02*
X119267544Y-69920038D01*
X119267544Y-69920038D02*
X119219925Y-69967657D01*
X119219925Y-69967657D02*
X119172306Y-70062895D01*
X119172306Y-70062895D02*
X119172306Y-70158133D01*
X119172306Y-70158133D02*
X119219925Y-70300990D01*
X119219925Y-70300990D02*
X119791353Y-70872419D01*
X119791353Y-70872419D02*
X119172306Y-70872419D01*
D13*
X177511279Y-70520314D02*
X177011279Y-70520314D01*
X176796993Y-71306028D02*
X177511279Y-71306028D01*
X177511279Y-71306028D02*
X177511279Y-69806028D01*
X177511279Y-69806028D02*
X176796993Y-69806028D01*
X176225564Y-71234600D02*
X176011279Y-71306028D01*
X176011279Y-71306028D02*
X175654136Y-71306028D01*
X175654136Y-71306028D02*
X175511279Y-71234600D01*
X175511279Y-71234600D02*
X175439850Y-71163171D01*
X175439850Y-71163171D02*
X175368421Y-71020314D01*
X175368421Y-71020314D02*
X175368421Y-70877457D01*
X175368421Y-70877457D02*
X175439850Y-70734600D01*
X175439850Y-70734600D02*
X175511279Y-70663171D01*
X175511279Y-70663171D02*
X175654136Y-70591742D01*
X175654136Y-70591742D02*
X175939850Y-70520314D01*
X175939850Y-70520314D02*
X176082707Y-70448885D01*
X176082707Y-70448885D02*
X176154136Y-70377457D01*
X176154136Y-70377457D02*
X176225564Y-70234600D01*
X176225564Y-70234600D02*
X176225564Y-70091742D01*
X176225564Y-70091742D02*
X176154136Y-69948885D01*
X176154136Y-69948885D02*
X176082707Y-69877457D01*
X176082707Y-69877457D02*
X175939850Y-69806028D01*
X175939850Y-69806028D02*
X175582707Y-69806028D01*
X175582707Y-69806028D02*
X175368421Y-69877457D01*
X174725565Y-71306028D02*
X174725565Y-69806028D01*
X174725565Y-69806028D02*
X174154136Y-69806028D01*
X174154136Y-69806028D02*
X174011279Y-69877457D01*
X174011279Y-69877457D02*
X173939850Y-69948885D01*
X173939850Y-69948885D02*
X173868422Y-70091742D01*
X173868422Y-70091742D02*
X173868422Y-70306028D01*
X173868422Y-70306028D02*
X173939850Y-70448885D01*
X173939850Y-70448885D02*
X174011279Y-70520314D01*
X174011279Y-70520314D02*
X174154136Y-70591742D01*
X174154136Y-70591742D02*
X174725565Y-70591742D01*
X173368422Y-69806028D02*
X172439850Y-69806028D01*
X172439850Y-69806028D02*
X172939850Y-70377457D01*
X172939850Y-70377457D02*
X172725565Y-70377457D01*
X172725565Y-70377457D02*
X172582708Y-70448885D01*
X172582708Y-70448885D02*
X172511279Y-70520314D01*
X172511279Y-70520314D02*
X172439850Y-70663171D01*
X172439850Y-70663171D02*
X172439850Y-71020314D01*
X172439850Y-71020314D02*
X172511279Y-71163171D01*
X172511279Y-71163171D02*
X172582708Y-71234600D01*
X172582708Y-71234600D02*
X172725565Y-71306028D01*
X172725565Y-71306028D02*
X173154136Y-71306028D01*
X173154136Y-71306028D02*
X173296993Y-71234600D01*
X173296993Y-71234600D02*
X173368422Y-71163171D01*
X171868422Y-69948885D02*
X171796994Y-69877457D01*
X171796994Y-69877457D02*
X171654137Y-69806028D01*
X171654137Y-69806028D02*
X171296994Y-69806028D01*
X171296994Y-69806028D02*
X171154137Y-69877457D01*
X171154137Y-69877457D02*
X171082708Y-69948885D01*
X171082708Y-69948885D02*
X171011279Y-70091742D01*
X171011279Y-70091742D02*
X171011279Y-70234600D01*
X171011279Y-70234600D02*
X171082708Y-70448885D01*
X171082708Y-70448885D02*
X171939851Y-71306028D01*
X171939851Y-71306028D02*
X171011279Y-71306028D01*
D10*
X188743734Y-76307993D02*
X188696115Y-76260374D01*
X188696115Y-76260374D02*
X188600877Y-76212755D01*
X188600877Y-76212755D02*
X188362782Y-76212755D01*
X188362782Y-76212755D02*
X188267544Y-76260374D01*
X188267544Y-76260374D02*
X188219925Y-76307993D01*
X188219925Y-76307993D02*
X188172306Y-76403231D01*
X188172306Y-76403231D02*
X188172306Y-76498469D01*
X188172306Y-76498469D02*
X188219925Y-76641326D01*
X188219925Y-76641326D02*
X188791353Y-77212755D01*
X188791353Y-77212755D02*
X188172306Y-77212755D01*
X188267544Y-79765976D02*
X188267544Y-80432643D01*
X188505639Y-79385024D02*
X188743734Y-80099309D01*
X188743734Y-80099309D02*
X188124687Y-80099309D01*
X188267544Y-82652531D02*
X188458020Y-82652531D01*
X188458020Y-82652531D02*
X188553258Y-82700150D01*
X188553258Y-82700150D02*
X188600877Y-82747769D01*
X188600877Y-82747769D02*
X188696115Y-82890626D01*
X188696115Y-82890626D02*
X188743734Y-83081102D01*
X188743734Y-83081102D02*
X188743734Y-83462054D01*
X188743734Y-83462054D02*
X188696115Y-83557292D01*
X188696115Y-83557292D02*
X188648496Y-83604912D01*
X188648496Y-83604912D02*
X188553258Y-83652531D01*
X188553258Y-83652531D02*
X188362782Y-83652531D01*
X188362782Y-83652531D02*
X188267544Y-83604912D01*
X188267544Y-83604912D02*
X188219925Y-83557292D01*
X188219925Y-83557292D02*
X188172306Y-83462054D01*
X188172306Y-83462054D02*
X188172306Y-83223959D01*
X188172306Y-83223959D02*
X188219925Y-83128721D01*
X188219925Y-83128721D02*
X188267544Y-83081102D01*
X188267544Y-83081102D02*
X188362782Y-83033483D01*
X188362782Y-83033483D02*
X188553258Y-83033483D01*
X188553258Y-83033483D02*
X188648496Y-83081102D01*
X188648496Y-83081102D02*
X188696115Y-83128721D01*
X188696115Y-83128721D02*
X188743734Y-83223959D01*
X188553258Y-86300990D02*
X188648496Y-86253371D01*
X188648496Y-86253371D02*
X188696115Y-86205752D01*
X188696115Y-86205752D02*
X188743734Y-86110514D01*
X188743734Y-86110514D02*
X188743734Y-86062895D01*
X188743734Y-86062895D02*
X188696115Y-85967657D01*
X188696115Y-85967657D02*
X188648496Y-85920038D01*
X188648496Y-85920038D02*
X188553258Y-85872419D01*
X188553258Y-85872419D02*
X188362782Y-85872419D01*
X188362782Y-85872419D02*
X188267544Y-85920038D01*
X188267544Y-85920038D02*
X188219925Y-85967657D01*
X188219925Y-85967657D02*
X188172306Y-86062895D01*
X188172306Y-86062895D02*
X188172306Y-86110514D01*
X188172306Y-86110514D02*
X188219925Y-86205752D01*
X188219925Y-86205752D02*
X188267544Y-86253371D01*
X188267544Y-86253371D02*
X188362782Y-86300990D01*
X188362782Y-86300990D02*
X188553258Y-86300990D01*
X188553258Y-86300990D02*
X188648496Y-86348609D01*
X188648496Y-86348609D02*
X188696115Y-86396228D01*
X188696115Y-86396228D02*
X188743734Y-86491466D01*
X188743734Y-86491466D02*
X188743734Y-86681942D01*
X188743734Y-86681942D02*
X188696115Y-86777180D01*
X188696115Y-86777180D02*
X188648496Y-86824800D01*
X188648496Y-86824800D02*
X188553258Y-86872419D01*
X188553258Y-86872419D02*
X188362782Y-86872419D01*
X188362782Y-86872419D02*
X188267544Y-86824800D01*
X188267544Y-86824800D02*
X188219925Y-86777180D01*
X188219925Y-86777180D02*
X188172306Y-86681942D01*
X188172306Y-86681942D02*
X188172306Y-86491466D01*
X188172306Y-86491466D02*
X188219925Y-86396228D01*
X188219925Y-86396228D02*
X188267544Y-86348609D01*
X188267544Y-86348609D02*
X188362782Y-86300990D01*
M02*
