%TF.GenerationSoftware,KiCad,Pcbnew,9.0.3*%
%TF.CreationDate,2025-07-12T21:01:37+12:00*%
%TF.ProjectId,RemiRAT,52656d69-5241-4542-9e6b-696361645f70,rev?*%
%TF.SameCoordinates,Original*%
%TF.FileFunction,Soldermask,Bot*%
%TF.FilePolarity,Negative*%
%FSLAX46Y46*%
G04 Gerber Fmt 4.6, Leading zero omitted, Abs format (unit mm)*
G04 Created by KiCad (PCBNEW 9.0.3) date 2025-07-12 21:01:37*
%MOMM*%
%LPD*%
G01*
G04 APERTURE LIST*
G04 Aperture macros list*
%AMRoundRect*
0 Rectangle with rounded corners*
0 $1 Rounding radius*
0 $2 $3 $4 $5 $6 $7 $8 $9 X,Y pos of 4 corners*
0 Add a 4 corners polygon primitive as box body*
4,1,4,$2,$3,$4,$5,$6,$7,$8,$9,$2,$3,0*
0 Add four circle primitives for the rounded corners*
1,1,$1+$1,$2,$3*
1,1,$1+$1,$4,$5*
1,1,$1+$1,$6,$7*
1,1,$1+$1,$8,$9*
0 Add four rect primitives between the rounded corners*
20,1,$1+$1,$2,$3,$4,$5,0*
20,1,$1+$1,$4,$5,$6,$7,0*
20,1,$1+$1,$6,$7,$8,$9,0*
20,1,$1+$1,$8,$9,$2,$3,0*%
G04 Aperture macros list end*
%ADD10RoundRect,0.250000X-0.750000X-0.750000X0.750000X-0.750000X0.750000X0.750000X-0.750000X0.750000X0*%
%ADD11C,2.000000*%
%ADD12R,1.700000X1.700000*%
%ADD13C,1.700000*%
%ADD14RoundRect,0.250001X-0.799999X-0.799999X0.799999X-0.799999X0.799999X0.799999X-0.799999X0.799999X0*%
%ADD15C,2.100000*%
%ADD16C,0.650000*%
%ADD17O,1.000000X2.100000*%
%ADD18O,1.000000X1.800000*%
%ADD19RoundRect,0.102000X-0.724000X0.724000X-0.724000X-0.724000X0.724000X-0.724000X0.724000X0.724000X0*%
%ADD20C,1.652000*%
G04 APERTURE END LIST*
D10*
%TO.C,C11*%
X173632323Y-103500000D03*
D11*
X178632323Y-103500000D03*
%TD*%
D12*
%TO.C,J11*%
X136000000Y-117000000D03*
D13*
X136000000Y-114460000D03*
X136000000Y-111920000D03*
%TD*%
D12*
%TO.C,J3*%
X188000000Y-59460000D03*
D13*
X188000000Y-62000000D03*
X188000000Y-64540000D03*
X188000000Y-67080000D03*
X188000000Y-69620000D03*
X188000000Y-72160000D03*
%TD*%
D12*
%TO.C,J9*%
X182725000Y-77690000D03*
D13*
X185265000Y-77690000D03*
X182725000Y-80230000D03*
X185265000Y-80230000D03*
X182725000Y-82770000D03*
X185265000Y-82770000D03*
X182725000Y-85310000D03*
X185265000Y-85310000D03*
%TD*%
D14*
%TO.C,J10*%
X176960000Y-116367500D03*
D15*
X179500000Y-116367500D03*
%TD*%
D12*
%TO.C,J7*%
X140000000Y-56690000D03*
D13*
X140000000Y-59230000D03*
X140000000Y-61770000D03*
X140000000Y-64310000D03*
%TD*%
D16*
%TO.C,J1*%
X125410000Y-114712500D03*
X131190000Y-114712500D03*
D17*
X123980000Y-114212500D03*
D18*
X123980000Y-118392500D03*
D17*
X132620000Y-114212500D03*
D18*
X132620000Y-118392500D03*
%TD*%
D19*
%TO.C,VR2*%
X167000000Y-110500000D03*
D20*
X167000000Y-113040000D03*
X167000000Y-115580000D03*
%TD*%
D12*
%TO.C,J8*%
X124040000Y-72540000D03*
D13*
X121500000Y-72540000D03*
X124040000Y-70000000D03*
X121500000Y-70000000D03*
X124040000Y-67460000D03*
X121500000Y-67460000D03*
X124040000Y-64920000D03*
X121500000Y-64920000D03*
X124040000Y-62380000D03*
X121500000Y-62380000D03*
X124040000Y-59840000D03*
X121500000Y-59840000D03*
%TD*%
D12*
%TO.C,J6*%
X135000000Y-56420000D03*
D13*
X135000000Y-58960000D03*
X135000000Y-61500000D03*
X135000000Y-64040000D03*
X135000000Y-66580000D03*
X135000000Y-69120000D03*
%TD*%
M02*
