%TF.GenerationSoftware,KiCad,Pcbnew,9.0.3*%
%TF.CreationDate,2025-07-12T21:01:37+12:00*%
%TF.ProjectId,RemiRAT,52656d69-5241-4542-9e6b-696361645f70,rev?*%
%TF.SameCoordinates,Original*%
%TF.FileFunction,Paste,Top*%
%TF.FilePolarity,Positive*%
%FSLAX46Y46*%
G04 Gerber Fmt 4.6, Leading zero omitted, Abs format (unit mm)*
G04 Created by KiCad (PCBNEW 9.0.3) date 2025-07-12 21:01:37*
%MOMM*%
%LPD*%
G01*
G04 APERTURE LIST*
G04 Aperture macros list*
%AMRoundRect*
0 Rectangle with rounded corners*
0 $1 Rounding radius*
0 $2 $3 $4 $5 $6 $7 $8 $9 X,Y pos of 4 corners*
0 Add a 4 corners polygon primitive as box body*
4,1,4,$2,$3,$4,$5,$6,$7,$8,$9,$2,$3,0*
0 Add four circle primitives for the rounded corners*
1,1,$1+$1,$2,$3*
1,1,$1+$1,$4,$5*
1,1,$1+$1,$6,$7*
1,1,$1+$1,$8,$9*
0 Add four rect primitives between the rounded corners*
20,1,$1+$1,$2,$3,$4,$5,0*
20,1,$1+$1,$4,$5,$6,$7,0*
20,1,$1+$1,$6,$7,$8,$9,0*
20,1,$1+$1,$8,$9,$2,$3,0*%
G04 Aperture macros list end*
%ADD10RoundRect,0.237500X-0.287500X-0.237500X0.287500X-0.237500X0.287500X0.237500X-0.287500X0.237500X0*%
%ADD11RoundRect,0.135000X0.185000X-0.135000X0.185000X0.135000X-0.185000X0.135000X-0.185000X-0.135000X0*%
%ADD12RoundRect,0.079500X0.079500X0.100500X-0.079500X0.100500X-0.079500X-0.100500X0.079500X-0.100500X0*%
%ADD13R,1.000000X1.550000*%
%ADD14RoundRect,0.150000X-0.150000X0.512500X-0.150000X-0.512500X0.150000X-0.512500X0.150000X0.512500X0*%
%ADD15RoundRect,0.079500X-0.079500X-0.100500X0.079500X-0.100500X0.079500X0.100500X-0.079500X0.100500X0*%
%ADD16RoundRect,0.135000X0.135000X0.185000X-0.135000X0.185000X-0.135000X-0.185000X0.135000X-0.185000X0*%
%ADD17RoundRect,0.140000X0.170000X-0.140000X0.170000X0.140000X-0.170000X0.140000X-0.170000X-0.140000X0*%
%ADD18RoundRect,0.250000X-0.650000X0.325000X-0.650000X-0.325000X0.650000X-0.325000X0.650000X0.325000X0*%
%ADD19R,1.470000X0.280000*%
%ADD20R,0.280000X1.470000*%
%ADD21RoundRect,0.218750X-0.218750X-0.256250X0.218750X-0.256250X0.218750X0.256250X-0.218750X0.256250X0*%
%ADD22R,0.700000X1.200000*%
%ADD23R,1.000000X0.800000*%
%ADD24R,1.000000X1.200000*%
%ADD25R,1.000000X2.800000*%
%ADD26R,1.300000X1.900000*%
%ADD27RoundRect,0.375000X0.375000X-0.625000X0.375000X0.625000X-0.375000X0.625000X-0.375000X-0.625000X0*%
%ADD28RoundRect,0.500000X1.400000X-0.500000X1.400000X0.500000X-1.400000X0.500000X-1.400000X-0.500000X0*%
%ADD29RoundRect,0.237500X0.237500X-0.287500X0.237500X0.287500X-0.237500X0.287500X-0.237500X-0.287500X0*%
%ADD30RoundRect,0.140000X0.140000X0.170000X-0.140000X0.170000X-0.140000X-0.170000X0.140000X-0.170000X0*%
%ADD31RoundRect,0.250000X0.650000X-0.325000X0.650000X0.325000X-0.650000X0.325000X-0.650000X-0.325000X0*%
%ADD32RoundRect,0.218750X0.218750X0.256250X-0.218750X0.256250X-0.218750X-0.256250X0.218750X-0.256250X0*%
%ADD33R,1.200000X1.800000*%
%ADD34RoundRect,0.079500X0.100500X-0.079500X0.100500X0.079500X-0.100500X0.079500X-0.100500X-0.079500X0*%
%ADD35RoundRect,0.140000X-0.140000X-0.170000X0.140000X-0.170000X0.140000X0.170000X-0.140000X0.170000X0*%
%ADD36RoundRect,0.250000X0.250000X0.475000X-0.250000X0.475000X-0.250000X-0.475000X0.250000X-0.475000X0*%
%ADD37RoundRect,0.150000X-0.150000X-0.425000X0.150000X-0.425000X0.150000X0.425000X-0.150000X0.425000X0*%
%ADD38RoundRect,0.075000X-0.075000X-0.500000X0.075000X-0.500000X0.075000X0.500000X-0.075000X0.500000X0*%
%ADD39O,1.000000X2.100000*%
%ADD40O,1.000000X1.800000*%
%ADD41R,0.740000X2.400000*%
%ADD42RoundRect,0.250000X-0.250000X-0.475000X0.250000X-0.475000X0.250000X0.475000X-0.250000X0.475000X0*%
%ADD43R,2.440000X1.130000*%
%ADD44R,1.498600X0.889000*%
%ADD45R,0.889000X1.498600*%
%ADD46R,0.889000X0.889000*%
%ADD47RoundRect,0.079500X-0.100500X0.079500X-0.100500X-0.079500X0.100500X-0.079500X0.100500X0.079500X0*%
%ADD48RoundRect,0.250000X0.475000X-0.250000X0.475000X0.250000X-0.475000X0.250000X-0.475000X-0.250000X0*%
%ADD49RoundRect,0.160000X-0.222500X-0.160000X0.222500X-0.160000X0.222500X0.160000X-0.222500X0.160000X0*%
%ADD50R,2.400000X0.740000*%
%ADD51RoundRect,0.140000X-0.170000X0.140000X-0.170000X-0.140000X0.170000X-0.140000X0.170000X0.140000X0*%
%ADD52RoundRect,0.135000X-0.185000X0.135000X-0.185000X-0.135000X0.185000X-0.135000X0.185000X0.135000X0*%
%ADD53R,1.550000X1.000000*%
%ADD54RoundRect,0.135000X-0.135000X-0.185000X0.135000X-0.185000X0.135000X0.185000X-0.135000X0.185000X0*%
%ADD55R,1.000000X1.800000*%
%ADD56RoundRect,0.150000X0.150000X-0.512500X0.150000X0.512500X-0.150000X0.512500X-0.150000X-0.512500X0*%
G04 APERTURE END LIST*
D10*
%TO.C,F1*%
X123625000Y-111000000D03*
X125375000Y-111000000D03*
%TD*%
D11*
%TO.C,R11*%
X160050000Y-77010000D03*
X160050000Y-75990000D03*
%TD*%
D12*
%TO.C,C7*%
X137250000Y-104000000D03*
X136560000Y-104000000D03*
%TD*%
D13*
%TO.C,S3*%
X127400000Y-66625000D03*
X127400000Y-61375000D03*
X130600000Y-66625000D03*
X130600000Y-61375000D03*
%TD*%
D14*
%TO.C,Q2*%
X159950000Y-78362500D03*
X158050000Y-78362500D03*
X159000000Y-80637500D03*
%TD*%
D15*
%TO.C,R4*%
X130655000Y-105000000D03*
X131345000Y-105000000D03*
%TD*%
D16*
%TO.C,R5*%
X153010000Y-98000000D03*
X151990000Y-98000000D03*
%TD*%
D17*
%TO.C,C21*%
X150500000Y-80480000D03*
X150500000Y-79520000D03*
%TD*%
D18*
%TO.C,C8*%
X160500000Y-55525000D03*
X160500000Y-58475000D03*
%TD*%
D19*
%TO.C,U1*%
X127580000Y-78750000D03*
X127580000Y-79250000D03*
X127580000Y-79750000D03*
X127580000Y-80250000D03*
X127580000Y-80750000D03*
X127580000Y-81250000D03*
X127580000Y-81750000D03*
X127580000Y-82250000D03*
X127580000Y-82750000D03*
X127580000Y-83250000D03*
X127580000Y-83750000D03*
X127580000Y-84250000D03*
X127580000Y-84750000D03*
X127580000Y-85250000D03*
X127580000Y-85750000D03*
X127580000Y-86250000D03*
X127580000Y-86750000D03*
X127580000Y-87250000D03*
X127580000Y-87750000D03*
X127580000Y-88250000D03*
X127580000Y-88750000D03*
X127580000Y-89250000D03*
X127580000Y-89750000D03*
X127580000Y-90250000D03*
X127580000Y-90750000D03*
X127580000Y-91250000D03*
X127580000Y-91750000D03*
X127580000Y-92250000D03*
X127580000Y-92750000D03*
X127580000Y-93250000D03*
X127580000Y-93750000D03*
X127580000Y-94250000D03*
X127580000Y-94750000D03*
X127580000Y-95250000D03*
X127580000Y-95750000D03*
X127580000Y-96250000D03*
D20*
X129500000Y-98170000D03*
X130000000Y-98170000D03*
X130500000Y-98170000D03*
X131000000Y-98170000D03*
X131500000Y-98170000D03*
X132000000Y-98170000D03*
X132500000Y-98170000D03*
X133000000Y-98170000D03*
X133500000Y-98170000D03*
X134000000Y-98170000D03*
X134500000Y-98170000D03*
X135000000Y-98170000D03*
X135500000Y-98170000D03*
X136000000Y-98170000D03*
X136500000Y-98170000D03*
X137000000Y-98170000D03*
X137500000Y-98170000D03*
X138000000Y-98170000D03*
X138500000Y-98170000D03*
X139000000Y-98170000D03*
X139500000Y-98170000D03*
X140000000Y-98170000D03*
X140500000Y-98170000D03*
X141000000Y-98170000D03*
X141500000Y-98170000D03*
X142000000Y-98170000D03*
X142500000Y-98170000D03*
X143000000Y-98170000D03*
X143500000Y-98170000D03*
X144000000Y-98170000D03*
X144500000Y-98170000D03*
X145000000Y-98170000D03*
X145500000Y-98170000D03*
X146000000Y-98170000D03*
X146500000Y-98170000D03*
X147000000Y-98170000D03*
D19*
X148920000Y-96250000D03*
X148920000Y-95750000D03*
X148920000Y-95250000D03*
X148920000Y-94750000D03*
X148920000Y-94250000D03*
X148920000Y-93750000D03*
X148920000Y-93250000D03*
X148920000Y-92750000D03*
X148920000Y-92250000D03*
X148920000Y-91750000D03*
X148920000Y-91250000D03*
X148920000Y-90750000D03*
X148920000Y-90250000D03*
X148920000Y-89750000D03*
X148920000Y-89250000D03*
X148920000Y-88750000D03*
X148920000Y-88250000D03*
X148920000Y-87750000D03*
X148920000Y-87250000D03*
X148920000Y-86750000D03*
X148920000Y-86250000D03*
X148920000Y-85750000D03*
X148920000Y-85250000D03*
X148920000Y-84750000D03*
X148920000Y-84250000D03*
X148920000Y-83750000D03*
X148920000Y-83250000D03*
X148920000Y-82750000D03*
X148920000Y-82250000D03*
X148920000Y-81750000D03*
X148920000Y-81250000D03*
X148920000Y-80750000D03*
X148920000Y-80250000D03*
X148920000Y-79750000D03*
X148920000Y-79250000D03*
X148920000Y-78750000D03*
D20*
X147000000Y-76830000D03*
X146500000Y-76830000D03*
X146000000Y-76830000D03*
X145500000Y-76830000D03*
X145000000Y-76830000D03*
X144500000Y-76830000D03*
X144000000Y-76830000D03*
X143500000Y-76830000D03*
X143000000Y-76830000D03*
X142500000Y-76830000D03*
X142000000Y-76830000D03*
X141500000Y-76830000D03*
X141000000Y-76830000D03*
X140500000Y-76830000D03*
X140000000Y-76830000D03*
X139500000Y-76830000D03*
X139000000Y-76830000D03*
X138500000Y-76830000D03*
X138000000Y-76830000D03*
X137500000Y-76830000D03*
X137000000Y-76830000D03*
X136500000Y-76830000D03*
X136000000Y-76830000D03*
X135500000Y-76830000D03*
X135000000Y-76830000D03*
X134500000Y-76830000D03*
X134000000Y-76830000D03*
X133500000Y-76830000D03*
X133000000Y-76830000D03*
X132500000Y-76830000D03*
X132000000Y-76830000D03*
X131500000Y-76830000D03*
X131000000Y-76830000D03*
X130500000Y-76830000D03*
X130000000Y-76830000D03*
X129500000Y-76830000D03*
%TD*%
D12*
%TO.C,C5*%
X121815000Y-94970000D03*
X121125000Y-94970000D03*
%TD*%
D21*
%TO.C,LD1*%
X162762500Y-82500000D03*
X164337500Y-82500000D03*
%TD*%
D22*
%TO.C,J4*%
X147755000Y-68190000D03*
X148855000Y-68190000D03*
X149955000Y-68190000D03*
X151055000Y-68190000D03*
X152155000Y-68190000D03*
X153255000Y-68190000D03*
X154355000Y-68190000D03*
X155455000Y-68190000D03*
X156405000Y-68190000D03*
D23*
X157355000Y-57690000D03*
D24*
X157355000Y-63890000D03*
D25*
X157355000Y-53540000D03*
D24*
X146205000Y-68190000D03*
D26*
X143855000Y-53090000D03*
%TD*%
D27*
%TO.C,VR1*%
X140700000Y-114150000D03*
X143000000Y-114150000D03*
X145300000Y-114150000D03*
D28*
X143000000Y-107850000D03*
%TD*%
D17*
%TO.C,C10*%
X125000000Y-94480000D03*
X125000000Y-93520000D03*
%TD*%
D29*
%TO.C,F3*%
X180500000Y-110875000D03*
X180500000Y-109125000D03*
%TD*%
D30*
%TO.C,C3*%
X152980000Y-99000000D03*
X152020000Y-99000000D03*
%TD*%
D31*
%TO.C,C13*%
X161000000Y-119475000D03*
X161000000Y-116525000D03*
%TD*%
D32*
%TO.C,LD2*%
X158837500Y-82500000D03*
X157262500Y-82500000D03*
%TD*%
D16*
%TO.C,R14*%
X126010000Y-82000000D03*
X124990000Y-82000000D03*
%TD*%
D33*
%TO.C,Y1*%
X120800000Y-96500000D03*
X120800000Y-100500000D03*
X123200000Y-100500000D03*
X123200000Y-96500000D03*
%TD*%
D34*
%TO.C,R1*%
X122000000Y-113345000D03*
X122000000Y-112655000D03*
%TD*%
%TO.C,R2*%
X121000000Y-113165000D03*
X121000000Y-112475000D03*
%TD*%
D35*
%TO.C,C18*%
X133520000Y-100000000D03*
X134480000Y-100000000D03*
%TD*%
D34*
%TO.C,R10*%
X165550000Y-82845000D03*
X165550000Y-82155000D03*
%TD*%
D30*
%TO.C,C19*%
X125460000Y-83000000D03*
X124500000Y-83000000D03*
%TD*%
D34*
%TO.C,R3*%
X127000000Y-101345000D03*
X127000000Y-100655000D03*
%TD*%
D35*
%TO.C,C14*%
X145520000Y-117000000D03*
X146480000Y-117000000D03*
%TD*%
%TO.C,C15*%
X139520000Y-100000000D03*
X140480000Y-100000000D03*
%TD*%
D11*
%TO.C,R9*%
X163550000Y-77010000D03*
X163550000Y-75990000D03*
%TD*%
D36*
%TO.C,C2*%
X121950000Y-109500000D03*
X120050000Y-109500000D03*
%TD*%
D37*
%TO.C,J1*%
X125100000Y-113637500D03*
X125900000Y-113637500D03*
D38*
X127050000Y-113637500D03*
X128050000Y-113637500D03*
X128550000Y-113637500D03*
X129550000Y-113637500D03*
D37*
X130700000Y-113637500D03*
X131500000Y-113637500D03*
X131500000Y-113637500D03*
X130700000Y-113637500D03*
D38*
X130050000Y-113637500D03*
X129050000Y-113637500D03*
X127550000Y-113637500D03*
X126550000Y-113637500D03*
D37*
X125900000Y-113637500D03*
X125100000Y-113637500D03*
D39*
X123980000Y-114212500D03*
D40*
X123980000Y-118392500D03*
D39*
X132620000Y-114212500D03*
D40*
X132620000Y-118392500D03*
%TD*%
D41*
%TO.C,J2*%
X172690000Y-79900000D03*
X172690000Y-76000000D03*
X173960000Y-79900000D03*
X173960000Y-76000000D03*
X175230000Y-79900000D03*
X175230000Y-76000000D03*
X176500000Y-79900000D03*
X176500000Y-76000000D03*
X177770000Y-79900000D03*
X177770000Y-76000000D03*
%TD*%
D42*
%TO.C,C16*%
X139550000Y-101500000D03*
X141450000Y-101500000D03*
%TD*%
D43*
%TO.C,S2*%
X152200000Y-103690000D03*
X152200000Y-106230000D03*
X152200000Y-108770000D03*
X152200000Y-111310000D03*
X160800000Y-111310000D03*
X160800000Y-108770000D03*
X160800000Y-106230000D03*
X160800000Y-103690000D03*
%TD*%
D44*
%TO.C,U2*%
X164854300Y-54000000D03*
X164854300Y-55270000D03*
X164854300Y-56540000D03*
X164854300Y-57810000D03*
X164854300Y-59080000D03*
X164854300Y-60350000D03*
X164854300Y-61620000D03*
X164854300Y-62890000D03*
X164854300Y-64160000D03*
X164854300Y-65430000D03*
X164854300Y-66700000D03*
X164854300Y-67970000D03*
X164854300Y-69240000D03*
X164854300Y-70510000D03*
D45*
X167889300Y-71605002D03*
X169159300Y-71605002D03*
X170429300Y-71605002D03*
X171699300Y-71605002D03*
X172969300Y-71605002D03*
X174239300Y-71605002D03*
X175509300Y-71605002D03*
X176779300Y-71605002D03*
X178049300Y-71605002D03*
X179319300Y-71605002D03*
D44*
X182354300Y-70510000D03*
X182354300Y-69240000D03*
X182354300Y-67970000D03*
X182354300Y-66700000D03*
X182354300Y-65430000D03*
X182354300Y-64160000D03*
X182354300Y-62890000D03*
X182354300Y-61620000D03*
X182354300Y-60350000D03*
X182354300Y-59080000D03*
X182354300Y-57810000D03*
X182354300Y-56540000D03*
X182354300Y-55270000D03*
X182354300Y-54000000D03*
D46*
X172100000Y-61186200D03*
X170700000Y-59786200D03*
X170700000Y-61186200D03*
X170700000Y-62586200D03*
X172100000Y-62586200D03*
X172100000Y-59786200D03*
X173500000Y-59786200D03*
X173500000Y-61186200D03*
X173500000Y-62586200D03*
%TD*%
D47*
%TO.C,C4*%
X124970000Y-99975000D03*
X124970000Y-100665000D03*
%TD*%
D15*
%TO.C,C6*%
X134560000Y-104000000D03*
X135250000Y-104000000D03*
%TD*%
D30*
%TO.C,C1*%
X121980000Y-111000000D03*
X121020000Y-111000000D03*
%TD*%
D17*
%TO.C,C20*%
X139000000Y-74980000D03*
X139000000Y-74020000D03*
%TD*%
D48*
%TO.C,C12*%
X169000000Y-103450000D03*
X169000000Y-101550000D03*
%TD*%
D49*
%TO.C,F4*%
X147927500Y-115500000D03*
X149072500Y-115500000D03*
%TD*%
D50*
%TO.C,J5*%
X119550000Y-84960000D03*
X123450000Y-84960000D03*
X119550000Y-86230000D03*
X123450000Y-86230000D03*
X119550000Y-87500000D03*
X123450000Y-87500000D03*
X119550000Y-88770000D03*
X123450000Y-88770000D03*
X119550000Y-90040000D03*
X123450000Y-90040000D03*
%TD*%
D51*
%TO.C,C17*%
X143000000Y-100020000D03*
X143000000Y-100980000D03*
%TD*%
D52*
%TO.C,R13*%
X146000000Y-99990000D03*
X146000000Y-101010000D03*
%TD*%
D53*
%TO.C,S1*%
X159000000Y-96200000D03*
X153750000Y-96200000D03*
X159000000Y-93000000D03*
X153750000Y-93000000D03*
%TD*%
D49*
%TO.C,F2*%
X128927500Y-57500000D03*
X130072500Y-57500000D03*
%TD*%
D51*
%TO.C,C9*%
X162500000Y-55520000D03*
X162500000Y-56480000D03*
%TD*%
D54*
%TO.C,R8*%
X135990000Y-74500000D03*
X137010000Y-74500000D03*
%TD*%
D47*
%TO.C,R12*%
X156050000Y-82155000D03*
X156050000Y-82845000D03*
%TD*%
D55*
%TO.C,Y2*%
X137250000Y-102500000D03*
X134750000Y-102500000D03*
%TD*%
D14*
%TO.C,Q1*%
X163450000Y-78362500D03*
X161550000Y-78362500D03*
X162500000Y-80637500D03*
%TD*%
D56*
%TO.C,U3*%
X127600000Y-110775000D03*
X128550000Y-110775000D03*
X129500000Y-110775000D03*
X129500000Y-108500000D03*
X128550000Y-108500000D03*
X127600000Y-108500000D03*
%TD*%
M02*
